<svg xmlns="http://www.w3.org/2000/svg" viewBox="0 0 495.806 528.187"><g data-name="Layer 2"><path d="M37.81 121.605v-11.016a11.93 11.93 0 0 1 .684-4.464 11.671 11.671 0 0 1 9.54-7.633v4.753a6.36 6.36 0 0 0-3.744 2.772 9.232 9.232 0 0 0-1.008 4.5h4.752v11.088zm15.336 0v-11.016a11.918 11.918 0 0 1 .684-4.464 11.599 11.599 0 0 1 2.124-3.673 11.783 11.783 0 0 1 7.416-3.96v4.753a6.36 6.36 0 0 0-3.744 2.772 9.23 9.23 0 0 0-1.008 4.5h4.752v11.088zm192.309 158.887v11.016a11.948 11.948 0 0 1-.684 4.464 11.671 11.671 0 0 1-9.54 7.632v-4.752a6.363 6.363 0 0 0 3.744-2.772 9.239 9.239 0 0 0 1.008-4.5h-4.752v-11.088zm15.337 0v11.016a11.956 11.956 0 0 1-.685 4.464 11.671 11.671 0 0 1-9.54 7.632v-4.752a6.362 6.362 0 0 0 3.744-2.772 9.239 9.239 0 0 0 1.008-4.5h-4.752v-11.088z" fill="#4659a7"/><path d="M88.46 113.735v21.166h-5.004v-21.166H76.76v-4.463h18.394v4.463zm21.311 21.166v-11.339c0-2.555-1.62-3.42-3.095-3.42s-3.132.865-3.132 3.42v11.339h-4.68v-25.63h4.68v8.604a6.012 6.012 0 0 1 4.572-1.944 6.09 6.09 0 0 1 4.427 1.656 6.95 6.95 0 0 1 1.908 5.327v11.987zm13.393-7.92a3.837 3.837 0 0 0 4.104 4.176 5.3 5.3 0 0 0 4.247-1.764l2.844 2.772a8.818 8.818 0 0 1-7.127 2.952c-4.427 0-8.675-2.016-8.675-9.611 0-6.12 3.311-9.575 8.17-9.575 5.22 0 8.172 3.744 8.172 9.07v1.98zm6.695-5.219a3.494 3.494 0 0 0-6.263 0 4.603 4.603 0 0 0-.432 2.016h7.127a4.595 4.595 0 0 0-.432-2.016zm30.672 11.05a7.833 7.833 0 0 1-5.832 2.304 7.745 7.745 0 0 1-5.795-2.304c-1.692-1.8-2.123-3.923-2.123-7.307s.431-5.47 2.123-7.27a8.486 8.486 0 0 1 11.627 0c1.691 1.8 2.124 3.887 2.124 7.27s-.396 5.544-2.124 7.308zm-3.636-11.842a2.959 2.959 0 0 0-2.196-.828 2.93 2.93 0 0 0-2.16.828c-.972.936-1.08 2.628-1.08 4.535 0 1.944.108 3.636 1.08 4.572a2.931 2.931 0 0 0 2.16.828 2.96 2.96 0 0 0 2.196-.828c.972-.936 1.08-2.628 1.08-4.572 0-1.907-.108-3.599-1.08-4.534zm21.132 13.93v-11.338c0-2.555-1.62-3.42-3.096-3.42s-3.131.865-3.131 3.42v11.339h-4.68v-18.754h4.571v1.728a6.417 6.417 0 0 1 4.68-1.944 6.09 6.09 0 0 1 4.427 1.656 6.95 6.95 0 0 1 1.908 5.327v11.987zm15.012 0a5.096 5.096 0 0 1-5.47-5.363v-20.265h4.678v19.977c0 1.116.469 1.692 1.656 1.692h1.8v3.96zm12.348 3.024a6.675 6.675 0 0 1-1.404 2.412 5.423 5.423 0 0 1-4.031 1.44h-1.836v-4.212h1.08a2.023 2.023 0 0 0 2.34-1.692l.792-2.304-6.408-17.42h4.931l3.888 11.59 3.743-11.59h4.932zm40.966-3.024v-11.338c0-2.555-1.62-3.42-3.096-3.42a3.022 3.022 0 0 0-3.132 3.312V134.9h-4.68v-11.339c0-2.555-1.62-3.42-3.095-3.42s-3.132.865-3.132 3.42v11.339h-4.68v-18.754h4.572v1.728a6.562 6.562 0 0 1 4.68-1.944 5.809 5.809 0 0 1 4.967 2.376 7.152 7.152 0 0 1 5.615-2.376 6.542 6.542 0 0 1 4.608 1.656 7.07 7.07 0 0 1 2.052 5.327v11.987zm22.681-2.088a7.833 7.833 0 0 1-5.831 2.304 7.744 7.744 0 0 1-5.795-2.304c-1.692-1.8-2.124-3.923-2.124-7.307s.432-5.471 2.124-7.27a8.486 8.486 0 0 1 11.626 0c1.691 1.8 2.124 3.887 2.124 7.27s-.397 5.544-2.124 7.308zm-3.636-11.842a3.277 3.277 0 0 0-4.355 0c-.972.936-1.08 2.627-1.08 4.535 0 1.944.108 3.636 1.08 4.572a3.279 3.279 0 0 0 4.355 0c.973-.936 1.08-2.628 1.08-4.572 0-1.907-.107-3.599-1.08-4.534zm20.412.288a3.129 3.129 0 0 0-5.508 2.34V134.9h-4.678v-18.753h4.571v1.8a6.347 6.347 0 0 1 4.715-2.016 5.659 5.659 0 0 1 4.428 1.764zm15.444 13.642v-1.62a5.699 5.699 0 0 1-4.608 1.8 6.486 6.486 0 0 1-4.787-1.656 6.01 6.01 0 0 1-1.548-4.212c0-2.987 2.052-5.435 6.48-5.435h4.355v-.936c0-2.051-1.008-2.951-3.492-2.951a4.15 4.15 0 0 0-3.6 1.62l-2.951-2.916c1.836-2.016 3.6-2.664 6.731-2.664 5.291 0 7.99 2.232 7.99 6.623V134.9zm-.108-7.919h-3.563c-1.872 0-2.773.756-2.773 2.16 0 1.296.9 2.124 2.844 2.124a3.56 3.56 0 0 0 2.772-.9 2.9 2.9 0 0 0 .72-2.376zm15.012 7.92a5.096 5.096 0 0 1-5.472-5.364v-20.265h4.68v19.977c0 1.116.468 1.692 1.657 1.692h1.8v3.96zm6.337-21.958v-3.816h4.787v3.816zm.072 21.957v-18.213h4.679V134.9zm15.767 0a5.086 5.086 0 0 1-5.436-5.363v-9.287h-1.98v-3.563h1.98v-5.543h4.68v5.543h3.312v3.563h-3.312v9c0 1.08.504 1.691 1.62 1.691h1.692v3.96zm13.787 3.024a6.661 6.661 0 0 1-1.403 2.412 5.422 5.422 0 0 1-4.032 1.44h-1.836v-4.212h1.08a2.024 2.024 0 0 0 2.34-1.692l.791-2.304-6.407-17.421h4.931l3.888 11.59 3.743-11.59h4.932zm32.111-5.112a7.833 7.833 0 0 1-5.83 2.304 7.744 7.744 0 0 1-5.796-2.304c-1.692-1.8-2.124-3.923-2.124-7.307s.432-5.471 2.124-7.27a8.486 8.486 0 0 1 11.626 0c1.693 1.8 2.124 3.887 2.124 7.27s-.396 5.544-2.124 7.308zm-3.635-11.842a3.277 3.277 0 0 0-4.356 0c-.972.936-1.08 2.627-1.08 4.535 0 1.944.108 3.636 1.08 4.572a3.279 3.279 0 0 0 4.356 0c.972-.936 1.08-2.628 1.08-4.572 0-1.907-.108-3.599-1.08-4.534zm15.48-.72v14.65h-4.68v-14.65h-1.944v-3.563h1.944v-2.34a5.116 5.116 0 0 1 5.471-5.364h2.664v3.96h-1.836c-1.116 0-1.62.612-1.62 1.692v2.052h3.456v3.563zm21.275 14.65a5.086 5.086 0 0 1-5.436-5.363v-9.287h-1.98v-3.563h1.98v-5.543h4.68v5.543h3.312v3.563h-3.312v9c0 1.08.504 1.691 1.62 1.691h1.692v3.96zm17.71 0v-11.338c0-2.555-1.62-3.42-3.095-3.42s-3.132.865-3.132 3.42v11.339h-4.678v-25.63h4.679v8.604a6.015 6.015 0 0 1 4.572-1.944 6.089 6.089 0 0 1 4.427 1.656 6.95 6.95 0 0 1 1.908 5.327v11.987zm13.394-7.919a3.837 3.837 0 0 0 4.103 4.175 5.302 5.302 0 0 0 4.248-1.763l2.844 2.771a8.82 8.82 0 0 1-7.127 2.952c-4.428 0-8.676-2.016-8.676-9.61 0-6.12 3.312-9.576 8.17-9.576 5.22 0 8.173 3.744 8.173 9.071v1.98zm6.695-5.22a3.494 3.494 0 0 0-6.263 0 4.594 4.594 0 0 0-.432 2.017h7.127a4.596 4.596 0 0 0-.432-2.016zM46.16 173.902v-1.62a5.698 5.698 0 0 1-4.607 1.8 6.486 6.486 0 0 1-4.787-1.656 6.01 6.01 0 0 1-1.548-4.212c0-2.987 2.051-5.435 6.479-5.435h4.355v-.936c0-2.052-1.008-2.952-3.492-2.952a4.148 4.148 0 0 0-3.599 1.62l-2.951-2.916c1.835-2.015 3.6-2.663 6.73-2.663 5.292 0 7.992 2.231 7.992 6.623V173.9zm-.108-7.92H42.49c-1.871 0-2.771.756-2.771 2.16 0 1.297.9 2.124 2.843 2.124a3.562 3.562 0 0 0 2.772-.9 2.9 2.9 0 0 0 .72-2.375zm15.012 7.92a5.096 5.096 0 0 1-5.47-5.364v-20.265h4.678v19.977c0 1.116.469 1.692 1.656 1.692h1.8v3.96zm12.564 7.09c-2.88 0-4.86-.575-6.803-2.447l2.916-2.952a4.777 4.777 0 0 0 3.672 1.44c2.807 0 3.779-1.98 3.779-3.887v-1.908a5.493 5.493 0 0 1-4.464 1.872 6.239 6.239 0 0 1-4.463-1.656c-1.764-1.764-1.908-4.175-1.908-7.451s.144-5.651 1.908-7.415a6.329 6.329 0 0 1 4.5-1.656 5.491 5.491 0 0 1 4.57 1.98v-1.764h4.536v18.07c0 4.5-3.203 7.775-8.242 7.775zm.468-21.85c-2.771 0-3.06 2.377-3.06 4.86s.288 4.896 3.06 4.896 3.096-2.412 3.096-4.896-.324-4.859-3.095-4.859zm25.991 12.67a7.834 7.834 0 0 1-5.83 2.305 7.745 7.745 0 0 1-5.796-2.304c-1.692-1.8-2.124-3.923-2.124-7.307s.432-5.471 2.124-7.271a8.486 8.486 0 0 1 11.626 0c1.692 1.8 2.124 3.887 2.124 7.27s-.395 5.545-2.123 7.309zm-3.635-11.841a2.959 2.959 0 0 0-2.196-.829 2.929 2.929 0 0 0-2.16.829c-.972.936-1.08 2.627-1.08 4.535 0 1.944.108 3.636 1.08 4.572a2.93 2.93 0 0 0 2.16.827 2.96 2.96 0 0 0 2.196-.827c.972-.936 1.08-2.628 1.08-4.572 0-1.907-.108-3.599-1.08-4.535zm20.412.288a3.128 3.128 0 0 0-5.508 2.34V173.9h-4.68v-18.753h4.572v1.8a6.35 6.35 0 0 1 4.716-2.016 5.658 5.658 0 0 1 4.427 1.764zm6.12-8.315v-3.816h4.788v3.816zm.072 21.957v-18.213h4.68V173.9zm15.768 0a5.086 5.086 0 0 1-5.436-5.364v-9.286h-1.98v-3.563h1.98v-5.543h4.68v5.543h3.312v3.563h-3.312v9c0 1.08.504 1.691 1.62 1.691h1.692v3.96zm17.71 0v-11.338c0-2.555-1.62-3.42-3.095-3.42s-3.131.865-3.131 3.42v11.339h-4.68v-25.63h4.68v8.604a6.012 6.012 0 0 1 4.57-1.944 6.09 6.09 0 0 1 4.429 1.656 6.95 6.95 0 0 1 1.907 5.327v11.987zm31.535 0v-11.338c0-2.555-1.62-3.42-3.095-3.42a3.022 3.022 0 0 0-3.132 3.312V173.9h-4.68v-11.339c0-2.555-1.62-3.42-3.095-3.42s-3.132.865-3.132 3.42v11.339h-4.68v-18.754h4.572v1.728a6.562 6.562 0 0 1 4.68-1.944 5.809 5.809 0 0 1 4.966 2.376 7.153 7.153 0 0 1 5.616-2.376 6.54 6.54 0 0 1 4.608 1.656 7.07 7.07 0 0 1 2.05 5.327v11.987zm18.002-21.957v-3.816h4.788v3.816zm.072 21.957v-18.213h4.68V173.9zm16.055.216c-2.951 0-5.579-.324-7.99-2.7l3.06-3.06a6.763 6.763 0 0 0 5.003 1.764c1.62 0 3.311-.54 3.311-1.943 0-.936-.467-1.584-1.98-1.728l-3.023-.289c-3.312-.323-5.4-1.799-5.4-5.255 0-3.923 3.42-5.975 7.236-5.975 2.952 0 5.363.54 7.162 2.196l-2.878 2.915a6.461 6.461 0 0 0-4.356-1.26c-1.872 0-2.664.864-2.664 1.8s.54 1.476 1.944 1.62l2.952.288c3.707.36 5.579 2.304 5.579 5.508 0 4.14-3.528 6.12-7.956 6.12zm26.1-.216a5.086 5.086 0 0 1-5.436-5.364v-9.286h-1.98v-3.563h1.98v-5.543h4.68v5.543h3.312v3.563h-3.312v9c0 1.08.505 1.691 1.62 1.691h1.693v3.96zm19.583-2.088a7.833 7.833 0 0 1-5.83 2.304 7.744 7.744 0 0 1-5.796-2.304c-1.692-1.8-2.124-3.923-2.124-7.307s.432-5.471 2.124-7.271a8.486 8.486 0 0 1 11.626 0c1.692 1.8 2.124 3.888 2.124 7.27s-.396 5.545-2.123 7.309zm-3.636-11.842a3.277 3.277 0 0 0-4.355 0c-.972.936-1.08 2.627-1.08 4.535 0 1.944.108 3.636 1.08 4.572a3.279 3.279 0 0 0 4.355 0c.973-.936 1.08-2.628 1.08-4.572.001-1.907-.106-3.599-1.08-4.535zm31.536 11.842a7.833 7.833 0 0 1-5.831 2.304 7.744 7.744 0 0 1-5.795-2.304c-1.693-1.8-2.124-3.923-2.124-7.307s.431-5.471 2.124-7.271a8.486 8.486 0 0 1 11.626 0c1.692 1.8 2.124 3.888 2.124 7.27s-.396 5.545-2.124 7.309zm-3.636-11.842a3.277 3.277 0 0 0-4.356 0c-.971.936-1.079 2.627-1.079 4.535 0 1.944.108 3.636 1.08 4.572a3.279 3.279 0 0 0 4.355 0c.973-.936 1.08-2.628 1.08-4.572 0-1.907-.107-3.599-1.08-4.535zm23.975 12.454a6.286 6.286 0 0 1-4.535 1.692 5.503 5.503 0 0 1-4.536-1.872v8.53h-4.679v-25.627h4.536v1.764a5.657 5.657 0 0 1 4.68-1.98 6.284 6.284 0 0 1 4.535 1.692c1.8 1.836 1.943 4.751 1.943 7.883s-.143 6.083-1.943 7.919zm-5.903-13.282c-2.807 0-3.168 2.34-3.168 5.363s.36 5.4 3.168 5.4 3.168-2.376 3.168-5.4-.36-5.363-3.167-5.363zm18.18 14.758a5.086 5.086 0 0 1-5.435-5.364v-9.286h-1.98v-3.563h1.98v-5.543h4.68v5.543h3.312v3.563h-3.312v9c0 1.08.504 1.691 1.62 1.691h1.692v3.96zm6.733-21.957v-3.816h4.787v3.816zm.072 21.957v-18.213h4.68V173.9zm31.713 0v-11.338c0-2.555-1.62-3.42-3.095-3.42a3.022 3.022 0 0 0-3.132 3.312V173.9h-4.68v-11.339c0-2.555-1.62-3.42-3.096-3.42s-3.132.865-3.132 3.42v11.339h-4.678v-18.754h4.57v1.728a6.562 6.562 0 0 1 4.68-1.944 5.809 5.809 0 0 1 4.968 2.376 7.152 7.152 0 0 1 5.615-2.376 6.54 6.54 0 0 1 4.607 1.656 7.07 7.07 0 0 1 2.052 5.327v11.987zm9.65-21.957v-3.816h4.787v3.816zm.073 21.957v-18.213h4.678V173.9zm8.603 0v-3.564l8.315-10.978h-7.846v-4.212h13.822v3.564l-8.423 10.978h8.423v4.212zm22.175-7.92a3.837 3.837 0 0 0 4.103 4.176 5.302 5.302 0 0 0 4.249-1.764l2.843 2.772a8.82 8.82 0 0 1-7.127 2.952c-4.427 0-8.675-2.016-8.675-9.611 0-6.12 3.311-9.575 8.17-9.575 5.22 0 8.172 3.744 8.172 9.07v1.98zm6.695-5.218a3.494 3.494 0 0 0-6.262 0 4.595 4.595 0 0 0-.433 2.015h7.128a4.595 4.595 0 0 0-.432-2.015zM43.533 215.924a6.675 6.675 0 0 1-1.404 2.412 5.423 5.423 0 0 1-4.031 1.44h-1.836v-4.212h1.08a2.023 2.023 0 0 0 2.34-1.692l.792-2.303-6.407-17.422h4.931l3.888 11.59 3.743-11.59h4.931zm23.435-5.111a7.834 7.834 0 0 1-5.831 2.304 7.745 7.745 0 0 1-5.796-2.304c-1.692-1.8-2.123-3.924-2.123-7.307s.431-5.472 2.123-7.271a8.486 8.486 0 0 1 11.627 0c1.692 1.8 2.124 3.887 2.124 7.27s-.396 5.544-2.124 7.308zm-3.636-11.842a2.959 2.959 0 0 0-2.195-.829 2.93 2.93 0 0 0-2.16.829c-.973.936-1.08 2.627-1.08 4.535 0 1.944.107 3.635 1.08 4.571a2.931 2.931 0 0 0 2.16.828 2.96 2.96 0 0 0 2.195-.828c.972-.936 1.08-2.627 1.08-4.571 0-1.908-.108-3.6-1.08-4.536zm21.024 13.93v-1.728a6.419 6.419 0 0 1-4.68 1.943 6.09 6.09 0 0 1-4.427-1.655 6.95 6.95 0 0 1-1.908-5.328v-11.986h4.68v11.339c0 2.555 1.62 3.419 3.095 3.419s3.132-.864 3.132-3.42v-11.338h4.679v18.754zm27.792 0v-1.62a5.698 5.698 0 0 1-4.608 1.8 6.486 6.486 0 0 1-4.787-1.656 6.01 6.01 0 0 1-1.548-4.212c0-2.987 2.052-5.435 6.48-5.435h4.355v-.936c0-2.052-1.008-2.952-3.492-2.952a4.148 4.148 0 0 0-3.599 1.62l-2.951-2.916c1.835-2.015 3.6-2.663 6.73-2.663 5.292 0 7.992 2.231 7.992 6.623V212.9zm-.108-7.92h-3.564c-1.871 0-2.771.756-2.771 2.16 0 1.297.9 2.124 2.843 2.124a3.562 3.562 0 0 0 2.772-.9 2.9 2.9 0 0 0 .72-2.375zm15.876 8.135c-2.952 0-5.58-.323-7.99-2.7l3.06-3.06a6.762 6.762 0 0 0 5.003 1.765c1.62 0 3.311-.54 3.311-1.944 0-.936-.468-1.584-1.98-1.728l-3.023-.288c-3.312-.324-5.4-1.8-5.4-5.255 0-3.924 3.42-5.975 7.236-5.975 2.951 0 5.363.54 7.163 2.195l-2.88 2.916a6.459 6.459 0 0 0-4.356-1.26c-1.871 0-2.663.864-2.663 1.8s.54 1.476 1.943 1.62l2.952.288c3.708.36 5.58 2.304 5.58 5.507-.001 4.14-3.529 6.12-7.956 6.12zm29.843-.215v-1.62a5.699 5.699 0 0 1-4.607 1.8 6.486 6.486 0 0 1-4.787-1.656 6.01 6.01 0 0 1-1.548-4.212c0-2.987 2.051-5.435 6.479-5.435h4.355v-.936c0-2.052-1.008-2.952-3.491-2.952a4.149 4.149 0 0 0-3.6 1.62l-2.951-2.916c1.835-2.015 3.6-2.663 6.73-2.663 5.292 0 7.992 2.231 7.992 6.623V212.9zm-.108-7.92h-3.563c-1.872 0-2.772.756-2.772 2.16 0 1.297.9 2.124 2.844 2.124a3.562 3.562 0 0 0 2.771-.9 2.9 2.9 0 0 0 .72-2.375zm25.524 8.135c-3.743 0-8.387-2.015-8.387-9.61s4.644-9.575 8.387-9.575a7.987 7.987 0 0 1 6.192 2.52l-3.168 3.167a3.787 3.787 0 0 0-3.024-1.476 3.245 3.245 0 0 0-2.663 1.224 6.356 6.356 0 0 0-1.044 4.14 6.471 6.471 0 0 0 1.044 4.175 3.247 3.247 0 0 0 2.663 1.224 3.787 3.787 0 0 0 3.024-1.476l3.167 3.132a8.015 8.015 0 0 1-6.19 2.555zm22.247-2.303a7.833 7.833 0 0 1-5.83 2.303 7.745 7.745 0 0 1-5.796-2.303c-1.692-1.8-2.124-3.924-2.124-7.307s.432-5.472 2.124-7.271a8.486 8.486 0 0 1 11.626 0c1.692 1.8 2.124 3.887 2.124 7.27s-.396 5.544-2.124 7.308zm-3.635-11.843a2.959 2.959 0 0 0-2.196-.828 2.93 2.93 0 0 0-2.16.828c-.972.936-1.08 2.628-1.08 4.536 0 1.943.108 3.635 1.08 4.571a2.931 2.931 0 0 0 2.16.828 2.96 2.96 0 0 0 2.196-.828c.972-.936 1.08-2.628 1.08-4.571 0-1.908-.108-3.6-1.08-4.536zm21.132 13.93v-11.338c0-2.555-1.62-3.42-3.096-3.42s-3.131.865-3.131 3.42v11.339h-4.68v-18.754h4.571v1.728a6.417 6.417 0 0 1 4.68-1.944 6.09 6.09 0 0 1 4.427 1.656 6.95 6.95 0 0 1 1.908 5.327v11.987zm15.876.216c-2.952 0-5.58-.323-7.991-2.7l3.06-3.06a6.762 6.762 0 0 0 5.003 1.765c1.62 0 3.311-.54 3.311-1.944 0-.936-.467-1.584-1.98-1.728l-3.023-.288c-3.312-.324-5.4-1.8-5.4-5.255 0-3.924 3.42-5.975 7.236-5.975 2.951 0 5.363.54 7.163 2.195l-2.88 2.916a6.459 6.459 0 0 0-4.355-1.26c-1.873 0-2.664.864-2.664 1.8s.54 1.476 1.944 1.62l2.951.288c3.708.36 5.58 2.304 5.58 5.507 0 4.14-3.528 6.12-7.955 6.12zm22.68-.216v-1.727a6.421 6.421 0 0 1-4.68 1.943 6.09 6.09 0 0 1-4.428-1.655 6.949 6.949 0 0 1-1.907-5.328v-11.986h4.679v11.339c0 2.555 1.62 3.419 3.096 3.419s3.131-.864 3.131-3.42v-11.338h4.68v18.754zm31.643 0v-11.338c0-2.555-1.62-3.42-3.096-3.42a3.022 3.022 0 0 0-3.132 3.312V212.9h-4.68v-11.339c0-2.555-1.62-3.42-3.095-3.42s-3.132.865-3.132 3.42v11.339h-4.679v-18.754h4.571v1.728a6.561 6.561 0 0 1 4.68-1.944 5.809 5.809 0 0 1 4.967 2.376 7.152 7.152 0 0 1 5.615-2.376 6.54 6.54 0 0 1 4.608 1.656 7.07 7.07 0 0 1 2.051 5.327v11.987zm13.392-7.918a3.837 3.837 0 0 0 4.104 4.175 5.302 5.302 0 0 0 4.248-1.764l2.844 2.772a8.82 8.82 0 0 1-7.127 2.951c-4.428 0-8.676-2.015-8.676-9.61 0-6.12 3.311-9.575 8.17-9.575 5.22 0 8.173 3.743 8.173 9.07v1.98zm6.696-5.22a3.494 3.494 0 0 0-6.263 0 4.595 4.595 0 0 0-.433 2.016h7.128a4.596 4.596 0 0 0-.432-2.016zm19.547-.504a3.129 3.129 0 0 0-5.507 2.34V212.9h-4.679v-18.753h4.571v1.8a6.347 6.347 0 0 1 4.715-2.016 5.659 5.659 0 0 1 4.428 1.764zM356.91 212.9v-1.62a5.699 5.699 0 0 1-4.608 1.8 6.486 6.486 0 0 1-4.787-1.655 6.01 6.01 0 0 1-1.548-4.212c0-2.988 2.052-5.435 6.48-5.435h4.355v-.936c0-2.052-1.007-2.952-3.492-2.952a4.15 4.15 0 0 0-3.6 1.62l-2.951-2.916c1.836-2.016 3.6-2.664 6.731-2.664 5.291 0 7.99 2.232 7.99 6.624V212.9zm-.108-7.918h-3.563c-1.872 0-2.773.755-2.773 2.16 0 1.295.9 2.123 2.844 2.123a3.56 3.56 0 0 0 2.772-.9 2.9 2.9 0 0 0 .72-2.375zm20.628 7.918v-11.338c0-2.555-1.62-3.42-3.095-3.42s-3.132.865-3.132 3.42v11.339h-4.679v-18.754h4.571v1.728a6.417 6.417 0 0 1 4.68-1.944 6.089 6.089 0 0 1 4.427 1.656 6.95 6.95 0 0 1 1.908 5.327v11.987zm20.088 0v-1.763a5.63 5.63 0 0 1-4.643 1.98 6.316 6.316 0 0 1-4.572-1.692c-1.8-1.835-1.943-4.75-1.943-7.919 0-3.131.143-6.047 1.943-7.883a6.227 6.227 0 0 1 4.536-1.692 5.619 5.619 0 0 1 4.572 1.872v-8.53h4.678V212.9zm-3.311-14.758c-2.808 0-3.167 2.34-3.167 5.363s.359 5.4 3.167 5.4 3.204-2.376 3.204-5.4-.397-5.363-3.204-5.363zm21.42-7.199v-3.815h4.787v3.815zm.072 21.957v-18.213h4.679V212.9zm20.806 0v-11.338c0-2.555-1.62-3.42-3.096-3.42s-3.132.865-3.132 3.42v11.339h-4.679v-18.754h4.572v1.728a6.417 6.417 0 0 1 4.68-1.944 6.089 6.089 0 0 1 4.426 1.656 6.95 6.95 0 0 1 1.909 5.327v11.987zm-378.141 39v-11.338c0-2.556-1.62-3.42-3.096-3.42a3.021 3.021 0 0 0-3.131 3.312v11.447h-4.68v-11.34c0-2.555-1.62-3.418-3.096-3.418s-3.131.863-3.131 3.419V251.9H36.55v-18.754h4.572v1.728a6.559 6.559 0 0 1 4.679-1.944 5.809 5.809 0 0 1 4.967 2.376 7.15 7.15 0 0 1 5.615-2.376 6.54 6.54 0 0 1 4.608 1.656 7.068 7.068 0 0 1 2.052 5.327v11.987zm19.333 0v-1.62a5.7 5.7 0 0 1-4.607 1.8 6.484 6.484 0 0 1-4.787-1.655 6.01 6.01 0 0 1-1.548-4.212c0-2.987 2.051-5.435 6.479-5.435h4.355v-.936c0-2.052-1.008-2.951-3.491-2.951a4.149 4.149 0 0 0-3.6 1.62l-2.952-2.916c1.836-2.016 3.6-2.664 6.731-2.664 5.292 0 7.991 2.231 7.991 6.623v12.347zm-.108-7.918h-3.563c-1.872 0-2.772.755-2.772 2.159 0 1.296.9 2.124 2.844 2.124a3.563 3.563 0 0 0 2.771-.9 2.901 2.901 0 0 0 .72-2.376zm20.628 7.918v-11.338c0-2.556-1.62-3.42-3.096-3.42s-3.131.864-3.131 3.42V251.9h-4.68v-18.754h4.572v1.728a6.418 6.418 0 0 1 4.679-1.944 6.09 6.09 0 0 1 4.428 1.656 6.95 6.95 0 0 1 1.907 5.327v11.987zm16.705 3.024a6.675 6.675 0 0 1-1.404 2.412 5.42 5.42 0 0 1-4.032 1.44h-1.835v-4.211h1.08a2.023 2.023 0 0 0 2.34-1.693l.792-2.304-6.407-17.421h4.93l3.889 11.59 3.743-11.59h4.931zm26.603-2.808c-3.744 0-8.387-2.015-8.387-9.61s4.643-9.575 8.387-9.575a7.989 7.989 0 0 1 6.191 2.52l-3.168 3.168a3.787 3.787 0 0 0-3.023-1.476 3.245 3.245 0 0 0-2.664 1.224 6.355 6.355 0 0 0-1.044 4.14 6.468 6.468 0 0 0 1.044 4.175 3.246 3.246 0 0 0 2.664 1.224 3.788 3.788 0 0 0 3.023-1.476l3.168 3.131a8.016 8.016 0 0 1-6.191 2.555zm19.295-.216v-1.62a5.699 5.699 0 0 1-4.607 1.8 6.484 6.484 0 0 1-4.788-1.655 6.01 6.01 0 0 1-1.547-4.212c0-2.987 2.051-5.435 6.479-5.435h4.355v-.936c0-2.052-1.008-2.951-3.491-2.951a4.149 4.149 0 0 0-3.6 1.62l-2.952-2.916c1.836-2.016 3.6-2.664 6.731-2.664 5.292 0 7.991 2.231 7.991 6.623v12.347zm-.108-7.918h-3.563c-1.872 0-2.772.755-2.772 2.159 0 1.296.9 2.124 2.844 2.124a3.564 3.564 0 0 0 2.771-.9 2.902 2.902 0 0 0 .72-2.376zm15.877 8.134c-2.952 0-5.58-.324-7.991-2.699l3.06-3.06a6.762 6.762 0 0 0 5.003 1.764c1.62 0 3.311-.54 3.311-1.945 0-.935-.467-1.583-1.98-1.727l-3.023-.288c-3.312-.324-5.4-1.8-5.4-5.255 0-3.924 3.42-5.976 7.236-5.976 2.952 0 5.363.54 7.163 2.197l-2.88 2.915a6.459 6.459 0 0 0-4.356-1.26c-1.871 0-2.663.864-2.663 1.8s.54 1.475 1.944 1.62l2.951.288c3.708.359 5.58 2.303 5.58 5.506 0 4.141-3.528 6.12-7.955 6.12zm15.552-8.134a3.838 3.838 0 0 0 4.103 4.175 5.302 5.302 0 0 0 4.248-1.763l2.843 2.771a8.819 8.819 0 0 1-7.127 2.951c-4.427 0-8.675-2.015-8.675-9.61 0-6.119 3.312-9.575 8.171-9.575 5.22 0 8.171 3.743 8.171 9.071v1.98zm6.695-5.22a3.495 3.495 0 0 0-6.264 0 4.607 4.607 0 0 0-.431 2.015h7.127a4.6 4.6 0 0 0-.432-2.015zm15.516 13.354c-2.952 0-5.58-.324-7.991-2.7l3.06-3.06a6.762 6.762 0 0 0 5.003 1.764c1.62 0 3.312-.54 3.312-1.944 0-.935-.468-1.583-1.98-1.727l-3.024-.289c-3.311-.323-5.399-1.8-5.399-5.254 0-3.924 3.42-5.976 7.235-5.976 2.952 0 5.364.54 7.164 2.196l-2.88 2.915a6.459 6.459 0 0 0-4.356-1.26c-1.872 0-2.664.864-2.664 1.8s.54 1.476 1.944 1.62l2.952.288c3.708.36 5.58 2.304 5.58 5.507-.001 4.141-3.528 6.12-7.956 6.12zm27.215 2.808a6.66 6.66 0 0 1-1.404 2.412 5.42 5.42 0 0 1-4.031 1.44h-1.836v-4.212h1.08a2.024 2.024 0 0 0 2.34-1.692l.791-2.304-6.407-17.422h4.932l3.887 11.591 3.743-11.59h4.932zm23.4-5.112a7.835 7.835 0 0 1-5.831 2.304 7.746 7.746 0 0 1-5.795-2.304c-1.693-1.8-2.124-3.924-2.124-7.306s.431-5.472 2.124-7.272a8.486 8.486 0 0 1 11.626 0c1.691 1.8 2.124 3.888 2.124 7.272s-.397 5.543-2.124 7.307zm-3.636-11.842a3.28 3.28 0 0 0-4.356 0c-.971.936-1.079 2.628-1.079 4.536 0 1.944.108 3.635 1.08 4.571a3.277 3.277 0 0 0 4.355 0c.973-.936 1.08-2.627 1.08-4.57 0-1.91-.108-3.6-1.08-4.537zm21.024 13.93v-1.727a6.42 6.42 0 0 1-4.68 1.944 6.09 6.09 0 0 1-4.427-1.656 6.951 6.951 0 0 1-1.908-5.328v-11.986h4.68v11.339c0 2.555 1.62 3.42 3.095 3.42s3.132-.865 3.132-3.42v-11.34h4.68v18.755zm31.931-1.475a6.284 6.284 0 0 1-4.535 1.692 5.659 5.659 0 0 1-4.68-1.98v1.763h-4.535v-25.628h4.679v8.531a5.501 5.501 0 0 1 4.536-1.872 6.226 6.226 0 0 1 4.535 1.692c1.8 1.835 1.943 4.751 1.943 7.883 0 3.167-.143 6.083-1.943 7.919zm-5.903-13.282c-2.808 0-3.168 2.34-3.168 5.363s.36 5.4 3.168 5.4 3.168-2.376 3.168-5.4-.36-5.363-3.168-5.363zm15.984 6.839a3.838 3.838 0 0 0 4.104 4.176 5.304 5.304 0 0 0 4.248-1.764l2.843 2.771a8.82 8.82 0 0 1-7.126 2.952c-4.428 0-8.676-2.016-8.676-9.61 0-6.12 3.311-9.576 8.17-9.576 5.22 0 8.173 3.744 8.173 9.072v1.98zm6.695-5.22a3.494 3.494 0 0 0-6.262 0 4.6 4.6 0 0 0-.433 2.015h7.128a4.6 4.6 0 0 0-.433-2.015zm16.813 13.354c-3.744 0-8.388-2.015-8.388-9.61s4.644-9.575 8.388-9.575a7.986 7.986 0 0 1 6.19 2.52l-3.167 3.168a3.786 3.786 0 0 0-3.023-1.476 3.244 3.244 0 0 0-2.665 1.224 6.354 6.354 0 0 0-1.044 4.14 6.467 6.467 0 0 0 1.044 4.174 3.245 3.245 0 0 0 2.664 1.225 3.787 3.787 0 0 0 3.024-1.476l3.167 3.131a8.013 8.013 0 0 1-6.19 2.555zm22.283-2.304a7.835 7.835 0 0 1-5.83 2.304 7.746 7.746 0 0 1-5.796-2.304c-1.692-1.8-2.124-3.923-2.124-7.306s.432-5.472 2.124-7.272a8.486 8.486 0 0 1 11.626 0c1.691 1.8 2.124 3.888 2.124 7.272s-.396 5.543-2.124 7.307zm-3.636-11.842a3.28 3.28 0 0 0-4.355 0c-.972.936-1.08 2.628-1.08 4.536 0 1.944.108 3.635 1.08 4.571a3.277 3.277 0 0 0 4.355 0c.973-.936 1.08-2.627 1.08-4.57 0-1.91-.107-3.6-1.08-4.537zm32.04 13.93v-11.338c0-2.556-1.62-3.42-3.096-3.42a3.021 3.021 0 0 0-3.132 3.312v11.447h-4.68v-11.34c0-2.555-1.62-3.418-3.096-3.418s-3.132.863-3.132 3.419V251.9h-4.678v-18.754h4.57v1.728a6.558 6.558 0 0 1 4.68-1.944 5.809 5.809 0 0 1 4.968 2.376 7.15 7.15 0 0 1 5.615-2.376 6.54 6.54 0 0 1 4.607 1.656 7.07 7.07 0 0 1 2.052 5.327v11.987zm13.392-7.918a3.838 3.838 0 0 0 4.103 4.175 5.304 5.304 0 0 0 4.249-1.763l2.843 2.771a8.821 8.821 0 0 1-7.128 2.952c-4.426 0-8.674-2.016-8.674-9.61 0-6.12 3.311-9.576 8.17-9.576 5.22 0 8.172 3.744 8.172 9.072v1.98zm6.695-5.22a3.494 3.494 0 0 0-6.263 0 4.602 4.602 0 0 0-.432 2.015h7.128a4.6 4.6 0 0 0-.433-2.015zM42.418 290.9a5.086 5.086 0 0 1-5.436-5.363v-9.287h-1.98v-3.563h1.98v-5.543h4.68v5.543h3.311v3.563h-3.312v8.999c0 1.08.504 1.691 1.62 1.691h1.692v3.96zm17.71 0v-11.339c0-2.555-1.62-3.419-3.095-3.419s-3.132.864-3.132 3.42V290.9h-4.68v-25.629h4.68v8.604a6.012 6.012 0 0 1 4.571-1.945 6.09 6.09 0 0 1 4.428 1.657 6.95 6.95 0 0 1 1.908 5.327V290.9zm13.393-7.919a3.838 3.838 0 0 0 4.104 4.176 5.302 5.302 0 0 0 4.247-1.764l2.844 2.772a8.818 8.818 0 0 1-7.127 2.95c-4.428 0-8.675-2.015-8.675-9.61 0-6.118 3.311-9.574 8.17-9.574 5.22 0 8.172 3.743 8.172 9.071v1.98zm6.695-5.22a3.495 3.495 0 0 0-6.263 0 4.6 4.6 0 0 0-.432 2.016h7.127a4.6 4.6 0 0 0-.432-2.015zm31.463 11.663a6.285 6.285 0 0 1-4.536 1.692 5.5 5.5 0 0 1-4.535-1.873v8.532h-4.68v-25.629h4.536v1.764a5.657 5.657 0 0 1 4.68-1.98 6.285 6.285 0 0 1 4.535 1.693c1.8 1.835 1.944 4.75 1.944 7.883s-.144 6.083-1.944 7.919zm-5.903-13.282c-2.808 0-3.168 2.34-3.168 5.363s.36 5.4 3.168 5.4 3.167-2.376 3.167-5.4-.36-5.363-3.167-5.363zm22.5 1.115a3.129 3.129 0 0 0-5.508 2.34V290.9h-4.68v-18.754h4.572v1.8a6.348 6.348 0 0 1 4.715-2.015 5.656 5.656 0 0 1 4.428 1.763zm18.107 11.555a7.836 7.836 0 0 1-5.831 2.304 7.747 7.747 0 0 1-5.796-2.304c-1.692-1.8-2.123-3.924-2.123-7.307s.431-5.472 2.123-7.271a8.486 8.486 0 0 1 11.627 0c1.692 1.8 2.124 3.887 2.124 7.271s-.396 5.544-2.124 7.307zm-3.636-11.842a2.962 2.962 0 0 0-2.195-.827 2.932 2.932 0 0 0-2.16.827c-.973.936-1.08 2.628-1.08 4.536 0 1.944.107 3.635 1.08 4.571a2.93 2.93 0 0 0 2.16.829 2.96 2.96 0 0 0 2.195-.829c.972-.936 1.08-2.627 1.08-4.57 0-1.91-.108-3.601-1.08-4.537zm20.592 13.93v-1.764a5.631 5.631 0 0 1-4.643 1.98 6.314 6.314 0 0 1-4.572-1.692c-1.8-1.836-1.944-4.752-1.944-7.919 0-3.131.144-6.047 1.944-7.882a6.227 6.227 0 0 1 4.536-1.693 5.617 5.617 0 0 1 4.571 1.872v-8.531h4.68V290.9zm-3.312-14.758c-2.807 0-3.167 2.34-3.167 5.364s.36 5.399 3.167 5.399 3.204-2.376 3.204-5.4-.396-5.363-3.204-5.363zm23.94 14.758v-1.728a6.417 6.417 0 0 1-4.68 1.944 6.09 6.09 0 0 1-4.427-1.655 6.951 6.951 0 0 1-1.908-5.329v-11.986h4.68v11.34c0 2.555 1.62 3.42 3.096 3.42s3.131-.865 3.131-3.42v-11.34h4.68V290.9zm17.28.216c-3.744 0-8.387-2.016-8.387-9.61s4.643-9.575 8.387-9.575a7.989 7.989 0 0 1 6.191 2.52l-3.167 3.167a3.787 3.787 0 0 0-3.024-1.475 3.245 3.245 0 0 0-2.664 1.223 6.354 6.354 0 0 0-1.044 4.14 6.468 6.468 0 0 0 1.044 4.175 3.246 3.246 0 0 0 2.664 1.225 3.788 3.788 0 0 0 3.024-1.477l3.167 3.132a8.016 8.016 0 0 1-6.191 2.555zm15.696-.216a5.086 5.086 0 0 1-5.435-5.363v-9.287h-1.98v-3.563h1.98v-5.543h4.68v5.543h3.311v3.563h-3.311v8.999c0 1.08.504 1.691 1.62 1.691h1.692v3.96zm6.624 0v-5.327h5.363v5.327zm-188.58 34.695v-.953H45.66v.952zm19.77 3.39a3.42 3.42 0 0 1-2.493-.98c-.939-.939-.995-1.807-.995-4.09s.056-3.153.995-4.091a3.42 3.42 0 0 1 2.493-.98 3.375 3.375 0 0 1 3.46 2.97h-1.093a2.421 2.421 0 0 0-4.09-1.317c-.63.644-.7 1.372-.7 3.418s.07 2.773.7 3.418a2.443 2.443 0 0 0 4.118-1.318h1.064a3.385 3.385 0 0 1-3.46 2.97zm10.038-.085v-4.257c0-1.219-.63-1.822-1.68-1.822a1.607 1.607 0 0 0-1.724 1.822v4.257h-1.008v-9.974h1.008v3.838a2.487 2.487 0 0 1 1.933-.84 2.322 2.322 0 0 1 2.48 2.55v4.426zm7.308-5.575a1.442 1.442 0 0 0-1.191-.504 1.683 1.683 0 0 0-1.653 1.85v4.23H68.25v-6.893h1.008v.841a2.314 2.314 0 0 1 1.933-.924 2.122 2.122 0 0 1 1.653.644zm1.986-3.277v-1.135h1.134v1.135zm.056 8.852v-6.891h1.008v6.891zm5.699.084a3.756 3.756 0 0 1-2.83-.994l.673-.673a2.85 2.85 0 0 0 2.143.8c1.148 0 1.835-.407 1.835-1.22 0-.616-.337-.938-1.15-1.008l-1.133-.098c-1.345-.112-2.06-.701-2.06-1.85 0-1.26 1.05-2.016 2.536-2.016a3.9 3.9 0 0 1 2.48.742l-.66.658a2.941 2.941 0 0 0-1.834-.546c-1.009 0-1.541.42-1.541 1.135 0 .616.378.924 1.233 1.008l1.078.098c1.205.113 2.031.56 2.031 1.863 0 1.33-1.12 2.101-2.802 2.101zm6.566-.084a1.69 1.69 0 0 1-1.765-1.849v-4.272h-.869v-.77h.869v-2.115h1.009v2.115h1.47v.77h-1.47v4.244c0 .63.293 1.009.938 1.009h.532v.868zm7.085-.7a2.88 2.88 0 0 1-3.95 0 4.906 4.906 0 0 1 0-5.491 2.88 2.88 0 0 1 3.95 0 4.905 4.905 0 0 1 0 5.491zm-.714-4.875a1.734 1.734 0 0 0-1.261-.504 1.701 1.701 0 0 0-1.247.504 4.325 4.325 0 0 0 0 4.259 1.701 1.701 0 0 0 1.247.504 1.733 1.733 0 0 0 1.26-.504 3.023 3.023 0 0 0 .547-2.13 2.984 2.984 0 0 0-.547-2.13zm8.344 5.057a2.374 2.374 0 0 1-1.68.602 2.244 2.244 0 0 1-1.948-.896v3.894h-1.009v-9.973h1.008v.812a2.229 2.229 0 0 1 1.948-.896 2.374 2.374 0 0 1 1.68.602 5.516 5.516 0 0 1 0 5.855zm-1.89-5.56c-1.514 0-1.738 1.287-1.738 2.632s.224 2.634 1.737 2.634c1.499 0 1.723-1.29 1.723-2.634s-.225-2.633-1.723-2.633zm9.295 6.078v-4.258c0-1.218-.63-1.821-1.68-1.821a1.607 1.607 0 0 0-1.724 1.821v4.258h-1.008v-9.974h1.008v3.838a2.487 2.487 0 0 1 1.933-.84 2.322 2.322 0 0 1 2.48 2.55v4.426zm4.086-3.18c0 1.513.7 2.38 2.03 2.38a2.26 2.26 0 0 0 1.808-.783l.686.602a3.178 3.178 0 0 1-2.521 1.065c-1.835 0-3.012-1.093-3.012-3.53 0-2.242 1.079-3.53 2.83-3.53 1.793 0 2.83 1.275 2.83 3.348v.448zm3.431-1.905a1.77 1.77 0 0 0-3.221 0 2.628 2.628 0 0 0-.21 1.148h3.656a2.822 2.822 0 0 0-.224-1.148zm7.21-.49a1.442 1.442 0 0 0-1.19-.504 1.683 1.683 0 0 0-1.653 1.848v4.23h-1.008v-6.891h1.008v.84a2.314 2.314 0 0 1 1.934-.924 2.123 2.123 0 0 1 1.652.644zm13.457 5.575h-.995l-2.213-7.984-2.213 7.984h-.995l-2.55-9.974h1.136l1.946 8.041 2.2-8.04h.952l2.2 8.04 1.946-8.04h1.135zm5.736 1.667a2.025 2.025 0 0 1-.49.812 1.895 1.895 0 0 1-1.344.477h-.435v-.896h.309c.7 0 .91-.225 1.134-.855l.49-1.344-2.479-6.752h1.092l1.891 5.533 1.877-5.533h1.093zm6.272-1.667a1.642 1.642 0 0 1-1.751-1.835v-8.139h1.009v8.097c0 .672.224 1.009.924 1.009h.547v.868zm2.337-8.852v-1.135h1.135v1.134zm.056 8.852v-6.892h1.008v6.892zm4.159-3.18c0 1.513.7 2.38 2.031 2.38a2.26 2.26 0 0 0 1.807-.783l.686.602a3.177 3.177 0 0 1-2.521 1.065c-1.835 0-3.012-1.093-3.012-3.53 0-2.242 1.078-3.53 2.83-3.53 1.793 0 2.83 1.275 2.83 3.348v.448zm3.431-1.905a1.77 1.77 0 0 0-3.221 0 2.63 2.63 0 0 0-.21 1.148h3.656a2.833 2.833 0 0 0-.225-1.148zm3.33 7.102v-3.25h1.233v2.143zm13.766-2.017h-.939l-1.807-5.35-1.793 5.35h-.939l-2.185-6.892h1.093l1.583 5.534 1.807-5.534h.868l1.821 5.534 1.57-5.534h1.092zm7.992 0v-4.258c0-1.218-.63-1.821-1.68-1.821a1.607 1.607 0 0 0-1.724 1.821v4.258h-1.008v-9.974h1.008v3.838a2.487 2.487 0 0 1 1.934-.84 2.322 2.322 0 0 1 2.48 2.55v4.426zm3.4-8.852v-1.135h1.134v1.134zm.056 8.852v-6.892h1.008v6.892zm5.698.084a3.756 3.756 0 0 1-2.829-.994l.673-.673a2.85 2.85 0 0 0 2.143.799c1.148 0 1.835-.406 1.835-1.219 0-.616-.337-.938-1.15-1.009l-1.133-.097c-1.345-.113-2.06-.702-2.06-1.85 0-1.261 1.05-2.017 2.536-2.017a3.9 3.9 0 0 1 2.48.742l-.659.658a2.941 2.941 0 0 0-1.835-.546c-1.008 0-1.54.42-1.54 1.135 0 .616.378.924 1.232 1.008l1.08.099c1.204.112 2.03.56 2.03 1.862 0 1.332-1.121 2.102-2.803 2.102zm6.58-.084a1.69 1.69 0 0 1-1.765-1.849v-4.272h-.868v-.77h.868v-2.115h1.01v2.115h1.47v.77h-1.47v4.244c0 .63.293 1.009.938 1.009h.532v.868zm4.438 0a1.642 1.642 0 0 1-1.75-1.835v-8.139h1.008v8.097c0 .672.224 1.009.924 1.009h.547v.868zm2.884-3.18c0 1.513.7 2.38 2.031 2.38a2.26 2.26 0 0 0 1.807-.783l.686.602a3.177 3.177 0 0 1-2.521 1.065c-1.835 0-3.012-1.093-3.012-3.53 0-2.242 1.079-3.53 2.83-3.53 1.793 0 2.83 1.275 2.83 3.348v.448zm3.432-1.905a1.77 1.77 0 0 0-3.222 0 2.628 2.628 0 0 0-.21 1.148h3.656a2.833 2.833 0 0 0-.224-1.148zm7.994 4.566a2.374 2.374 0 0 1-1.681.603 2.208 2.208 0 0 1-1.947-.91v.826h-1.009v-9.974h1.009v3.88a2.232 2.232 0 0 1 1.947-.881 2.374 2.374 0 0 1 1.68.602 5.516 5.516 0 0 1 0 5.855zm-1.891-5.56c-1.513 0-1.737 1.288-1.737 2.632s.224 2.634 1.737 2.634c1.499 0 1.723-1.289 1.723-2.634s-.224-2.632-1.723-2.632zm6.607 6.079a1.641 1.641 0 0 1-1.75-1.835v-8.139h1.008v8.097c0 .672.224 1.009.924 1.009h.547v.868zm6.693-.7a2.88 2.88 0 0 1-3.95 0 4.905 4.905 0 0 1 0-5.491 2.88 2.88 0 0 1 3.95 0 4.906 4.906 0 0 1 0 5.491zm-.714-4.875a1.733 1.733 0 0 0-1.26-.504 1.702 1.702 0 0 0-1.247.504 4.328 4.328 0 0 0 0 4.259 1.701 1.701 0 0 0 1.246.504 1.733 1.733 0 0 0 1.261-.504 3.023 3.023 0 0 0 .546-2.13 2.984 2.984 0 0 0-.546-2.13zm10.138 5.575h-.939l-1.807-5.35-1.793 5.35h-.938l-2.185-6.892h1.092l1.583 5.534 1.807-5.534h.868l1.821 5.534 1.57-5.534h1.092zm4.07-3.18c0 1.513.7 2.38 2.031 2.38a2.26 2.26 0 0 0 1.807-.783l.687.602a3.178 3.178 0 0 1-2.522 1.065c-1.835 0-3.011-1.093-3.011-3.53 0-2.242 1.078-3.53 2.83-3.53 1.793 0 2.83 1.275 2.83 3.348v.448zm3.432-1.905a1.77 1.77 0 0 0-3.222 0 2.628 2.628 0 0 0-.21 1.148h3.656a2.822 2.822 0 0 0-.224-1.148zm7.21-.49a1.441 1.441 0 0 0-1.19-.504 1.683 1.683 0 0 0-1.653 1.848v4.23h-1.008v-6.891h1.008v.84a2.314 2.314 0 0 1 1.933-.924 2.122 2.122 0 0 1 1.653.644zm9.955 4.875a2.88 2.88 0 0 1-3.95 0 4.903 4.903 0 0 1 0-5.492 2.88 2.88 0 0 1 3.95 0 4.908 4.908 0 0 1 0 5.492zm-.715-4.875a1.733 1.733 0 0 0-1.26-.504 1.7 1.7 0 0 0-1.247.504 4.325 4.325 0 0 0 0 4.258 1.7 1.7 0 0 0 1.247.504 1.733 1.733 0 0 0 1.26-.504 3.025 3.025 0 0 0 .546-2.13 2.986 2.986 0 0 0-.546-2.128zm4.94-.546v6.121h-1.008v-6.121h-.882v-.77h.882v-1.26a1.68 1.68 0 0 1 1.75-1.85h.73v.869h-.547c-.644 0-.924.378-.924 1.009v1.232h1.47v.77zm9.942 6.205a3.418 3.418 0 0 1-2.493-.98c-.939-.939-.995-1.807-.995-4.09s.056-3.152.995-4.09a3.418 3.418 0 0 1 2.493-.981 3.376 3.376 0 0 1 3.46 2.97h-1.093a2.344 2.344 0 0 0-2.367-2.017 2.367 2.367 0 0 0-1.723.7c-.63.645-.7 1.372-.7 3.418s.07 2.773.7 3.418a2.443 2.443 0 0 0 4.118-1.317h1.065a3.385 3.385 0 0 1-3.46 2.97zm9.534-.084v-.658a3.171 3.171 0 0 1-3.936.112 1.929 1.929 0 0 1-.518-1.401c0-1.22.854-1.99 2.395-1.99h2.06v-.658c0-.994-.49-1.513-1.765-1.513a1.845 1.845 0 0 0-1.737.8l-.687-.632a2.652 2.652 0 0 1 2.438-1.036c1.863 0 2.76.813 2.76 2.297v4.679zm0-3.18h-1.919q-1.555 0-1.554 1.219c0 .797.49 1.176 1.596 1.176a2.074 2.074 0 0 0 1.527-.463 1.59 1.59 0 0 0 .35-1.19zm12.308 3.18v-4.244a1.711 1.711 0 1 0-3.418-.112v4.356h-1.008v-4.244a1.605 1.605 0 0 0-1.695-1.835 1.63 1.63 0 0 0-1.723 1.835v4.244h-1.009v-6.892h1.009v.756a2.515 2.515 0 0 1 1.946-.84 2.27 2.27 0 0 1 2.115 1.149 2.638 2.638 0 0 1 2.27-1.149 2.512 2.512 0 0 1 1.78.645 2.562 2.562 0 0 1 .742 1.919v4.412zm8.09-.519a2.377 2.377 0 0 1-1.68.603 2.207 2.207 0 0 1-1.947-.91v.826h-1.009v-9.974h1.009v3.88a2.23 2.23 0 0 1 1.946-.881 2.377 2.377 0 0 1 1.682.602 5.522 5.522 0 0 1 0 5.855zm-1.89-5.56c-1.514 0-1.737 1.288-1.737 2.633s.223 2.633 1.736 2.633c1.5 0 1.724-1.289 1.724-2.633s-.225-2.633-1.724-2.633zm8.735.504a1.441 1.441 0 0 0-1.19-.504 1.682 1.682 0 0 0-1.652 1.848v4.23h-1.009v-6.891h1.009v.84a2.313 2.313 0 0 1 1.932-.924 2.124 2.124 0 0 1 1.654.644zm1.987-3.278v-1.134h1.134v1.134zm.055 8.853v-6.892h1.009v6.892zm7.647 0v-.826a2.217 2.217 0 0 1-1.96.91 2.374 2.374 0 0 1-1.682-.603 5.516 5.516 0 0 1 0-5.854 2.374 2.374 0 0 1 1.681-.603 2.217 2.217 0 0 1 1.947.882v-3.88h1.008v9.974zm-1.737-6.08c-1.513 0-1.737 1.289-1.737 2.634s.224 2.633 1.737 2.633c1.499 0 1.723-1.289 1.723-2.633s-.224-2.633-1.723-2.633zm7.462 9.246a3.043 3.043 0 0 1-2.34-.925l.659-.644a2.122 2.122 0 0 0 1.653.686c1.33 0 1.89-.938 1.89-2.115v-1.078a2.221 2.221 0 0 1-1.932.896 2.373 2.373 0 0 1-1.667-.616 5.324 5.324 0 0 1 0-5.743 2.4 2.4 0 0 1 1.68-.602 2.17 2.17 0 0 1 1.934.896v-.813h.995v7.102a2.743 2.743 0 0 1-2.872 2.956zm.154-9.245c-1.5 0-1.723 1.288-1.723 2.577s.224 2.577 1.723 2.577 1.709-1.288 1.709-2.577-.21-2.577-1.71-2.577zm5.864 2.9c0 1.512.701 2.38 2.031 2.38a2.263 2.263 0 0 0 1.808-.784l.686.602a3.175 3.175 0 0 1-2.52 1.065c-1.835 0-3.012-1.093-3.012-3.53 0-2.241 1.078-3.53 2.829-3.53 1.793 0 2.83 1.275 2.83 3.348v.448zm3.433-1.906a1.77 1.77 0 0 0-3.222 0 2.621 2.621 0 0 0-.21 1.148h3.655a2.833 2.833 0 0 0-.223-1.148zm12.839 5.085l-.8-2.255h-4.355l-.798 2.255h-1.135l3.67-9.974h.897l3.656 9.974zm-2.955-8.446l-1.878 5.266h3.726zm9.925 8.446v-4.244a1.706 1.706 0 1 0-3.403 0v4.244h-1.009v-6.892h1.009v.756a2.485 2.485 0 0 1 1.933-.84 2.412 2.412 0 0 1 1.764.645 2.545 2.545 0 0 1 .715 1.919v4.412zm7.365 0v-.658a3.171 3.171 0 0 1-3.937.112 1.929 1.929 0 0 1-.518-1.401c0-1.219.854-1.99 2.395-1.99h2.06v-.658c0-.994-.49-1.512-1.765-1.512a1.845 1.845 0 0 0-1.737.798l-.687-.63a2.652 2.652 0 0 1 2.438-1.037c1.863 0 2.76.813 2.76 2.297v4.679zm0-3.18h-1.92q-1.555 0-1.554 1.219c0 .798.49 1.176 1.597 1.176a2.074 2.074 0 0 0 1.526-.462 1.59 1.59 0 0 0 .35-1.19zm5.177 3.18a1.642 1.642 0 0 1-1.75-1.835v-8.139h1.008v8.097c0 .672.224 1.009.925 1.009h.546v.868zm3.683 1.667a2.025 2.025 0 0 1-.49.812 1.895 1.895 0 0 1-1.345.477h-.434v-.896h.308c.7 0 .91-.225 1.135-.855l.49-1.344-2.48-6.752h1.093l1.891 5.533 1.877-5.533h1.093zm6.481-1.667a1.69 1.69 0 0 1-1.764-1.849v-4.272h-.868v-.77h.868v-2.115h1.009v2.115h1.47v.77h-1.47v4.244c0 .63.294 1.009.938 1.009h.532v.868zm2.66-8.852v-1.135h1.133v1.134zm.055 8.852v-6.892h1.009v6.892zm6.204.084c-1.737 0-3.053-1.177-3.053-3.53s1.316-3.53 3.053-3.53a2.727 2.727 0 0 1 2.269 1.023l-.687.645a1.89 1.89 0 0 0-1.582-.77 1.868 1.868 0 0 0-1.597.784 4.039 4.039 0 0 0 0 3.698 1.868 1.868 0 0 0 1.597.784 1.905 1.905 0 0 0 1.582-.784l.687.658a2.727 2.727 0 0 1-2.269 1.022zm8.037-.084v-.658a3.171 3.171 0 0 1-3.937.112 1.929 1.929 0 0 1-.518-1.401c0-1.219.854-1.99 2.395-1.99h2.06v-.658c0-.994-.49-1.512-1.765-1.512a1.845 1.845 0 0 0-1.737.798l-.687-.63a2.652 2.652 0 0 1 2.438-1.037c1.863 0 2.76.813 2.76 2.297v4.679zm0-3.18h-1.92q-1.555 0-1.554 1.219c0 .798.49 1.176 1.597 1.176a2.074 2.074 0 0 0 1.526-.462 1.59 1.59 0 0 0 .35-1.19zm3.427 5.197v-3.25h1.234v2.143zm9.143-2.017a1.69 1.69 0 0 1-1.765-1.849v-4.272h-.868v-.77h.868v-2.115h1.009v2.115h1.471v.77h-1.47v4.244c0 .63.293 1.009.938 1.009h.532v.868zm7.127 0v-4.258c0-1.219-.63-1.822-1.68-1.822a1.607 1.607 0 0 0-1.724 1.822v4.258h-1.008v-9.974h1.009v3.838a2.485 2.485 0 0 1 1.932-.84 2.322 2.322 0 0 1 2.48 2.55v4.426zm4.086-3.18c0 1.512.7 2.38 2.03 2.38a2.263 2.263 0 0 0 1.809-.784l.685.603a3.175 3.175 0 0 1-2.52 1.064c-1.835 0-3.012-1.093-3.012-3.53 0-2.241 1.079-3.53 2.83-3.53 1.792 0 2.83 1.275 2.83 3.349v.448zm3.432-1.906a1.77 1.77 0 0 0-3.221 0 2.621 2.621 0 0 0-.211 1.149h3.656a2.832 2.832 0 0 0-.224-1.148zm-371.962 21.97c-1.737 0-3.054-1.177-3.054-3.53s1.317-3.53 3.054-3.53a2.729 2.729 0 0 1 2.27 1.023l-.687.645a1.893 1.893 0 0 0-1.583-.771 1.867 1.867 0 0 0-1.596.784 4.039 4.039 0 0 0 0 3.699 1.867 1.867 0 0 0 1.596.784 1.907 1.907 0 0 0 1.583-.784l.687.658a2.729 2.729 0 0 1-2.27 1.022zm8.414-.784a2.88 2.88 0 0 1-3.95 0 4.905 4.905 0 0 1 0-5.491 2.88 2.88 0 0 1 3.95 0 4.906 4.906 0 0 1 0 5.491zm-.714-4.875a1.733 1.733 0 0 0-1.26-.504 1.702 1.702 0 0 0-1.247.504 4.328 4.328 0 0 0 0 4.259 1.701 1.701 0 0 0 1.246.504 1.733 1.733 0 0 0 1.261-.504 3.023 3.023 0 0 0 .546-2.13 2.984 2.984 0 0 0-.546-2.13zm12.56 5.575v-4.244a1.711 1.711 0 1 0-3.417-.112v4.356h-1.009v-4.244a1.605 1.605 0 0 0-1.695-1.835 1.63 1.63 0 0 0-1.723 1.835v4.244h-1.008v-6.892h1.008v.756a2.516 2.516 0 0 1 1.948-.84 2.271 2.271 0 0 1 2.115 1.149 2.637 2.637 0 0 1 2.269-1.149 2.508 2.508 0 0 1 1.779.645 2.56 2.56 0 0 1 .742 1.919v4.412zm8.09-.518a2.374 2.374 0 0 1-1.68.602 2.244 2.244 0 0 1-1.947-.896v3.894h-1.009v-9.974h1.009v.813a2.229 2.229 0 0 1 1.947-.896 2.374 2.374 0 0 1 1.68.602 5.516 5.516 0 0 1 0 5.854zm-1.89-5.561c-1.513 0-1.737 1.288-1.737 2.633s.224 2.633 1.737 2.633c1.498 0 1.723-1.289 1.723-2.633s-.225-2.633-1.723-2.633zm8.792 6.079v-.658a3.17 3.17 0 0 1-3.936.112 1.925 1.925 0 0 1-.518-1.401c0-1.219.854-1.99 2.395-1.99h2.059v-.658c0-.994-.49-1.512-1.765-1.512a1.844 1.844 0 0 0-1.737.798l-.686-.63a2.652 2.652 0 0 1 2.437-1.037c1.863 0 2.76.813 2.76 2.297v4.679zm0-3.18h-1.92q-1.553 0-1.554 1.219c0 .798.49 1.177 1.597 1.177a2.075 2.075 0 0 0 1.527-.463 1.592 1.592 0 0 0 .35-1.19zm7.868 3.18v-4.244a1.707 1.707 0 1 0-3.404 0v4.244h-1.008v-6.892h1.008v.756a2.486 2.486 0 0 1 1.933-.84 2.413 2.413 0 0 1 1.766.645 2.545 2.545 0 0 1 .714 1.919v4.412zm5.165 1.667a2.025 2.025 0 0 1-.49.812 1.895 1.895 0 0 1-1.345.477h-.434v-.896h.308c.7 0 .91-.225 1.134-.855l.49-1.344-2.479-6.752h1.093l1.891 5.533 1.877-5.533h1.093zm9.967-1.667a1.69 1.69 0 0 1-1.765-1.849v-4.272h-.868v-.77h.868v-2.116h1.01v2.115h1.47v.771h-1.47v4.244c0 .63.293 1.009.938 1.009h.532v.868zm7.127 0v-4.259c0-1.217-.63-1.82-1.68-1.82a1.607 1.607 0 0 0-1.723 1.82v4.259h-1.009v-9.974h1.009v3.838a2.487 2.487 0 0 1 1.933-.84 2.322 2.322 0 0 1 2.48 2.55v4.426zm7.364 0v-.658a3.17 3.17 0 0 1-3.936.112 1.925 1.925 0 0 1-.518-1.401c0-1.219.854-1.99 2.395-1.99h2.06v-.658c0-.994-.49-1.512-1.766-1.512a1.844 1.844 0 0 0-1.737.798l-.686-.63a2.652 2.652 0 0 1 2.437-1.037c1.863 0 2.76.813 2.76 2.297v4.679zm0-3.18h-1.92q-1.553 0-1.554 1.219c0 .798.49 1.177 1.597 1.177a2.075 2.075 0 0 0 1.527-.463 1.593 1.593 0 0 0 .35-1.19zm5.389 3.18a1.69 1.69 0 0 1-1.765-1.849v-4.272h-.868v-.77h.868v-2.116h1.009v2.115h1.47v.771h-1.47v4.244c0 .63.294 1.009.938 1.009h.532v.868zm10.627-.7a2.88 2.88 0 0 1-3.95 0 4.906 4.906 0 0 1 0-5.491 2.88 2.88 0 0 1 3.95 0 4.906 4.906 0 0 1 0 5.491zm-.715-4.875a1.733 1.733 0 0 0-1.26-.504 1.702 1.702 0 0 0-1.247.504 4.328 4.328 0 0 0 0 4.259 1.701 1.701 0 0 0 1.247.504 1.733 1.733 0 0 0 1.26-.504 3.023 3.023 0 0 0 .547-2.13 2.984 2.984 0 0 0-.546-2.13zm8.345 5.057a2.374 2.374 0 0 1-1.68.602 2.209 2.209 0 0 1-1.948-.91v.826h-1.009v-9.974h1.009v3.88a2.232 2.232 0 0 1 1.947-.881 2.374 2.374 0 0 1 1.68.602 5.516 5.516 0 0 1 0 5.855zm-1.89-5.561c-1.514 0-1.738 1.288-1.738 2.633s.224 2.634 1.737 2.634c1.499 0 1.723-1.29 1.723-2.634s-.224-2.633-1.723-2.633zm6.816 6.08a1.69 1.69 0 0 1-1.765-1.85v-4.272h-.868v-.77h.868v-2.116h1.01v2.115h1.47v.771h-1.47v4.244c0 .63.293 1.009.938 1.009h.532v.868zm6.554 0v-.66a3.171 3.171 0 0 1-3.937.113 1.927 1.927 0 0 1-.518-1.401c0-1.219.855-1.99 2.396-1.99h2.059v-.658c0-.994-.49-1.512-1.765-1.512a1.844 1.844 0 0 0-1.737.799l-.687-.631a2.652 2.652 0 0 1 2.438-1.036c1.863 0 2.759.812 2.759 2.296v4.679zm0-3.18h-1.92q-1.554 0-1.554 1.218c0 .798.49 1.177 1.597 1.177a2.074 2.074 0 0 0 1.526-.463 1.59 1.59 0 0 0 .35-1.19zm3.4-5.674v-1.135h1.134v1.135zm.056 8.853v-6.892h1.008v6.892zm7.94 0v-4.244a1.707 1.707 0 1 0-3.404 0v4.244h-1.009v-6.892h1.008v.756a2.486 2.486 0 0 1 1.933-.84 2.413 2.413 0 0 1 1.766.645 2.545 2.545 0 0 1 .714 1.919v4.412zm4.086-3.18c0 1.512.7 2.38 2.031 2.38a2.261 2.261 0 0 0 1.807-.784l.687.603a3.178 3.178 0 0 1-2.522 1.064c-1.835 0-3.012-1.092-3.012-3.53 0-2.241 1.08-3.529 2.83-3.529 1.793 0 2.83 1.274 2.83 3.348v.448zm3.432-1.906a1.77 1.77 0 0 0-3.222 0 2.63 2.63 0 0 0-.21 1.149h3.656a2.823 2.823 0 0 0-.224-1.148zm7.476 5.085v-.826a2.217 2.217 0 0 1-1.96.91 2.376 2.376 0 0 1-1.682-.602 5.519 5.519 0 0 1 0-5.855 2.376 2.376 0 0 1 1.681-.602 2.216 2.216 0 0 1 1.947.881v-3.88h1.009v9.975zm-1.737-6.079c-1.513 0-1.737 1.288-1.737 2.633s.224 2.634 1.737 2.634c1.499 0 1.723-1.29 1.723-2.634s-.225-2.632-1.723-2.632zm12.852 6.08v-.826a2.217 2.217 0 0 1-1.96.91 2.376 2.376 0 0 1-1.682-.603 5.519 5.519 0 0 1 0-5.854 2.376 2.376 0 0 1 1.682-.603 2.216 2.216 0 0 1 1.946.882v-3.88h1.009v9.974zm-1.736-6.08c-1.513 0-1.738 1.289-1.738 2.634s.225 2.633 1.738 2.633c1.498 0 1.722-1.289 1.722-2.633s-.224-2.633-1.722-2.633zm9.156 6.08v-.658a3.17 3.17 0 0 1-3.936.112 1.925 1.925 0 0 1-.518-1.401c0-1.219.854-1.99 2.395-1.99h2.06v-.658c0-.994-.49-1.512-1.766-1.512a1.844 1.844 0 0 0-1.737.798l-.686-.63a2.652 2.652 0 0 1 2.437-1.037c1.863 0 2.76.813 2.76 2.297v4.679zm0-3.18h-1.92q-1.553 0-1.554 1.219c0 .798.49 1.177 1.597 1.177a2.075 2.075 0 0 0 1.527-.463 1.592 1.592 0 0 0 .35-1.19zm5.389 3.18a1.69 1.69 0 0 1-1.765-1.849v-4.272h-.868v-.77h.868v-2.116h1.009v2.115h1.47v.771h-1.47v4.244c0 .63.294 1.009.938 1.009h.532v.868zm6.553 0v-.658a3.171 3.171 0 0 1-3.936.112 1.927 1.927 0 0 1-.518-1.401c0-1.219.854-1.99 2.395-1.99h2.06v-.658c0-.994-.49-1.512-1.766-1.512a1.844 1.844 0 0 0-1.737.798l-.686-.63a2.652 2.652 0 0 1 2.437-1.037c1.863 0 2.76.813 2.76 2.297v4.679zm0-3.18h-1.919q-1.555 0-1.555 1.219c0 .798.49 1.177 1.597 1.177a2.074 2.074 0 0 0 1.527-.463 1.59 1.59 0 0 0 .35-1.19zm11.368 2.48a2.88 2.88 0 0 1-3.95 0 4.906 4.906 0 0 1 0-5.491 2.88 2.88 0 0 1 3.95 0 4.906 4.906 0 0 1 0 5.491zm-.715-4.875a1.733 1.733 0 0 0-1.26-.504 1.702 1.702 0 0 0-1.247.504 4.328 4.328 0 0 0 0 4.259 1.702 1.702 0 0 0 1.247.504 1.733 1.733 0 0 0 1.26-.504 3.023 3.023 0 0 0 .547-2.13 2.984 2.984 0 0 0-.547-2.13zm8.12 5.575v-4.244a1.707 1.707 0 1 0-3.403 0v4.244h-1.009v-6.892h1.009v.756a2.486 2.486 0 0 1 1.933-.84 2.413 2.413 0 0 1 1.765.645 2.545 2.545 0 0 1 .714 1.919v4.412zm11.354-.644a2.68 2.68 0 0 1-1.988.742 2.796 2.796 0 0 1-2.003-.714 2.675 2.675 0 0 1-.7-1.737h1.008a1.553 1.553 0 0 0 1.695 1.554 1.74 1.74 0 0 0 1.233-.462 2.775 2.775 0 0 0 .545-2.03c0-1.22-.238-2.424-1.68-2.424a1.594 1.594 0 0 0-1.653.98h-.91v-5.238h5.042v.896h-4.132v3.166a2.338 2.338 0 0 1 1.793-.686 2.373 2.373 0 0 1 1.723.63 3.587 3.587 0 0 1 .826 2.675 3.472 3.472 0 0 1-.798 2.647zm5.291.728a2.621 2.621 0 0 1-2.731-2.745v-4.65a2.732 2.732 0 1 1 5.463 0v4.65a2.63 2.63 0 0 1-2.731 2.745zm1.723-7.34a1.731 1.731 0 1 0-3.445 0v4.538a1.731 1.731 0 1 0 3.445 0zm15.529 7.256v-4.244a1.711 1.711 0 1 0-3.418-.112v4.356h-1.008v-4.244a1.605 1.605 0 0 0-1.695-1.835 1.63 1.63 0 0 0-1.723 1.835v4.244h-1.009v-6.892h1.009v.756a2.515 2.515 0 0 1 1.946-.84 2.27 2.27 0 0 1 2.116 1.149 2.638 2.638 0 0 1 2.27-1.149 2.512 2.512 0 0 1 1.779.645 2.562 2.562 0 0 1 .742 1.919v4.412zm3.398-8.852v-1.135h1.134v1.134zm.056 8.852v-6.892h1.009v6.892zm5.25 0a1.642 1.642 0 0 1-1.751-1.835v-8.139h1.009v8.097c0 .672.223 1.009.924 1.009h.546v.868zm4.116 0a1.642 1.642 0 0 1-1.751-1.835v-8.139h1.009v8.097c0 .672.224 1.009.925 1.009h.546v.868zm2.338-8.852v-1.135h1.134v1.134zm.055 8.852v-6.892h1.01v6.892zm7.955-.7a2.88 2.88 0 0 1-3.95 0 4.903 4.903 0 0 1 0-5.491 2.88 2.88 0 0 1 3.95 0 4.908 4.908 0 0 1 0 5.491zm-.715-4.875a1.733 1.733 0 0 0-1.261-.504 1.703 1.703 0 0 0-1.247.504 4.331 4.331 0 0 0 0 4.259 1.703 1.703 0 0 0 1.247.504 1.733 1.733 0 0 0 1.26-.504 3.025 3.025 0 0 0 .547-2.13 2.986 2.986 0 0 0-.546-2.13zm8.12 5.575v-4.244a1.706 1.706 0 1 0-3.404 0v4.244h-1.008v-6.892h1.008v.756a2.485 2.485 0 0 1 1.933-.84 2.412 2.412 0 0 1 1.765.645 2.545 2.545 0 0 1 .715 1.919v4.412zm8.19-9.02v3.67h4.37v.952h-4.37v4.398h-1.066v-9.974h6.192v.954zm10.36 9.02v-.658a3.171 3.171 0 0 1-3.937.112 1.929 1.929 0 0 1-.517-1.401c0-1.219.854-1.99 2.394-1.99h2.06v-.658c0-.994-.49-1.512-1.764-1.512a1.845 1.845 0 0 0-1.738.799l-.686-.631a2.652 2.652 0 0 1 2.437-1.036c1.863 0 2.76.812 2.76 2.296v4.679zm0-3.18h-1.92q-1.555 0-1.554 1.219c0 .798.49 1.177 1.597 1.177a2.074 2.074 0 0 0 1.526-.463 1.59 1.59 0 0 0 .35-1.19zm6.132 3.264c-1.738 0-3.054-1.177-3.054-3.53s1.316-3.53 3.054-3.53a2.727 2.727 0 0 1 2.268 1.023l-.686.644a1.89 1.89 0 0 0-1.582-.77 1.867 1.867 0 0 0-1.598.784 4.038 4.038 0 0 0 0 3.698 1.867 1.867 0 0 0 1.598.784 1.905 1.905 0 0 0 1.582-.784l.686.659a2.727 2.727 0 0 1-2.269 1.022zm4.618-3.264c0 1.513.701 2.38 2.031 2.38a2.263 2.263 0 0 0 1.808-.783l.685.602a3.175 3.175 0 0 1-2.52 1.065c-1.835 0-3.012-1.093-3.012-3.53 0-2.242 1.078-3.53 2.83-3.53 1.792 0 2.83 1.275 2.83 3.348v.448zm3.432-1.905a1.77 1.77 0 0 0-3.221 0 2.622 2.622 0 0 0-.211 1.148h3.656a2.832 2.832 0 0 0-.224-1.148zm7.995 4.566a2.377 2.377 0 0 1-1.682.603 2.208 2.208 0 0 1-1.946-.91v.826h-1.01v-9.974h1.01v3.88a2.23 2.23 0 0 1 1.946-.881 2.377 2.377 0 0 1 1.682.602 5.522 5.522 0 0 1 0 5.855zm-1.892-5.56c-1.513 0-1.736 1.288-1.736 2.632s.223 2.634 1.736 2.634c1.499 0 1.724-1.289 1.724-2.634s-.225-2.632-1.724-2.632zm9.311 5.379a2.88 2.88 0 0 1-3.95 0 4.903 4.903 0 0 1 0-5.491 2.88 2.88 0 0 1 3.95 0 4.908 4.908 0 0 1 0 5.491zm-.714-4.875a1.733 1.733 0 0 0-1.261-.504 1.7 1.7 0 0 0-1.246.504 4.325 4.325 0 0 0 0 4.259 1.7 1.7 0 0 0 1.246.504 1.733 1.733 0 0 0 1.26-.504 3.024 3.024 0 0 0 .546-2.13 2.985 2.985 0 0 0-.546-2.13zm8.134 4.875a2.88 2.88 0 0 1-3.95 0 4.903 4.903 0 0 1 0-5.491 2.88 2.88 0 0 1 3.95 0 4.908 4.908 0 0 1 0 5.491zm-.715-4.875a1.733 1.733 0 0 0-1.26-.504 1.7 1.7 0 0 0-1.246.504 4.325 4.325 0 0 0 0 4.259 1.7 1.7 0 0 0 1.246.504 1.733 1.733 0 0 0 1.26-.504 3.025 3.025 0 0 0 .546-2.13 2.986 2.986 0 0 0-.546-2.13zm8.247 5.575l-2.185-3.53-1.345 1.541v1.989h-1.009v-9.974h1.01v6.668l3.109-3.586h1.26l-2.338 2.633 2.745 4.259zm10.807 0v-.77a2.525 2.525 0 0 1-1.947.854 2.45 2.45 0 0 1-1.78-.644 2.57 2.57 0 0 1-.7-1.933v-4.399h1.01v4.245c0 1.218.644 1.835 1.68 1.835a1.63 1.63 0 0 0 1.724-1.835v-4.245h1.008v6.892zm5.683.084a3.755 3.755 0 0 1-2.83-.994l.673-.673a2.851 2.851 0 0 0 2.143.799c1.149 0 1.835-.406 1.835-1.219 0-.616-.336-.938-1.148-1.009l-1.135-.097c-1.345-.113-2.06-.7-2.06-1.85 0-1.261 1.05-2.017 2.536-2.017a3.897 3.897 0 0 1 2.479.742l-.659.659a2.94 2.94 0 0 0-1.835-.546c-1.008 0-1.54.42-1.54 1.134 0 .617.378.924 1.233 1.008l1.078.099c1.205.112 2.031.56 2.031 1.863 0 1.33-1.12 2.1-2.801 2.1zm5.403-3.263c0 1.512.701 2.38 2.031 2.38a2.263 2.263 0 0 0 1.808-.784l.685.603a3.175 3.175 0 0 1-2.52 1.064c-1.835 0-3.012-1.093-3.012-3.53 0-2.241 1.078-3.53 2.83-3.53 1.792 0 2.83 1.275 2.83 3.348v.449zm3.433-1.906a1.77 1.77 0 0 0-3.222 0 2.62 2.62 0 0 0-.21 1.149h3.655a2.832 2.832 0 0 0-.223-1.149zm7.209-.49a1.441 1.441 0 0 0-1.19-.504 1.683 1.683 0 0 0-1.653 1.849v4.23h-1.008v-6.892h1.008v.84a2.315 2.315 0 0 1 1.933-.924 2.124 2.124 0 0 1 1.653.645zm4.087 5.66a3.755 3.755 0 0 1-2.83-.995l.672-.673a2.851 2.851 0 0 0 2.144.8c1.148 0 1.835-.407 1.835-1.22 0-.616-.336-.938-1.149-1.008l-1.134-.098c-1.345-.112-2.06-.7-2.06-1.85 0-1.26 1.05-2.017 2.536-2.017a3.897 3.897 0 0 1 2.478.743l-.658.658a2.94 2.94 0 0 0-1.835-.546c-1.009 0-1.54.42-1.54 1.135 0 .616.378.923 1.233 1.007l1.078.1c1.205.111 2.031.56 2.031 1.862 0 1.33-1.12 2.1-2.801 2.1zm-362.93 58.661H36.43v4.104h-1.065v-9.973h3.712a2.938 2.938 0 1 1 0 5.869zm-.084-4.916H36.43v3.964h2.563a1.985 1.985 0 1 0 0-3.964zm8.862 3.445a1.442 1.442 0 0 0-1.19-.504 1.683 1.683 0 0 0-1.654 1.849v4.23h-1.008v-6.892h1.008v.84a2.316 2.316 0 0 1 1.933-.923 2.123 2.123 0 0 1 1.653.644zm6.062 4.875a2.88 2.88 0 0 1-3.95 0 4.906 4.906 0 0 1 0-5.49 2.88 2.88 0 0 1 3.95 0 4.906 4.906 0 0 1 0 5.49zm-.715-4.875a1.733 1.733 0 0 0-1.26-.504 1.702 1.702 0 0 0-1.247.504 4.328 4.328 0 0 0 0 4.26 1.702 1.702 0 0 0 1.247.503 1.733 1.733 0 0 0 1.26-.504 3.023 3.023 0 0 0 .547-2.13 2.984 2.984 0 0 0-.547-2.129zm2.966 8.671h-.728v-.883h.546c.7 0 .925-.335.925-1.007v-8.097h1.008v8.139a1.652 1.652 0 0 1-1.751 1.848zm.686-11.948v-1.135h1.135v1.135zm4.229 5.673c0 1.513.7 2.38 2.03 2.38a2.26 2.26 0 0 0 1.808-.783l.686.602a3.178 3.178 0 0 1-2.521 1.065c-1.835 0-3.012-1.093-3.012-3.53 0-2.242 1.079-3.53 2.83-3.53 1.793 0 2.83 1.275 2.83 3.348v.448zm3.431-1.905a1.77 1.77 0 0 0-3.221 0 2.628 2.628 0 0 0-.21 1.148h3.656a2.822 2.822 0 0 0-.225-1.148zm6.034 5.169c-1.737 0-3.054-1.177-3.054-3.53s1.317-3.53 3.054-3.53a2.729 2.729 0 0 1 2.27 1.023l-.687.644a1.893 1.893 0 0 0-1.583-.77 1.866 1.866 0 0 0-1.597.784 4.038 4.038 0 0 0 0 3.699 1.866 1.866 0 0 0 1.597.784 1.907 1.907 0 0 0 1.583-.784l.687.658a2.729 2.729 0 0 1-2.27 1.022zm6.117-.084a1.69 1.69 0 0 1-1.765-1.85v-4.272h-.869v-.77h.869v-2.115h1.009v2.115h1.471v.77h-1.471v4.245c0 .63.294 1.008.939 1.008h.532v.869zm6.383 0v-9.974h1.065v9.974zm8.178 0v-4.245a1.707 1.707 0 1 0-3.404 0v4.245h-1.008v-6.892h1.008v.756a2.486 2.486 0 0 1 1.933-.84 2.413 2.413 0 0 1 1.765.644 2.545 2.545 0 0 1 .715 1.92v4.411zm5.627.084a3.756 3.756 0 0 1-2.83-.995l.673-.672a2.85 2.85 0 0 0 2.143.798c1.149 0 1.835-.406 1.835-1.218 0-.617-.336-.939-1.149-1.01l-1.134-.097c-1.345-.112-2.06-.7-2.06-1.85 0-1.26 1.05-2.016 2.536-2.016a3.9 3.9 0 0 1 2.48.742l-.659.658a2.941 2.941 0 0 0-1.835-.546c-1.008 0-1.54.42-1.54 1.135 0 .616.378.924 1.232 1.008l1.079.098c1.204.113 2.031.56 2.031 1.864 0 1.33-1.121 2.1-2.802 2.1zm9.409-.603a2.374 2.374 0 0 1-1.68.603 2.244 2.244 0 0 1-1.948-.897v3.895h-1.008v-9.974h1.008v.812a2.229 2.229 0 0 1 1.947-.896 2.374 2.374 0 0 1 1.681.603 5.516 5.516 0 0 1 0 5.854zm-1.89-5.56c-1.514 0-1.738 1.288-1.738 2.632s.224 2.634 1.737 2.634c1.499 0 1.723-1.289 1.723-2.634s-.224-2.633-1.723-2.633zm4.828-2.774v-1.135h1.135v1.135zm.056 8.852v-6.891h1.009v6.892zm7.38-5.575a1.442 1.442 0 0 0-1.19-.504 1.683 1.683 0 0 0-1.653 1.85v4.23h-1.009v-6.892h1.008v.84a2.316 2.316 0 0 1 1.934-.924 2.122 2.122 0 0 1 1.652.644zm5.81 5.575v-.658a3.171 3.171 0 0 1-3.936.113 1.927 1.927 0 0 1-.518-1.402c0-1.219.854-1.989 2.395-1.989h2.06v-.658c0-.994-.49-1.513-1.766-1.513a1.845 1.845 0 0 0-1.737.799l-.686-.63a2.652 2.652 0 0 1 2.437-1.037c1.863 0 2.76.812 2.76 2.297v4.678zm0-3.18h-1.919q-1.555 0-1.555 1.22c0 .797.49 1.176 1.597 1.176a2.074 2.074 0 0 0 1.527-.463 1.59 1.59 0 0 0 .35-1.19zm5.389 3.18a1.69 1.69 0 0 1-1.765-1.848v-4.273h-.869v-.77h.869v-2.115h1.009v2.115h1.47v.77h-1.47v4.245c0 .63.294 1.008.938 1.008h.532v.869zm2.659-8.852v-1.135h1.134v1.135zm.056 8.852v-6.891h1.008v6.892zm7.954-.7a2.88 2.88 0 0 1-3.95 0 4.906 4.906 0 0 1 0-5.49 2.88 2.88 0 0 1 3.95 0 4.906 4.906 0 0 1 0 5.49zm-.714-4.875a1.734 1.734 0 0 0-1.261-.503 1.701 1.701 0 0 0-1.247.504 4.325 4.325 0 0 0 0 4.258 1.701 1.701 0 0 0 1.247.504 1.733 1.733 0 0 0 1.26-.504 3.023 3.023 0 0 0 .547-2.13 2.984 2.984 0 0 0-.547-2.129zm8.12 5.576v-4.244a1.707 1.707 0 1 0-3.404 0v4.244h-1.008v-6.892h1.008v.756a2.486 2.486 0 0 1 1.933-.84 2.413 2.413 0 0 1 1.766.645 2.545 2.545 0 0 1 .714 1.919v4.412zM38.468 422.24a2.049 2.049 0 0 1-1.655.709h-2.171v-8.54h2.17a2.051 2.051 0 0 1 1.656.708c.575.636.623 1.583.623 3.55s-.048 2.938-.623 3.574zm-1.008-6.271a.778.778 0 0 0-.683-.348h-.792v6.118h.791a.776.776 0 0 0 .684-.35 6.153 6.153 0 0 0 .288-2.72 6.031 6.031 0 0 0-.288-2.7zm5.125 6.98v-.54a1.62 1.62 0 0 1-.384.42 1.169 1.169 0 0 1-.72.216 1.41 1.41 0 0 1-1.188-.527 2.19 2.19 0 0 1-.383-1.415 1.833 1.833 0 0 1 .587-1.416 2.01 2.01 0 0 1 1.452-.432h.563v-.875c0-.468-.216-.732-.611-.732a.53.53 0 0 0-.42.18.809.809 0 0 0-.192.588h-1.271a1.84 1.84 0 0 1 .54-1.367 1.963 1.963 0 0 1 1.331-.516 1.827 1.827 0 0 1 1.343.467 1.989 1.989 0 0 1 .552 1.488v4.461zm-.073-2.795h-.42a.87.87 0 0 0-.66.193 1.058 1.058 0 0 0-.251.708c0 .563.228.875.66.875.384 0 .671-.325.671-.84zm5.004 2.795v-4.546c0-.491-.276-.731-.624-.731s-.623.24-.623.731v4.546h-1.272v-6.32h1.224v.468a1.46 1.46 0 0 1 .42-.397 1.262 1.262 0 0 1 .635-.167 1.383 1.383 0 0 1 1.151.492 1.87 1.87 0 0 1 .36 1.367v4.557zm2.413-7.124v-1.403h1.404v1.403zm.072 7.124v-6.152h1.272v6.152zm3.6-2.795a3.403 3.403 0 0 0 .192 1.5.574.574 0 0 0 .492.252.559.559 0 0 0 .48-.24.958.958 0 0 0 .156-.576h1.27a2.111 2.111 0 0 1-.54 1.451 2.088 2.088 0 0 1-2.733-.012 6.71 6.71 0 0 1 0-5.493 2.077 2.077 0 0 1 2.71 0c.503.504.587 1.608.587 3.118zm1.163-2.242a.606.606 0 0 0-.983 0 2.611 2.611 0 0 0-.18 1.308h1.343a2.605 2.605 0 0 0-.18-1.308zm3.085 4.653a1.783 1.783 0 0 1-.635-1.535v-6.62h1.27v6.548a.755.755 0 0 0 .865.852v1.14a2.308 2.308 0 0 1-1.5-.385zm7.786.384l-1.115-3.502h-.755v3.502H62.42v-8.539h2.159c1.56 0 2.183.755 2.183 2.518 0 1.056-.216 1.811-.996 2.231l1.272 3.79zm-1.043-7.328h-.827v2.614h.827c.72 0 .827-.6.827-1.306s-.108-1.308-.827-1.308zm6.54 6.752a2.009 2.009 0 0 1-3 0 7.782 7.782 0 0 1 0-5.18 2.034 2.034 0 0 1 3 0 7.788 7.788 0 0 1 0 5.18zm-1.008-4.45a.59.59 0 0 0-.984 0 4.796 4.796 0 0 0-.18 1.86 4.868 4.868 0 0 0 .18 1.871.606.606 0 0 0 .984 0 4.862 4.862 0 0 0 .18-1.871 4.79 4.79 0 0 0-.18-1.86zm2.197 5.026v-.959l1.847-4.234h-1.703v-1.127h3.13v.947l-1.847 4.233h1.847v1.14zm4.14-7.124v-1.403h1.404v1.403zm.072 7.124v-6.152h1.271v6.152zm5.039 0v-4.546c0-.491-.276-.731-.624-.731s-.623.24-.623.731v4.546h-1.273v-6.32h1.224v.468a1.459 1.459 0 0 1 .42-.397 1.262 1.262 0 0 1 .635-.167 1.383 1.383 0 0 1 1.152.492 1.87 1.87 0 0 1 .36 1.367v4.557zm-45.778 5.861h1.487a1.467 1.467 0 0 1 1.115.36 1.52 1.52 0 0 1 .36 1.091 5.626 5.626 0 0 1-.096.936c-.384 1.943-1.127 2.374-2.158 2.374h-.984l-.756 3.778h-.672zm.707 4.162c.66 0 1.188-.288 1.488-1.775a4.772 4.772 0 0 0 .084-.876c0-.6-.228-.911-.888-.911h-.84l-.708 3.562zm4.345 4.053a1.48 1.48 0 0 1-1.092.42 1.063 1.063 0 0 1-.984-.48 1.552 1.552 0 0 1-.168-.827 11.328 11.328 0 0 1 .252-1.835c.348-1.763.564-2.327.96-2.722a1.482 1.482 0 0 1 1.091-.42 1.062 1.062 0 0 1 .984.479 1.549 1.549 0 0 1 .168.828 11.39 11.39 0 0 1-.252 1.835c-.349 1.763-.565 2.327-.96 2.722zm-1.644-.9a.876.876 0 0 0 .132.54.54.54 0 0 0 .468.228.892.892 0 0 0 .624-.263c.311-.312.48-.9.755-2.326a11.753 11.753 0 0 0 .276-1.824.876.876 0 0 0-.132-.54.54.54 0 0 0-.468-.227.891.891 0 0 0-.623.263c-.312.312-.48.9-.756 2.327a11.81 11.81 0 0 0-.276 1.823zm4.428-4.868h.612l-.097.467a1.565 1.565 0 0 1 .373-.372 1.094 1.094 0 0 1 .67-.191.927.927 0 0 1 .852.432.872.872 0 0 1 .108.24 1.87 1.87 0 0 1 .528-.48 1.291 1.291 0 0 1 .72-.192.926.926 0 0 1 .851.432 1.222 1.222 0 0 1 .168.695 3.502 3.502 0 0 1-.072.576l-.887 4.486h-.624l.888-4.486a2.75 2.75 0 0 0 .06-.492.598.598 0 0 0-.624-.66c-.42 0-.851.276-1.02 1.152l-.887 4.486h-.624l.888-4.486a2.718 2.718 0 0 0 .06-.492.599.599 0 0 0-.624-.66c-.42 0-.851.289-1.02 1.152l-.888 4.486h-.623zm6.948-2.447h1.486a1.468 1.468 0 0 1 1.116.36 1.52 1.52 0 0 1 .36 1.091 5.625 5.625 0 0 1-.096.936c-.384 1.942-1.127 2.374-2.159 2.374h-.983l-.756 3.778h-.671zm.707 4.161c.66 0 1.188-.287 1.487-1.774a4.816 4.816 0 0 0 .084-.876c0-.6-.228-.911-.887-.911h-.84l-.708 3.561zm4.344 4.054a1.48 1.48 0 0 1-1.091.42 1.063 1.063 0 0 1-.984-.48 1.552 1.552 0 0 1-.168-.827 11.328 11.328 0 0 1 .252-1.835c.348-1.764.564-2.327.96-2.723a1.482 1.482 0 0 1 1.09-.42 1.063 1.063 0 0 1 .985.48 1.554 1.554 0 0 1 .167.828 11.39 11.39 0 0 1-.251 1.835c-.349 1.763-.565 2.327-.96 2.722zm-1.643-.9a.876.876 0 0 0 .132.54.54.54 0 0 0 .468.228.892.892 0 0 0 .623-.263c.312-.312.48-.9.756-2.327a11.753 11.753 0 0 0 .276-1.823.876.876 0 0 0-.132-.54.54.54 0 0 0-.468-.227.891.891 0 0 0-.623.263c-.312.312-.48.9-.756 2.327a11.783 11.783 0 0 0-.276 1.823zm4.428-4.868h.611l-.096.467a1.571 1.571 0 0 1 .372-.372 1.097 1.097 0 0 1 .672-.191.927.927 0 0 1 .851.432.872.872 0 0 1 .108.24 1.87 1.87 0 0 1 .528-.48 1.292 1.292 0 0 1 .72-.192.926.926 0 0 1 .851.432 1.222 1.222 0 0 1 .168.695 3.502 3.502 0 0 1-.072.576l-.887 4.486h-.625l.888-4.486a2.755 2.755 0 0 0 .06-.492.599.599 0 0 0-.624-.66c-.42 0-.852.276-1.02 1.152l-.887 4.485h-.624l.888-4.485a2.718 2.718 0 0 0 .06-.492.599.599 0 0 0-.624-.66c-.42 0-.851.288-1.02 1.152l-.887 4.485h-.624zm9.144-2.447h.67l.697 4.917 2.686-4.917h.684l-1.703 8.54h-.672l1.331-6.74-2.291 4.269h-.492l-.588-4.33-1.355 6.8h-.671zm5.724 2.447h.623l-1.224 6.092h-.623zm.336-2.171h.779l-.144.792h-.78zm1.667 2.17h.612l-.132.636a1.492 1.492 0 0 1 .492-.504 1.652 1.652 0 0 1 .923-.227l-.12.575h-.144a1.394 1.394 0 0 0-1.355 1.224l-.864 4.39h-.623zm2.736 0h.612l-.132.636a1.491 1.491 0 0 1 .492-.504 1.651 1.651 0 0 1 .923-.227l-.12.575h-.144a1.393 1.393 0 0 0-1.355 1.224l-.863 4.39h-.624zm3.876 5.77a1.48 1.48 0 0 1-1.092.42 1.063 1.063 0 0 1-.983-.48 1.552 1.552 0 0 1-.168-.828 11.328 11.328 0 0 1 .252-1.835c.348-1.764.564-2.327.96-2.723a1.483 1.483 0 0 1 1.09-.42 1.063 1.063 0 0 1 .984.48 1.554 1.554 0 0 1 .168.828 11.403 11.403 0 0 1-.252 1.835c-.348 1.763-.564 2.327-.96 2.722zm-1.643-.9a.877.877 0 0 0 .132.54.54.54 0 0 0 .467.227.892.892 0 0 0 .624-.263c.312-.312.48-.9.755-2.327a11.744 11.744 0 0 0 .276-1.823.876.876 0 0 0-.132-.54.54.54 0 0 0-.467-.227.89.89 0 0 0-.624.263c-.312.312-.48.9-.756 2.327a11.783 11.783 0 0 0-.276 1.823zm4.415-4.87h.612l-.132.636a1.492 1.492 0 0 1 .492-.504 1.652 1.652 0 0 1 .923-.227l-.12.575H86.3a1.394 1.394 0 0 0-1.355 1.224l-.864 4.39h-.624zm2.09 7.28v-2.11h.826v1.5zm4.45-1.187v-.563l2.04-4.678a4.423 4.423 0 0 0 .407-1.799c0-.672-.371-.995-.84-.995s-.85.323-.85.995v.611h-.672v-.6a1.569 1.569 0 0 1 .432-1.187 1.595 1.595 0 0 1 1.09-.419 1.526 1.526 0 0 1 1.068.407 1.619 1.619 0 0 1 .444 1.224 5.399 5.399 0 0 1-.492 1.978l-1.907 4.426h2.399v.6zm6.97-.324a1.594 1.594 0 0 1-1.09.42 1.564 1.564 0 0 1-1.08-.42 1.585 1.585 0 0 1-.432-1.21v-5.47a1.589 1.589 0 0 1 .433-1.212 1.564 1.564 0 0 1 1.079-.419 1.47 1.47 0 0 1 1.523 1.631v5.47a1.585 1.585 0 0 1-.432 1.21zm-.24-6.716c0-.672-.383-.995-.85-.995s-.84.323-.84.995v5.541c0 .672.372.995.84.995s.85-.323.85-.995zm3.302 7.04v-7.748l-1.224 1.056v-.804l1.224-1.043h.671v8.54zm5.602-.384a1.447 1.447 0 0 1-1.091.48 1.548 1.548 0 0 1-1.08-.395 1.603 1.603 0 0 1-.455-1.224v-.563h.672v.54c0 .72.384 1.043.875 1.043a.7.7 0 0 0 .588-.3c.216-.288.3-.636.3-1.883 0-1.224-.096-1.595-.3-1.895a.69.69 0 0 0-.6-.312.905.905 0 0 0-.864.996v.395h-.623v-5.037h2.938v.6h-2.327v3.023a1.246 1.246 0 0 1 .396-.397 1.222 1.222 0 0 1 .648-.168 1.197 1.197 0 0 1 .971.468c.336.397.432.876.432 2.327 0 1.33-.084 1.86-.48 2.303z" fill="#fff"/><path fill="none" d="M0 0h495.806v528.187H0z"/></g></svg>
