<svg xmlns="http://www.w3.org/2000/svg" viewBox="0 0 1140 800">
  <path d="M1013.1 82.5H132.7v716.7h880.4V82.5zM181.5 754V127.6h782.7V754H181.5z" fill="#b5a082"/>
  <path class="st1" d="M964.3 754l48.8 45.2m-48.8-671.6l48.8-45.1m-831.6 45.1l-48.8-45.1M181.5 754l-48.8 45.2"/>
  <path fill="none" d="M0 0h1140v800H0z"/>
  <linearGradient id="a" gradientUnits="userSpaceOnUse" x1="-125.3778" y1="340.9744" x2="-125.3778" y2="282.2856" gradientTransform="rotate(180 242.075 235.715)">
    <stop offset="0" stop-color="#fff"/>
    <stop offset=".25" stop-color="#f7f8f8"/>
    <stop offset=".5" stop-color="#adabac"/>
    <stop offset=".75" stop-color="#2f2b2c"/>
    <stop offset="1"/>
  </linearGradient>
  <path d="M634.8 139.5c-11.2-11.7-29.8-12.1-41.5-.9s-12.1 29.8-.9 41.5 29.8 12.1 41.5.9l.9-.9v-40.6z" fill="url(#a)"/>
  <linearGradient id="b" gradientUnits="userSpaceOnUse" x1="-44.9678" y1="340.8744" x2="-44.9678" y2="282.1856" gradientTransform="rotate(180 282.28 275.915)">
    <stop offset="0" stop-color="#fff"/>
    <stop offset=".25" stop-color="#f7f8f8"/>
    <stop offset=".5" stop-color="#adabac"/>
    <stop offset=".75" stop-color="#2f2b2c"/>
    <stop offset="1"/>
  </linearGradient>
  <path d="M634.8 220c-11.2-11.7-29.8-12.1-41.5-.9s-12.1 29.8-.9 41.5 29.8 12.1 41.5.9l.9-.9V220z" fill="url(#b)"/>
  <linearGradient id="c" gradientUnits="userSpaceOnUse" x1="35.3022" y1="340.9544" x2="35.3022" y2="282.2656" gradientTransform="rotate(180 322.415 316.055)">
    <stop offset="0" stop-color="#fff"/>
    <stop offset=".25" stop-color="#f7f8f8"/>
    <stop offset=".5" stop-color="#adabac"/>
    <stop offset=".75" stop-color="#2f2b2c"/>
    <stop offset="1"/>
  </linearGradient>
  <path d="M634.8 300.2c-11.2-11.7-29.8-12.1-41.5-.9s-12.1 29.8-.9 41.5 29.8 12.1 41.5.9l.9-.9v-40.6z" fill="url(#c)"/>
  <linearGradient id="d" gradientUnits="userSpaceOnUse" x1="115.7122" y1="340.9544" x2="115.7122" y2="282.2656" gradientTransform="rotate(180 362.62 356.255)">
    <stop offset="0" stop-color="#fff"/>
    <stop offset=".25" stop-color="#f7f8f8"/>
    <stop offset=".5" stop-color="#adabac"/>
    <stop offset=".75" stop-color="#2f2b2c"/>
    <stop offset="1"/>
  </linearGradient>
  <path d="M634.8 380.6c-11.2-11.7-29.8-12.1-41.5-.9s-12.1 29.8-.9 41.5 29.8 12.1 41.5.9l.9-.9v-40.6z" fill="url(#d)"/>
  <linearGradient id="e" gradientUnits="userSpaceOnUse" x1="196.1122" y1="340.9644" x2="196.1122" y2="282.2756" gradientTransform="rotate(180 402.82 396.46)">
    <stop offset="0" stop-color="#fff"/>
    <stop offset=".25" stop-color="#f7f8f8"/>
    <stop offset=".5" stop-color="#adabac"/>
    <stop offset=".75" stop-color="#2f2b2c"/>
    <stop offset="1"/>
  </linearGradient>
  <path d="M634.8 461c-11.2-11.7-29.8-12.1-41.5-.9s-12.1 29.8-.9 41.5 29.8 12.1 41.5.9l.9-.9V461z" fill="url(#e)"/>
  <linearGradient id="f" gradientUnits="userSpaceOnUse" x1="276.5222" y1="340.9643" x2="276.5222" y2="282.2755" gradientTransform="rotate(180 443.025 436.65995)">
    <stop offset="0" stop-color="#fff"/>
    <stop offset=".25" stop-color="#f7f8f8"/>
    <stop offset=".5" stop-color="#adabac"/>
    <stop offset=".75" stop-color="#2f2b2c"/>
    <stop offset="1"/>
  </linearGradient>
  <path d="M634.8 541.4c-11.2-11.7-29.8-12.1-41.5-.9s-12.1 29.8-.9 41.5 29.8 12.1 41.5.9l.9-.9v-40.6z" fill="url(#f)"/>
  <linearGradient id="g" gradientUnits="userSpaceOnUse" x1="356.8022" y1="340.9444" x2="356.8022" y2="282.2556" gradientTransform="rotate(180 483.165 476.8)">
    <stop offset="0" stop-color="#fff"/>
    <stop offset=".25" stop-color="#f7f8f8"/>
    <stop offset=".5" stop-color="#adabac"/>
    <stop offset=".75" stop-color="#2f2b2c"/>
    <stop offset="1"/>
  </linearGradient>
  <path d="M634.8 621.7c-11.2-11.7-29.8-12.1-41.5-.9s-12.1 29.8-.9 41.5 29.8 12.1 41.5.9l.9-.9v-40.6z" fill="url(#g)"/>
  <linearGradient id="h" gradientUnits="userSpaceOnUse" x1="437.2022" y1="340.9544" x2="437.2022" y2="282.2656" gradientTransform="rotate(180 523.365 517.005)">
    <stop offset="0" stop-color="#fff"/>
    <stop offset=".25" stop-color="#f7f8f8"/>
    <stop offset=".5" stop-color="#adabac"/>
    <stop offset=".75" stop-color="#2f2b2c"/>
    <stop offset="1"/>
  </linearGradient>
  <path d="M634.8 702.1c-11.2-11.7-29.8-12.1-41.5-.9s-12.1 29.8-.9 41.5 29.8 12.1 41.5.9l.9-.9v-40.6z" fill="url(#h)"/>
  <linearGradient id="i" gradientUnits="userSpaceOnUse" x1="196.0822" y1="421.3044" x2="196.0822" y2="362.6156" gradientTransform="rotate(180 362.655 436.63)">
    <stop offset="0" stop-color="#fff"/>
    <stop offset=".49" stop-color="#f7f8f8"/>
    <stop offset=".51" stop-color="#2f2b2c"/>
    <stop offset="1"/>
  </linearGradient>
  <path d="M554.5 461c-11.2-11.7-29.8-12.1-41.5-.9s-12.1 29.8-.9 41.5 29.8 12.1 41.5.9l.9-.9V461z" fill="url(#i)"/>
  <linearGradient id="j" gradientUnits="userSpaceOnUse" x1="196.0822" y1="340.9044" x2="196.0822" y2="282.2156" gradientTransform="rotate(180 362.655 436.63)">
    <stop offset="0" stop-color="#fff"/>
    <stop offset=".49" stop-color="#f7f8f8"/>
    <stop offset=".51" stop-color="#2f2b2c"/>
    <stop offset="1"/>
  </linearGradient>
  <path d="M554.5 541.4c-11.2-11.7-29.8-12.1-41.5-.9s-12.1 29.8-.9 41.5 29.8 12.1 41.5.9l.9-.9v-40.6z" fill="url(#j)"/>
  <linearGradient id="k" gradientUnits="userSpaceOnUse" x1="196.0822" y1="260.6044" x2="196.0822" y2="201.9156" gradientTransform="rotate(180 362.655 436.63)">
    <stop offset="0" stop-color="#fff"/>
    <stop offset=".49" stop-color="#f7f8f8"/>
    <stop offset=".51" stop-color="#2f2b2c"/>
    <stop offset="1"/>
  </linearGradient>
  <path d="M554.5 621.7c-11.2-11.7-29.8-12.1-41.5-.9s-12.1 29.8-.9 41.5 29.8 12.1 41.5.9l.9-.9v-40.6z" fill="url(#k)"/>
  <linearGradient id="l" gradientUnits="userSpaceOnUse" x1="196.0822" y1="180.2044" x2="196.0822" y2="121.5156" gradientTransform="rotate(180 362.655 436.63)">
    <stop offset="0" stop-color="#fff"/>
    <stop offset=".49" stop-color="#f7f8f8"/>
    <stop offset=".51" stop-color="#2f2b2c"/>
    <stop offset="1"/>
  </linearGradient>
  <path d="M554.5 702.1c-11.2-11.7-29.8-12.1-41.5-.9s-12.1 29.8-.9 41.5 29.8 12.1 41.5.9l.9-.9v-40.6z" fill="url(#l)"/>
  <linearGradient id="m" gradientUnits="userSpaceOnUse" x1="196.0822" y1="501.7044" x2="196.0822" y2="443.0156" gradientTransform="rotate(180 362.655 436.63)">
    <stop offset="0" stop-color="#fff"/>
    <stop offset=".49" stop-color="#f7f8f8"/>
    <stop offset=".51" stop-color="#2f2b2c"/>
    <stop offset="1"/>
  </linearGradient>
  <path d="M554.5 380.6c-11.2-11.7-29.8-12.1-41.5-.9s-12.1 29.8-.9 41.5 29.8 12.1 41.5.9l.9-.9v-40.6z" fill="url(#m)"/>
  <linearGradient id="n" gradientUnits="userSpaceOnUse" x1="196.0822" y1="582.1044" x2="196.0822" y2="523.4156" gradientTransform="rotate(180 362.655 436.63)">
    <stop offset="0" stop-color="#fff"/>
    <stop offset=".49" stop-color="#f7f8f8"/>
    <stop offset=".51" stop-color="#2f2b2c"/>
    <stop offset="1"/>
  </linearGradient>
  <path d="M554.5 300.2c-11.2-11.7-29.8-12.1-41.5-.9s-12.1 29.8-.9 41.5 29.8 12.1 41.5.9l.9-.9v-40.6z" fill="url(#n)"/>
  <linearGradient id="o" gradientUnits="userSpaceOnUse" x1="196.0822" y1="662.3044" x2="196.0822" y2="603.6156" gradientTransform="rotate(180 362.655 436.63)">
    <stop offset="0" stop-color="#fff"/>
    <stop offset=".49" stop-color="#f7f8f8"/>
    <stop offset=".51" stop-color="#2f2b2c"/>
    <stop offset="1"/>
  </linearGradient>
  <path d="M554.5 220c-11.2-11.7-29.8-12.1-41.5-.9s-12.1 29.8-.9 41.5 29.8 12.1 41.5.9l.9-.9V220z" fill="url(#o)"/>
  <linearGradient id="p" gradientUnits="userSpaceOnUse" x1="196.0822" y1="742.7751" x2="196.0822" y2="684.0862" gradientTransform="rotate(180 362.655 436.63)">
    <stop offset="0" stop-color="#fff"/>
    <stop offset=".49" stop-color="#f7f8f8"/>
    <stop offset=".51" stop-color="#2f2b2c"/>
    <stop offset="1"/>
  </linearGradient>
  <path d="M554.5 139.6c-11.2-11.7-29.8-12.1-41.5-.9s-12.1 29.8-.9 41.5 29.8 12.1 41.5.9l.9-.9v-40.6z" fill="url(#p)"/>
  <linearGradient id="q" gradientUnits="userSpaceOnUse" x1="115.7822" y1="421.3044" x2="115.7822" y2="362.6156" gradientTransform="rotate(180 362.655 436.63)">
    <stop offset="0" stop-color="#fff"/>
    <stop offset=".49" stop-color="#f7f8f8"/>
    <stop offset=".51" stop-color="#2f2b2c"/>
    <stop offset="1"/>
  </linearGradient>
  <path d="M634.8 461c-11.2-11.7-29.8-12.1-41.5-.9s-12.1 29.8-.9 41.5 29.8 12.1 41.5.9l.9-.9V461z" fill="url(#q)"/>
  <linearGradient id="r" gradientUnits="userSpaceOnUse" x1="115.7822" y1="340.9044" x2="115.7822" y2="282.2156" gradientTransform="rotate(180 362.655 436.63)">
    <stop offset="0" stop-color="#fff"/>
    <stop offset=".49" stop-color="#f7f8f8"/>
    <stop offset=".51" stop-color="#2f2b2c"/>
    <stop offset="1"/>
  </linearGradient>
  <path d="M634.8 541.4c-11.2-11.7-29.8-12.1-41.5-.9s-12.1 29.8-.9 41.5 29.8 12.1 41.5.9l.9-.9v-40.6z" fill="url(#r)"/>
  <linearGradient id="s" gradientUnits="userSpaceOnUse" x1="115.7822" y1="260.6044" x2="115.7822" y2="201.9156" gradientTransform="rotate(180 362.655 436.63)">
    <stop offset="0" stop-color="#fff"/>
    <stop offset=".49" stop-color="#f7f8f8"/>
    <stop offset=".51" stop-color="#2f2b2c"/>
    <stop offset="1"/>
  </linearGradient>
  <path d="M634.8 621.7c-11.2-11.7-29.8-12.1-41.5-.9s-12.1 29.8-.9 41.5 29.8 12.1 41.5.9l.9-.9v-40.6z" fill="url(#s)"/>
  <linearGradient id="t" gradientUnits="userSpaceOnUse" x1="115.7822" y1="180.2044" x2="115.7822" y2="121.5156" gradientTransform="rotate(180 362.655 436.63)">
    <stop offset="0" stop-color="#fff"/>
    <stop offset=".49" stop-color="#f7f8f8"/>
    <stop offset=".51" stop-color="#2f2b2c"/>
    <stop offset="1"/>
  </linearGradient>
  <path d="M634.8 702.1c-11.2-11.7-29.8-12.1-41.5-.9s-12.1 29.8-.9 41.5 29.8 12.1 41.5.9l.9-.9v-40.6z" fill="url(#t)"/>
  <linearGradient id="u" gradientUnits="userSpaceOnUse" x1="115.7822" y1="501.7044" x2="115.7822" y2="443.0156" gradientTransform="rotate(180 362.655 436.63)">
    <stop offset="0" stop-color="#fff"/>
    <stop offset=".49" stop-color="#f7f8f8"/>
    <stop offset=".51" stop-color="#2f2b2c"/>
    <stop offset="1"/>
  </linearGradient>
  <path d="M634.8 380.6c-11.2-11.7-29.8-12.1-41.5-.9s-12.1 29.8-.9 41.5 29.8 12.1 41.5.9l.9-.9v-40.6z" fill="url(#u)"/>
  <linearGradient id="v" gradientUnits="userSpaceOnUse" x1="115.7822" y1="582.1044" x2="115.7822" y2="523.4156" gradientTransform="rotate(180 362.655 436.63)">
    <stop offset="0" stop-color="#fff"/>
    <stop offset=".49" stop-color="#f7f8f8"/>
    <stop offset=".51" stop-color="#2f2b2c"/>
    <stop offset="1"/>
  </linearGradient>
  <path d="M634.8 300.2c-11.2-11.7-29.8-12.1-41.5-.9s-12.1 29.8-.9 41.5 29.8 12.1 41.5.9l.9-.9v-40.6z" fill="url(#v)"/>
  <linearGradient id="w" gradientUnits="userSpaceOnUse" x1="115.7822" y1="662.3044" x2="115.7822" y2="603.6156" gradientTransform="rotate(180 362.655 436.63)">
    <stop offset="0" stop-color="#fff"/>
    <stop offset=".49" stop-color="#f7f8f8"/>
    <stop offset=".51" stop-color="#2f2b2c"/>
    <stop offset="1"/>
  </linearGradient>
  <path d="M634.8 220c-11.2-11.7-29.8-12.1-41.5-.9s-12.1 29.8-.9 41.5 29.8 12.1 41.5.9l.9-.9V220z" fill="url(#w)"/>
  <linearGradient id="x" gradientUnits="userSpaceOnUse" x1="115.7822" y1="742.8044" x2="115.7822" y2="684.1156" gradientTransform="rotate(180 362.655 436.63)">
    <stop offset="0" stop-color="#fff"/>
    <stop offset=".49" stop-color="#f7f8f8"/>
    <stop offset=".51" stop-color="#2f2b2c"/>
    <stop offset="1"/>
  </linearGradient>
  <path d="M634.8 139.5c-11.2-11.7-29.8-12.1-41.5-.9s-12.1 29.8-.9 41.5 29.8 12.1 41.5.9l.9-.9v-40.6z" fill="url(#x)"/>
  <linearGradient id="y" gradientUnits="userSpaceOnUse" x1="356.9822" y1="421.4044" x2="356.9822" y2="362.7156" gradientTransform="rotate(180 362.655 436.63)">
    <stop offset="0" stop-color="#fff"/>
    <stop offset=".49" stop-color="#f7f8f8"/>
    <stop offset=".51" stop-color="#2f2b2c"/>
    <stop offset="1"/>
  </linearGradient>
  <path d="M393.6 460.9c-11.2-11.7-29.8-12.1-41.5-.9s-12.1 29.8-.9 41.5 29.8 12.1 41.5.9l.9-.9v-40.6z" fill="url(#y)"/>
  <linearGradient id="z" gradientUnits="userSpaceOnUse" x1="356.9822" y1="341.0044" x2="356.9822" y2="282.3156" gradientTransform="rotate(180 362.655 436.63)">
    <stop offset="0" stop-color="#fff"/>
    <stop offset=".49" stop-color="#f7f8f8"/>
    <stop offset=".51" stop-color="#2f2b2c"/>
    <stop offset="1"/>
  </linearGradient>
  <path d="M393.6 541.3c-11.2-11.7-29.8-12.1-41.5-.9s-12.1 29.8-.9 41.5 29.8 12.1 41.5.9l.9-.9v-40.6z" fill="url(#z)"/>
  <linearGradient id="A" gradientUnits="userSpaceOnUse" x1="356.9822" y1="260.7044" x2="356.9822" y2="202.0156" gradientTransform="rotate(180 362.655 436.63)">
    <stop offset="0" stop-color="#fff"/>
    <stop offset=".49" stop-color="#f7f8f8"/>
    <stop offset=".51" stop-color="#2f2b2c"/>
    <stop offset="1"/>
  </linearGradient>
  <path d="M393.6 621.6c-11.2-11.7-29.8-12.1-41.5-.9s-12.1 29.8-.9 41.5 29.8 12.1 41.5.9l.9-.9v-40.6z" fill="url(#A)"/>
  <linearGradient id="B" gradientUnits="userSpaceOnUse" x1="356.9822" y1="180.3044" x2="356.9822" y2="121.6156" gradientTransform="rotate(180 362.655 436.63)">
    <stop offset="0" stop-color="#fff"/>
    <stop offset=".49" stop-color="#f7f8f8"/>
    <stop offset=".51" stop-color="#2f2b2c"/>
    <stop offset="1"/>
  </linearGradient>
  <path d="M393.6 702c-11.2-11.7-29.8-12.1-41.5-.9s-12.1 29.8-.9 41.5 29.8 12.1 41.5.9l.9-.9V702z" fill="url(#B)"/>
  <linearGradient id="C" gradientUnits="userSpaceOnUse" x1="356.9822" y1="501.8044" x2="356.9822" y2="443.1156" gradientTransform="rotate(180 362.655 436.63)">
    <stop offset="0" stop-color="#fff"/>
    <stop offset=".49" stop-color="#f7f8f8"/>
    <stop offset=".51" stop-color="#2f2b2c"/>
    <stop offset="1"/>
  </linearGradient>
  <path d="M393.6 380.5c-11.2-11.7-29.8-12.1-41.5-.9s-12.1 29.8-.9 41.5 29.8 12.1 41.5.9l.9-.9v-40.6z" fill="url(#C)"/>
  <linearGradient id="D" gradientUnits="userSpaceOnUse" x1="356.9822" y1="582.2044" x2="356.9822" y2="523.5156" gradientTransform="rotate(180 362.655 436.63)">
    <stop offset="0" stop-color="#fff"/>
    <stop offset=".49" stop-color="#f7f8f8"/>
    <stop offset=".51" stop-color="#2f2b2c"/>
    <stop offset="1"/>
  </linearGradient>
  <path d="M393.6 300.1c-11.2-11.7-29.8-12.1-41.5-.9s-12.1 29.8-.9 41.5 29.8 12.1 41.5.9l.9-.9v-40.6z" fill="url(#D)"/>
  <linearGradient id="E" gradientUnits="userSpaceOnUse" x1="356.9822" y1="662.4751" x2="356.9822" y2="603.7863" gradientTransform="rotate(180 362.655 436.63)">
    <stop offset="0" stop-color="#fff"/>
    <stop offset=".49" stop-color="#f7f8f8"/>
    <stop offset=".51" stop-color="#2f2b2c"/>
    <stop offset="1"/>
  </linearGradient>
  <path d="M393.6 219.9c-11.2-11.7-29.8-12.1-41.5-.9s-12.1 29.8-.9 41.5 29.8 12.1 41.5.9l.9-.9v-40.6z" fill="url(#E)"/>
  <linearGradient id="F" gradientUnits="userSpaceOnUse" x1="356.9822" y1="742.9044" x2="356.9822" y2="684.2156" gradientTransform="rotate(180 362.655 436.63)">
    <stop offset="0" stop-color="#fff"/>
    <stop offset=".49" stop-color="#f7f8f8"/>
    <stop offset=".51" stop-color="#2f2b2c"/>
    <stop offset="1"/>
  </linearGradient>
  <path d="M393.6 139.4c-11.2-11.7-29.8-12.1-41.5-.9s-12.1 29.8-.9 41.5 29.8 12.1 41.5.9l.9-.9v-40.6z" fill="url(#F)"/>
  <linearGradient id="G" gradientUnits="userSpaceOnUse" x1="276.5822" y1="421.4044" x2="276.5822" y2="362.7156" gradientTransform="rotate(180 362.655 436.63)">
    <stop offset="0" stop-color="#fff"/>
    <stop offset=".49" stop-color="#f7f8f8"/>
    <stop offset=".51" stop-color="#2f2b2c"/>
    <stop offset="1"/>
  </linearGradient>
  <path d="M474 460.9c-11.2-11.7-29.8-12.1-41.5-.9s-12.1 29.8-.9 41.5 29.8 12.1 41.5.9l.9-.9v-40.6z" fill="url(#G)"/>
  <linearGradient id="H" gradientUnits="userSpaceOnUse" x1="276.5822" y1="341.0044" x2="276.5822" y2="282.3156" gradientTransform="rotate(180 362.655 436.63)">
    <stop offset="0" stop-color="#fff"/>
    <stop offset=".49" stop-color="#f7f8f8"/>
    <stop offset=".51" stop-color="#2f2b2c"/>
    <stop offset="1"/>
  </linearGradient>
  <path d="M474 541.3c-11.2-11.7-29.8-12.1-41.5-.9s-12.1 29.8-.9 41.5 29.8 12.1 41.5.9l.9-.9v-40.6z" fill="url(#H)"/>
  <linearGradient id="I" gradientUnits="userSpaceOnUse" x1="276.5822" y1="260.7044" x2="276.5822" y2="202.0156" gradientTransform="rotate(180 362.655 436.63)">
    <stop offset="0" stop-color="#fff"/>
    <stop offset=".49" stop-color="#f7f8f8"/>
    <stop offset=".51" stop-color="#2f2b2c"/>
    <stop offset="1"/>
  </linearGradient>
  <path d="M474 621.6c-11.2-11.7-29.8-12.1-41.5-.9s-12.1 29.8-.9 41.5 29.8 12.1 41.5.9l.9-.9v-40.6z" fill="url(#I)"/>
  <linearGradient id="J" gradientUnits="userSpaceOnUse" x1="276.5822" y1="180.3044" x2="276.5822" y2="121.6156" gradientTransform="rotate(180 362.655 436.63)">
    <stop offset="0" stop-color="#fff"/>
    <stop offset=".49" stop-color="#f7f8f8"/>
    <stop offset=".51" stop-color="#2f2b2c"/>
    <stop offset="1"/>
  </linearGradient>
  <path d="M474 702c-11.2-11.7-29.8-12.1-41.5-.9s-12.1 29.8-.9 41.5 29.8 12.1 41.5.9l.9-.9V702z" fill="url(#J)"/>
  <linearGradient id="K" gradientUnits="userSpaceOnUse" x1="276.5822" y1="501.8044" x2="276.5822" y2="443.1156" gradientTransform="rotate(180 362.655 436.63)">
    <stop offset="0" stop-color="#fff"/>
    <stop offset=".49" stop-color="#f7f8f8"/>
    <stop offset=".51" stop-color="#2f2b2c"/>
    <stop offset="1"/>
  </linearGradient>
  <path d="M474 380.5c-11.2-11.7-29.8-12.1-41.5-.9s-12.1 29.8-.9 41.5 29.8 12.1 41.5.9l.9-.9v-40.6z" fill="url(#K)"/>
  <linearGradient id="L" gradientUnits="userSpaceOnUse" x1="276.5822" y1="582.2044" x2="276.5822" y2="523.5156" gradientTransform="rotate(180 362.655 436.63)">
    <stop offset="0" stop-color="#fff"/>
    <stop offset=".49" stop-color="#f7f8f8"/>
    <stop offset=".51" stop-color="#2f2b2c"/>
    <stop offset="1"/>
  </linearGradient>
  <path d="M474 300.1c-11.2-11.7-29.8-12.1-41.5-.9s-12.1 29.8-.9 41.5 29.8 12.1 41.5.9l.9-.9v-40.6z" fill="url(#L)"/>
  <linearGradient id="M" gradientUnits="userSpaceOnUse" x1="276.5822" y1="662.5044" x2="276.5822" y2="603.8156" gradientTransform="rotate(180 362.655 436.63)">
    <stop offset="0" stop-color="#fff"/>
    <stop offset=".49" stop-color="#f7f8f8"/>
    <stop offset=".51" stop-color="#2f2b2c"/>
    <stop offset="1"/>
  </linearGradient>
  <path d="M474 219.8c-11.2-11.7-29.8-12.1-41.5-.9s-12.1 29.8-.9 41.5 29.8 12.1 41.5.9l.9-.9v-40.6z" fill="url(#M)"/>
  <linearGradient id="N" gradientUnits="userSpaceOnUse" x1="276.5822" y1="742.9044" x2="276.5822" y2="684.2156" gradientTransform="rotate(180 362.655 436.63)">
    <stop offset="0" stop-color="#fff"/>
    <stop offset=".49" stop-color="#f7f8f8"/>
    <stop offset=".51" stop-color="#2f2b2c"/>
    <stop offset="1"/>
  </linearGradient>
  <path d="M474 139.4c-11.2-11.7-29.8-12.1-41.5-.9s-12.1 29.8-.9 41.5 29.8 12.1 41.5.9l.9-.9v-40.6z" fill="url(#N)"/>
  <linearGradient id="O" gradientUnits="userSpaceOnUse" x1="517.5822" y1="421.3044" x2="517.5822" y2="362.6156" gradientTransform="rotate(180 362.655 436.63)">
    <stop offset="0" stop-color="#fff"/>
    <stop offset=".49" stop-color="#f7f8f8"/>
    <stop offset=".51" stop-color="#2f2b2c"/>
    <stop offset="1"/>
  </linearGradient>
  <path d="M233 461c-11.2-11.7-29.8-12.1-41.5-.9s-12.1 29.8-.9 41.5 29.8 12.1 41.5.9l.9-.9V461z" fill="url(#O)"/>
  <linearGradient id="P" gradientUnits="userSpaceOnUse" x1="517.5822" y1="340.9044" x2="517.5822" y2="282.2156" gradientTransform="rotate(180 362.655 436.63)">
    <stop offset="0" stop-color="#fff"/>
    <stop offset=".49" stop-color="#f7f8f8"/>
    <stop offset=".51" stop-color="#2f2b2c"/>
    <stop offset="1"/>
  </linearGradient>
  <path d="M233 541.4c-11.2-11.7-29.8-12.1-41.5-.9s-12.1 29.8-.9 41.5 29.8 12.1 41.5.9l.9-.9v-40.6z" fill="url(#P)"/>
  <linearGradient id="Q" gradientUnits="userSpaceOnUse" x1="517.5822" y1="260.675" x2="517.5822" y2="201.9862" gradientTransform="rotate(180 362.655 436.63)">
    <stop offset="0" stop-color="#fff"/>
    <stop offset=".49" stop-color="#f7f8f8"/>
    <stop offset=".51" stop-color="#2f2b2c"/>
    <stop offset="1"/>
  </linearGradient>
  <path d="M233 621.7c-11.2-11.7-29.8-12.1-41.5-.9s-12.1 29.8-.9 41.5 29.8 12.1 41.5.9l.9-.9v-40.6z" fill="url(#Q)"/>
  <linearGradient id="R" gradientUnits="userSpaceOnUse" x1="517.5822" y1="180.3044" x2="517.5822" y2="121.6156" gradientTransform="rotate(180 362.655 436.63)">
    <stop offset="0" stop-color="#fff"/>
    <stop offset=".49" stop-color="#f7f8f8"/>
    <stop offset=".51" stop-color="#2f2b2c"/>
    <stop offset="1"/>
  </linearGradient>
  <path d="M233 702c-11.2-11.7-29.8-12.1-41.5-.9s-12.1 29.8-.9 41.5 29.8 12.1 41.5.9l.9-.9V702z" fill="url(#R)"/>
  <linearGradient id="S" gradientUnits="userSpaceOnUse" x1="517.5822" y1="501.765" x2="517.5822" y2="443.0762" gradientTransform="rotate(180 362.655 436.63)">
    <stop offset="0" stop-color="#fff"/>
    <stop offset=".49" stop-color="#f7f8f8"/>
    <stop offset=".51" stop-color="#2f2b2c"/>
    <stop offset="1"/>
  </linearGradient>
  <path d="M233 380.6c-11.2-11.7-29.8-12.1-41.5-.9s-12.1 29.8-.9 41.5 29.8 12.1 41.5.9l.9-.9v-40.6z" fill="url(#S)"/>
  <linearGradient id="T" gradientUnits="userSpaceOnUse" x1="517.5822" y1="582.165" x2="517.5822" y2="523.4761" gradientTransform="rotate(180 362.655 436.63)">
    <stop offset="0" stop-color="#fff"/>
    <stop offset=".49" stop-color="#f7f8f8"/>
    <stop offset=".51" stop-color="#2f2b2c"/>
    <stop offset="1"/>
  </linearGradient>
  <path d="M233 300.2c-11.2-11.7-29.8-12.1-41.5-.9s-12.1 29.8-.9 41.5 29.8 12.1 41.5.9l.9-.9v-40.6z" fill="url(#T)"/>
  <linearGradient id="U" gradientUnits="userSpaceOnUse" x1="517.5822" y1="662.4044" x2="517.5822" y2="603.7156" gradientTransform="rotate(180 362.655 436.63)">
    <stop offset="0" stop-color="#fff"/>
    <stop offset=".49" stop-color="#f7f8f8"/>
    <stop offset=".51" stop-color="#2f2b2c"/>
    <stop offset="1"/>
  </linearGradient>
  <path d="M233 219.9c-11.2-11.7-29.8-12.1-41.5-.9s-12.1 29.8-.9 41.5 29.8 12.1 41.5.9l.9-.9v-40.6z" fill="url(#U)"/>
  <linearGradient id="V" gradientUnits="userSpaceOnUse" x1="517.5822" y1="742.8044" x2="517.5822" y2="684.1156" gradientTransform="rotate(180 362.655 436.63)">
    <stop offset="0" stop-color="#fff"/>
    <stop offset=".49" stop-color="#f7f8f8"/>
    <stop offset=".51" stop-color="#2f2b2c"/>
    <stop offset="1"/>
  </linearGradient>
  <path d="M233 139.5c-11.2-11.7-29.8-12.1-41.5-.9s-12.1 29.8-.9 41.5 29.8 12.1 41.5.9l.9-.9v-40.6z" fill="url(#V)"/>
  <linearGradient id="W" gradientUnits="userSpaceOnUse" x1="437.2822" y1="421.3044" x2="437.2822" y2="362.6156" gradientTransform="rotate(180 362.655 436.63)">
    <stop offset="0" stop-color="#fff"/>
    <stop offset=".49" stop-color="#f7f8f8"/>
    <stop offset=".51" stop-color="#2f2b2c"/>
    <stop offset="1"/>
  </linearGradient>
  <path d="M313.3 461c-11.2-11.7-29.8-12.1-41.5-.9s-12.1 29.8-.9 41.5 29.8 12.1 41.5.9l.9-.9V461z" fill="url(#W)"/>
  <linearGradient id="X" gradientUnits="userSpaceOnUse" x1="437.2822" y1="340.9044" x2="437.2822" y2="282.2156" gradientTransform="rotate(180 362.655 436.63)">
    <stop offset="0" stop-color="#fff"/>
    <stop offset=".49" stop-color="#f7f8f8"/>
    <stop offset=".51" stop-color="#2f2b2c"/>
    <stop offset="1"/>
  </linearGradient>
  <path d="M313.3 541.4c-11.2-11.7-29.8-12.1-41.5-.9s-12.1 29.8-.9 41.5 29.8 12.1 41.5.9l.9-.9v-40.6z" fill="url(#X)"/>
  <linearGradient id="Y" gradientUnits="userSpaceOnUse" x1="437.2822" y1="260.7044" x2="437.2822" y2="202.0156" gradientTransform="rotate(180 362.655 436.63)">
    <stop offset="0" stop-color="#fff"/>
    <stop offset=".49" stop-color="#f7f8f8"/>
    <stop offset=".51" stop-color="#2f2b2c"/>
    <stop offset="1"/>
  </linearGradient>
  <path d="M313.3 621.6c-11.2-11.7-29.8-12.1-41.5-.9s-12.1 29.8-.9 41.5 29.8 12.1 41.5.9l.9-.9v-40.6z" fill="url(#Y)"/>
  <linearGradient id="Z" gradientUnits="userSpaceOnUse" x1="437.2822" y1="180.3044" x2="437.2822" y2="121.6156" gradientTransform="rotate(180 362.655 436.63)">
    <stop offset="0" stop-color="#fff"/>
    <stop offset=".49" stop-color="#f7f8f8"/>
    <stop offset=".51" stop-color="#2f2b2c"/>
    <stop offset="1"/>
  </linearGradient>
  <path d="M313.3 702c-11.2-11.7-29.8-12.1-41.5-.9s-12.1 29.8-.9 41.5 29.8 12.1 41.5.9l.9-.9V702z" fill="url(#Z)"/>
  <linearGradient id="aa" gradientUnits="userSpaceOnUse" x1="437.2822" y1="501.765" x2="437.2822" y2="443.0762" gradientTransform="rotate(180 362.655 436.63)">
    <stop offset="0" stop-color="#fff"/>
    <stop offset=".49" stop-color="#f7f8f8"/>
    <stop offset=".51" stop-color="#2f2b2c"/>
    <stop offset="1"/>
  </linearGradient>
  <path d="M313.3 380.6c-11.2-11.7-29.8-12.1-41.5-.9s-12.1 29.8-.9 41.5 29.8 12.1 41.5.9l.9-.9v-40.6z" fill="url(#aa)"/>
  <linearGradient id="ab" gradientUnits="userSpaceOnUse" x1="437.2822" y1="582.2044" x2="437.2822" y2="523.5156" gradientTransform="rotate(180 362.655 436.63)">
    <stop offset="0" stop-color="#fff"/>
    <stop offset=".49" stop-color="#f7f8f8"/>
    <stop offset=".51" stop-color="#2f2b2c"/>
    <stop offset="1"/>
  </linearGradient>
  <path d="M313.3 300.1c-11.2-11.7-29.8-12.1-41.5-.9s-12.1 29.8-.9 41.5 29.8 12.1 41.5.9l.9-.9v-40.6z" fill="url(#ab)"/>
  <linearGradient id="ac" gradientUnits="userSpaceOnUse" x1="437.2822" y1="662.4044" x2="437.2822" y2="603.7156" gradientTransform="rotate(180 362.655 436.63)">
    <stop offset="0" stop-color="#fff"/>
    <stop offset=".49" stop-color="#f7f8f8"/>
    <stop offset=".51" stop-color="#2f2b2c"/>
    <stop offset="1"/>
  </linearGradient>
  <path d="M313.3 219.9c-11.2-11.7-29.8-12.1-41.5-.9s-12.1 29.8-.9 41.5 29.8 12.1 41.5.9l.9-.9v-40.6z" fill="url(#ac)"/>
  <linearGradient id="ad" gradientUnits="userSpaceOnUse" x1="437.2822" y1="742.8044" x2="437.2822" y2="684.1156" gradientTransform="rotate(180 362.655 436.63)">
    <stop offset="0" stop-color="#fff"/>
    <stop offset=".49" stop-color="#f7f8f8"/>
    <stop offset=".51" stop-color="#2f2b2c"/>
    <stop offset="1"/>
  </linearGradient>
  <path d="M313.3 139.5c-11.2-11.7-29.8-12.1-41.5-.9s-12.1 29.8-.9 41.5 29.8 12.1 41.5.9l.9-.9v-40.6z" fill="url(#ad)"/>
  <linearGradient id="ae" gradientUnits="userSpaceOnUse" x1="35.3822" y1="421.3044" x2="35.3822" y2="362.6156" gradientTransform="rotate(180 362.655 436.63)">
    <stop offset="0" stop-color="#fff"/>
    <stop offset=".49" stop-color="#f7f8f8"/>
    <stop offset=".51" stop-color="#2f2b2c"/>
    <stop offset="1"/>
  </linearGradient>
  <path d="M715.2 461c-11.2-11.7-29.8-12.1-41.5-.9s-12.1 29.8-.9 41.5 29.8 12.1 41.5.9l.9-.9V461z" fill="url(#ae)"/>
  <linearGradient id="af" gradientUnits="userSpaceOnUse" x1="35.3822" y1="340.9044" x2="35.3822" y2="282.2156" gradientTransform="rotate(180 362.655 436.63)">
    <stop offset="0" stop-color="#fff"/>
    <stop offset=".49" stop-color="#f7f8f8"/>
    <stop offset=".51" stop-color="#2f2b2c"/>
    <stop offset="1"/>
  </linearGradient>
  <path d="M715.2 541.4c-11.2-11.7-29.8-12.1-41.5-.9s-12.1 29.8-.9 41.5 29.8 12.1 41.5.9l.9-.9v-40.6z" fill="url(#af)"/>
  <linearGradient id="ag" gradientUnits="userSpaceOnUse" x1="35.3822" y1="260.6044" x2="35.3822" y2="201.9156" gradientTransform="rotate(180 362.655 436.63)">
    <stop offset="0" stop-color="#fff"/>
    <stop offset=".49" stop-color="#f7f8f8"/>
    <stop offset=".51" stop-color="#2f2b2c"/>
    <stop offset="1"/>
  </linearGradient>
  <path d="M715.2 621.7c-11.2-11.7-29.8-12.1-41.5-.9s-12.1 29.8-.9 41.5 29.8 12.1 41.5.9l.9-.9v-40.6z" fill="url(#ag)"/>
  <linearGradient id="ah" gradientUnits="userSpaceOnUse" x1="35.3822" y1="180.2044" x2="35.3822" y2="121.5156" gradientTransform="rotate(180 362.655 436.63)">
    <stop offset="0" stop-color="#fff"/>
    <stop offset=".49" stop-color="#f7f8f8"/>
    <stop offset=".51" stop-color="#2f2b2c"/>
    <stop offset="1"/>
  </linearGradient>
  <path d="M715.2 702.1c-11.2-11.7-29.8-12.1-41.5-.9s-12.1 29.8-.9 41.5 29.8 12.1 41.5.9l.9-.9v-40.6z" fill="url(#ah)"/>
  <linearGradient id="ai" gradientUnits="userSpaceOnUse" x1="35.3822" y1="501.7044" x2="35.3822" y2="443.0156" gradientTransform="rotate(180 362.655 436.63)">
    <stop offset="0" stop-color="#fff"/>
    <stop offset=".49" stop-color="#f7f8f8"/>
    <stop offset=".51" stop-color="#2f2b2c"/>
    <stop offset="1"/>
  </linearGradient>
  <path d="M715.2 380.6c-11.2-11.7-29.8-12.1-41.5-.9s-12.1 29.8-.9 41.5 29.8 12.1 41.5.9l.9-.9v-40.6z" fill="url(#ai)"/>
  <linearGradient id="aj" gradientUnits="userSpaceOnUse" x1="35.3822" y1="582.1044" x2="35.3822" y2="523.4156" gradientTransform="rotate(180 362.655 436.63)">
    <stop offset="0" stop-color="#fff"/>
    <stop offset=".49" stop-color="#f7f8f8"/>
    <stop offset=".51" stop-color="#2f2b2c"/>
    <stop offset="1"/>
  </linearGradient>
  <path d="M715.2 300.2c-11.2-11.7-29.8-12.1-41.5-.9s-12.1 29.8-.9 41.5 29.8 12.1 41.5.9l.9-.9v-40.6z" fill="url(#aj)"/>
  <linearGradient id="ak" gradientUnits="userSpaceOnUse" x1="35.3822" y1="662.4044" x2="35.3822" y2="603.7156" gradientTransform="rotate(180 362.655 436.63)">
    <stop offset="0" stop-color="#fff"/>
    <stop offset=".49" stop-color="#f7f8f8"/>
    <stop offset=".51" stop-color="#2f2b2c"/>
    <stop offset="1"/>
  </linearGradient>
  <path d="M715.2 219.9c-11.2-11.7-29.8-12.1-41.5-.9s-12.1 29.8-.9 41.5 29.8 12.1 41.5.9l.9-.9v-40.6z" fill="url(#ak)"/>
  <linearGradient id="al" gradientUnits="userSpaceOnUse" x1="35.3822" y1="742.8044" x2="35.3822" y2="684.1156" gradientTransform="rotate(180 362.655 436.63)">
    <stop offset="0" stop-color="#fff"/>
    <stop offset=".49" stop-color="#f7f8f8"/>
    <stop offset=".51" stop-color="#2f2b2c"/>
    <stop offset="1"/>
  </linearGradient>
  <path d="M715.2 139.5c-11.2-11.7-29.8-12.1-41.5-.9s-12.1 29.8-.9 41.5 29.8 12.1 41.5.9l.9-.9v-40.6z" fill="url(#al)"/>
  <linearGradient id="am" gradientUnits="userSpaceOnUse" x1="345.7922" y1="892.0744" x2="345.7922" y2="833.3856" gradientTransform="translate(426.68 -461.93)">
    <stop offset="0"/>
    <stop offset=".49" stop-color="#2f2b2c"/>
    <stop offset=".51" stop-color="#f7f8f8"/>
    <stop offset="1" stop-color="#fff"/>
  </linearGradient>
  <path d="M747.2 421.1c11.2 11.7 29.8 12.1 41.5.9s12.1-29.8.9-41.5-29.8-12.1-41.5-.9l-.9.9v40.6z" fill="url(#am)"/>
  <linearGradient id="an" gradientUnits="userSpaceOnUse" x1="345.7922" y1="811.6744" x2="345.7922" y2="752.9856" gradientTransform="translate(426.68 -461.93)">
    <stop offset="0"/>
    <stop offset=".49" stop-color="#2f2b2c"/>
    <stop offset=".51" stop-color="#f7f8f8"/>
    <stop offset="1" stop-color="#fff"/>
  </linearGradient>
  <path d="M747.2 340.7c11.2 11.7 29.8 12.1 41.5.9s12.1-29.8.9-41.5-29.8-12.1-41.5-.9l-.9.9v40.6z" fill="url(#an)"/>
  <linearGradient id="ao" gradientUnits="userSpaceOnUse" x1="345.7922" y1="731.435" x2="345.7922" y2="672.7462" gradientTransform="translate(426.68 -461.93)">
    <stop offset="0"/>
    <stop offset=".49" stop-color="#2f2b2c"/>
    <stop offset=".51" stop-color="#f7f8f8"/>
    <stop offset="1" stop-color="#fff"/>
  </linearGradient>
  <path d="M747.2 260.4c11.2 11.7 29.8 12.1 41.5.9s12.1-29.8.9-41.5-29.8-12.1-41.5-.9l-.9.9v40.6z" fill="url(#ao)"/>
  <linearGradient id="ap" gradientUnits="userSpaceOnUse" x1="345.7922" y1="650.9744" x2="345.7922" y2="592.2856" gradientTransform="translate(426.68 -461.93)">
    <stop offset="0"/>
    <stop offset=".49" stop-color="#2f2b2c"/>
    <stop offset=".51" stop-color="#f7f8f8"/>
    <stop offset="1" stop-color="#fff"/>
  </linearGradient>
  <path d="M747.2 180c11.2 11.7 29.8 12.1 41.5.9s12.1-29.8.9-41.5-29.8-12.1-41.5-.9l-.9.9V180z" fill="url(#ap)"/>
  <linearGradient id="aq" gradientUnits="userSpaceOnUse" x1="345.7922" y1="972.4744" x2="345.7922" y2="913.7856" gradientTransform="translate(426.68 -461.93)">
    <stop offset="0"/>
    <stop offset=".49" stop-color="#2f2b2c"/>
    <stop offset=".51" stop-color="#f7f8f8"/>
    <stop offset="1" stop-color="#fff"/>
  </linearGradient>
  <path d="M747.2 501.5c11.2 11.7 29.8 12.1 41.5.9s12.1-29.8.9-41.5-29.8-12.1-41.5-.9l-.9.9v40.6z" fill="url(#aq)"/>
  <linearGradient id="ar" gradientUnits="userSpaceOnUse" x1="345.7922" y1="1052.8744" x2="345.7922" y2="994.1856" gradientTransform="translate(426.68 -461.93)">
    <stop offset="0"/>
    <stop offset=".49" stop-color="#2f2b2c"/>
    <stop offset=".51" stop-color="#f7f8f8"/>
    <stop offset="1" stop-color="#fff"/>
  </linearGradient>
  <path d="M747.2 581.9c11.2 11.7 29.8 12.1 41.5.9s12.1-29.8.9-41.5-29.8-12.1-41.5-.9l-.9.9v40.6z" fill="url(#ar)"/>
  <linearGradient id="as" gradientUnits="userSpaceOnUse" x1="345.7922" y1="1133.1744" x2="345.7922" y2="1074.4856" gradientTransform="translate(426.68 -461.93)">
    <stop offset="0"/>
    <stop offset=".49" stop-color="#2f2b2c"/>
    <stop offset=".51" stop-color="#f7f8f8"/>
    <stop offset="1" stop-color="#fff"/>
  </linearGradient>
  <path d="M747.2 662.2c11.2 11.7 29.8 12.1 41.5.9s12.1-29.8.9-41.5-29.8-12.1-41.5-.9l-.9.9v40.6z" fill="url(#as)"/>
  <linearGradient id="at" gradientUnits="userSpaceOnUse" x1="345.7922" y1="1213.5743" x2="345.7922" y2="1154.8856" gradientTransform="translate(426.68 -461.93)">
    <stop offset="0"/>
    <stop offset=".49" stop-color="#2f2b2c"/>
    <stop offset=".51" stop-color="#f7f8f8"/>
    <stop offset="1" stop-color="#fff"/>
  </linearGradient>
  <path d="M747.2 742.6c11.2 11.7 29.8 12.1 41.5.9s12.1-29.8.9-41.5-29.8-12.1-41.5-.9l-.9.9v40.6z" fill="url(#at)"/>
</svg>
