<svg xmlns="http://www.w3.org/2000/svg" xmlns:xlink="http://www.w3.org/1999/xlink" viewBox="0 0 1200 800"><defs><style>.cls-1{fill:#73604a;}.cls-2{fill:#cdcdcd;opacity:0.5;}.cls-3{fill:#3a332c;}.cls-4{fill:url(#linear-gradient);}.cls-5{fill:url(#linear-gradient-2);}.cls-6{fill:url(#linear-gradient-3);}.cls-7{fill:url(#linear-gradient-4);}.cls-8{fill:url(#linear-gradient-5);}.cls-9{fill:url(#linear-gradient-6);}.cls-10{fill:url(#linear-gradient-7);}.cls-11{fill:url(#linear-gradient-8);}.cls-12{fill:url(#linear-gradient-9);}.cls-13{fill:url(#linear-gradient-10);}.cls-14{fill:url(#linear-gradient-11);}.cls-15{fill:url(#linear-gradient-12);}.cls-16{fill:url(#linear-gradient-13);}.cls-17{fill:url(#linear-gradient-14);}.cls-18{fill:url(#linear-gradient-15);}.cls-19{fill:url(#linear-gradient-16);}.cls-20{fill:url(#linear-gradient-17);}.cls-21{fill:url(#linear-gradient-18);}.cls-22{fill:url(#linear-gradient-19);}.cls-23{fill:url(#linear-gradient-20);}.cls-24{fill:url(#linear-gradient-21);}.cls-25{fill:url(#linear-gradient-22);}.cls-26{fill:url(#linear-gradient-23);}.cls-27{fill:url(#linear-gradient-24);}.cls-28{fill:url(#linear-gradient-25);}.cls-29{fill:url(#linear-gradient-26);}.cls-30{fill:url(#linear-gradient-27);}.cls-31{fill:url(#linear-gradient-28);}.cls-32{fill:url(#linear-gradient-29);}.cls-33{fill:url(#linear-gradient-30);}.cls-34{fill:url(#linear-gradient-31);}.cls-35{fill:url(#linear-gradient-32);}.cls-36{fill:url(#linear-gradient-33);}.cls-37{fill:url(#linear-gradient-34);}.cls-38{fill:url(#linear-gradient-35);}.cls-39{fill:url(#linear-gradient-36);}.cls-40{fill:url(#linear-gradient-37);}.cls-41{fill:url(#linear-gradient-38);}.cls-42{fill:url(#linear-gradient-39);}.cls-43{fill:url(#linear-gradient-40);}.cls-44{fill:url(#linear-gradient-41);}.cls-45{fill:url(#linear-gradient-42);}.cls-46{fill:url(#linear-gradient-43);}.cls-47{fill:url(#linear-gradient-44);}.cls-48{fill:url(#linear-gradient-45);}.cls-49{fill:url(#linear-gradient-46);}.cls-50{fill:url(#linear-gradient-47);}.cls-51{fill:url(#linear-gradient-48);}.cls-52{fill:url(#linear-gradient-49);}.cls-53{fill:url(#linear-gradient-50);}.cls-54{fill:url(#linear-gradient-51);}.cls-55{fill:url(#linear-gradient-52);}.cls-56{fill:url(#linear-gradient-53);}.cls-57{fill:url(#linear-gradient-54);}.cls-58{fill:url(#linear-gradient-55);}.cls-59{fill:url(#linear-gradient-56);}.cls-60{fill:url(#linear-gradient-57);}.cls-61{fill:url(#linear-gradient-58);}.cls-62{fill:url(#linear-gradient-59);}.cls-63{fill:url(#linear-gradient-60);}.cls-64{fill:url(#linear-gradient-61);}.cls-65{fill:url(#linear-gradient-62);}.cls-66{fill:url(#linear-gradient-63);}.cls-67{fill:url(#linear-gradient-64);}.cls-68{fill:none;}</style><linearGradient id="linear-gradient" x1="360.9" y1="267.63" x2="360.9" y2="208.97" gradientTransform="translate(1000 -200) rotate(90)" gradientUnits="userSpaceOnUse"><stop offset="0" stop-color="#fff"/><stop offset="0.25" stop-color="#f7f8f8"/><stop offset="0.5" stop-color="#adabac"/><stop offset="0.75" stop-color="#2f2b2c"/><stop offset="1"/></linearGradient><linearGradient id="linear-gradient-2" x1="762.8" y1="267.63" x2="762.8" y2="208.97" xlink:href="#linear-gradient"/><linearGradient id="linear-gradient-3" x1="441.3" y1="267.63" x2="441.3" y2="208.97" xlink:href="#linear-gradient"/><linearGradient id="linear-gradient-4" x1="521.58" y1="267.63" x2="521.58" y2="208.97" xlink:href="#linear-gradient"/><linearGradient id="linear-gradient-5" x1="601.98" y1="267.63" x2="601.98" y2="208.97" xlink:href="#linear-gradient"/><linearGradient id="linear-gradient-6" x1="682.39" y1="267.63" x2="682.39" y2="208.97" xlink:href="#linear-gradient"/><linearGradient id="linear-gradient-7" x1="843.07" y1="267.63" x2="843.07" y2="208.97" xlink:href="#linear-gradient"/><linearGradient id="linear-gradient-8" x1="360.9" y1="187.29" x2="360.9" y2="128.63" xlink:href="#linear-gradient"/><linearGradient id="linear-gradient-9" x1="923.48" y1="267.63" x2="923.48" y2="208.97" xlink:href="#linear-gradient"/><linearGradient id="linear-gradient-10" x1="521.58" y1="187.29" x2="521.58" y2="128.63" xlink:href="#linear-gradient"/><linearGradient id="linear-gradient-11" x1="441.3" y1="187.29" x2="441.3" y2="128.63" xlink:href="#linear-gradient"/><linearGradient id="linear-gradient-12" x1="601.98" y1="187.29" x2="601.98" y2="128.63" xlink:href="#linear-gradient"/><linearGradient id="linear-gradient-13" x1="682.39" y1="187.29" x2="682.39" y2="128.63" xlink:href="#linear-gradient"/><linearGradient id="linear-gradient-14" x1="762.79" y1="187.29" x2="762.79" y2="128.63" xlink:href="#linear-gradient"/><linearGradient id="linear-gradient-15" x1="843.07" y1="187.29" x2="843.07" y2="128.63" xlink:href="#linear-gradient"/><linearGradient id="linear-gradient-16" x1="360.94" y1="428.31" x2="360.94" y2="369.65" xlink:href="#linear-gradient"/><linearGradient id="linear-gradient-17" x1="923.47" y1="187.29" x2="923.47" y2="128.63" xlink:href="#linear-gradient"/><linearGradient id="linear-gradient-18" x1="441.34" y1="428.31" x2="441.34" y2="369.65" xlink:href="#linear-gradient"/><linearGradient id="linear-gradient-19" x1="521.62" y1="428.31" x2="521.62" y2="369.65" xlink:href="#linear-gradient"/><linearGradient id="linear-gradient-20" x1="602.02" y1="428.31" x2="602.02" y2="369.65" xlink:href="#linear-gradient"/><linearGradient id="linear-gradient-21" x1="843.11" y1="428.31" x2="843.11" y2="369.65" xlink:href="#linear-gradient"/><linearGradient id="linear-gradient-22" x1="682.43" y1="428.31" x2="682.43" y2="369.65" xlink:href="#linear-gradient"/><linearGradient id="linear-gradient-23" x1="762.83" y1="428.31" x2="762.83" y2="369.65" xlink:href="#linear-gradient"/><linearGradient id="linear-gradient-24" x1="923.51" y1="428.31" x2="923.51" y2="369.65" xlink:href="#linear-gradient"/><linearGradient id="linear-gradient-25" x1="360.93" y1="347.97" x2="360.93" y2="289.31" xlink:href="#linear-gradient"/><linearGradient id="linear-gradient-26" x1="521.61" y1="347.97" x2="521.61" y2="289.31" xlink:href="#linear-gradient"/><linearGradient id="linear-gradient-27" x1="441.34" y1="347.97" x2="441.34" y2="289.31" xlink:href="#linear-gradient"/><linearGradient id="linear-gradient-28" x1="602.02" y1="347.97" x2="602.02" y2="289.31" xlink:href="#linear-gradient"/><linearGradient id="linear-gradient-29" x1="682.42" y1="347.97" x2="682.42" y2="289.31" xlink:href="#linear-gradient"/><linearGradient id="linear-gradient-30" x1="762.83" y1="347.97" x2="762.83" y2="289.31" xlink:href="#linear-gradient"/><linearGradient id="linear-gradient-31" x1="843.1" y1="347.97" x2="843.1" y2="289.31" xlink:href="#linear-gradient"/><linearGradient id="linear-gradient-32" x1="923.51" y1="347.97" x2="923.51" y2="289.31" xlink:href="#linear-gradient"/><linearGradient id="linear-gradient-33" x1="521.51" y1="589.15" x2="521.51" y2="530.49" xlink:href="#linear-gradient"/><linearGradient id="linear-gradient-34" x1="441.24" y1="589.15" x2="441.24" y2="530.49" xlink:href="#linear-gradient"/><linearGradient id="linear-gradient-35" x1="601.92" y1="589.15" x2="601.92" y2="530.49" xlink:href="#linear-gradient"/><linearGradient id="linear-gradient-36" x1="360.83" y1="589.15" x2="360.83" y2="530.49" xlink:href="#linear-gradient"/><linearGradient id="linear-gradient-37" x1="682.32" y1="589.15" x2="682.32" y2="530.49" xlink:href="#linear-gradient"/><linearGradient id="linear-gradient-38" x1="762.73" y1="589.15" x2="762.73" y2="530.49" xlink:href="#linear-gradient"/><linearGradient id="linear-gradient-39" x1="843" y1="589.15" x2="843" y2="530.49" xlink:href="#linear-gradient"/><linearGradient id="linear-gradient-40" x1="923.41" y1="589.15" x2="923.41" y2="530.49" xlink:href="#linear-gradient"/><linearGradient id="linear-gradient-41" x1="360.83" y1="508.81" x2="360.83" y2="450.15" xlink:href="#linear-gradient"/><linearGradient id="linear-gradient-42" x1="441.23" y1="508.81" x2="441.23" y2="450.15" xlink:href="#linear-gradient"/><linearGradient id="linear-gradient-43" x1="521.51" y1="508.81" x2="521.51" y2="450.15" xlink:href="#linear-gradient"/><linearGradient id="linear-gradient-44" x1="601.91" y1="508.81" x2="601.91" y2="450.15" xlink:href="#linear-gradient"/><linearGradient id="linear-gradient-45" x1="762.72" y1="508.81" x2="762.72" y2="450.15" xlink:href="#linear-gradient"/><linearGradient id="linear-gradient-46" x1="682.32" y1="508.81" x2="682.32" y2="450.15" xlink:href="#linear-gradient"/><linearGradient id="linear-gradient-47" x1="843" y1="508.81" x2="843" y2="450.15" xlink:href="#linear-gradient"/><linearGradient id="linear-gradient-48" x1="360.87" y1="749.83" x2="360.87" y2="691.17" xlink:href="#linear-gradient"/><linearGradient id="linear-gradient-49" x1="923.4" y1="508.81" x2="923.4" y2="450.15" xlink:href="#linear-gradient"/><linearGradient id="linear-gradient-50" x1="441.27" y1="749.83" x2="441.27" y2="691.17" xlink:href="#linear-gradient"/><linearGradient id="linear-gradient-51" x1="521.55" y1="749.83" x2="521.55" y2="691.17" xlink:href="#linear-gradient"/><linearGradient id="linear-gradient-52" x1="601.95" y1="749.83" x2="601.95" y2="691.17" xlink:href="#linear-gradient"/><linearGradient id="linear-gradient-53" x1="682.36" y1="749.83" x2="682.36" y2="691.17" xlink:href="#linear-gradient"/><linearGradient id="linear-gradient-54" x1="762.76" y1="749.83" x2="762.76" y2="691.17" xlink:href="#linear-gradient"/><linearGradient id="linear-gradient-55" x1="843.04" y1="749.83" x2="843.04" y2="691.17" xlink:href="#linear-gradient"/><linearGradient id="linear-gradient-56" x1="923.44" y1="749.83" x2="923.44" y2="691.17" xlink:href="#linear-gradient"/><linearGradient id="linear-gradient-57" x1="360.86" y1="669.49" x2="360.86" y2="610.83" xlink:href="#linear-gradient"/><linearGradient id="linear-gradient-58" x1="441.27" y1="669.49" x2="441.27" y2="610.83" xlink:href="#linear-gradient"/><linearGradient id="linear-gradient-59" x1="521.54" y1="669.49" x2="521.54" y2="610.83" xlink:href="#linear-gradient"/><linearGradient id="linear-gradient-60" x1="601.95" y1="669.49" x2="601.95" y2="610.83" xlink:href="#linear-gradient"/><linearGradient id="linear-gradient-61" x1="682.35" y1="669.49" x2="682.35" y2="610.83" xlink:href="#linear-gradient"/><linearGradient id="linear-gradient-62" x1="762.76" y1="669.49" x2="762.76" y2="610.83" xlink:href="#linear-gradient"/><linearGradient id="linear-gradient-63" x1="843.03" y1="669.49" x2="843.03" y2="610.83" xlink:href="#linear-gradient"/><linearGradient id="linear-gradient-64" x1="923.44" y1="669.49" x2="923.44" y2="610.83" xlink:href="#linear-gradient"/></defs><title>front (2)</title><g id="Layer_2" data-name="Layer 2"><g id="front"><path class="cls-1" d="M1073.09,82.46H192.69V799.19h880.4ZM241.52,754V127.64h782.74V754Z"/><path class="cls-2" d="M1024.26,127.64H241.52V754h782.74ZM681.36,748.78a29.33,29.33,0,0,1-20.26-50.54h40.53a29.33,29.33,0,0,1-20.27,50.54Zm53.12-18.45a29.32,29.32,0,0,1,7-32.12H782a29.33,29.33,0,1,1-47.49,32.12Zm134.79,0a29.33,29.33,0,1,1-47.49-32.12h40.53A29.33,29.33,0,0,1,869.27,730.33Zm-187.91-62a29.33,29.33,0,0,1-20.26-50.53h40.53a29.33,29.33,0,0,1-20.27,50.53Zm53.12-18.45a29.32,29.32,0,0,1,7-32.12H782a29.33,29.33,0,1,1-47.49,32.12Zm134.79,0a29.33,29.33,0,1,1-47.49-32.12h40.53A29.34,29.34,0,0,1,869.27,649.92ZM681.36,588.09a29.33,29.33,0,0,1-20.26-50.53h40.53a29.33,29.33,0,0,1-20.27,50.53Zm53.12-18.44a29.32,29.32,0,0,1,7-32.12H782a29.33,29.33,0,1,1-47.49,32.12Zm134.79,0a29.33,29.33,0,1,1-47.49-32.12h40.53A29.33,29.33,0,0,1,869.27,569.65Zm-187.91-62a29.33,29.33,0,0,1-20.26-50.53h40.53a29.33,29.33,0,0,1-20.27,50.53Zm53.12-18.45a29.32,29.32,0,0,1,7-32.12H782a29.33,29.33,0,1,1-47.49,32.12Zm134.79,0a29.33,29.33,0,1,1-47.49-32.12h40.53A29.34,29.34,0,0,1,869.27,489.24Zm-187.91-62a29.33,29.33,0,0,1-20.26-50.53h40.53a29.33,29.33,0,0,1-20.27,50.53Zm53.12-18.44a29.32,29.32,0,0,1,7-32.12H782a29.33,29.33,0,1,1-47.49,32.12Zm134.79,0a29.33,29.33,0,1,1-47.49-32.12h40.53A29.34,29.34,0,0,1,869.27,408.83ZM681.36,346.88a29.33,29.33,0,0,1-20.26-50.53h40.53a29.33,29.33,0,0,1-20.27,50.53Zm53.12-18.45a29.32,29.32,0,0,1,7-32.12H782a29.33,29.33,0,1,1-47.49,32.12Zm134.79,0a29.33,29.33,0,1,1-47.49-32.12h40.53A29.34,29.34,0,0,1,869.27,328.43ZM681.36,266.6a29.33,29.33,0,0,1-20.26-50.53h40.53a29.33,29.33,0,0,1-20.27,50.53Zm53.12-18.44a29.32,29.32,0,0,1,7-32.12H782a29.33,29.33,0,1,1-47.49,32.12Zm134.79,0A29.33,29.33,0,1,1,821.78,216h40.53A29.34,29.34,0,0,1,869.27,248.15Zm-187.91-62a29.33,29.33,0,0,1-20.26-50.54h40.53a29.33,29.33,0,0,1-20.27,50.54Zm53.12-18.45a29.32,29.32,0,0,1,7-32.12H782a29.33,29.33,0,1,1-47.49,32.12Zm134.79,0a29.33,29.33,0,1,1-47.49-32.12h40.53A29.34,29.34,0,0,1,869.27,167.75ZM540.78,135.56a29.33,29.33,0,1,1-40.53,0Zm-80.34,0a29.33,29.33,0,1,1-40.53,0Zm-80.34,0a29.33,29.33,0,1,1-40.53,0ZM252.28,167.72a29.33,29.33,0,0,1,7-32.12h40.53a29.33,29.33,0,1,1-47.48,32.12Zm321.52.07a29.32,29.32,0,0,1,7-32.12h40.53a29.33,29.33,0,1,1-47.49,32.12Zm-33,48.18a29.33,29.33,0,1,1-40.53,0Zm-80.34,0a29.33,29.33,0,1,1-40.53,0Zm-80.34,0a29.33,29.33,0,1,1-40.53,0ZM252.28,248.13a29.33,29.33,0,0,1,7-32.12h40.53a29.33,29.33,0,1,1-47.48,32.12Zm321.52.06a29.32,29.32,0,0,1,7-32.12h40.53a29.33,29.33,0,1,1-47.49,32.12Zm-33,48.05a29.33,29.33,0,1,1-40.53,0Zm-80.34,0a29.33,29.33,0,1,1-40.53,0Zm-80.34,0a29.33,29.33,0,1,1-40.53,0ZM252.28,328.4a29.33,29.33,0,0,1,7-32.12h40.53a29.33,29.33,0,1,1-47.48,32.12Zm321.52.07a29.32,29.32,0,0,1,7-32.12h40.53a29.33,29.33,0,1,1-47.49,32.12Zm-33,48.18a29.33,29.33,0,1,1-40.53,0Zm-80.34,0a29.33,29.33,0,1,1-40.53,0Zm-80.34,0a29.33,29.33,0,1,1-40.53,0ZM252.28,408.81a29.33,29.33,0,0,1,7-32.12h40.53a29.33,29.33,0,1,1-47.48,32.12Zm321.52.06a29.32,29.32,0,0,1,7-32.12h40.53a29.33,29.33,0,1,1-47.49,32.12Zm-33,48.18a29.33,29.33,0,1,1-40.53,0Zm-80.34,0a29.33,29.33,0,1,1-40.53,0Zm-80.34,0a29.33,29.33,0,1,1-40.53,0ZM252.28,489.21a29.33,29.33,0,0,1,7-32.12h40.53a29.33,29.33,0,1,1-47.48,32.12Zm321.52.07a29.32,29.32,0,0,1,7-32.12h40.53a29.33,29.33,0,1,1-47.49,32.12Zm-33,48.18a29.33,29.33,0,1,1-40.53,0Zm-80.34,0a29.33,29.33,0,1,1-40.53,0Zm-80.34,0a29.33,29.33,0,1,1-40.53,0ZM252.28,569.62a29.33,29.33,0,0,1,7-32.12h40.53a29.33,29.33,0,1,1-47.48,32.12Zm321.52.07a29.33,29.33,0,0,1,7-32.13h40.53a29.33,29.33,0,1,1-47.49,32.13Zm-33,48a29.33,29.33,0,1,1-40.53,0Zm-80.34,0a29.33,29.33,0,1,1-40.53,0Zm-80.34,0a29.33,29.33,0,1,1-40.53,0ZM252.28,649.89a29.33,29.33,0,0,1,7-32.12h40.53a29.33,29.33,0,1,1-47.48,32.12ZM573.8,650a29.32,29.32,0,0,1,7-32.12h40.53A29.33,29.33,0,1,1,573.8,650Zm-33,48.18a29.33,29.33,0,1,1-40.53,0Zm-80.34,0a29.33,29.33,0,1,1-40.53,0Zm-80.34,0a29.33,29.33,0,1,1-40.53,0ZM252.28,730.3a29.33,29.33,0,0,1,7-32.12h40.53a29.33,29.33,0,1,1-47.48,32.12Zm321.52.07a29.32,29.32,0,0,1,7-32.12h40.53a29.33,29.33,0,1,1-47.49,32.12Z"/><polygon class="cls-3" points="241.52 129.21 192.69 84.02 192.69 82.45 194.29 82.45 243.13 127.64 241.52 127.64 241.52 129.21"/><polygon class="cls-3" points="1024.26 752.43 1073.09 797.62 1073.09 799.19 1071.49 799.19 1022.65 754 1024.26 754 1024.26 752.43"/><path class="cls-4" d="M741.44,135.63a29.33,29.33,0,1,0,40.53,0Z"/><path class="cls-5" d="M741.44,537.53a29.33,29.33,0,1,0,40.53,0Z"/><path class="cls-6" d="M741.44,216A29.33,29.33,0,1,0,782,216Z"/><path class="cls-7" d="M741.44,296.31a29.33,29.33,0,1,0,40.53,0Z"/><path class="cls-8" d="M741.44,376.72a29.33,29.33,0,1,0,40.53,0Z"/><path class="cls-9" d="M741.44,457.12a29.33,29.33,0,1,0,40.53,0Z"/><path class="cls-10" d="M741.44,617.8a29.33,29.33,0,1,0,40.53,0Z"/><path class="cls-11" d="M821.78,135.63a29.33,29.33,0,1,0,40.53,0Z"/><path class="cls-12" d="M741.44,698.21a29.33,29.33,0,1,0,40.53,0Z"/><path class="cls-13" d="M821.78,296.31a29.33,29.33,0,1,0,40.53,0Z"/><path class="cls-14" d="M821.78,216a29.33,29.33,0,1,0,40.53,0Z"/><path class="cls-15" d="M821.78,376.71a29.33,29.33,0,1,0,40.53,0Z"/><path class="cls-16" d="M821.78,457.12a29.33,29.33,0,1,0,40.53,0Z"/><path class="cls-17" d="M821.78,537.53a29.33,29.33,0,1,0,40.53,0Z"/><path class="cls-18" d="M821.78,617.8a29.33,29.33,0,1,0,40.53,0Z"/><path class="cls-19" d="M580.76,135.67a29.33,29.33,0,1,0,40.53,0Z"/><path class="cls-20" d="M821.78,698.21a29.33,29.33,0,1,0,40.53,0Z"/><path class="cls-21" d="M580.76,216.07a29.33,29.33,0,1,0,40.53,0Z"/><path class="cls-22" d="M580.76,296.35a29.33,29.33,0,1,0,40.53,0Z"/><path class="cls-23" d="M580.76,376.75a29.33,29.33,0,1,0,40.53,0Z"/><path class="cls-24" d="M580.76,617.84a29.33,29.33,0,1,0,40.53,0Z"/><path class="cls-25" d="M580.76,457.16a29.33,29.33,0,1,0,40.53,0Z"/><path class="cls-26" d="M580.76,537.56a29.33,29.33,0,1,0,40.53,0Z"/><path class="cls-27" d="M580.76,698.25a29.33,29.33,0,1,0,40.53,0Z"/><path class="cls-28" d="M661.1,135.66a29.33,29.33,0,1,0,40.53,0Z"/><path class="cls-29" d="M661.1,296.35a29.33,29.33,0,1,0,40.53,0Z"/><path class="cls-30" d="M661.1,216.07a29.33,29.33,0,1,0,40.53,0Z"/><path class="cls-31" d="M661.1,376.75a29.33,29.33,0,1,0,40.53,0Z"/><path class="cls-32" d="M661.1,457.16a29.33,29.33,0,1,0,40.53,0Z"/><path class="cls-33" d="M661.1,537.56a29.33,29.33,0,1,0,40.53,0Z"/><path class="cls-34" d="M661.1,617.84a29.33,29.33,0,1,0,40.53,0Z"/><path class="cls-35" d="M661.1,698.24a29.33,29.33,0,1,0,40.53,0Z"/><path class="cls-36" d="M419.91,296.24a29.33,29.33,0,1,0,40.53,0Z"/><path class="cls-37" d="M419.91,216a29.33,29.33,0,1,0,40.53,0Z"/><path class="cls-38" d="M419.91,376.65a29.33,29.33,0,1,0,40.53,0Z"/><path class="cls-39" d="M419.91,135.56a29.33,29.33,0,1,0,40.53,0Z"/><path class="cls-40" d="M419.91,457.05a29.33,29.33,0,1,0,40.53,0Z"/><path class="cls-41" d="M419.91,537.46a29.33,29.33,0,1,0,40.53,0Z"/><path class="cls-42" d="M419.91,617.74a29.33,29.33,0,1,0,40.53,0Z"/><path class="cls-43" d="M419.91,698.14a29.33,29.33,0,1,0,40.53,0Z"/><path class="cls-44" d="M500.25,135.56a29.33,29.33,0,1,0,40.53,0Z"/><path class="cls-45" d="M500.25,216a29.33,29.33,0,1,0,40.53,0Z"/><path class="cls-46" d="M500.25,296.24a29.33,29.33,0,1,0,40.53,0Z"/><path class="cls-47" d="M500.25,376.65a29.33,29.33,0,1,0,40.53,0Z"/><path class="cls-48" d="M500.25,537.46a29.33,29.33,0,1,0,40.53,0Z"/><path class="cls-49" d="M500.25,457.05a29.33,29.33,0,1,0,40.53,0Z"/><path class="cls-50" d="M500.25,617.73a29.33,29.33,0,1,0,40.53,0Z"/><path class="cls-51" d="M259.23,135.6a29.33,29.33,0,1,0,40.53,0Z"/><path class="cls-52" d="M500.25,698.14a29.33,29.33,0,1,0,40.53,0Z"/><path class="cls-53" d="M259.23,216a29.33,29.33,0,1,0,40.53,0Z"/><path class="cls-54" d="M259.23,296.28a29.33,29.33,0,1,0,40.53,0Z"/><path class="cls-55" d="M259.23,376.69a29.33,29.33,0,1,0,40.53,0Z"/><path class="cls-56" d="M259.23,457.09a29.33,29.33,0,1,0,40.53,0Z"/><path class="cls-57" d="M259.23,537.5a29.33,29.33,0,1,0,40.53,0Z"/><path class="cls-58" d="M259.23,617.77a29.33,29.33,0,1,0,40.53,0Z"/><path class="cls-59" d="M259.23,698.18a29.33,29.33,0,1,0,40.53,0Z"/><path class="cls-60" d="M339.57,135.6a29.33,29.33,0,1,0,40.53,0Z"/><path class="cls-61" d="M339.57,216a29.33,29.33,0,1,0,40.53,0Z"/><path class="cls-62" d="M339.57,296.28a29.33,29.33,0,1,0,40.53,0Z"/><path class="cls-63" d="M339.57,376.68a29.33,29.33,0,1,0,40.53,0Z"/><path class="cls-64" d="M339.57,457.09a29.33,29.33,0,1,0,40.53,0Z"/><path class="cls-65" d="M339.57,537.49a29.33,29.33,0,1,0,40.53,0Z"/><path class="cls-66" d="M339.57,617.77a29.33,29.33,0,1,0,40.53,0Z"/><path class="cls-67" d="M339.57,698.17a29.33,29.33,0,1,0,40.53,0Z"/><polygon class="cls-3" points="1024.26 129.21 1073.09 84.02 1073.09 82.45 1071.49 82.45 1022.65 127.64 1024.26 127.64 1024.26 129.21"/><polygon class="cls-3" points="241.52 752.43 192.69 797.62 192.69 799.19 194.29 799.19 243.13 754 241.52 754 241.52 752.43"/><rect class="cls-68" x="200" y="-200" width="800" height="1200" transform="translate(1000 -200) rotate(90)"/></g></g></svg>