<?xml version="1.0" encoding="utf-8"?>
<!-- Generator: Adobe Illustrator 21.0.0, SVG Export Plug-In . SVG Version: 6.00 Build 0)  -->
<svg version="1.1" id="svg-brand" xmlns="http://www.w3.org/2000/svg" xmlns:xlink="http://www.w3.org/1999/xlink" x="0px" y="0px"
	 viewBox="0 0 360.2 299.1" style="enable-background:new 0 0 360.2 299.1;" xml:space="preserve">
<path d="M360.2,263.1l-174.7,36V83h-1.1l-61.1,216.1H95L32.7,83v216.1H0V26.2h49.1c19.6,76.4,39.3,152.8,60,229.2
	c20.7-76.4,38.2-143,57.9-214C231.4,27.3,305.7,14.2,360.2,0v30.6c-43.7,10.9-87.3,21.8-141.9,31.7v79.7
	c43.7-9.8,87.3-19.6,131-28.4v30.6c-43.7,9.8-87.3,19.6-131,28.4v88.4c54.6-10.9,98.2-20.7,141.9-31.7V263.1z"/>
</svg>
