<svg xmlns="http://www.w3.org/2000/svg" viewBox="0 0 1140 800" enable-background="new 0 0 1140 800"><style type="text/css">.st0{fill:#7C6E5D;} .st1{opacity:0.75;fill:#174994;enable-background:new ;} .st2{opacity:0.7;fill:#174994;enable-background:new ;} .st3{fill:#707070;} .st4{fill:none;} .st5{fill:#A3907C;}</style><title>servos_3</title><g id="servos"><path class="st0" d="M173 121.8v638.6h655.6v-638.6h-655.6zm619.4 618.9c0 5.5-4.5 9.9-10 9.9s-9.9-4.5-9.9-10 4.5-9.9 9.9-9.9c5.6 0 10 4.5 10 10zm-84.2 0c0 5.5-4.5 9.9-10 9.9s-9.9-4.5-9.9-10 4.5-9.9 10-9.9 9.9 4.5 9.9 10zm-84.3 0c0 5.5-4.5 10-10 10s-10-4.5-10-10 4.5-10 10-10c5.6 0 10 4.5 10 10zm-84.3 0c0 5.5-4.5 10-10 10s-10-4.5-10-10 4.5-10 10-10 10 4.4 10 10zm-84.2 0c0 5.5-4.5 10-10 10s-10-4.5-10-10 4.5-10 10-10 10 4.4 10 10zm-84.3 0c0 5.5-4.5 10-10 10s-10-4.5-10-10 4.5-10 10-10 10 4.5 10 10zm-84.3 0c0 5.5-4.5 10-10 10s-10-4.5-10-10 4.5-10 10-10 10 4.4 10 10zm-84.3 0c0 5.5-4.5 9.9-10 9.9s-9.9-4.5-9.9-10 4.5-9.9 10-9.9 9.9 4.5 9.9 10zm589.9-85.6c0 5.5-4.5 9.9-10 9.9s-9.9-4.5-9.9-10 4.5-9.9 9.9-9.9c5.6 0 10 4.5 10 10zm-84.2 0c0 5.5-4.5 9.9-10 9.9s-9.9-4.5-9.9-10 4.5-9.9 10-9.9 9.9 4.5 9.9 10zm-84.3 0c0 5.5-4.5 10-10 10s-10-4.5-10-10 4.5-10 10-10c5.6 0 10 4.5 10 10zm-84.3 0c0 5.5-4.5 10-10 10s-10-4.5-10-10 4.5-10 10-10 10 4.5 10 10zm-84.2 0c0 5.5-4.5 10-10 10s-10-4.5-10-10 4.5-10 10-10 10 4.5 10 10zm-84.3 0c0 5.5-4.5 10-10 10s-10-4.5-10-10 4.5-10 10-10 10 4.5 10 10zm-84.3 0c0 5.5-4.5 10-10 10s-10-4.5-10-10 4.5-10 10-10 10 4.5 10 10zm-84.3 0c0 5.5-4.5 9.9-10 9.9s-9.9-4.5-9.9-10 4.5-9.9 10-9.9 9.9 4.5 9.9 10zm589.9-85.5c0 5.5-4.5 9.9-10 9.9s-9.9-4.5-9.9-10 4.5-9.9 9.9-9.9c5.6 0 10 4.5 10 10zm-84.2 0c0 5.5-4.5 9.9-10 9.9s-9.9-4.5-9.9-10 4.5-9.9 10-9.9 9.9 4.5 9.9 10zm-84.3 0c0 5.5-4.5 10-10 10s-10-4.5-10-10 4.5-10 10-10c5.6 0 10 4.5 10 10zm-84.3 0c0 5.5-4.5 10-10 10s-10-4.5-10-10 4.5-10 10-10 10 4.5 10 10zm-84.2 0c0 5.5-4.5 10-10 10s-10-4.5-10-10 4.5-10 10-10 10 4.5 10 10zm-84.3 0c0 5.5-4.5 10-10 10s-10-4.5-10-10 4.5-10 10-10 10 4.5 10 10zm-84.3 0c0 5.5-4.5 10-10 10s-10-4.5-10-10 4.5-10 10-10 10 4.5 10 10zm-84.3 0c0 5.5-4.5 9.9-10 9.9s-9.9-4.5-9.9-10 4.5-9.9 10-9.9 9.9 4.5 9.9 10zm589.9-85.6c0 5.5-4.5 9.9-10 9.9s-9.9-4.5-9.9-10 4.5-9.9 9.9-9.9c5.6 0 10 4.5 10 10zm-84.2 0c0 5.5-4.5 9.9-10 9.9s-9.9-4.5-9.9-10 4.5-9.9 10-9.9 9.9 4.5 9.9 10zm-84.3 0c0 5.5-4.5 10-10 10s-10-4.5-10-10 4.5-10 10-10c5.6 0 10 4.5 10 10zm-84.3 0c0 5.5-4.5 10-10 10s-10-4.5-10-10 4.5-10 10-10 10 4.5 10 10zm-84.2 0c0 5.5-4.5 10-10 10s-10-4.5-10-10 4.5-10 10-10 10 4.5 10 10zm-84.3 0c0 5.5-4.5 10-10 10s-10-4.5-10-10 4.5-10 10-10 10 4.5 10 10zm-84.3 0c0 5.5-4.5 10-10 10s-10-4.5-10-10 4.5-10 10-10 10 4.5 10 10zm-84.3 0c0 5.5-4.5 9.9-10 9.9s-9.9-4.5-9.9-10 4.5-9.9 10-9.9 9.9 4.5 9.9 10zm589.9-85.5c0 5.5-4.5 9.9-10 9.9s-9.9-4.5-9.9-10 4.5-9.9 9.9-9.9c5.6 0 10 4.5 10 10zm-84.2 0c0 5.5-4.5 9.9-10 9.9s-9.9-4.5-9.9-10 4.5-9.9 10-9.9 9.9 4.5 9.9 10zm-84.3 0c0 5.5-4.5 10-10 10s-10-4.5-10-10 4.5-10 10-10c5.6 0 10 4.5 10 10zm-84.3 0c0 5.5-4.5 10-10 10s-10-4.5-10-10 4.5-10 10-10 10 4.4 10 10zm-84.2 0c0 5.5-4.5 10-10 10s-10-4.5-10-10 4.5-10 10-10 10 4.4 10 10zm-84.3 0c0 5.5-4.5 10-10 10s-10-4.5-10-10 4.5-10 10-10 10 4.5 10 10zm-84.3 0c0 5.5-4.5 10-10 10s-10-4.5-10-10 4.5-10 10-10 10 4.4 10 10zm-84.3 0c0 5.5-4.5 9.9-10 9.9s-9.9-4.5-9.9-10 4.5-9.9 10-9.9 9.9 4.5 9.9 10zm589.9-85.6c0 5.5-4.5 9.9-10 9.9s-9.9-4.5-9.9-10 4.5-9.9 9.9-9.9c5.6 0 10 4.5 10 10zm-84.2 0c0 5.5-4.5 9.9-10 9.9s-9.9-4.5-9.9-10 4.5-9.9 10-9.9 9.9 4.5 9.9 10zm-84.3 0c0 5.5-4.5 10-10 10s-10-4.5-10-10 4.5-10 10-10c5.6 0 10 4.5 10 10zm-84.3 0c0 5.5-4.5 10-10 10s-10-4.5-10-10 4.5-10 10-10 10 4.5 10 10zm-84.2 0c0 5.5-4.5 10-10 10s-10-4.5-10-10 4.5-10 10-10 10 4.5 10 10zm-84.3 0c0 5.5-4.5 10-10 10s-10-4.5-10-10 4.5-10 10-10 10 4.5 10 10zm-84.3 0c0 5.5-4.5 10-10 10s-10-4.5-10-10 4.5-10 10-10 10 4.5 10 10zm-84.3 0c0 5.5-4.5 9.9-10 9.9s-9.9-4.5-9.9-10 4.5-9.9 10-9.9 9.9 4.5 9.9 10zm589.9-85.6c0 5.5-4.5 9.9-10 9.9s-9.9-4.5-9.9-10 4.5-9.9 9.9-9.9c5.6.1 10 4.5 10 10zm-84.2 0c0 5.5-4.5 9.9-10 9.9s-9.9-4.5-9.9-10 4.5-9.9 10-9.9c5.5.1 9.9 4.5 9.9 10zm-84.3 0c0 5.5-4.5 10-10 10s-10-4.5-10-10 4.5-10 10-10c5.6.1 10 4.5 10 10zm-84.3 0c0 5.5-4.5 10-10 10s-10-4.5-10-10 4.5-10 10-10 10 4.5 10 10zm-84.2 0c0 5.5-4.5 10-10 10s-10-4.5-10-10 4.5-10 10-10 10 4.5 10 10zm-84.3 0c0 5.5-4.5 10-10 10s-10-4.5-10-10 4.5-10 10-10c5.5.1 10 4.5 10 10zm-84.3 0c0 5.5-4.5 10-10 10s-10-4.5-10-10 4.5-10 10-10 10 4.5 10 10zm-84.3 0c0 5.5-4.5 9.9-10 9.9s-9.9-4.5-9.9-10 4.5-9.9 10-9.9c5.5.1 9.9 4.5 9.9 10zm589.9-85.5c0 5.5-4.5 9.9-10 9.9s-9.9-4.5-9.9-10 4.5-9.9 9.9-9.9c5.6 0 10 4.5 10 10zm-84.2 0c0 5.5-4.5 9.9-10 9.9s-9.9-4.5-9.9-10 4.5-9.9 10-9.9 9.9 4.5 9.9 10zm-84.3 0c0 5.5-4.5 10-10 10s-10-4.5-10-10 4.5-10 10-10c5.6 0 10 4.5 10 10zm-84.3 0c0 5.5-4.5 10-10 10s-10-4.5-10-10 4.5-10 10-10 10 4.4 10 10zm-84.2 0c0 5.5-4.5 10-10 10s-10-4.5-10-10 4.5-10 10-10 10 4.4 10 10zm-84.3 0c0 5.5-4.5 10-10 10s-10-4.5-10-10 4.5-10 10-10 10 4.5 10 10zm-84.3 0c0 5.5-4.5 10-10 10s-10-4.5-10-10 4.5-10 10-10 10 4.4 10 10zm-84.3 0c0 5.5-4.5 9.9-10 9.9s-9.9-4.5-9.9-10 4.5-9.9 10-9.9 9.9 4.5 9.9 10z"/><path class="st1" d="M207.3 386.6h6.3c.2 0 .3.1.3.3v34c0 .2-.1.3-.3.3h-6.3c-.2 0-.3.2-.3.3v6.7c0 .2-.1.3-.3.3h-2.5c-.2 0-.3-.1-.3-.3v-6.7c0-.2-.1-.3-.3-.3h-24c-.2 0-.3-.1-.3-.3v-34c0-.2.1-.3.3-.3h24c.2 0 .3-.1.3-.3v-6.7c0-.2.1-.3.3-.3h2.5c.2 0 .3.1.3.3v6.7c0 .2.1.3.3.3z"/><path class="st2" d="M213.9 403.9h5.4c.4 0 .8-.1.8-.5v-16.1c0-.4-.3-.8-.8-.8h-5.4M213.9 386.6h5.4c.4 0 .8.3.8.8v22.1c0 .4-.3.8-.8.8h-5.4"/><path class="st3" d="M220.1 382.1h2.3v32.7h-2.3z"/><path class="st1" d="M207.3 467h6.3c.2 0 .3.1.3.3v34c0 .2-.1.3-.3.3h-6.3c-.2 0-.3.2-.3.3v6.7c0 .2-.1.3-.3.3h-2.5c-.2 0-.3-.1-.3-.3v-6.7c0-.2-.1-.3-.3-.3h-24c-.2 0-.3-.1-.3-.3v-34c0-.2.1-.3.3-.3h24c.2 0 .3-.1.3-.3v-6.7c0-.2.1-.3.3-.3h2.5c.2 0 .3.1.3.3v6.7c0 .2.1.3.3.3z"/><path class="st2" d="M213.9 484.3h5.4c.4 0 .8-.1.8-.5v-16.1c0-.4-.3-.7-.8-.8h-5.4M213.9 467h5.4c.4 0 .7.3.8.8v22.1c0 .4-.3.7-.8.8h-5.4"/><path class="st3" d="M220.1 462.5h2.3v32.7h-2.3z"/><path class="st1" d="M207.3 547.4h6.3c.2 0 .3.1.3.3v34c0 .2-.1.3-.3.3h-6.3c-.2 0-.3.2-.3.3v6.7c0 .2-.1.3-.3.3h-2.5c-.2 0-.3-.1-.3-.3v-6.7c0-.2-.1-.3-.3-.3h-24c-.2 0-.3-.1-.3-.3v-34c0-.2.1-.3.3-.3h24c.2 0 .3-.1.3-.3v-6.7c0-.2.1-.3.3-.3h2.5c.2 0 .3.1.3.3v6.7c0 .2.1.3.3.3z"/><path class="st2" d="M213.9 564.8h5.4c.4 0 .8-.1.8-.5v-16.1c0-.4-.3-.7-.8-.8h-5.4M213.9 547.4h5.4c.4 0 .7.3.8.8v22.1c0 .4-.3.8-.8.8h-5.4"/><path class="st3" d="M220.1 542.9h2.3v32.7h-2.3z"/><path class="st1" d="M207.3 627.7h6.3c.2 0 .3.1.3.3v34c0 .2-.1.3-.3.3h-6.3c-.2 0-.3.2-.3.3v6.7c0 .2-.1.3-.3.3h-2.5c-.2 0-.3-.1-.3-.3v-6.7c0-.2-.1-.3-.3-.3h-24c-.2 0-.3-.1-.3-.3v-34c0-.2.1-.3.3-.3h24c.2 0 .3-.1.3-.3v-6.7c0-.2.1-.3.3-.3h2.5c.2 0 .3.1.3.3v6.7c0 .2.1.3.3.3z"/><path class="st2" d="M213.9 645h5.4c.4 0 .8-.1.8-.5v-16.1c0-.4-.3-.7-.8-.8h-5.4M213.9 627.7h5.4c.4 0 .7.3.8.8v22.1c0 .4-.3.7-.8.8h-5.4"/><path class="st3" d="M220.1 623.2h2.3v32.7h-2.3z"/><path class="st1" d="M207.3 145.5h6.3c.2 0 .3.1.3.3v34c0 .2-.1.3-.3.3h-6.3c-.2 0-.3.2-.3.3v6.7c0 .2-.1.3-.3.3h-2.5c-.2 0-.3-.1-.3-.3v-6.8c0-.2-.1-.3-.3-.3h-24c-.2 0-.3-.1-.3-.3v-34c0-.2.1-.3.3-.3h24c.2 0 .3-.1.3-.3v-6.7c0-.2.1-.3.3-.3h2.5c.2 0 .3.1.3.3v6.7c0 .3.1.4.3.4z"/><path class="st2" d="M213.9 162.9h5.4c.4 0 .8-.1.8-.4v-16.1c0-.4-.3-.7-.8-.8h-5.4M213.9 145.5h5.4c.4 0 .7.3.8.8v22.1c0 .4-.3.7-.8.8h-5.4"/><path class="st3" d="M220.1 141h2.3v32.7h-2.3z"/><path class="st1" d="M207.3 225.9h6.3c.2 0 .3.1.3.3v34c0 .2-.1.3-.3.3h-6.3c-.2 0-.3.2-.3.3v6.7c0 .2-.1.3-.3.3h-2.5c-.2 0-.3-.1-.3-.3v-6.8c0-.2-.1-.3-.3-.3h-24c-.2 0-.3-.1-.3-.3v-34c0-.2.1-.3.3-.3h24c.2 0 .3-.1.3-.3v-6.7c0-.2.1-.3.3-.3h2.5c.2 0 .3.1.3.3v6.7c0 .3.1.4.3.4z"/><path class="st2" d="M213.9 243.3h5.4c.4 0 .8-.1.8-.5v-16.1c0-.4-.3-.8-.8-.8h-5.4M213.9 225.9h5.4c.4 0 .8.3.8.8v22.1c0 .4-.3.8-.8.8h-5.4"/><path class="st3" d="M220.1 221.4h2.3v32.7h-2.3z"/><path class="st1" d="M207.3 306.2h6.3c.2 0 .3.1.3.3v34c0 .2-.1.3-.3.3h-6.3c-.2 0-.3.2-.3.3v6.7c0 .2-.1.3-.3.3h-2.5c-.2 0-.3-.1-.3-.3v-6.7c0-.2-.1-.3-.3-.3h-24c-.2 0-.3-.1-.3-.3v-34c0-.2.1-.3.3-.3h24c.2 0 .3-.1.3-.3v-6.7c0-.2.1-.3.3-.3h2.5c.2 0 .3.1.3.3v6.7c0 .2.1.3.3.3z"/><path class="st2" d="M213.9 323.5h5.4c.4 0 .8-.1.8-.5v-16c0-.4-.3-.7-.8-.8h-5.4M213.9 306.2h5.4c.4 0 .7.3.8.8v22c0 .4-.3.7-.8.8h-5.4"/><path class="st3" d="M220.1 301.7h2.3v32.7h-2.3z"/><path class="st1" d="M207.3 708.1h6.3c.2 0 .3.1.3.3v34c0 .2-.1.3-.3.3h-6.3c-.2 0-.3.2-.3.3v6.7c0 .2-.1.3-.3.3h-2.5c-.2 0-.3-.1-.3-.3v-6.7c0-.2-.1-.3-.3-.3h-24c-.2 0-.3-.1-.3-.3v-34c0-.2.1-.3.3-.3h24c.2 0 .3-.1.3-.3v-6.7c0-.2.1-.3.3-.3h2.5c.2 0 .3.1.3.3v6.7c0 .2.1.3.3.3z"/><path class="st2" d="M213.9 725.4h5.4c.4 0 .8-.1.8-.5v-16.1c0-.4-.3-.7-.8-.8h-5.4M213.9 708.1h5.4c.4 0 .7.3.8.8v22.1c0 .4-.3.8-.8.8h-5.4"/><path class="st3" d="M220.1 703.6h2.3v32.7h-2.3z"/><path class="st1" d="M287.7 386.6h6.3c.2 0 .3.1.3.3v34c0 .2-.1.3-.3.3h-6.3c-.2 0-.3.2-.3.3v6.7c0 .2-.1.3-.3.3h-2.5c-.2 0-.3-.1-.3-.3v-6.7c0-.2-.1-.3-.3-.3h-24c-.2 0-.3-.1-.3-.3v-34c0-.2.1-.3.3-.3h23.9c.2 0 .3-.1.3-.3v-6.7c0-.2.1-.3.3-.3h2.5c.2 0 .3.1.3.3v6.7c0 .2.1.3.4.3z"/><path class="st2" d="M294.2 403.9h5.4c.4 0 .8-.1.8-.5v-16.1c0-.4-.3-.7-.8-.7h-5.4M294.2 386.6h5.4c.4 0 .7.3.8.7v22.1c0 .4-.3.7-.8.8h-5.4"/><path class="st3" d="M300.4 382.1h2.3v32.7h-2.3z"/><path class="st1" d="M287.7 467h6.3c.2 0 .3.1.3.3v34c0 .2-.1.3-.3.3h-6.3c-.2 0-.3.2-.3.3v6.7c0 .2-.1.3-.3.3h-2.5c-.2 0-.3-.1-.3-.3v-6.7c0-.2-.1-.3-.3-.3h-24c-.2 0-.3-.1-.3-.3v-34c0-.2.1-.3.3-.3h23.9c.2 0 .3-.1.3-.3v-6.7c0-.2.1-.3.3-.3h2.5c.2 0 .3.1.3.3v6.7c0 .2.1.3.4.3z"/><path class="st2" d="M294.2 484.3h5.4c.4 0 .8-.1.8-.5v-16.1c0-.4-.3-.7-.8-.8h-5.4M294.2 467h5.4c.4 0 .7.3.8.8v22.1c0 .4-.3.8-.8.8h-5.4"/><path class="st3" d="M300.4 462.5h2.3v32.7h-2.3z"/><path class="st1" d="M287.7 547.4h6.3c.2 0 .3.1.3.3v34c0 .2-.1.3-.3.3h-6.3c-.2 0-.3.2-.3.3v6.7c0 .2-.1.3-.3.3h-2.5c-.2 0-.3-.1-.3-.3v-6.7c0-.2-.1-.3-.3-.3h-24c-.2 0-.3-.1-.3-.3v-34c0-.2.1-.3.3-.3h23.9c.2 0 .3-.1.3-.3v-6.8c0-.2.1-.3.3-.3h2.5c.2 0 .3.1.3.3v6.7c0 .2.1.4.4.4z"/><path class="st2" d="M294.2 564.7h5.4c.4 0 .8-.1.8-.5v-16.1c0-.4-.3-.7-.8-.7h-5.4M294.2 547.4h5.4c.4 0 .7.3.8.7v22.1c0 .4-.3.7-.8.8h-5.4"/><path class="st3" d="M300.4 542.9h2.3v32.7h-2.3z"/><path class="st1" d="M287.7 627.7h6.3c.2 0 .3.1.3.3v34c0 .2-.1.3-.3.3h-6.3c-.2 0-.3.2-.3.3v6.7c0 .2-.1.3-.3.3h-2.5c-.2 0-.3-.1-.3-.3v-6.7c0-.2-.1-.3-.3-.3h-24c-.2 0-.3-.1-.3-.3v-34c0-.2.1-.3.3-.3h23.9c.2 0 .3-.1.3-.3v-6.7c0-.2.1-.3.3-.3h2.5c.2 0 .3.1.3.3v6.7c0 .2.1.3.4.3z"/><path class="st2" d="M294.2 645h5.4c.4 0 .8-.1.8-.5v-16.1c0-.4-.3-.7-.8-.8h-5.4M294.2 627.7h5.4c.4 0 .7.3.8.8v22.1c0 .4-.3.8-.8.8h-5.4"/><path class="st3" d="M300.4 623.2h2.3v32.7h-2.3z"/><path class="st1" d="M287.7 145.5h6.3c.2 0 .3.1.3.3v34c0 .2-.1.3-.3.3h-6.3c-.2 0-.3.2-.3.3v6.7c0 .2-.1.3-.3.3h-2.5c-.2 0-.3-.1-.3-.3v-6.7c0-.2-.1-.3-.3-.3h-24c-.2 0-.3-.1-.3-.3v-34c0-.2.1-.3.3-.3h23.9c.2 0 .3-.1.3-.3v-6.7c0-.2.1-.3.3-.3h2.5c.2 0 .3.1.3.3v6.7c0 .2.1.3.4.3z"/><path class="st2" d="M294.2 162.9h5.4c.4 0 .8-.1.8-.5v-16.1c0-.4-.3-.8-.8-.8h-5.4M294.2 145.5h5.4c.4 0 .8.3.8.8v22.1c0 .4-.3.8-.8.8h-5.4"/><path class="st3" d="M300.4 141h2.3v32.7h-2.3z"/><path class="st1" d="M287.7 225.9h6.3c.2 0 .3.1.3.3v34c0 .2-.1.3-.3.3h-6.3c-.2 0-.3.2-.3.3v6.7c0 .2-.1.3-.3.3h-2.5c-.2 0-.3-.1-.3-.3v-6.8c0-.2-.1-.3-.3-.3h-24c-.2 0-.3-.1-.3-.3v-34c0-.2.1-.3.3-.3h23.9c.2 0 .3-.1.3-.3v-6.7c0-.2.1-.3.3-.3h2.5c.2 0 .3.1.3.3v6.7c0 .3.1.4.4.4z"/><path class="st2" d="M294.2 243.2h5.4c.4 0 .8-.1.8-.4v-16.1c0-.4-.3-.7-.8-.7h-5.4M294.2 225.9h5.4c.4 0 .7.3.8.7v22.1c0 .4-.3.7-.8.8h-5.4"/><path class="st3" d="M300.4 221.4h2.3v32.7h-2.3z"/><path class="st1" d="M287.7 306.2h6.3c.2 0 .3.1.3.3v34c0 .2-.1.3-.3.3h-6.3c-.2 0-.3.2-.3.3v6.7c0 .2-.1.3-.3.3h-2.5c-.2 0-.3-.1-.3-.3v-6.7c0-.2-.1-.3-.3-.3h-24c-.2 0-.3-.1-.3-.3v-34c0-.2.1-.3.3-.3h23.9c.2 0 .3-.1.3-.3v-6.7c0-.2.1-.3.3-.3h2.5c.2 0 .3.1.3.3v6.7c0 .2.1.3.4.3z"/><path class="st2" d="M294.2 323.5h5.4c.4 0 .8-.1.8-.5v-16c0-.4-.3-.7-.8-.8h-5.4M294.2 306.2h5.4c.4 0 .7.3.8.8v22c0 .4-.3.8-.8.8h-5.4"/><path class="st3" d="M300.4 301.7h2.3v32.7h-2.3z"/><path class="st1" d="M287.7 708.1h6.3c.2 0 .3.1.3.3v34c0 .2-.1.3-.3.3h-6.3c-.2 0-.3.2-.3.3v6.7c0 .2-.1.3-.3.3h-2.5c-.2 0-.3-.1-.3-.3v-6.7c0-.2-.1-.3-.3-.3h-24c-.2 0-.3-.1-.3-.3v-34c0-.2.1-.3.3-.3h23.9c.2 0 .3-.1.3-.3v-6.7c0-.2.1-.3.3-.3h2.5c.2 0 .3.1.3.3v6.7c0 .2.1.3.4.3z"/><path class="st2" d="M294.2 725.4h5.4c.4 0 .8-.1.8-.5v-16.1c0-.4-.3-.8-.8-.8h-5.4M294.2 708.1h5.4c.4 0 .8.3.8.8v22.1c0 .4-.3.7-.8.8h-5.4"/><path class="st3" d="M300.4 703.6h2.3v32.7h-2.3z"/><path class="st1" d="M448.5 386.7h6.3c.2 0 .3.1.3.3v34c0 .2-.1.3-.3.3h-6.3c-.2 0-.3.2-.3.3v6.7c0 .2-.1.3-.3.3h-2.5c-.2 0-.3-.1-.3-.3v-6.7c0-.2-.1-.3-.3-.3h-24c-.2 0-.3-.1-.3-.3v-34c0-.2.1-.3.3-.3h24c.2 0 .3-.1.3-.3v-6.7c0-.2.1-.3.3-.3h2.5c.2 0 .3.1.3.3v6.7c0 .2.1.3.3.3z"/><path class="st2" d="M455.1 404h5.4c.4 0 .8-.1.8-.5v-16.1c0-.4-.3-.8-.8-.8h-5.4M455.1 386.7h5.4c.4 0 .8.3.8.8v22.1c0 .4-.3.7-.7.8h-5.4"/><path class="st3" d="M461.3 382.2h2.3v32.7h-2.3z"/><path class="st1" d="M448.5 467.1h6.3c.2 0 .3.1.3.3v34c0 .2-.1.3-.3.3h-6.3c-.2 0-.3.1-.3.3v6.7c0 .2-.1.3-.3.3h-2.5c-.2 0-.3-.1-.3-.3v-6.7c0-.2-.1-.3-.3-.3h-24c-.2 0-.3-.1-.3-.3v-34c0-.2.1-.3.3-.3h24c.2 0 .3-.1.3-.3v-6.7c0-.2.1-.3.3-.3h2.5c.2 0 .3.1.3.3v6.7c0 .2.1.3.3.3z"/><path class="st2" d="M455.1 484.4h5.4c.4 0 .8-.1.8-.5v-16.1c0-.4-.3-.7-.7-.8h-5.4M455.1 467.1h5.4c.4 0 .7.3.8.7v22.1c0 .4-.3.8-.8.8h-5.4"/><path class="st3" d="M461.3 462.6h2.3v32.7h-2.3z"/><path class="st1" d="M448.5 547.5h6.3c.2 0 .3.1.3.3v34c0 .2-.1.3-.3.3h-6.3c-.2 0-.3.2-.3.3v6.7c0 .2-.1.3-.3.3h-2.5c-.2 0-.3-.1-.3-.3v-6.7c0-.2-.1-.3-.3-.3h-24c-.2 0-.3-.1-.3-.3v-34c0-.2.1-.3.3-.3h24c.2 0 .3-.1.3-.3v-6.7c0-.2.1-.3.3-.3h2.5c.2 0 .3.1.3.3v6.7c0 .2.1.3.3.3z"/><path class="st2" d="M455.1 564.8h5.4c.4 0 .8-.1.8-.5v-16.1c0-.4-.3-.8-.8-.8h-5.4M455.1 547.5h5.4c.4 0 .8.3.8.8v22.1c0 .4-.3.7-.7.7h-5.4"/><path class="st3" d="M461.3 543h2.3v32.7h-2.3z"/><path class="st1" d="M448.5 627.8h6.3c.2 0 .3.1.3.3v34c0 .2-.1.3-.3.3h-6.3c-.2 0-.3.1-.3.3v6.7c0 .2-.1.3-.3.3h-2.5c-.2 0-.3-.1-.3-.3v-6.7c0-.2-.1-.3-.3-.3h-24c-.2 0-.3-.1-.3-.3v-34c0-.2.1-.3.3-.3h24c.2 0 .3-.1.3-.3v-6.7c0-.2.1-.3.3-.3h2.5c.2 0 .3.1.3.3v6.7c0 .1.1.3.3.3z"/><path class="st2" d="M455.1 645.1h5.4c.4 0 .8-.1.8-.5v-16.1c0-.4-.3-.7-.7-.8h-5.4M455.1 627.8h5.4c.4 0 .7.3.8.7v22.1c0 .4-.3.8-.8.8h-5.4"/><path class="st3" d="M461.3 623.3h2.3v32.7h-2.3z"/><path class="st1" d="M448.5 145.6h6.3c.2 0 .3.1.3.3v34c0 .2-.1.3-.3.3h-6.3c-.2 0-.3.1-.3.3v6.7c0 .2-.1.3-.3.3h-2.5c-.2 0-.3-.1-.3-.3v-6.7c0-.2-.1-.3-.3-.3h-24c-.2 0-.3-.1-.3-.3v-34c0-.2.1-.3.3-.3h24c.2 0 .3-.1.3-.3v-6.7c0-.2.1-.3.3-.3h2.5c.2 0 .3.1.3.3v6.7c0 .2.1.3.3.3z"/><path class="st2" d="M455.1 162.9h5.4c.4 0 .8-.1.8-.4v-16.1c0-.4-.3-.7-.7-.7h-5.4M455.1 145.6h5.4c.4 0 .7.3.7.7v22.1c0 .4-.3.8-.8.8h-5.4"/><path class="st3" d="M461.3 141.1h2.3v32.7h-2.3z"/><path class="st1" d="M448.5 226h6.3c.2 0 .3.1.3.3v34c0 .2-.1.3-.3.3h-6.3c-.2 0-.3.2-.3.3v6.7c0 .2-.1.3-.3.3h-2.5c-.2 0-.3-.1-.3-.3v-6.7c0-.2-.1-.3-.3-.3h-24c-.2 0-.3-.1-.3-.3v-34c0-.2.1-.3.3-.3h24c.2 0 .3-.1.3-.3v-6.7c0-.2.1-.3.3-.3h2.5c.2 0 .3.1.3.3v6.7c0 .2.1.3.3.3z"/><path class="st2" d="M455.1 243.3h5.4c.4 0 .8-.1.8-.5v-16.1c0-.4-.3-.8-.8-.8h-5.4M455.1 226h5.4c.4 0 .8.3.8.8v22.1c0 .4-.3.7-.7.8h-5.4"/><path class="st3" d="M461.3 221.5h2.3v32.7h-2.3z"/><path class="st1" d="M448.5 306.3h6.3c.2 0 .3.1.3.3v34c0 .2-.1.3-.3.3h-6.3c-.2 0-.3.1-.3.3v6.7c0 .2-.1.3-.3.3h-2.5c-.2 0-.3-.1-.3-.3v-6.7c0-.2-.1-.3-.3-.3h-24c-.2 0-.3-.1-.3-.3v-34c0-.2.1-.3.3-.3h24c.2 0 .3-.1.3-.3v-6.8c0-.2.1-.3.3-.3h2.5c.2 0 .3.1.3.3v6.7c0 .3.1.4.3.4z"/><path class="st2" d="M455.1 323.6h5.4c.4 0 .8-.1.8-.5v-16.1c0-.4-.3-.7-.7-.7h-5.4M455.1 306.3h5.4c.4 0 .7.3.7.7v22.1c0 .4-.3.8-.8.8h-5.4"/><path class="st3" d="M461.3 301.8h2.3v32.7h-2.3z"/><path class="st1" d="M448.5 708.2h6.3c.2 0 .3.1.3.3v34c0 .2-.1.3-.3.3h-6.3c-.2 0-.3.2-.3.3v6.7c0 .2-.1.3-.3.3h-2.5c-.2 0-.3-.1-.3-.3v-6.7c0-.2-.1-.3-.3-.3h-24c-.2 0-.3-.1-.3-.3v-34c0-.2.1-.3.3-.3h24c.2 0 .3-.1.3-.3v-6.7c0-.2.1-.3.3-.3h2.5c.2 0 .3.1.3.3v6.7c0 .1.1.3.3.3z"/><path class="st2" d="M455.1 725.5h5.4c.4 0 .8-.1.8-.5v-16.1c0-.4-.3-.8-.8-.8h-5.4M455.1 708.2h5.4c.4 0 .8.3.8.8v22c0 .4-.3.7-.7.7h-5.4"/><path class="st3" d="M461.3 703.7h2.3v32.7h-2.3z"/><path class="st1" d="M528.8 386.7h6.3c.2 0 .3.1.3.3v34c0 .2-.1.3-.3.3h-6.3c-.2 0-.3.1-.3.3v6.7c0 .2-.1.3-.3.3h-2.5c-.2 0-.3-.1-.3-.3v-6.7c0-.2-.1-.3-.3-.3h-24c-.2 0-.3-.1-.3-.3v-34c0-.2.1-.3.3-.3h24c.2 0 .3-.1.3-.3v-6.7c0-.2.1-.3.3-.3h2.5c.2 0 .3.1.3.3v6.7c0 .2.1.3.3.3z"/><path class="st2" d="M535.4 404h5.4c.4 0 .8-.1.8-.5v-16.1c0-.4-.3-.7-.7-.8h-5.4M535.4 386.7h5.4c.4 0 .7.3.8.7v22.1c0 .4-.3.8-.8.8h-5.4"/><path class="st3" d="M541.6 382.2h2.3v32.7h-2.3z"/><path class="st1" d="M528.8 467.1h6.3c.2 0 .3.1.3.3v34c0 .2-.1.3-.3.3h-6.3c-.2 0-.3.2-.3.3v6.7c0 .2-.1.3-.3.3h-2.5c-.2 0-.3-.1-.3-.3v-6.7c0-.2-.1-.3-.3-.3h-24c-.2 0-.3-.1-.3-.3v-34c0-.2.1-.3.3-.3h24c.2 0 .3-.1.3-.3v-6.7c0-.2.1-.3.3-.3h2.5c.2 0 .3.1.3.3v6.7c0 .2.1.3.3.3z"/><path class="st2" d="M535.4 484.4h5.4c.4 0 .8-.1.8-.5v-16.1c0-.4-.3-.8-.8-.8h-5.4M535.4 467.1h5.4c.4 0 .8.3.8.8v22.1c0 .4-.3.8-.8.8h-5.4"/><path class="st3" d="M541.6 462.6h2.3v32.7h-2.3z"/><path class="st1" d="M528.8 547.5h6.3c.2 0 .3.1.3.3v34c0 .2-.1.3-.3.3h-6.3c-.2 0-.3.2-.3.3v6.7c0 .2-.1.3-.3.3h-2.5c-.2 0-.3-.1-.3-.3v-6.7c0-.2-.1-.3-.3-.3h-24c-.2 0-.3-.1-.3-.3v-34c0-.2.1-.3.3-.3h24c.2 0 .3-.1.3-.3v-6.7c0-.2.1-.3.3-.3h2.5c.2 0 .3.1.3.3v6.7c0 .2.1.3.3.3z"/><path class="st2" d="M535.4 564.8h5.4c.4 0 .8-.1.8-.5v-16.1c0-.4-.3-.7-.7-.8h-5.4M535.4 547.5h5.4c.4 0 .7.3.8.7v22.1c0 .4-.3.7-.7.8h-5.4"/><path class="st3" d="M541.6 543h2.3v32.7h-2.3z"/><path class="st1" d="M528.8 627.8h6.3c.2 0 .3.1.3.3v34c0 .2-.1.3-.3.3h-6.3c-.2 0-.3.2-.3.3v6.7c0 .2-.1.3-.3.3h-2.5c-.2 0-.3-.1-.3-.3v-6.7c0-.2-.1-.3-.3-.3h-24c-.2 0-.3-.1-.3-.3v-34c0-.2.1-.3.3-.3h24c.2 0 .3-.1.3-.3v-6.7c0-.2.1-.3.3-.3h2.5c.2 0 .3.1.3.3v6.7c0 .1.1.3.3.3z"/><path class="st2" d="M535.4 645.1h5.4c.4 0 .8-.1.8-.5v-16.1c0-.4-.3-.8-.8-.8h-5.4M535.4 627.8h5.4c.4 0 .8.3.8.8v22.1c0 .4-.3.8-.8.8h-5.4"/><path class="st3" d="M541.6 623.2h2.3v32.7h-2.3z"/><path class="st1" d="M528.8 145.6h6.3c.2 0 .3.1.3.3v34c0 .2-.1.3-.3.3h-6.3c-.2 0-.3.2-.3.3v6.7c0 .2-.1.3-.3.3h-2.5c-.2 0-.3-.1-.3-.3v-6.7c0-.2-.1-.3-.3-.3h-24c-.2 0-.3-.1-.3-.3v-34c0-.2.1-.3.3-.3h24c.2 0 .3-.1.3-.3v-6.7c0-.2.1-.3.3-.3h2.5c.2 0 .3.1.3.3v6.7c0 .2.1.3.3.3z"/><path class="st2" d="M535.4 162.9h5.4c.4 0 .8-.1.8-.5v-16.1c0-.4-.3-.8-.8-.8h-5.4M535.4 145.6h5.4c.4 0 .8.3.8.8v22.1c0 .4-.3.7-.7.7h-5.4"/><path class="st3" d="M541.6 141.1h2.3v32.7h-2.3z"/><path class="st1" d="M528.8 226h6.3c.2 0 .3.1.3.3v34c0 .2-.1.3-.3.3h-6.3c-.2 0-.3.1-.3.3v6.7c0 .2-.1.3-.3.3h-2.5c-.2 0-.3-.1-.3-.3v-6.7c0-.2-.1-.3-.3-.3h-24c-.2 0-.3-.1-.3-.3v-34c0-.2.1-.3.3-.3h24c.2 0 .3-.1.3-.3v-6.7c0-.2.1-.3.3-.3h2.5c.2 0 .3.1.3.3v6.7c0 .2.1.3.3.3z"/><path class="st2" d="M535.4 243.3h5.4c.4 0 .8-.1.8-.5v-16.1c0-.4-.3-.7-.7-.8h-5.4M535.4 226h5.4c.4 0 .7.3.8.7v22.1c0 .4-.3.8-.8.8h-5.4"/><path class="st3" d="M541.6 221.5h2.3v32.7h-2.3z"/><path class="st1" d="M528.8 306.3h6.3c.2 0 .3.1.3.3v34c0 .2-.1.3-.3.3h-6.3c-.2 0-.3.2-.3.3v6.7c0 .2-.1.3-.3.3h-2.5c-.2 0-.3-.1-.3-.3v-6.7c0-.2-.1-.3-.3-.3h-24c-.2 0-.3-.1-.3-.3v-34c0-.2.1-.3.3-.3h24c.2 0 .3-.1.3-.3v-6.7c0-.2.1-.3.3-.3h2.5c.2 0 .3.1.3.3v6.8c0 .1.1.2.3.2z"/><path class="st2" d="M535.4 323.6h5.4c.4 0 .8-.1.8-.5v-16.1c0-.4-.3-.8-.8-.8h-5.4M535.4 306.3h5.4c.4 0 .8.3.8.8v22.1c0 .4-.3.7-.7.7h-5.4"/><path class="st3" d="M541.6 301.8h2.3v32.7h-2.3z"/><path class="st1" d="M528.8 708.2h6.3c.2 0 .3.1.3.3v34c0 .2-.1.3-.3.3h-6.3c-.2 0-.3.2-.3.3v6.7c0 .2-.1.3-.3.3h-2.5c-.2 0-.3-.1-.3-.3v-6.8c0-.2-.1-.3-.3-.3h-24c-.2 0-.3-.1-.3-.3v-34c0-.2.1-.3.3-.3h24c.2 0 .3-.1.3-.3v-6.7c0-.2.1-.3.3-.3h2.5c.2 0 .3.1.3.3v6.7c0 .2.1.3.3.4z"/><path class="st2" d="M535.4 725.5h5.4c.4 0 .8-.1.8-.5v-16.1c0-.4-.3-.7-.7-.8h-5.4M535.4 708.2h5.4c.4 0 .7.3.8.7v22.1c0 .4-.3.7-.7.8h-5.4"/><path class="st3" d="M541.6 703.7h2.3v32.7h-2.3z"/><path class="st1" d="M609.2 386.7h6.3c.2 0 .3.1.3.3v34c0 .2-.1.3-.3.3h-6.3c-.2 0-.3.1-.3.3v6.7c0 .2-.1.3-.3.3h-2.6c-.2 0-.3-.1-.3-.3v-6.7c0-.2-.1-.3-.3-.3h-24c-.2 0-.3-.1-.3-.3v-34c0-.2.1-.3.3-.3h24c.2 0 .3-.1.3-.3v-6.7c0-.2.1-.3.3-.3h2.5c.2 0 .3.1.3.3v6.7c0 .2.2.3.4.3z"/><path class="st2" d="M615.8 404h5.4c.4 0 .8-.1.8-.5v-16.1c0-.4-.3-.7-.7-.7h-5.4M615.8 386.7h5.4c.4 0 .7.3.7.7v22.1c0 .4-.3.8-.8.8h-5.4"/><path class="st3" d="M621.9 382.1h2.3v32.7h-2.3z"/><path class="st1" d="M609.2 467.1h6.3c.2 0 .3.1.3.3v34c0 .2-.1.3-.3.3h-6.3c-.2 0-.3.2-.3.3v6.7c0 .2-.1.3-.3.3h-2.6c-.2 0-.3-.1-.3-.3v-6.7c0-.2-.1-.3-.3-.3h-24c-.2 0-.3-.1-.3-.3v-34c0-.2.1-.3.3-.3h24c.2 0 .3-.1.3-.3v-6.8c0-.2.1-.3.3-.3h2.5c.2 0 .3.1.3.3v6.7c0 .2.2.3.4.4z"/><path class="st2" d="M615.8 484.4h5.4c.4 0 .8-.1.8-.5v-16.1c0-.4-.3-.8-.8-.8h-5.4M615.8 467.1h5.4c.4 0 .8.3.8.8v22.1c0 .4-.3.7-.7.8h-5.4"/><path class="st3" d="M621.9 462.5h2.3v32.7h-2.3z"/><path class="st1" d="M609.2 547.5h6.3c.2 0 .3.1.3.3v34c0 .2-.1.3-.3.3h-6.3c-.2 0-.3.1-.3.3v6.7c0 .2-.1.3-.3.3h-2.6c-.2 0-.3-.1-.3-.3v-6.7c0-.2-.1-.3-.3-.3h-24c-.2 0-.3-.1-.3-.3v-34c0-.2.1-.3.3-.3h24c.2 0 .3-.1.3-.3v-6.8c0-.2.1-.3.3-.3h2.5c.2 0 .3.1.3.3v6.7c0 .2.2.4.4.4z"/><path class="st2" d="M615.8 564.8h5.4c.4 0 .8-.1.8-.5v-16.1c0-.4-.3-.7-.7-.7h-5.4M615.8 547.5h5.4c.4 0 .7.3.7.7v22.1c0 .4-.3.8-.8.8h-5.4"/><path class="st3" d="M621.9 543h2.3v32.7h-2.3z"/><path class="st1" d="M609.2 627.7h6.3c.2 0 .3.1.3.3v34c0 .2-.1.3-.3.3h-6.3c-.2 0-.3.2-.3.3v6.7c0 .2-.1.3-.3.3h-2.6c-.2 0-.3-.1-.3-.3v-6.7c0-.2-.1-.3-.3-.3h-24c-.2 0-.3-.1-.3-.3v-34c0-.2.1-.3.3-.3h24c.2 0 .3-.1.3-.3v-6.7c0-.2.1-.3.3-.3h2.5c.2 0 .3.1.3.3v6.7c0 .2.2.3.4.3z"/><path class="st2" d="M615.8 645.1h5.4c.4 0 .8-.1.8-.5v-16.1c0-.4-.3-.8-.8-.8h-5.4M615.8 627.7h5.4c.4 0 .8.3.8.8v22.1c0 .4-.3.7-.7.8h-5.4"/><path class="st3" d="M621.9 623.2h2.3v32.7h-2.3z"/><path class="st1" d="M609.2 145.6h6.3c.2 0 .3.1.3.3v34c0 .2-.1.3-.3.3h-6.3c-.2 0-.3.2-.3.3v6.7c0 .2-.1.3-.3.3h-2.6c-.2 0-.3-.1-.3-.3v-6.7c0-.2-.1-.3-.3-.3h-24c-.2 0-.3-.1-.3-.3v-34c0-.2.1-.3.3-.3h24c.2 0 .3-.1.3-.3v-6.7c0-.2.1-.3.3-.3h2.5c.2 0 .3.1.3.3v6.7c0 .1.2.3.4.3z"/><path class="st2" d="M615.8 162.9h5.4c.4 0 .8-.1.8-.5v-16.1c0-.4-.3-.7-.7-.8h-5.4M615.8 145.6h5.4c.4 0 .7.3.8.7v22.1c0 .4-.3.7-.7.8h-5.4"/><path class="st3" d="M621.9 141.1h2.3v32.7h-2.3z"/><path class="st1" d="M609.2 226h6.3c.2 0 .3.1.3.3v34c0 .2-.1.3-.3.3h-6.3c-.2 0-.3.1-.3.3v6.7c0 .2-.1.3-.3.3h-2.6c-.2 0-.3-.1-.3-.3v-6.7c0-.2-.1-.3-.3-.3h-24c-.2 0-.3-.1-.3-.3v-34c0-.2.1-.3.3-.3h24c.2 0 .3-.1.3-.3v-6.7c0-.2.1-.3.3-.3h2.5c.2 0 .3.1.3.3v6.7c0 .2.2.3.4.3z"/><path class="st2" d="M615.8 243.3h5.4c.4 0 .8-.1.8-.4v-16.1c0-.4-.3-.8-.8-.8h-5.4M615.8 226h5.4c.4 0 .8.3.8.8v22.1c0 .4-.3.8-.8.8h-5.4"/><path class="st3" d="M621.9 221.4h2.3v32.7h-2.3z"/><path class="st1" d="M609.2 306.2h6.3c.2 0 .3.1.3.3v34c0 .2-.1.3-.3.3h-6.3c-.2 0-.3.2-.3.3v6.7c0 .2-.1.3-.3.3h-2.6c-.2 0-.3-.1-.3-.3v-6.7c0-.2-.1-.3-.3-.3h-24c-.2 0-.3-.1-.3-.3v-34c0-.2.1-.3.3-.3h24c.2 0 .3-.1.3-.3v-6.7c0-.2.1-.3.3-.3h2.5c.2 0 .3.1.3.3v6.8c0 .2.2.3.4.2z"/><path class="st2" d="M615.8 323.6h5.4c.4 0 .8-.1.8-.5v-16.1c0-.4-.3-.8-.8-.8h-5.4M615.8 306.2h5.4c.4 0 .8.3.8.8v22.1c0 .4-.3.7-.7.8h-5.4"/><path class="st3" d="M621.9 301.7h2.3v32.7h-2.3z"/><path class="st1" d="M609.2 708.2h6.3c.2 0 .3.1.3.3v34c0 .2-.1.3-.3.3h-6.3c-.2 0-.3.1-.3.3v6.7c0 .2-.1.3-.3.3h-2.6c-.2 0-.3-.1-.3-.3v-6.8c0-.2-.1-.3-.3-.3h-24c-.2 0-.3-.1-.3-.3v-34c0-.2.1-.3.3-.3h24c.2 0 .3-.1.3-.3v-6.7c0-.2.1-.3.3-.3h2.5c.2 0 .3.1.3.3v6.7c0 .2.2.3.4.4z"/><path class="st2" d="M615.8 725.5h5.4c.4 0 .8-.1.8-.5v-16.1c0-.4-.3-.7-.7-.8h-5.4M615.8 708.2h5.4c.4 0 .7.3.8.7v22.1c0 .4-.3.8-.8.8h-5.4"/><path class="st3" d="M621.9 703.6h2.3v32.7h-2.3z"/><path class="st1" d="M689.5 386.6h6.3c.2 0 .3.1.3.3v34c0 .2-.1.3-.3.3h-6.3c-.2 0-.3.2-.3.3v6.7c0 .2-.1.3-.3.3h-2.5c-.2 0-.3-.1-.3-.3v-6.7c0-.2-.1-.3-.3-.3h-24c-.2 0-.3-.1-.3-.3v-34c0-.2.1-.3.3-.3h24c.2 0 .3-.1.3-.3v-6.7c0-.2.1-.3.3-.3h2.5c.2 0 .3.1.3.3v6.7c0 .2.1.4.3.3z"/><path class="st2" d="M696.1 404h5.4c.4 0 .8-.1.8-.5v-16.1c0-.4-.3-.8-.8-.8h-5.4M696.1 386.6h5.4c.4 0 .8.3.8.8v22.1c0 .4-.3.7-.7.7h-5.4"/><path class="st3" d="M702.3 382.1h2.3v32.7h-2.3z"/><path class="st1" d="M689.5 467.1h6.3c.2 0 .3.1.3.3v34c0 .2-.1.3-.3.3h-6.3c-.2 0-.3.1-.3.3v6.7c0 .2-.1.3-.3.3h-2.5c-.2 0-.3-.1-.3-.3v-6.7c0-.2-.1-.3-.3-.3h-24c-.2 0-.3-.1-.3-.3v-34c0-.2.1-.3.3-.3h24c.2 0 .3-.1.3-.3v-6.8c0-.2.1-.3.3-.3h2.5c.2 0 .3.1.3.3v6.7c0 .2.1.3.3.4z"/><path class="st2" d="M696.1 484.4h5.4c.4 0 .8-.1.8-.5v-16.1c0-.4-.3-.7-.7-.8h-5.4M696.1 467.1h5.4c.4 0 .7.3.8.7v22.1c0 .4-.3.8-.8.8h-5.4"/><path class="st3" d="M702.3 462.5h2.3v32.7h-2.3z"/><path class="st1" d="M689.5 547.5h6.3c.2 0 .3.1.3.3v34c0 .2-.1.3-.3.3h-6.3c-.2 0-.3.2-.3.3v6.7c0 .2-.1.3-.3.3h-2.5c-.2 0-.3-.1-.3-.3v-6.7c0-.2-.1-.3-.3-.3h-24c-.2 0-.3-.1-.3-.3v-34c0-.2.1-.3.3-.3h24c.2 0 .3-.1.3-.3v-6.7c0-.2.1-.3.3-.3h2.5c.2 0 .3.1.3.3v6.7c0 .1.1.3.3.3z"/><path class="st2" d="M696.1 564.8h5.4c.4 0 .8-.1.8-.5v-16.1c0-.4-.3-.8-.8-.8h-5.4M696.1 547.5h5.4c.4 0 .8.3.8.8v22.1c0 .4-.3.7-.7.7h-5.4"/><path class="st3" d="M702.3 542.9h2.3v32.7h-2.3z"/><path class="st1" d="M689.5 627.7h6.3c.2 0 .3.1.3.3v34c0 .2-.1.3-.3.3h-6.3c-.2 0-.3.1-.3.3v6.7c0 .2-.1.3-.3.3h-2.5c-.2 0-.3-.1-.3-.3v-6.8c0-.2-.1-.3-.3-.3h-24c-.2 0-.3-.1-.3-.3v-34c0-.2.1-.3.3-.3h24c.2 0 .3-.1.3-.3v-6.7c0-.2.1-.3.3-.3h2.5c.2 0 .3.1.3.3v6.7c0 .3.1.4.3.4z"/><path class="st2" d="M696.1 645.1h5.4c.4 0 .8-.1.8-.5v-16.1c0-.4-.3-.7-.7-.8h-5.4M696.1 627.7h5.4c.4 0 .7.3.8.7v22.1c0 .4-.3.8-.8.8h-5.4"/><path class="st3" d="M702.3 623.2h2.3v32.7h-2.3z"/><path class="st1" d="M689.5 145.6h6.3c.2 0 .3.1.3.3v34c0 .2-.1.3-.3.3h-6.3c-.2 0-.3.1-.3.3v6.7c0 .2-.1.3-.3.3h-2.5c-.2 0-.3-.1-.3-.3v-6.7c0-.2-.1-.3-.3-.3h-24c-.2 0-.3-.1-.3-.3v-34c0-.2.1-.3.3-.3h24c.2 0 .3-.1.3-.3v-6.8c0-.2.1-.3.3-.3h2.5c.2 0 .3.1.3.3v6.7c0 .2.1.4.3.4z"/><path class="st2" d="M696.1 162.9h5.4c.4 0 .8-.1.8-.4v-16.1c0-.4-.3-.7-.7-.7h-5.4M696.1 145.6h5.4c.4 0 .7.3.7.7v22.1c0 .4-.3.8-.8.8h-5.4"/><path class="st3" d="M702.3 141h2.3v32.7h-2.3z"/><path class="st1" d="M689.5 226h6.3c.2 0 .3.1.3.3v34c0 .2-.1.3-.3.3h-6.3c-.2 0-.3.2-.3.3v6.7c0 .2-.1.3-.3.3h-2.5c-.2 0-.3-.1-.3-.3v-6.7c0-.2-.1-.3-.3-.3h-24c-.2 0-.3-.1-.3-.3v-34c0-.2.1-.3.3-.3h24c.2 0 .3-.1.3-.3v-6.7c0-.2.1-.3.3-.3h2.5c.2 0 .3.1.3.3v6.7c0 .2.1.3.3.3z"/><path class="st2" d="M696.1 243.3h5.4c.4 0 .8-.1.8-.5v-16.1c0-.4-.3-.8-.8-.8h-5.4M696.1 226h5.4c.4 0 .8.3.8.8v22.1c0 .4-.3.7-.7.8h-5.4"/><path class="st3" d="M702.3 221.4h2.3v32.7h-2.3z"/><path class="st1" d="M689.5 306.2h6.3c.2 0 .3.1.3.3v34c0 .2-.1.3-.3.3h-6.3c-.2 0-.3.1-.3.3v6.7c0 .2-.1.3-.3.3h-2.5c-.2 0-.3-.1-.3-.3v-6.7c0-.2-.1-.3-.3-.3h-24c-.2 0-.3-.1-.3-.3v-34c0-.2.1-.3.3-.3h24c.2 0 .3-.1.3-.3v-6.8c0-.2.1-.3.3-.3h2.5c.2 0 .3.1.3.3v6.8c0 .3.1.4.3.3z"/><path class="st2" d="M696.1 323.6h5.4c.4 0 .8-.1.8-.5v-16.1c0-.4-.3-.7-.7-.8h-5.4M696.1 306.2h5.4c.4 0 .7.3.8.7v22.1c0 .4-.3.8-.8.8h-5.4"/><path class="st3" d="M702.3 301.7h2.3v32.7h-2.3z"/><path class="st1" d="M689.5 708.1h6.3c.2 0 .3.1.3.3v34c0 .2-.1.3-.3.3h-6.3c-.2 0-.3.2-.3.3v6.7c0 .2-.1.3-.3.3h-2.5c-.2 0-.3-.1-.3-.3v-6.7c0-.2-.1-.3-.3-.3h-24c-.2 0-.3-.1-.3-.3v-34c0-.2.1-.3.3-.3h24c.2 0 .3-.1.3-.3v-6.7c0-.2.1-.3.3-.3h2.5c.2 0 .3.1.3.3v6.7c0 .2.1.3.3.3z"/><path class="st2" d="M696.1 725.5h5.4c.4 0 .8-.1.8-.5v-16.1c0-.4-.3-.8-.8-.8h-5.4M696.1 708.1h5.4c.4 0 .8.3.8.8v22.1c0 .4-.3.7-.7.7h-5.4"/><path class="st3" d="M702.3 703.6h2.3v32.7h-2.3z"/><path class="st1" d="M769.8 386.6h6.3c.2 0 .3.1.3.3v34c0 .2-.1.3-.3.3h-6.3c-.2 0-.3.2-.3.3v6.7c0 .2-.1.3-.3.3h-2.5c-.2 0-.3-.1-.3-.3v-6.7c0-.2-.1-.3-.3-.3h-24c-.2 0-.3-.1-.3-.3v-34c0-.2.1-.3.3-.3h24c.2 0 .3-.1.3-.3v-6.7c0-.2.1-.3.3-.3h2.5c.2 0 .3.1.3.3v6.7c0 .2.2.3.3.3z"/><path class="st2" d="M776.4 404h5.4c.4 0 .8-.1.8-.5v-16.1c0-.4-.3-.7-.7-.8h-5.4M776.4 386.6h5.4c.4 0 .7.3.8.7v22.1c0 .4-.3.7-.7.8h-5.4"/><path class="st3" d="M782.6 382.1h2.3v32.7h-2.3z"/><path class="st1" d="M769.8 467h6.3c.2 0 .3.1.3.3v34c0 .2-.1.3-.3.3h-6.3c-.2 0-.3.2-.3.3v6.7c0 .2-.1.3-.3.3h-2.5c-.2 0-.3-.1-.3-.3v-6.7c0-.2-.1-.3-.3-.3h-24c-.2 0-.3-.1-.3-.3v-34c0-.2.1-.3.3-.3h24c.2 0 .3-.1.3-.3v-6.7c0-.2.1-.3.3-.3h2.5c.2 0 .3.1.3.3v6.7c0 .2.2.3.3.3z"/><path class="st2" d="M776.4 484.4h5.4c.4 0 .8-.1.8-.5v-16.1c0-.4-.3-.8-.8-.8h-5.4M776.4 467h5.4c.4 0 .8.3.8.8v22.1c0 .4-.3.8-.8.8h-5.4"/><path class="st3" d="M782.6 462.5h2.3v32.7h-2.3z"/><path class="st1" d="M769.8 547.5h6.3c.2 0 .3.1.3.3v34c0 .2-.1.3-.3.3h-6.3c-.2 0-.3.2-.3.3v6.7c0 .2-.1.3-.3.3h-2.5c-.2 0-.3-.1-.3-.3v-6.7c0-.2-.1-.3-.3-.3h-24c-.2 0-.3-.1-.3-.3v-34c0-.2.1-.3.3-.3h24c.2 0 .3-.1.3-.3v-6.7c0-.2.1-.3.3-.3h2.5c.2 0 .3.1.3.3v6.7c0 .1.2.3.3.3z"/><path class="st2" d="M776.4 564.8h5.4c.4 0 .8-.1.8-.5v-16.1c0-.4-.3-.7-.7-.8h-5.4M776.4 547.5h5.4c.4 0 .7.3.8.7v22.1c0 .4-.3.7-.7.8h-5.4"/><path class="st3" d="M782.6 542.9h2.3v32.7h-2.3z"/><path class="st1" d="M769.8 627.7h6.3c.2 0 .3.1.3.3v34c0 .2-.1.3-.3.3h-6.3c-.2 0-.3.2-.3.3v6.7c0 .2-.1.3-.3.3h-2.5c-.2 0-.3-.1-.3-.3v-6.8c0-.2-.1-.3-.3-.3h-24c-.2 0-.3-.1-.3-.3v-34c0-.2.1-.3.3-.3h24c.2 0 .3-.1.3-.3v-6.7c0-.2.1-.3.3-.3h2.5c.2 0 .3.1.3.3v6.7c0 .3.2.4.3.4z"/><path class="st2" d="M776.4 645h5.4c.4 0 .8-.1.8-.5v-16.1c0-.4-.3-.8-.8-.8h-5.4M776.4 627.7h5.4c.4 0 .8.3.8.8v22.1c0 .4-.3.8-.8.8h-5.4"/><path class="st3" d="M782.6 623.2h2.3v32.7h-2.3z"/><path class="st1" d="M769.8 145.6h6.3c.2 0 .3.1.3.3v34c0 .2-.1.3-.3.3h-6.3c-.2 0-.3.2-.3.3v6.7c0 .2-.1.3-.3.3h-2.5c-.2 0-.3-.1-.3-.3v-6.7c0-.2-.1-.3-.3-.3h-24c-.2 0-.3-.1-.3-.3v-34c0-.2.1-.3.3-.3h24c.2 0 .3-.1.3-.3v-6.7c0-.2.1-.3.3-.3h2.5c.2 0 .3.1.3.3v6.7c0 .1.2.2.3.3z"/><path class="st2" d="M776.4 162.9h5.4c.4 0 .8-.1.8-.5v-16.1c0-.4-.3-.8-.8-.8h-5.4M776.4 145.6h5.4c.4 0 .8.3.8.8v22.1c0 .4-.3.7-.7.7h-5.4"/><path class="st3" d="M782.6 141h2.3v32.7h-2.3z"/><path class="st1" d="M769.8 226h6.3c.2 0 .3.1.3.3v34c0 .2-.1.3-.3.3h-6.3c-.2 0-.3.2-.3.3v6.7c0 .2-.1.3-.3.3h-2.5c-.2 0-.3-.1-.3-.3v-6.7c0-.2-.1-.3-.3-.3h-24c-.2 0-.3-.1-.3-.3v-34c0-.2.1-.3.3-.3h24c.2 0 .3-.1.3-.3v-6.7c0-.2.1-.3.3-.3h2.5c.2 0 .3.1.3.3v6.7c0 .2.1.3.3.3z"/><path class="st2" d="M776.4 243.3h5.4c.4 0 .8-.1.8-.5v-16.1c0-.4-.3-.7-.7-.8h-5.4M776.4 226h5.4c.4 0 .7.3.8.7v22.1c0 .4-.3.8-.8.8h-5.4"/><path class="st3" d="M782.6 221.4h2.3v32.7h-2.3z"/><path class="st1" d="M769.8 306.2h6.3c.2 0 .3.1.3.3v34c0 .2-.1.3-.3.3h-6.3c-.2 0-.3.2-.3.3v6.7c0 .2-.1.3-.3.3h-2.5c-.2 0-.3-.1-.3-.3v-6.7c0-.2-.1-.3-.3-.3h-24c-.2 0-.3-.1-.3-.3v-34c0-.2.1-.3.3-.3h24c.2 0 .3-.1.3-.3v-6.7c0-.2.1-.3.3-.3h2.5c.2 0 .3.1.3.3v6.8c0 .2.2.3.3.2z"/><path class="st2" d="M776.4 323.6h5.4c.4 0 .8-.1.8-.5v-16.1c0-.4-.3-.8-.8-.8h-5.4M776.4 306.2h5.4c.4 0 .8.3.8.8v22.1c0 .4-.3.7-.7.7h-5.4"/><path class="st3" d="M782.6 301.7h2.3v32.7h-2.3z"/><path class="st1" d="M769.8 708.1h6.3c.2 0 .3.1.3.3v34c0 .2-.1.3-.3.3h-6.3c-.2 0-.3.2-.3.3v6.7c0 .2-.1.3-.3.3h-2.5c-.2 0-.3-.1-.3-.3v-6.7c0-.2-.1-.3-.3-.3h-24c-.2 0-.3-.1-.3-.3v-34c0-.2.1-.3.3-.3h24c.2 0 .3-.1.3-.3v-6.7c0-.2.1-.3.3-.3h2.5c.2 0 .3.1.3.3v6.7c0 .2.2.3.3.3z"/><path class="st2" d="M776.4 725.5h5.4c.4 0 .8-.1.8-.5v-16.1c0-.4-.3-.7-.7-.8h-5.4M776.4 708.1h5.4c.4 0 .7.3.8.7v22.2c0 .4-.3.7-.7.8h-5.4"/><path class="st3" d="M782.6 703.6h2.3v32.7h-2.3z"/><path class="st1" d="M368 386.6h6.3c.2 0 .3.1.3.3v34c0 .2-.1.3-.3.3h-6.3c-.2 0-.3.2-.3.3v6.7c0 .2-.1.3-.3.3h-2.5c-.2 0-.3-.1-.3-.3v-6.7c0-.2-.1-.3-.3-.3h-24c-.2 0-.3-.1-.3-.3v-34c0-.2.1-.3.3-.3h23.9c.2 0 .3-.1.3-.3v-6.7c0-.2.1-.3.3-.3h2.5c.2 0 .3.1.3.3v6.7c.1.1.2.3.4.3z"/><path class="st2" d="M374.6 403.9h5.4c.4 0 .8-.1.8-.5v-16.1c0-.4-.3-.7-.8-.8h-5.4M374.6 386.6h5.4c.4 0 .7.3.8.8v22.1c0 .4-.3.7-.8.8h-5.4"/><path class="st3" d="M380.8 382.1h2.3v32.7h-2.3z"/><path class="st1" d="M368 467h6.3c.2 0 .3.1.3.3v34c0 .2-.1.3-.3.3h-6.3c-.2 0-.3.2-.3.3v6.7c0 .2-.1.3-.3.3h-2.5c-.2 0-.3-.1-.3-.3v-6.7c0-.2-.1-.3-.3-.3h-24c-.2 0-.3-.1-.3-.3v-34c0-.2.1-.3.3-.3h23.9c.2 0 .3-.1.3-.3v-6.7c0-.2.1-.3.3-.3h2.5c.2 0 .3.1.3.3v6.7c.1.2.2.3.4.3z"/><path class="st2" d="M374.6 484.3h5.4c.4 0 .8-.1.8-.5v-16.1c0-.4-.3-.8-.8-.8h-5.4M374.6 467h5.4c.4 0 .8.3.8.8v22.1c0 .4-.3.8-.8.8h-5.4"/><path class="st3" d="M380.8 462.5h2.3v32.7h-2.3z"/><path class="st1" d="M368 547.4h6.3c.2 0 .3.1.3.3v34c0 .2-.1.3-.3.3h-6.3c-.2 0-.3.2-.3.3v6.7c0 .2-.1.3-.3.3h-2.5c-.2 0-.3-.1-.3-.3v-6.7c0-.2-.1-.3-.3-.3h-24c-.2 0-.3-.1-.3-.3v-34c0-.2.1-.3.3-.3h23.9c.2 0 .3-.1.3-.3v-6.7c0-.2.1-.3.3-.3h2.5c.2 0 .3.1.3.3v6.7c.1.1.2.3.4.3z"/><path class="st2" d="M374.6 564.7h5.4c.4 0 .8-.1.8-.5v-16.1c0-.4-.3-.7-.8-.8h-5.4M374.6 547.4h5.4c.4 0 .7.3.8.8v22.1c0 .4-.3.7-.8.8h-5.4"/><path class="st3" d="M380.8 542.9h2.3v32.7h-2.3z"/><path class="st1" d="M368 627.7h6.3c.2 0 .3.1.3.3v34c0 .2-.1.3-.3.3h-6.3c-.2 0-.3.2-.3.3v6.7c0 .2-.1.3-.3.3h-2.5c-.2 0-.3-.1-.3-.3v-6.7c0-.2-.1-.3-.3-.3h-24c-.2 0-.3-.1-.3-.3v-34c0-.2.1-.3.3-.3h23.9c.2 0 .3-.1.3-.3v-6.7c0-.2.1-.3.3-.3h2.5c.2 0 .3.1.3.3v6.7c.1.2.2.3.4.3z"/><path class="st2" d="M374.6 645h5.4c.4 0 .8-.1.8-.5v-16.1c0-.4-.3-.8-.8-.8h-5.4M374.6 627.7h5.4c.4 0 .8.3.8.8v22.1c0 .4-.3.8-.8.8h-5.4"/><path class="st3" d="M380.8 623.2h2.3v32.7h-2.3z"/><path class="st1" d="M368 145.5h6.3c.2 0 .3.1.3.3v34c0 .2-.1.3-.3.3h-6.3c-.2 0-.3.2-.3.3v6.7c0 .2-.1.3-.3.3h-2.5c-.2 0-.3-.1-.3-.3v-6.7c0-.2-.1-.3-.3-.3h-24c-.2 0-.3-.1-.3-.3v-34c0-.2.1-.3.3-.3h23.9c.2 0 .3-.1.3-.3v-6.7c0-.2.1-.3.3-.3h2.5c.2 0 .3.1.3.3v6.7c.1.2.2.3.4.3z"/><path class="st2" d="M374.6 162.8h5.4c.4 0 .8-.1.8-.5v-16.1c0-.4-.3-.8-.8-.8h-5.4M374.6 145.5h5.4c.4 0 .8.3.8.8v22.1c0 .4-.3.7-.8.8h-5.4"/><path class="st3" d="M380.8 141h2.3v32.7h-2.3z"/><path class="st1" d="M368 225.9h6.3c.2 0 .3.1.3.3v34c0 .2-.1.3-.3.3h-6.3c-.2 0-.3.2-.3.3v6.7c0 .2-.1.3-.3.3h-2.5c-.2 0-.3-.1-.3-.3v-6.7c0-.2-.1-.3-.3-.3h-24c-.2 0-.3-.1-.3-.3v-34c0-.2.1-.3.3-.3h23.9c.2 0 .3-.1.3-.3v-6.7c0-.2.1-.3.3-.3h2.5c.2 0 .3.1.3.3v6.7c.1.2.2.3.4.3z"/><path class="st2" d="M374.6 243.2h5.4c.4 0 .8-.1.8-.5v-16.1c0-.4-.3-.7-.8-.8h-5.4M374.6 225.9h5.4c.4 0 .7.3.8.8v22.1c0 .4-.3.7-.8.7h-5.4"/><path class="st3" d="M380.8 221.4h2.3v32.7h-2.3z"/><path class="st1" d="M368 306.2h6.3c.2 0 .3.1.3.3v34c0 .2-.1.3-.3.3h-6.3c-.2 0-.3.2-.3.3v6.7c0 .2-.1.3-.3.3h-2.5c-.2 0-.3-.1-.3-.3v-6.8c0-.2-.1-.3-.3-.3h-24c-.2 0-.3-.1-.3-.3v-34c0-.2.1-.3.3-.3h23.9c.2 0 .3-.1.3-.3v-6.7c0-.2.1-.3.3-.3h2.5c.2 0 .3.1.3.3v6.7c.1.2.2.3.4.4z"/><path class="st2" d="M374.6 323.5h5.4c.4 0 .8-.1.8-.5v-16.1c0-.4-.3-.8-.8-.8h-5.4M374.6 306.2h5.4c.4 0 .8.3.8.8v22c0 .4-.3.7-.8.8h-5.4"/><path class="st3" d="M380.8 301.7h2.3v32.7h-2.3z"/><path class="st1" d="M368 708.1h6.3c.2 0 .3.1.3.3v34c0 .2-.1.3-.3.3h-6.3c-.2 0-.3.2-.3.3v6.7c0 .2-.1.3-.3.3h-2.5c-.2 0-.3-.1-.3-.3v-6.7c0-.2-.1-.3-.3-.3h-24c-.2 0-.3-.1-.3-.3v-34c0-.2.1-.3.3-.3h23.9c.2 0 .3-.1.3-.3v-6.8c0-.2.1-.3.3-.3h2.5c.2 0 .3.1.3.3v6.7c.1.2.2.3.4.4z"/><path class="st2" d="M374.6 725.4h5.4c.4 0 .8-.1.8-.5v-16.1c0-.4-.3-.7-.8-.8h-5.4M374.6 708.1h5.4c.4 0 .7.3.8.8v22.1c0 .4-.3.7-.8.8h-5.4"/><path class="st3" d="M380.8 703.5h2.3v32.7h-2.3z"/><path class="st4" d="M0 0h1140v800h-1140z"/><path class="st5" d="M734 122.3v638h8.2v-638h-8.2zM653.6 122.3v638h8.2v-638h-8.2zM573.3 122.3v638h8.2v-638h-8.2zM493 122.3v638h8.2v-638h-8.2zM412.6 122.3v638h8.2v-638h-8.2zM332.3 122.3v638h8.2v-638h-8.2zM251.9 122.3v638h8.2v-638h-8.2zM171.6 122.3v638h8.2v-638h-8.2z"/></g></svg>
