<svg xmlns="http://www.w3.org/2000/svg" viewBox="0 0 1200.16 800.16"><defs><style>.cls-1{fill:none;}.cls-2{fill:#7c6e5d;}.cls-3,.cls-4{fill:#174994;}.cls-3{opacity:0.75;}.cls-4{opacity:0.7;}</style></defs><title>servos (2)</title><g id="Layer_2" data-name="Layer 2"><g id="electronics"><rect class="cls-1" x="200" y="-199.84" width="800" height="1200" transform="translate(1000.16 -199.84) rotate(90)"/></g><g id="servos"><path class="cls-2" d="M233.13,121.78V760.34H888.75V121.78ZM852.6,740.68a10,10,0,1,1-10-10A10,10,0,0,1,852.6,740.68Zm-84.24,0a9.95,9.95,0,1,1-10-10A10,10,0,0,1,768.36,740.68Zm-84.3,0a10,10,0,1,1-9.95-10A10,10,0,0,1,684.06,740.68Zm-84.31,0a9.95,9.95,0,1,1-9.94-10A10,10,0,0,1,599.75,740.68Zm-84.23,0a10,10,0,1,1-9.95-10A10,10,0,0,1,515.52,740.68Zm-84.31,0a9.95,9.95,0,1,1-9.94-10A10,10,0,0,1,431.21,740.68Zm-84.23,0a10,10,0,1,1-10-10A10,10,0,0,1,347,740.68Zm-84.31,0a9.95,9.95,0,1,1-9.94-10A10,10,0,0,1,262.67,740.68ZM852.6,655.11a10,10,0,1,1-10-10A10,10,0,0,1,852.6,655.11Zm-84.24,0a9.95,9.95,0,1,1-10-10A10,10,0,0,1,768.36,655.11Zm-84.3,0a10,10,0,1,1-9.95-10A10,10,0,0,1,684.06,655.11Zm-84.31,0a9.95,9.95,0,1,1-9.94-10A10,10,0,0,1,599.75,655.11Zm-84.23,0a10,10,0,1,1-9.95-10A10,10,0,0,1,515.52,655.11Zm-84.31,0a9.95,9.95,0,1,1-9.94-10A10,10,0,0,1,431.21,655.11Zm-84.23,0a10,10,0,1,1-10-10A10,10,0,0,1,347,655.11Zm-84.31,0a9.95,9.95,0,1,1-9.94-10A10,10,0,0,1,262.67,655.11Zm589.93-85.5a10,10,0,1,1-10-10A10,10,0,0,1,852.6,569.61Zm-84.24,0a9.95,9.95,0,1,1-10-10A10,10,0,0,1,768.36,569.61Zm-84.3,0a10,10,0,1,1-9.95-10A10,10,0,0,1,684.06,569.61Zm-84.31,0a9.95,9.95,0,1,1-9.94-10A10,10,0,0,1,599.75,569.61Zm-84.23,0a10,10,0,1,1-9.95-10A10,10,0,0,1,515.52,569.61Zm-84.31,0a9.95,9.95,0,1,1-9.94-10A10,10,0,0,1,431.21,569.61Zm-84.23,0a10,10,0,1,1-10-10A10,10,0,0,1,347,569.61Zm-84.31,0a9.95,9.95,0,1,1-9.94-10A10,10,0,0,1,262.67,569.61ZM852.6,484a10,10,0,1,1-10-10A10,10,0,0,1,852.6,484Zm-84.24,0a9.95,9.95,0,1,1-10-10A10,10,0,0,1,768.36,484Zm-84.3,0a10,10,0,1,1-9.95-10A10,10,0,0,1,684.06,484Zm-84.31,0a9.95,9.95,0,1,1-9.94-10A10,10,0,0,1,599.75,484Zm-84.23,0a10,10,0,1,1-9.95-10A10,10,0,0,1,515.52,484Zm-84.31,0a9.95,9.95,0,1,1-9.94-10A10,10,0,0,1,431.21,484ZM347,484a10,10,0,1,1-10-10A10,10,0,0,1,347,484Zm-84.31,0a9.95,9.95,0,1,1-9.94-10A10,10,0,0,1,262.67,484ZM852.6,398.48a10,10,0,1,1-10-10A10,10,0,0,1,852.6,398.48Zm-84.24,0a9.95,9.95,0,1,1-10-10A10,10,0,0,1,768.36,398.48Zm-84.3,0a10,10,0,1,1-9.95-10A10,10,0,0,1,684.06,398.48Zm-84.31,0a9.95,9.95,0,1,1-9.94-10A10,10,0,0,1,599.75,398.48Zm-84.23,0a10,10,0,1,1-9.95-10A10,10,0,0,1,515.52,398.48Zm-84.31,0a9.95,9.95,0,1,1-9.94-10A10,10,0,0,1,431.21,398.48Zm-84.23,0a10,10,0,1,1-10-10A10,10,0,0,1,347,398.48Zm-84.31,0a9.95,9.95,0,1,1-9.94-10A10,10,0,0,1,262.67,398.48ZM852.6,312.91a10,10,0,1,1-10-10A10,10,0,0,1,852.6,312.91Zm-84.24,0a9.95,9.95,0,1,1-10-10A10,10,0,0,1,768.36,312.91Zm-84.3,0a10,10,0,1,1-9.95-10A10,10,0,0,1,684.06,312.91Zm-84.31,0a9.95,9.95,0,1,1-9.94-10A10,10,0,0,1,599.75,312.91Zm-84.23,0a10,10,0,1,1-9.95-10A10,10,0,0,1,515.52,312.91Zm-84.31,0a9.95,9.95,0,1,1-9.94-10A10,10,0,0,1,431.21,312.91Zm-84.23,0a10,10,0,1,1-10-10A10,10,0,0,1,347,312.91Zm-84.31,0a9.95,9.95,0,1,1-9.94-10A10,10,0,0,1,262.67,312.91ZM852.6,227.34a10,10,0,1,1-10-10A10,10,0,0,1,852.6,227.34Zm-84.24,0a9.95,9.95,0,1,1-10-10A10,10,0,0,1,768.36,227.34Zm-84.3,0a10,10,0,1,1-9.95-10A10,10,0,0,1,684.06,227.34Zm-84.31,0a9.95,9.95,0,1,1-9.94-10A10,10,0,0,1,599.75,227.34Zm-84.23,0a10,10,0,1,1-9.95-10A10,10,0,0,1,515.52,227.34Zm-84.31,0a9.95,9.95,0,1,1-9.94-10A10,10,0,0,1,431.21,227.34Zm-84.23,0a10,10,0,1,1-10-10A10,10,0,0,1,347,227.34Zm-84.31,0a9.95,9.95,0,1,1-9.94-10A10,10,0,0,1,262.67,227.34ZM852.6,141.77a10,10,0,1,1-10-10A10,10,0,0,1,852.6,141.77Zm-84.24,0a9.95,9.95,0,1,1-10-10A10,10,0,0,1,768.36,141.77Zm-84.3,0a10,10,0,1,1-9.95-10A10,10,0,0,1,684.06,141.77Zm-84.31,0a9.95,9.95,0,1,1-9.94-10A10,10,0,0,1,599.75,141.77Zm-84.23,0a10,10,0,1,1-9.95-10A10,10,0,0,1,515.52,141.77Zm-84.31,0a9.95,9.95,0,1,1-9.94-10A10,10,0,0,1,431.21,141.77Zm-84.23,0a10,10,0,1,1-10-10A10,10,0,0,1,347,141.77Zm-84.31,0a9.95,9.95,0,1,1-9.94-10A10,10,0,0,1,262.67,141.77Z"/><path class="cls-3" d="M350.72,389.45v-6.31h0a.29.29,0,0,1,.29-.3h34a.29.29,0,0,1,.29.3v6.33a.33.33,0,0,0,.33.31h6.7a.29.29,0,0,1,.29.29v2.51a.29.29,0,0,1-.29.29h-6.74a.29.29,0,0,0-.29.29v24a.29.29,0,0,1-.29.29H351a.29.29,0,0,1-.29-.29V393.2h0a.29.29,0,0,0-.29-.3h-6.74a.29.29,0,0,1-.29-.29v-2.54a.29.29,0,0,1,.29-.29h6.74a.3.3,0,0,0,.29-.3Z"/><path class="cls-4" d="M368,382.87v-5.4c0-.38-.12-.78-.46-.78H351.47a.75.75,0,0,0-.75.75v5.43"/><path class="cls-4" d="M350.72,382.87v-5.43a.75.75,0,0,1,.75-.75h22.07a.75.75,0,0,1,.75.75v5.43"/><path class="cls-3" d="M350.72,469.86v-6.32h0a.29.29,0,0,1,.29-.29h34a.29.29,0,0,1,.29.29v6.34a.33.33,0,0,0,.33.3h6.7a.29.29,0,0,1,.29.29V473a.29.29,0,0,1-.29.29h-6.74a.29.29,0,0,0-.29.3v24a.29.29,0,0,1-.29.29H351a.29.29,0,0,1-.29-.29V473.6h0a.29.29,0,0,0-.29-.29h-6.74a.29.29,0,0,1-.29-.29v-2.55a.29.29,0,0,1,.29-.29h6.74a.29.29,0,0,0,.29-.29Z"/><path class="cls-4" d="M368,463.28v-5.4c0-.38-.12-.78-.46-.78H351.47a.74.74,0,0,0-.75.74v5.44"/><path class="cls-4" d="M350.72,463.28v-5.44a.74.74,0,0,1,.75-.74h22.07a.74.74,0,0,1,.75.74v5.44"/><path class="cls-3" d="M350.72,550.26V544h0a.29.29,0,0,1,.29-.3h34a.29.29,0,0,1,.29.3v6.34a.33.33,0,0,0,.33.3h6.7a.29.29,0,0,1,.29.29v2.51a.29.29,0,0,1-.29.29h-6.74a.29.29,0,0,0-.29.29v24a.29.29,0,0,1-.29.29H351a.29.29,0,0,1-.29-.29V554h0a.3.3,0,0,0-.29-.3h-6.74a.29.29,0,0,1-.29-.29v-2.54a.29.29,0,0,1,.29-.29h6.74a.29.29,0,0,0,.29-.3Z"/><path class="cls-4" d="M368,543.69v-5.41c0-.38-.12-.78-.46-.78H351.47a.75.75,0,0,0-.75.75v5.44"/><path class="cls-4" d="M350.72,543.69v-5.44a.75.75,0,0,1,.75-.75h22.07a.75.75,0,0,1,.75.75v5.44"/><path class="cls-3" d="M350.72,630.54v-6.32h0a.29.29,0,0,1,.29-.29h34a.29.29,0,0,1,.29.29v6.34a.33.33,0,0,0,.33.3h6.7a.29.29,0,0,1,.29.29v2.51a.29.29,0,0,1-.29.29h-6.74a.3.3,0,0,0-.29.3v24a.29.29,0,0,1-.29.29H351a.29.29,0,0,1-.29-.29V634.28h0a.29.29,0,0,0-.29-.29h-6.74a.29.29,0,0,1-.29-.29v-2.55a.29.29,0,0,1,.29-.29h6.74a.29.29,0,0,0,.29-.29Z"/><path class="cls-4" d="M368,624v-5.4c0-.38-.12-.78-.46-.78H351.47a.74.74,0,0,0-.75.74V624"/><path class="cls-4" d="M350.72,624v-5.44a.74.74,0,0,1,.75-.74h22.07a.74.74,0,0,1,.75.74V624"/><path class="cls-3" d="M350.72,148.36v-6.31h0a.29.29,0,0,1,.29-.29h34a.29.29,0,0,1,.29.29v6.34a.33.33,0,0,0,.33.3h6.7a.29.29,0,0,1,.29.29v2.51a.29.29,0,0,1-.29.29h-6.74a.29.29,0,0,0-.29.3V176a.29.29,0,0,1-.29.3H351a.29.29,0,0,1-.29-.3V152.11h0a.29.29,0,0,0-.29-.29h-6.74a.29.29,0,0,1-.29-.3V149a.29.29,0,0,1,.29-.29h6.74a.29.29,0,0,0,.29-.29Z"/><path class="cls-4" d="M368,141.79v-5.4c0-.38-.12-.79-.46-.79H351.47a.75.75,0,0,0-.75.75v5.44"/><path class="cls-4" d="M350.72,141.79v-5.44a.75.75,0,0,1,.75-.75h22.07a.75.75,0,0,1,.75.75v5.44"/><path class="cls-3" d="M350.72,228.77v-6.32h0a.29.29,0,0,1,.29-.29h34a.29.29,0,0,1,.29.29v6.34a.33.33,0,0,0,.33.31h6.7a.29.29,0,0,1,.29.29v2.51a.29.29,0,0,1-.29.29h-6.74a.29.29,0,0,0-.29.29v24a.29.29,0,0,1-.29.29H351a.29.29,0,0,1-.29-.29V232.52h0a.29.29,0,0,0-.29-.3h-6.74a.29.29,0,0,1-.29-.29v-2.54a.29.29,0,0,1,.29-.29h6.74a.3.3,0,0,0,.29-.3Z"/><path class="cls-4" d="M368,222.19v-5.4c0-.38-.12-.78-.46-.78H351.47a.74.74,0,0,0-.75.75v5.43"/><path class="cls-4" d="M350.72,222.19v-5.43a.74.74,0,0,1,.75-.75h22.07a.74.74,0,0,1,.75.75v5.43"/><path class="cls-3" d="M350.72,309.05v-6.32h0a.29.29,0,0,1,.29-.29h34a.29.29,0,0,1,.29.29v6.34a.33.33,0,0,0,.33.3h6.7a.29.29,0,0,1,.29.29v2.51a.29.29,0,0,1-.29.29h-6.74a.29.29,0,0,0-.29.3v23.95a.29.29,0,0,1-.29.3H351a.29.29,0,0,1-.29-.3V312.79h0a.29.29,0,0,0-.29-.29h-6.74a.29.29,0,0,1-.29-.29v-2.55a.29.29,0,0,1,.29-.29h6.74a.29.29,0,0,0,.29-.29Z"/><path class="cls-4" d="M368,302.47v-5.4c0-.38-.12-.79-.46-.79H351.47a.75.75,0,0,0-.75.75v5.44"/><path class="cls-4" d="M350.72,302.47V297a.75.75,0,0,1,.75-.75h22.07a.75.75,0,0,1,.75.75v5.44"/><path class="cls-3" d="M350.72,710.94v-6.31h0a.29.29,0,0,1,.29-.3h34a.29.29,0,0,1,.29.3V711a.33.33,0,0,0,.33.3h6.7a.29.29,0,0,1,.29.29v2.51a.29.29,0,0,1-.29.29h-6.74a.29.29,0,0,0-.29.29v24a.29.29,0,0,1-.29.29H351a.29.29,0,0,1-.29-.29V714.69h0a.3.3,0,0,0-.29-.3h-6.74a.29.29,0,0,1-.29-.29v-2.54a.29.29,0,0,1,.29-.29h6.74a.29.29,0,0,0,.29-.3Z"/><path class="cls-4" d="M368,704.37V699c0-.38-.12-.78-.46-.78H351.47a.75.75,0,0,0-.75.75v5.44"/><path class="cls-4" d="M350.72,704.37v-5.44a.75.75,0,0,1,.75-.75h22.07a.75.75,0,0,1,.75.75v5.44"/><path class="cls-3" d="M270.38,389.45v-6.31h0a.29.29,0,0,1,.29-.29h34a.29.29,0,0,1,.29.29v6.34a.33.33,0,0,0,.33.3H312a.29.29,0,0,1,.29.29v2.51a.29.29,0,0,1-.29.29h-6.74a.29.29,0,0,0-.29.3v23.95a.29.29,0,0,1-.29.3h-34a.29.29,0,0,1-.29-.3V393.2h0a.29.29,0,0,0-.29-.29h-6.74a.3.3,0,0,1-.3-.3v-2.54a.3.3,0,0,1,.3-.29h6.74a.29.29,0,0,0,.29-.29Z"/><path class="cls-4" d="M287.7,382.88v-5.41c0-.38-.12-.78-.46-.78H271.13a.75.75,0,0,0-.75.75v5.44"/><path class="cls-4" d="M270.38,382.88v-5.44a.75.75,0,0,1,.75-.75H293.2a.75.75,0,0,1,.75.75v5.44"/><path class="cls-3" d="M270.38,469.86v-6.32h0a.29.29,0,0,1,.29-.29h34a.29.29,0,0,1,.29.29v6.34a.32.32,0,0,0,.33.3H312a.3.3,0,0,1,.29.3V473a.29.29,0,0,1-.29.3h-6.74a.29.29,0,0,0-.29.29v24a.29.29,0,0,1-.29.29h-34a.29.29,0,0,1-.29-.29V473.61h0a.29.29,0,0,0-.29-.3h-6.74a.3.3,0,0,1-.3-.29v-2.54a.31.31,0,0,1,.3-.3h6.74a.29.29,0,0,0,.29-.29Z"/><path class="cls-4" d="M287.7,463.28v-5.4c0-.38-.12-.78-.46-.78H271.13a.74.74,0,0,0-.75.75v5.43"/><path class="cls-4" d="M270.38,463.28v-5.43a.74.74,0,0,1,.75-.75H293.2a.74.74,0,0,1,.75.75v5.43"/><path class="cls-3" d="M270.38,550.26V544h0a.29.29,0,0,1,.29-.29h34a.29.29,0,0,1,.29.29v6.34a.33.33,0,0,0,.33.3H312a.29.29,0,0,1,.29.29v2.51a.29.29,0,0,1-.29.29h-6.74a.29.29,0,0,0-.29.3v23.95a.29.29,0,0,1-.29.3h-34a.29.29,0,0,1-.29-.3V554h0a.29.29,0,0,0-.29-.29h-6.74a.3.3,0,0,1-.3-.3v-2.54a.3.3,0,0,1,.3-.29h6.74a.29.29,0,0,0,.29-.29Z"/><path class="cls-4" d="M287.7,543.69v-5.4c0-.38-.12-.79-.46-.79H271.13a.75.75,0,0,0-.75.75v5.44"/><path class="cls-4" d="M270.38,543.69v-5.44a.75.75,0,0,1,.75-.75H293.2a.75.75,0,0,1,.75.75v5.44"/><path class="cls-3" d="M270.38,630.54v-6.32h0a.29.29,0,0,1,.29-.29h34a.29.29,0,0,1,.29.29v6.34a.33.33,0,0,0,.33.31H312a.29.29,0,0,1,.29.29v2.5a.29.29,0,0,1-.29.3h-6.74a.29.29,0,0,0-.29.29v24a.29.29,0,0,1-.29.29h-34a.29.29,0,0,1-.29-.29V634.29h0a.29.29,0,0,0-.29-.3h-6.74a.3.3,0,0,1-.3-.29v-2.54a.3.3,0,0,1,.3-.29h6.74a.3.3,0,0,0,.29-.3Z"/><path class="cls-4" d="M287.7,624v-5.4c0-.38-.12-.78-.46-.78H271.13a.74.74,0,0,0-.75.75V624"/><path class="cls-4" d="M270.38,624v-5.43a.74.74,0,0,1,.75-.75H293.2a.74.74,0,0,1,.75.75V624"/><path class="cls-3" d="M270.38,148.37v-6.32h0a.29.29,0,0,1,.29-.29h34a.29.29,0,0,1,.29.29v6.34a.33.33,0,0,0,.33.3H312a.29.29,0,0,1,.29.3v2.5a.29.29,0,0,1-.29.3h-6.74a.29.29,0,0,0-.29.29v24a.29.29,0,0,1-.29.29h-34a.29.29,0,0,1-.29-.29V152.11h0a.29.29,0,0,0-.29-.29h-6.74a.3.3,0,0,1-.3-.29V149a.3.3,0,0,1,.3-.3h6.74a.29.29,0,0,0,.29-.29Z"/><path class="cls-4" d="M287.7,141.79v-5.4c0-.38-.12-.78-.46-.78H271.13a.74.74,0,0,0-.75.75v5.43"/><path class="cls-4" d="M270.38,141.79v-5.43a.74.74,0,0,1,.75-.75H293.2a.74.74,0,0,1,.75.75v5.43"/><path class="cls-3" d="M270.38,228.77v-6.31h0a.29.29,0,0,1,.29-.29h34a.29.29,0,0,1,.29.29v6.34a.33.33,0,0,0,.33.3H312a.29.29,0,0,1,.29.29v2.51a.29.29,0,0,1-.29.29h-6.74a.29.29,0,0,0-.29.29v24a.29.29,0,0,1-.29.3h-34a.29.29,0,0,1-.29-.3V232.52h0a.29.29,0,0,0-.29-.29h-6.74a.3.3,0,0,1-.3-.3v-2.54a.3.3,0,0,1,.3-.29h6.74a.29.29,0,0,0,.29-.29Z"/><path class="cls-4" d="M287.7,222.2v-5.41c0-.38-.12-.78-.46-.78H271.13a.75.75,0,0,0-.75.75v5.44"/><path class="cls-4" d="M270.38,222.2v-5.44a.75.75,0,0,1,.75-.75H293.2a.75.75,0,0,1,.75.75v5.44"/><path class="cls-3" d="M270.38,309.05v-6.32h0a.29.29,0,0,1,.29-.29h34a.29.29,0,0,1,.29.29v6.34a.32.32,0,0,0,.33.3H312a.3.3,0,0,1,.29.3v2.5a.29.29,0,0,1-.29.3h-6.74a.29.29,0,0,0-.29.29v24a.29.29,0,0,1-.29.29h-34a.29.29,0,0,1-.29-.29V312.79h0a.29.29,0,0,0-.29-.29h-6.74a.3.3,0,0,1-.3-.29v-2.54a.31.31,0,0,1,.3-.3h6.74a.29.29,0,0,0,.29-.29Z"/><path class="cls-4" d="M287.7,302.47v-5.4c0-.38-.12-.78-.46-.78H271.13a.74.74,0,0,0-.75.75v5.43"/><path class="cls-4" d="M270.38,302.47V297a.74.74,0,0,1,.75-.75H293.2a.74.74,0,0,1,.75.75v5.43"/><path class="cls-3" d="M270.38,711v-6.32h0a.29.29,0,0,1,.29-.29h34a.29.29,0,0,1,.29.29V711a.33.33,0,0,0,.33.3H312a.29.29,0,0,1,.29.29v2.51a.29.29,0,0,1-.29.29h-6.74a.29.29,0,0,0-.29.3v24a.29.29,0,0,1-.29.29h-34a.29.29,0,0,1-.29-.29V714.69h0a.29.29,0,0,0-.29-.29h-6.74a.3.3,0,0,1-.3-.29v-2.55a.3.3,0,0,1,.3-.29h6.74a.29.29,0,0,0,.29-.29Z"/><path class="cls-4" d="M287.7,704.37V699c0-.38-.12-.79-.46-.79H271.13a.75.75,0,0,0-.75.75v5.44"/><path class="cls-4" d="M270.38,704.37v-5.44a.75.75,0,0,1,.75-.75H293.2a.75.75,0,0,1,.75.75v5.44"/><path class="cls-3" d="M511.4,389.41V383.1h0a.29.29,0,0,1,.29-.29h34a.29.29,0,0,1,.29.29v6.34a.33.33,0,0,0,.33.3H553a.3.3,0,0,1,.3.29v2.51a.3.3,0,0,1-.3.29h-6.74a.29.29,0,0,0-.29.3v23.95a.29.29,0,0,1-.29.3h-34a.29.29,0,0,1-.29-.3V393.16h0a.29.29,0,0,0-.29-.29h-6.74a.29.29,0,0,1-.29-.3V390a.29.29,0,0,1,.29-.29h6.74a.29.29,0,0,0,.29-.29Z"/><path class="cls-4" d="M528.72,382.84v-5.41c0-.37-.12-.78-.46-.78H512.15a.76.76,0,0,0-.75.75v5.44"/><path class="cls-4" d="M511.4,382.84V377.4a.76.76,0,0,1,.75-.75h22.07a.75.75,0,0,1,.75.75v5.44"/><path class="cls-3" d="M511.4,469.82V463.5h0a.29.29,0,0,1,.29-.29h34a.29.29,0,0,1,.29.29v6.34a.33.33,0,0,0,.33.31H553a.3.3,0,0,1,.3.29v2.5a.3.3,0,0,1-.3.3h-6.74a.29.29,0,0,0-.29.29v24a.29.29,0,0,1-.29.29h-34a.29.29,0,0,1-.29-.29V473.57h0a.29.29,0,0,0-.29-.3h-6.74a.29.29,0,0,1-.29-.29v-2.54a.29.29,0,0,1,.29-.29h6.74a.3.3,0,0,0,.29-.3Z"/><path class="cls-4" d="M528.72,463.24v-5.4c0-.38-.12-.78-.46-.78H512.15a.75.75,0,0,0-.75.75v5.43"/><path class="cls-4" d="M511.4,463.24v-5.43a.75.75,0,0,1,.75-.75h22.07a.74.74,0,0,1,.75.75v5.43"/><path class="cls-3" d="M511.4,550.22v-6.31h0a.29.29,0,0,1,.29-.29h34a.29.29,0,0,1,.29.29v6.34a.33.33,0,0,0,.33.3H553a.3.3,0,0,1,.3.29v2.51a.3.3,0,0,1-.3.29h-6.74a.29.29,0,0,0-.29.3v23.95a.29.29,0,0,1-.29.3h-34a.29.29,0,0,1-.29-.3V554h0a.29.29,0,0,0-.29-.29h-6.74a.29.29,0,0,1-.29-.29v-2.55a.29.29,0,0,1,.29-.29h6.74a.29.29,0,0,0,.29-.29Z"/><path class="cls-4" d="M528.72,543.65v-5.4c0-.38-.12-.79-.46-.79H512.15a.76.76,0,0,0-.75.75v5.44"/><path class="cls-4" d="M511.4,543.65v-5.44a.76.76,0,0,1,.75-.75h22.07a.75.75,0,0,1,.75.75v5.44"/><path class="cls-3" d="M511.4,630.5v-6.32h0a.29.29,0,0,1,.29-.29h34a.29.29,0,0,1,.29.29v6.34a.33.33,0,0,0,.33.31H553a.3.3,0,0,1,.3.29v2.51a.3.3,0,0,1-.3.29h-6.74a.29.29,0,0,0-.29.29v24a.29.29,0,0,1-.29.29h-34a.29.29,0,0,1-.29-.29V634.25h0a.29.29,0,0,0-.29-.3h-6.74a.29.29,0,0,1-.29-.29v-2.54a.29.29,0,0,1,.29-.29h6.74a.3.3,0,0,0,.29-.3Z"/><path class="cls-4" d="M528.72,623.92v-5.4c0-.38-.12-.78-.46-.78H512.15a.75.75,0,0,0-.75.75v5.43"/><path class="cls-4" d="M511.4,623.92v-5.43a.75.75,0,0,1,.75-.75h22.07a.74.74,0,0,1,.75.75v5.43"/><path class="cls-3" d="M511.4,148.33V142h0a.29.29,0,0,1,.29-.29h34a.29.29,0,0,1,.29.29v6.34a.33.33,0,0,0,.33.3H553a.31.31,0,0,1,.3.3v2.5a.3.3,0,0,1-.3.3h-6.74a.29.29,0,0,0-.29.29v24a.29.29,0,0,1-.29.29h-34a.29.29,0,0,1-.29-.29V152.07h0a.29.29,0,0,0-.29-.29h-6.74a.29.29,0,0,1-.29-.29V149a.3.3,0,0,1,.29-.3h6.74a.29.29,0,0,0,.29-.29Z"/><path class="cls-4" d="M528.72,141.75v-5.4c0-.38-.12-.78-.46-.78H512.15a.75.75,0,0,0-.75.75v5.43"/><path class="cls-4" d="M511.4,141.75v-5.43a.75.75,0,0,1,.75-.75h22.07a.74.74,0,0,1,.75.75v5.43"/><path class="cls-3" d="M511.4,228.73v-6.31h0a.29.29,0,0,1,.29-.29h34a.29.29,0,0,1,.29.29v6.34a.33.33,0,0,0,.33.3H553a.3.3,0,0,1,.3.29v2.51a.3.3,0,0,1-.3.29h-6.74a.29.29,0,0,0-.29.29v24a.29.29,0,0,1-.29.3h-34a.29.29,0,0,1-.29-.3V232.48h0a.29.29,0,0,0-.29-.29h-6.74a.29.29,0,0,1-.29-.3v-2.54a.29.29,0,0,1,.29-.29h6.74a.29.29,0,0,0,.29-.29Z"/><path class="cls-4" d="M528.72,222.16v-5.41c0-.38-.12-.78-.46-.78H512.15a.76.76,0,0,0-.75.75v5.44"/><path class="cls-4" d="M511.4,222.16v-5.44a.76.76,0,0,1,.75-.75h22.07a.75.75,0,0,1,.75.75v5.44"/><path class="cls-3" d="M511.4,309v-6.32h0a.29.29,0,0,1,.29-.29h34a.29.29,0,0,1,.29.29V309a.32.32,0,0,0,.33.3H553a.31.31,0,0,1,.3.3v2.5a.3.3,0,0,1-.3.3h-6.74a.29.29,0,0,0-.29.29v24a.29.29,0,0,1-.29.29h-34a.29.29,0,0,1-.29-.29V312.76h0a.29.29,0,0,0-.29-.3h-6.74a.29.29,0,0,1-.29-.29v-2.54a.3.3,0,0,1,.29-.3h6.74a.29.29,0,0,0,.29-.29Z"/><path class="cls-4" d="M528.72,302.43V297c0-.38-.12-.78-.46-.78H512.15a.75.75,0,0,0-.75.75v5.43"/><path class="cls-4" d="M511.4,302.43V297a.75.75,0,0,1,.75-.75h22.07a.74.74,0,0,1,.75.75v5.43"/><path class="cls-3" d="M511.4,710.91v-6.32h0a.29.29,0,0,1,.29-.29h34a.29.29,0,0,1,.29.29v6.34a.33.33,0,0,0,.33.3H553a.3.3,0,0,1,.3.29V714a.3.3,0,0,1-.3.29h-6.74a.29.29,0,0,0-.29.3v24a.29.29,0,0,1-.29.29h-34a.29.29,0,0,1-.29-.29V714.65h0a.29.29,0,0,0-.29-.29h-6.74a.29.29,0,0,1-.29-.29v-2.55a.29.29,0,0,1,.29-.29h6.74a.29.29,0,0,0,.29-.29Z"/><path class="cls-4" d="M528.72,704.33v-5.4c0-.38-.12-.79-.46-.79H512.15a.76.76,0,0,0-.75.75v5.44"/><path class="cls-4" d="M511.4,704.33v-5.44a.76.76,0,0,1,.75-.75h22.07a.75.75,0,0,1,.75.75v5.44"/><path class="cls-3" d="M431.06,389.42V383.1h0a.29.29,0,0,1,.29-.29h34a.29.29,0,0,1,.29.29v6.34a.33.33,0,0,0,.33.3h6.7a.3.3,0,0,1,.3.3v2.5a.31.31,0,0,1-.3.3h-6.74a.29.29,0,0,0-.29.29v24a.29.29,0,0,1-.29.29h-34a.29.29,0,0,1-.29-.29V393.16h0a.29.29,0,0,0-.29-.29H424a.29.29,0,0,1-.29-.29V390a.29.29,0,0,1,.29-.3h6.74a.29.29,0,0,0,.29-.29Z"/><path class="cls-4" d="M448.38,382.84v-5.4c0-.38-.12-.78-.46-.78H431.81a.74.74,0,0,0-.75.75v5.43"/><path class="cls-4" d="M431.06,382.84v-5.43a.74.74,0,0,1,.75-.75h22.07a.74.74,0,0,1,.75.75v5.43"/><path class="cls-3" d="M431.06,469.82v-6.31h0a.29.29,0,0,1,.29-.29h34a.29.29,0,0,1,.29.29v6.34a.33.33,0,0,0,.33.3h6.7a.3.3,0,0,1,.3.29V473a.3.3,0,0,1-.3.29h-6.74a.29.29,0,0,0-.29.29v24a.3.3,0,0,1-.29.3h-34a.3.3,0,0,1-.29-.3V473.57h0a.29.29,0,0,0-.29-.29H424a.29.29,0,0,1-.29-.3v-2.54a.29.29,0,0,1,.29-.29h6.74a.29.29,0,0,0,.29-.29Z"/><path class="cls-4" d="M448.38,463.25v-5.41c0-.38-.12-.78-.46-.78H431.81a.75.75,0,0,0-.75.75v5.44"/><path class="cls-4" d="M431.06,463.25v-5.44a.75.75,0,0,1,.75-.75h22.07a.75.75,0,0,1,.75.75v5.44"/><path class="cls-3" d="M431.06,550.23v-6.32h0a.29.29,0,0,1,.29-.29h34a.29.29,0,0,1,.29.29v6.34a.33.33,0,0,0,.33.3h6.7a.31.31,0,0,1,.3.3v2.5a.3.3,0,0,1-.3.3h-6.74a.29.29,0,0,0-.29.29v24a.29.29,0,0,1-.29.29h-34a.29.29,0,0,1-.29-.29V554h0a.29.29,0,0,0-.29-.29H424a.29.29,0,0,1-.29-.29v-2.54a.3.3,0,0,1,.29-.3h6.74a.29.29,0,0,0,.29-.29Z"/><path class="cls-4" d="M448.38,543.65v-5.4c0-.38-.12-.78-.46-.78H431.81a.74.74,0,0,0-.75.75v5.43"/><path class="cls-4" d="M431.06,543.65v-5.43a.74.74,0,0,1,.75-.75h22.07a.74.74,0,0,1,.75.75v5.43"/><path class="cls-3" d="M431.06,630.5v-6.31h0a.29.29,0,0,1,.29-.29h34a.29.29,0,0,1,.29.29v6.34a.33.33,0,0,0,.33.3h6.7a.3.3,0,0,1,.3.29v2.51a.3.3,0,0,1-.3.29h-6.74a.29.29,0,0,0-.29.29v24a.29.29,0,0,1-.29.3h-34a.29.29,0,0,1-.29-.3V634.25h0a.29.29,0,0,0-.29-.29H424a.29.29,0,0,1-.29-.3v-2.54a.29.29,0,0,1,.29-.29h6.74a.29.29,0,0,0,.29-.29Z"/><path class="cls-4" d="M448.38,623.93v-5.41c0-.38-.12-.78-.46-.78H431.81a.75.75,0,0,0-.75.75v5.44"/><path class="cls-4" d="M431.06,623.93v-5.44a.75.75,0,0,1,.75-.75h22.07a.75.75,0,0,1,.75.75v5.44"/><path class="cls-3" d="M431.06,148.33V142h0a.3.3,0,0,1,.29-.3h34a.3.3,0,0,1,.29.3v6.34a.33.33,0,0,0,.33.3h6.7a.3.3,0,0,1,.3.29v2.51a.3.3,0,0,1-.3.29h-6.74a.29.29,0,0,0-.29.29v24a.29.29,0,0,1-.29.29h-34a.29.29,0,0,1-.29-.29V152.08h0a.29.29,0,0,0-.29-.29H424a.3.3,0,0,1-.29-.3V149a.29.29,0,0,1,.29-.29h6.74a.29.29,0,0,0,.29-.3Z"/><path class="cls-4" d="M448.38,141.76v-5.41c0-.38-.12-.78-.46-.78H431.81a.75.75,0,0,0-.75.75v5.44"/><path class="cls-4" d="M431.06,141.76v-5.44a.75.75,0,0,1,.75-.75h22.07a.75.75,0,0,1,.75.75v5.44"/><path class="cls-3" d="M431.06,228.74v-6.32h0a.29.29,0,0,1,.29-.29h34a.29.29,0,0,1,.29.29v6.34a.33.33,0,0,0,.33.3h6.7a.3.3,0,0,1,.3.3v2.5a.31.31,0,0,1-.3.3h-6.74a.29.29,0,0,0-.29.29v24a.29.29,0,0,1-.29.29h-34a.29.29,0,0,1-.29-.29V232.48h0a.29.29,0,0,0-.29-.29H424a.29.29,0,0,1-.29-.29v-2.54a.29.29,0,0,1,.29-.3h6.74a.29.29,0,0,0,.29-.29Z"/><path class="cls-4" d="M448.38,222.16v-5.4c0-.38-.12-.78-.46-.78H431.81a.74.74,0,0,0-.75.75v5.43"/><path class="cls-4" d="M431.06,222.16v-5.43a.74.74,0,0,1,.75-.75h22.07a.74.74,0,0,1,.75.75v5.43"/><path class="cls-3" d="M431.06,309V302.7h0a.3.3,0,0,1,.29-.3h34a.3.3,0,0,1,.29.3V309a.33.33,0,0,0,.33.3h6.7a.3.3,0,0,1,.3.29v2.51a.3.3,0,0,1-.3.29h-6.74a.29.29,0,0,0-.29.29v24a.3.3,0,0,1-.29.3h-34a.3.3,0,0,1-.29-.3V312.76h0a.29.29,0,0,0-.29-.29H424a.3.3,0,0,1-.29-.3v-2.54a.29.29,0,0,1,.29-.29h6.74a.29.29,0,0,0,.29-.29Z"/><path class="cls-4" d="M448.38,302.44V297c0-.38-.12-.78-.46-.78H431.81a.75.75,0,0,0-.75.75v5.44"/><path class="cls-4" d="M431.06,302.44V297a.75.75,0,0,1,.75-.75h22.07a.75.75,0,0,1,.75.75v5.44"/><path class="cls-3" d="M431.06,710.91v-6.32h0a.29.29,0,0,1,.29-.29h34a.29.29,0,0,1,.29.29v6.34a.32.32,0,0,0,.33.3h6.7a.31.31,0,0,1,.3.3V714a.3.3,0,0,1-.3.3h-6.74a.29.29,0,0,0-.29.29v24a.29.29,0,0,1-.29.29h-34a.29.29,0,0,1-.29-.29V714.66h0a.29.29,0,0,0-.29-.3H424a.29.29,0,0,1-.29-.29v-2.54a.3.3,0,0,1,.29-.3h6.74a.29.29,0,0,0,.29-.29Z"/><path class="cls-4" d="M448.38,704.33v-5.4c0-.38-.12-.78-.46-.78H431.81a.74.74,0,0,0-.75.75v5.43"/><path class="cls-4" d="M431.06,704.33V698.9a.74.74,0,0,1,.75-.75h22.07a.74.74,0,0,1,.75.75v5.43"/><path class="cls-3" d="M672.24,389.52V383.2h0a.29.29,0,0,1,.29-.29h34a.29.29,0,0,1,.29.29v6.34a.33.33,0,0,0,.33.3h6.71a.3.3,0,0,1,.29.3v2.5a.29.29,0,0,1-.29.3h-6.74a.3.3,0,0,0-.3.29v24a.29.29,0,0,1-.29.29h-34a.29.29,0,0,1-.3-.29V393.27h0a.3.3,0,0,0-.3-.3h-6.74a.29.29,0,0,1-.29-.29v-2.54a.3.3,0,0,1,.29-.3H672a.29.29,0,0,0,.29-.29Z"/><path class="cls-4" d="M689.56,382.94v-5.4c0-.38-.12-.78-.45-.78H673a.75.75,0,0,0-.75.75v5.43"/><path class="cls-4" d="M672.24,382.94v-5.43a.75.75,0,0,1,.75-.75h22.08a.75.75,0,0,1,.75.75v5.43"/><path class="cls-3" d="M672.24,469.92v-6.31h0a.29.29,0,0,1,.29-.29h34a.29.29,0,0,1,.29.29V470a.34.34,0,0,0,.33.3h6.71a.29.29,0,0,1,.29.29v2.51a.29.29,0,0,1-.29.29h-6.74a.3.3,0,0,0-.3.3v23.95a.29.29,0,0,1-.29.3h-34a.29.29,0,0,1-.3-.3V473.67h0a.3.3,0,0,0-.3-.29h-6.74a.29.29,0,0,1-.29-.3v-2.54a.29.29,0,0,1,.29-.29H672a.29.29,0,0,0,.29-.29Z"/><path class="cls-4" d="M689.56,463.35V458c0-.38-.12-.79-.45-.79H673a.76.76,0,0,0-.75.75v5.44"/><path class="cls-4" d="M672.24,463.35v-5.44a.76.76,0,0,1,.75-.75h22.08a.76.76,0,0,1,.75.75v5.44"/><path class="cls-3" d="M672.24,550.33V544h0a.29.29,0,0,1,.29-.29h34a.29.29,0,0,1,.29.29v6.34a.34.34,0,0,0,.33.31h6.71a.29.29,0,0,1,.29.29v2.5a.29.29,0,0,1-.29.3h-6.74a.3.3,0,0,0-.3.29v24a.29.29,0,0,1-.29.29h-34a.29.29,0,0,1-.3-.29V554.08h0a.3.3,0,0,0-.3-.3h-6.74a.29.29,0,0,1-.29-.29V551a.29.29,0,0,1,.29-.29H672a.3.3,0,0,0,.29-.3Z"/><path class="cls-4" d="M689.56,543.75v-5.4c0-.38-.12-.78-.45-.78H673a.75.75,0,0,0-.75.75v5.43"/><path class="cls-4" d="M672.24,543.75v-5.43a.75.75,0,0,1,.75-.75h22.08a.75.75,0,0,1,.75.75v5.43"/><path class="cls-3" d="M672.24,630.6v-6.31h0a.29.29,0,0,1,.29-.29h34a.29.29,0,0,1,.29.29v6.34a.34.34,0,0,0,.33.3h6.71a.29.29,0,0,1,.29.29v2.51a.29.29,0,0,1-.29.29h-6.74a.3.3,0,0,0-.3.3v23.95a.29.29,0,0,1-.29.3h-34a.29.29,0,0,1-.3-.3V634.35h0a.3.3,0,0,0-.3-.29h-6.74a.29.29,0,0,1-.29-.29v-2.55a.29.29,0,0,1,.29-.29H672a.29.29,0,0,0,.29-.29Z"/><path class="cls-4" d="M689.56,624v-5.4c0-.38-.12-.79-.45-.79H673a.76.76,0,0,0-.75.75V624"/><path class="cls-4" d="M672.24,624v-5.44a.76.76,0,0,1,.75-.75h22.08a.76.76,0,0,1,.75.75V624"/><path class="cls-3" d="M672.24,148.43v-6.31h0a.29.29,0,0,1,.29-.29h34a.29.29,0,0,1,.29.29v6.34a.34.34,0,0,0,.33.3h6.71a.29.29,0,0,1,.29.29v2.51a.29.29,0,0,1-.29.29h-6.74a.3.3,0,0,0-.3.29v24a.29.29,0,0,1-.29.3h-34a.29.29,0,0,1-.3-.3V152.18h0a.3.3,0,0,0-.3-.29h-6.74a.29.29,0,0,1-.29-.3v-2.54a.29.29,0,0,1,.29-.29H672a.29.29,0,0,0,.29-.29Z"/><path class="cls-4" d="M689.56,141.86v-5.41c0-.38-.12-.78-.45-.78H673a.76.76,0,0,0-.75.75v5.44"/><path class="cls-4" d="M672.24,141.86v-5.44a.76.76,0,0,1,.75-.75h22.08a.76.76,0,0,1,.75.75v5.44"/><path class="cls-3" d="M672.24,228.84v-6.32h0a.29.29,0,0,1,.29-.29h34a.29.29,0,0,1,.29.29v6.34a.34.34,0,0,0,.33.3h6.71a.3.3,0,0,1,.29.3V232a.29.29,0,0,1-.29.3h-6.74a.3.3,0,0,0-.3.29v24a.29.29,0,0,1-.29.29h-34a.29.29,0,0,1-.3-.29V232.58h0a.3.3,0,0,0-.3-.29h-6.74a.29.29,0,0,1-.29-.29v-2.54a.3.3,0,0,1,.29-.3H672a.29.29,0,0,0,.29-.29Z"/><path class="cls-4" d="M689.56,222.26v-5.4c0-.38-.12-.78-.45-.78H673a.75.75,0,0,0-.75.75v5.43"/><path class="cls-4" d="M672.24,222.26v-5.43a.75.75,0,0,1,.75-.75h22.08a.75.75,0,0,1,.75.75v5.43"/><path class="cls-3" d="M672.24,309.11V302.8h0a.29.29,0,0,1,.29-.29h34a.29.29,0,0,1,.29.29v6.34a.34.34,0,0,0,.33.3h6.71a.29.29,0,0,1,.29.29v2.51a.29.29,0,0,1-.29.29h-6.74a.3.3,0,0,0-.3.29v24a.29.29,0,0,1-.29.3h-34a.29.29,0,0,1-.3-.3V312.86h0a.3.3,0,0,0-.3-.29h-6.74a.29.29,0,0,1-.29-.3v-2.54a.29.29,0,0,1,.29-.29H672a.29.29,0,0,0,.29-.29Z"/><path class="cls-4" d="M689.56,302.54v-5.41c0-.38-.12-.78-.45-.78H673a.76.76,0,0,0-.75.75v5.44"/><path class="cls-4" d="M672.24,302.54V297.1a.76.76,0,0,1,.75-.75h22.08a.76.76,0,0,1,.75.75v5.44"/><path class="cls-3" d="M672.24,711V704.7h0a.29.29,0,0,1,.29-.3h34a.29.29,0,0,1,.29.3V711a.34.34,0,0,0,.33.31h6.71a.29.29,0,0,1,.29.29v2.51a.29.29,0,0,1-.29.29h-6.74a.3.3,0,0,0-.3.29v24a.29.29,0,0,1-.29.29h-34a.29.29,0,0,1-.3-.29V714.76h0a.3.3,0,0,0-.3-.3h-6.74a.29.29,0,0,1-.29-.29v-2.54a.29.29,0,0,1,.29-.29H672a.3.3,0,0,0,.29-.3Z"/><path class="cls-4" d="M689.56,704.43V699c0-.38-.12-.78-.45-.78H673a.75.75,0,0,0-.75.75v5.43"/><path class="cls-4" d="M672.24,704.43V699a.75.75,0,0,1,.75-.75h22.08a.75.75,0,0,1,.75.75v5.43"/><path class="cls-3" d="M591.9,389.52v-6.31h0a.3.3,0,0,1,.29-.3h34a.3.3,0,0,1,.29.3v6.34a.34.34,0,0,0,.33.3h6.71a.29.29,0,0,1,.29.29v2.51a.29.29,0,0,1-.29.29h-6.74a.3.3,0,0,0-.3.29v24a.3.3,0,0,1-.29.3h-34a.3.3,0,0,1-.3-.3V393.27h0a.3.3,0,0,0-.3-.29h-6.74a.3.3,0,0,1-.29-.3v-2.54a.29.29,0,0,1,.29-.29h6.74a.29.29,0,0,0,.29-.29Z"/><path class="cls-4" d="M609.22,383v-5.41c0-.38-.12-.78-.45-.78H592.65a.76.76,0,0,0-.75.75V383"/><path class="cls-4" d="M591.9,383v-5.44a.76.76,0,0,1,.75-.75h22.08a.76.76,0,0,1,.75.75V383"/><path class="cls-3" d="M591.9,469.93v-6.32h0a.29.29,0,0,1,.29-.29h34a.29.29,0,0,1,.29.29V470a.34.34,0,0,0,.33.3h6.71a.29.29,0,0,1,.29.3v2.5a.3.3,0,0,1-.29.3h-6.74a.3.3,0,0,0-.3.29v24a.29.29,0,0,1-.29.29h-34a.29.29,0,0,1-.3-.29V473.67h0a.3.3,0,0,0-.3-.29h-6.74a.29.29,0,0,1-.29-.29v-2.54a.29.29,0,0,1,.29-.3h6.74a.29.29,0,0,0,.29-.29Z"/><path class="cls-4" d="M609.22,463.35V458c0-.38-.12-.78-.45-.78H592.65a.75.75,0,0,0-.75.75v5.43"/><path class="cls-4" d="M591.9,463.35v-5.43a.75.75,0,0,1,.75-.75h22.08a.75.75,0,0,1,.75.75v5.43"/><path class="cls-3" d="M591.9,550.33V544h0a.29.29,0,0,1,.29-.29h34a.29.29,0,0,1,.29.29v6.34a.34.34,0,0,0,.33.3h6.71a.29.29,0,0,1,.29.29v2.51a.29.29,0,0,1-.29.29h-6.74a.3.3,0,0,0-.3.29v24a.29.29,0,0,1-.29.3h-34a.29.29,0,0,1-.3-.3V554.08h0a.3.3,0,0,0-.3-.29h-6.74a.29.29,0,0,1-.29-.3V551a.29.29,0,0,1,.29-.29h6.74a.29.29,0,0,0,.29-.29Z"/><path class="cls-4" d="M609.22,543.76v-5.41c0-.38-.12-.78-.45-.78H592.65a.76.76,0,0,0-.75.75v5.44"/><path class="cls-4" d="M591.9,543.76v-5.44a.76.76,0,0,1,.75-.75h22.08a.76.76,0,0,1,.75.75v5.44"/><path class="cls-3" d="M591.9,630.61v-6.32h0a.29.29,0,0,1,.29-.29h34a.29.29,0,0,1,.29.29v6.34a.34.34,0,0,0,.33.3h6.71a.3.3,0,0,1,.29.3v2.5a.29.29,0,0,1-.29.3h-6.74a.3.3,0,0,0-.3.29v24a.29.29,0,0,1-.29.29h-34a.29.29,0,0,1-.3-.29V634.35h0a.3.3,0,0,0-.3-.29h-6.74a.29.29,0,0,1-.29-.29v-2.54a.3.3,0,0,1,.29-.3h6.74a.29.29,0,0,0,.29-.29Z"/><path class="cls-4" d="M609.22,624v-5.4c0-.38-.12-.78-.45-.78H592.65a.75.75,0,0,0-.75.75V624"/><path class="cls-4" d="M591.9,624V618.6a.75.75,0,0,1,.75-.75h22.08a.75.75,0,0,1,.75.75V624"/><path class="cls-3" d="M591.9,148.44v-6.32h0a.29.29,0,0,1,.29-.29h34a.29.29,0,0,1,.29.29v6.34a.34.34,0,0,0,.33.3h6.71a.29.29,0,0,1,.29.3v2.5a.3.3,0,0,1-.29.3h-6.74a.3.3,0,0,0-.3.29v24a.29.29,0,0,1-.29.29h-34a.29.29,0,0,1-.3-.29V152.18h0a.3.3,0,0,0-.3-.29h-6.74a.29.29,0,0,1-.29-.29v-2.54a.29.29,0,0,1,.29-.3h6.74a.29.29,0,0,0,.29-.29Z"/><path class="cls-4" d="M609.22,141.86v-5.4c0-.38-.12-.78-.45-.78H592.65a.75.75,0,0,0-.75.75v5.43"/><path class="cls-4" d="M591.9,141.86v-5.43a.75.75,0,0,1,.75-.75h22.08a.75.75,0,0,1,.75.75v5.43"/><path class="cls-3" d="M591.9,228.84v-6.31h0a.3.3,0,0,1,.29-.3h34a.3.3,0,0,1,.29.3v6.34a.34.34,0,0,0,.33.3h6.71a.29.29,0,0,1,.29.29V232a.29.29,0,0,1-.29.29h-6.74a.3.3,0,0,0-.3.29v24a.3.3,0,0,1-.29.3h-34a.3.3,0,0,1-.3-.3V232.59h0a.3.3,0,0,0-.3-.29h-6.74a.3.3,0,0,1-.29-.3v-2.54a.29.29,0,0,1,.29-.29h6.74a.29.29,0,0,0,.29-.3Z"/><path class="cls-4" d="M609.22,222.27v-5.41c0-.38-.12-.78-.45-.78H592.65a.76.76,0,0,0-.75.75v5.44"/><path class="cls-4" d="M591.9,222.27v-5.44a.76.76,0,0,1,.75-.75h22.08a.76.76,0,0,1,.75.75v5.44"/><path class="cls-3" d="M591.9,309.12V302.8h0a.29.29,0,0,1,.29-.29h34a.29.29,0,0,1,.29.29v6.34a.34.34,0,0,0,.33.3h6.71a.29.29,0,0,1,.29.3v2.5a.3.3,0,0,1-.29.3h-6.74a.3.3,0,0,0-.3.29v24a.29.29,0,0,1-.29.29h-34a.29.29,0,0,1-.3-.29V312.86h0a.3.3,0,0,0-.3-.29h-6.74a.29.29,0,0,1-.29-.29v-2.54a.29.29,0,0,1,.29-.3h6.74a.29.29,0,0,0,.29-.29Z"/><path class="cls-4" d="M609.22,302.54v-5.4c0-.38-.12-.78-.45-.78H592.65a.75.75,0,0,0-.75.75v5.43"/><path class="cls-4" d="M591.9,302.54v-5.43a.75.75,0,0,1,.75-.75h22.08a.75.75,0,0,1,.75.75v5.43"/><path class="cls-3" d="M591.9,711V704.7h0a.29.29,0,0,1,.29-.29h34a.29.29,0,0,1,.29.29V711a.34.34,0,0,0,.33.3h6.71a.29.29,0,0,1,.29.29v2.51a.29.29,0,0,1-.29.29h-6.74a.3.3,0,0,0-.3.29v24a.29.29,0,0,1-.29.3h-34a.29.29,0,0,1-.3-.3V714.76h0a.3.3,0,0,0-.3-.29h-6.74a.29.29,0,0,1-.29-.3v-2.54a.29.29,0,0,1,.29-.29h6.74a.29.29,0,0,0,.29-.29Z"/><path class="cls-4" d="M609.22,704.44V699c0-.38-.12-.78-.45-.78H592.65a.76.76,0,0,0-.75.75v5.44"/><path class="cls-4" d="M591.9,704.44V699a.76.76,0,0,1,.75-.75h22.08a.76.76,0,0,1,.75.75v5.44"/><path class="cls-3" d="M832.92,389.48v-6.31h0a.3.3,0,0,1,.3-.3h34a.3.3,0,0,1,.29.3v6.34a.34.34,0,0,0,.33.3h6.71a.29.29,0,0,1,.29.29v2.51a.29.29,0,0,1-.29.29h-6.74a.3.3,0,0,0-.3.29v24a.3.3,0,0,1-.29.3h-34a.3.3,0,0,1-.3-.3V393.23h0a.3.3,0,0,0-.3-.29h-6.74a.29.29,0,0,1-.29-.3V390.1a.29.29,0,0,1,.29-.29h6.74a.29.29,0,0,0,.29-.29Z"/><path class="cls-4" d="M850.24,382.91V377.5c0-.38-.12-.78-.45-.78H833.67a.76.76,0,0,0-.75.75v5.44"/><path class="cls-4" d="M832.92,382.91v-5.44a.76.76,0,0,1,.75-.75h22.08a.76.76,0,0,1,.75.75v5.44"/><path class="cls-3" d="M832.92,469.89v-6.32h0a.29.29,0,0,1,.3-.29h34a.29.29,0,0,1,.29.29v6.34a.34.34,0,0,0,.33.3h6.71a.29.29,0,0,1,.29.3V473a.29.29,0,0,1-.29.3h-6.74a.3.3,0,0,0-.3.29v24a.29.29,0,0,1-.29.29h-34a.29.29,0,0,1-.3-.29V473.63h0a.3.3,0,0,0-.3-.29h-6.74a.29.29,0,0,1-.29-.29v-2.54a.29.29,0,0,1,.29-.3h6.74a.29.29,0,0,0,.29-.29Z"/><path class="cls-4" d="M850.24,463.31v-5.4c0-.38-.12-.78-.45-.78H833.67a.75.75,0,0,0-.75.75v5.43"/><path class="cls-4" d="M832.92,463.31v-5.43a.75.75,0,0,1,.75-.75h22.08a.75.75,0,0,1,.75.75v5.43"/><path class="cls-3" d="M832.92,550.29V544h0a.29.29,0,0,1,.3-.29h34a.29.29,0,0,1,.29.29v6.34a.34.34,0,0,0,.33.3h6.71a.29.29,0,0,1,.29.29v2.51a.29.29,0,0,1-.29.29h-6.74a.3.3,0,0,0-.3.29v24a.29.29,0,0,1-.29.3h-34a.29.29,0,0,1-.3-.3V554h0a.3.3,0,0,0-.3-.29h-6.74a.29.29,0,0,1-.29-.3v-2.54a.29.29,0,0,1,.29-.29h6.74a.29.29,0,0,0,.29-.29Z"/><path class="cls-4" d="M850.24,543.72v-5.41c0-.38-.12-.78-.45-.78H833.67a.76.76,0,0,0-.75.75v5.44"/><path class="cls-4" d="M832.92,543.72v-5.44a.76.76,0,0,1,.75-.75h22.08a.76.76,0,0,1,.75.75v5.44"/><path class="cls-3" d="M832.92,630.57v-6.32h0a.29.29,0,0,1,.3-.29h34a.29.29,0,0,1,.29.29v6.34a.33.33,0,0,0,.33.3h6.71a.3.3,0,0,1,.29.3v2.5a.29.29,0,0,1-.29.3h-6.74a.3.3,0,0,0-.3.29v24a.29.29,0,0,1-.29.29h-34a.29.29,0,0,1-.3-.29V634.31h0a.3.3,0,0,0-.3-.29h-6.74a.29.29,0,0,1-.29-.29v-2.54a.3.3,0,0,1,.29-.3h6.74a.29.29,0,0,0,.29-.29Z"/><path class="cls-4" d="M850.24,624v-5.4c0-.38-.12-.78-.45-.78H833.67a.75.75,0,0,0-.75.75V624"/><path class="cls-4" d="M832.92,624v-5.43a.75.75,0,0,1,.75-.75h22.08a.75.75,0,0,1,.75.75V624"/><path class="cls-3" d="M832.92,148.4v-6.32h0a.29.29,0,0,1,.3-.29h34a.29.29,0,0,1,.29.29v6.34a.34.34,0,0,0,.33.3h6.71a.29.29,0,0,1,.29.3v2.5a.3.3,0,0,1-.29.3h-6.74a.3.3,0,0,0-.3.29v24a.29.29,0,0,1-.29.29h-34a.29.29,0,0,1-.3-.29V152.14h0a.3.3,0,0,0-.3-.29h-6.74a.29.29,0,0,1-.29-.29V149a.29.29,0,0,1,.29-.3h6.74a.29.29,0,0,0,.29-.29Z"/><path class="cls-4" d="M850.24,141.82v-5.4c0-.38-.12-.78-.45-.78H833.67a.75.75,0,0,0-.75.75v5.43"/><path class="cls-4" d="M832.92,141.82v-5.43a.75.75,0,0,1,.75-.75h22.08a.75.75,0,0,1,.75.75v5.43"/><path class="cls-3" d="M832.92,228.8v-6.31h0a.3.3,0,0,1,.3-.3h34a.3.3,0,0,1,.29.3v6.34a.34.34,0,0,0,.33.3h6.71a.29.29,0,0,1,.29.29v2.51a.29.29,0,0,1-.29.29h-6.74a.3.3,0,0,0-.3.29v24a.3.3,0,0,1-.29.3h-34a.3.3,0,0,1-.3-.3V232.55h0a.3.3,0,0,0-.3-.29h-6.74a.3.3,0,0,1-.29-.3v-2.54a.29.29,0,0,1,.29-.29h6.74a.29.29,0,0,0,.29-.29Z"/><path class="cls-4" d="M850.24,222.23v-5.41c0-.38-.12-.78-.45-.78H833.67a.76.76,0,0,0-.75.75v5.44"/><path class="cls-4" d="M832.92,222.23v-5.44a.76.76,0,0,1,.75-.75h22.08a.76.76,0,0,1,.75.75v5.44"/><path class="cls-3" d="M832.92,309.08v-6.32h0a.29.29,0,0,1,.3-.29h34a.29.29,0,0,1,.29.29v6.34a.34.34,0,0,0,.33.3h6.71a.29.29,0,0,1,.29.3v2.5a.3.3,0,0,1-.29.3h-6.74a.3.3,0,0,0-.3.29v24a.29.29,0,0,1-.29.29h-34a.29.29,0,0,1-.3-.29V312.82h0a.3.3,0,0,0-.3-.29h-6.74a.29.29,0,0,1-.29-.29V309.7a.29.29,0,0,1,.29-.3h6.74a.29.29,0,0,0,.29-.29Z"/><path class="cls-4" d="M850.24,302.5v-5.4c0-.38-.12-.78-.45-.78H833.67a.75.75,0,0,0-.75.75v5.43"/><path class="cls-4" d="M832.92,302.5v-5.43a.75.75,0,0,1,.75-.75h22.08a.75.75,0,0,1,.75.75v5.43"/><path class="cls-3" d="M832.92,711v-6.31h0a.29.29,0,0,1,.3-.29h34a.29.29,0,0,1,.29.29V711a.34.34,0,0,0,.33.3h6.71a.29.29,0,0,1,.29.29v2.51a.29.29,0,0,1-.29.29h-6.74a.3.3,0,0,0-.3.3v23.95a.29.29,0,0,1-.29.3h-34a.29.29,0,0,1-.3-.3V714.72h0a.3.3,0,0,0-.3-.29h-6.74a.29.29,0,0,1-.29-.3v-2.54a.29.29,0,0,1,.29-.29h6.74a.29.29,0,0,0,.29-.29Z"/><path class="cls-4" d="M850.24,704.4V699c0-.38-.12-.78-.45-.78H833.67a.76.76,0,0,0-.75.75v5.44"/><path class="cls-4" d="M832.92,704.4V699a.76.76,0,0,1,.75-.75h22.08a.76.76,0,0,1,.75.75v5.44"/><path class="cls-3" d="M752.58,389.49v-6.32h0a.29.29,0,0,1,.3-.29h34a.29.29,0,0,1,.29.29v6.34a.34.34,0,0,0,.33.3h6.71a.29.29,0,0,1,.29.3v2.5a.29.29,0,0,1-.29.29h-6.74a.31.31,0,0,0-.3.3v24a.29.29,0,0,1-.29.29h-34a.29.29,0,0,1-.3-.29V393.23h0a.3.3,0,0,0-.3-.29h-6.74a.29.29,0,0,1-.29-.29v-2.54a.29.29,0,0,1,.29-.3h6.74a.29.29,0,0,0,.29-.29Z"/><path class="cls-4" d="M769.9,382.91v-5.4c0-.38-.12-.78-.45-.78H753.33a.75.75,0,0,0-.75.74v5.44"/><path class="cls-4" d="M752.58,382.91v-5.44a.75.75,0,0,1,.75-.74h22.08a.75.75,0,0,1,.75.74v5.44"/><path class="cls-3" d="M752.58,469.89v-6.31h0a.29.29,0,0,1,.3-.3h34a.29.29,0,0,1,.29.3v6.34a.34.34,0,0,0,.33.3h6.71a.29.29,0,0,1,.29.29V473a.29.29,0,0,1-.29.29h-6.74a.3.3,0,0,0-.3.29v24a.29.29,0,0,1-.29.29h-34a.29.29,0,0,1-.3-.29V473.64h0a.3.3,0,0,0-.3-.29h-6.74a.3.3,0,0,1-.29-.3v-2.54a.29.29,0,0,1,.29-.29h6.74a.29.29,0,0,0,.29-.3Z"/><path class="cls-4" d="M769.9,463.32v-5.41c0-.38-.12-.78-.45-.78H753.33a.76.76,0,0,0-.75.75v5.44"/><path class="cls-4" d="M752.58,463.32v-5.44a.76.76,0,0,1,.75-.75h22.08a.76.76,0,0,1,.75.75v5.44"/><path class="cls-3" d="M752.58,550.3V544h0a.29.29,0,0,1,.3-.29h34a.29.29,0,0,1,.29.29v6.34a.34.34,0,0,0,.33.3h6.71a.29.29,0,0,1,.29.3v2.5a.3.3,0,0,1-.29.3h-6.74a.3.3,0,0,0-.3.29v24a.29.29,0,0,1-.29.29h-34a.29.29,0,0,1-.3-.29V554h0a.3.3,0,0,0-.3-.29h-6.74a.29.29,0,0,1-.29-.29v-2.54a.29.29,0,0,1,.29-.3h6.74a.29.29,0,0,0,.29-.29Z"/><path class="cls-4" d="M769.9,543.72v-5.4c0-.38-.12-.78-.45-.78H753.33a.75.75,0,0,0-.75.75v5.43"/><path class="cls-4" d="M752.58,543.72v-5.43a.75.75,0,0,1,.75-.75h22.08a.75.75,0,0,1,.75.75v5.43"/><path class="cls-3" d="M752.58,630.57v-6.31h0a.3.3,0,0,1,.3-.3h34a.3.3,0,0,1,.29.3v6.34a.34.34,0,0,0,.33.3h6.71a.29.29,0,0,1,.29.29v2.51a.29.29,0,0,1-.29.29h-6.74a.3.3,0,0,0-.3.29v24a.3.3,0,0,1-.29.3h-34a.3.3,0,0,1-.3-.3V634.32h0a.3.3,0,0,0-.3-.29h-6.74a.3.3,0,0,1-.29-.3v-2.54a.29.29,0,0,1,.29-.29h6.74a.29.29,0,0,0,.29-.3Z"/><path class="cls-4" d="M769.9,624v-5.41c0-.38-.12-.78-.45-.78H753.33a.76.76,0,0,0-.75.75V624"/><path class="cls-4" d="M752.58,624v-5.44a.76.76,0,0,1,.75-.75h22.08a.76.76,0,0,1,.75.75V624"/><path class="cls-3" d="M752.58,148.4v-6.31h0a.29.29,0,0,1,.3-.3h34a.29.29,0,0,1,.29.3v6.34a.34.34,0,0,0,.33.3h6.71a.29.29,0,0,1,.29.29v2.51a.29.29,0,0,1-.29.29h-6.74a.3.3,0,0,0-.3.29v24a.29.29,0,0,1-.29.29h-34a.29.29,0,0,1-.3-.29V152.15h0a.31.31,0,0,0-.3-.3h-6.74a.29.29,0,0,1-.29-.29V149a.29.29,0,0,1,.29-.29h6.74a.29.29,0,0,0,.29-.3Z"/><path class="cls-4" d="M769.9,141.83v-5.41c0-.38-.12-.78-.45-.78H753.33a.76.76,0,0,0-.75.75v5.44"/><path class="cls-4" d="M752.58,141.83v-5.44a.76.76,0,0,1,.75-.75h22.08a.76.76,0,0,1,.75.75v5.44"/><path class="cls-3" d="M752.58,228.81v-6.32h0a.29.29,0,0,1,.3-.29h34a.29.29,0,0,1,.29.29v6.34a.34.34,0,0,0,.33.3h6.71a.29.29,0,0,1,.29.29v2.51a.29.29,0,0,1-.29.29h-6.74a.31.31,0,0,0-.3.3v24a.29.29,0,0,1-.29.29h-34a.29.29,0,0,1-.3-.29V232.55h0a.3.3,0,0,0-.3-.29h-6.74a.29.29,0,0,1-.29-.29v-2.55a.29.29,0,0,1,.29-.29h6.74a.29.29,0,0,0,.29-.29Z"/><path class="cls-4" d="M769.9,222.23v-5.4c0-.38-.12-.78-.45-.78H753.33a.75.75,0,0,0-.75.74v5.44"/><path class="cls-4" d="M752.58,222.23v-5.44a.75.75,0,0,1,.75-.74h22.08a.75.75,0,0,1,.75.74v5.44"/><path class="cls-3" d="M752.58,309.08v-6.31h0a.29.29,0,0,1,.3-.3h34a.29.29,0,0,1,.29.3v6.34a.34.34,0,0,0,.33.3h6.71a.29.29,0,0,1,.29.29v2.51a.29.29,0,0,1-.29.29h-6.74a.3.3,0,0,0-.3.29v24a.29.29,0,0,1-.29.29h-34a.29.29,0,0,1-.3-.29V312.83h0a.31.31,0,0,0-.3-.3h-6.74a.29.29,0,0,1-.29-.29V309.7a.29.29,0,0,1,.29-.29h6.74a.29.29,0,0,0,.29-.3Z"/><path class="cls-4" d="M769.9,302.51V297.1c0-.38-.12-.78-.45-.78H753.33a.76.76,0,0,0-.75.75v5.44"/><path class="cls-4" d="M752.58,302.51v-5.44a.76.76,0,0,1,.75-.75h22.08a.76.76,0,0,1,.75.75v5.44"/><path class="cls-3" d="M752.58,711v-6.32h0a.29.29,0,0,1,.3-.29h34a.29.29,0,0,1,.29.29V711a.34.34,0,0,0,.33.3h6.71a.29.29,0,0,1,.29.3v2.5a.3.3,0,0,1-.29.3h-6.74a.3.3,0,0,0-.3.29v24a.29.29,0,0,1-.29.29h-34a.29.29,0,0,1-.3-.29V714.72h0a.3.3,0,0,0-.3-.29h-6.74a.29.29,0,0,1-.29-.29V711.6a.29.29,0,0,1,.29-.3h6.74a.29.29,0,0,0,.29-.29Z"/><path class="cls-4" d="M769.9,704.4V699c0-.38-.12-.78-.45-.78H753.33a.75.75,0,0,0-.75.75v5.43"/><path class="cls-4" d="M752.58,704.4V699a.75.75,0,0,1,.75-.75h22.08a.75.75,0,0,1,.75.75v5.43"/><rect class="cls-1" x="200.16" y="-200" width="800" height="1200" transform="translate(1000.16 -200.16) rotate(90)"/></g></g></svg>