<svg xmlns="http://www.w3.org/2000/svg" viewBox="0 0 495.806 528.187"><g data-name="Layer 2"><path d="M27.298 120.333v-11.016a11.93 11.93 0 0 1 .683-4.464 11.671 11.671 0 0 1 9.54-7.632v4.752a6.36 6.36 0 0 0-3.744 2.772 9.231 9.231 0 0 0-1.008 4.5h4.752v11.088zm15.336 0v-11.016a11.918 11.918 0 0 1 .684-4.464 11.599 11.599 0 0 1 2.124-3.672 11.783 11.783 0 0 1 7.416-3.96v4.752a6.36 6.36 0 0 0-3.744 2.772 9.23 9.23 0 0 0-1.009 4.5h4.753v11.088zm390.811 234.888v11.017a11.956 11.956 0 0 1-.684 4.464 11.668 11.668 0 0 1-9.54 7.632v-4.752a6.362 6.362 0 0 0 3.744-2.773 9.239 9.239 0 0 0 1.008-4.5h-4.752v-11.088zm15.336 0v11.017a11.956 11.956 0 0 1-.684 4.464 11.668 11.668 0 0 1-9.54 7.632v-4.752a6.362 6.362 0 0 0 3.744-2.773 9.239 9.239 0 0 0 1.007-4.5h-4.752v-11.088z" fill="#4559a8"/><path d="M86.37 133.63V118.69l-4.896 9.719h-3.383l-4.931-9.719v14.938h-5.004V108h4.931l6.696 13.858L86.442 108h4.93v25.629zm23.58-2.089a7.835 7.835 0 0 1-5.831 2.304 7.745 7.745 0 0 1-5.796-2.304c-1.691-1.8-2.123-3.923-2.123-7.307s.432-5.471 2.123-7.27a8.486 8.486 0 0 1 11.627 0c1.692 1.8 2.124 3.887 2.124 7.27s-.396 5.544-2.124 7.307zm-3.635-11.842a2.959 2.959 0 0 0-2.196-.828 2.929 2.929 0 0 0-2.16.828c-.972.936-1.08 2.627-1.08 4.535 0 1.944.108 3.636 1.08 4.572a2.93 2.93 0 0 0 2.16.827 2.96 2.96 0 0 0 2.196-.827c.971-.936 1.08-2.628 1.08-4.572 0-1.908-.109-3.599-1.08-4.535zm16.38 14.146c-2.952 0-5.58-.324-7.991-2.7l3.06-3.06a6.762 6.762 0 0 0 5.003 1.764c1.62 0 3.312-.54 3.312-1.944 0-.936-.468-1.584-1.98-1.728l-3.024-.288c-3.311-.323-5.399-1.8-5.399-5.255 0-3.923 3.42-5.975 7.235-5.975 2.952 0 5.364.54 7.163 2.196l-2.88 2.915a6.459 6.459 0 0 0-4.355-1.26c-1.871 0-2.663.864-2.663 1.8s.54 1.476 1.943 1.62l2.952.288c3.708.36 5.58 2.304 5.58 5.507-.001 4.14-3.529 6.12-7.956 6.12zm17.424-.216a5.086 5.086 0 0 1-5.436-5.363v-9.287h-1.98v-3.564h1.98v-5.543h4.68v5.543h3.312v3.564h-3.312v8.999c0 1.08.504 1.692 1.62 1.692h1.692v3.96zm26.063 0v-11.338c0-2.556-1.62-3.42-3.096-3.42s-3.132.864-3.132 3.42v11.338h-4.68v-18.753h4.572v1.727a6.417 6.417 0 0 1 4.68-1.944 6.09 6.09 0 0 1 4.427 1.656 6.95 6.95 0 0 1 1.908 5.328v11.986zm13.393-7.919a3.837 3.837 0 0 0 4.103 4.176 5.3 5.3 0 0 0 4.248-1.764l2.843 2.771a8.817 8.817 0 0 1-7.127 2.952c-4.427 0-8.675-2.016-8.675-9.61 0-6.12 3.312-9.576 8.171-9.576 5.22 0 8.171 3.744 8.171 9.071v1.98zm6.694-5.219a3.494 3.494 0 0 0-6.263 0 4.602 4.602 0 0 0-.431 2.016h7.127a4.596 4.596 0 0 0-.433-2.016zm13.033 5.219a3.837 3.837 0 0 0 4.104 4.175 5.298 5.298 0 0 0 4.247-1.763l2.843 2.771a8.817 8.817 0 0 1-7.127 2.952c-4.427 0-8.674-2.016-8.674-9.611 0-6.12 3.311-9.575 8.17-9.575 5.22 0 8.171 3.744 8.171 9.071v1.98zm6.695-5.22a3.494 3.494 0 0 0-6.263 0 4.603 4.603 0 0 0-.432 2.016h7.127a4.602 4.602 0 0 0-.432-2.015zm19.728 13.139v-1.764a5.63 5.63 0 0 1-4.644 1.98 6.316 6.316 0 0 1-4.571-1.691c-1.8-1.836-1.943-4.752-1.943-7.92 0-3.131.143-6.047 1.943-7.883a6.227 6.227 0 0 1 4.536-1.692 5.619 5.619 0 0 1 4.572 1.872V108h4.678v25.629zm-3.312-14.758c-2.807 0-3.167 2.34-3.167 5.363s.36 5.4 3.167 5.4 3.204-2.376 3.204-5.4-.396-5.363-3.204-5.363zm16.812 6.839a3.837 3.837 0 0 0 4.103 4.175 5.302 5.302 0 0 0 4.248-1.763l2.845 2.771a8.82 8.82 0 0 1-7.129 2.952c-4.427 0-8.675-2.016-8.675-9.611 0-6.12 3.312-9.575 8.171-9.575 5.22 0 8.173 3.744 8.173 9.071v1.98zm6.695-5.22a3.494 3.494 0 0 0-6.262 0 4.595 4.595 0 0 0-.433 2.016h7.128a4.595 4.595 0 0 0-.433-2.015zm19.728 13.139v-1.764a5.63 5.63 0 0 1-4.643 1.98 6.316 6.316 0 0 1-4.572-1.691c-1.8-1.836-1.943-4.752-1.943-7.92 0-3.131.144-6.047 1.943-7.883a6.226 6.226 0 0 1 4.536-1.692 5.619 5.619 0 0 1 4.572 1.872V108h4.679v25.629zm-3.311-14.758c-2.808 0-3.167 2.34-3.167 5.363s.36 5.4 3.167 5.4 3.204-2.376 3.204-5.4-.397-5.363-3.204-5.363zm31.103 14.758v-1.62a5.698 5.698 0 0 1-4.607 1.8 6.486 6.486 0 0 1-4.788-1.656 6.01 6.01 0 0 1-1.547-4.212c0-2.987 2.051-5.435 6.48-5.435h4.355v-.936c0-2.051-1.008-2.951-3.492-2.951a4.15 4.15 0 0 0-3.6 1.62l-2.951-2.916c1.836-2.016 3.6-2.664 6.731-2.664 5.291 0 7.99 2.232 7.99 6.623v12.347zm-.107-7.919h-3.564c-1.872 0-2.772.756-2.772 2.16 0 1.296.9 2.124 2.843 2.124a3.56 3.56 0 0 0 2.772-.9 2.9 2.9 0 0 0 .72-2.376zm19.907-5.723a3.128 3.128 0 0 0-5.508 2.34v11.302h-4.679v-18.753h4.572v1.799a6.348 6.348 0 0 1 4.714-2.016 5.659 5.659 0 0 1 4.428 1.764zm8.783 5.723a3.837 3.837 0 0 0 4.104 4.176 5.302 5.302 0 0 0 4.248-1.764l2.843 2.771a8.82 8.82 0 0 1-7.127 2.952c-4.427 0-8.675-2.016-8.675-9.61 0-6.12 3.311-9.576 8.17-9.576 5.22 0 8.172 3.744 8.172 9.071v1.98zm6.695-5.219a3.494 3.494 0 0 0-6.262 0 4.595 4.595 0 0 0-.433 2.016h7.128a4.595 4.595 0 0 0-.433-2.016zm23.582 13.138a5.086 5.086 0 0 1-5.436-5.363v-9.287h-1.98v-3.564h1.98v-5.543h4.68v5.543h3.312v3.564h-3.311v8.999c0 1.08.503 1.692 1.619 1.692h1.692v3.96zm17.71 0v-11.338c0-2.556-1.62-3.42-3.095-3.42s-3.132.864-3.132 3.42v11.338h-4.678V108h4.678v8.603a6.015 6.015 0 0 1 4.573-1.944 6.089 6.089 0 0 1 4.426 1.656 6.95 6.95 0 0 1 1.909 5.328v11.986zm22.68-2.088a7.833 7.833 0 0 1-5.83 2.304 7.744 7.744 0 0 1-5.795-2.304c-1.692-1.8-2.124-3.923-2.124-7.307s.432-5.471 2.124-7.27a8.486 8.486 0 0 1 11.626 0c1.692 1.8 2.124 3.887 2.124 7.27s-.397 5.544-2.125 7.307zm-3.635-11.842a3.277 3.277 0 0 0-4.355 0c-.972.936-1.08 2.627-1.08 4.535 0 1.944.108 3.636 1.08 4.572a3.279 3.279 0 0 0 4.355 0c.973-.936 1.08-2.628 1.08-4.572 0-1.908-.108-3.599-1.08-4.535zm16.381 14.146c-2.952 0-5.58-.324-7.991-2.7l3.06-3.06a6.762 6.762 0 0 0 5.003 1.764c1.62 0 3.311-.54 3.311-1.944 0-.936-.467-1.584-1.98-1.728l-3.023-.288c-3.311-.323-5.4-1.8-5.4-5.255 0-3.923 3.42-5.975 7.236-5.975 2.951 0 5.364.54 7.163 2.196l-2.88 2.915a6.46 6.46 0 0 0-4.355-1.26c-1.872 0-2.663.864-2.663 1.8s.539 1.476 1.943 1.62l2.951.288c3.708.36 5.58 2.304 5.58 5.507-.001 4.14-3.529 6.12-7.956 6.12zm15.55-8.135a3.837 3.837 0 0 0 4.104 4.176 5.302 5.302 0 0 0 4.248-1.764l2.844 2.771a8.82 8.82 0 0 1-7.127 2.952c-4.428 0-8.676-2.016-8.676-9.61 0-6.12 3.312-9.576 8.171-9.576 5.22 0 8.172 3.744 8.172 9.071v1.98zm6.696-5.219a3.494 3.494 0 0 0-6.263 0 4.596 4.596 0 0 0-.432 2.016h7.128a4.595 4.595 0 0 0-.434-2.016zM25.857 154.595V147h4.427v7.595zm19.654-3.131v21.165h-5.003v-21.165h-6.695V147h18.394v4.463zm21.312 21.165v-11.338c0-2.556-1.62-3.42-3.096-3.42s-3.131.864-3.131 3.42v11.338h-4.68V147h4.68v8.603a6.012 6.012 0 0 1 4.571-1.944 6.09 6.09 0 0 1 4.428 1.656 6.95 6.95 0 0 1 1.908 5.328v11.986zm9.65-21.957v-3.816h4.787v3.816zm.072 21.957v-18.214h4.68v18.214zm20.087-13.642a3.128 3.128 0 0 0-5.508 2.34v11.302h-4.68v-18.753h4.572v1.799a6.35 6.35 0 0 1 4.715-2.016 5.658 5.658 0 0 1 4.428 1.764zm15.515 13.642v-1.763a5.63 5.63 0 0 1-4.643 1.98 6.316 6.316 0 0 1-4.572-1.692c-1.8-1.836-1.943-4.751-1.943-7.92 0-3.13.144-6.046 1.943-7.882a6.226 6.226 0 0 1 4.536-1.692 5.617 5.617 0 0 1 4.57 1.872V147h4.68v25.629zm-3.312-14.758c-2.807 0-3.167 2.34-3.167 5.363s.36 5.4 3.167 5.4 3.204-2.376 3.204-5.4-.397-5.363-3.204-5.363zm31.787 5.111h-4.93v9.647h-5.004V147h9.934c5.328 0 8.46 3.636 8.46 7.991s-3.133 7.991-8.46 7.991zm-.252-11.518h-4.679v7.02h4.679a3.515 3.515 0 1 0 0-7.02zm17.857 21.165a5.096 5.096 0 0 1-5.471-5.363V147h4.679v19.978c0 1.115.468 1.691 1.656 1.691h1.8v3.96zm16.019 0v-1.62a5.699 5.699 0 0 1-4.607 1.8 6.486 6.486 0 0 1-4.788-1.656 6.01 6.01 0 0 1-1.547-4.212c0-2.987 2.051-5.435 6.479-5.435h4.355v-.936c0-2.051-1.008-2.951-3.492-2.951a4.148 4.148 0 0 0-3.599 1.62l-2.951-2.916c1.835-2.016 3.6-2.664 6.73-2.664 5.292 0 7.992 2.232 7.992 6.623v12.347zm-.108-7.919h-3.564c-1.872 0-2.772.756-2.772 2.16 0 1.296.9 2.124 2.844 2.124a3.562 3.562 0 0 0 2.772-.9 2.9 2.9 0 0 0 .72-2.376zm17.172 8.135c-3.743 0-8.387-2.016-8.387-9.61s4.644-9.576 8.387-9.576a7.987 7.987 0 0 1 6.191 2.52l-3.167 3.168a3.787 3.787 0 0 0-3.024-1.476 3.245 3.245 0 0 0-2.664 1.224 6.356 6.356 0 0 0-1.044 4.14 6.471 6.471 0 0 0 1.044 4.175 3.247 3.247 0 0 0 2.664 1.224 3.787 3.787 0 0 0 3.024-1.476l3.167 3.131a8.015 8.015 0 0 1-6.191 2.556zm12.96-8.135a3.837 3.837 0 0 0 4.103 4.175 5.302 5.302 0 0 0 4.248-1.763l2.844 2.771a8.82 8.82 0 0 1-7.128 2.952c-4.427 0-8.674-2.016-8.674-9.61 0-6.12 3.311-9.576 8.17-9.576 5.22 0 8.172 3.744 8.172 9.071v1.98zm6.695-5.219a3.494 3.494 0 0 0-6.263 0 4.595 4.595 0 0 0-.432 2.016h7.127a4.595 4.595 0 0 0-.432-2.016zm15.516 13.354c-2.952 0-5.58-.324-7.99-2.7l3.06-3.06a6.762 6.762 0 0 0 5.002 1.764c1.62 0 3.312-.54 3.312-1.944 0-.936-.468-1.584-1.98-1.728l-3.024-.288c-3.311-.324-5.4-1.8-5.4-5.255 0-3.924 3.42-5.975 7.236-5.975 2.951 0 5.363.54 7.163 2.195l-2.88 2.916a6.46 6.46 0 0 0-4.355-1.26c-1.872 0-2.663.864-2.663 1.8s.539 1.476 1.943 1.62l2.951.288c3.708.36 5.58 2.304 5.58 5.507 0 4.14-3.528 6.12-7.954 6.12zm11.7-18.25V147h4.429v7.595zm36.682 18.034h-3.852l-3.923-11.77-3.924 11.77h-3.851l-5.76-18.754h4.968l3.023 11.59 3.815-11.59h3.42l3.852 11.59 3.023-11.59h4.932zm19.404 0V161.29c0-2.556-1.62-3.42-3.096-3.42s-3.132.864-3.132 3.42v11.338h-4.678V147h4.679v8.603a6.015 6.015 0 0 1 4.572-1.944 6.089 6.089 0 0 1 4.427 1.656 6.95 6.95 0 0 1 1.908 5.328v11.986zm9.65-21.957v-3.816h4.786v3.816zm.072 21.957v-18.214h4.678v18.214zm17.351.215c-3.744 0-8.388-2.015-8.388-9.61s4.644-9.575 8.388-9.575a7.986 7.986 0 0 1 6.19 2.52l-3.167 3.167a3.787 3.787 0 0 0-3.023-1.476 3.245 3.245 0 0 0-2.664 1.224 6.355 6.355 0 0 0-1.044 4.14 6.47 6.47 0 0 0 1.044 4.175 3.246 3.246 0 0 0 2.664 1.224 3.786 3.786 0 0 0 3.023-1.476l3.167 3.132a8.013 8.013 0 0 1-6.19 2.556zm20.734-.215V161.29c0-2.556-1.62-3.42-3.095-3.42s-3.132.864-3.132 3.42v11.338h-4.679V147h4.679v8.603a6.015 6.015 0 0 1 4.572-1.944 6.089 6.089 0 0 1 4.427 1.656 6.95 6.95 0 0 1 1.908 5.328v11.986zm23.366 0a5.097 5.097 0 0 1-5.472-5.364V147h4.68v19.978c0 1.115.468 1.691 1.656 1.691h1.8v3.96zm9.72-7.92a3.837 3.837 0 0 0 4.103 4.176 5.302 5.302 0 0 0 4.248-1.764l2.844 2.772a8.82 8.82 0 0 1-7.127 2.951c-4.428 0-8.676-2.015-8.676-9.61 0-6.12 3.312-9.575 8.171-9.575 5.22 0 8.172 3.744 8.172 9.07v1.98zm6.695-5.219a3.494 3.494 0 0 0-6.263 0 4.595 4.595 0 0 0-.432 2.016h7.128a4.596 4.596 0 0 0-.433-2.015zm20.267 13.139V161.29c0-2.556-1.62-3.42-3.095-3.42s-3.132.864-3.132 3.42v11.338h-4.679v-18.753h4.572v1.727a6.417 6.417 0 0 1 4.68-1.944 6.089 6.089 0 0 1 4.426 1.656 6.95 6.95 0 0 1 1.908 5.328v11.986zm20.088 0v-1.764a5.63 5.63 0 0 1-4.643 1.98 6.316 6.316 0 0 1-4.571-1.691c-1.8-1.836-1.944-4.752-1.944-7.92 0-3.131.144-6.047 1.944-7.883a6.226 6.226 0 0 1 4.536-1.692 5.619 5.619 0 0 1 4.571 1.872V147h4.679v25.629zM418.9 157.87c-2.808 0-3.167 2.34-3.167 5.364s.36 5.399 3.167 5.399 3.204-2.375 3.204-5.4-.396-5.362-3.204-5.362zM35.648 211.63v-1.62a5.698 5.698 0 0 1-4.608 1.8 6.486 6.486 0 0 1-4.787-1.657 6.01 6.01 0 0 1-1.548-4.212c0-2.987 2.052-5.435 6.48-5.435h4.355v-.936c0-2.051-1.008-2.951-3.492-2.951a4.148 4.148 0 0 0-3.599 1.62l-2.951-2.916c1.835-2.016 3.6-2.664 6.73-2.664 5.292 0 7.992 2.232 7.992 6.623v12.347zm-.108-7.92h-3.564c-1.871 0-2.771.756-2.771 2.16 0 1.296.9 2.123 2.843 2.123a3.562 3.562 0 0 0 2.772-.9 2.9 2.9 0 0 0 .72-2.375zm31.823 6.443a6.287 6.287 0 0 1-4.535 1.692 5.5 5.5 0 0 1-4.536-1.872v8.53h-4.68v-25.627h4.536v1.763a5.657 5.657 0 0 1 4.68-1.98 6.285 6.285 0 0 1 4.535 1.692c1.8 1.836 1.944 4.752 1.944 7.883s-.144 6.084-1.944 7.92zm-5.903-13.282c-2.808 0-3.167 2.34-3.167 5.363s.36 5.4 3.167 5.4 3.167-2.376 3.167-5.4-.36-5.363-3.167-5.363zm23.111 14.758v-1.727a6.418 6.418 0 0 1-4.679 1.943 6.09 6.09 0 0 1-4.428-1.656 6.95 6.95 0 0 1-1.907-5.327v-11.986h4.68v11.338c0 2.556 1.62 3.42 3.095 3.42s3.132-.864 3.132-3.42v-11.338h4.679v18.753zm23.58-1.475a6.287 6.287 0 0 1-4.535 1.691 5.656 5.656 0 0 1-4.68-1.98v1.764H94.4V186h4.68v8.531a5.5 5.5 0 0 1 4.535-1.872 6.226 6.226 0 0 1 4.536 1.692c1.8 1.836 1.944 4.752 1.944 7.883 0 3.168-.144 6.084-1.944 7.92zm-5.903-13.283c-2.808 0-3.167 2.34-3.167 5.363s.36 5.4 3.167 5.4 3.167-2.376 3.167-5.4-.36-5.363-3.168-5.363zm17.604 14.758a5.096 5.096 0 0 1-5.47-5.363V186h4.678v19.978c0 1.115.468 1.691 1.656 1.691h1.8v3.96zm6.337-21.957v-3.816h4.788v3.816zm.072 21.957v-18.214h4.68v18.214zm17.35.216c-3.743 0-8.386-2.016-8.386-9.61s4.643-9.576 8.387-9.576a7.987 7.987 0 0 1 6.191 2.52l-3.167 3.168a3.787 3.787 0 0 0-3.024-1.476 3.245 3.245 0 0 0-2.664 1.224 6.356 6.356 0 0 0-1.044 4.14 6.471 6.471 0 0 0 1.044 4.175 3.247 3.247 0 0 0 2.664 1.223 3.787 3.787 0 0 0 3.024-1.475l3.167 3.131a8.015 8.015 0 0 1-6.192 2.556zm31.932-1.691a6.287 6.287 0 0 1-4.536 1.691 5.656 5.656 0 0 1-4.679-1.98v1.764h-4.536V186h4.68v8.531a5.5 5.5 0 0 1 4.536-1.872 6.226 6.226 0 0 1 4.535 1.692c1.8 1.836 1.944 4.752 1.944 7.883 0 3.168-.145 6.084-1.945 7.92zm-5.903-13.283c-2.808 0-3.168 2.34-3.168 5.363s.36 5.4 3.168 5.4 3.167-2.376 3.167-5.4-.36-5.363-3.168-5.363zm21.923 14.758v-1.62a5.7 5.7 0 0 1-4.607 1.8 6.486 6.486 0 0 1-4.788-1.656 6.01 6.01 0 0 1-1.548-4.212c0-2.987 2.052-5.435 6.48-5.435h4.355v-.936c0-2.051-1.008-2.951-3.491-2.951a4.149 4.149 0 0 0-3.6 1.62l-2.952-2.916c1.836-2.016 3.6-2.664 6.731-2.664 5.292 0 7.991 2.232 7.991 6.623v12.347zm-.108-7.919h-3.563c-1.872 0-2.772.756-2.772 2.16 0 1.296.9 2.124 2.844 2.124a3.562 3.562 0 0 0 2.771-.9 2.9 2.9 0 0 0 .72-2.376zm15.013 7.92a5.096 5.096 0 0 1-5.471-5.364V186h4.679v19.978c0 1.115.468 1.691 1.656 1.691h1.8v3.96zm16.02 0v-1.62a5.699 5.699 0 0 1-4.608 1.8 6.486 6.486 0 0 1-4.787-1.657 6.01 6.01 0 0 1-1.548-4.212c0-2.987 2.052-5.435 6.48-5.435h4.356v-.936c0-2.051-1.008-2.951-3.492-2.951a4.15 4.15 0 0 0-3.6 1.62l-2.952-2.916c1.836-2.016 3.6-2.664 6.732-2.664 5.29 0 7.99 2.232 7.99 6.623v12.347zm-.108-7.92h-3.563c-1.872 0-2.773.756-2.773 2.16 0 1.296.9 2.124 2.844 2.124a3.56 3.56 0 0 0 2.772-.9 2.9 2.9 0 0 0 .72-2.376zm20.627 7.92v-11.34c0-2.555-1.62-3.42-3.095-3.42s-3.132.865-3.132 3.42v11.34h-4.68v-18.754h4.571v1.727a6.417 6.417 0 0 1 4.68-1.944 6.089 6.089 0 0 1 4.427 1.656 6.95 6.95 0 0 1 1.908 5.328v11.986zm17.174.215c-3.745 0-8.388-2.016-8.388-9.61s4.643-9.576 8.388-9.576a7.984 7.984 0 0 1 6.19 2.52l-3.167 3.168a3.787 3.787 0 0 0-3.024-1.476 3.245 3.245 0 0 0-2.664 1.224 6.356 6.356 0 0 0-1.044 4.14 6.471 6.471 0 0 0 1.044 4.175 3.246 3.246 0 0 0 2.664 1.223 3.786 3.786 0 0 0 3.024-1.475l3.167 3.131a8.012 8.012 0 0 1-6.191 2.556zm12.959-8.135a3.837 3.837 0 0 0 4.103 4.175 5.302 5.302 0 0 0 4.248-1.763l2.844 2.771a8.82 8.82 0 0 1-7.127 2.952c-4.428 0-8.676-2.016-8.676-9.61 0-6.12 3.312-9.576 8.171-9.576 5.22 0 8.172 3.744 8.172 9.071v1.98zm6.695-5.219a3.494 3.494 0 0 0-6.263 0 4.595 4.595 0 0 0-.432 2.016h7.128a4.595 4.595 0 0 0-.434-2.016zm23.58 13.138a5.086 5.086 0 0 1-5.435-5.363v-9.287H296v-3.564h1.98v-5.543h4.68v5.543h3.312v3.564h-3.313v8.999c0 1.08.504 1.692 1.62 1.692h1.691v3.96zm19.62-2.088a7.834 7.834 0 0 1-5.832 2.304 7.744 7.744 0 0 1-5.795-2.304c-1.692-1.8-2.124-3.923-2.124-7.307s.432-5.471 2.124-7.27a8.486 8.486 0 0 1 11.626 0c1.692 1.8 2.124 3.887 2.124 7.27s-.398 5.544-2.125 7.307zm-3.637-11.842a3.277 3.277 0 0 0-4.355 0c-.972.936-1.08 2.627-1.08 4.535 0 1.944.108 3.636 1.08 4.572a3.279 3.279 0 0 0 4.355 0c.973-.936 1.08-2.628 1.08-4.572 0-1.908-.108-3.599-1.08-4.535zm24.445 13.93a5.086 5.086 0 0 1-5.436-5.363v-9.287h-1.98v-3.564h1.98v-5.543h4.68v5.543h3.312v3.564h-3.312v8.999c0 1.08.504 1.692 1.62 1.692h1.692v3.959zm17.71 0v-11.338c0-2.556-1.62-3.42-3.095-3.42s-3.132.864-3.132 3.42v11.338h-4.679V186h4.68v8.603a6.015 6.015 0 0 1 4.571-1.944 6.089 6.089 0 0 1 4.427 1.656 6.95 6.95 0 0 1 1.908 5.328v11.986zm13.393-7.919a3.837 3.837 0 0 0 4.104 4.175 5.302 5.302 0 0 0 4.248-1.763l2.844 2.771a8.82 8.82 0 0 1-7.127 2.952c-4.428 0-8.676-2.016-8.676-9.611 0-6.12 3.311-9.575 8.17-9.575 5.22 0 8.173 3.744 8.173 9.071v1.98zm6.696-5.22a3.494 3.494 0 0 0-6.263 0 4.595 4.595 0 0 0-.433 2.016h7.128a4.595 4.595 0 0 0-.434-2.015zM25.964 228.673v-3.816h4.788v3.816zm.072 21.957v-18.214h4.68v18.214zm20.807 0v-11.338c0-2.556-1.62-3.42-3.096-3.42s-3.131.864-3.131 3.42v11.338h-4.68v-18.753h4.571v1.727a6.417 6.417 0 0 1 4.68-1.944 6.09 6.09 0 0 1 4.427 1.656 6.95 6.95 0 0 1 1.908 5.328v11.986zm17.172.216c-3.743 0-8.387-2.016-8.387-9.61s4.644-9.576 8.387-9.576a7.987 7.987 0 0 1 6.191 2.52l-3.167 3.168a3.787 3.787 0 0 0-3.024-1.476 3.245 3.245 0 0 0-2.663 1.224 6.356 6.356 0 0 0-1.044 4.14 6.471 6.471 0 0 0 1.044 4.175 3.247 3.247 0 0 0 2.663 1.224 3.787 3.787 0 0 0 3.024-1.476l3.167 3.131a8.015 8.015 0 0 1-6.191 2.556zm20.015-13.858a3.128 3.128 0 0 0-5.507 2.34v11.302h-4.68v-18.753h4.572v1.799a6.35 6.35 0 0 1 4.715-2.016 5.658 5.658 0 0 1 4.428 1.764zm8.82 5.723a3.837 3.837 0 0 0 4.104 4.175 5.3 5.3 0 0 0 4.248-1.763l2.843 2.771a8.817 8.817 0 0 1-7.127 2.952c-4.427 0-8.675-2.016-8.675-9.61 0-6.12 3.312-9.576 8.171-9.576 5.22 0 8.17 3.744 8.17 9.071v1.98zm6.695-5.219a3.494 3.494 0 0 0-6.263 0 4.603 4.603 0 0 0-.432 2.016h7.127a4.595 4.595 0 0 0-.431-2.016zm18.972 13.138v-1.62a5.7 5.7 0 0 1-4.607 1.8 6.486 6.486 0 0 1-4.788-1.656 6.01 6.01 0 0 1-1.547-4.212c0-2.987 2.051-5.435 6.479-5.435h4.355v-.936c0-2.051-1.008-2.951-3.491-2.951a4.149 4.149 0 0 0-3.6 1.62l-2.952-2.916c1.836-2.016 3.6-2.664 6.731-2.664 5.292 0 7.991 2.232 7.991 6.623v12.347zm-.108-7.919h-3.563c-1.872 0-2.772.756-2.772 2.16 0 1.296.9 2.124 2.844 2.124a3.562 3.562 0 0 0 2.772-.9 2.9 2.9 0 0 0 .72-2.376zm15.877 8.135c-2.952 0-5.58-.324-7.991-2.7l3.06-3.06a6.762 6.762 0 0 0 5.003 1.764c1.62 0 3.312-.54 3.312-1.944 0-.936-.468-1.584-1.98-1.728l-3.024-.288c-3.311-.323-5.399-1.8-5.399-5.255 0-3.923 3.42-5.975 7.235-5.975 2.952 0 5.364.54 7.163 2.196l-2.88 2.915a6.459 6.459 0 0 0-4.355-1.26c-1.872 0-2.664.864-2.664 1.8s.54 1.476 1.944 1.62l2.952.288c3.707.36 5.579 2.304 5.579 5.507 0 4.14-3.527 6.12-7.955 6.12zm15.552-8.135a3.837 3.837 0 0 0 4.103 4.175 5.3 5.3 0 0 0 4.248-1.763l2.843 2.771a8.817 8.817 0 0 1-7.127 2.952c-4.427 0-8.675-2.016-8.675-9.61 0-6.12 3.312-9.576 8.171-9.576 5.22 0 8.171 3.744 8.171 9.071v1.98zm6.695-5.219a3.494 3.494 0 0 0-6.264 0 4.602 4.602 0 0 0-.431 2.016h7.127a4.595 4.595 0 0 0-.432-2.016zm19.727 13.138v-1.763a5.63 5.63 0 0 1-4.643 1.98 6.316 6.316 0 0 1-4.572-1.692c-1.799-1.836-1.943-4.751-1.943-7.92 0-3.13.144-6.046 1.943-7.882a6.226 6.226 0 0 1 4.536-1.692 5.617 5.617 0 0 1 4.571 1.872V225h4.68v25.629zm-3.311-14.758c-2.808 0-3.167 2.34-3.167 5.363s.36 5.4 3.167 5.4 3.204-2.376 3.204-5.4-.396-5.363-3.204-5.363zm35.243 13.283a6.287 6.287 0 0 1-4.536 1.691 5.5 5.5 0 0 1-4.535-1.872v8.531h-4.68v-25.628h4.535v1.763a5.657 5.657 0 0 1 4.68-1.98 6.285 6.285 0 0 1 4.535 1.692c1.8 1.836 1.944 4.752 1.944 7.883s-.143 6.084-1.943 7.92zm-5.904-13.283c-2.807 0-3.167 2.34-3.167 5.363s.36 5.4 3.167 5.4 3.168-2.376 3.168-5.4-.36-5.363-3.168-5.363zm22.5 1.116a3.128 3.128 0 0 0-5.507 2.34v11.302h-4.68v-18.753h4.572v1.799a6.348 6.348 0 0 1 4.715-2.016 5.659 5.659 0 0 1 4.428 1.764zm6.12-8.315v-3.816h4.787v3.816zm.073 21.957v-18.214h4.678v18.214zm18 0h-3.673l-6.911-18.753h4.932l3.815 11.59 3.78-11.59h4.932zm19.079 0v-1.62a5.698 5.698 0 0 1-4.608 1.8 6.486 6.486 0 0 1-4.787-1.656 6.01 6.01 0 0 1-1.548-4.212c0-2.987 2.052-5.435 6.48-5.435h4.356v-.936c0-2.051-1.008-2.951-3.492-2.951a4.15 4.15 0 0 0-3.6 1.62l-2.952-2.916c1.836-2.016 3.6-2.664 6.732-2.664 5.29 0 7.99 2.232 7.99 6.623v12.347zm-.108-7.919h-3.563c-1.872 0-2.773.756-2.773 2.16 0 1.296.9 2.124 2.844 2.124a3.56 3.56 0 0 0 2.772-.9 2.9 2.9 0 0 0 .72-2.376zm15.59 7.92a5.086 5.086 0 0 1-5.436-5.364v-9.287h-1.98v-3.564h1.98v-5.543h4.68v5.543h3.311v3.564h-3.311v8.999c0 1.08.503 1.692 1.619 1.692h1.692v3.96zm6.73-21.958v-3.816h4.787v3.816zm.073 21.957v-18.214h4.679v18.214zm8.604 0v-3.563l8.315-10.979h-7.847v-4.211h13.822v3.563l-8.423 10.979h8.423v4.211zm28.115 0v-1.62a5.698 5.698 0 0 1-4.608 1.8 6.486 6.486 0 0 1-4.787-1.656 6.01 6.01 0 0 1-1.548-4.212c0-2.987 2.052-5.435 6.48-5.435h4.356v-.936c0-2.051-1.008-2.951-3.493-2.951a4.15 4.15 0 0 0-3.6 1.62l-2.95-2.916c1.835-2.016 3.6-2.664 6.73-2.664 5.292 0 7.99 2.232 7.99 6.623v12.347zm-.108-7.919h-3.563c-1.872 0-2.773.756-2.773 2.16 0 1.296.9 2.124 2.844 2.124a3.56 3.56 0 0 0 2.771-.9 2.9 2.9 0 0 0 .721-2.376zm15.588 7.92a5.086 5.086 0 0 1-5.436-5.364v-9.287h-1.979v-3.564h1.98v-5.543h4.68v5.543h3.31v3.564h-3.312v8.999c0 1.08.504 1.692 1.62 1.692h1.692v3.96zm6.731-21.958v-3.816h4.788v3.816zm.073 21.957v-18.214h4.678v18.214zm22.858-2.088a7.833 7.833 0 0 1-5.83 2.304 7.744 7.744 0 0 1-5.796-2.304c-1.692-1.8-2.124-3.923-2.124-7.307s.432-5.471 2.124-7.27a8.486 8.486 0 0 1 11.626 0c1.692 1.8 2.124 3.887 2.124 7.27s-.397 5.544-2.124 7.307zm-3.636-11.842a3.277 3.277 0 0 0-4.355 0c-.972.936-1.08 2.627-1.08 4.535 0 1.944.108 3.636 1.08 4.572a3.279 3.279 0 0 0 4.355 0c.973-.936 1.08-2.628 1.08-4.572 0-1.908-.107-3.599-1.08-4.535zm21.132 13.93v-11.338c0-2.556-1.62-3.42-3.095-3.42s-3.132.864-3.132 3.42v11.338h-4.679v-18.753h4.571v1.727a6.416 6.416 0 0 1 4.68-1.944 6.089 6.089 0 0 1 4.427 1.656 6.95 6.95 0 0 1 1.908 5.328v11.986zm31.032-2.088a7.834 7.834 0 0 1-5.832 2.304 7.744 7.744 0 0 1-5.794-2.304c-1.693-1.8-2.124-3.923-2.124-7.307s.431-5.471 2.124-7.271a8.486 8.486 0 0 1 11.626 0c1.69 1.8 2.124 3.888 2.124 7.271s-.397 5.544-2.125 7.307zm-3.636-11.842a3.277 3.277 0 0 0-4.356 0c-.971.936-1.079 2.627-1.079 4.535 0 1.944.108 3.636 1.08 4.572a3.279 3.279 0 0 0 4.355 0c.972-.936 1.08-2.628 1.08-4.572 0-1.908-.108-3.599-1.08-4.535zm15.48-.72v14.65h-4.68v-14.65h-1.944v-3.564h1.944v-2.339a5.117 5.117 0 0 1 5.471-5.364h2.665v3.96h-1.836c-1.117 0-1.62.612-1.62 1.692v2.052h3.456v3.563zM36.944 289.63v-11.34c0-2.555-1.62-3.418-3.096-3.418s-3.131.863-3.131 3.419v11.339h-4.68V264h4.68v8.604a6.012 6.012 0 0 1 4.57-1.944 6.09 6.09 0 0 1 4.429 1.656 6.95 6.95 0 0 1 1.907 5.327v11.987zm22.68-2.088a7.835 7.835 0 0 1-5.831 2.304 7.747 7.747 0 0 1-5.796-2.304c-1.692-1.8-2.123-3.924-2.123-7.306s.431-5.472 2.123-7.272a7.747 7.747 0 0 1 5.796-2.304 7.7 7.7 0 0 1 5.83 2.304c1.693 1.8 2.125 3.888 2.125 7.271s-.397 5.543-2.125 7.307zM55.988 275.7a2.962 2.962 0 0 0-2.196-.827 2.933 2.933 0 0 0-2.16.827c-.972.936-1.08 2.628-1.08 4.536 0 1.943.108 3.636 1.08 4.571a2.93 2.93 0 0 0 2.16.829 2.96 2.96 0 0 0 2.196-.829c.972-.935 1.08-2.627 1.08-4.57 0-1.91-.108-3.6-1.08-4.537zm32.038 13.931v-11.34c0-2.555-1.62-3.418-3.095-3.418a3.021 3.021 0 0 0-3.132 3.311v11.447h-4.68v-11.34c0-2.555-1.62-3.418-3.096-3.418s-3.13.863-3.13 3.419v11.339h-4.68v-18.754h4.57v1.728a6.559 6.559 0 0 1 4.68-1.944 5.808 5.808 0 0 1 4.967 2.376 7.15 7.15 0 0 1 5.616-2.376 6.54 6.54 0 0 1 4.607 1.656 7.068 7.068 0 0 1 2.052 5.327v11.987zm13.394-7.919a3.838 3.838 0 0 0 4.104 4.176 5.302 5.302 0 0 0 4.247-1.764l2.844 2.772a8.819 8.819 0 0 1-7.127 2.95c-4.428 0-8.675-2.015-8.675-9.61 0-6.118 3.311-9.574 8.17-9.574 5.22 0 8.172 3.743 8.172 9.071v1.98zm6.695-5.22a3.495 3.495 0 0 0-6.263 0 4.607 4.607 0 0 0-.432 2.016h7.127a4.602 4.602 0 0 0-.432-2.016zm23.004 13.139a5.096 5.096 0 0 1-5.47-5.363V264h4.678v19.978c0 1.116.469 1.691 1.656 1.691h1.8v3.96zm6.337-21.957v-3.816h4.787v3.816zm.072 21.957v-18.214h4.68v18.214zm15.155-14.65v14.65h-4.68v-14.65h-1.943v-3.563h1.944v-2.34a5.117 5.117 0 0 1 5.471-5.364h2.664v3.96h-1.836c-1.116 0-1.62.611-1.62 1.691v2.052h3.456v3.564zm10.225 6.731a3.838 3.838 0 0 0 4.103 4.176 5.302 5.302 0 0 0 4.248-1.763l2.843 2.771a8.819 8.819 0 0 1-7.127 2.951c-4.427 0-8.675-2.015-8.675-9.61 0-6.119 3.312-9.575 8.171-9.575 5.22 0 8.17 3.743 8.17 9.071v1.98zm6.694-5.22a3.495 3.495 0 0 0-6.263 0 4.606 4.606 0 0 0-.431 2.016h7.127a4.6 4.6 0 0 0-.433-2.016zm9.182 13.14v-5.328h5.363v5.327zm28.942-21.166v21.165h-5.004v-21.165h-6.695V264h18.393v4.464zm21.311 21.165v-11.34c0-2.555-1.62-3.418-3.095-3.418s-3.132.863-3.132 3.419v11.339h-4.679V264h4.679v8.604a6.015 6.015 0 0 1 4.572-1.944 6.09 6.09 0 0 1 4.427 1.656 6.95 6.95 0 0 1 1.908 5.327v11.987zm9.65-21.957v-3.816h4.787v3.816zm.072 21.957v-18.214h4.679v18.214zm20.087-13.642a3.129 3.129 0 0 0-5.508 2.34v11.302h-4.679v-18.754h4.571v1.8a6.346 6.346 0 0 1 4.715-2.016 5.657 5.657 0 0 1 4.427 1.764zm15.479 13.642v-1.764a5.632 5.632 0 0 1-4.644 1.98 6.314 6.314 0 0 1-4.57-1.692c-1.8-1.835-1.944-4.751-1.944-7.918 0-3.132.143-6.048 1.943-7.884a6.23 6.23 0 0 1 4.536-1.692 5.619 5.619 0 0 1 4.572 1.872V264h4.678v25.63zm-3.312-14.758c-2.807 0-3.167 2.34-3.167 5.364s.36 5.399 3.167 5.399 3.205-2.376 3.205-5.4-.397-5.363-3.204-5.363zm35.243 13.282a6.284 6.284 0 0 1-4.536 1.692 5.501 5.501 0 0 1-4.536-1.872v8.531h-4.678v-25.63h4.535v1.764a5.658 5.658 0 0 1 4.68-1.98 6.288 6.288 0 0 1 4.535 1.692c1.8 1.836 1.943 4.752 1.943 7.884s-.144 6.083-1.943 7.919zm-5.904-13.282c-2.807 0-3.168 2.34-3.168 5.364s.36 5.399 3.168 5.399 3.168-2.376 3.168-5.4-.36-5.363-3.168-5.363zm17.605 14.758a5.096 5.096 0 0 1-5.472-5.363V264h4.68v19.978c0 1.116.468 1.691 1.656 1.691h1.8v3.96zm16.02 0v-1.62a5.699 5.699 0 0 1-4.608 1.8 6.484 6.484 0 0 1-4.787-1.655 6.01 6.01 0 0 1-1.548-4.212c0-2.988 2.052-5.436 6.48-5.436h4.356v-.935c0-2.052-1.008-2.951-3.492-2.951a4.15 4.15 0 0 0-3.6 1.619l-2.952-2.915c1.836-2.016 3.6-2.664 6.732-2.664 5.29 0 7.99 2.231 7.99 6.623v12.346zm-.108-7.919h-3.563c-1.872 0-2.773.756-2.773 2.16 0 1.295.9 2.123 2.844 2.123a3.561 3.561 0 0 0 2.772-.9 2.901 2.901 0 0 0 .72-2.375zm17.172 8.135c-3.744 0-8.388-2.016-8.388-9.61s4.644-9.575 8.388-9.575a7.986 7.986 0 0 1 6.19 2.52l-3.167 3.167a3.786 3.786 0 0 0-3.023-1.475 3.245 3.245 0 0 0-2.664 1.223 6.355 6.355 0 0 0-1.044 4.14 6.468 6.468 0 0 0 1.044 4.175 3.246 3.246 0 0 0 2.664 1.225 3.787 3.787 0 0 0 3.023-1.477l3.167 3.132a8.013 8.013 0 0 1-6.19 2.555zm12.996-8.135a3.838 3.838 0 0 0 4.104 4.176 5.304 5.304 0 0 0 4.248-1.764l2.844 2.772a8.82 8.82 0 0 1-7.127 2.95c-4.428 0-8.676-2.015-8.676-9.61 0-6.118 3.311-9.574 8.17-9.574 5.22 0 8.173 3.743 8.173 9.071v1.98zm6.696-5.22a3.494 3.494 0 0 0-6.263 0 4.6 4.6 0 0 0-.433 2.016h7.128a4.6 4.6 0 0 0-.433-2.016zm15.516 13.355c-2.952 0-5.58-.325-7.991-2.7l3.06-3.06a6.761 6.761 0 0 0 5.002 1.764c1.62 0 3.312-.54 3.312-1.944 0-.936-.468-1.583-1.98-1.728l-3.023-.288c-3.312-.324-5.4-1.8-5.4-5.255 0-3.924 3.42-5.975 7.236-5.975 2.95 0 5.363.54 7.163 2.196l-2.88 2.915a6.459 6.459 0 0 0-4.356-1.26c-1.872 0-2.663.864-2.663 1.8s.54 1.476 1.943 1.62l2.952.288c3.708.36 5.58 2.304 5.58 5.507 0 4.14-3.528 6.12-7.955 6.12zm29.842-.216v-1.62a5.698 5.698 0 0 1-4.607 1.8 6.484 6.484 0 0 1-4.788-1.656 6.01 6.01 0 0 1-1.547-4.212c0-2.987 2.051-5.435 6.48-5.435h4.355v-.936c0-2.051-1.008-2.95-3.492-2.95a4.15 4.15 0 0 0-3.6 1.618l-2.951-2.915c1.836-2.015 3.6-2.664 6.731-2.664 5.291 0 7.99 2.232 7.99 6.623v12.347zm-.107-7.92h-3.564c-1.872 0-2.772.757-2.772 2.16 0 1.296.9 2.124 2.843 2.124a3.561 3.561 0 0 0 2.772-.9 2.902 2.902 0 0 0 .72-2.376zm19.908-5.723a3.129 3.129 0 0 0-5.508 2.34v11.303h-4.679v-18.754h4.572v1.8a6.346 6.346 0 0 1 4.714-2.016 5.657 5.657 0 0 1 4.428 1.764zm8.783 5.724a3.838 3.838 0 0 0 4.103 4.176 5.304 5.304 0 0 0 4.249-1.764l2.843 2.771a8.821 8.821 0 0 1-7.128 2.952c-4.426 0-8.674-2.016-8.674-9.61 0-6.12 3.311-9.576 8.17-9.576 5.22 0 8.172 3.744 8.172 9.072v1.98zm6.695-5.22a3.494 3.494 0 0 0-6.262 0 4.6 4.6 0 0 0-.433 2.015h7.128a4.6 4.6 0 0 0-.433-2.015zM36.944 328.63v-11.34c0-2.555-1.62-3.418-3.096-3.418s-3.131.863-3.131 3.419v11.339h-4.68v-18.754h4.571v1.728a6.417 6.417 0 0 1 4.68-1.944 6.09 6.09 0 0 1 4.427 1.656 6.95 6.95 0 0 1 1.908 5.327v11.987zm22.68-2.088a7.835 7.835 0 0 1-5.831 2.304 7.747 7.747 0 0 1-5.796-2.304c-1.692-1.8-2.123-3.924-2.123-7.306s.431-5.472 2.123-7.272a7.747 7.747 0 0 1 5.796-2.304 7.7 7.7 0 0 1 5.83 2.304c1.693 1.8 2.125 3.888 2.125 7.271s-.397 5.543-2.125 7.307zM55.988 314.7a2.962 2.962 0 0 0-2.196-.827 2.933 2.933 0 0 0-2.16.827c-.972.936-1.08 2.628-1.08 4.536 0 1.943.108 3.636 1.08 4.571a2.93 2.93 0 0 0 2.16.829 2.96 2.96 0 0 0 2.196-.829c.972-.935 1.08-2.627 1.08-4.57 0-1.91-.108-3.6-1.08-4.537zM72.08 328.63a5.086 5.086 0 0 1-5.436-5.363v-9.287h-1.98v-3.564h1.98v-5.543h4.68v5.543h3.312v3.564h-3.311v8.999c0 1.08.503 1.691 1.62 1.691h1.691v3.96zm17.71 0v-11.34c0-2.555-1.62-3.418-3.095-3.418s-3.131.863-3.131 3.419v11.339h-4.68V303h4.68v8.604a6.012 6.012 0 0 1 4.571-1.944 6.09 6.09 0 0 1 4.428 1.656 6.95 6.95 0 0 1 1.908 5.327v11.987zm9.65-21.957v-3.815h4.788v3.815zm.072 21.957v-18.214h4.68v18.214zm20.806 0v-11.34c0-2.555-1.62-3.418-3.096-3.418s-3.13.863-3.13 3.419v11.339h-4.68v-18.754h4.571v1.728a6.417 6.417 0 0 1 4.68-1.944 6.09 6.09 0 0 1 4.427 1.656 6.95 6.95 0 0 1 1.908 5.327v11.987zm16.2 7.09c-2.88 0-4.858-.574-6.802-2.446l2.915-2.953a4.777 4.777 0 0 0 3.672 1.44c2.808 0 3.78-1.98 3.78-3.887v-1.909a5.492 5.492 0 0 1-4.464 1.872 6.243 6.243 0 0 1-4.463-1.655c-1.764-1.764-1.908-4.176-1.908-7.45s.144-5.652 1.908-7.416a6.33 6.33 0 0 1 4.5-1.656 5.492 5.492 0 0 1 4.57 1.98v-1.764h4.536v18.07c0 4.5-3.204 7.774-8.243 7.774zm.469-21.848c-2.772 0-3.06 2.375-3.06 4.86s.288 4.895 3.06 4.895 3.095-2.412 3.095-4.895-.323-4.86-3.095-4.86zm43.198 14.758v-11.34c0-2.555-1.62-3.418-3.095-3.418a3.021 3.021 0 0 0-3.132 3.311v11.447h-4.68v-11.34c0-2.555-1.62-3.418-3.095-3.418s-3.132.863-3.132 3.419v11.339h-4.68v-18.754h4.572v1.728a6.559 6.559 0 0 1 4.68-1.944 5.809 5.809 0 0 1 4.967 2.376 7.15 7.15 0 0 1 5.615-2.376 6.54 6.54 0 0 1 4.607 1.656 7.068 7.068 0 0 1 2.052 5.327v11.987zm22.681-2.088a7.836 7.836 0 0 1-5.831 2.304 7.747 7.747 0 0 1-5.795-2.304c-1.692-1.8-2.124-3.924-2.124-7.306s.432-5.472 2.123-7.272a8.486 8.486 0 0 1 11.627 0c1.692 1.8 2.124 3.888 2.124 7.271s-.396 5.543-2.124 7.307zm-3.635-11.843a2.962 2.962 0 0 0-2.196-.827 2.932 2.932 0 0 0-2.16.827c-.972.937-1.08 2.628-1.08 4.537 0 1.943.108 3.635 1.08 4.57a2.93 2.93 0 0 0 2.16.829 2.96 2.96 0 0 0 2.196-.828c.971-.936 1.08-2.628 1.08-4.572-.001-1.908-.109-3.6-1.08-4.536zm20.41.289a3.129 3.129 0 0 0-5.507 2.34v11.302h-4.679v-18.754h4.572v1.8a6.346 6.346 0 0 1 4.715-2.016 5.657 5.657 0 0 1 4.427 1.764zm8.785 5.723a3.838 3.838 0 0 0 4.104 4.176 5.303 5.303 0 0 0 4.248-1.764l2.843 2.772a8.822 8.822 0 0 1-7.128 2.95c-4.426 0-8.674-2.015-8.674-9.61 0-6.118 3.311-9.574 8.17-9.574 5.22 0 8.172 3.743 8.172 9.071v1.98zm6.695-5.22a3.494 3.494 0 0 0-6.262 0 4.6 4.6 0 0 0-.433 2.016h7.128a4.6 4.6 0 0 0-.433-2.016zm23.58 13.139a5.086 5.086 0 0 1-5.435-5.363v-9.287h-1.98v-3.564h1.98v-5.543h4.68v5.543h3.312v3.564h-3.312v8.999c0 1.08.504 1.691 1.62 1.691h1.692v3.96zm17.712 0v-11.34c0-2.555-1.62-3.418-3.096-3.418s-3.132.863-3.132 3.419v11.339h-4.678V303h4.678v8.604a6.015 6.015 0 0 1 4.573-1.944 6.09 6.09 0 0 1 4.426 1.656 6.95 6.95 0 0 1 1.909 5.327v11.987zm19.332 0v-1.62a5.699 5.699 0 0 1-4.607 1.8 6.484 6.484 0 0 1-4.788-1.655 6.01 6.01 0 0 1-1.547-4.212c0-2.988 2.051-5.436 6.479-5.436h4.356v-.935c0-2.052-1.008-2.951-3.493-2.951a4.15 4.15 0 0 0-3.6 1.619l-2.95-2.915c1.835-2.016 3.6-2.664 6.73-2.664 5.292 0 7.99 2.231 7.99 6.623v12.346zm-.107-7.919h-3.564c-1.872 0-2.772.756-2.772 2.16 0 1.295.9 2.123 2.843 2.123a3.561 3.561 0 0 0 2.772-.9 2.902 2.902 0 0 0 .72-2.375zm20.626 7.919v-11.34c0-2.555-1.62-3.418-3.095-3.418s-3.132.863-3.132 3.419v11.339h-4.679v-18.754h4.572v1.728a6.417 6.417 0 0 1 4.68-1.944 6.089 6.089 0 0 1 4.427 1.656 6.95 6.95 0 0 1 1.908 5.327v11.987zm18.002-21.957v-3.815h4.788v3.815zm.073 21.957v-18.214h4.678v18.214zm20.805 0v-11.34c0-2.555-1.62-3.418-3.095-3.418s-3.132.863-3.132 3.419v11.339h-4.679v-18.754h4.571v1.728a6.417 6.417 0 0 1 4.68-1.944 6.09 6.09 0 0 1 4.427 1.656 6.95 6.95 0 0 1 1.908 5.327v11.987zm14.977-14.65v14.65h-4.68v-14.65h-1.943v-3.563h1.943v-2.34a5.117 5.117 0 0 1 5.472-5.364h2.664v3.96h-1.836c-1.116 0-1.62.612-1.62 1.692v2.052h3.456v3.563zm19.475 12.563a7.835 7.835 0 0 1-5.832 2.303 7.746 7.746 0 0 1-5.794-2.303c-1.693-1.8-2.124-3.924-2.124-7.307s.431-5.472 2.124-7.272a8.486 8.486 0 0 1 11.626 0c1.69 1.8 2.124 3.888 2.124 7.272s-.397 5.542-2.125 7.306zm-3.636-11.844a3.28 3.28 0 0 0-4.356 0c-.971.936-1.079 2.628-1.079 4.536 0 1.943.108 3.636 1.08 4.571a3.277 3.277 0 0 0 4.355 0c.973-.935 1.08-2.627 1.08-4.57 0-1.91-.108-3.6-1.08-4.537zm20.413.288a3.129 3.129 0 0 0-5.508 2.34v11.303h-4.678v-18.754h4.57v1.8a6.346 6.346 0 0 1 4.716-2.016 5.657 5.657 0 0 1 4.427 1.764zm28.006 13.643v-11.34c0-2.555-1.62-3.418-3.096-3.418a3.021 3.021 0 0 0-3.132 3.311v11.447h-4.68v-11.34c0-2.555-1.62-3.418-3.096-3.418s-3.131.863-3.131 3.419v11.339h-4.68v-18.754h4.572v1.728a6.558 6.558 0 0 1 4.68-1.944 5.809 5.809 0 0 1 4.967 2.376 7.15 7.15 0 0 1 5.615-2.376 6.54 6.54 0 0 1 4.608 1.656 7.07 7.07 0 0 1 2.051 5.327v11.987zm19.333 0v-1.62a5.699 5.699 0 0 1-4.608 1.8 6.484 6.484 0 0 1-4.787-1.655 6.01 6.01 0 0 1-1.548-4.212c0-2.988 2.052-5.436 6.48-5.436h4.356v-.935c0-2.052-1.008-2.951-3.492-2.951a4.15 4.15 0 0 0-3.6 1.619l-2.952-2.915c1.836-2.016 3.6-2.664 6.732-2.664 5.29 0 7.99 2.231 7.99 6.623v12.346zm-.108-7.919h-3.563c-1.872 0-2.773.756-2.773 2.16 0 1.295.9 2.123 2.844 2.123a3.561 3.561 0 0 0 2.772-.9 2.902 2.902 0 0 0 .72-2.375zm15.012 7.919a5.096 5.096 0 0 1-5.472-5.363V303h4.68v19.977c0 1.116.468 1.692 1.657 1.692h1.8v3.96zM39.787 366.154a6.285 6.285 0 0 1-4.535 1.692 5.5 5.5 0 0 1-4.535-1.873v8.532h-4.68v-25.63h4.535v1.764a5.657 5.657 0 0 1 4.68-1.98 6.289 6.289 0 0 1 4.535 1.692c1.8 1.836 1.944 4.752 1.944 7.884s-.144 6.083-1.944 7.919zm-5.903-13.282c-2.808 0-3.167 2.34-3.167 5.363s.36 5.4 3.167 5.4 3.168-2.376 3.168-5.4-.36-5.363-3.168-5.363zm23.112 14.758v-1.728a6.417 6.417 0 0 1-4.68 1.944 6.09 6.09 0 0 1-4.427-1.656 6.951 6.951 0 0 1-1.908-5.328v-11.986h4.68v11.339c0 2.555 1.62 3.42 3.095 3.42s3.132-.865 3.132-3.42v-11.34h4.68v18.755zm23.58-1.476a6.285 6.285 0 0 1-4.536 1.692 5.657 5.657 0 0 1-4.679-1.98v1.764h-4.536V342h4.68v8.532a5.5 5.5 0 0 1 4.535-1.872 6.23 6.23 0 0 1 4.536 1.691c1.8 1.836 1.944 4.752 1.944 7.884 0 3.167-.145 6.083-1.944 7.919zm-5.903-13.282c-2.808 0-3.168 2.34-3.168 5.364s.36 5.399 3.168 5.399 3.167-2.376 3.167-5.4-.36-5.363-3.168-5.363zm17.603 14.758a5.096 5.096 0 0 1-5.471-5.363V342h4.68v19.977c0 1.116.467 1.692 1.655 1.692h1.8v3.96zm6.337-21.957v-3.815h4.787v3.815zm.071 21.957v-18.214h4.68v18.214zm17.351.216c-3.743 0-8.386-2.016-8.386-9.61s4.643-9.575 8.386-9.575a7.989 7.989 0 0 1 6.192 2.52l-3.168 3.167a3.787 3.787 0 0 0-3.024-1.475 3.245 3.245 0 0 0-2.663 1.223 6.354 6.354 0 0 0-1.044 4.14 6.467 6.467 0 0 0 1.044 4.175 3.246 3.246 0 0 0 2.663 1.225 3.788 3.788 0 0 0 3.024-1.477l3.168 3.132a8.016 8.016 0 0 1-6.192 2.555zm24.66 6.875c-2.88 0-4.859-.575-6.803-2.447l2.916-2.953a4.777 4.777 0 0 0 3.672 1.44c2.807 0 3.779-1.98 3.779-3.887v-1.909a5.492 5.492 0 0 1-4.463 1.872 6.243 6.243 0 0 1-4.464-1.655c-1.764-1.764-1.908-4.176-1.908-7.45s.144-5.652 1.908-7.416a6.329 6.329 0 0 1 4.5-1.656 5.492 5.492 0 0 1 4.57 1.98v-1.764h4.536v18.07c0 4.5-3.203 7.774-8.242 7.774zm.468-21.849c-2.771 0-3.06 2.375-3.06 4.86s.288 4.895 3.06 4.895 3.096-2.412 3.096-4.895-.324-4.86-3.096-4.86zm22.643 14.758v-1.62a5.699 5.699 0 0 1-4.607 1.8 6.484 6.484 0 0 1-4.787-1.655 6.01 6.01 0 0 1-1.548-4.212c0-2.988 2.052-5.436 6.479-5.436h4.355v-.935c0-2.052-1.007-2.951-3.49-2.951a4.149 4.149 0 0 0-3.6 1.619l-2.953-2.915c1.836-2.016 3.6-2.664 6.731-2.664 5.292 0 7.992 2.231 7.992 6.623v12.346zm-.108-7.919h-3.563c-1.871 0-2.771.756-2.771 2.16 0 1.295.9 2.123 2.843 2.123a3.564 3.564 0 0 0 2.772-.9 2.902 2.902 0 0 0 .72-2.375zm15.59 7.919a5.086 5.086 0 0 1-5.436-5.363v-9.287h-1.98v-3.564h1.98v-5.543h4.68v5.543h3.311v3.564h-3.311v8.999c0 1.08.504 1.691 1.62 1.691h1.692v3.96zm17.71 0v-11.34c0-2.555-1.62-3.418-3.096-3.418s-3.132.863-3.132 3.419v11.339h-4.68V342h4.68v8.604a6.012 6.012 0 0 1 4.572-1.944 6.09 6.09 0 0 1 4.427 1.656 6.95 6.95 0 0 1 1.908 5.327v11.987zm13.392-7.919a3.838 3.838 0 0 0 4.104 4.176 5.3 5.3 0 0 0 4.247-1.764l2.844 2.772a8.818 8.818 0 0 1-7.127 2.95c-4.428 0-8.675-2.015-8.675-9.61 0-6.118 3.311-9.574 8.17-9.574 5.22 0 8.172 3.743 8.172 9.071v1.98zm6.696-5.22a3.495 3.495 0 0 0-6.264 0 4.6 4.6 0 0 0-.432 2.016h7.127a4.614 4.614 0 0 0-.43-2.016zm19.548-.504a3.129 3.129 0 0 0-5.508 2.34v11.303h-4.68v-18.754h4.572v1.8a6.346 6.346 0 0 1 4.715-2.016 5.657 5.657 0 0 1 4.428 1.764zm6.12-8.314v-3.816h4.787v3.816zm.072 21.957v-18.214h4.679v18.214zm20.807 0v-11.34c0-2.555-1.62-3.418-3.096-3.418s-3.132.863-3.132 3.419v11.339h-4.678v-18.754h4.57v1.728a6.417 6.417 0 0 1 4.68-1.944 6.09 6.09 0 0 1 4.428 1.656 6.95 6.95 0 0 1 1.908 5.327v11.987zm16.2 7.09c-2.879 0-4.86-.575-6.803-2.447l2.916-2.952a4.775 4.775 0 0 0 3.671 1.44c2.808 0 3.78-1.98 3.78-3.888v-1.908a5.494 5.494 0 0 1-4.464 1.872 6.244 6.244 0 0 1-4.464-1.655c-1.763-1.765-1.907-4.176-1.907-7.451s.144-5.652 1.907-7.415a6.33 6.33 0 0 1 4.5-1.657 5.492 5.492 0 0 1 4.572 1.98v-1.763h4.535v18.07c0 4.5-3.202 7.774-8.242 7.774zm.469-21.848c-2.773 0-3.06 2.375-3.06 4.86s.287 4.895 3.06 4.895 3.095-2.412 3.095-4.896-.323-4.86-3.094-4.86zm27.539 14.974c-2.952 0-5.58-.325-7.991-2.7l3.06-3.06a6.761 6.761 0 0 0 5.002 1.764c1.62 0 3.312-.54 3.312-1.944 0-.936-.468-1.583-1.98-1.728l-3.023-.288c-3.312-.324-5.4-1.8-5.4-5.255 0-3.924 3.42-5.976 7.235-5.976 2.952 0 5.364.54 7.164 2.197l-2.88 2.915a6.459 6.459 0 0 0-4.356-1.26c-1.872 0-2.663.864-2.663 1.8s.539 1.475 1.943 1.62l2.952.288c3.708.36 5.58 2.304 5.58 5.507 0 4.14-3.528 6.12-7.954 6.12zm25.63-1.692a6.284 6.284 0 0 1-4.535 1.692 5.501 5.501 0 0 1-4.536-1.873v8.532h-4.678v-25.63h4.535v1.764a5.658 5.658 0 0 1 4.68-1.98 6.288 6.288 0 0 1 4.535 1.692c1.8 1.836 1.943 4.752 1.943 7.884s-.143 6.083-1.942 7.919zm-5.903-13.282c-2.807 0-3.168 2.34-3.168 5.363s.36 5.4 3.168 5.4 3.168-2.376 3.168-5.4-.36-5.363-3.167-5.363zm21.924 14.758v-1.62a5.699 5.699 0 0 1-4.607 1.8 6.484 6.484 0 0 1-4.787-1.655 6.01 6.01 0 0 1-1.548-4.212c0-2.988 2.051-5.436 6.48-5.436h4.355v-.935c0-2.052-1.008-2.951-3.492-2.951a4.15 4.15 0 0 0-3.6 1.619l-2.951-2.915c1.836-2.016 3.6-2.664 6.731-2.664 5.291 0 7.99 2.231 7.99 6.623v12.346zm-.107-7.919h-3.564c-1.872 0-2.772.756-2.772 2.16 0 1.295.9 2.123 2.843 2.123a3.561 3.561 0 0 0 2.772-.9 2.902 2.902 0 0 0 .72-2.375zm17.172 8.135c-3.744 0-8.387-2.016-8.387-9.61s4.643-9.575 8.387-9.575a7.987 7.987 0 0 1 6.19 2.52l-3.166 3.167a3.786 3.786 0 0 0-3.024-1.475 3.244 3.244 0 0 0-2.664 1.223 6.354 6.354 0 0 0-1.044 4.14 6.467 6.467 0 0 0 1.044 4.175 3.245 3.245 0 0 0 2.664 1.225 3.787 3.787 0 0 0 3.023-1.477l3.167 3.132a8.015 8.015 0 0 1-6.19 2.555zm12.96-8.135a3.838 3.838 0 0 0 4.103 4.176 5.304 5.304 0 0 0 4.248-1.764l2.844 2.772a8.821 8.821 0 0 1-7.128 2.95c-4.427 0-8.675-2.015-8.675-9.61 0-6.118 3.312-9.574 8.17-9.574 5.22 0 8.173 3.743 8.173 9.071v1.98zm6.695-5.22a3.494 3.494 0 0 0-6.263 0 4.6 4.6 0 0 0-.433 2.016h7.128a4.6 4.6 0 0 0-.432-2.016zm15.516 13.355c-2.952 0-5.58-.325-7.99-2.7l3.06-3.06a6.761 6.761 0 0 0 5.002 1.764c1.62 0 3.312-.54 3.312-1.944 0-.936-.468-1.583-1.98-1.728l-3.024-.288c-3.311-.324-5.4-1.8-5.4-5.255 0-3.924 3.42-5.975 7.236-5.975 2.951 0 5.363.54 7.163 2.196l-2.88 2.915a6.459 6.459 0 0 0-4.355-1.26c-1.872 0-2.663.864-2.663 1.8s.539 1.476 1.943 1.62l2.951.288c3.708.36 5.58 2.304 5.58 5.507 0 4.14-3.528 6.12-7.955 6.12zM24.474 400.324v-.953h10.674v.953zm22.39 3.306l-2.27-4.427h-2.395v4.427h-1.065v-9.974h3.824a2.698 2.698 0 0 1 2.956 2.773 2.588 2.588 0 0 1-2.172 2.676l2.368 4.525zm-2.004-9.02H42.2v3.655h2.661a1.834 1.834 0 1 0 0-3.655zm9.058 9.02v-.658a3.17 3.17 0 0 1-3.936.112 1.926 1.926 0 0 1-.519-1.401c0-1.219.855-1.99 2.396-1.99h2.059v-.658c0-.994-.49-1.512-1.765-1.512a1.844 1.844 0 0 0-1.737.798l-.687-.63a2.652 2.652 0 0 1 2.438-1.037c1.863 0 2.76.813 2.76 2.297v4.679zm0-3.18h-1.92q-1.554 0-1.554 1.219c0 .798.49 1.177 1.597 1.177a2.075 2.075 0 0 0 1.527-.463 1.592 1.592 0 0 0 .35-1.19zm5.109 4.847a2.025 2.025 0 0 1-.49.812 1.895 1.895 0 0 1-1.345.477h-.435v-.897h.309c.7 0 .91-.224 1.134-.854l.49-1.345-2.479-6.752h1.093l1.89 5.533 1.878-5.533h1.092zm13.805-2.564a3.643 3.643 0 0 1-4.972 0c-.939-.938-.995-1.806-.995-4.09s.056-3.152.995-4.09a3.643 3.643 0 0 1 4.972 0c.939.938 1.01 1.807 1.01 4.09s-.071 3.152-1.01 4.09zm-.756-7.508a2.47 2.47 0 0 0-3.446 0c-.63.645-.7 1.372-.7 3.418s.07 2.774.7 3.417a2.467 2.467 0 0 0 3.446 0c.63-.643.7-1.372.7-3.417s-.07-2.773-.7-3.418zm5.808 8.405a1.642 1.642 0 0 1-1.75-1.835v-8.139h1.008v8.097c0 .672.224 1.009.924 1.009h.547v.868zm6.371 0v-.826a2.217 2.217 0 0 1-1.96.91 2.376 2.376 0 0 1-1.682-.603 5.518 5.518 0 0 1 0-5.854 2.376 2.376 0 0 1 1.681-.603 2.216 2.216 0 0 1 1.947.882v-3.88h1.009v9.974zm-1.737-6.08c-1.513 0-1.737 1.289-1.737 2.633s.224 2.634 1.737 2.634c1.499 0 1.723-1.289 1.723-2.634s-.224-2.632-1.723-2.632zm5.88 2.9c0 1.513.7 2.38 2.03 2.38a2.26 2.26 0 0 0 1.807-.783l.687.602a3.178 3.178 0 0 1-2.522 1.065c-1.835 0-3.012-1.093-3.012-3.53 0-2.242 1.079-3.53 2.83-3.53 1.793 0 2.83 1.275 2.83 3.348v.448zm3.43-1.905a1.77 1.77 0 0 0-3.22 0 2.628 2.628 0 0 0-.21 1.148h3.655a2.823 2.823 0 0 0-.224-1.148zm7.77 5.085v-4.244a1.707 1.707 0 1 0-3.403 0v4.244h-1.008v-6.892h1.009v.756a2.486 2.486 0 0 1 1.933-.84 2.413 2.413 0 0 1 1.765.645 2.544 2.544 0 0 1 .714 1.918v4.413zm8.093-.519a2.374 2.374 0 0 1-1.681.603 2.208 2.208 0 0 1-1.947-.91v.826h-1.008v-9.974h1.008v3.88a2.232 2.232 0 0 1 1.948-.882 2.374 2.374 0 0 1 1.68.603 5.516 5.516 0 0 1 0 5.854zm-1.89-5.56c-1.514 0-1.738 1.288-1.738 2.632s.224 2.634 1.737 2.634c1.499 0 1.723-1.289 1.723-2.634s-.224-2.632-1.722-2.632zm9.24 6.079v-.77a2.525 2.525 0 0 1-1.948.854 2.446 2.446 0 0 1-1.778-.644 2.57 2.57 0 0 1-.701-1.933v-4.399h1.009v4.244c0 1.219.644 1.835 1.68 1.835a1.63 1.63 0 0 0 1.724-1.835v-4.244h1.008v6.892zm7.364-5.576a1.442 1.442 0 0 0-1.191-.503 1.683 1.683 0 0 0-1.653 1.848v4.23h-1.008v-6.891h1.008v.84a2.316 2.316 0 0 1 1.933-.924 2.123 2.123 0 0 1 1.653.645zm3.849 8.742a3.043 3.043 0 0 1-2.34-.925l.658-.645a2.123 2.123 0 0 0 1.653.687c1.33 0 1.891-.938 1.891-2.115v-1.078a2.222 2.222 0 0 1-1.933.896 2.375 2.375 0 0 1-1.667-.616 5.327 5.327 0 0 1 0-5.743 2.4 2.4 0 0 1 1.681-.602 2.172 2.172 0 0 1 1.934.896v-.812h.994v7.101a2.743 2.743 0 0 1-2.87 2.956zm.153-9.245c-1.498 0-1.723 1.288-1.723 2.577s.225 2.577 1.723 2.577 1.71-1.288 1.71-2.577-.21-2.577-1.709-2.577z" fill="#fff"/><path fill="none" d="M0 0h495.806v528.187H0z"/></g></svg>
