<svg xmlns="http://www.w3.org/2000/svg" viewBox="0 0 470.28 519.33"><defs><style>.cls-1{fill:none;}.cls-2{fill:#4559a8;}.cls-3{fill:#fff;}</style></defs><title>ipi</title><g id="Layer_2" data-name="Layer 2"><g id="Layer_1-2" data-name="Layer 1"><g id="ipi"><rect class="cls-1" width="470.28" height="519.33"/><path class="cls-2" d="M15.4,126v-8a17.05,17.05,0,0,1,.47-4.06,10.17,10.17,0,0,1,1.44-3.35,7.44,7.44,0,0,1,2.49-2.31,7,7,0,0,1,3.52-.86V111a3.19,3.19,0,0,0-2,.61,4.68,4.68,0,0,0-1.3,1.62,7.53,7.53,0,0,0-.68,2.27,17.56,17.56,0,0,0-.18,2.48H23.4v8Zm13.18,0v-8a17.05,17.05,0,0,1,.47-4.06,10.17,10.17,0,0,1,1.44-3.35A7.41,7.41,0,0,1,33,108.24a7.07,7.07,0,0,1,3.53-.86V111a3.2,3.2,0,0,0-2,.61,4.66,4.66,0,0,0-1.29,1.62,7.26,7.26,0,0,0-.69,2.27,17.56,17.56,0,0,0-.18,2.48h4.25v8ZM414.89,335.38v8a16.64,16.64,0,0,1-.47,4.07,10.27,10.27,0,0,1-1.44,3.35,7.45,7.45,0,0,1-2.44,2.3A6.94,6.94,0,0,1,407,354v-3.6a3.2,3.2,0,0,0,2-.62,4.48,4.48,0,0,0,1.29-1.62,7.2,7.2,0,0,0,.69-2.26,17.59,17.59,0,0,0,.18-2.49H406.9v-8Zm13.18,0v8a17.14,17.14,0,0,1-.47,4.07,10.27,10.27,0,0,1-1.44,3.35,7.58,7.58,0,0,1-2.45,2.3,6.88,6.88,0,0,1-3.56.87v-3.6a3.19,3.19,0,0,0,2-.62,4.5,4.5,0,0,0,1.3-1.62,7.46,7.46,0,0,0,.68-2.26,17.59,17.59,0,0,0,.18-2.49h-4.24v-8Z"/><path class="cls-3" d="M62.53,138.79V123.85l-4.9,9.72H54.25l-4.93-9.72v14.94h-5V113.16h4.93L55.94,127l6.66-13.86h4.93v25.63Zm23.58-2.09a7.86,7.86,0,0,1-5.84,2.3,7.75,7.75,0,0,1-5.79-2.3c-1.69-1.8-2.12-3.92-2.12-7.31s.43-5.47,2.12-7.27a8.5,8.5,0,0,1,11.63,0c1.69,1.8,2.12,3.89,2.12,7.27S87.83,134.94,86.11,136.7Zm-3.64-11.84a3,3,0,0,0-2.2-.83,2.91,2.91,0,0,0-2.15.83c-1,.93-1.08,2.62-1.08,4.53s.1,3.64,1.08,4.57a2.91,2.91,0,0,0,2.15.83,3,3,0,0,0,2.2-.83c1-.93,1.08-2.62,1.08-4.57S83.44,125.79,82.47,124.86ZM98.85,139c-2.95,0-5.58-.32-8-2.7l3.06-3.06a6.75,6.75,0,0,0,5,1.77c1.62,0,3.31-.54,3.31-1.95,0-.93-.46-1.58-2-1.72l-3-.29c-3.31-.33-5.4-1.8-5.4-5.26,0-3.92,3.42-6,7.24-6,3,0,5.36.54,7.16,2.19l-2.88,2.92A6.47,6.47,0,0,0,99,123.67c-1.87,0-2.66.86-2.66,1.8s.54,1.47,1.94,1.62l3,.29c3.7.36,5.58,2.3,5.58,5.5C106.81,137,103.28,139,98.85,139Zm17.42-.21a5.09,5.09,0,0,1-5.43-5.37v-9.28h-2v-3.57h2V115h4.68v5.54h3.31v3.57h-3.31v9c0,1.08.5,1.69,1.62,1.69h1.69v4Zm26.07,0V127.45c0-2.56-1.62-3.42-3.1-3.42s-3.13.86-3.13,3.42v11.34h-4.68V120H136v1.73a6.44,6.44,0,0,1,4.68-1.94,6.12,6.12,0,0,1,4.43,1.65A7,7,0,0,1,147,126.8v12Zm13.39-7.92a3.83,3.83,0,0,0,4.1,4.17,5.3,5.3,0,0,0,4.25-1.76l2.84,2.77A8.78,8.78,0,0,1,159.8,139c-4.43,0-8.68-2-8.68-9.61,0-6.12,3.31-9.57,8.17-9.57,5.22,0,8.17,3.74,8.17,9.07v2Zm6.69-5.22a3.49,3.49,0,0,0-6.26,0,4.7,4.7,0,0,0-.43,2h7.13A4.56,4.56,0,0,0,162.42,125.65Zm13,5.22a3.83,3.83,0,0,0,4.1,4.17,5.31,5.31,0,0,0,4.25-1.76l2.84,2.77a8.79,8.79,0,0,1-7.12,2.95c-4.43,0-8.68-2-8.68-9.61,0-6.12,3.31-9.57,8.17-9.57,5.22,0,8.17,3.74,8.17,9.07v2Zm6.69-5.22a3.49,3.49,0,0,0-6.26,0,4.56,4.56,0,0,0-.43,2h7.12A4.42,4.42,0,0,0,182.15,125.65Zm19.73,13.14V137a5.63,5.63,0,0,1-4.64,2,6.31,6.31,0,0,1-4.57-1.69c-1.8-1.83-1.95-4.75-1.95-7.92s.15-6,1.95-7.88a6.21,6.21,0,0,1,4.53-1.69,5.6,5.6,0,0,1,4.57,1.87v-8.53h4.68v25.63ZM198.57,124c-2.81,0-3.17,2.34-3.17,5.36s.36,5.4,3.17,5.4,3.2-2.37,3.2-5.4S201.38,124,198.57,124Zm16.81,6.84a3.83,3.83,0,0,0,4.1,4.17,5.3,5.3,0,0,0,4.25-1.76l2.85,2.77a8.81,8.81,0,0,1-7.13,2.95c-4.43,0-8.68-2-8.68-9.61,0-6.12,3.31-9.57,8.17-9.57,5.22,0,8.18,3.74,8.18,9.07v2Zm6.7-5.22a3.5,3.5,0,0,0-6.27,0,4.7,4.7,0,0,0-.43,2h7.13A4.7,4.7,0,0,0,222.08,125.65Zm19.72,13.14V137a5.62,5.62,0,0,1-4.64,2,6.31,6.31,0,0,1-4.57-1.69c-1.8-1.83-1.94-4.75-1.94-7.92s.14-6,1.94-7.88a6.21,6.21,0,0,1,4.53-1.69,5.63,5.63,0,0,1,4.58,1.87v-8.53h4.68v25.63ZM238.49,124c-2.81,0-3.17,2.34-3.17,5.36s.36,5.4,3.17,5.4,3.21-2.37,3.21-5.4S241.3,124,238.49,124Zm31.1,14.76v-1.62A5.68,5.68,0,0,1,265,139a6.48,6.48,0,0,1-4.79-1.66,6,6,0,0,1-1.55-4.21c0-3,2.05-5.44,6.48-5.44h4.36v-.93c0-2-1-3-3.49-3a4.14,4.14,0,0,0-3.6,1.62l-3-2.92c1.84-2,3.6-2.66,6.74-2.66,5.29,0,8,2.23,8,6.62v12.35Zm-.1-7.92h-3.57c-1.87,0-2.77.75-2.77,2.16s.9,2.12,2.85,2.12a3.54,3.54,0,0,0,2.77-.9,2.9,2.9,0,0,0,.72-2.37Zm19.91-5.72a3.13,3.13,0,0,0-5.51,2.33v11.31h-4.68V120h4.57v1.8a6.35,6.35,0,0,1,4.72-2,5.66,5.66,0,0,1,4.42,1.76Zm8.78,5.72a3.83,3.83,0,0,0,4.1,4.17,5.31,5.31,0,0,0,4.25-1.76l2.84,2.77a8.78,8.78,0,0,1-7.12,2.95c-4.43,0-8.68-2-8.68-9.61,0-6.12,3.31-9.57,8.17-9.57,5.22,0,8.17,3.74,8.17,9.07v2Zm6.69-5.22a3.49,3.49,0,0,0-6.26,0,4.56,4.56,0,0,0-.43,2h7.13A4.56,4.56,0,0,0,304.87,125.65Zm23.59,13.14a5.09,5.09,0,0,1-5.44-5.37v-9.28h-2v-3.57h2V115h4.68v5.54H331v3.57H327.7v9c0,1.08.5,1.69,1.62,1.69H331v4Zm17.71,0V127.45c0-2.56-1.63-3.42-3.1-3.42s-3.13.86-3.13,3.42v11.34h-4.68V113.16h4.68v8.6a6,6,0,0,1,4.57-1.94,6.12,6.12,0,0,1,4.43,1.65,7,7,0,0,1,1.9,5.33v12Zm22.67-2.09a8.49,8.49,0,0,1-11.62,0c-1.69-1.8-2.13-3.92-2.13-7.31s.44-5.47,2.13-7.27a7.75,7.75,0,0,1,5.79-2.3,7.67,7.67,0,0,1,5.83,2.3c1.7,1.8,2.13,3.89,2.13,7.27S370.57,134.94,368.84,136.7Zm-3.63-11.84A3,3,0,0,0,363,124a2.93,2.93,0,0,0-2.16.83c-1,.93-1.08,2.62-1.08,4.53s.11,3.64,1.08,4.57a2.93,2.93,0,0,0,2.16.83,3,3,0,0,0,2.2-.83c1-.93,1.08-2.62,1.08-4.57S366.18,125.79,365.21,124.86ZM381.59,139c-2.95,0-5.58-.32-8-2.7l3.06-3.06a6.75,6.75,0,0,0,5,1.77c1.62,0,3.31-.54,3.31-1.95,0-.93-.47-1.58-2-1.72l-3-.29c-3.31-.33-5.4-1.8-5.4-5.26,0-3.92,3.42-6,7.24-6,2.95,0,5.36.54,7.16,2.19l-2.88,2.92a6.47,6.47,0,0,0-4.36-1.26c-1.87,0-2.66.86-2.66,1.8s.54,1.47,1.94,1.62l2.95.29c3.71.36,5.58,2.3,5.58,5.5C389.54,137,386,139,381.59,139Zm15.55-8.13a3.83,3.83,0,0,0,4.11,4.17,5.29,5.29,0,0,0,4.24-1.76l2.85,2.77a8.81,8.81,0,0,1-7.13,2.95c-4.43,0-8.68-2-8.68-9.61,0-6.12,3.32-9.57,8.18-9.57,5.21,0,8.17,3.74,8.17,9.07v2Zm6.7-5.22a3.5,3.5,0,0,0-6.27,0,4.7,4.7,0,0,0-.43,2h7.13A4.7,4.7,0,0,0,403.84,125.65Zm-390.74,37v-5.51a6.1,6.1,0,0,1,.34-2.23,5.87,5.87,0,0,1,1.06-1.84,6.19,6.19,0,0,1,1.64-1.31,5.92,5.92,0,0,1,2.07-.67v2.38a3.16,3.16,0,0,0-1.87,1.39,4.57,4.57,0,0,0-.5,2.25h2.37v5.54Zm16.06,14.15a5.09,5.09,0,0,1-5.44-5.37v-9.28h-2v-3.57h2V153H28.4v5.54h3.31v3.57H28.4v9c0,1.08.5,1.69,1.62,1.69h1.69v4Zm17.71,0V165.45c0-2.56-1.62-3.42-3.1-3.42s-3.13.86-3.13,3.42v11.34H36V151.16h4.68v8.6a6,6,0,0,1,4.57-1.94,6.12,6.12,0,0,1,4.43,1.65,7,7,0,0,1,1.91,5.33v12Zm9.65-22V151H61.3v3.82Zm.07,22V158.57h4.68v18.22Zm20.08-13.64a3.12,3.12,0,0,0-5.5,2.33v11.31H66.49V158h4.57v1.8a6.34,6.34,0,0,1,4.71-2,5.67,5.67,0,0,1,4.43,1.76Zm15.52,13.64V175a5.63,5.63,0,0,1-4.64,2A6.33,6.33,0,0,1,83,175.31c-1.79-1.83-1.94-4.75-1.94-7.92s.15-6,1.94-7.88a6.25,6.25,0,0,1,4.54-1.69,5.6,5.6,0,0,1,4.57,1.87v-8.53h4.68v25.63ZM88.88,162c-2.81,0-3.17,2.34-3.17,5.36s.36,5.4,3.17,5.4,3.2-2.37,3.2-5.4S91.69,162,88.88,162Zm35.24,13.28a6.27,6.27,0,0,1-4.53,1.69,5.5,5.5,0,0,1-4.54-1.87v8.53h-4.68V158h4.54v1.77a5.64,5.64,0,0,1,4.68-2,6.27,6.27,0,0,1,4.53,1.69c1.8,1.84,1.94,4.75,1.94,7.88S125.92,173.48,124.12,175.31ZM118.22,162c-2.81,0-3.17,2.34-3.17,5.36s.36,5.4,3.17,5.4,3.17-2.37,3.17-5.4S121,162,118.22,162Zm17.6,14.76a5.1,5.1,0,0,1-5.47-5.37V151.16H135v20c0,1.11.47,1.69,1.66,1.69h1.8v4Zm16,0v-1.62a5.7,5.7,0,0,1-4.61,1.8,6.47,6.47,0,0,1-4.78-1.66,6,6,0,0,1-1.55-4.21c0-3,2-5.44,6.48-5.44h4.35v-.93c0-2-1-2.95-3.49-2.95a4.16,4.16,0,0,0-3.6,1.62l-2.95-2.92c1.84-2,3.6-2.66,6.73-2.66,5.29,0,8,2.23,8,6.62v12.35Zm-.11-7.92h-3.56c-1.87,0-2.77.75-2.77,2.16s.9,2.12,2.84,2.12a3.54,3.54,0,0,0,2.77-.9,2.9,2.9,0,0,0,.72-2.37ZM168.91,177c-3.75,0-8.39-2-8.39-9.61s4.64-9.57,8.39-9.57a8,8,0,0,1,6.19,2.52l-3.17,3.16a3.79,3.79,0,0,0-3-1.47,3.25,3.25,0,0,0-2.67,1.22,6.36,6.36,0,0,0-1,4.14,6.48,6.48,0,0,0,1,4.18,3.25,3.25,0,0,0,2.67,1.22,3.79,3.79,0,0,0,3-1.47l3.17,3.13A8,8,0,0,1,168.91,177Zm13-8.13A3.83,3.83,0,0,0,186,173a5.31,5.31,0,0,0,4.25-1.76l2.84,2.77a8.8,8.8,0,0,1-7.13,2.95c-4.42,0-8.67-2-8.67-9.61,0-6.12,3.31-9.57,8.17-9.57,5.22,0,8.17,3.74,8.17,9.07v2Zm6.69-5.22a3.49,3.49,0,0,0-6.26,0,4.42,4.42,0,0,0-.43,2H189A4.56,4.56,0,0,0,188.56,163.65ZM204.08,177c-3,0-5.58-.32-8-2.7l3.06-3.06a6.75,6.75,0,0,0,5,1.77c1.62,0,3.31-.54,3.31-1.95,0-.93-.47-1.58-2-1.72l-3-.29c-3.31-.33-5.4-1.8-5.4-5.26,0-3.92,3.42-6,7.23-6,3,0,5.37.54,7.17,2.19l-2.88,2.92a6.47,6.47,0,0,0-4.36-1.26c-1.87,0-2.66.86-2.66,1.8s.54,1.47,1.94,1.62l2.95.29c3.71.36,5.58,2.3,5.58,5.5C212,175,208.5,177,204.08,177Zm16.77-25.92v5.51a5.86,5.86,0,0,1-.34,2.23,5.68,5.68,0,0,1-2.7,3.15,5.79,5.79,0,0,1-2.07.67v-2.38a3.16,3.16,0,0,0,1.87-1.38,4.56,4.56,0,0,0,.51-2.25h-2.38v-5.55Zm32.26,25.71h-3.86L245.33,165l-3.92,11.77h-3.85L231.8,158h5l3,11.59L243.6,158H247l3.86,11.59,3-11.59h4.93Zm19.4,0V165.45c0-2.56-1.62-3.42-3.09-3.42s-3.14.86-3.14,3.42v11.34h-4.67V151.16h4.67v8.6a6.55,6.55,0,0,1,9-.29,7,7,0,0,1,1.91,5.33v12Zm9.65-22V151H287v3.82Zm.07,22V158.57h4.68v18.22Zm17.35.21c-3.74,0-8.38-2-8.38-9.61s4.64-9.57,8.38-9.57a8,8,0,0,1,6.19,2.52l-3.16,3.16a3.79,3.79,0,0,0-3-1.47,3.23,3.23,0,0,0-2.66,1.22,6.36,6.36,0,0,0-1,4.14,6.48,6.48,0,0,0,1,4.18,3.23,3.23,0,0,0,2.66,1.22,3.79,3.79,0,0,0,3-1.47l3.16,3.13A8,8,0,0,1,299.58,177Zm20.74-.21V165.45c0-2.56-1.62-3.42-3.1-3.42s-3.13.86-3.13,3.42v11.34h-4.68V151.16h4.68v8.6a6.55,6.55,0,0,1,9-.29A7,7,0,0,1,325,164.8v12Zm23.36,0a5.1,5.1,0,0,1-5.47-5.37V151.16h4.68v20c0,1.11.47,1.69,1.66,1.69h1.8v4Zm9.76-7.92a3.83,3.83,0,0,0,4.1,4.17,5.31,5.31,0,0,0,4.25-1.76l2.84,2.77a8.78,8.78,0,0,1-7.12,2.95c-4.43,0-8.68-2-8.68-9.61,0-6.12,3.31-9.57,8.17-9.57,5.22,0,8.17,3.74,8.17,9.07v2Zm6.69-5.22a3.49,3.49,0,0,0-6.26,0,4.7,4.7,0,0,0-.43,2h7.13A4.56,4.56,0,0,0,360.13,163.65Zm20.27,13.14V165.45c0-2.56-1.62-3.42-3.09-3.42s-3.14.86-3.14,3.42v11.34H369.5V158h4.57v1.73a6.43,6.43,0,0,1,4.68-1.94,6.08,6.08,0,0,1,4.42,1.65,6.93,6.93,0,0,1,1.91,5.33v12Zm20.09,0V175a5.63,5.63,0,0,1-4.64,2,6.31,6.31,0,0,1-4.57-1.69c-1.8-1.83-1.95-4.75-1.95-7.92s.15-6,1.95-7.88a6.21,6.21,0,0,1,4.53-1.69,5.6,5.6,0,0,1,4.57,1.87v-8.53h4.68v25.63ZM397.18,162c-2.81,0-3.17,2.34-3.17,5.36s.36,5.4,3.17,5.4,3.2-2.37,3.2-5.4S400,162,397.18,162ZM22.89,214.79v-1.62a5.7,5.7,0,0,1-4.61,1.8,6.47,6.47,0,0,1-4.78-1.66A6,6,0,0,1,12,209.1c0-3,2.05-5.44,6.48-5.44h4.35v-.93c0-2-1-2.95-3.49-2.95a4.16,4.16,0,0,0-3.6,1.62l-2.95-2.92c1.84-2,3.6-2.66,6.73-2.66,5.29,0,8,2.23,8,6.62v12.35Zm-.11-7.92H19.22c-1.87,0-2.77.75-2.77,2.16s.9,2.12,2.84,2.12a3.54,3.54,0,0,0,2.77-.9,2.9,2.9,0,0,0,.72-2.37Zm31.83,6.44A6.3,6.3,0,0,1,50.07,215a5.47,5.47,0,0,1-4.53-1.87v8.53H40.86V196h4.53v1.77a5.66,5.66,0,0,1,4.68-2,6.3,6.3,0,0,1,4.54,1.69c1.8,1.84,1.94,4.75,1.94,7.88S56.41,211.48,54.61,213.31ZM48.7,200c-2.8,0-3.16,2.34-3.16,5.36s.36,5.4,3.16,5.4,3.17-2.37,3.17-5.4S51.51,200,48.7,200Zm23.11,14.76v-1.73A6.43,6.43,0,0,1,67.13,215a6.08,6.08,0,0,1-4.42-1.65A7,7,0,0,1,60.8,208V196h4.68v11.34c0,2.56,1.62,3.42,3.09,3.42s3.14-.86,3.14-3.42V196h4.68v18.76Zm23.58-1.48A6.27,6.27,0,0,1,90.86,215a5.64,5.64,0,0,1-4.68-2v1.77H81.64V189.16h4.68v8.53a5.5,5.5,0,0,1,4.54-1.87,6.21,6.21,0,0,1,4.53,1.69c1.8,1.84,2,4.75,2,7.88S97.19,211.48,95.39,213.31ZM89.49,200c-2.81,0-3.17,2.34-3.17,5.36s.36,5.4,3.17,5.4,3.17-2.37,3.17-5.4S92.3,200,89.49,200Zm17.6,14.76a5.1,5.1,0,0,1-5.47-5.37V189.16h4.68v20c0,1.11.47,1.69,1.66,1.69h1.8v4Zm6.34-22V189h4.79v3.82Zm.07,22V196.57h4.68v18.22Zm17.35.21c-3.74,0-8.38-2-8.38-9.61s4.64-9.57,8.38-9.57a8,8,0,0,1,6.2,2.52l-3.17,3.16a3.79,3.79,0,0,0-3-1.47,3.23,3.23,0,0,0-2.66,1.22,6.36,6.36,0,0,0-1,4.14,6.48,6.48,0,0,0,1,4.18,3.23,3.23,0,0,0,2.66,1.22,3.79,3.79,0,0,0,3-1.47l3.17,3.13A8,8,0,0,1,130.85,215Zm31.94-1.69a6.3,6.3,0,0,1-4.54,1.69,5.66,5.66,0,0,1-4.68-2v1.77H149V189.16h4.68v8.53a5.5,5.5,0,0,1,4.54-1.87,6.25,6.25,0,0,1,4.54,1.69c1.79,1.84,1.94,4.75,1.94,7.88S164.58,211.48,162.79,213.31ZM156.88,200c-2.81,0-3.17,2.34-3.17,5.36s.36,5.4,3.17,5.4,3.17-2.37,3.17-5.4S159.69,200,156.88,200Zm21.93,14.76v-1.62a5.7,5.7,0,0,1-4.61,1.8,6.48,6.48,0,0,1-4.79-1.66,6,6,0,0,1-1.55-4.21c0-3,2-5.44,6.48-5.44h4.36v-.93c0-2-1-2.95-3.49-2.95a4.14,4.14,0,0,0-3.6,1.62l-3-2.92c1.84-2,3.6-2.66,6.74-2.66,5.29,0,8,2.23,8,6.62v12.35Zm-.11-7.92h-3.57c-1.87,0-2.77.75-2.77,2.16s.9,2.12,2.85,2.12a3.54,3.54,0,0,0,2.77-.9,2.9,2.9,0,0,0,.72-2.37Zm15,7.92a5.1,5.1,0,0,1-5.47-5.37V189.16h4.68v20c0,1.11.47,1.69,1.65,1.69h1.8v4Zm16,0v-1.62a5.7,5.7,0,0,1-4.61,1.8,6.5,6.5,0,0,1-4.79-1.66,6,6,0,0,1-1.54-4.21c0-3,2.05-5.44,6.48-5.44h4.35v-.93c0-2-1-2.95-3.49-2.95a4.16,4.16,0,0,0-3.6,1.62l-2.95-2.92c1.83-2,3.6-2.66,6.73-2.66,5.29,0,8,2.23,8,6.62v12.35Zm-.11-7.92h-3.56c-1.87,0-2.77.75-2.77,2.16s.9,2.12,2.84,2.12a3.54,3.54,0,0,0,2.77-.9,2.9,2.9,0,0,0,.72-2.37Zm20.63,7.92V203.45c0-2.56-1.62-3.42-3.1-3.42s-3.13.86-3.13,3.42v11.34h-4.68V196h4.57v1.73a6.46,6.46,0,0,1,4.68-1.94,6.09,6.09,0,0,1,4.43,1.65,7,7,0,0,1,1.91,5.33v12Zm17.17.21c-3.74,0-8.39-2-8.39-9.61s4.65-9.57,8.39-9.57a8,8,0,0,1,6.19,2.52l-3.16,3.16a3.81,3.81,0,0,0-3-1.47,3.23,3.23,0,0,0-2.66,1.22,6.35,6.35,0,0,0-1,4.14,6.48,6.48,0,0,0,1,4.18,3.23,3.23,0,0,0,2.66,1.22,3.81,3.81,0,0,0,3-1.47l3.16,3.13A8,8,0,0,1,247.42,215Zm13-8.13a3.83,3.83,0,0,0,4.1,4.17,5.3,5.3,0,0,0,4.25-1.76l2.85,2.77a8.81,8.81,0,0,1-7.13,2.95c-4.43,0-8.68-2-8.68-9.61,0-6.12,3.31-9.57,8.17-9.57,5.22,0,8.18,3.74,8.18,9.07v2Zm6.7-5.22a3.5,3.5,0,0,0-6.27,0,4.7,4.7,0,0,0-.43,2h7.13A4.7,4.7,0,0,0,267.08,201.65Zm23.58,13.14a5.09,5.09,0,0,1-5.44-5.37v-9.28h-2v-3.57h2V191h4.68v5.54h3.31v3.57H289.9v9c0,1.08.51,1.69,1.62,1.69h1.69v4Zm19.62-2.09a7.86,7.86,0,0,1-5.84,2.3,7.75,7.75,0,0,1-5.79-2.3c-1.69-1.8-2.12-3.92-2.12-7.31s.43-5.47,2.12-7.27a8.5,8.5,0,0,1,11.63,0c1.69,1.8,2.12,3.89,2.12,7.27S312,210.94,310.28,212.7Zm-3.64-11.84a3,3,0,0,0-2.2-.83,2.93,2.93,0,0,0-2.16.83c-1,.93-1.07,2.62-1.07,4.53s.1,3.64,1.07,4.57a2.93,2.93,0,0,0,2.16.83,3,3,0,0,0,2.2-.83c1-.93,1.08-2.62,1.08-4.57S307.61,201.79,306.64,200.86Zm24.44,13.93a5.09,5.09,0,0,1-5.43-5.37v-9.28h-2v-3.57h2V191h4.68v5.54h3.31v3.57h-3.31v9c0,1.08.5,1.69,1.62,1.69h1.69v4Zm17.71,0V203.45c0-2.56-1.62-3.42-3.09-3.42s-3.13.86-3.13,3.42v11.34h-4.68V189.16h4.68v8.6a6,6,0,0,1,4.57-1.94,6.12,6.12,0,0,1,4.43,1.65,7,7,0,0,1,1.9,5.33v12Zm13.4-7.92a3.83,3.83,0,0,0,4.1,4.17,5.31,5.31,0,0,0,4.25-1.76l2.84,2.77a8.79,8.79,0,0,1-7.12,2.95c-4.43,0-8.68-2-8.68-9.61,0-6.12,3.31-9.57,8.17-9.57,5.22,0,8.17,3.74,8.17,9.07v2Zm6.69-5.22a3.49,3.49,0,0,0-6.26,0,4.56,4.56,0,0,0-.43,2h7.13A4.56,4.56,0,0,0,368.88,201.65ZM13.21,230.83V227H18v3.82Zm.07,22V234.57H18v18.22Zm20.81,0V241.45c0-2.56-1.62-3.42-3.1-3.42s-3.13.86-3.13,3.42v11.34H23.18V234h4.57v1.73a6.44,6.44,0,0,1,4.68-1.94,6.12,6.12,0,0,1,4.43,1.65,7,7,0,0,1,1.91,5.33v12Zm17.17.21c-3.74,0-8.39-2-8.39-9.61s4.65-9.57,8.39-9.57a8,8,0,0,1,6.19,2.52l-3.17,3.16a3.79,3.79,0,0,0-3-1.47,3.22,3.22,0,0,0-2.66,1.22,6.35,6.35,0,0,0-1.05,4.14,6.48,6.48,0,0,0,1.05,4.18,3.22,3.22,0,0,0,2.66,1.22,3.79,3.79,0,0,0,3-1.47l3.17,3.13A8,8,0,0,1,51.26,253Zm20-13.85a3.12,3.12,0,0,0-5.5,2.33v11.31H61.09V234h4.57v1.8a6.34,6.34,0,0,1,4.71-2,5.67,5.67,0,0,1,4.43,1.76Zm8.82,5.72A3.83,3.83,0,0,0,84.2,249a5.31,5.31,0,0,0,4.25-1.76l2.84,2.77A8.8,8.8,0,0,1,84.16,253c-4.43,0-8.67-2-8.67-9.61,0-6.12,3.31-9.57,8.17-9.57,5.22,0,8.17,3.74,8.17,9.07v2Zm6.7-5.22a3.49,3.49,0,0,0-6.26,0,4.56,4.56,0,0,0-.44,2h7.13A4.56,4.56,0,0,0,86.79,239.65Zm19,13.14v-1.62a5.7,5.7,0,0,1-4.61,1.8,6.47,6.47,0,0,1-4.78-1.66,6,6,0,0,1-1.55-4.21c0-3,2.05-5.44,6.48-5.44h4.35v-.93c0-2-1-2.95-3.49-2.95a4.16,4.16,0,0,0-3.6,1.62l-3-2.92c1.84-2,3.6-2.66,6.73-2.66,5.29,0,8,2.23,8,6.62v12.35Zm-.11-7.92h-3.56c-1.87,0-2.77.75-2.77,2.16s.9,2.12,2.84,2.12a3.54,3.54,0,0,0,2.77-.9,2.9,2.9,0,0,0,.72-2.37ZM121.53,253c-3,0-5.58-.32-8-2.7l3.06-3.06a6.75,6.75,0,0,0,5,1.77c1.62,0,3.31-.54,3.31-1.95,0-.93-.46-1.58-2-1.72l-3-.29c-3.31-.33-5.4-1.8-5.4-5.26,0-3.92,3.42-6,7.24-6,3,0,5.36.54,7.16,2.19L126,238.93a6.47,6.47,0,0,0-4.36-1.26c-1.87,0-2.66.86-2.66,1.8s.54,1.47,1.94,1.62l3,.29c3.7.36,5.57,2.3,5.57,5.5C129.48,251,126,253,121.53,253Zm15.55-8.13a3.83,3.83,0,0,0,4.11,4.17,5.28,5.28,0,0,0,4.24-1.76l2.85,2.77a8.81,8.81,0,0,1-7.13,2.95c-4.43,0-8.68-2-8.68-9.61,0-6.12,3.32-9.57,8.18-9.57,5.21,0,8.17,3.74,8.17,9.07v2Zm6.7-5.22a3.5,3.5,0,0,0-6.27,0,4.7,4.7,0,0,0-.43,2h7.13A4.7,4.7,0,0,0,143.78,239.65Zm19.72,13.14V251a5.62,5.62,0,0,1-4.64,2,6.31,6.31,0,0,1-4.57-1.69c-1.8-1.83-1.94-4.75-1.94-7.92s.14-6,1.94-7.88a6.22,6.22,0,0,1,4.54-1.69,5.63,5.63,0,0,1,4.57,1.87v-8.53h4.68v25.63ZM160.19,238c-2.8,0-3.16,2.34-3.16,5.36s.36,5.4,3.16,5.4,3.21-2.37,3.21-5.4S163,238,160.19,238Zm35.25,13.28A6.3,6.3,0,0,1,190.9,253a5.5,5.5,0,0,1-4.54-1.87v8.53h-4.67V234h4.53v1.77a5.66,5.66,0,0,1,4.68-2,6.3,6.3,0,0,1,4.54,1.69c1.8,1.84,1.94,4.75,1.94,7.88S197.24,249.48,195.44,251.31ZM189.53,238c-2.81,0-3.17,2.34-3.17,5.36s.36,5.4,3.17,5.4,3.17-2.37,3.17-5.4S192.34,238,189.53,238Zm22.5,1.12a3.09,3.09,0,0,0-2.48-1.12,3.12,3.12,0,0,0-3,3.45v11.31h-4.67V234h4.57v1.8a6.34,6.34,0,0,1,4.71-2,5.68,5.68,0,0,1,4.43,1.76Zm6.12-8.32V227h4.79v3.82Zm.07,22V234.57h4.68v18.22Zm18,0h-3.67L225.64,234h4.93l3.82,11.59L238.17,234h4.93Zm19.08,0v-1.62a5.68,5.68,0,0,1-4.6,1.8,6.48,6.48,0,0,1-4.79-1.66,6,6,0,0,1-1.55-4.21c0-3,2-5.44,6.48-5.44h4.36v-.93c0-2-1-2.95-3.5-2.95a4.16,4.16,0,0,0-3.6,1.62l-2.95-2.92c1.84-2,3.6-2.66,6.73-2.66,5.29,0,8,2.23,8,6.62v12.35Zm-.1-7.92h-3.57c-1.87,0-2.77.75-2.77,2.16s.9,2.12,2.84,2.12a3.53,3.53,0,0,0,2.77-.9,2.9,2.9,0,0,0,.73-2.37Zm15.58,7.92a5.09,5.09,0,0,1-5.43-5.37v-9.28h-2v-3.57h2V229H270v5.54h3.31v3.57H270v9c0,1.08.5,1.69,1.62,1.69h1.69v4Zm6.74-22V227h4.78v3.82Zm.07,22V234.57h4.68v18.22Zm8.6,0v-3.57l8.32-11h-7.85V234h13.82v3.57l-8.42,11h8.42v4.21Zm28.12,0v-1.62a5.7,5.7,0,0,1-4.61,1.8,6.5,6.5,0,0,1-4.79-1.66,6,6,0,0,1-1.55-4.21c0-3,2.06-5.44,6.48-5.44h4.36v-.93c0-2-1-2.95-3.49-2.95a4.16,4.16,0,0,0-3.6,1.62l-2.95-2.92c1.83-2,3.6-2.66,6.73-2.66,5.29,0,8,2.23,8,6.62v12.35Zm-.11-7.92h-3.56c-1.88,0-2.78.75-2.78,2.16s.9,2.12,2.85,2.12a3.54,3.54,0,0,0,2.77-.9,2.9,2.9,0,0,0,.72-2.37Zm15.59,7.92a5.09,5.09,0,0,1-5.44-5.37v-9.28h-2v-3.57h2V229H329v5.54h3.31v3.57H329v9c0,1.08.51,1.69,1.62,1.69h1.69v4Zm6.73-22V227h4.79v3.82Zm.07,22V234.57h4.68v18.22Zm22.86-2.09a8.5,8.5,0,0,1-11.63,0c-1.69-1.8-2.12-3.92-2.12-7.31s.43-5.47,2.12-7.27a8.5,8.5,0,0,1,11.63,0c1.69,1.8,2.12,3.89,2.12,7.27S361.18,248.94,359.45,250.7Zm-3.64-11.84a3.26,3.26,0,0,0-4.35,0c-1,.93-1.08,2.62-1.08,4.53s.11,3.64,1.08,4.57a3.26,3.26,0,0,0,4.35,0c1-.93,1.08-2.62,1.08-4.57S356.79,239.79,355.81,238.86ZM377,252.79V241.45c0-2.56-1.62-3.42-3.1-3.42s-3.13.86-3.13,3.42v11.34H366V234h4.57v1.73a6.43,6.43,0,0,1,4.68-1.94,6.12,6.12,0,0,1,4.43,1.65,7,7,0,0,1,1.91,5.33v12Zm31-2.09a7.85,7.85,0,0,1-5.83,2.3,7.76,7.76,0,0,1-5.8-2.3c-1.69-1.8-2.12-3.92-2.12-7.31s.43-5.47,2.12-7.27a8.5,8.5,0,0,1,11.63,0c1.69,1.8,2.12,3.89,2.12,7.27S409.7,248.94,408,250.7Zm-3.64-11.84a3.26,3.26,0,0,0-4.35,0c-1,.93-1.08,2.62-1.08,4.53S399,247,400,248a3.26,3.26,0,0,0,4.35,0c1-.93,1.08-2.62,1.08-4.57S405.31,239.79,404.34,238.86Zm15.48-.72v14.65h-4.68V238.14H413.2v-3.57h1.94v-2.34a5.12,5.12,0,0,1,5.47-5.36h2.67v4h-1.84c-1.11,0-1.62.61-1.62,1.69v2h3.46v3.57ZM24.19,290.79V279.45c0-2.56-1.62-3.42-3.1-3.42s-3.13.86-3.13,3.42v11.34H13.28V265.16H18v8.6a6,6,0,0,1,4.57-1.94A6.12,6.12,0,0,1,27,273.47a7,7,0,0,1,1.91,5.33v12Zm22.68-2.09A7.85,7.85,0,0,1,41,291a7.76,7.76,0,0,1-5.8-2.3c-1.69-1.8-2.12-3.92-2.12-7.31s.43-5.47,2.12-7.27a7.76,7.76,0,0,1,5.8-2.3,7.7,7.7,0,0,1,5.83,2.3c1.69,1.8,2.12,3.89,2.12,7.27S48.59,286.94,46.87,288.7Zm-3.64-11.84a3.26,3.26,0,0,0-4.35,0c-1,.93-1.08,2.62-1.08,4.53s.1,3.64,1.08,4.57a3.26,3.26,0,0,0,4.35,0c1-.93,1.08-2.62,1.08-4.57S44.2,277.79,43.23,276.86Zm32,13.93V279.45c0-2.56-1.62-3.42-3.1-3.42A3,3,0,0,0,69,279.34v11.45H64.36V279.45c0-2.56-1.62-3.42-3.09-3.42s-3.13.86-3.13,3.42v11.34H53.46V272H58v1.73a6.55,6.55,0,0,1,4.68-1.94,5.79,5.79,0,0,1,5,2.37,7.18,7.18,0,0,1,5.62-2.37,6.58,6.58,0,0,1,4.61,1.65,7.1,7.1,0,0,1,2,5.33v12Zm13.39-7.92A3.83,3.83,0,0,0,92.77,287,5.28,5.28,0,0,0,97,285.28l2.85,2.77A8.81,8.81,0,0,1,92.73,291c-4.43,0-8.67-2-8.67-9.61,0-6.12,3.31-9.57,8.17-9.57,5.22,0,8.17,3.74,8.17,9.07v2Zm6.7-5.22a3.5,3.5,0,0,0-6.27,0,4.7,4.7,0,0,0-.43,2h7.13A4.7,4.7,0,0,0,95.36,277.65Zm23,13.14a5.1,5.1,0,0,1-5.47-5.37V265.16h4.68v20c0,1.11.47,1.69,1.66,1.69H121v4Zm6.34-22V265h4.79v3.82Zm.07,22V272.57h4.68v18.22Zm15.16-14.65v14.65h-4.68V276.14H133.3v-3.57h1.95v-2.34a5.11,5.11,0,0,1,5.47-5.36h2.66v4h-1.83c-1.12,0-1.62.61-1.62,1.69v2.05h3.45v3.57Zm10.18,6.73a3.83,3.83,0,0,0,4.11,4.17,5.31,5.31,0,0,0,4.25-1.76l2.84,2.77a8.8,8.8,0,0,1-7.13,2.95c-4.43,0-8.67-2-8.67-9.61,0-6.12,3.31-9.57,8.17-9.57,5.22,0,8.17,3.74,8.17,9.07v2Zm6.7-5.22a3.49,3.49,0,0,0-6.26,0,4.56,4.56,0,0,0-.44,2h7.13A4.56,4.56,0,0,0,156.81,277.65ZM166,290.79v-5.33h5.36v5.33Zm28.94-21.17v21.17h-5V269.62h-6.7v-4.46h18.4v4.46Zm21.31,21.17V279.45c0-2.56-1.62-3.42-3.09-3.42s-3.13.86-3.13,3.42v11.34h-4.68V265.16H210v8.6a6,6,0,0,1,4.57-1.94,6.12,6.12,0,0,1,4.43,1.65,7,7,0,0,1,1.9,5.33v12Zm9.65-22V265h4.79v3.82Zm.08,22V272.57h4.68v18.22Zm20.08-13.65a3.13,3.13,0,0,0-5.51,2.34v11.31h-4.68V272h4.58v1.8a6.34,6.34,0,0,1,4.71-2,5.68,5.68,0,0,1,4.43,1.76Zm15.48,13.65V289a5.62,5.62,0,0,1-4.64,2,6.31,6.31,0,0,1-4.57-1.69c-1.8-1.83-1.95-4.75-1.95-7.92s.15-6.05,1.95-7.88a6.21,6.21,0,0,1,4.53-1.69,5.6,5.6,0,0,1,4.57,1.87v-8.53h4.68v25.63ZM258.22,276c-2.81,0-3.17,2.34-3.17,5.36s.36,5.4,3.17,5.4,3.2-2.37,3.2-5.4S261,276,258.22,276Zm35.24,13.28a6.27,6.27,0,0,1-4.53,1.69,5.5,5.5,0,0,1-4.54-1.87v8.53h-4.68V272h4.54v1.77a5.64,5.64,0,0,1,4.68-2,6.27,6.27,0,0,1,4.53,1.69c1.8,1.83,2,4.75,2,7.88S295.26,287.48,293.46,289.31ZM287.56,276c-2.81,0-3.17,2.34-3.17,5.36s.36,5.4,3.17,5.4,3.17-2.37,3.17-5.4S290.37,276,287.56,276Zm17.6,14.76a5.1,5.1,0,0,1-5.47-5.37V265.16h4.68v20c0,1.11.47,1.69,1.66,1.69h1.8v4Zm16,0v-1.62a5.68,5.68,0,0,1-4.6,1.8,6.48,6.48,0,0,1-4.79-1.66,6,6,0,0,1-1.55-4.21c0-3,2.05-5.44,6.48-5.44h4.36v-.93c0-2.05-1-3-3.5-3a4.16,4.16,0,0,0-3.6,1.62l-3-2.92c1.84-2,3.6-2.66,6.73-2.66,5.29,0,8,2.23,8,6.62v12.35Zm-.1-7.92h-3.57c-1.87,0-2.77.75-2.77,2.16s.9,2.12,2.84,2.12a3.53,3.53,0,0,0,2.77-.9,2.9,2.9,0,0,0,.73-2.37ZM338.25,291c-3.75,0-8.39-2-8.39-9.61s4.64-9.57,8.39-9.57a8,8,0,0,1,6.19,2.52l-3.17,3.16a3.79,3.79,0,0,0-3-1.47,3.25,3.25,0,0,0-2.67,1.22,6.36,6.36,0,0,0-1,4.14,6.48,6.48,0,0,0,1,4.18,3.25,3.25,0,0,0,2.67,1.22,3.79,3.79,0,0,0,3-1.47l3.17,3.13A8,8,0,0,1,338.25,291Zm13-8.13a3.83,3.83,0,0,0,4.1,4.17,5.31,5.31,0,0,0,4.25-1.76l2.84,2.77a8.79,8.79,0,0,1-7.12,2.95c-4.43,0-8.68-2-8.68-9.61,0-6.12,3.31-9.57,8.17-9.57,5.22,0,8.17,3.74,8.17,9.07v2Zm6.69-5.22a3.49,3.49,0,0,0-6.26,0,4.56,4.56,0,0,0-.43,2h7.12A4.42,4.42,0,0,0,357.9,277.65ZM373.42,291c-2.95,0-5.58-.32-8-2.7l3.06-3.06a6.75,6.75,0,0,0,5,1.77c1.62,0,3.31-.54,3.31-1.95,0-.93-.47-1.58-2-1.72l-3-.29c-3.31-.33-5.4-1.8-5.4-5.26,0-3.92,3.42-6,7.23-6,3,0,5.37.54,7.17,2.19l-2.88,2.92a6.47,6.47,0,0,0-4.36-1.26c-1.87,0-2.66.86-2.66,1.8s.54,1.47,1.94,1.62l3,.29c3.71.36,5.58,2.3,5.58,5.5C381.37,289,377.85,291,373.42,291Zm29.84-.21v-1.62a5.7,5.7,0,0,1-4.61,1.8,6.47,6.47,0,0,1-4.78-1.66,6,6,0,0,1-1.55-4.21c0-3,2.05-5.44,6.48-5.44h4.35v-.93c0-2.05-1-3-3.49-3a4.16,4.16,0,0,0-3.6,1.62l-2.95-2.92c1.84-2,3.6-2.66,6.73-2.66,5.29,0,8,2.23,8,6.62v12.35Zm-.11-7.92h-3.56c-1.87,0-2.77.75-2.77,2.16s.9,2.12,2.84,2.12a3.54,3.54,0,0,0,2.77-.9,2.9,2.9,0,0,0,.72-2.37Zm19.91-5.73a3.13,3.13,0,0,0-5.51,2.34v11.31h-4.67V272h4.57v1.8a6.34,6.34,0,0,1,4.71-2,5.68,5.68,0,0,1,4.43,1.76Zm8.79,5.73A3.83,3.83,0,0,0,436,287a5.31,5.31,0,0,0,4.25-1.76l2.84,2.77a8.8,8.8,0,0,1-7.13,2.95c-4.42,0-8.67-2-8.67-9.61,0-6.12,3.31-9.57,8.17-9.57,5.22,0,8.17,3.74,8.17,9.07v2Zm6.69-5.22a3.49,3.49,0,0,0-6.26,0,4.42,4.42,0,0,0-.43,2H439A4.42,4.42,0,0,0,438.54,277.65ZM27,365.31A6.28,6.28,0,0,1,22.49,367,5.49,5.49,0,0,1,18,365.13v8.53H13.28V348h4.54v1.77a5.64,5.64,0,0,1,4.67-2A6.28,6.28,0,0,1,27,349.51c1.8,1.83,1.94,4.75,1.94,7.88S28.83,363.48,27,365.31ZM21.13,352c-2.81,0-3.17,2.34-3.17,5.36s.36,5.4,3.17,5.4,3.16-2.37,3.16-5.4S23.93,352,21.13,352Zm23.11,14.76v-1.73A6.39,6.39,0,0,1,39.56,367a6.12,6.12,0,0,1-4.43-1.65A7,7,0,0,1,33.22,360V348H37.9v11.34c0,2.56,1.62,3.42,3.1,3.42s3.13-.86,3.13-3.42V348h4.68v18.76Zm23.58-1.48A6.3,6.3,0,0,1,63.28,367a5.67,5.67,0,0,1-4.68-2v1.77H54.07V341.16h4.68v8.53a5.49,5.49,0,0,1,4.53-1.87,6.25,6.25,0,0,1,4.54,1.69c1.8,1.83,1.94,4.75,1.94,7.88S69.62,363.48,67.82,365.31ZM61.92,352c-2.81,0-3.17,2.34-3.17,5.36s.36,5.4,3.17,5.4,3.16-2.37,3.16-5.4S64.72,352,61.92,352Zm17.6,14.76a5.1,5.1,0,0,1-5.47-5.37V341.16h4.68v20c0,1.11.47,1.69,1.65,1.69h1.8v4Zm6.34-22V341h4.78v3.82Zm.07,22V348.57h4.68v18.22Zm17.35.21c-3.74,0-8.39-2-8.39-9.61s4.65-9.57,8.39-9.57a8,8,0,0,1,6.19,2.52l-3.17,3.16a3.79,3.79,0,0,0-3-1.47,3.25,3.25,0,0,0-2.67,1.22,6.42,6.42,0,0,0-1,4.14,6.55,6.55,0,0,0,1,4.18,3.25,3.25,0,0,0,2.67,1.22,3.79,3.79,0,0,0,3-1.47l3.17,3.13A8,8,0,0,1,103.28,367Zm24.66,6.88c-2.88,0-4.86-.58-6.8-2.45l2.91-2.95a4.77,4.77,0,0,0,3.67,1.44c2.81,0,3.78-2,3.78-3.89v-1.91A5.49,5.49,0,0,1,127,366a6.24,6.24,0,0,1-4.46-1.66c-1.77-1.76-1.91-4.18-1.91-7.45s.14-5.65,1.91-7.42a6.32,6.32,0,0,1,4.49-1.65,5.51,5.51,0,0,1,4.58,2V348h4.53V366.1C136.18,370.6,133,373.88,127.94,373.88Zm.47-21.85c-2.78,0-3.06,2.37-3.06,4.86s.28,4.89,3.06,4.89,3.09-2.41,3.09-4.89S131.18,352,128.41,352Zm22.64,14.76v-1.62a5.7,5.7,0,0,1-4.61,1.8,6.5,6.5,0,0,1-4.79-1.66,6,6,0,0,1-1.54-4.21c0-3,2-5.44,6.48-5.44h4.35v-.93c0-2.05-1-3-3.49-3a4.16,4.16,0,0,0-3.6,1.62l-2.95-2.92c1.83-2,3.6-2.66,6.73-2.66,5.29,0,8,2.23,8,6.62v12.35Zm-.11-7.92h-3.56c-1.87,0-2.77.75-2.77,2.16s.9,2.12,2.84,2.12a3.54,3.54,0,0,0,2.77-.9,2.9,2.9,0,0,0,.72-2.37Zm15.59,7.92a5.09,5.09,0,0,1-5.44-5.37v-9.28h-2v-3.57h2V343h4.68v5.54h3.32v3.57h-3.32v9c0,1.08.51,1.69,1.62,1.69h1.7v4Zm17.71,0V355.45c0-2.56-1.62-3.42-3.09-3.42s-3.14.86-3.14,3.42v11.34h-4.68V341.16H178v8.6a6.55,6.55,0,0,1,9-.29,7,7,0,0,1,1.91,5.33v12Zm13.39-7.92a3.83,3.83,0,0,0,4.11,4.17,5.28,5.28,0,0,0,4.24-1.76l2.85,2.77A8.81,8.81,0,0,1,201.7,367c-4.43,0-8.67-2-8.67-9.61,0-6.12,3.31-9.57,8.17-9.57,5.22,0,8.17,3.74,8.17,9.07v2Zm6.7-5.22a3.49,3.49,0,0,0-6.26,0,4.56,4.56,0,0,0-.44,2h7.13A4.7,4.7,0,0,0,204.33,353.65Zm19.55-.51a3.13,3.13,0,0,0-5.51,2.34v11.31h-4.68V348h4.57v1.8a6.35,6.35,0,0,1,4.72-2,5.66,5.66,0,0,1,4.42,1.76Zm6.12-8.31V341h4.79v3.82Zm.07,22V348.57h4.68v18.22Zm20.81,0V355.45c0-2.56-1.62-3.42-3.1-3.42s-3.13.86-3.13,3.42v11.34H240V348h4.57v1.73a6.43,6.43,0,0,1,4.68-1.94,6.12,6.12,0,0,1,4.43,1.65,7,7,0,0,1,1.9,5.33v12Zm16.2,7.09c-2.88,0-4.86-.58-6.81-2.45l2.92-2.95a4.77,4.77,0,0,0,3.67,1.44c2.81,0,3.78-2,3.78-3.89v-1.91a5.49,5.49,0,0,1-4.46,1.88,6.28,6.28,0,0,1-4.47-1.66c-1.76-1.76-1.9-4.18-1.9-7.45s.14-5.65,1.9-7.42a6.36,6.36,0,0,1,4.5-1.65,5.48,5.48,0,0,1,4.57,2V348h4.54V366.1C275.32,370.6,272.12,373.88,267.08,373.88Zm.46-21.85c-2.77,0-3.05,2.37-3.05,4.86s.28,4.89,3.05,4.89,3.1-2.41,3.1-4.89S270.32,352,267.54,352Zm35.14,13.28a6.3,6.3,0,0,1-4.54,1.69,5.49,5.49,0,0,1-4.53-1.87v8.53h-4.68V348h4.53v1.77a5.67,5.67,0,0,1,4.68-2,6.3,6.3,0,0,1,4.54,1.69c1.8,1.83,1.94,4.75,1.94,7.88S304.48,363.48,302.68,365.31ZM296.78,352c-2.81,0-3.17,2.34-3.17,5.36s.36,5.4,3.17,5.4,3.16-2.37,3.16-5.4S299.58,352,296.78,352Zm17.6,14.76a5.1,5.1,0,0,1-5.47-5.37V341.16h4.68v20c0,1.11.47,1.69,1.65,1.69H317v4Zm16,0v-1.62a5.7,5.7,0,0,1-4.61,1.8,6.5,6.5,0,0,1-4.79-1.66,6,6,0,0,1-1.54-4.21c0-3,2.05-5.44,6.48-5.44h4.35v-.93c0-2.05-1-3-3.49-3a4.16,4.16,0,0,0-3.6,1.62l-2.95-2.92c1.83-2,3.6-2.66,6.73-2.66,5.29,0,8,2.23,8,6.62v12.35Zm-.11-7.92h-3.56c-1.87,0-2.77.75-2.77,2.16s.9,2.12,2.84,2.12a3.54,3.54,0,0,0,2.77-.9,2.9,2.9,0,0,0,.72-2.37ZM347.46,367c-3.74,0-8.38-2-8.38-9.61s4.64-9.57,8.38-9.57a8,8,0,0,1,6.19,2.52l-3.16,3.16a3.79,3.79,0,0,0-3-1.47,3.23,3.23,0,0,0-2.66,1.22,6.36,6.36,0,0,0-1,4.14,6.48,6.48,0,0,0,1,4.18,3.23,3.23,0,0,0,2.66,1.22,3.79,3.79,0,0,0,3-1.47l3.16,3.13A8,8,0,0,1,347.46,367Zm13-8.13a3.83,3.83,0,0,0,4.11,4.17,5.28,5.28,0,0,0,4.24-1.76l2.85,2.77a8.81,8.81,0,0,1-7.13,2.95c-4.43,0-8.67-2-8.67-9.61,0-6.12,3.31-9.57,8.17-9.57,5.22,0,8.17,3.74,8.17,9.07v2Zm6.7-5.22a3.49,3.49,0,0,0-6.26,0,4.56,4.56,0,0,0-.44,2h7.13A4.7,4.7,0,0,0,367.12,353.65ZM382.64,367c-3,0-5.58-.32-8-2.7l3.06-3.06a6.79,6.79,0,0,0,5,1.77c1.62,0,3.31-.54,3.31-1.95,0-.93-.47-1.58-2-1.72l-3-.29c-3.32-.33-5.4-1.8-5.4-5.26,0-3.92,3.42-6,7.23-6,2.95,0,5.36.54,7.16,2.19l-2.88,2.92a6.45,6.45,0,0,0-4.35-1.26c-1.87,0-2.66.86-2.66,1.8s.54,1.47,1.94,1.62l2.95.29c3.71.36,5.58,2.3,5.58,5.5C390.59,365,387.06,367,382.64,367Zm11.69-.21v-5.33h5.37v5.33Zm-370.14-38V317.45c0-2.56-1.62-3.42-3.1-3.42s-3.13.86-3.13,3.42v11.34H13.28V310h4.57v1.73a6.44,6.44,0,0,1,4.68-1.94A6.12,6.12,0,0,1,27,311.47a7,7,0,0,1,1.91,5.33v12Zm22.68-2.09A7.85,7.85,0,0,1,41,329a7.76,7.76,0,0,1-5.8-2.3c-1.69-1.8-2.12-3.92-2.12-7.31s.43-5.47,2.12-7.27a7.76,7.76,0,0,1,5.8-2.3,7.7,7.7,0,0,1,5.83,2.3c1.69,1.8,2.12,3.89,2.12,7.27S48.59,324.94,46.87,326.7Zm-3.64-11.84a3.26,3.26,0,0,0-4.35,0c-1,.93-1.08,2.62-1.08,4.53s.1,3.64,1.08,4.57a3.26,3.26,0,0,0,4.35,0c1-.93,1.08-2.62,1.08-4.57S44.2,315.79,43.23,314.86Zm16.09,13.93a5.09,5.09,0,0,1-5.43-5.37v-9.28h-2v-3.57h2V305h4.68v5.54h3.31v3.57H58.57v9c0,1.08.5,1.69,1.62,1.69h1.69v4Zm17.71,0V317.45c0-2.56-1.62-3.42-3.09-3.42s-3.13.86-3.13,3.42v11.34H66.13V303.16h4.68v8.6a6,6,0,0,1,4.57-1.94,6.12,6.12,0,0,1,4.43,1.65,7,7,0,0,1,1.9,5.33v12Zm9.65-22V303h4.79v3.82Zm.08,22V310.57h4.68v18.22Zm20.8,0V317.45c0-2.56-1.62-3.42-3.09-3.42s-3.14.86-3.14,3.42v11.34H96.65V310h4.58v1.73a6.43,6.43,0,0,1,4.68-1.94,6.08,6.08,0,0,1,4.42,1.65,6.94,6.94,0,0,1,1.91,5.33v12Zm16.2,7.09c-2.88,0-4.86-.58-6.8-2.45l2.91-2.95a4.79,4.79,0,0,0,3.68,1.44c2.8,0,3.78-2,3.78-3.89v-1.91a5.51,5.51,0,0,1-4.47,1.88,6.25,6.25,0,0,1-4.46-1.66c-1.76-1.76-1.91-4.18-1.91-7.45s.15-5.65,1.91-7.42a6.33,6.33,0,0,1,4.5-1.65,5.49,5.49,0,0,1,4.57,2V310H132V328.1C132,332.6,128.8,335.88,123.76,335.88Zm.47-21.85c-2.77,0-3.06,2.37-3.06,4.86s.29,4.89,3.06,4.89,3.1-2.41,3.1-4.89S127,314,124.23,314Zm43.2,14.76V317.45c0-2.56-1.62-3.42-3.1-3.42a3,3,0,0,0-3.13,3.31v11.45h-4.68V317.45c0-2.56-1.62-3.42-3.09-3.42s-3.14.86-3.14,3.42v11.34h-4.68V310h4.58v1.73a6.55,6.55,0,0,1,4.68-1.94,5.79,5.79,0,0,1,5,2.37,7.18,7.18,0,0,1,5.62-2.37,6.58,6.58,0,0,1,4.61,1.65,7.1,7.1,0,0,1,2.05,5.33v12Zm22.68-2.09a8.5,8.5,0,0,1-11.63,0c-1.69-1.8-2.12-3.92-2.12-7.31s.43-5.47,2.12-7.27a8.5,8.5,0,0,1,11.63,0c1.69,1.8,2.12,3.89,2.12,7.27S191.84,324.94,190.11,326.7Zm-3.64-11.84a3.26,3.26,0,0,0-4.35,0c-1,.93-1.08,2.62-1.08,4.53s.11,3.64,1.08,4.57a3.26,3.26,0,0,0,4.35,0c1-.93,1.08-2.62,1.08-4.57S187.45,315.79,186.47,314.86Zm20.42.28a3.13,3.13,0,0,0-5.51,2.34v11.31H196.7V310h4.57v1.8a6.35,6.35,0,0,1,4.72-2,5.66,5.66,0,0,1,4.42,1.76Zm8.78,5.73a3.83,3.83,0,0,0,4.1,4.17,5.31,5.31,0,0,0,4.25-1.76l2.84,2.77a8.78,8.78,0,0,1-7.12,2.95c-4.43,0-8.68-2-8.68-9.61,0-6.12,3.31-9.57,8.17-9.57,5.22,0,8.17,3.74,8.17,9.07v2Zm6.69-5.22a3.49,3.49,0,0,0-6.26,0,4.7,4.7,0,0,0-.43,2h7.13A4.56,4.56,0,0,0,222.36,315.65Zm23.58,13.14a5.09,5.09,0,0,1-5.43-5.37v-9.28h-2v-3.57h2V305h4.68v5.54h3.31v3.57h-3.31v9c0,1.08.5,1.69,1.62,1.69h1.69v4Zm17.72,0V317.45c0-2.56-1.62-3.42-3.1-3.42s-3.13.86-3.13,3.42v11.34h-4.68V303.16h4.68v8.6a6,6,0,0,1,4.57-1.94,6.12,6.12,0,0,1,4.43,1.65,7,7,0,0,1,1.9,5.33v12Zm19.33,0v-1.62a5.7,5.7,0,0,1-4.61,1.8,6.5,6.5,0,0,1-4.79-1.66A6,6,0,0,1,272,323.1c0-3,2.06-5.44,6.48-5.44h4.36v-.93c0-2.05-1-3-3.49-3a4.16,4.16,0,0,0-3.6,1.62l-3-2.92c1.83-2,3.6-2.66,6.73-2.66,5.29,0,8,2.23,8,6.62v12.35Zm-.11-7.92h-3.56c-1.88,0-2.78.75-2.78,2.16s.9,2.12,2.85,2.12a3.54,3.54,0,0,0,2.77-.9,2.9,2.9,0,0,0,.72-2.37Zm20.63,7.92V317.45c0-2.56-1.62-3.42-3.1-3.42s-3.13.86-3.13,3.42v11.34H292.6V310h4.57v1.73a6.44,6.44,0,0,1,4.68-1.94,6.12,6.12,0,0,1,4.43,1.65,7,7,0,0,1,1.91,5.33v12Zm18-22V303h4.79v3.82Zm.07,22V310.57h4.68v18.22Zm20.81,0V317.45c0-2.56-1.62-3.42-3.1-3.42s-3.13.86-3.13,3.42v11.34h-4.68V310h4.57v1.73a6.44,6.44,0,0,1,4.68-1.94,6.12,6.12,0,0,1,4.43,1.65,7,7,0,0,1,1.91,5.33v12Zm15-14.65v14.65h-4.68V314.14h-1.94v-3.57h1.94v-2.34a5.12,5.12,0,0,1,5.48-5.36h2.66v4H359c-1.11,0-1.62.61-1.62,1.69v2.05h3.46v3.57Zm19.51,12.56A7.84,7.84,0,0,1,371,329a7.75,7.75,0,0,1-5.79-2.3c-1.69-1.8-2.13-3.92-2.13-7.31s.44-5.47,2.13-7.27a8.49,8.49,0,0,1,11.62,0c1.7,1.8,2.13,3.89,2.13,7.27S378.6,324.94,376.87,326.7Zm-3.63-11.84A3,3,0,0,0,371,314a2.93,2.93,0,0,0-2.16.83c-1,.93-1.08,2.62-1.08,4.53s.11,3.64,1.08,4.57a2.93,2.93,0,0,0,2.16.83,3,3,0,0,0,2.2-.83c1-.93,1.08-2.62,1.08-4.57S374.21,315.79,373.24,314.86Zm20.41.28a3.13,3.13,0,0,0-5.51,2.34v11.31h-4.68V310H388v1.8a6.31,6.31,0,0,1,4.71-2,5.68,5.68,0,0,1,4.43,1.76Zm28,13.65V317.45c0-2.56-1.62-3.42-3.1-3.42a3,3,0,0,0-3.13,3.31v11.45h-4.68V317.45c0-2.56-1.62-3.42-3.1-3.42s-3.13.86-3.13,3.42v11.34h-4.68V310h4.58v1.73a6.54,6.54,0,0,1,4.67-1.94,5.81,5.81,0,0,1,5,2.37,7.18,7.18,0,0,1,5.62-2.37,6.53,6.53,0,0,1,4.6,1.65,7.07,7.07,0,0,1,2.06,5.33v12Zm19.33,0v-1.62a5.7,5.7,0,0,1-4.61,1.8,6.47,6.47,0,0,1-4.78-1.66,6,6,0,0,1-1.55-4.21c0-3,2.05-5.44,6.48-5.44h4.35v-.93c0-2.05-1-3-3.49-3a4.16,4.16,0,0,0-3.6,1.62l-3-2.92c1.84-2,3.6-2.66,6.73-2.66,5.29,0,8,2.23,8,6.62v12.35Zm-.11-7.92h-3.56c-1.87,0-2.77.75-2.77,2.16s.9,2.12,2.84,2.12a3.54,3.54,0,0,0,2.77-.9,2.9,2.9,0,0,0,.72-2.37Zm15,7.92a5.1,5.1,0,0,1-5.47-5.37V303.16h4.68v20c0,1.11.47,1.69,1.66,1.69h1.8v4ZM11.72,405.48v-1H22.39v1Zm22.39,3.31-2.27-4.43h-2.4v4.43H28.38v-10H32.2a2.7,2.7,0,0,1,3,2.78A2.59,2.59,0,0,1,33,404.26l2.36,4.53Zm-2-9H29.44v3.65H32.1a1.83,1.83,0,1,0,0-3.65Zm9.06,9v-.66a2.43,2.43,0,0,1-2,.74,2.49,2.49,0,0,1-2-.63,1.9,1.9,0,0,1-.51-1.4c0-1.22.85-2,2.39-2h2.06v-.66c0-1-.49-1.51-1.76-1.51a1.84,1.84,0,0,0-1.74.8l-.69-.63a2.65,2.65,0,0,1,2.44-1c1.86,0,2.76.81,2.76,2.3v4.68Zm0-3.18H39.24c-1,0-1.55.4-1.55,1.22s.49,1.17,1.59,1.17a2.06,2.06,0,0,0,1.53-.46,1.58,1.58,0,0,0,.35-1.19Zm5.11,4.84a2,2,0,0,1-.49.82,1.89,1.89,0,0,1-1.35.47H44v-.89h.31c.7,0,.91-.23,1.13-.86l.49-1.34-2.48-6.75h1.1l1.89,5.53,1.87-5.53h1.1Zm13.81-2.56a3.65,3.65,0,0,1-5,0c-.94-.94-1-1.81-1-4.09s0-3.15,1-4.09a3.65,3.65,0,0,1,5,0c.93.94,1,1.81,1,4.09S61,407,60.08,407.89Zm-.76-7.51a2.48,2.48,0,0,0-3.45,0c-.63.65-.7,1.38-.7,3.42s.07,2.77.7,3.42a2.48,2.48,0,0,0,3.45,0c.63-.65.7-1.37.7-3.42S60,401,59.32,400.38Zm5.81,8.41A1.64,1.64,0,0,1,63.38,407v-8.14h1v8.1c0,.67.23,1,.93,1h.55v.87Zm6.37,0V408a2.22,2.22,0,0,1-2,.91,2.37,2.37,0,0,1-1.68-.6,5.53,5.53,0,0,1,0-5.86,2.37,2.37,0,0,1,1.68-.6,2.21,2.21,0,0,1,1.94.88v-3.88h1v10Zm-1.74-6.08c-1.51,0-1.74,1.29-1.74,2.63s.23,2.63,1.74,2.63,1.72-1.28,1.72-2.63S71.26,402.71,69.76,402.71Zm5.88,2.9c0,1.51.7,2.38,2,2.38a2.27,2.27,0,0,0,1.81-.79l.68.61a3.16,3.16,0,0,1-2.52,1.06c-1.83,0-3-1.09-3-3.53,0-2.24,1.08-3.53,2.83-3.53s2.83,1.28,2.83,3.35v.45Zm3.43-1.91a1.77,1.77,0,0,0-3.22,0,2.66,2.66,0,0,0-.21,1.15H79.3A3,3,0,0,0,79.07,403.7Zm7.77,5.09v-4.25a1.6,1.6,0,0,0-1.69-1.83,1.62,1.62,0,0,0-1.71,1.83v4.25h-1V401.9h1v.75a2.48,2.48,0,0,1,1.93-.84,2.44,2.44,0,0,1,1.77.65,2.54,2.54,0,0,1,.71,1.92v4.41Zm8.09-.52a2.37,2.37,0,0,1-1.68.6,2.19,2.19,0,0,1-1.94-.91v.83h-1v-10h1v3.88a2.23,2.23,0,0,1,1.94-.88,2.37,2.37,0,0,1,1.68.6,5.53,5.53,0,0,1,0,5.86ZM93,402.71c-1.51,0-1.73,1.29-1.73,2.63S91.53,408,93,408s1.73-1.28,1.73-2.63S94.54,402.71,93,402.71Zm9.24,6.08V408a2.51,2.51,0,0,1-1.94.85,2.44,2.44,0,0,1-1.78-.64,2.59,2.59,0,0,1-.7-1.94V401.9h1v4.24c0,1.22.64,1.83,1.68,1.83a1.63,1.63,0,0,0,1.72-1.83V401.9h1v6.89Zm7.37-5.58a1.44,1.44,0,0,0-1.19-.5,1.69,1.69,0,0,0-1.66,1.85v4.23h-1V401.9h1v.84a2.32,2.32,0,0,1,1.94-.93,2.12,2.12,0,0,1,1.65.65ZM113.5,412a3,3,0,0,1-2.34-.92l.66-.65a2.1,2.1,0,0,0,1.65.69c1.33,0,1.89-.94,1.89-2.11v-1.08a2.22,2.22,0,0,1-1.93.89,2.39,2.39,0,0,1-1.67-.61,5.34,5.34,0,0,1,0-5.75,2.41,2.41,0,0,1,1.68-.6,2.16,2.16,0,0,1,1.93.9v-.81h1V409A2.74,2.74,0,0,1,113.5,412Zm.15-9.24c-1.5,0-1.72,1.29-1.72,2.58s.22,2.57,1.72,2.57,1.71-1.29,1.71-2.57S115.15,402.71,113.65,402.71Z"/></g></g></g></svg>
