<?xml version="1.0" encoding="UTF-8"?>
<svg id="Layer_2" data-name="Layer 2" xmlns="http://www.w3.org/2000/svg" viewBox="0 0 495.81 528.19">
  <defs>
    <style>
      .cls-1 {
        fill: none;
      }

      .cls-2 {
        fill: #fff;
      }
    </style>
  </defs>
  <g id="outlines">
    <rect class="cls-1" width="495.81" height="528.19"/>
    <path class="cls-2" d="M80.7,175.94v-7.15h-5.78v7.15h-3.34v-17.09h3.34v6.98h5.78v-6.98h3.34v17.09h-3.34Zm15.72-1.39c-.79,.82-2.04,1.54-3.89,1.54s-3.07-.72-3.86-1.54c-1.13-1.2-1.42-2.62-1.42-4.87s.29-3.65,1.42-4.85c.79-.82,2.02-1.54,3.86-1.54s3.1,.7,3.89,1.54c1.13,1.2,1.42,2.59,1.42,4.85s-.26,3.7-1.42,4.87Zm-2.42-7.9c-.36-.36-.84-.55-1.46-.55s-1.08,.19-1.44,.55c-.65,.62-.72,1.75-.72,3.02s.07,2.42,.72,3.05c.36,.36,.84,.55,1.44,.55s1.1-.19,1.46-.55c.65-.62,.72-1.75,.72-3.05s-.07-2.4-.72-3.02Zm21.36,9.29v-7.56c0-1.7-1.08-2.28-2.06-2.28s-2.09,.58-2.09,2.21v7.63h-3.12v-7.56c0-1.7-1.08-2.28-2.06-2.28s-2.09,.58-2.09,2.28v7.56h-3.12v-12.5h3.05v1.15c.82-.84,1.97-1.3,3.12-1.3,1.39,0,2.52,.5,3.31,1.58,1.06-1.1,2.18-1.58,3.74-1.58,1.25,0,2.38,.41,3.07,1.1,1.01,1.01,1.37,2.18,1.37,3.55v7.99h-3.12Zm8.93-5.28c0,1.63,.96,2.78,2.74,2.78,1.37,0,2.04-.41,2.83-1.18l1.9,1.85c-1.27,1.3-2.5,1.97-4.75,1.97-2.95,0-5.78-1.34-5.78-6.41,0-4.08,2.21-6.38,5.45-6.38,3.48,0,5.45,2.5,5.45,6.05v1.32h-7.82Zm4.46-3.48c-.34-.74-1.03-1.3-2.09-1.3s-1.75,.55-2.09,1.3c-.22,.46-.26,.79-.29,1.34h4.75c-.02-.55-.07-.89-.29-1.34Zm20.98,7.78c-.7,.72-1.8,1.13-3.02,1.13-1.34,0-2.26-.36-3.12-1.32v1.18h-3.02v-17.09h3.12v5.69c.79-.91,1.75-1.25,3.02-1.25s2.33,.41,3.02,1.13c1.2,1.22,1.3,3.17,1.3,5.26s-.1,4.06-1.3,5.28Zm-3.94-8.86c-1.87,0-2.11,1.56-2.11,3.58s.24,3.6,2.11,3.6,2.11-1.58,2.11-3.6-.24-3.58-2.11-3.58Zm14.62,9.84v-1.08c-.84,.84-1.63,1.2-3.07,1.2s-2.47-.38-3.19-1.1c-.67-.7-1.03-1.7-1.03-2.81,0-1.99,1.37-3.62,4.32-3.62h2.9v-.62c0-1.37-.67-1.97-2.33-1.97-1.13,0-1.73,.31-2.4,1.08l-1.97-1.94c1.22-1.34,2.4-1.78,4.49-1.78,3.53,0,5.33,1.49,5.33,4.42v8.23h-3.05Zm-.07-5.28h-2.38c-1.25,0-1.85,.5-1.85,1.44,0,.86,.6,1.42,1.9,1.42,.77,0,1.32-.1,1.85-.6,.36-.31,.48-.79,.48-1.58v-.67Zm13.27-3.82c-.48-.48-.89-.74-1.66-.74-.96,0-2.02,.72-2.02,2.3v7.54h-3.12v-12.5h3.05v1.2c.6-.72,1.8-1.34,3.14-1.34,1.22,0,2.09,.31,2.95,1.18l-2.35,2.38Zm4.08-5.54v-2.54h3.19v2.54h-3.19Zm.05,14.64v-12.15h3.12v12.15h-3.12Zm10.7,.14c-1.97,0-3.72-.22-5.33-1.8l2.04-2.04c1.01,1.03,2.38,1.18,3.34,1.18,1.08,0,2.21-.36,2.21-1.3,0-.62-.31-1.06-1.32-1.15l-2.02-.19c-2.21-.22-3.6-1.2-3.6-3.5,0-2.62,2.28-3.98,4.82-3.98,1.97,0,3.58,.36,4.78,1.46l-1.92,1.94c-.72-.65-1.8-.84-2.9-.84-1.25,0-1.78,.58-1.78,1.2s.36,.98,1.3,1.08l1.97,.19c2.47,.24,3.72,1.54,3.72,3.67,0,2.76-2.35,4.08-5.3,4.08Zm11.59-.14c-2.54,0-3.62-1.8-3.62-3.58v-6.19h-1.32v-2.38h1.32v-3.7h3.12v3.7h2.21v2.38h-2.21v6c0,.72,.34,1.13,1.08,1.13h1.13v2.64h-1.7Zm10.82,0v-1.08c-.84,.84-1.63,1.2-3.07,1.2s-2.47-.38-3.19-1.1c-.67-.7-1.03-1.7-1.03-2.81,0-1.99,1.37-3.62,4.32-3.62h2.9v-.62c0-1.37-.67-1.97-2.33-1.97-1.13,0-1.73,.31-2.4,1.08l-1.97-1.94c1.22-1.34,2.4-1.78,4.49-1.78,3.53,0,5.33,1.49,5.33,4.42v8.23h-3.05Zm-.07-5.28h-2.38c-1.25,0-1.85,.5-1.85,1.44,0,.86,.6,1.42,1.9,1.42,.77,0,1.32-.1,1.85-.6,.36-.31,.48-.79,.48-1.58v-.67Zm10.58,5.42c-1.97,0-3.72-.22-5.33-1.8l2.04-2.04c1.01,1.03,2.38,1.18,3.34,1.18,1.08,0,2.21-.36,2.21-1.3,0-.62-.31-1.06-1.32-1.15l-2.02-.19c-2.21-.22-3.6-1.2-3.6-3.5,0-2.62,2.28-3.98,4.82-3.98,1.97,0,3.58,.36,4.78,1.46l-1.92,1.94c-.72-.65-1.8-.84-2.9-.84-1.25,0-1.78,.58-1.78,1.2s.36,.98,1.3,1.08l1.97,.19c2.47,.24,3.72,1.54,3.72,3.67,0,2.76-2.35,4.08-5.3,4.08Zm20.76-.14v-7.56c0-1.7-1.08-2.28-2.06-2.28s-2.09,.58-2.09,2.28v7.56h-3.12v-12.5h3.05v1.15c.82-.86,1.97-1.3,3.12-1.3,1.25,0,2.26,.41,2.95,1.1,1.01,1.01,1.27,2.18,1.27,3.55v7.99h-3.12Zm8.93-5.28c0,1.63,.96,2.78,2.74,2.78,1.37,0,2.04-.41,2.83-1.18l1.9,1.85c-1.27,1.3-2.5,1.97-4.75,1.97-2.95,0-5.79-1.34-5.79-6.41,0-4.08,2.21-6.38,5.45-6.38,3.48,0,5.45,2.5,5.45,6.05v1.32h-7.83Zm4.46-3.48c-.34-.74-1.03-1.3-2.09-1.3s-1.75,.55-2.09,1.3c-.22,.46-.26,.79-.29,1.34h4.75c-.02-.55-.07-.89-.29-1.34Zm8.69,3.48c0,1.63,.96,2.78,2.74,2.78,1.37,0,2.04-.41,2.83-1.18l1.9,1.85c-1.27,1.3-2.5,1.97-4.75,1.97-2.95,0-5.78-1.34-5.78-6.41,0-4.08,2.21-6.38,5.45-6.38,3.48,0,5.45,2.5,5.45,6.05v1.32h-7.82Zm4.46-3.48c-.34-.74-1.03-1.3-2.09-1.3s-1.75,.55-2.09,1.3c-.22,.46-.26,.79-.29,1.34h4.75c-.02-.55-.07-.89-.29-1.34Zm13.15,8.76v-1.18c-.86,.96-1.78,1.32-3.1,1.32-1.25,0-2.35-.41-3.05-1.13-1.2-1.22-1.3-3.17-1.3-5.28s.1-4.03,1.3-5.26c.7-.72,1.78-1.13,3.02-1.13s2.23,.34,3.05,1.25v-5.69h3.12v17.09h-3.05Zm-2.21-9.84c-1.87,0-2.11,1.56-2.11,3.58s.24,3.6,2.11,3.6,2.14-1.58,2.14-3.6-.26-3.58-2.14-3.58Zm18.24,9.84c-2.54,0-3.62-1.8-3.62-3.58v-6.19h-1.32v-2.38h1.32v-3.7h3.12v3.7h2.21v2.38h-2.21v6c0,.72,.34,1.13,1.08,1.13h1.13v2.64h-1.7Zm13.06-1.39c-.79,.82-2.04,1.54-3.89,1.54s-3.07-.72-3.86-1.54c-1.13-1.2-1.42-2.62-1.42-4.87s.29-3.65,1.42-4.85c.79-.82,2.02-1.54,3.86-1.54s3.1,.7,3.89,1.54c1.13,1.2,1.42,2.59,1.42,4.85s-.26,3.7-1.42,4.87Zm-2.42-7.9c-.36-.36-.84-.55-1.46-.55s-1.08,.19-1.44,.55c-.65,.62-.72,1.75-.72,3.02s.07,2.42,.72,3.05c.36,.36,.84,.55,1.44,.55s1.1-.19,1.46-.55c.65-.62,.72-1.75,.72-3.05s-.07-2.4-.72-3.02Zm26.93,9.29v-7.56c0-1.7-1.08-2.28-2.06-2.28s-2.09,.58-2.09,2.21v7.63h-3.12v-7.56c0-1.7-1.08-2.28-2.06-2.28s-2.09,.58-2.09,2.28v7.56h-3.12v-12.5h3.05v1.15c.82-.84,1.97-1.3,3.12-1.3,1.39,0,2.52,.5,3.31,1.58,1.06-1.1,2.18-1.58,3.74-1.58,1.25,0,2.38,.41,3.07,1.1,1.01,1.01,1.37,2.18,1.37,3.55v7.99h-3.12Zm8.93-5.28c0,1.63,.96,2.78,2.74,2.78,1.37,0,2.04-.41,2.83-1.18l1.9,1.85c-1.27,1.3-2.5,1.97-4.75,1.97-2.95,0-5.78-1.34-5.78-6.41,0-4.08,2.21-6.38,5.45-6.38,3.48,0,5.45,2.5,5.45,6.05v1.32h-7.82Zm4.46-3.48c-.34-.74-1.03-1.3-2.09-1.3s-1.75,.55-2.09,1.3c-.22,.46-.26,.79-.29,1.34h4.75c-.02-.55-.07-.89-.29-1.34Zm12.65,8.76v-1.08c-.84,.84-1.63,1.2-3.07,1.2s-2.47-.38-3.19-1.1c-.67-.7-1.03-1.7-1.03-2.81,0-1.99,1.37-3.62,4.32-3.62h2.9v-.62c0-1.37-.67-1.97-2.33-1.97-1.13,0-1.73,.31-2.4,1.08l-1.97-1.94c1.22-1.34,2.4-1.78,4.49-1.78,3.53,0,5.33,1.49,5.33,4.42v8.23h-3.05Zm-.07-5.28h-2.38c-1.25,0-1.85,.5-1.85,1.44,0,.86,.6,1.42,1.9,1.42,.77,0,1.32-.1,1.85-.6,.36-.31,.48-.79,.48-1.58v-.67Zm10.58,5.42c-1.97,0-3.72-.22-5.33-1.8l2.04-2.04c1.01,1.03,2.38,1.18,3.34,1.18,1.08,0,2.21-.36,2.21-1.3,0-.62-.31-1.06-1.32-1.15l-2.02-.19c-2.21-.22-3.6-1.2-3.6-3.5,0-2.62,2.28-3.98,4.82-3.98,1.97,0,3.58,.36,4.78,1.46l-1.92,1.94c-.72-.65-1.8-.84-2.9-.84-1.25,0-1.78,.58-1.78,1.2s.36,.98,1.3,1.08l1.97,.19c2.47,.24,3.72,1.54,3.72,3.67,0,2.76-2.35,4.08-5.3,4.08Zm15.12-.14v-1.15c-.82,.86-1.97,1.3-3.12,1.3-1.25,0-2.26-.41-2.95-1.1-1.01-1.01-1.27-2.18-1.27-3.55v-7.99h3.12v7.56c0,1.7,1.08,2.28,2.06,2.28s2.09-.58,2.09-2.28v-7.56h3.12v12.5h-3.05Zm13.34-9.1c-.48-.48-.89-.74-1.66-.74-.96,0-2.02,.72-2.02,2.3v7.54h-3.12v-12.5h3.05v1.2c.6-.72,1.8-1.34,3.14-1.34,1.22,0,2.09,.31,2.95,1.18l-2.35,2.38Zm5.86,3.82c0,1.63,.96,2.78,2.74,2.78,1.37,0,2.04-.41,2.83-1.18l1.9,1.85c-1.27,1.3-2.5,1.97-4.75,1.97-2.95,0-5.78-1.34-5.78-6.41,0-4.08,2.21-6.38,5.45-6.38,3.48,0,5.45,2.5,5.45,6.05v1.32h-7.82Zm4.46-3.48c-.34-.74-1.03-1.3-2.09-1.3s-1.75,.55-2.09,1.3c-.22,.46-.26,.79-.29,1.34h4.75c-.02-.55-.07-.89-.29-1.34ZM106.92,219.14c-3.82,0-5.44-2.7-5.44-5.36v-9.29h-1.98v-3.56h1.98v-5.54h4.68v5.54h3.31v3.56h-3.31v9c0,1.08,.5,1.69,1.62,1.69h1.69v3.96h-2.56Zm6.73-21.96v-3.82h4.79v3.82h-4.79Zm.07,21.96v-18.21h4.68v18.21h-4.68Zm31.71,0v-11.34c0-2.56-1.62-3.42-3.1-3.42s-3.13,.86-3.13,3.31v11.45h-4.68v-11.34c0-2.56-1.62-3.42-3.1-3.42s-3.13,.86-3.13,3.42v11.34h-4.68v-18.75h4.57v1.73c1.22-1.26,2.95-1.94,4.68-1.94,2.09,0,3.78,.76,4.97,2.38,1.58-1.66,3.28-2.38,5.62-2.38,1.87,0,3.56,.61,4.61,1.66,1.51,1.51,2.05,3.28,2.05,5.33v11.99h-4.68Zm13.39-7.92c0,2.45,1.44,4.18,4.1,4.18,2.05,0,3.06-.61,4.25-1.76l2.84,2.77c-1.91,1.94-3.74,2.95-7.13,2.95-4.43,0-8.67-2.02-8.67-9.61,0-6.12,3.31-9.57,8.17-9.57,5.22,0,8.17,3.74,8.17,9.07v1.98h-11.73Zm6.69-5.22c-.5-1.12-1.55-1.94-3.13-1.94s-2.63,.83-3.13,1.94c-.32,.68-.4,1.19-.43,2.02h7.13c-.04-.83-.11-1.33-.43-2.02Zm9.18,19.08v-11.05h5.15v7.09l-5.15,3.96Zm26.03-5.72c-3.74,0-8.39-2.02-8.39-9.61s4.64-9.57,8.39-9.57c2.59,0,4.54,.79,6.19,2.52l-3.17,3.17c-.97-1.04-1.8-1.48-3.02-1.48-1.12,0-1.98,.4-2.66,1.22-.72,.9-1.04,2.16-1.04,4.14s.32,3.28,1.04,4.18c.68,.83,1.55,1.22,2.66,1.22,1.22,0,2.05-.43,3.02-1.48l3.17,3.13c-1.66,1.73-3.6,2.56-6.19,2.56Zm22.25-2.3c-1.19,1.22-3.06,2.3-5.83,2.3s-4.61-1.08-5.8-2.3c-1.69-1.8-2.12-3.92-2.12-7.31s.43-5.47,2.12-7.27c1.19-1.22,3.02-2.3,5.8-2.3s4.64,1.04,5.83,2.3c1.69,1.8,2.12,3.89,2.12,7.27s-.4,5.54-2.12,7.31Zm-3.64-11.84c-.54-.54-1.26-.83-2.2-.83s-1.62,.29-2.16,.83c-.97,.94-1.08,2.63-1.08,4.54s.11,3.64,1.08,4.57c.54,.54,1.26,.83,2.16,.83s1.66-.29,2.2-.83c.97-.94,1.08-2.63,1.08-4.57s-.11-3.6-1.08-4.54Zm15.48-.72v14.65h-4.68v-14.65h-1.94v-3.56h1.94v-2.34c0-2.66,1.66-5.36,5.47-5.36h2.66v3.96h-1.84c-1.12,0-1.62,.61-1.62,1.69v2.05h3.46v3.56h-3.46Zm12.31,0v14.65h-4.68v-14.65h-1.94v-3.56h1.94v-2.34c0-2.66,1.66-5.36,5.47-5.36h2.66v3.96h-1.84c-1.12,0-1.62,.61-1.62,1.69v2.05h3.46v3.56h-3.46Zm10.19,6.73c0,2.45,1.44,4.18,4.1,4.18,2.05,0,3.06-.61,4.25-1.76l2.84,2.77c-1.91,1.94-3.74,2.95-7.13,2.95-4.43,0-8.67-2.02-8.67-9.61,0-6.12,3.31-9.57,8.17-9.57,5.22,0,8.17,3.74,8.17,9.07v1.98h-11.73Zm6.69-5.22c-.5-1.12-1.55-1.94-3.13-1.94s-2.63,.83-3.13,1.94c-.32,.68-.4,1.19-.43,2.02h7.13c-.04-.83-.11-1.33-.43-2.02Zm13.03,5.22c0,2.45,1.44,4.18,4.1,4.18,2.05,0,3.06-.61,4.25-1.76l2.84,2.77c-1.91,1.94-3.74,2.95-7.13,2.95-4.43,0-8.67-2.02-8.67-9.61,0-6.12,3.31-9.57,8.17-9.57,5.22,0,8.17,3.74,8.17,9.07v1.98h-11.73Zm6.69-5.22c-.5-1.12-1.55-1.94-3.13-1.94s-2.63,.83-3.13,1.94c-.32,.68-.4,1.19-.43,2.02h7.13c-.04-.83-.11-1.33-.43-2.02Zm28.08,13.14v-1.76c-1.3,1.44-2.66,1.98-4.64,1.98-1.87,0-3.53-.61-4.57-1.69-1.8-1.84-1.94-4.75-1.94-7.92s.14-6.05,1.94-7.88c1.04-1.08,2.66-1.69,4.54-1.69s3.35,.5,4.57,1.87v-8.53h4.68v25.63h-4.57Zm-3.31-14.76c-2.81,0-3.17,2.34-3.17,5.36s.36,5.4,3.17,5.4,3.2-2.38,3.2-5.4-.4-5.36-3.2-5.36Zm26.1,12.67c-1.19,1.22-3.06,2.3-5.83,2.3s-4.61-1.08-5.79-2.3c-1.69-1.8-2.12-3.92-2.12-7.31s.43-5.47,2.12-7.27c1.19-1.22,3.02-2.3,5.79-2.3s4.64,1.04,5.83,2.3c1.69,1.8,2.12,3.89,2.12,7.27s-.4,5.54-2.12,7.31Zm-3.63-11.84c-.54-.54-1.26-.83-2.2-.83s-1.62,.29-2.16,.83c-.97,.94-1.08,2.63-1.08,4.54s.11,3.64,1.08,4.57c.54,.54,1.26,.83,2.16,.83s1.66-.29,2.2-.83c.97-.94,1.08-2.63,1.08-4.57s-.11-3.6-1.08-4.54Zm16.38,14.15c-2.95,0-5.58-.32-7.99-2.7l3.06-3.06c1.51,1.55,3.56,1.76,5,1.76,1.62,0,3.31-.54,3.31-1.94,0-.94-.47-1.58-1.98-1.73l-3.02-.29c-3.31-.32-5.4-1.8-5.4-5.25,0-3.92,3.42-5.98,7.24-5.98,2.95,0,5.36,.54,7.16,2.2l-2.88,2.92c-1.08-.97-2.7-1.26-4.36-1.26-1.87,0-2.66,.86-2.66,1.8s.54,1.48,1.94,1.62l2.95,.29c3.71,.36,5.58,2.3,5.58,5.51,0,4.14-3.53,6.12-7.96,6.12Zm15.55-8.13c0,2.45,1.44,4.18,4.1,4.18,2.05,0,3.06-.61,4.25-1.76l2.84,2.77c-1.91,1.94-3.74,2.95-7.13,2.95-4.43,0-8.67-2.02-8.67-9.61,0-6.12,3.31-9.57,8.17-9.57,5.22,0,8.17,3.74,8.17,9.07v1.98h-11.73Zm6.7-5.22c-.5-1.12-1.55-1.94-3.13-1.94s-2.63,.83-3.13,1.94c-.32,.68-.4,1.19-.43,2.02h7.13c-.04-.83-.11-1.33-.43-2.02Zm9.18,19.08v-11.05h5.15v7.09l-5.15,3.96Zm-251.91,37.26v-1.62c-1.26,1.26-2.45,1.8-4.61,1.8s-3.71-.58-4.79-1.66c-1.01-1.04-1.55-2.56-1.55-4.21,0-2.99,2.05-5.44,6.48-5.44h4.36v-.94c0-2.05-1.01-2.95-3.49-2.95-1.69,0-2.59,.47-3.6,1.62l-2.95-2.92c1.84-2.02,3.6-2.66,6.73-2.66,5.29,0,7.99,2.23,7.99,6.62v12.35h-4.57Zm-.11-7.92h-3.56c-1.87,0-2.77,.76-2.77,2.16,0,1.3,.9,2.12,2.84,2.12,1.15,0,1.98-.14,2.77-.9,.54-.47,.72-1.19,.72-2.38v-1.01Zm20.63,7.92v-11.34c0-2.56-1.62-3.42-3.1-3.42s-3.13,.86-3.13,3.42v11.34h-4.68v-18.75h4.57v1.73c1.22-1.3,2.95-1.94,4.68-1.94,1.87,0,3.38,.61,4.43,1.66,1.51,1.51,1.91,3.28,1.91,5.33v11.99h-4.68Zm20.09,0v-1.76c-1.3,1.44-2.66,1.98-4.64,1.98-1.87,0-3.53-.61-4.57-1.69-1.8-1.84-1.94-4.75-1.94-7.92s.14-6.05,1.94-7.88c1.04-1.08,2.66-1.69,4.54-1.69s3.35,.5,4.57,1.87v-8.53h4.68v25.63h-4.57Zm-3.31-14.76c-2.81,0-3.17,2.34-3.17,5.36s.36,5.4,3.17,5.4,3.2-2.38,3.2-5.4-.4-5.36-3.2-5.36Zm28.94,14.97c-3.74,0-8.39-2.02-8.39-9.61s4.64-9.57,8.39-9.57c2.59,0,4.54,.79,6.19,2.52l-3.17,3.17c-.97-1.04-1.8-1.48-3.02-1.48-1.12,0-1.98,.4-2.66,1.22-.72,.9-1.04,2.16-1.04,4.14s.32,3.28,1.04,4.18c.68,.83,1.55,1.22,2.66,1.22,1.22,0,2.05-.43,3.02-1.48l3.17,3.13c-1.66,1.73-3.6,2.56-6.19,2.56Zm22.25-2.3c-1.19,1.22-3.06,2.3-5.83,2.3s-4.61-1.08-5.8-2.3c-1.69-1.8-2.12-3.92-2.12-7.31s.43-5.47,2.12-7.27c1.19-1.22,3.02-2.3,5.8-2.3s4.64,1.04,5.83,2.3c1.69,1.8,2.12,3.89,2.12,7.27s-.4,5.54-2.12,7.31Zm-3.64-11.84c-.54-.54-1.26-.83-2.2-.83s-1.62,.29-2.16,.83c-.97,.94-1.08,2.63-1.08,4.54s.11,3.64,1.08,4.57c.54,.54,1.26,.83,2.16,.83s1.66-.29,2.2-.83c.97-.94,1.08-2.63,1.08-4.57s-.11-3.6-1.08-4.54Zm15.48-.72v14.65h-4.68v-14.65h-1.94v-3.56h1.94v-2.34c0-2.66,1.66-5.36,5.47-5.36h2.66v3.96h-1.84c-1.12,0-1.62,.61-1.62,1.69v2.05h3.46v3.56h-3.46Zm12.31,0v14.65h-4.68v-14.65h-1.94v-3.56h1.94v-2.34c0-2.66,1.66-5.36,5.47-5.36h2.66v3.96h-1.84c-1.12,0-1.62,.61-1.62,1.69v2.05h3.46v3.56h-3.46Zm10.19,6.73c0,2.45,1.44,4.18,4.1,4.18,2.05,0,3.06-.61,4.25-1.76l2.84,2.77c-1.91,1.94-3.74,2.95-7.13,2.95-4.43,0-8.68-2.02-8.68-9.61,0-6.12,3.31-9.57,8.17-9.57,5.22,0,8.17,3.74,8.17,9.07v1.98h-11.73Zm6.69-5.22c-.5-1.12-1.55-1.94-3.13-1.94s-2.63,.83-3.13,1.94c-.32,.68-.4,1.19-.43,2.02h7.13c-.04-.83-.11-1.33-.43-2.02Zm13.03,5.22c0,2.45,1.44,4.18,4.1,4.18,2.05,0,3.06-.61,4.25-1.76l2.84,2.77c-1.91,1.94-3.74,2.95-7.13,2.95-4.43,0-8.67-2.02-8.67-9.61,0-6.12,3.31-9.57,8.17-9.57,5.22,0,8.17,3.74,8.17,9.07v1.98h-11.73Zm6.69-5.22c-.5-1.12-1.55-1.94-3.13-1.94s-2.63,.83-3.13,1.94c-.32,.68-.4,1.19-.43,2.02h7.13c-.04-.83-.11-1.33-.43-2.02Zm24.7,16.16c-.4,1.04-.83,1.84-1.4,2.41-1.08,1.08-2.48,1.44-4.03,1.44h-1.84v-4.21h1.08c1.33,0,1.87-.32,2.34-1.69l.79-2.3-6.41-17.42h4.93l3.89,11.59,3.74-11.59h4.93l-8.03,21.78Zm10.73-24.98v-3.82h4.79v3.82h-4.79Zm.07,21.96v-18.21h4.68v18.21h-4.68Zm13.57-7.92c0,2.45,1.44,4.18,4.1,4.18,2.05,0,3.06-.61,4.25-1.76l2.84,2.77c-1.91,1.94-3.74,2.95-7.13,2.95-4.43,0-8.67-2.02-8.67-9.61,0-6.12,3.31-9.57,8.17-9.57,5.22,0,8.17,3.74,8.17,9.07v1.98h-11.73Zm6.69-5.22c-.5-1.12-1.55-1.94-3.13-1.94s-2.63,.83-3.13,1.94c-.32,.68-.4,1.19-.43,2.02h7.13c-.04-.83-.11-1.33-.43-2.02Zm14.65,13.14c-3.85,0-5.47-2.7-5.47-5.36v-20.27h4.68v19.98c0,1.12,.47,1.69,1.66,1.69h1.8v3.96h-2.66Zm16.42,0v-1.76c-1.29,1.44-2.66,1.98-4.64,1.98-1.87,0-3.53-.61-4.57-1.69-1.8-1.84-1.94-4.75-1.94-7.92s.14-6.05,1.94-7.88c1.04-1.08,2.66-1.69,4.54-1.69s3.35,.5,4.57,1.87v-8.53h4.68v25.63h-4.57Zm-3.31-14.76c-2.81,0-3.17,2.34-3.17,5.36s.36,5.4,3.17,5.4,3.2-2.38,3.2-5.4-.4-5.36-3.2-5.36ZM49.05,291.14c-2.54,0-3.62-1.8-3.62-3.58v-6.19h-1.32v-2.38h1.32v-3.7h3.12v3.7h2.21v2.38h-2.21v6c0,.72,.34,1.13,1.08,1.13h1.13v2.64h-1.7Zm13.06-1.39c-.79,.82-2.04,1.54-3.89,1.54s-3.07-.72-3.86-1.54c-1.13-1.2-1.42-2.62-1.42-4.87s.29-3.65,1.42-4.85c.79-.82,2.02-1.54,3.86-1.54s3.1,.7,3.89,1.54c1.13,1.2,1.42,2.59,1.42,4.85s-.26,3.7-1.42,4.87Zm-2.42-7.9c-.36-.36-.84-.55-1.46-.55s-1.08,.19-1.44,.55c-.65,.62-.72,1.75-.72,3.02s.07,2.42,.72,3.05c.36,.36,.84,.55,1.44,.55s1.1-.19,1.46-.55c.65-.62,.72-1.75,.72-3.05s-.07-2.4-.72-3.02Zm16.7,14.02c-1.92,0-3.24-.38-4.54-1.63l1.94-1.97c.7,.67,1.39,.96,2.45,.96,1.87,0,2.52-1.32,2.52-2.59v-1.27c-.82,.91-1.75,1.25-2.98,1.25s-2.28-.41-2.98-1.1c-1.18-1.18-1.27-2.78-1.27-4.97s.1-3.77,1.27-4.94c.7-.7,1.78-1.1,3-1.1,1.32,0,2.18,.36,3.05,1.32v-1.18h3.02v12.05c0,3-2.14,5.18-5.5,5.18Zm.31-14.57c-1.85,0-2.04,1.58-2.04,3.24s.19,3.26,2.04,3.26,2.06-1.61,2.06-3.26-.22-3.24-2.06-3.24Zm11.14,4.56c0,1.63,.96,2.78,2.74,2.78,1.37,0,2.04-.41,2.83-1.18l1.9,1.85c-1.27,1.3-2.5,1.97-4.75,1.97-2.95,0-5.78-1.34-5.78-6.41,0-4.08,2.21-6.38,5.45-6.38,3.48,0,5.45,2.5,5.45,6.05v1.32h-7.82Zm4.46-3.48c-.34-.74-1.03-1.3-2.09-1.3s-1.75,.55-2.09,1.3c-.22,.46-.26,.79-.29,1.34h4.75c-.02-.55-.07-.89-.29-1.34Zm10.15,8.76c-2.54,0-3.62-1.8-3.62-3.58v-6.19h-1.32v-2.38h1.32v-3.7h3.12v3.7h2.21v2.38h-2.21v6c0,.72,.34,1.13,1.08,1.13h1.13v2.64h-1.7Zm16.51,0v-1.08c-.84,.84-1.63,1.2-3.07,1.2s-2.47-.38-3.19-1.1c-.67-.7-1.03-1.7-1.03-2.81,0-1.99,1.37-3.62,4.32-3.62h2.9v-.62c0-1.37-.67-1.97-2.33-1.97-1.13,0-1.73,.31-2.4,1.08l-1.97-1.94c1.22-1.34,2.4-1.78,4.49-1.78,3.53,0,5.33,1.49,5.33,4.42v8.23h-3.05Zm-.07-5.28h-2.38c-1.25,0-1.85,.5-1.85,1.44,0,.86,.6,1.42,1.9,1.42,.77,0,1.32-.1,1.85-.6,.36-.31,.48-.79,.48-1.58v-.67Zm18.84-3.82c-.48-.48-.89-.74-1.66-.74-.96,0-2.02,.72-2.02,2.3v7.54h-3.12v-12.5h3.05v1.2c.6-.72,1.8-1.34,3.14-1.34,1.22,0,2.09,.31,2.95,1.18l-2.35,2.38Zm5.85,3.82c0,1.63,.96,2.78,2.74,2.78,1.37,0,2.04-.41,2.83-1.18l1.9,1.85c-1.27,1.3-2.5,1.97-4.75,1.97-2.95,0-5.78-1.34-5.78-6.41,0-4.08,2.21-6.38,5.45-6.38,3.48,0,5.45,2.5,5.45,6.05v1.32h-7.82Zm4.46-3.48c-.34-.74-1.03-1.3-2.09-1.3s-1.75,.55-2.09,1.3c-.22,.46-.26,.79-.29,1.34h4.75c-.02-.55-.07-.89-.29-1.34Zm15.41,7.78c-.7,.72-1.8,1.13-3.02,1.13s-2.23-.34-3.02-1.25v5.69h-3.12v-17.09h3.02v1.18c.86-.96,1.78-1.32,3.12-1.32,1.22,0,2.33,.41,3.02,1.13,1.2,1.22,1.3,3.17,1.3,5.26s-.1,4.06-1.3,5.28Zm-3.94-8.86c-1.87,0-2.11,1.56-2.11,3.58s.24,3.6,2.11,3.6,2.11-1.58,2.11-3.6-.24-3.58-2.11-3.58Zm10.66,4.56c0,1.63,.96,2.78,2.74,2.78,1.37,0,2.04-.41,2.83-1.18l1.9,1.85c-1.27,1.3-2.5,1.97-4.75,1.97-2.95,0-5.78-1.34-5.78-6.41,0-4.08,2.21-6.38,5.45-6.38,3.48,0,5.45,2.5,5.45,6.05v1.32h-7.82Zm4.46-3.48c-.34-.74-1.03-1.3-2.09-1.3s-1.75,.55-2.09,1.3c-.22,.46-.26,.79-.29,1.34h4.75c-.02-.55-.07-.89-.29-1.34Zm12.65,8.76v-1.08c-.84,.84-1.63,1.2-3.07,1.2s-2.47-.38-3.19-1.1c-.67-.7-1.03-1.7-1.03-2.81,0-1.99,1.37-3.62,4.32-3.62h2.9v-.62c0-1.37-.67-1.97-2.33-1.97-1.13,0-1.73,.31-2.4,1.08l-1.97-1.94c1.22-1.34,2.4-1.78,4.49-1.78,3.53,0,5.33,1.49,5.33,4.42v8.23h-3.05Zm-.07-5.28h-2.38c-1.25,0-1.85,.5-1.85,1.44,0,.86,.6,1.42,1.9,1.42,.77,0,1.32-.1,1.85-.6,.36-.31,.48-.79,.48-1.58v-.67Zm10.39,5.28c-2.54,0-3.62-1.8-3.62-3.58v-6.19h-1.32v-2.38h1.32v-3.7h3.12v3.7h2.21v2.38h-2.21v6c0,.72,.34,1.13,1.08,1.13h1.13v2.64h-1.7Zm10.82,0v-1.08c-.84,.84-1.63,1.2-3.07,1.2s-2.47-.38-3.19-1.1c-.67-.7-1.03-1.7-1.03-2.81,0-1.99,1.37-3.62,4.32-3.62h2.9v-.62c0-1.37-.67-1.97-2.33-1.97-1.13,0-1.73,.31-2.4,1.08l-1.97-1.94c1.22-1.34,2.4-1.78,4.49-1.78,3.53,0,5.33,1.49,5.33,4.42v8.23h-3.05Zm-.07-5.28h-2.38c-1.25,0-1.85,.5-1.85,1.44,0,.86,.6,1.42,1.9,1.42,.77,0,1.32-.1,1.85-.6,.36-.31,.48-.79,.48-1.58v-.67Zm15.65,4.3c-.7,.72-1.8,1.13-3.02,1.13-1.34,0-2.26-.36-3.12-1.32v1.18h-3.02v-17.09h3.12v5.69c.79-.91,1.75-1.25,3.02-1.25s2.33,.41,3.02,1.13c1.2,1.22,1.3,3.17,1.3,5.26s-.1,4.06-1.3,5.28Zm-3.94-8.86c-1.87,0-2.11,1.56-2.11,3.58s.24,3.6,2.11,3.6,2.11-1.58,2.11-3.6-.24-3.58-2.11-3.58Zm11.74,9.84c-2.57,0-3.65-1.8-3.65-3.58v-13.51h3.12v13.32c0,.74,.31,1.13,1.1,1.13h1.2v2.64h-1.78Zm6.48-5.28c0,1.63,.96,2.78,2.74,2.78,1.37,0,2.04-.41,2.83-1.18l1.9,1.85c-1.27,1.3-2.5,1.97-4.75,1.97-2.95,0-5.78-1.34-5.78-6.41,0-4.08,2.21-6.38,5.45-6.38,3.48,0,5.45,2.5,5.45,6.05v1.32h-7.82Zm4.46-3.48c-.34-.74-1.03-1.3-2.09-1.3s-1.75,.55-2.09,1.3c-.22,.46-.26,.79-.29,1.34h4.75c-.02-.55-.07-.89-.29-1.34Zm16.78,8.9c-2.5,0-5.59-1.34-5.59-6.41s3.1-6.38,5.59-6.38c1.73,0,3.02,.53,4.13,1.68l-2.11,2.11c-.65-.7-1.2-.98-2.02-.98-.74,0-1.32,.26-1.78,.82-.48,.6-.7,1.44-.7,2.76s.22,2.18,.7,2.78c.46,.55,1.03,.82,1.78,.82,.82,0,1.37-.29,2.02-.98l2.11,2.09c-1.1,1.15-2.4,1.7-4.13,1.7Zm13.75-.14v-1.15c-.82,.86-1.97,1.3-3.12,1.3-1.25,0-2.26-.41-2.95-1.1-1.01-1.01-1.27-2.18-1.27-3.55v-7.99h3.12v7.56c0,1.7,1.08,2.28,2.06,2.28s2.09-.58,2.09-2.28v-7.56h3.12v12.5h-3.05Zm15.72-.98c-.7,.72-1.8,1.13-3.02,1.13s-2.23-.34-3.02-1.25v5.69h-3.12v-17.09h3.02v1.18c.86-.96,1.78-1.32,3.12-1.32,1.22,0,2.33,.41,3.02,1.13,1.2,1.22,1.3,3.17,1.3,5.26s-.1,4.06-1.3,5.28Zm-3.94-8.86c-1.87,0-2.11,1.56-2.11,3.58s.24,3.6,2.11,3.6,2.11-1.58,2.11-3.6-.24-3.58-2.11-3.58Zm8.09,9.84v-3.55h3.58v3.55h-3.58Zm21.89,0v-7.15h-5.78v7.15h-3.34v-17.09h3.34v6.98h5.78v-6.98h3.34v17.09h-3.34Zm15.72-1.39c-.79,.82-2.04,1.54-3.89,1.54s-3.07-.72-3.86-1.54c-1.13-1.2-1.42-2.62-1.42-4.87s.29-3.65,1.42-4.85c.79-.82,2.02-1.54,3.86-1.54s3.1,.7,3.89,1.54c1.13,1.2,1.42,2.59,1.42,4.85s-.26,3.7-1.42,4.87Zm-2.42-7.9c-.36-.36-.84-.55-1.46-.55s-1.08,.19-1.44,.55c-.65,.62-.72,1.75-.72,3.02s.07,2.42,.72,3.05c.36,.36,.84,.55,1.44,.55s1.1-.19,1.46-.55c.65-.62,.72-1.75,.72-3.05s-.07-2.4-.72-3.02Zm19.25,9.29h-2.57l-2.62-7.85-2.62,7.85h-2.57l-3.84-12.5h3.31l2.02,7.73,2.54-7.73h2.28l2.57,7.73,2.02-7.73h3.29l-3.82,12.5Zm16.2,.14c-2.5,0-5.59-1.34-5.59-6.41s3.1-6.38,5.59-6.38c1.73,0,3.02,.53,4.13,1.68l-2.11,2.11c-.65-.7-1.2-.98-2.02-.98-.74,0-1.32,.26-1.78,.82-.48,.6-.7,1.44-.7,2.76s.22,2.18,.7,2.78c.46,.55,1.03,.82,1.78,.82,.82,0,1.37-.29,2.02-.98l2.11,2.09c-1.1,1.15-2.4,1.7-4.13,1.7Zm12.84-.14v-1.08c-.84,.84-1.63,1.2-3.07,1.2s-2.47-.38-3.19-1.1c-.67-.7-1.03-1.7-1.03-2.81,0-1.99,1.37-3.62,4.32-3.62h2.9v-.62c0-1.37-.67-1.97-2.33-1.97-1.13,0-1.73,.31-2.4,1.08l-1.97-1.94c1.22-1.34,2.4-1.78,4.49-1.78,3.53,0,5.33,1.49,5.33,4.42v8.23h-3.05Zm-.07-5.28h-2.38c-1.25,0-1.85,.5-1.85,1.44,0,.86,.6,1.42,1.9,1.42,.77,0,1.32-.1,1.85-.6,.36-.31,.48-.79,.48-1.58v-.67Zm13.75,5.28v-7.56c0-1.7-1.08-2.28-2.06-2.28s-2.09,.58-2.09,2.28v7.56h-3.12v-12.5h3.05v1.15c.82-.86,1.97-1.3,3.12-1.3,1.25,0,2.26,.41,2.95,1.1,1.01,1.01,1.27,2.18,1.27,3.55v7.99h-3.12Zm15.96,0c-2.54,0-3.62-1.8-3.62-3.58v-6.19h-1.32v-2.38h1.32v-3.7h3.12v3.7h2.21v2.38h-2.21v6c0,.72,.34,1.13,1.08,1.13h1.13v2.64h-1.7Zm11.81,0v-7.56c0-1.7-1.08-2.28-2.06-2.28s-2.09,.58-2.09,2.28v7.56h-3.12v-17.09h3.12v5.74c.79-.86,1.85-1.3,3.05-1.3s2.26,.41,2.95,1.1c1.01,1.01,1.27,2.18,1.27,3.55v7.99h-3.12Zm6.43-14.64v-2.54h3.19v2.54h-3.19Zm.05,14.64v-12.15h3.12v12.15h-3.12Zm10.7,.14c-1.97,0-3.72-.22-5.33-1.8l2.04-2.04c1.01,1.03,2.38,1.18,3.34,1.18,1.08,0,2.21-.36,2.21-1.3,0-.62-.31-1.06-1.32-1.15l-2.02-.19c-2.21-.22-3.6-1.2-3.6-3.5,0-2.62,2.28-3.98,4.83-3.98,1.97,0,3.58,.36,4.78,1.46l-1.92,1.94c-.72-.65-1.8-.84-2.9-.84-1.25,0-1.78,.58-1.78,1.2s.36,.98,1.3,1.08l1.97,.19c2.47,.24,3.72,1.54,3.72,3.67,0,2.76-2.35,4.08-5.3,4.08ZM23.7,318.96c-.7,.72-1.8,1.13-3.02,1.13-1.34,0-2.26-.36-3.12-1.32v1.18h-3.02v-17.09h3.12v5.69c.79-.91,1.75-1.25,3.02-1.25s2.33,.41,3.02,1.13c1.2,1.22,1.3,3.17,1.3,5.26s-.1,4.06-1.3,5.28Zm-3.94-8.86c-1.87,0-2.11,1.56-2.11,3.58s.24,3.6,2.11,3.6,2.11-1.58,2.11-3.6-.24-3.58-2.11-3.58Zm10.66,4.56c0,1.63,.96,2.78,2.74,2.78,1.37,0,2.04-.41,2.83-1.18l1.9,1.85c-1.27,1.3-2.5,1.97-4.75,1.97-2.95,0-5.78-1.34-5.78-6.41,0-4.08,2.21-6.38,5.45-6.38,3.48,0,5.45,2.5,5.45,6.05v1.32h-7.82Zm4.46-3.48c-.34-.74-1.03-1.3-2.09-1.3s-1.75,.55-2.09,1.3c-.22,.46-.26,.79-.29,1.34h4.75c-.02-.55-.07-.89-.29-1.34Zm26.35,8.76v-7.56c0-1.7-1.08-2.28-2.06-2.28s-2.09,.58-2.09,2.21v7.63h-3.12v-7.56c0-1.7-1.08-2.28-2.06-2.28s-2.09,.58-2.09,2.28v7.56h-3.12v-12.5h3.05v1.15c.82-.84,1.97-1.3,3.12-1.3,1.39,0,2.52,.5,3.31,1.58,1.06-1.1,2.18-1.58,3.74-1.58,1.25,0,2.38,.41,3.07,1.1,1.01,1.01,1.37,2.18,1.37,3.55v7.99h-3.12Zm12.89,0v-1.08c-.84,.84-1.63,1.2-3.07,1.2s-2.47-.38-3.19-1.1c-.67-.7-1.03-1.7-1.03-2.81,0-1.99,1.37-3.62,4.32-3.62h2.9v-.62c0-1.37-.67-1.97-2.33-1.97-1.13,0-1.73,.31-2.4,1.08l-1.97-1.94c1.22-1.34,2.4-1.78,4.49-1.78,3.53,0,5.33,1.49,5.33,4.42v8.23h-3.05Zm-.07-5.28h-2.38c-1.25,0-1.85,.5-1.85,1.44,0,.86,.6,1.42,1.9,1.42,.77,0,1.32-.1,1.85-.6,.36-.31,.48-.79,.48-1.58v-.67Zm13.39,5.28v-1.18c-.86,.96-1.78,1.32-3.1,1.32-1.25,0-2.35-.41-3.05-1.13-1.2-1.22-1.3-3.17-1.3-5.28s.1-4.03,1.3-5.26c.7-.72,1.78-1.13,3.02-1.13s2.23,.34,3.05,1.25v-5.69h3.12v17.09h-3.05Zm-2.21-9.84c-1.87,0-2.11,1.56-2.11,3.58s.24,3.6,2.11,3.6,2.14-1.58,2.14-3.6-.26-3.58-2.14-3.58Zm11.21,4.56c0,1.63,.96,2.78,2.74,2.78,1.37,0,2.04-.41,2.83-1.18l1.9,1.85c-1.27,1.3-2.5,1.97-4.75,1.97-2.95,0-5.78-1.34-5.78-6.41,0-4.08,2.21-6.38,5.45-6.38,3.48,0,5.45,2.5,5.45,6.05v1.32h-7.82Zm4.46-3.48c-.34-.74-1.03-1.3-2.09-1.3s-1.75,.55-2.09,1.3c-.22,.46-.26,.79-.29,1.34h4.75c-.02-.55-.07-.89-.29-1.34Zm14.26,3.48c0,1.63,.96,2.78,2.74,2.78,1.37,0,2.04-.41,2.83-1.18l1.9,1.85c-1.27,1.3-2.5,1.97-4.75,1.97-2.95,0-5.78-1.34-5.78-6.41,0-4.08,2.21-6.38,5.45-6.38,3.48,0,5.45,2.5,5.45,6.05v1.32h-7.82Zm4.46-3.48c-.34-.74-1.03-1.3-2.09-1.3s-1.75,.55-2.09,1.3c-.22,.46-.26,.79-.29,1.34h4.75c-.02-.55-.07-.89-.29-1.34Zm12.65,8.76v-1.08c-.84,.84-1.63,1.2-3.07,1.2s-2.47-.38-3.19-1.1c-.67-.7-1.03-1.7-1.03-2.81,0-1.99,1.37-3.62,4.32-3.62h2.9v-.62c0-1.37-.67-1.97-2.33-1.97-1.13,0-1.73,.31-2.4,1.08l-1.97-1.94c1.22-1.34,2.4-1.78,4.49-1.78,3.53,0,5.33,1.49,5.33,4.42v8.23h-3.05Zm-.07-5.28h-2.38c-1.25,0-1.85,.5-1.85,1.44,0,.86,.6,1.42,1.9,1.42,.77,0,1.32-.1,1.85-.6,.36-.31,.48-.79,.48-1.58v-.67Zm10.58,5.42c-1.97,0-3.72-.22-5.33-1.8l2.04-2.04c1.01,1.03,2.38,1.18,3.34,1.18,1.08,0,2.21-.36,2.21-1.3,0-.62-.31-1.06-1.32-1.15l-2.02-.19c-2.21-.22-3.6-1.2-3.6-3.5,0-2.62,2.28-3.98,4.82-3.98,1.97,0,3.58,.36,4.78,1.46l-1.92,1.94c-.72-.65-1.8-.84-2.9-.84-1.25,0-1.78,.58-1.78,1.2s.36,.98,1.3,1.08l1.97,.19c2.47,.24,3.72,1.54,3.72,3.67,0,2.76-2.35,4.08-5.3,4.08Zm7.87-14.79v-2.54h3.19v2.54h-3.19Zm.05,14.64v-12.15h3.12v12.15h-3.12Zm9.05-5.28c0,1.63,.96,2.78,2.74,2.78,1.37,0,2.04-.41,2.83-1.18l1.9,1.85c-1.27,1.3-2.5,1.97-4.75,1.97-2.95,0-5.78-1.34-5.78-6.41,0-4.08,2.21-6.38,5.45-6.38,3.48,0,5.45,2.5,5.45,6.05v1.32h-7.82Zm4.46-3.48c-.34-.74-1.03-1.3-2.09-1.3s-1.75,.55-2.09,1.3c-.22,.46-.26,.79-.29,1.34h4.75c-.02-.55-.07-.89-.29-1.34Zm13.03-.34c-.48-.48-.89-.74-1.66-.74-.96,0-2.02,.72-2.02,2.3v7.54h-3.12v-12.5h3.05v1.2c.6-.72,1.8-1.34,3.14-1.34,1.22,0,2.09,.31,2.95,1.18l-2.35,2.38Zm13.2-.67v9.77h-3.12v-9.77h-1.3v-2.38h1.3v-1.56c0-1.78,1.1-3.58,3.65-3.58h1.78v2.64h-1.22c-.74,0-1.08,.41-1.08,1.13v1.37h2.3v2.38h-2.3Zm12.98,8.38c-.79,.82-2.04,1.54-3.89,1.54s-3.07-.72-3.86-1.54c-1.13-1.2-1.42-2.62-1.42-4.87s.29-3.65,1.42-4.85c.79-.82,2.02-1.54,3.86-1.54s3.1,.7,3.89,1.54c1.13,1.2,1.42,2.59,1.42,4.85s-.26,3.7-1.42,4.87Zm-2.42-7.9c-.36-.36-.84-.55-1.46-.55s-1.08,.19-1.44,.55c-.65,.62-.72,1.75-.72,3.02s.07,2.42,.72,3.05c.36,.36,.84,.55,1.44,.55s1.1-.19,1.46-.55c.65-.62,.72-1.75,.72-3.05s-.07-2.4-.72-3.02Zm13.61,.19c-.48-.48-.89-.74-1.66-.74-.96,0-2.02,.72-2.02,2.3v7.54h-3.12v-12.5h3.05v1.2c.6-.72,1.8-1.34,3.14-1.34,1.22,0,2.09,.31,2.95,1.18l-2.35,2.38Zm13.61,9.1c-2.54,0-3.62-1.8-3.62-3.58v-6.19h-1.32v-2.38h1.32v-3.7h3.12v3.7h2.21v2.38h-2.21v6c0,.72,.34,1.13,1.08,1.13h1.13v2.64h-1.7Zm11.81,0v-7.56c0-1.7-1.08-2.28-2.06-2.28s-2.09,.58-2.09,2.28v7.56h-3.12v-17.09h3.12v5.74c.79-.86,1.85-1.3,3.05-1.3s2.26,.41,2.95,1.1c1.01,1.01,1.27,2.18,1.27,3.55v7.99h-3.12Zm8.93-5.28c0,1.63,.96,2.78,2.74,2.78,1.37,0,2.04-.41,2.83-1.18l1.9,1.85c-1.27,1.3-2.5,1.97-4.75,1.97-2.95,0-5.79-1.34-5.79-6.41,0-4.08,2.21-6.38,5.45-6.38,3.48,0,5.45,2.5,5.45,6.05v1.32h-7.83Zm4.46-3.48c-.34-.74-1.03-1.3-2.09-1.3s-1.75,.55-2.09,1.3c-.22,.46-.26,.79-.29,1.34h4.75c-.02-.55-.07-.89-.29-1.34Zm20.98,7.78c-.7,.72-1.8,1.13-3.02,1.13-1.34,0-2.26-.36-3.12-1.32v1.18h-3.02v-17.09h3.12v5.69c.79-.91,1.75-1.25,3.02-1.25s2.33,.41,3.02,1.13c1.2,1.22,1.3,3.17,1.3,5.26s-.1,4.06-1.3,5.28Zm-3.94-8.86c-1.87,0-2.11,1.56-2.11,3.58s.24,3.6,2.11,3.6,2.11-1.58,2.11-3.6-.24-3.58-2.11-3.58Zm10.66,4.56c0,1.63,.96,2.78,2.74,2.78,1.37,0,2.04-.41,2.83-1.18l1.9,1.85c-1.27,1.3-2.5,1.97-4.75,1.97-2.95,0-5.79-1.34-5.79-6.41,0-4.08,2.21-6.38,5.45-6.38,3.48,0,5.45,2.5,5.45,6.05v1.32h-7.83Zm4.46-3.48c-.34-.74-1.03-1.3-2.09-1.3s-1.75,.55-2.09,1.3c-.22,.46-.26,.79-.29,1.34h4.75c-.02-.55-.07-.89-.29-1.34Zm10.56,13.49c-1.92,0-3.24-.38-4.54-1.63l1.94-1.97c.7,.67,1.39,.96,2.45,.96,1.87,0,2.52-1.32,2.52-2.59v-1.27c-.82,.91-1.75,1.25-2.98,1.25s-2.28-.41-2.98-1.1c-1.18-1.18-1.27-2.78-1.27-4.97s.1-3.77,1.27-4.94c.7-.7,1.78-1.1,3-1.1,1.32,0,2.18,.36,3.05,1.32v-1.18h3.02v12.05c0,3-2.14,5.18-5.5,5.18Zm.31-14.57c-1.85,0-2.04,1.58-2.04,3.24s.19,3.26,2.04,3.26,2.06-1.61,2.06-3.26-.22-3.24-2.06-3.24Zm8.64-4.8v-2.54h3.19v2.54h-3.19Zm.05,14.64v-12.15h3.12v12.15h-3.12Zm13.87,0v-7.56c0-1.7-1.08-2.28-2.06-2.28s-2.09,.58-2.09,2.28v7.56h-3.12v-12.5h3.05v1.15c.82-.86,1.97-1.3,3.12-1.3,1.25,0,2.26,.41,2.95,1.1,1.01,1.01,1.27,2.18,1.27,3.55v7.99h-3.12Zm13.75,0v-7.56c0-1.7-1.08-2.28-2.06-2.28s-2.09,.58-2.09,2.28v7.56h-3.12v-12.5h3.05v1.15c.82-.86,1.97-1.3,3.12-1.3,1.25,0,2.26,.41,2.95,1.1,1.01,1.01,1.27,2.18,1.27,3.55v7.99h-3.12Zm8.93-5.28c0,1.63,.96,2.78,2.74,2.78,1.37,0,2.04-.41,2.83-1.18l1.9,1.85c-1.27,1.3-2.5,1.97-4.75,1.97-2.95,0-5.78-1.34-5.78-6.41,0-4.08,2.21-6.38,5.45-6.38,3.48,0,5.45,2.5,5.45,6.05v1.32h-7.82Zm4.46-3.48c-.34-.74-1.03-1.3-2.09-1.3s-1.75,.55-2.09,1.3c-.22,.46-.26,.79-.29,1.34h4.75c-.02-.55-.07-.89-.29-1.34Zm13.03-.34c-.48-.48-.89-.74-1.66-.74-.96,0-2.02,.72-2.02,2.3v7.54h-3.12v-12.5h3.05v1.2c.6-.72,1.8-1.34,3.14-1.34,1.22,0,2.09,.31,2.95,1.18l-2.35,2.38Zm16.97,9.1v-7.56c0-1.7-1.08-2.28-2.06-2.28s-2.09,.58-2.09,2.28v7.56h-3.12v-17.09h3.12v5.74c.79-.86,1.85-1.3,3.05-1.3s2.26,.41,2.95,1.1c1.01,1.01,1.27,2.18,1.27,3.55v7.99h-3.12Zm15.12-1.39c-.79,.82-2.04,1.54-3.89,1.54s-3.07-.72-3.86-1.54c-1.13-1.2-1.42-2.62-1.42-4.87s.29-3.65,1.42-4.85c.79-.82,2.02-1.54,3.86-1.54s3.1,.7,3.89,1.54c1.13,1.2,1.42,2.59,1.42,4.85s-.26,3.7-1.42,4.87Zm-2.42-7.9c-.36-.36-.84-.55-1.46-.55s-1.08,.19-1.44,.55c-.65,.62-.72,1.75-.72,3.02s.07,2.42,.72,3.05c.36,.36,.84,.55,1.44,.55s1.1-.19,1.46-.55c.65-.62,.72-1.75,.72-3.05s-.07-2.4-.72-3.02Zm15.98,8.3c-.7,.72-1.8,1.13-3.02,1.13-1.34,0-2.26-.36-3.12-1.32v1.18h-3.02v-17.09h3.12v5.69c.79-.91,1.75-1.25,3.02-1.25s2.33,.41,3.02,1.13c1.2,1.22,1.3,3.17,1.3,5.26s-.1,4.06-1.3,5.28Zm-3.94-8.86c-1.87,0-2.11,1.56-2.11,3.58s.24,3.6,2.11,3.6,2.11-1.58,2.11-3.6-.24-3.58-2.11-3.58Zm17.38,8.86c-.7,.72-1.8,1.13-3.02,1.13-1.34,0-2.26-.36-3.12-1.32v1.18h-3.02v-17.09h3.12v5.69c.79-.91,1.75-1.25,3.02-1.25s2.33,.41,3.02,1.13c1.2,1.22,1.3,3.17,1.3,5.26s-.1,4.06-1.3,5.28Zm-3.94-8.86c-1.87,0-2.11,1.56-2.11,3.58s.24,3.6,2.11,3.6,2.11-1.58,2.11-3.6-.24-3.58-2.11-3.58Zm12.86,11.86c-.26,.7-.55,1.22-.94,1.61-.72,.72-1.66,.96-2.69,.96h-1.22v-2.81h.72c.89,0,1.25-.22,1.56-1.13l.53-1.54-4.27-11.62h3.29l2.59,7.73,2.5-7.73h3.29l-5.35,14.52Zm7.15-16.66v-2.54h3.19v2.54h-3.19Zm.05,14.64v-12.15h3.12v12.15h-3.12Zm10.7,.14c-1.97,0-3.72-.22-5.33-1.8l2.04-2.04c1.01,1.03,2.38,1.18,3.34,1.18,1.08,0,2.21-.36,2.21-1.3,0-.62-.31-1.06-1.32-1.15l-2.02-.19c-2.21-.22-3.6-1.2-3.6-3.5,0-2.62,2.28-3.98,4.83-3.98,1.97,0,3.58,.36,4.78,1.46l-1.92,1.94c-.72-.65-1.8-.84-2.9-.84-1.25,0-1.78,.58-1.78,1.2s.36,.98,1.3,1.08l1.97,.19c2.47,.24,3.72,1.54,3.72,3.67,0,2.76-2.35,4.08-5.3,4.08Zm11.59-.14c-2.54,0-3.62-1.8-3.62-3.58v-6.19h-1.32v-2.38h1.32v-3.7h3.12v3.7h2.21v2.38h-2.21v6c0,.72,.34,1.13,1.08,1.13h1.13v2.64h-1.7Zm13.3-9.43l-1.78,2.35c-.24,.31-.43,.82-.43,1.22v.5h-3.12v-.72c0-1.03,.29-1.68,.91-2.5l1.78-2.28c.38-.5,.7-1.08,.7-1.61,0-1.13-.74-1.97-1.94-1.97-1.27,0-1.92,.89-1.92,1.99h-3.12c0-2.98,2.26-4.8,5.04-4.8s5.06,1.75,5.06,4.8c0,1.2-.5,2.11-1.18,3Zm-5.42,9.43v-3.19h3.31v3.19h-3.31Z"/>
  </g>
</svg>