<?xml version="1.0" encoding="utf-8"?>
<!-- Generator: Adobe Illustrator 23.0.3, SVG Export Plug-In . SVG Version: 6.00 Build 0)  -->
<svg version="1.1" id="Layer_1" xmlns="http://www.w3.org/2000/svg" xmlns:xlink="http://www.w3.org/1999/xlink" x="0px" y="0px"
	 viewBox="0 0 379 334" style="enable-background:new 0 0 379 334;" xml:space="preserve">
<style type="text/css">
	.st0{fill:#9CDAF1;}
	.st1{fill:#7EBBE6;}
	.st2{fill:#F4CBB2;}
	.st3{fill:#FFFFFF;}
	.st4{fill:#AE5C52;}
	.st5{fill:#C3E4D8;}
	.st6{fill:url(#drop_1_);}
	.st7{opacity:0.1;enable-background:new    ;}
	.st8{fill:url(#glass_1_);}
	.st9{fill:url(#liquid_1_);}
	.st10{fill:#333333;}
	.st11{opacity:0.3;fill:#FFFFFF;enable-background:new    ;}
	.st12{opacity:0.5;}
</style>
<g>
	<path id="puddle" class="st0" d="M297.1,296.4c0,20.5-47.6,37.2-106.2,37.2c-58.7,0-106.2-16.6-106.2-37.2s47.6-37.2,106.2-37.2
		C249.6,259.2,297.1,275.9,297.1,296.4z"/>
	<path id="shadow-legs" class="st1" d="M162.1,332.2v-26.5c0-3.4-0.6-6.3-1.7-8.7c6.9,5.3,7.3,18.7,7.3,18.7v17
		c6.2,0.5,12.5,0.8,19.1,0.9l-0.2-16.9c-0.9-23.1-20.8-26-20.8-26c-7.2-1.6-7.1,2-6.4,4.3c-7.1-12.1-26.2-10.6-26.2-10.6
		c-6.6,2.4-0.5,6.6-0.5,6.6c10.4,3.8,11.3,15.1,11.3,15.1v23.6C149.8,330.8,155.8,331.6,162.1,332.2L162.1,332.2z M245.6,284.5
		c0,0-19.1-1.6-26.2,10.6c0.7-2.4,0.8-6-6.4-4.3c0,0-19.8,2.8-20.8,26l-0.2,16.9c6.5,0,12.9-0.3,19.1-0.7v-17.2
		c0,0,0.5-13.4,7.3-18.7c-1,2.4-1.7,5.3-1.7,8.7v26.8c6.2-0.5,12.2-1.3,17.9-2.2v-24.1c0,0,0.9-11.3,11.3-15.1
		C246.1,291.1,252.2,286.8,245.6,284.5L245.6,284.5z"/>
	<path id="cat" d="M378.4,142.3l0.3-1.4c-31.2-6.2-63.1-6.3-82.5-5.5c3.2-11.5,4.1-24.6,4.1-39.3c0-21.1-7.9-37.9-20.8-50.8
		c2.2-7.2,5.2-23.4-3-44c0,0-14.5-4.6-47.4,17.4c-12.9-3.2-26.6-4.8-40.3-4.8c-15.1,0-30.4,1.9-44.6,5.8
		C110.2-3.3,95.2,1.4,95.2,1.4c-9.8,24.5-3.7,42.6-1.9,47.1C81.9,60.9,74.8,76.7,74.8,96.1c0,14.7,1.7,27.8,5.7,39.2
		c-19.5-0.7-50.3-0.4-80.4,5.6l0.3,1.4c30.2-6,61.2-6.3,80.6-5.5c0.9,2.4,1.9,4.7,3,6.9c-19.2,0.6-51.9,3.1-83.3,11.9l0.4,1.4
		c31.6-8.9,64.7-11.3,83.6-11.9c11.5,21.4,34,35.2,74.2,39.5c-5.7,3.8-11.5,10.3-13.9,21.4c-7.8,3.7-32.4,12.8-47.1-12.6
		c0,0-8.3-15.1-24.1-16.3c0,0-7.7-1.8-8.3,0.7c-0.2,0.6,0.2,2.4,1.1,3.5c0.9,1.1,3.8,3.7,6.2,5.3c0,0,10.3,4.8,17.4,23
		c0,0,9.2,31,53.8,21.1v32c0,0-0.9,11.3-11.3,15.1c0,0-6.1,4.2,0.5,6.6c0,0,28.8,2.4,28.8-21.2v-34.9c0,0-1.1-13.9,5.7-18.7V267
		c0,0-0.5,13.7-7.6,18.9c0,0-4.7,8.5,5.7,6.1c0,0,19.8-2.8,20.8-26l0.4-58.1h4.8l0.5,58.1c0.9,23.1,20.8,26,20.8,26
		c10.4,2.4,5.7-6.1,5.7-6.1c-7.1-5.2-7.6-18.9-7.6-18.9v-56.9c6.8,5.3,5.7,18.2,5.7,18.2v34.9c0,23.6,28.8,21.2,28.8,21.2
		c6.6-2.4,0.5-6.6,0.5-6.6c-10.4-3.8-11.3-15.1-11.3-15.1v-45.8c0-17.9-7.5-27.3-14.9-32.3c42.9-4.2,63.4-18.1,72.9-39.6
		c18.8,0.5,52.6,2.8,84.9,11.9l0.4-1.4c-32.1-9.1-65.7-11.4-84.7-12c0.9-2.2,1.7-4.4,2.4-6.8C315,136.1,347.1,136.1,378.4,142.3
		L378.4,142.3z"/>
	<path id="face" class="st2" d="M258.4,95.1c9.2,8.4,14.6,18.5,14.6,29.3c0,50.8-37.9,52.2-84.6,52.2c-46.7,0-84.6-7-84.6-52.2
		c0-10.8,5.3-20.8,14.4-29.2c15.2-13.9,40.9-6.5,70.1-6.5C217.5,88.8,243.2,81.3,258.4,95.1L258.4,95.1z"/>
	<path id="eyes" class="st3" d="M160.3,127.1c0,14-7.9,25.3-17.6,25.3s-17.6-11.3-17.6-25.3c0-14,7.9-25.3,17.6-25.3
		C152.4,101.7,160.3,113.1,160.3,127.1z M254.7,127.1c0,14-7.9,25.3-17.6,25.3s-17.6-11.3-17.6-25.3c0-14,7.9-25.3,17.6-25.3
		C246.8,101.7,254.7,113.1,254.7,127.1z"/>
	<path id="mouth_1_" class="st4" d="M154.7,127.4c0,9.3-5.3,16.9-11.7,16.9s-11.7-7.6-11.7-16.9c0-9.3,5.3-16.9,11.7-16.9
		C149.4,110.5,154.7,118,154.7,127.4L154.7,127.4z M249.1,127.4c0,9.3-5.3,16.9-11.7,16.9s-11.7-7.6-11.7-16.9
		c0-9.3,5.3-16.9,11.7-16.9C243.8,110.5,249.1,118,249.1,127.4L249.1,127.4z M188.7,145.2c2.4,0,4.4,2,4.4,4.4s-2,4.4-4.4,4.4
		s-4.4-2-4.4-4.4S186.3,145.2,188.7,145.2z M178.4,160.7c-0.3-0.7,0.1-1.5,0.9-1.8c0.7-0.3,1.5,0.1,1.8,0.9c1.1,3.2,4.2,5.3,7.6,5.3
		s6.4-2.1,7.6-5.3c0.3-0.7,1.1-1.1,1.8-0.9s1.1,1.1,0.9,1.8c-1.5,4.3-5.6,7.2-10.2,7.2S180,165,178.4,160.7L178.4,160.7z"/>
	<path id="octo" class="st5" d="M94.5,191.7c0,1.2-1.4,2.1-3.1,2.1c-1.7,0-3.1-0.9-3.1-2.1c0-1.2,1.4-2.1,3.1-2.1
		C93.2,189.6,94.5,190.5,94.5,191.7L94.5,191.7z M99.3,198.8c0,1.2-1.4,2.1-3.1,2.1c-1.7,0-3.1-0.9-3.1-2.1c0-1.2,1.4-2.1,3.1-2.1
		C97.9,196.6,99.3,197.6,99.3,198.8L99.3,198.8z M104.4,205.4c0,1.2-1.4,2.1-3.1,2.1c-1.7,0-3.1-0.9-3.1-2.1c0-1.2,1.4-2.1,3.1-2.1
		C103.1,203.2,104.4,204.2,104.4,205.4L104.4,205.4z M111.5,211c0,1.2-1.4,2.1-3.1,2.1c-1.7,0-3.1-0.9-3.1-2.1
		c0-1.2,1.4-2.1,3.1-2.1C110.2,208.9,111.5,209.9,111.5,211L111.5,211z M121.4,214.8c0,1.2-1.4,2.1-3.1,2.1c-1.7,0-3.1-0.9-3.1-2.1
		c0-1.2,1.4-2.1,3.1-2.1C120.1,212.7,121.4,213.6,121.4,214.8L121.4,214.8z M131.3,214.8c0,1.2-1.4,2.1-3.1,2.1
		c-1.7,0-3.1-0.9-3.1-2.1c0-1.2,1.4-2.1,3.1-2.1C129.9,212.7,131.3,213.6,131.3,214.8L131.3,214.8z M141.3,213.2
		c0,1.2-1.4,2.1-3.1,2.1c-1.7,0-3.1-0.9-3.1-2.1c0-1.2,1.4-2.1,3.1-2.1C139.9,211,141.3,212,141.3,213.2L141.3,213.2z"/>
	<linearGradient id="drop_1_" gradientUnits="userSpaceOnUse" x1="65.5934" y1="195.6974" x2="71.789" y2="194.2477">
		<stop  offset="0" style="stop-color:#990000"/>
		<stop  offset="1" style="stop-color:#E80000"/>
	</linearGradient>
	<path id="drop" class="st6" d="M69.6,187.1l-3.1,10.7c0,0-0.8,3.9,2.8,4.5c3.8-0.1,3.5-3.6,3.2-4.8L69.6,187.1z"/>
	<path id="shadow" class="st7" d="M78.9,151.4c-0.5-1.2-4.2-0.9-8.4,0.7c-4.2,1.6-7.2,3.9-6.7,5.1c0,0,0,0,0,0.1v0
		c0.1,0.1,0.1,0.2,0.2,0.3c0,0,2,1.8,2.4,2.7l18,46.9c1.4,3.4,5.2,5.1,8.7,3.8c3.5-1.3,5.2-5.2,3.9-8.6l-18-46.9
		c-0.4-1.1-0.1-3.6-0.1-3.6C79,151.7,79,151.6,78.9,151.4C78.9,151.4,78.9,151.4,78.9,151.4z"/>

		<linearGradient id="glass_1_" gradientUnits="userSpaceOnUse" x1="-424.5254" y1="563.5989" x2="-424.4984" y2="563.5931" gradientTransform="matrix(-561.0148 0 0 -1011.5933 -238075.1406 570311.0625)">
		<stop  offset="0" style="stop-color:#919191"/>
		<stop  offset="1" style="stop-color:#FFFFFF"/>
	</linearGradient>
	<path id="glass" class="st8" d="M79.5,151.1C79.4,151,79.4,151,79.5,151.1c-0.5-1.3-4.3-1-8.4,0.6c-4.2,1.6-7.2,3.9-6.7,5.1
		c0,0,0,0,0,0.1v0c0.1,0.1,0.1,0.2,0.2,0.3c0,0,2,1.8,2.4,2.7l18,46.9c1.4,3.4,5.2,5.1,8.7,3.8c3.5-1.3,5.2-5.2,3.9-8.6l-18-46.9
		c-0.4-1.1-0.1-3.6-0.1-3.6C79.5,151.3,79.5,151.2,79.5,151.1L79.5,151.1z"/>

		<linearGradient id="liquid_1_" gradientUnits="userSpaceOnUse" x1="-425.8703" y1="563.9214" x2="-425.8458" y2="563.9157" gradientTransform="matrix(-373.6914 0 0 -614.1078 -159053.75 346496.5)">
		<stop  offset="0" style="stop-color:#990000"/>
		<stop  offset="1" style="stop-color:#E80000"/>
	</linearGradient>
	<path id="liquid" class="st9" d="M73.8,172.3c0,0,2.5,2.9,4.8,3.9c2.3,1,3.9,0.7,6,1.9c2.1,1.2,3.1,2.9,3.1,2.9l8.3,21.6
		c0.9,2.4-0.4,5.3-2.9,6.2c-2.5,1-5.3-0.3-6.2-2.7L73.8,172.3L73.8,172.3z"/>
	<path id="hole" class="st10" d="M67.5,155.8c0.3,0.7,2.5,0.4,5.1-0.6c2.6-1,4.4-2.3,4.2-3c-0.3-0.7-2.5-0.4-5.1,0.6
		C69.1,153.8,67.2,155.1,67.5,155.8L67.5,155.8z"/>
	<path id="highlight" class="st11" d="M79.6,151.4c-0.6,3.6-3,5.8-3,5.8l17.6,45.9c1,2.8,0.1,5.9-2.2,7.7c0.6,0,1.2-0.2,1.8-0.4
		c3.4-1.3,5.1-5.1,3.9-8.6L79.6,155C79.2,153.9,79.6,151.4,79.6,151.4L79.6,151.4z"/>
	<g id="bubbles" transform="translate(420.01 104.5)" class="st12">
		<ellipse class="st3" cx="-334.7" cy="77.1" rx="0.5" ry="0.5"/>
		<ellipse class="st3" cx="-338.1" cy="80.9" rx="0.8" ry="0.8"/>
		<ellipse class="st3" cx="-332.9" cy="85.4" rx="1.5" ry="1.5"/>
		<ellipse class="st3" cx="-330.5" cy="88.1" rx="0.8" ry="0.8"/>
		<ellipse class="st3" cx="-333.6" cy="93.9" rx="0.5" ry="0.5"/>
	</g>
	<path d="M80.9,175.8c0,2.4-5.5,7.3-9.6,7.3c-2.2,0-3.6-0.7-4.5-1.8c-0.8-0.9-1.1-2.1-1.1-3.2c0-3.2,4.7-5.6,8.8-5.6
		S80.9,173.4,80.9,175.8z"/>
</g>
</svg>
