<svg xmlns="http://www.w3.org/2000/svg" viewBox="0 0 470.28 519.33"><defs><style>.cls-1{fill:none;}.cls-2{fill:#4559a8;}.cls-3{fill:#fff;}</style></defs><title>deconpak</title><g id="Layer_2" data-name="Layer 2"><g id="Layer_1-2" data-name="Layer 1"><g id="deconpak"><rect class="cls-1" width="470.28" height="519.33"/><path class="cls-2" d="M5.7,39.61v-8a17.05,17.05,0,0,1,.47-4.06A10.17,10.17,0,0,1,7.61,24.2a7.44,7.44,0,0,1,2.49-2.31A7,7,0,0,1,13.62,21v3.6a3.19,3.19,0,0,0-2,.61,4.68,4.68,0,0,0-1.3,1.62,7.53,7.53,0,0,0-.68,2.27,17.56,17.56,0,0,0-.18,2.48H13.7v8Zm13.18,0v-8a16.56,16.56,0,0,1,.47-4.06,10.17,10.17,0,0,1,1.44-3.35,7.41,7.41,0,0,1,2.48-2.31A7.07,7.07,0,0,1,26.8,21v3.6a3.2,3.2,0,0,0-2,.61,4.55,4.55,0,0,0-1.29,1.62,7.26,7.26,0,0,0-.69,2.27,17.56,17.56,0,0,0-.18,2.48h4.25v8Zm169,95.42v8a17.14,17.14,0,0,1-.47,4.07,10.27,10.27,0,0,1-1.44,3.35,7.38,7.38,0,0,1-2.45,2.3,6.88,6.88,0,0,1-3.56.87V150a3.2,3.2,0,0,0,2-.62,4.48,4.48,0,0,0,1.29-1.62,7.2,7.2,0,0,0,.69-2.26,17.59,17.59,0,0,0,.18-2.49h-4.25v-8ZM201,135v8a17.14,17.14,0,0,1-.47,4.07,10.27,10.27,0,0,1-1.44,3.35,7.47,7.47,0,0,1-2.45,2.3,6.88,6.88,0,0,1-3.56.87V150a3.19,3.19,0,0,0,2-.62,4.5,4.5,0,0,0,1.3-1.62,7.46,7.46,0,0,0,.68-2.26,17.59,17.59,0,0,0,.18-2.49H193v-8ZM5.7,321.3v-8a17.05,17.05,0,0,1,.47-4.06,10.17,10.17,0,0,1,1.44-3.35,7.44,7.44,0,0,1,2.49-2.31,7,7,0,0,1,3.52-.86v3.6a3.19,3.19,0,0,0-2,.61,4.68,4.68,0,0,0-1.3,1.62,7.53,7.53,0,0,0-.68,2.27,17.56,17.56,0,0,0-.18,2.48H13.7v8Zm13.18,0v-8a16.56,16.56,0,0,1,.47-4.06,10.17,10.17,0,0,1,1.44-3.35,7.41,7.41,0,0,1,2.48-2.31,7.07,7.07,0,0,1,3.53-.86v3.6a3.2,3.2,0,0,0-2,.61,4.55,4.55,0,0,0-1.29,1.62,7.26,7.26,0,0,0-.69,2.27,17.56,17.56,0,0,0-.18,2.48h4.25v8Zm185,95.43v8a17.14,17.14,0,0,1-.47,4.07,10.71,10.71,0,0,1-1.44,3.35,7.58,7.58,0,0,1-2.45,2.3,6.9,6.9,0,0,1-3.56.86v-3.59a3.19,3.19,0,0,0,2-.62,4.5,4.5,0,0,0,1.3-1.62,7.55,7.55,0,0,0,.68-2.26,17.59,17.59,0,0,0,.18-2.49h-4.25v-8Zm13.17,0v8a17.14,17.14,0,0,1-.47,4.07,10.27,10.27,0,0,1-1.44,3.35,7.55,7.55,0,0,1-2.44,2.3,6.94,6.94,0,0,1-3.57.86v-3.59a3.2,3.2,0,0,0,2-.62,4.48,4.48,0,0,0,1.29-1.62,7.28,7.28,0,0,0,.69-2.26,17.59,17.59,0,0,0,.18-2.49H209v-8Z"/><path class="cls-3" d="M45.34,57.44H34.61V31.81h10.3c5,0,7.91,2.81,7.91,7.2a5.93,5.93,0,0,1-3.16,5.29,6,6,0,0,1,3.53,5.76C53.19,54.85,49.91,57.44,45.34,57.44Zm-.83-21.17h-4.9v5.91h4.9c2.12,0,3.31-1.19,3.31-3S46.63,36.27,44.51,36.27Zm.32,10.4H39.61V53h5.22a3.16,3.16,0,1,0,0-6.3Zm16.78,2.85a3.83,3.83,0,0,0,4.1,4.17A5.3,5.3,0,0,0,70,51.93L72.8,54.7a8.78,8.78,0,0,1-7.12,2.95c-4.43,0-8.68-2-8.68-9.61,0-6.12,3.31-9.57,8.17-9.57,5.22,0,8.17,3.74,8.17,9.07v2Zm6.7-5.22a3.5,3.5,0,0,0-6.27,0,4.7,4.7,0,0,0-.43,2h7.13A4.7,4.7,0,0,0,68.31,44.3ZM83.53,57.44a5.09,5.09,0,0,1-5.43-5.37V42.79h-2V39.22h2V33.68h4.68v5.54h3.31v3.57H82.78v9c0,1.08.5,1.69,1.62,1.69h1.69v4Zm25.63,0h-3.85l-3.92-11.77L97.47,57.44H93.61L87.85,38.68h5l3,11.59,3.81-11.59h3.42l3.85,11.59,3-11.59h4.93Zm12-7.92a3.83,3.83,0,0,0,4.1,4.17,5.31,5.31,0,0,0,4.25-1.76l2.84,2.77a8.78,8.78,0,0,1-7.12,2.95c-4.43,0-8.68-2-8.68-9.61,0-6.12,3.31-9.57,8.17-9.57,5.22,0,8.17,3.74,8.17,9.07v2Zm6.69-5.22a3.49,3.49,0,0,0-6.26,0,4.7,4.7,0,0,0-.43,2h7.13A4.56,4.56,0,0,0,127.88,44.3Zm13,5.22a3.83,3.83,0,0,0,4.1,4.17,5.31,5.31,0,0,0,4.25-1.76l2.84,2.77A8.8,8.8,0,0,1,145,57.65c-4.42,0-8.67-2-8.67-9.61,0-6.12,3.31-9.57,8.17-9.57,5.22,0,8.17,3.74,8.17,9.07v2Zm6.69-5.22a3.49,3.49,0,0,0-6.26,0,4.42,4.42,0,0,0-.43,2H148A4.42,4.42,0,0,0,147.61,44.3Zm20.27,13.14V46.1c0-2.56-1.62-3.42-3.1-3.42s-3.13.86-3.13,3.42V57.44H157V38.68h4.57v1.73a6.46,6.46,0,0,1,4.68-1.94,6.09,6.09,0,0,1,4.43,1.65,7,7,0,0,1,1.91,5.33v12Zm31.53-3.64v3.64h-4.49V53.8H184.44V49.37l8.78-17.56h5.11l-8.78,17.56h5.37V44.59h4.49v4.78h2.34V53.8Zm13.25,3.85c-4.17,0-7.81-2.73-7.81-7.63V39.22c0-4.89,3.64-7.63,7.81-7.63s7.78,2.74,7.78,7.63V50C220.44,54.92,216.84,57.65,212.66,57.65Zm3.1-18.35c0-2.16-1.22-3.5-3.1-3.5s-3.13,1.34-3.13,3.5V50c0,2.16,1.26,3.45,3.13,3.45s3.1-1.29,3.1-3.45Zm23.51,18.14a5.09,5.09,0,0,1-5.44-5.37V42.79h-2V39.22h2V33.68h4.68v5.54h3.31v3.57h-3.31v9c0,1.08.51,1.69,1.62,1.69h1.69v4Zm19.58-2.09a8.5,8.5,0,0,1-11.63,0c-1.69-1.8-2.12-3.92-2.12-7.31s.43-5.47,2.12-7.27a8.5,8.5,0,0,1,11.63,0c1.69,1.8,2.12,3.89,2.12,7.27S260.58,53.59,258.85,55.35Zm-3.64-11.84a3.26,3.26,0,0,0-4.35,0c-1,.93-1.08,2.62-1.08,4.53s.11,3.64,1.08,4.57a3.26,3.26,0,0,0,4.35,0c1-.93,1.08-2.62,1.08-4.57S256.19,44.44,255.21,43.51Zm25.67,14.14c-4.53,0-8-2.84-8-7.92,0-2.34,1-4.5,2.16-6.83l5.4-11.09h5.11l-5.33,10.58a5.15,5.15,0,0,1,1.91-.32c3.46,0,6.73,2.84,6.73,7.59C288.87,54.7,285.42,57.65,280.88,57.65Zm0-11.69c-1.91,0-3.31,1.36-3.31,3.74s1.4,3.74,3.31,3.74,3.31-1.37,3.31-3.74S282.86,46,280.88,46ZM300.5,57.65c-4.17,0-7.81-2.73-7.81-7.63V39.22c0-4.89,3.64-7.63,7.81-7.63s7.78,2.74,7.78,7.63V50C308.28,54.92,304.68,57.65,300.5,57.65Zm3.1-18.35c0-2.16-1.23-3.5-3.1-3.5s-3.13,1.34-3.13,3.5V50c0,2.16,1.26,3.45,3.13,3.45s3.1-1.29,3.1-3.45ZM14,95.44V93.67a5.65,5.65,0,0,1-4.65,2A6.31,6.31,0,0,1,4.73,94C2.93,92.13,2.79,89.21,2.79,86s.14-6,1.94-7.88a6.23,6.23,0,0,1,4.54-1.69,5.63,5.63,0,0,1,4.57,1.87V69.81h4.68V95.44ZM10.63,80.68C7.83,80.68,7.47,83,7.47,86s.36,5.4,3.16,5.4,3.21-2.37,3.21-5.4S13.44,80.68,10.63,80.68Zm16.82,6.84a3.83,3.83,0,0,0,4.1,4.17,5.31,5.31,0,0,0,4.25-1.76l2.84,2.77a8.8,8.8,0,0,1-7.13,3c-4.42,0-8.67-2-8.67-9.61,0-6.12,3.31-9.57,8.17-9.57,5.22,0,8.17,3.74,8.17,9.07v2Zm6.69-5.22A3.25,3.25,0,0,0,31,80.36a3.25,3.25,0,0,0-3.13,1.94,4.42,4.42,0,0,0-.43,2h7.12A4.42,4.42,0,0,0,34.14,82.3ZM49.37,95.44a5.09,5.09,0,0,1-5.44-5.37V80.79H42V77.22h2V71.68h4.68v5.54h3.32v3.57H48.61v9c0,1.08.51,1.69,1.62,1.69h1.7v4Zm16.27,0V93.82A5.7,5.7,0,0,1,61,95.62,6.47,6.47,0,0,1,56.25,94a6,6,0,0,1-1.55-4.21c0-3,2-5.44,6.48-5.44h4.35v-.93c0-2-1-2.95-3.49-2.95a4.16,4.16,0,0,0-3.6,1.62l-2.95-2.92c1.84-2,3.6-2.66,6.73-2.66,5.29,0,8,2.23,8,6.62V95.44Zm-.11-7.92H62c-1.87,0-2.77.75-2.77,2.16S60.1,91.8,62,91.8a3.54,3.54,0,0,0,2.77-.9,2.9,2.9,0,0,0,.72-2.37Zm15.88,8.13c-3,0-5.58-.32-8-2.7l3.06-3.06a6.75,6.75,0,0,0,5,1.77c1.62,0,3.31-.54,3.31-2,0-.93-.46-1.58-2-1.72l-3-.29c-3.31-.33-5.4-1.8-5.4-5.26,0-3.92,3.42-6,7.24-6,3,0,5.36.54,7.16,2.19l-2.88,2.92a6.47,6.47,0,0,0-4.36-1.26c-1.87,0-2.66.86-2.66,1.8s.54,1.48,1.94,1.62l3,.29c3.7.36,5.57,2.3,5.57,5.5C89.36,93.67,85.84,95.65,81.41,95.65Zm17.89,0c-3,0-5.58-.32-8-2.7l3.06-3.06a6.75,6.75,0,0,0,5,1.77c1.62,0,3.31-.54,3.31-2,0-.93-.46-1.58-2-1.72l-3-.29c-3.31-.33-5.4-1.8-5.4-5.26,0-3.92,3.42-6,7.24-6,3,0,5.36.54,7.16,2.19l-2.88,2.92a6.47,6.47,0,0,0-4.36-1.26c-1.87,0-2.66.86-2.66,1.8s.54,1.48,2,1.62l3,.29c3.7.36,5.58,2.3,5.58,5.5C107.26,93.67,103.73,95.65,99.3,95.65Zm17.17-.21A5.1,5.1,0,0,1,111,90.07V69.81h4.68v20c0,1.11.47,1.69,1.66,1.69h1.8v4Zm9.76-7.92a3.83,3.83,0,0,0,4.1,4.17,5.31,5.31,0,0,0,4.25-1.76l2.84,2.77a8.78,8.78,0,0,1-7.12,3c-4.43,0-8.68-2-8.68-9.61,0-6.12,3.31-9.57,8.17-9.57,5.22,0,8.17,3.74,8.17,9.07v2Zm6.69-5.22a3.49,3.49,0,0,0-6.26,0,4.7,4.7,0,0,0-.43,2h7.13A4.56,4.56,0,0,0,132.92,82.3Zm19.55-.5A3.13,3.13,0,0,0,147,84.13V95.44h-4.68V76.68h4.58v1.8a6.34,6.34,0,0,1,4.71-2A5.68,5.68,0,0,1,156,78.23Zm12,13.85c-3,0-5.58-.32-8-2.7l3.06-3.06a6.79,6.79,0,0,0,5,1.77c1.62,0,3.31-.54,3.31-2,0-.93-.47-1.58-2-1.72l-3-.29c-3.32-.33-5.4-1.8-5.4-5.26,0-3.92,3.42-6,7.23-6,2.95,0,5.37.54,7.17,2.19L169,81.58a6.47,6.47,0,0,0-4.36-1.26c-1.87,0-2.66.86-2.66,1.8s.54,1.48,1.94,1.62l3,.29c3.71.36,5.58,2.3,5.58,5.5C172.45,93.67,168.92,95.65,164.5,95.65Zm29.84-.21V93.82a5.7,5.7,0,0,1-4.61,1.8A6.5,6.5,0,0,1,184.94,94a6,6,0,0,1-1.54-4.21c0-3,2-5.44,6.48-5.44h4.35v-.93c0-2-1-2.95-3.49-2.95a4.16,4.16,0,0,0-3.6,1.62l-2.95-2.92c1.83-2,3.6-2.66,6.73-2.66,5.29,0,8,2.23,8,6.62V95.44Zm-.11-7.92h-3.56c-1.87,0-2.77.75-2.77,2.16s.9,2.12,2.84,2.12a3.54,3.54,0,0,0,2.77-.9,2.9,2.9,0,0,0,.72-2.37Zm19.91-5.72a3.13,3.13,0,0,0-5.51,2.33V95.44H204V76.68h4.57v1.8a6.35,6.35,0,0,1,4.72-2,5.69,5.69,0,0,1,4.43,1.76Zm8.78,5.72A3.83,3.83,0,0,0,227,91.69a5.28,5.28,0,0,0,4.24-1.76l2.85,2.77a8.81,8.81,0,0,1-7.13,3c-4.43,0-8.67-2-8.67-9.61,0-6.12,3.31-9.57,8.17-9.57,5.22,0,8.17,3.74,8.17,9.07v2Zm6.7-5.22a3.5,3.5,0,0,0-6.27,0,4.7,4.7,0,0,0-.43,2h7.13A4.7,4.7,0,0,0,229.62,82.3Zm23.87,13.35c-3,0-5.58-.32-8-2.7l3.06-3.06a6.75,6.75,0,0,0,5,1.77c1.62,0,3.31-.54,3.31-2,0-.93-.47-1.58-2-1.72l-3-.29c-3.31-.33-5.4-1.8-5.4-5.26,0-3.92,3.42-6,7.23-6,2.95,0,5.37.54,7.17,2.19L258,81.58a6.47,6.47,0,0,0-4.36-1.26c-1.87,0-2.66.86-2.66,1.8s.54,1.48,1.94,1.62l3,.29c3.71.36,5.58,2.3,5.58,5.5C261.44,93.67,257.91,95.65,253.49,95.65ZM279.12,94a6.3,6.3,0,0,1-4.54,1.69,5.47,5.47,0,0,1-4.53-1.87v8.53h-4.68V76.68h4.53v1.77a5.67,5.67,0,0,1,4.68-2,6.3,6.3,0,0,1,4.54,1.69c1.8,1.84,1.94,4.75,1.94,7.88S280.92,92.13,279.12,94Zm-5.91-13.28c-2.8,0-3.16,2.34-3.16,5.36s.36,5.4,3.16,5.4,3.17-2.37,3.17-5.4S276,80.68,273.21,80.68Zm22.5,1.12a3.12,3.12,0,0,0-5.5,2.33V95.44h-4.68V76.68h4.57v1.8a6.34,6.34,0,0,1,4.71-2,5.68,5.68,0,0,1,4.43,1.76Zm15.48,13.64V93.82a5.68,5.68,0,0,1-4.6,1.8A6.48,6.48,0,0,1,301.8,94a6,6,0,0,1-1.55-4.21c0-3,2.05-5.44,6.48-5.44h4.36v-.93c0-2-1-2.95-3.5-2.95a4.16,4.16,0,0,0-3.6,1.62L301,79.13c1.84-2,3.6-2.66,6.73-2.66,5.29,0,8,2.23,8,6.62V95.44Zm-.1-7.92h-3.57c-1.87,0-2.77.75-2.77,2.16s.9,2.12,2.84,2.12a3.53,3.53,0,0,0,2.77-.9,2.9,2.9,0,0,0,.73-2.37Zm16.55,10.94a6.5,6.5,0,0,1-1.4,2.41,5.41,5.41,0,0,1-4,1.44h-1.84V98.1h1.08a2,2,0,0,0,2.34-1.69l.79-2.3-6.4-17.43h4.93L327,88.27l3.74-11.59h4.93Zm14.15-10.94a3.83,3.83,0,0,0,4.11,4.17,5.28,5.28,0,0,0,4.24-1.76L353,92.7a8.81,8.81,0,0,1-7.13,3c-4.43,0-8.67-2-8.67-9.61,0-6.12,3.31-9.57,8.17-9.57,5.22,0,8.17,3.74,8.17,9.07v2Zm6.7-5.22a3.49,3.49,0,0,0-6.26,0,4.56,4.56,0,0,0-.44,2h7.13A4.7,4.7,0,0,0,348.49,82.3Zm19.73,13.14V93.67a5.65,5.65,0,0,1-4.65,2A6.31,6.31,0,0,1,359,94c-1.8-1.83-1.94-4.75-1.94-7.92s.14-6,1.94-7.88a6.22,6.22,0,0,1,4.54-1.69,5.63,5.63,0,0,1,4.57,1.87V69.81h4.68V95.44ZM364.9,80.68c-2.8,0-3.16,2.34-3.16,5.36s.36,5.4,3.16,5.4,3.21-2.37,3.21-5.4S367.71,80.68,364.9,80.68ZM400.15,94a6.3,6.3,0,0,1-4.54,1.69,5.67,5.67,0,0,1-4.68-2v1.77H386.4V69.81h4.68v8.53a5.47,5.47,0,0,1,4.53-1.87,6.25,6.25,0,0,1,4.54,1.69c1.8,1.84,1.94,4.75,1.94,7.88S402,92.13,400.15,94Zm-5.91-13.28c-2.8,0-3.16,2.34-3.16,5.36s.36,5.4,3.16,5.4,3.17-2.37,3.17-5.4S397.05,80.68,394.24,80.68Zm19.3,17.78a6.78,6.78,0,0,1-1.4,2.41,5.44,5.44,0,0,1-4,1.44h-1.83V98.1h1.08a2,2,0,0,0,2.34-1.69l.79-2.3-6.41-17.43H409l3.89,11.59,3.74-11.59h4.94ZM17.33,132a6.28,6.28,0,0,1-4.54,1.69,5.49,5.49,0,0,1-4.53-1.87v8.53H3.58V114.68H8.11v1.77a5.67,5.67,0,0,1,4.68-2,6.28,6.28,0,0,1,4.54,1.69c1.8,1.84,1.94,4.75,1.94,7.88S19.13,130.13,17.33,132Zm-5.9-13.28c-2.81,0-3.17,2.34-3.17,5.36s.36,5.4,3.17,5.4,3.16-2.37,3.16-5.4S14.23,118.68,11.43,118.68Zm16,6.84a3.83,3.83,0,0,0,4.1,4.17,5.3,5.3,0,0,0,4.25-1.76l2.85,2.77a8.81,8.81,0,0,1-7.13,3c-4.43,0-8.68-2-8.68-9.61,0-6.12,3.32-9.57,8.17-9.57,5.22,0,8.18,3.74,8.18,9.07v2Zm6.7-5.22a3.5,3.5,0,0,0-6.27,0,4.7,4.7,0,0,0-.43,2h7.13A4.7,4.7,0,0,0,34.11,120.3Zm15.51,13.35c-2.95,0-5.58-.32-8-2.7l3.06-3.06a6.75,6.75,0,0,0,5,1.77c1.62,0,3.32-.54,3.32-2,0-.93-.47-1.58-2-1.72l-3-.29c-3.31-.33-5.4-1.8-5.4-5.26,0-3.92,3.42-6,7.24-6,2.95,0,5.36.54,7.16,2.19l-2.88,2.92a6.46,6.46,0,0,0-4.35-1.26c-1.88,0-2.67.86-2.67,1.8s.54,1.48,1.95,1.62l3,.29c3.71.36,5.58,2.3,5.58,5.5C57.58,131.67,54.05,133.65,49.62,133.65Zm17.43-.21a5.09,5.09,0,0,1-5.44-5.37v-9.28h-2v-3.57h2v-5.54h4.68v5.54H69.6v3.57H66.29v9c0,1.08.5,1.69,1.62,1.69H69.6v4Zm6.73-22v-3.82h4.79v3.82Zm.07,22V115.22h4.68v18.22Zm17.35.21c-3.74,0-8.39-2-8.39-9.61s4.65-9.57,8.39-9.57A8,8,0,0,1,97.39,117l-3.17,3.17a3.77,3.77,0,0,0-3-1.48,3.25,3.25,0,0,0-2.66,1.22A6.35,6.35,0,0,0,87.49,124a6.48,6.48,0,0,0,1.05,4.18,3.22,3.22,0,0,0,2.66,1.22,3.79,3.79,0,0,0,3-1.47l3.17,3.13A8,8,0,0,1,91.2,133.65ZM101,111.48v-3.82h4.79v3.82Zm.07,22V115.22h4.68v18.22Zm20.27,0v-1.77a5.65,5.65,0,0,1-4.65,2,6.32,6.32,0,0,1-4.57-1.69c-1.8-1.83-1.94-4.75-1.94-7.92s.14-6,1.94-7.88a6.25,6.25,0,0,1,4.54-1.69,5.63,5.63,0,0,1,4.57,1.87v-8.53h4.68v25.63ZM118,118.68c-2.8,0-3.16,2.34-3.16,5.36s.36,5.4,3.16,5.4,3.21-2.37,3.21-5.4S120.79,118.68,118,118.68Zm16.82,6.84a3.83,3.83,0,0,0,4.1,4.17,5.31,5.31,0,0,0,4.25-1.76L146,130.7a8.8,8.8,0,0,1-7.13,3c-4.42,0-8.67-2-8.67-9.61,0-6.12,3.31-9.57,8.17-9.57,5.22,0,8.17,3.74,8.17,9.07v2Zm6.69-5.22a3.49,3.49,0,0,0-6.26,0,4.42,4.42,0,0,0-.43,2h7.12A4.42,4.42,0,0,0,141.49,120.3Zm25.17,13.35c-3.75,0-8.39-2-8.39-9.61s4.64-9.57,8.39-9.57a8,8,0,0,1,6.19,2.52l-3.17,3.17a3.77,3.77,0,0,0-3-1.48A3.28,3.28,0,0,0,164,119.9a6.36,6.36,0,0,0-1,4.14,6.48,6.48,0,0,0,1,4.18,3.25,3.25,0,0,0,2.67,1.22,3.79,3.79,0,0,0,3-1.47l3.17,3.13A8,8,0,0,1,166.66,133.65Zm20-13.85a3.13,3.13,0,0,0-5.51,2.33v11.31h-4.68V114.68h4.58v1.8a6.34,6.34,0,0,1,4.71-2,5.68,5.68,0,0,1,4.43,1.76Zm18.07,11.55a7.85,7.85,0,0,1-5.83,2.3,7.74,7.74,0,0,1-5.79-2.3c-1.7-1.8-2.13-3.92-2.13-7.31s.43-5.47,2.13-7.27a8.49,8.49,0,0,1,11.62,0c1.69,1.8,2.13,3.89,2.13,7.27S206.47,129.59,204.74,131.35Zm-3.63-11.84a3,3,0,0,0-2.2-.83,2.93,2.93,0,0,0-2.16.83c-1,.93-1.08,2.62-1.08,4.53s.11,3.64,1.08,4.57a2.93,2.93,0,0,0,2.16.83,3,3,0,0,0,2.2-.83c1-.93,1.08-2.62,1.08-4.57S202.08,120.44,201.11,119.51Zm24,12.45a6.27,6.27,0,0,1-4.53,1.69,5.5,5.5,0,0,1-4.54-1.87v8.53h-4.68V114.68h4.54v1.77a5.64,5.64,0,0,1,4.68-2,6.27,6.27,0,0,1,4.53,1.69c1.8,1.84,1.95,4.75,1.95,7.88S226.88,130.13,225.08,132Zm-5.9-13.28c-2.81,0-3.17,2.34-3.17,5.36s.36,5.4,3.17,5.4,3.17-2.37,3.17-5.4S222,118.68,219.18,118.68ZM253.59,132a6.27,6.27,0,0,1-4.53,1.69,5.5,5.5,0,0,1-4.54-1.87v8.53h-4.68V114.68h4.54v1.77a5.64,5.64,0,0,1,4.68-2,6.27,6.27,0,0,1,4.53,1.69c1.8,1.84,1.95,4.75,1.95,7.88S255.39,130.13,253.59,132Zm-5.9-13.28c-2.81,0-3.17,2.34-3.17,5.36s.36,5.4,3.17,5.4,3.17-2.37,3.17-5.4S250.5,118.68,247.69,118.68Zm17.6,14.76a5.1,5.1,0,0,1-5.47-5.37V107.81h4.68v20c0,1.11.47,1.69,1.66,1.69H268v4Zm16,0v-1.62a5.68,5.68,0,0,1-4.6,1.8,6.48,6.48,0,0,1-4.79-1.66,6,6,0,0,1-1.55-4.21c0-3,2.05-5.44,6.48-5.44h4.36v-.93c0-2-1-2.95-3.5-2.95a4.16,4.16,0,0,0-3.6,1.62l-2.95-2.92c1.84-2,3.6-2.66,6.74-2.66,5.29,0,8,2.23,8,6.62v12.35Zm-.1-7.92h-3.57c-1.87,0-2.77.75-2.77,2.16s.9,2.12,2.84,2.12a3.57,3.57,0,0,0,2.78-.9,2.9,2.9,0,0,0,.72-2.37Zm20.62,7.92V122.1c0-2.56-1.62-3.42-3.09-3.42s-3.13.86-3.13,3.42v11.34h-4.68V114.68h4.57v1.73a6.43,6.43,0,0,1,4.68-1.94,6.12,6.12,0,0,1,4.43,1.65,7,7,0,0,1,1.9,5.33v12Zm13.4-7.92a3.83,3.83,0,0,0,4.1,4.17,5.31,5.31,0,0,0,4.25-1.76l2.84,2.77a8.8,8.8,0,0,1-7.13,3c-4.42,0-8.67-2-8.67-9.61,0-6.12,3.31-9.57,8.17-9.57,5.22,0,8.17,3.74,8.17,9.07v2Zm6.69-5.22a3.49,3.49,0,0,0-6.26,0,4.42,4.42,0,0,0-.43,2h7.12A4.42,4.42,0,0,0,321.92,120.3Zm15.52,13.35c-2.95,0-5.58-.32-8-2.7l3.06-3.06a6.75,6.75,0,0,0,5,1.77c1.62,0,3.31-.54,3.31-2,0-.93-.47-1.58-2-1.72l-3-.29c-3.31-.33-5.4-1.8-5.4-5.26,0-3.92,3.42-6,7.23-6,3,0,5.37.54,7.17,2.19l-2.88,2.92a6.47,6.47,0,0,0-4.36-1.26c-1.87,0-2.66.86-2.66,1.8s.54,1.48,1.94,1.62l2.95.29c3.71.36,5.58,2.3,5.58,5.5C345.39,131.67,341.86,133.65,337.44,133.65Zm20.16-22.17v-3.82h4.79v3.82Zm.07,22V115.22h4.68v18.22Zm20.81,0V122.1c0-2.56-1.62-3.42-3.1-3.42s-3.13.86-3.13,3.42v11.34h-4.68V114.68h4.57v1.73a6.44,6.44,0,0,1,4.68-1.94,6.12,6.12,0,0,1,4.43,1.65,7,7,0,0,1,1.91,5.33v12Zm18.43,0V107.81h5v25.63Zm23.58-2.09a8.5,8.5,0,0,1-11.63,0c-1.69-1.8-2.12-3.92-2.12-7.31s.43-5.47,2.12-7.27a8.5,8.5,0,0,1,11.63,0c1.69,1.8,2.12,3.89,2.12,7.27S422.22,129.59,420.49,131.35Zm-3.64-11.84a3.26,3.26,0,0,0-4.35,0c-1,.93-1.08,2.62-1.08,4.53s.1,3.64,1.08,4.57a3.26,3.26,0,0,0,4.35,0c1-.93,1.08-2.62,1.08-4.57S417.82,120.44,416.85,119.51Zm28.87,13.93h-3.85L438,121.67,434,133.44h-3.85l-5.76-18.76h5l3,11.59,3.82-11.59h3.42l3.85,11.59,3-11.59h4.93Zm18,0v-1.62a5.7,5.7,0,0,1-4.61,1.8,6.5,6.5,0,0,1-4.79-1.66,6,6,0,0,1-1.54-4.21c0-3,2.05-5.44,6.48-5.44h4.35v-.93c0-2-1-2.95-3.49-2.95a4.16,4.16,0,0,0-3.6,1.62l-2.95-2.92c1.83-2,3.6-2.66,6.73-2.66,5.29,0,8,2.23,8,6.62v12.35Zm-.11-7.92H460c-1.87,0-2.78.75-2.78,2.16s.91,2.12,2.85,2.12a3.54,3.54,0,0,0,2.77-.9,2.9,2.9,0,0,0,.72-2.37ZM3.94,171.44V145.81H20.82v4.46H8.94v6H19.06v4.47H8.94V167H20.82v4.47Zm29.52,0H29.79l-6.91-18.76h4.93l3.81,11.59,3.78-11.59h4.93Zm13-7.92a3.83,3.83,0,0,0,4.1,4.17,5.31,5.31,0,0,0,4.25-1.76l2.84,2.77a8.78,8.78,0,0,1-7.12,3c-4.43,0-8.68-2-8.68-9.61,0-6.12,3.31-9.57,8.17-9.57,5.22,0,8.17,3.74,8.17,9.07v2Zm6.69-5.22a3.49,3.49,0,0,0-6.26,0,4.56,4.56,0,0,0-.43,2h7.13A4.56,4.56,0,0,0,53.11,158.3Zm19.55-.5a3.13,3.13,0,0,0-5.51,2.33v11.31H62.47V152.68h4.58v1.8a6.34,6.34,0,0,1,4.71-2,5.68,5.68,0,0,1,4.43,1.76Zm13.18,16.66a6.64,6.64,0,0,1-1.41,2.41,5.41,5.41,0,0,1-4,1.44H78.57V174.1h1.08A2,2,0,0,0,82,172.41l.79-2.3-6.41-17.43H81.3l3.89,11.59,3.74-11.59h4.93Zm26.13,0a6.64,6.64,0,0,1-1.4,2.41,5.43,5.43,0,0,1-4,1.44H104.7V174.1h1.08a2,2,0,0,0,2.34-1.69l.79-2.3-6.4-17.43h4.93l3.88,11.59,3.75-11.59H120Zm14.11-10.94a3.83,3.83,0,0,0,4.11,4.17,5.31,5.31,0,0,0,4.25-1.76l2.84,2.77a8.8,8.8,0,0,1-7.13,3c-4.42,0-8.67-2-8.67-9.61,0-6.12,3.31-9.57,8.17-9.57,5.22,0,8.17,3.74,8.17,9.07v2Zm6.7-5.22a3.49,3.49,0,0,0-6.26,0,4.56,4.56,0,0,0-.44,2h7.13A4.56,4.56,0,0,0,132.78,158.3Zm19,13.14v-1.62a5.7,5.7,0,0,1-4.61,1.8,6.47,6.47,0,0,1-4.78-1.66,6,6,0,0,1-1.55-4.21c0-3,2.05-5.44,6.48-5.44h4.35v-.93c0-2-1-2.95-3.49-2.95a4.16,4.16,0,0,0-3.6,1.62l-3-2.92c1.84-2,3.6-2.66,6.73-2.66,5.29,0,8,2.23,8,6.62v12.35Zm-.11-7.92h-3.56c-1.87,0-2.77.75-2.77,2.16s.9,2.12,2.84,2.12a3.54,3.54,0,0,0,2.77-.9,2.9,2.9,0,0,0,.72-2.37Zm19.91-5.72a3.13,3.13,0,0,0-5.51,2.33v11.31h-4.68V152.68h4.58v1.8a6.34,6.34,0,0,1,4.71-2,5.68,5.68,0,0,1,4.43,1.76ZM2,210.13v-.95H12.69v.95Zm22.47,3.31-.8-2.26H19.33l-.79,2.26H17.4l3.67-10H22l3.65,10Zm-3-8.45-1.87,5.27h3.72Zm9.93,8.45v-4.25a1.6,1.6,0,0,0-1.69-1.83,1.62,1.62,0,0,0-1.71,1.83v4.25h-1v-6.89h1v.75a2.48,2.48,0,0,1,1.93-.84,2.41,2.41,0,0,1,1.76.65,2.53,2.53,0,0,1,.72,1.91v4.42Zm5.67,3.16a3,3,0,0,1-2.34-.92l.66-.65a2.1,2.1,0,0,0,1.65.69c1.33,0,1.89-.94,1.89-2.11v-1.08a2.22,2.22,0,0,1-1.93.89,2.41,2.41,0,0,1-1.67-.61,5.34,5.34,0,0,1,0-5.75,2.43,2.43,0,0,1,1.68-.6,2.18,2.18,0,0,1,1.94.9v-.81h1v7.1A2.73,2.73,0,0,1,37.13,216.6Zm.15-9.24c-1.5,0-1.72,1.29-1.72,2.58s.22,2.57,1.72,2.57S39,211.22,39,209.94,38.78,207.36,37.28,207.36Zm5.18-2.78v-1.13H43.6v1.13Zm.06,8.86v-6.89h1v6.89Zm4.16-3.18c0,1.51.7,2.38,2,2.38a2.23,2.23,0,0,0,1.8-.79l.69.61a3.17,3.17,0,0,1-2.52,1.06c-1.84,0-3-1.09-3-3.53,0-2.24,1.08-3.53,2.83-3.53s2.83,1.28,2.83,3.35v.45Zm3.43-1.91a1.73,1.73,0,0,0-1.61-1,1.71,1.71,0,0,0-1.61,1,2.52,2.52,0,0,0-.21,1.15h3.65A2.8,2.8,0,0,0,50.11,208.35Zm8.19,5.17a3,3,0,0,1-2.29-.9l.72-.71a2,2,0,0,0,1.57.66c1.3,0,2-.83,2-2.3v-6.81h1.07v6.95A2.93,2.93,0,0,1,58.3,213.52Zm6.3-3.26c0,1.51.7,2.38,2,2.38a2.23,2.23,0,0,0,1.8-.79l.69.61a3.17,3.17,0,0,1-2.52,1.06c-1.84,0-3-1.09-3-3.53,0-2.24,1.08-3.53,2.83-3.53s2.83,1.28,2.83,3.35v.45ZM68,208.35a1.73,1.73,0,0,0-1.61-1,1.71,1.71,0,0,0-1.61,1,2.52,2.52,0,0,0-.21,1.15h3.65A2.8,2.8,0,0,0,68,208.35Zm9.84,5.09h-.94l-1.8-5.35-1.8,5.35h-.94l-2.18-6.89H71.3l1.58,5.53,1.81-5.53h.87l1.82,5.53L79,206.55H80ZM82,210.26c0,1.51.7,2.38,2,2.38a2.23,2.23,0,0,0,1.8-.79l.69.61A3.17,3.17,0,0,1,84,213.52c-1.84,0-3-1.09-3-3.53,0-2.24,1.08-3.53,2.83-3.53s2.83,1.28,2.83,3.35v.45Zm3.43-1.91a1.73,1.73,0,0,0-1.61-1,1.71,1.71,0,0,0-1.61,1A2.52,2.52,0,0,0,82,209.5h3.65A2.8,2.8,0,0,0,85.39,208.35Zm5.29,5.09a1.69,1.69,0,0,1-1.77-1.85v-4.27h-.86v-.77h.86v-2.12h1v2.12h1.47v.77H89.92v4.24c0,.63.3,1,.94,1h.53v.87Zm4.65,0a1.69,1.69,0,0,1-1.77-1.85v-4.27h-.87v-.77h.87v-2.12h1v2.12H96v.77H94.57v4.24c0,.63.29,1,.94,1H96v.87Zm2.68,2v-3.24h1.24v2.14Zm7.4-2v-10h1.06v10Zm8.19-.7a2.67,2.67,0,0,1-2,.78,2.63,2.63,0,0,1-2-.78,3.71,3.71,0,0,1-.84-2.75,3.67,3.67,0,0,1,.84-2.74,2.64,2.64,0,0,1,2-.79,2.68,2.68,0,0,1,2,.79,3.67,3.67,0,0,1,.84,2.74A3.71,3.71,0,0,1,113.6,212.74Zm-.72-4.88a1.74,1.74,0,0,0-1.26-.5,1.7,1.7,0,0,0-1.24.5,4.26,4.26,0,0,0,0,4.26,1.66,1.66,0,0,0,1.24.5,1.7,1.7,0,0,0,1.26-.5,4.4,4.4,0,0,0,0-4.26ZM123,213.44h-.94l-1.81-5.35-1.79,5.35h-.94l-2.19-6.89h1.1l1.58,5.53,1.81-5.53h.87l1.82,5.53,1.57-5.53h1.09Zm7.42,0v-.66a2.45,2.45,0,0,1-2,.74,2.47,2.47,0,0,1-2-.63,1.91,1.91,0,0,1-.52-1.4c0-1.22.86-2,2.4-2h2.06v-.66c0-1-.49-1.51-1.77-1.51a1.84,1.84,0,0,0-1.74.8l-.68-.63a2.64,2.64,0,0,1,2.43-1c1.87,0,2.76.81,2.76,2.3v4.68Zm0-3.18h-1.92c-1,0-1.56.4-1.56,1.22s.49,1.17,1.6,1.17a2,2,0,0,0,1.52-.46,1.58,1.58,0,0,0,.36-1.19Zm9.68,3.26a4.33,4.33,0,0,1-3.4-1.31l.71-.72a3.41,3.41,0,0,0,2.72,1.08c1.47,0,2.37-.67,2.37-1.85a1.61,1.61,0,0,0-.49-1.25,2.21,2.21,0,0,0-1.31-.49l-1.16-.17a3.49,3.49,0,0,1-1.82-.75,2.4,2.4,0,0,1-.77-1.88c0-1.69,1.22-2.8,3.19-2.8a4.07,4.07,0,0,1,3,1.09l-.68.69a3.09,3.09,0,0,0-2.33-.87c-1.34,0-2.11.74-2.11,1.86a1.49,1.49,0,0,0,.45,1.17,2.65,2.65,0,0,0,1.3.51l1.16.19a3,3,0,0,1,1.81.71,2.52,2.52,0,0,1,.84,2C143.56,212.44,142.2,213.52,140.11,213.52Zm7.42-.08a1.69,1.69,0,0,1-1.76-1.85v-4.27h-.87v-.77h.87v-2.12h1v2.12h1.47v.77h-1.47v4.24c0,.63.29,1,.93,1h.54v.87Zm6.57,0v-.66a2.45,2.45,0,0,1-2,.74,2.49,2.49,0,0,1-2-.63,1.91,1.91,0,0,1-.52-1.4c0-1.22.86-2,2.4-2h2.06v-.66c0-1-.49-1.51-1.77-1.51a1.82,1.82,0,0,0-1.73.8l-.69-.63a2.65,2.65,0,0,1,2.44-1c1.86,0,2.76.81,2.76,2.3v4.68Zm0-3.18h-1.92c-1,0-1.56.4-1.56,1.22s.49,1.17,1.6,1.17a2.06,2.06,0,0,0,1.53-.46,1.58,1.58,0,0,0,.35-1.19Zm5.39,3.18a1.69,1.69,0,0,1-1.77-1.85v-4.27h-.87v-.77h.87v-2.12h1v2.12h1.47v.77h-1.47v4.24c0,.63.29,1,.94,1h.53v.87Zm3.29-3.18c0,1.51.7,2.38,2,2.38a2.23,2.23,0,0,0,1.8-.79l.69.61a3.17,3.17,0,0,1-2.52,1.06c-1.84,0-3-1.09-3-3.53,0-2.24,1.08-3.53,2.83-3.53s2.83,1.28,2.83,3.35v.45Zm3.43-1.91a1.77,1.77,0,0,0-3.22,0,2.52,2.52,0,0,0-.21,1.15h3.65A2.8,2.8,0,0,0,166.21,208.35Zm10.36,5.17a3.3,3.3,0,0,1-3.48-3.37v-6.69h1.07v6.6a2.42,2.42,0,1,0,4.83,0v-6.6h1.07v6.69A3.31,3.31,0,0,1,176.57,213.52Zm10.46-.08v-4.25a1.71,1.71,0,1,0-3.41,0v4.25h-1v-6.89h1v.75a2.49,2.49,0,0,1,1.94-.84,2.41,2.41,0,0,1,1.76.65A2.53,2.53,0,0,1,188,209v4.42Zm3.4-8.86v-1.13h1.13v1.13Zm0,8.86v-6.89h1v6.89Zm5.84,0h-.9l-2.52-6.89H194l1.87,5.53,1.89-5.53h1.1Zm4.45-3.18c0,1.51.7,2.38,2,2.38a2.27,2.27,0,0,0,1.81-.79l.69.61a3.18,3.18,0,0,1-2.53,1.06c-1.83,0-3-1.09-3-3.53,0-2.24,1.08-3.53,2.83-3.53s2.83,1.28,2.83,3.35v.45Zm3.43-1.91a1.71,1.71,0,0,0-1.61-1,1.73,1.73,0,0,0-1.61,1,2.66,2.66,0,0,0-.21,1.15h3.66A2.79,2.79,0,0,0,204.2,208.35Zm7.21-.49a1.41,1.41,0,0,0-1.19-.5,1.68,1.68,0,0,0-1.65,1.85v4.23h-1v-6.89h1v.84a2.3,2.3,0,0,1,1.93-.93,2.14,2.14,0,0,1,1.66.65Zm4.09,5.66a3.74,3.74,0,0,1-2.83-1l.67-.68a2.83,2.83,0,0,0,2.15.8c1.15,0,1.83-.4,1.83-1.22,0-.61-.33-.93-1.15-1l-1.13-.1c-1.35-.11-2.06-.7-2.06-1.85s1.05-2,2.53-2a3.91,3.91,0,0,1,2.48.74l-.65.66a2.93,2.93,0,0,0-1.84-.54c-1,0-1.54.42-1.54,1.13s.38.93,1.23,1l1.08.1c1.21.11,2,.56,2,1.86S217.18,213.52,215.5,213.52Zm4.72-8.94v-1.13h1.13v1.13Zm.05,8.86v-6.89h1v6.89Zm5.46,0a1.69,1.69,0,0,1-1.76-1.85v-4.27h-.87v-.77H224v-2.12h1v2.12h1.47v.77H225v4.24c0,.63.29,1,.94,1h.53v.87Zm4.43,1.66a2.17,2.17,0,0,1-.49.82,1.91,1.91,0,0,1-1.35.47h-.43v-.89h.31c.7,0,.91-.23,1.13-.86l.49-1.34-2.48-6.75h1.1l1.89,5.53,1.87-5.53h1.1Zm8.21-1.66v-10h6.2v1h-5.13v3.51h4.37v1h-4.37v3.59h5.13v1Zm17.08,0v-4.25a1.71,1.71,0,1,0-3.42-.11v4.36h-1v-4.25a1.6,1.6,0,0,0-1.7-1.83,1.63,1.63,0,0,0-1.72,1.83v4.25h-1v-6.89h1v.75a2.52,2.52,0,0,1,2-.84,2.26,2.26,0,0,1,2.11,1.15,2.65,2.65,0,0,1,2.27-1.15,2.49,2.49,0,0,1,1.78.65,2.55,2.55,0,0,1,.74,1.91v4.42Zm4.08-3.18c0,1.51.7,2.38,2,2.38a2.27,2.27,0,0,0,1.81-.79l.68.61a3.17,3.17,0,0,1-2.52,1.06c-1.83,0-3-1.09-3-3.53,0-2.24,1.08-3.53,2.83-3.53s2.83,1.28,2.83,3.35v.45Zm3.43-1.91a1.77,1.77,0,0,0-3.22,0,2.66,2.66,0,0,0-.21,1.15h3.66A3,3,0,0,0,263,208.35Zm7.21-.49a1.44,1.44,0,0,0-1.19-.5,1.68,1.68,0,0,0-1.65,1.85v4.23h-1v-6.89h1v.84a2.3,2.3,0,0,1,1.93-.93,2.12,2.12,0,0,1,1.65.65ZM274,216.6a3,3,0,0,1-2.34-.92l.65-.65a2.14,2.14,0,0,0,1.66.69c1.33,0,1.89-.94,1.89-2.11v-1.08a2.22,2.22,0,0,1-1.93.89,2.37,2.37,0,0,1-1.67-.61,5.34,5.34,0,0,1,0-5.75,2.41,2.41,0,0,1,1.68-.6,2.16,2.16,0,0,1,1.93.9v-.81h1v7.1A2.74,2.74,0,0,1,274,216.6Zm.15-9.24c-1.5,0-1.72,1.29-1.72,2.58s.22,2.57,1.72,2.57,1.71-1.29,1.71-2.57S275.66,207.36,274.16,207.36Zm5.86,2.9c0,1.51.71,2.38,2,2.38a2.23,2.23,0,0,0,1.8-.79l.69.61a3.17,3.17,0,0,1-2.52,1.06c-1.84,0-3-1.09-3-3.53,0-2.24,1.08-3.53,2.83-3.53s2.83,1.28,2.83,3.35v.45Zm3.44-1.91a1.73,1.73,0,0,0-1.61-1,1.71,1.71,0,0,0-1.61,1,2.64,2.64,0,0,0-.22,1.15h3.66A2.8,2.8,0,0,0,283.46,208.35Zm7.77,5.09v-4.25a1.6,1.6,0,0,0-1.7-1.83,1.62,1.62,0,0,0-1.71,1.83v4.25h-1v-6.89h1v.75a2.5,2.5,0,0,1,1.94-.84,2.41,2.41,0,0,1,1.76.65,2.53,2.53,0,0,1,.72,1.91v4.42Zm6.13.08c-1.74,0-3.06-1.18-3.06-3.53s1.32-3.53,3.06-3.53a2.74,2.74,0,0,1,2.27,1l-.69.65a2,2,0,0,0-3.18,0,4,4,0,0,0,0,3.7,1.86,1.86,0,0,0,1.6.78,1.88,1.88,0,0,0,1.58-.78l.69.66A2.74,2.74,0,0,1,297.36,213.52Zm5.89,1.58a2,2,0,0,1-.49.82,1.87,1.87,0,0,1-1.34.47H301v-.89h.31c.7,0,.91-.23,1.14-.86l.49-1.34-2.48-6.75h1.09l1.89,5.53,1.88-5.53h1.09Zm15.7-1.66v-7.58l-2.73,6h-.91l-2.78-6v7.58h-1.06v-10h1.06l3.25,7.08,3.17-7.08H320v10Zm7.67,0v-.66a2.45,2.45,0,0,1-2,.74,2.49,2.49,0,0,1-1.95-.63,1.91,1.91,0,0,1-.52-1.4c0-1.22.86-2,2.4-2h2.06v-.66c0-1-.49-1.51-1.77-1.51a1.82,1.82,0,0,0-1.73.8l-.69-.63a2.65,2.65,0,0,1,2.44-1c1.86,0,2.76.81,2.76,2.3v4.68Zm0-3.18H324.7c-1,0-1.55.4-1.55,1.22s.49,1.17,1.59,1.17a2.06,2.06,0,0,0,1.53-.46,1.58,1.58,0,0,0,.35-1.19Zm7.87,3.18v-4.25a1.71,1.71,0,1,0-3.41,0v4.25h-1v-6.89h1v.75a2.49,2.49,0,0,1,1.94-.84,2.41,2.41,0,0,1,1.76.65,2.53,2.53,0,0,1,.71,1.91v4.42Zm7.36,0v-.66a2.43,2.43,0,0,1-2,.74,2.49,2.49,0,0,1-1.95-.63,1.9,1.9,0,0,1-.51-1.4c0-1.22.85-2,2.39-2h2.06v-.66c0-1-.49-1.51-1.76-1.51a1.84,1.84,0,0,0-1.74.8l-.69-.63a2.65,2.65,0,0,1,2.44-1c1.86,0,2.76.81,2.76,2.3v4.68Zm0-3.18h-1.92c-1,0-1.55.4-1.55,1.22s.49,1.17,1.59,1.17a2.06,2.06,0,0,0,1.53-.46,1.58,1.58,0,0,0,.35-1.19Zm5.67,6.34a3,3,0,0,1-2.34-.92l.66-.65a2.1,2.1,0,0,0,1.65.69c1.33,0,1.89-.94,1.89-2.11v-1.08a2.22,2.22,0,0,1-1.93.89,2.41,2.41,0,0,1-1.67-.61,5.34,5.34,0,0,1,0-5.75,2.43,2.43,0,0,1,1.68-.6,2.18,2.18,0,0,1,1.94.9v-.81h1v7.1A2.73,2.73,0,0,1,347.52,216.6Zm.15-9.24c-1.5,0-1.72,1.29-1.72,2.58s.22,2.57,1.72,2.57,1.71-1.29,1.71-2.57S349.17,207.36,347.67,207.36Zm5.87,2.9c0,1.51.7,2.38,2,2.38a2.27,2.27,0,0,0,1.81-.79l.68.61a3.17,3.17,0,0,1-2.52,1.06c-1.83,0-3-1.09-3-3.53,0-2.24,1.08-3.53,2.83-3.53s2.83,1.28,2.83,3.35v.45Zm3.43-1.91a1.77,1.77,0,0,0-3.22,0,2.66,2.66,0,0,0-.21,1.15h3.65A2.8,2.8,0,0,0,357,208.35Zm12.21,5.09v-4.25a1.71,1.71,0,1,0-3.42-.11v4.36h-1v-4.25a1.6,1.6,0,0,0-1.69-1.83,1.63,1.63,0,0,0-1.72,1.83v4.25h-1v-6.89h1v.75a2.5,2.5,0,0,1,1.94-.84,2.27,2.27,0,0,1,2.12,1.15,2.63,2.63,0,0,1,2.27-1.15,2.5,2.5,0,0,1,1.78.65,2.55,2.55,0,0,1,.74,1.91v4.42Zm4.08-3.18c0,1.51.7,2.38,2,2.38a2.25,2.25,0,0,0,1.81-.79l.69.61a3.17,3.17,0,0,1-2.52,1.06c-1.84,0-3-1.09-3-3.53,0-2.24,1.07-3.53,2.82-3.53s2.83,1.28,2.83,3.35v.45Zm3.44-1.91a1.78,1.78,0,0,0-3.23,0,2.81,2.81,0,0,0-.21,1.15h3.66A3,3,0,0,0,376.7,208.35Zm7.77,5.09v-4.25a1.71,1.71,0,1,0-3.41,0v4.25h-1v-6.89h1v.75a2.48,2.48,0,0,1,1.93-.84,2.42,2.42,0,0,1,1.77.65,2.53,2.53,0,0,1,.71,1.91v4.42Zm5.38,0a1.69,1.69,0,0,1-1.76-1.85v-4.27h-.87v-.77h.87v-2.12h1v2.12h1.47v.77H389.1v4.24c0,.63.29,1,.94,1h.53v.87ZM48.29,339.14V328.41H39.61v10.73h-5V313.51h5V324h8.68V313.51h5v25.63Zm21.42,0v-1.73A6.39,6.39,0,0,1,65,339.35a6.12,6.12,0,0,1-4.43-1.65,7,7,0,0,1-1.9-5.33v-12h4.68v11.34c0,2.56,1.61,3.42,3.09,3.42s3.13-.86,3.13-3.42V320.38h4.68v18.76Zm31.64,0V327.8c0-2.56-1.62-3.42-3.09-3.42a3,3,0,0,0-3.13,3.31v11.45H90.45V327.8c0-2.56-1.62-3.42-3.1-3.42s-3.13.86-3.13,3.42v11.34H79.54V320.38h4.57v1.73a6.55,6.55,0,0,1,4.68-1.94,5.81,5.81,0,0,1,5,2.37,7.15,7.15,0,0,1,5.61-2.37,6.56,6.56,0,0,1,4.61,1.65,7.08,7.08,0,0,1,2,5.33v12Zm19.34,0v-1.62a5.7,5.7,0,0,1-4.61,1.8,6.48,6.48,0,0,1-4.79-1.66,6,6,0,0,1-1.55-4.21c0-3,2.05-5.44,6.48-5.44h4.36v-.93c0-2.05-1-2.95-3.49-2.95a4.11,4.11,0,0,0-3.6,1.62l-2.95-2.92c1.83-2,3.59-2.66,6.73-2.66,5.29,0,8,2.23,8,6.62v12.35Zm-.11-7.92H117c-1.87,0-2.77.75-2.77,2.16s.9,2.12,2.85,2.12a3.54,3.54,0,0,0,2.77-.9,2.9,2.9,0,0,0,.72-2.37Zm20.63,7.92V327.8c0-2.56-1.62-3.42-3.1-3.42s-3.13.86-3.13,3.42v11.34H130.3V320.38h4.57v1.73a6.43,6.43,0,0,1,4.68-1.94,6.12,6.12,0,0,1,4.43,1.65,7,7,0,0,1,1.9,5.33v12ZM173,337.66a6.3,6.3,0,0,1-4.54,1.69,5.49,5.49,0,0,1-4.53-1.87V346h-4.68V320.38h4.53v1.77a5.67,5.67,0,0,1,4.68-2,6.3,6.3,0,0,1,4.54,1.69c1.8,1.83,1.94,4.75,1.94,7.88S174.83,335.83,173,337.66Zm-5.9-13.28c-2.81,0-3.17,2.34-3.17,5.36s.36,5.4,3.17,5.4,3.16-2.37,3.16-5.4S169.93,324.38,167.13,324.38Zm22.5,1.11a3.14,3.14,0,0,0-2.49-1.11,3.11,3.11,0,0,0-3,3.45v11.31h-4.68V320.38H184v1.8a6.35,6.35,0,0,1,4.72-2,5.62,5.62,0,0,1,4.42,1.76Zm18.1,11.56a7.85,7.85,0,0,1-5.83,2.3,7.74,7.74,0,0,1-5.79-2.3c-1.7-1.8-2.13-3.93-2.13-7.31s.43-5.47,2.13-7.27a8.49,8.49,0,0,1,11.62,0c1.69,1.8,2.13,3.89,2.13,7.27S209.46,335.29,207.73,337.05Zm-3.63-11.84a3,3,0,0,0-2.2-.83,2.93,2.93,0,0,0-2.16.83c-1,.93-1.08,2.62-1.08,4.53s.11,3.64,1.08,4.57a2.93,2.93,0,0,0,2.16.83,3,3,0,0,0,2.2-.83c1-.93,1.08-2.62,1.08-4.57S205.07,326.14,204.1,325.21Zm17.67,14.14c-3.74,0-8.38-2-8.38-9.61s4.64-9.57,8.38-9.57a8,8,0,0,1,6.19,2.52l-3.16,3.16a3.81,3.81,0,0,0-3-1.47,3.23,3.23,0,0,0-2.66,1.22,6.35,6.35,0,0,0-1.05,4.14,6.48,6.48,0,0,0,1.05,4.18,3.23,3.23,0,0,0,2.66,1.22,3.81,3.81,0,0,0,3-1.47L228,336.8A8,8,0,0,1,221.77,339.35Zm13-8.13a3.83,3.83,0,0,0,4.1,4.17,5.31,5.31,0,0,0,4.25-1.76L246,336.4a8.81,8.81,0,0,1-7.12,3c-4.43,0-8.68-2-8.68-9.61,0-6.12,3.31-9.57,8.17-9.57,5.22,0,8.17,3.74,8.17,9.07v2Zm6.69-5.22a3.49,3.49,0,0,0-6.26,0,4.7,4.7,0,0,0-.43,2h7.13A4.56,4.56,0,0,0,241.46,326ZM257,339.35c-3,0-5.58-.32-8-2.7l3.06-3.06a6.75,6.75,0,0,0,5,1.77c1.62,0,3.31-.54,3.31-1.95,0-.93-.46-1.58-2-1.72l-3-.29c-3.31-.33-5.4-1.8-5.4-5.26,0-3.92,3.42-6,7.24-6,2.95,0,5.36.54,7.16,2.19l-2.88,2.92a6.47,6.47,0,0,0-4.36-1.26c-1.87,0-2.66.86-2.66,1.8s.54,1.47,1.94,1.62l3,.29c3.7.36,5.58,2.3,5.58,5.5C264.94,337.37,261.41,339.35,257,339.35Zm17.89,0c-2.95,0-5.58-.32-8-2.7l3.06-3.06a6.75,6.75,0,0,0,5,1.77c1.62,0,3.32-.54,3.32-1.95,0-.93-.47-1.58-2-1.72l-3-.29c-3.31-.33-5.4-1.8-5.4-5.26,0-3.92,3.42-6,7.24-6,3,0,5.36.54,7.16,2.19l-2.88,2.92A6.46,6.46,0,0,0,275,324c-1.88,0-2.67.86-2.67,1.8s.54,1.47,1.95,1.62l2.95.29c3.71.36,5.58,2.3,5.58,5.5C282.83,337.37,279.3,339.35,274.87,339.35Zm11.81-22.17v-3.82h4.79v3.82Zm.07,22V320.92h4.68v18.22Zm20.81,0V327.8c0-2.56-1.62-3.42-3.1-3.42s-3.13.86-3.13,3.42v11.34h-4.68V320.38h4.57v1.73a6.46,6.46,0,0,1,4.68-1.94,6.11,6.11,0,0,1,4.43,1.65,7,7,0,0,1,1.91,5.33v12Zm16.2,7.09c-2.88,0-4.86-.58-6.8-2.45l2.91-2.95a4.78,4.78,0,0,0,3.67,1.44c2.81,0,3.78-2,3.78-3.89v-1.91a5.47,5.47,0,0,1-4.46,1.87,6.23,6.23,0,0,1-4.46-1.65c-1.77-1.77-1.91-4.18-1.91-7.45s.14-5.65,1.91-7.42a6.33,6.33,0,0,1,4.5-1.65,5.49,5.49,0,0,1,4.57,2v-1.77H332v18.07C332,343,328.8,346.23,323.76,346.23Zm.47-21.85c-2.77,0-3.06,2.37-3.06,4.86s.29,4.89,3.06,4.89,3.09-2.41,3.09-4.89S327,324.38,324.23,324.38ZM356,339.14v-1.77a5.65,5.65,0,0,1-4.65,2,6.32,6.32,0,0,1-4.57-1.69c-1.8-1.83-1.94-4.75-1.94-7.92s.14-6.05,1.94-7.88a6.25,6.25,0,0,1,4.54-1.69,5.6,5.6,0,0,1,4.57,1.87v-8.53h4.68v25.63Zm-3.31-14.76c-2.81,0-3.17,2.34-3.17,5.36s.36,5.4,3.17,5.4,3.2-2.37,3.2-5.4S355.47,324.38,352.67,324.38ZM376,325.49a3.13,3.13,0,0,0-5.5,2.34v11.31h-4.68V320.38h4.57v1.8a6.34,6.34,0,0,1,4.71-2,5.63,5.63,0,0,1,4.43,1.76Zm18.07,11.56a8.49,8.49,0,0,1-11.62,0c-1.69-1.8-2.13-3.93-2.13-7.31s.44-5.47,2.13-7.27a7.75,7.75,0,0,1,5.79-2.3,7.67,7.67,0,0,1,5.83,2.3c1.7,1.8,2.13,3.89,2.13,7.27S395.79,335.29,394.06,337.05Zm-3.63-11.84a3,3,0,0,0-2.2-.83,2.93,2.93,0,0,0-2.16.83c-1,.93-1.08,2.62-1.08,4.53s.11,3.64,1.08,4.57a2.93,2.93,0,0,0,2.16.83,3,3,0,0,0,2.2-.83c1-.93,1.08-2.62,1.08-4.57S391.4,326.14,390.43,325.21Zm24,12.45a6.26,6.26,0,0,1-4.53,1.69,5.5,5.5,0,0,1-4.54-1.87V346h-4.68V320.38h4.54v1.77a5.66,5.66,0,0,1,4.68-2,6.26,6.26,0,0,1,4.53,1.69c1.8,1.83,2,4.75,2,7.88S416.2,335.83,414.4,337.66Zm-5.9-13.28c-2.81,0-3.17,2.34-3.17,5.36s.36,5.4,3.17,5.4,3.17-2.37,3.17-5.4S411.31,324.38,408.5,324.38Zm18.47,15c-3,0-5.58-.32-8-2.7l3.06-3.06a6.75,6.75,0,0,0,5,1.77c1.62,0,3.31-.54,3.31-1.95,0-.93-.46-1.58-2-1.72l-3-.29c-3.31-.33-5.4-1.8-5.4-5.26,0-3.92,3.42-6,7.24-6,2.95,0,5.36.54,7.16,2.19l-2.88,2.92a6.47,6.47,0,0,0-4.36-1.26c-1.87,0-2.66.86-2.66,1.8s.54,1.47,1.94,1.62l3,.29c3.7.36,5.58,2.3,5.58,5.5C434.93,337.37,431.4,339.35,427,339.35ZM9.45,377.14A5.09,5.09,0,0,1,4,371.77v-9.28H2v-3.57H4v-5.54H8.69v5.54H12v3.57H8.69v9c0,1.08.5,1.69,1.62,1.69H12v4Zm19.62-2.09a7.86,7.86,0,0,1-5.84,2.3,7.75,7.75,0,0,1-5.79-2.3c-1.69-1.8-2.12-3.93-2.12-7.31s.43-5.47,2.12-7.27a7.75,7.75,0,0,1,5.79-2.3,7.71,7.71,0,0,1,5.84,2.3c1.69,1.8,2.12,3.89,2.12,7.27S30.79,373.29,29.07,375.05Zm-3.64-11.84a3,3,0,0,0-2.2-.83,2.93,2.93,0,0,0-2.16.83c-1,.93-1.08,2.62-1.08,4.53s.11,3.64,1.08,4.57a2.93,2.93,0,0,0,2.16.83,3,3,0,0,0,2.2-.83c1-.93,1.08-2.62,1.08-4.57S26.4,364.14,25.43,363.21Zm25.63,14.14c-4.17,0-8.1-2.19-8.17-7.56h4.68a3.48,3.48,0,0,0,7-.21,3.29,3.29,0,0,0-3.6-3.53h-.69V362h.69a2.94,2.94,0,0,0,3.24-3.2,3.15,3.15,0,1,0-6.3-.18H43.18c.11-4.57,3.53-7.31,7.85-7.31,4.53,0,7.81,3,7.81,7.34a5.47,5.47,0,0,1-3,5.26,6.12,6.12,0,0,1,3.31,5.83C59.2,374.83,55.45,377.35,51.06,377.35Zm19.66,0c-4.18,0-7.81-2.73-7.81-7.63v-10.8c0-4.89,3.63-7.63,7.81-7.63s7.77,2.74,7.77,7.63v10.8C78.49,374.62,74.89,377.35,70.72,377.35ZM73.81,359c0-2.17-1.22-3.5-3.09-3.5s-3.13,1.33-3.13,3.5v10.69c0,2.16,1.26,3.45,3.13,3.45s3.09-1.29,3.09-3.45Zm36.47,18.14h-3.85l-3.93-11.77-3.92,11.77H94.73L89,358.38h5L97,370l3.82-11.59h3.42L108.05,370l3-11.59H116Zm21.31-2.09a7.85,7.85,0,0,1-5.83,2.3,7.74,7.74,0,0,1-5.79-2.3c-1.7-1.8-2.13-3.93-2.13-7.31s.43-5.47,2.13-7.27a8.49,8.49,0,0,1,11.62,0c1.69,1.8,2.13,3.89,2.13,7.27S133.32,373.29,131.59,375.05ZM128,363.21a3,3,0,0,0-2.2-.83,2.93,2.93,0,0,0-2.16.83c-1,.93-1.08,2.62-1.08,4.53s.11,3.64,1.08,4.57a2.93,2.93,0,0,0,2.16.83,3,3,0,0,0,2.2-.83c1-.93,1.08-2.62,1.08-4.57S128.93,364.14,128,363.21Zm20.41.28a3.13,3.13,0,0,0-5.51,2.34v11.31h-4.68V358.38h4.57v1.8a6.35,6.35,0,0,1,4.72-2,5.66,5.66,0,0,1,4.43,1.76Zm15.51,13.65v-1.77a5.62,5.62,0,0,1-4.64,2,6.31,6.31,0,0,1-4.57-1.69c-1.8-1.83-1.94-4.75-1.94-7.92s.14-6.05,1.94-7.88a6.21,6.21,0,0,1,4.53-1.69,5.63,5.63,0,0,1,4.58,1.87v-8.53h4.68v25.63Zm-3.31-14.76c-2.81,0-3.17,2.34-3.17,5.36s.36,5.4,3.17,5.4,3.21-2.37,3.21-5.4S163.38,362.38,160.57,362.38Zm19.3,15c-3,0-5.58-.32-8-2.7l3.06-3.06a6.75,6.75,0,0,0,5,1.77c1.62,0,3.31-.54,3.31-1.95,0-.93-.47-1.58-2-1.72l-3-.29c-3.31-.33-5.4-1.8-5.4-5.26,0-3.92,3.42-6,7.23-6,3,0,5.37.54,7.17,2.19l-2.88,2.92A6.47,6.47,0,0,0,180,362c-1.87,0-2.66.86-2.66,1.8s.54,1.47,1.94,1.62l3,.29c3.71.36,5.58,2.3,5.58,5.5C187.82,375.37,184.3,377.35,179.87,377.35Zm29.84-.21v-1.62a5.7,5.7,0,0,1-4.61,1.8,6.47,6.47,0,0,1-4.78-1.66,6,6,0,0,1-1.55-4.21c0-3,2-5.44,6.48-5.44h4.35v-.93c0-2.05-1-2.95-3.49-2.95a4.13,4.13,0,0,0-3.6,1.62l-2.95-2.92c1.84-2,3.6-2.66,6.73-2.66,5.29,0,8,2.23,8,6.62v12.35Zm-.11-7.92H206c-1.87,0-2.77.75-2.77,2.16s.9,2.12,2.84,2.12a3.54,3.54,0,0,0,2.77-.9,2.9,2.9,0,0,0,.72-2.37Zm20.63,7.92V365.8c0-2.56-1.62-3.42-3.09-3.42s-3.14.86-3.14,3.42v11.34h-4.68V358.38h4.58v1.73a6.43,6.43,0,0,1,4.68-1.94,6.08,6.08,0,0,1,4.42,1.65,7,7,0,0,1,1.91,5.33v12Zm20.09,0v-1.77a5.63,5.63,0,0,1-4.64,2,6.33,6.33,0,0,1-4.58-1.69c-1.8-1.83-1.94-4.75-1.94-7.92s.14-6.05,1.94-7.88a6.25,6.25,0,0,1,4.54-1.69,5.6,5.6,0,0,1,4.57,1.87v-8.53h4.68v25.63ZM247,362.38c-2.81,0-3.17,2.34-3.17,5.36s.36,5.4,3.17,5.4,3.2-2.37,3.2-5.4S249.81,362.38,247,362.38Zm28.55,15c-4.18,0-8.1-2.19-8.18-7.56h4.68a3.48,3.48,0,0,0,6.95-.21,3.29,3.29,0,0,0-3.6-3.53h-.68V362h.68a2.94,2.94,0,0,0,3.24-3.2,3.15,3.15,0,1,0-6.3-.18h-4.68c.11-4.57,3.53-7.31,7.85-7.31,4.54,0,7.81,3,7.81,7.34a5.47,5.47,0,0,1-2.95,5.26,6.12,6.12,0,0,1,3.31,5.83C283.69,374.83,280,377.35,275.56,377.35Zm27,0c-3,0-5.58-.32-8-2.7l3.06-3.06a6.79,6.79,0,0,0,5,1.77c1.62,0,3.31-.54,3.31-1.95,0-.93-.47-1.58-2-1.72l-3-.29c-3.32-.33-5.4-1.8-5.4-5.26,0-3.92,3.42-6,7.23-6,3,0,5.36.54,7.16,2.19l-2.88,2.92A6.45,6.45,0,0,0,302.7,362c-1.87,0-2.66.86-2.66,1.8s.53,1.47,1.94,1.62l2.95.29c3.71.36,5.58,2.3,5.58,5.5C310.51,375.37,307,377.35,302.56,377.35Zm15.55-8.13a3.83,3.83,0,0,0,4.1,4.17,5.31,5.31,0,0,0,4.25-1.76l2.84,2.77a8.83,8.83,0,0,1-7.13,3c-4.42,0-8.67-2-8.67-9.61,0-6.12,3.31-9.57,8.17-9.57,5.22,0,8.17,3.74,8.17,9.07v2ZM324.8,364a3.49,3.49,0,0,0-6.26,0,4.56,4.56,0,0,0-.43,2h7.12A4.42,4.42,0,0,0,324.8,364Zm20.27,13.14V365.8c0-2.56-1.62-3.42-3.1-3.42s-3.13.86-3.13,3.42v11.34h-4.68V358.38h4.57v1.73a6.46,6.46,0,0,1,4.68-1.94,6.09,6.09,0,0,1,4.43,1.65,7,7,0,0,1,1.91,5.33v12Zm15.59,0a5.09,5.09,0,0,1-5.44-5.37v-9.28h-2v-3.57h2v-5.54h4.68v5.54h3.31v3.57H359.9v9c0,1.08.51,1.69,1.62,1.69h1.69v4ZM371,369.22a3.83,3.83,0,0,0,4.11,4.17,5.31,5.31,0,0,0,4.25-1.76l2.84,2.77a8.84,8.84,0,0,1-7.13,3c-4.43,0-8.67-2-8.67-9.61,0-6.12,3.31-9.57,8.17-9.57,5.22,0,8.17,3.74,8.17,9.07v2Zm6.7-5.22a3.49,3.49,0,0,0-6.26,0,4.56,4.56,0,0,0-.44,2h7.13A4.56,4.56,0,0,0,377.65,364Zm20.27,13.14V365.8c0-2.56-1.62-3.42-3.1-3.42s-3.13.86-3.13,3.42v11.34H387V358.38h4.57v1.73a6.44,6.44,0,0,1,4.68-1.94,6.12,6.12,0,0,1,4.43,1.65,7,7,0,0,1,1.91,5.33v12Zm17.17.21c-3.74,0-8.39-2-8.39-9.61s4.65-9.57,8.39-9.57a8,8,0,0,1,6.19,2.52l-3.17,3.16a3.79,3.79,0,0,0-3-1.47,3.22,3.22,0,0,0-2.66,1.22,6.35,6.35,0,0,0-1.05,4.14,6.48,6.48,0,0,0,1.05,4.18,3.22,3.22,0,0,0,2.66,1.22,3.79,3.79,0,0,0,3-1.47l3.17,3.13A8,8,0,0,1,415.09,377.35Zm13-8.13a3.83,3.83,0,0,0,4.1,4.17,5.31,5.31,0,0,0,4.25-1.76l2.84,2.77a8.81,8.81,0,0,1-7.12,3c-4.43,0-8.68-2-8.68-9.61,0-6.12,3.31-9.57,8.17-9.57,5.22,0,8.17,3.74,8.17,9.07v2Zm6.69-5.22a3.49,3.49,0,0,0-6.26,0,4.7,4.7,0,0,0-.43,2h7.13A4.56,4.56,0,0,0,434.74,364Zm15.52,13.35c-2.95,0-5.58-.32-8-2.7l3.06-3.06a6.75,6.75,0,0,0,5,1.77c1.62,0,3.31-.54,3.31-1.95,0-.93-.46-1.58-2-1.72l-3-.29c-3.31-.33-5.4-1.8-5.4-5.26,0-3.92,3.42-6,7.24-6,2.95,0,5.36.54,7.16,2.19l-2.88,2.92A6.47,6.47,0,0,0,450.4,362c-1.87,0-2.66.86-2.66,1.8s.54,1.47,1.95,1.62l2.95.29c3.7.36,5.58,2.3,5.58,5.5C458.22,375.37,454.69,377.35,450.26,377.35ZM13.19,415.14v-1.62a5.7,5.7,0,0,1-4.61,1.8,6.47,6.47,0,0,1-4.78-1.66,6,6,0,0,1-1.55-4.21c0-3,2.05-5.44,6.48-5.44h4.35v-.93c0-2.05-1-2.95-3.49-2.95A4.13,4.13,0,0,0,6,401.75L3,398.83c1.84-2,3.6-2.66,6.73-2.66,5.29,0,8,2.23,8,6.62v12.35Zm-.11-7.92H9.52c-1.87,0-2.77.75-2.77,2.16s.9,2.12,2.84,2.12a3.54,3.54,0,0,0,2.77-.9,2.9,2.9,0,0,0,.72-2.37Zm15.59,7.92a5.09,5.09,0,0,1-5.44-5.37v-9.28h-2v-3.57h2v-5.54h4.68v5.54h3.32v3.57H27.91v9c0,1.08.51,1.69,1.62,1.69h1.7v4Zm24.77,0v-1.62a5.7,5.7,0,0,1-4.61,1.8A6.5,6.5,0,0,1,44,413.66a6,6,0,0,1-1.55-4.21c0-3,2.06-5.44,6.48-5.44h4.36v-.93c0-2.05-1-2.95-3.49-2.95a4.13,4.13,0,0,0-3.6,1.62l-3-2.92c1.83-2,3.6-2.66,6.73-2.66,5.29,0,8,2.23,8,6.62v12.35Zm-.11-7.92H49.77c-1.88,0-2.78.75-2.78,2.16s.9,2.12,2.85,2.12a3.54,3.54,0,0,0,2.77-.9,2.9,2.9,0,0,0,.72-2.37Zm23.94,7.92a5.09,5.09,0,0,1-5.44-5.37v-9.28h-2v-3.57h2v-5.54h4.68v5.54h3.32v3.57H76.51v9c0,1.08.51,1.69,1.62,1.69h1.7v4Zm6.73-22v-3.82h4.79v3.82Zm.07,22V396.92h4.68v18.22Zm31.72,0V403.8c0-2.56-1.62-3.42-3.1-3.42a3,3,0,0,0-3.13,3.31v11.45h-4.68V403.8c0-2.56-1.62-3.42-3.1-3.42s-3.13.86-3.13,3.42v11.34H94V396.38h4.58v1.73a6.54,6.54,0,0,1,4.67-1.94,5.81,5.81,0,0,1,5,2.37,7.18,7.18,0,0,1,5.62-2.37,6.53,6.53,0,0,1,4.6,1.65,7.05,7.05,0,0,1,2.06,5.33v12Zm13.39-7.92a3.83,3.83,0,0,0,4.1,4.17,5.3,5.3,0,0,0,4.25-1.76l2.85,2.77a8.84,8.84,0,0,1-7.13,3c-4.43,0-8.68-2-8.68-9.61,0-6.12,3.32-9.57,8.17-9.57,5.22,0,8.18,3.74,8.18,9.07v2Zm6.7-5.22a3.5,3.5,0,0,0-6.27,0,4.7,4.7,0,0,0-.43,2h7.13A4.7,4.7,0,0,0,135.88,402ZM164,415.14v-1.77a5.65,5.65,0,0,1-4.65,2,6.31,6.31,0,0,1-4.57-1.69c-1.8-1.83-1.94-4.75-1.94-7.92s.14-6.05,1.94-7.88a6.22,6.22,0,0,1,4.54-1.69,5.63,5.63,0,0,1,4.57,1.87v-8.53h4.68v25.63Zm-3.32-14.76c-2.8,0-3.16,2.34-3.16,5.36s.36,5.4,3.16,5.4,3.21-2.37,3.21-5.4S163.45,400.38,160.64,400.38Zm23.94,14.76v-1.73a6.39,6.39,0,0,1-4.68,1.94,6.08,6.08,0,0,1-4.42-1.65,6.93,6.93,0,0,1-1.91-5.33v-12h4.68v11.34c0,2.56,1.62,3.42,3.09,3.42s3.14-.86,3.14-3.42V396.38h4.67v18.76Zm20-13.65a3.13,3.13,0,0,0-5.51,2.34v11.31h-4.68V396.38H199v1.8a6.35,6.35,0,0,1,4.72-2,5.65,5.65,0,0,1,4.43,1.76Zm6.12-8.31v-3.82h4.79v3.82Zm.07,22V396.92h4.68v18.22Zm20.81,0V403.8c0-2.56-1.62-3.42-3.1-3.42s-3.13.86-3.13,3.42v11.34h-4.68V396.38h4.57v1.73a6.44,6.44,0,0,1,4.68-1.94,6.11,6.11,0,0,1,4.43,1.65,7,7,0,0,1,1.91,5.33v12Zm16.2,7.09c-2.88,0-4.86-.58-6.8-2.45l2.91-2.95a4.78,4.78,0,0,0,3.67,1.44c2.81,0,3.78-2,3.78-3.89v-1.91a5.48,5.48,0,0,1-4.46,1.87,6.23,6.23,0,0,1-4.46-1.65c-1.77-1.77-1.91-4.18-1.91-7.45s.14-5.65,1.91-7.42a6.33,6.33,0,0,1,4.5-1.65,5.51,5.51,0,0,1,4.57,2v-1.77H256v18.07C256,419,252.84,422.23,247.8,422.23Zm.47-21.85c-2.78,0-3.06,2.37-3.06,4.86s.28,4.89,3.06,4.89,3.09-2.41,3.09-4.89S251,400.38,248.27,400.38Zm31,14.76v-1.62a5.7,5.7,0,0,1-4.61,1.8,6.47,6.47,0,0,1-4.78-1.66,6,6,0,0,1-1.55-4.21c0-3,2.05-5.44,6.48-5.44h4.35v-.93c0-2.05-1-2.95-3.49-2.95a4.13,4.13,0,0,0-3.6,1.62l-2.95-2.92c1.84-2,3.6-2.66,6.73-2.66,5.29,0,8,2.23,8,6.62v12.35Zm-.11-7.92h-3.56c-1.87,0-2.77.75-2.77,2.16s.9,2.12,2.84,2.12a3.54,3.54,0,0,0,2.77-.9,2.9,2.9,0,0,0,.72-2.37Zm24.23,8.13c-2.95,0-5.58-.32-8-2.7l3.06-3.06a6.75,6.75,0,0,0,5,1.77c1.62,0,3.32-.54,3.32-1.95,0-.93-.47-1.58-2-1.72l-3-.29c-3.31-.33-5.4-1.8-5.4-5.26,0-3.92,3.42-6,7.24-6,2.95,0,5.36.54,7.16,2.19l-2.88,2.92a6.46,6.46,0,0,0-4.35-1.26c-1.88,0-2.67.86-2.67,1.8s.54,1.47,1.95,1.62l2.95.29c3.71.36,5.58,2.3,5.58,5.5C311.34,413.37,307.81,415.35,303.38,415.35Zm17.39-.21a5.09,5.09,0,0,1-5.44-5.37v-9.28h-2v-3.57h2v-5.54H320v5.54h3.32v3.57H320v9c0,1.08.51,1.69,1.62,1.69h1.7v4Zm16.27,0v-1.62a5.7,5.7,0,0,1-4.61,1.8,6.47,6.47,0,0,1-4.78-1.66,6,6,0,0,1-1.55-4.21c0-3,2-5.44,6.48-5.44h4.35v-.93c0-2.05-1-2.95-3.49-2.95a4.13,4.13,0,0,0-3.6,1.62l-2.95-2.92c1.84-2,3.6-2.66,6.73-2.66,5.29,0,8,2.23,8,6.62v12.35Zm-.11-7.92h-3.56c-1.87,0-2.77.75-2.77,2.16s.9,2.12,2.84,2.12a3.54,3.54,0,0,0,2.77-.9,2.9,2.9,0,0,0,.72-2.37Zm15.59,7.92a5.09,5.09,0,0,1-5.43-5.37v-9.28h-2v-3.57h2v-5.54h4.68v5.54h3.31v3.57h-3.31v9c0,1.08.5,1.69,1.62,1.69h1.69v4Zm10.33-7.92a3.83,3.83,0,0,0,4.11,4.17,5.28,5.28,0,0,0,4.24-1.76l2.85,2.77a8.84,8.84,0,0,1-7.13,3c-4.43,0-8.67-2-8.67-9.61,0-6.12,3.31-9.57,8.17-9.57,5.22,0,8.17,3.74,8.17,9.07v2Zm6.7-5.22a3.49,3.49,0,0,0-6.26,0,4.56,4.56,0,0,0-.44,2H370A4.7,4.7,0,0,0,369.55,402Zm30.67,11.05a8.5,8.5,0,0,1-11.63,0c-1.69-1.8-2.12-3.93-2.12-7.31s.43-5.47,2.12-7.27a8.5,8.5,0,0,1,11.63,0c1.69,1.8,2.12,3.89,2.12,7.27S402,411.29,400.22,413.05Zm-3.64-11.84a3.26,3.26,0,0,0-4.35,0c-1,.93-1.08,2.62-1.08,4.53s.11,3.64,1.08,4.57a3.26,3.26,0,0,0,4.35,0c1-.93,1.08-2.62,1.08-4.57S397.56,402.14,396.58,401.21Zm15.48-.72v14.65h-4.68V400.49h-1.94v-3.57h1.94v-2.34a5.12,5.12,0,0,1,5.48-5.36h2.66v4h-1.84c-1.11,0-1.62.61-1.62,1.69v2.05h3.46v3.57ZM7.25,445.22a3.83,3.83,0,0,0,4.1,4.17,5.3,5.3,0,0,0,4.25-1.76l2.85,2.77a8.84,8.84,0,0,1-7.13,3c-4.43,0-8.68-2-8.68-9.61,0-6.12,3.32-9.57,8.17-9.57,5.22,0,8.18,3.74,8.18,9.07v2ZM14,440a3.27,3.27,0,0,0-3.14-1.95A3.26,3.26,0,0,0,7.68,440a4.7,4.7,0,0,0-.43,2h7.13A4.7,4.7,0,0,0,14,440Zm31.17,13.14V441.8c0-2.56-1.62-3.42-3.1-3.42a3,3,0,0,0-3.13,3.31v11.45H34.21V441.8c0-2.56-1.62-3.42-3.09-3.42S28,439.24,28,441.8v11.34H23.31V434.38h4.57v1.73a6.55,6.55,0,0,1,4.68-1.94,5.78,5.78,0,0,1,5,2.37,7.18,7.18,0,0,1,5.62-2.37,6.58,6.58,0,0,1,4.61,1.65,7.08,7.08,0,0,1,2,5.33v12Zm13.39-7.92a3.83,3.83,0,0,0,4.11,4.17,5.31,5.31,0,0,0,4.25-1.76l2.84,2.77a8.83,8.83,0,0,1-7.13,3c-4.43,0-8.67-2-8.67-9.61,0-6.12,3.31-9.57,8.17-9.57,5.22,0,8.17,3.74,8.17,9.07v2Zm6.7-5.22A3.49,3.49,0,0,0,59,440a4.56,4.56,0,0,0-.44,2h7.13A4.56,4.56,0,0,0,65.21,440Zm19.55-.51a3.13,3.13,0,0,0-5.51,2.34v11.31H74.57V434.38h4.57v1.8a6.35,6.35,0,0,1,4.72-2,5.62,5.62,0,0,1,4.42,1.76Zm11.63,20.74c-2.88,0-4.86-.58-6.81-2.45l2.92-2.95a4.77,4.77,0,0,0,3.67,1.44c2.81,0,3.78-2,3.78-3.89v-1.91a5.48,5.48,0,0,1-4.46,1.87A6.27,6.27,0,0,1,91,450.69c-1.76-1.77-1.91-4.18-1.91-7.45s.15-5.65,1.91-7.42a6.36,6.36,0,0,1,4.5-1.65,5.48,5.48,0,0,1,4.57,2v-1.77h4.54v18.07C104.63,457,101.42,460.23,96.39,460.23Zm.46-21.85c-2.77,0-3.06,2.37-3.06,4.86s.29,4.89,3.06,4.89,3.1-2.41,3.1-4.89S99.63,438.38,96.85,438.38Zm16.71,6.84a3.83,3.83,0,0,0,4.1,4.17,5.31,5.31,0,0,0,4.25-1.76l2.84,2.77a8.83,8.83,0,0,1-7.13,3c-4.42,0-8.67-2-8.67-9.61,0-6.12,3.31-9.57,8.17-9.57,5.22,0,8.17,3.74,8.17,9.07v2Zm6.69-5.22a3.49,3.49,0,0,0-6.26,0,4.56,4.56,0,0,0-.43,2h7.12A4.42,4.42,0,0,0,120.25,440Zm20.27,13.14V441.8c0-2.56-1.62-3.42-3.1-3.42s-3.13.86-3.13,3.42v11.34h-4.68V434.38h4.57v1.73a6.46,6.46,0,0,1,4.68-1.94,6.09,6.09,0,0,1,4.43,1.65,7,7,0,0,1,1.91,5.33v12Zm17.17.21c-3.74,0-8.38-2-8.38-9.61s4.64-9.57,8.38-9.57a8,8,0,0,1,6.19,2.52l-3.16,3.16a3.81,3.81,0,0,0-3-1.47A3.23,3.23,0,0,0,155,439.6a6.35,6.35,0,0,0-1.05,4.14,6.48,6.48,0,0,0,1.05,4.18,3.23,3.23,0,0,0,2.66,1.22,3.81,3.81,0,0,0,3-1.47l3.16,3.13A8,8,0,0,1,157.69,453.35Zm16.81,2.81a6.5,6.5,0,0,1-1.4,2.41,5.41,5.41,0,0,1-4,1.44h-1.84V455.8h1.08a2,2,0,0,0,2.34-1.69l.79-2.31L165,434.38H170L173.86,446l3.74-11.59h4.93Zm8.82-3v-5.33h5.37v5.33ZM2,491.83v-.95H12.69v.95Zm20.54,3.31H18.68v-10h3.75a2.63,2.63,0,0,1,2.94,2.67A2.28,2.28,0,0,1,23.9,490a2.42,2.42,0,0,1,1.63,2.37A2.65,2.65,0,0,1,22.56,495.14Zm-.21-9H19.74v3.46h2.61c1.1,0,2-.55,2-1.74S23.45,486.12,22.35,486.12Zm.11,4.41H19.74v3.65h2.72a1.83,1.83,0,1,0,0-3.65Zm9.24-1a1.44,1.44,0,0,0-1.19-.5,1.69,1.69,0,0,0-1.66,1.85v4.23h-1v-6.89h1v.83a2.34,2.34,0,0,1,1.94-.92,2.12,2.12,0,0,1,1.65.65Zm3.75,7.24a2.17,2.17,0,0,1-.49.82,1.91,1.91,0,0,1-1.35.47h-.43v-.89h.31c.7,0,.91-.23,1.13-.86l.49-1.34-2.48-6.75h1.1l1.89,5.53,1.87-5.53h1.1Zm8.33-1.66v-.66a2.47,2.47,0,0,1-2,.74,2.49,2.49,0,0,1-1.95-.63,1.92,1.92,0,0,1-.51-1.4c0-1.22.85-2,2.39-2h2.06v-.66c0-1-.49-1.51-1.76-1.51a1.84,1.84,0,0,0-1.74.8l-.69-.63a2.65,2.65,0,0,1,2.44-1c1.86,0,2.76.81,2.76,2.3v4.68Zm0-3.18H41.86c-1,0-1.55.4-1.55,1.22s.49,1.17,1.59,1.17a2.06,2.06,0,0,0,1.53-.46,1.58,1.58,0,0,0,.35-1.19Zm7.87,3.18v-4.25a1.6,1.6,0,0,0-1.7-1.83,1.62,1.62,0,0,0-1.71,1.83v4.25h-1v-6.89h1V489a2.5,2.5,0,0,1,1.94-.84,2.37,2.37,0,0,1,1.76.65,2.53,2.53,0,0,1,.72,1.91v4.42ZM62.48,491H59.84v4.11H58.77v-10h3.71a2.94,2.94,0,1,1,0,5.87Zm-.08-4.91H59.84v4H62.4a2,2,0,1,0,0-4Zm9.37,9v-.77a2.53,2.53,0,0,1-2,.85,2.45,2.45,0,0,1-1.78-.64,2.59,2.59,0,0,1-.7-1.94v-4.39h1v4.24c0,1.22.64,1.83,1.68,1.83a1.63,1.63,0,0,0,1.72-1.83v-4.24h1v6.89Zm7.36-5.58a1.44,1.44,0,0,0-1.19-.5,1.68,1.68,0,0,0-1.65,1.85v4.23h-1v-6.89h1v.83a2.3,2.3,0,0,1,1.93-.92,2.12,2.12,0,0,1,1.65.65Zm5.74,5.58v-.83a2.22,2.22,0,0,1-2,.91,2.37,2.37,0,0,1-1.68-.6,5.53,5.53,0,0,1,0-5.86,2.37,2.37,0,0,1,1.68-.6,2.24,2.24,0,0,1,2,.88v-3.88h1v10Zm-1.74-6.08c-1.51,0-1.73,1.29-1.73,2.63s.22,2.63,1.73,2.63,1.73-1.28,1.73-2.63S84.63,489.06,83.13,489.06Zm7,7.74a2,2,0,0,1-.49.82,1.87,1.87,0,0,1-1.34.47h-.44v-.89h.31c.7,0,.91-.23,1.13-.86l.49-1.34-2.48-6.75h1.1l1.89,5.53,1.88-5.53h1.09Zm3.63.35V493.9H95v2.15Zm13.2-2-.8-2.26h-4.35l-.8,2.26H99.83l3.67-10h.9l3.65,10Zm-3-8.45L102.09,492h3.72Zm9.93,8.45v-4.25a1.6,1.6,0,0,0-1.69-1.83,1.62,1.62,0,0,0-1.71,1.83v4.25h-1v-6.89h1V489a2.48,2.48,0,0,1,1.93-.84,2.41,2.41,0,0,1,1.77.65,2.53,2.53,0,0,1,.71,1.91v4.42ZM118,492c0,1.51.7,2.38,2,2.38a2.23,2.23,0,0,0,1.8-.79l.69.61a3.17,3.17,0,0,1-2.52,1.06c-1.83,0-3-1.09-3-3.53,0-2.24,1.08-3.53,2.83-3.53s2.83,1.28,2.83,3.35V492Zm3.43-1.91a1.77,1.77,0,0,0-3.22,0,2.52,2.52,0,0,0-.21,1.15h3.65A2.8,2.8,0,0,0,121.41,490.05Zm5.53,5.17a3.74,3.74,0,0,1-2.83-1l.67-.68a2.85,2.85,0,0,0,2.14.8c1.15,0,1.84-.4,1.84-1.22,0-.61-.34-.93-1.15-1l-1.13-.09c-1.35-.11-2.06-.7-2.06-1.85s1-2,2.53-2a3.91,3.91,0,0,1,2.48.74l-.66.66a2.92,2.92,0,0,0-1.83-.54c-1,0-1.54.42-1.54,1.13s.37.92,1.23,1l1.08.1c1.2.11,2,.56,2,1.86S128.62,495.22,126.94,495.22Zm6.58-.08a1.69,1.69,0,0,1-1.77-1.85V489h-.87v-.77h.87v-2.12h1v2.12h1.47V489h-1.47v4.24c0,.63.3,1,.94,1h.53v.87Zm7.12,0v-4.26c0-1.22-.63-1.82-1.68-1.82a1.6,1.6,0,0,0-1.72,1.82v4.26h-1v-10h1V489a2.49,2.49,0,0,1,1.93-.84,2.33,2.33,0,0,1,2.48,2.55v4.43Zm4.09-3.18c0,1.51.7,2.38,2,2.38a2.27,2.27,0,0,0,1.81-.79l.68.61a3.16,3.16,0,0,1-2.52,1.06c-1.83,0-3-1.09-3-3.53,0-2.24,1.08-3.53,2.83-3.53s2.83,1.28,2.83,3.35V492Zm3.43-1.91a1.77,1.77,0,0,0-3.22,0,2.66,2.66,0,0,0-.21,1.15h3.66A3,3,0,0,0,148.16,490.05Zm5.53,5.17a3.74,3.74,0,0,1-2.83-1l.67-.68a2.87,2.87,0,0,0,2.15.8c1.15,0,1.83-.4,1.83-1.22,0-.61-.33-.93-1.15-1l-1.13-.09c-1.35-.11-2.06-.7-2.06-1.85s1.05-2,2.54-2a3.9,3.9,0,0,1,2.47.74l-.65.66a2.93,2.93,0,0,0-1.84-.54c-1,0-1.54.42-1.54,1.13s.38.92,1.23,1l1.08.1c1.21.11,2,.56,2,1.86S155.37,495.22,153.69,495.22Zm4.72-8.94v-1.13h1.13v1.13Zm.05,8.86v-6.89h1v6.89Zm8-.7a2.67,2.67,0,0,1-2,.78,2.63,2.63,0,0,1-2-.78,3.71,3.71,0,0,1-.84-2.75,3.67,3.67,0,0,1,.84-2.74,2.64,2.64,0,0,1,2-.79,2.68,2.68,0,0,1,2,.79,3.67,3.67,0,0,1,.84,2.74A3.71,3.71,0,0,1,166.42,494.44Zm-.72-4.88a1.74,1.74,0,0,0-1.26-.5,1.7,1.7,0,0,0-1.24.5,4.33,4.33,0,0,0,0,4.26,1.66,1.66,0,0,0,1.24.5,1.7,1.7,0,0,0,1.26-.5,4.4,4.4,0,0,0,0-4.26Zm5.43,5.58a1.65,1.65,0,0,1-1.75-1.84v-8.14h1v8.1c0,.67.23,1,.93,1h.54v.87Zm6.7-.7a2.67,2.67,0,0,1-2,.78,2.63,2.63,0,0,1-2-.78,3.71,3.71,0,0,1-.84-2.75,3.67,3.67,0,0,1,.84-2.74,2.64,2.64,0,0,1,2-.79,2.68,2.68,0,0,1,2,.79,3.67,3.67,0,0,1,.84,2.74A3.71,3.71,0,0,1,177.83,494.44Zm-.72-4.88a1.74,1.74,0,0,0-1.26-.5,1.7,1.7,0,0,0-1.24.5,4.33,4.33,0,0,0,0,4.26,1.66,1.66,0,0,0,1.24.5,1.7,1.7,0,0,0,1.26-.5,4.4,4.4,0,0,0,0-4.26ZM183,498.3a3,3,0,0,1-2.33-.92l.65-.65a2.14,2.14,0,0,0,1.66.69c1.33,0,1.89-.94,1.89-2.12v-1.07a2.23,2.23,0,0,1-1.94.89,2.36,2.36,0,0,1-1.66-.61,5.34,5.34,0,0,1,0-5.75,2.41,2.41,0,0,1,1.68-.6,2.16,2.16,0,0,1,1.93.9v-.81h1v7.1A2.74,2.74,0,0,1,183,498.3Zm.16-9.24c-1.5,0-1.72,1.29-1.72,2.57s.22,2.58,1.72,2.58,1.71-1.29,1.71-2.58S184.69,489.06,183.19,489.06Zm5.18-2.78v-1.13h1.13v1.13Zm0,8.86v-6.89h1v6.89Zm5.7.08a3.77,3.77,0,0,1-2.83-1l.68-.68a2.83,2.83,0,0,0,2.14.8c1.15,0,1.83-.4,1.83-1.22,0-.61-.33-.93-1.15-1l-1.13-.09c-1.34-.11-2.06-.7-2.06-1.85s1.05-2,2.54-2a3.93,3.93,0,0,1,2.48.74l-.66.66a2.93,2.93,0,0,0-1.84-.54c-1,0-1.54.42-1.54,1.13s.38.92,1.23,1l1.08.1c1.21.11,2,.56,2,1.86S195.8,495.22,194.12,495.22Zm6.57-.08a1.69,1.69,0,0,1-1.77-1.85V489h-.86v-.77h.86v-2.12h1v2.12h1.47V489h-1.47v4.24c0,.63.3,1,.94,1h.53v.87Zm7.43-6.12v6.12h-1V489h-.88v-.77h.88V487a1.68,1.68,0,0,1,1.75-1.84h.73V486h-.54c-.65,0-.93.38-.93,1v1.24h1.47V489Zm7,.54a1.44,1.44,0,0,0-1.19-.5,1.69,1.69,0,0,0-1.66,1.85v4.23h-1v-6.89h1v.83a2.34,2.34,0,0,1,1.94-.92,2.12,2.12,0,0,1,1.65.65Zm6.06,4.88a2.89,2.89,0,0,1-3.95,0,3.71,3.71,0,0,1-.84-2.75,3.67,3.67,0,0,1,.84-2.74,2.86,2.86,0,0,1,3.95,0,3.67,3.67,0,0,1,.84,2.74A3.71,3.71,0,0,1,221.2,494.44Zm-.72-4.88a1.74,1.74,0,0,0-1.26-.5,1.7,1.7,0,0,0-1.24.5,4.33,4.33,0,0,0,0,4.26,1.66,1.66,0,0,0,1.24.5,1.7,1.7,0,0,0,1.26-.5,4.4,4.4,0,0,0,0-4.26Zm12.57,5.58v-4.25a1.71,1.71,0,1,0-3.42-.11v4.36h-1v-4.25a1.6,1.6,0,0,0-1.7-1.83,1.63,1.63,0,0,0-1.72,1.83v4.25h-1v-6.89h1V489a2.52,2.52,0,0,1,2-.84,2.26,2.26,0,0,1,2.11,1.15,2.65,2.65,0,0,1,2.27-1.15,2.49,2.49,0,0,1,1.78.65,2.55,2.55,0,0,1,.74,1.91v4.42Zm13.15-1.05a3.32,3.32,0,0,1-2.62,1.05h-3.41v-10h3.41a3.32,3.32,0,0,1,2.62,1c.89,1,.89,2.41.89,3.94S247.09,493.13,246.2,494.09Zm-.84-7.25a2.48,2.48,0,0,0-2-.72h-2.17v8.06h2.17a2.48,2.48,0,0,0,2-.72c.65-.69.66-1.92.66-3.31S246,487.53,245.36,486.84ZM250,492c0,1.51.7,2.38,2,2.38a2.27,2.27,0,0,0,1.81-.79l.68.61a3.17,3.17,0,0,1-2.52,1.06c-1.83,0-3-1.09-3-3.53,0-2.24,1.08-3.53,2.83-3.53s2.83,1.28,2.83,3.35V492Zm3.43-1.91a1.77,1.77,0,0,0-3.22,0,2.52,2.52,0,0,0-.21,1.15h3.65A2.8,2.8,0,0,0,253.47,490.05Zm5.53,5.17a3.74,3.74,0,0,1-2.83-1l.67-.68a2.85,2.85,0,0,0,2.14.8c1.15,0,1.84-.4,1.84-1.22,0-.61-.34-.93-1.15-1l-1.13-.09c-1.35-.11-2.06-.7-2.06-1.85s1-2,2.53-2a3.91,3.91,0,0,1,2.48.74l-.66.66A2.92,2.92,0,0,0,259,489c-1,0-1.54.42-1.54,1.13s.38.92,1.23,1l1.08.1c1.2.11,2,.56,2,1.86S260.68,495.22,259,495.22Zm15.92-.08v-7.58l-2.73,6h-.91l-2.78-6v7.58h-1.06v-10h1.06l3.25,7.08,3.17-7.08H276v10Zm8.19-.7a2.67,2.67,0,0,1-2,.78,2.63,2.63,0,0,1-2-.78,3.71,3.71,0,0,1-.84-2.75,3.67,3.67,0,0,1,.84-2.74,2.64,2.64,0,0,1,2-.79,2.68,2.68,0,0,1,2,.79,3.67,3.67,0,0,1,.84,2.74A3.71,3.71,0,0,1,283.11,494.44Zm-.72-4.88a1.74,1.74,0,0,0-1.26-.5,1.7,1.7,0,0,0-1.24.5,4.26,4.26,0,0,0,0,4.26,1.66,1.66,0,0,0,1.24.5,1.7,1.7,0,0,0,1.26-.5,4.4,4.4,0,0,0,0-4.26Zm3.65-3.28v-1.13h1.14v1.13Zm.06,8.86v-6.89h1v6.89Zm7.94,0v-4.25a1.6,1.6,0,0,0-1.69-1.83,1.62,1.62,0,0,0-1.71,1.83v4.25h-1v-6.89h1V489a2.48,2.48,0,0,1,1.93-.84,2.37,2.37,0,0,1,1.76.65,2.53,2.53,0,0,1,.72,1.91v4.42Zm4.09-3.18c0,1.51.7,2.38,2,2.38a2.27,2.27,0,0,0,1.81-.79l.68.61a3.17,3.17,0,0,1-2.52,1.06c-1.83,0-3-1.09-3-3.53,0-2.24,1.08-3.53,2.83-3.53s2.83,1.28,2.83,3.35V492Zm3.43-1.91a1.77,1.77,0,0,0-3.22,0,2.52,2.52,0,0,0-.21,1.15h3.65A2.8,2.8,0,0,0,301.56,490.05Zm5.53,5.17a3.74,3.74,0,0,1-2.83-1l.67-.68a2.85,2.85,0,0,0,2.14.8c1.15,0,1.84-.4,1.84-1.22,0-.61-.34-.93-1.15-1l-1.13-.09c-1.35-.11-2.06-.7-2.06-1.85s1.05-2,2.53-2a3.91,3.91,0,0,1,2.48.74l-.66.66a2.92,2.92,0,0,0-1.83-.54c-1,0-1.54.42-1.54,1.13s.38.92,1.23,1l1.08.1c1.2.11,2,.56,2,1.86S308.77,495.22,307.09,495.22Zm4.74,1.93V493.9h1.23v2.15Zm7.39-2v-10h1.07v10Zm8.2-.7a2.67,2.67,0,0,1-2,.78,2.63,2.63,0,0,1-2-.78,3.71,3.71,0,0,1-.84-2.75,3.67,3.67,0,0,1,.84-2.74,2.64,2.64,0,0,1,2-.79,2.68,2.68,0,0,1,2,.79,3.67,3.67,0,0,1,.84,2.74A3.71,3.71,0,0,1,327.42,494.44Zm-.72-4.88a1.83,1.83,0,0,0-2.51,0,4.33,4.33,0,0,0,0,4.26,1.83,1.83,0,0,0,2.51,0,4.4,4.4,0,0,0,0-4.26Zm10.13,5.58h-.94l-1.81-5.35-1.79,5.35h-.94l-2.19-6.89h1.1l1.58,5.53,1.81-5.53h.86l1.83,5.53,1.56-5.53H339Zm7.43,0v-.66a3.18,3.18,0,0,1-3.94.11,1.93,1.93,0,0,1-.52-1.4c0-1.22.86-2,2.4-2h2.06v-.66c0-1-.49-1.51-1.77-1.51a1.82,1.82,0,0,0-1.73.8l-.69-.63a2.65,2.65,0,0,1,2.44-1c1.86,0,2.76.81,2.76,2.3v4.68Zm0-3.18h-1.92c-1,0-1.56.4-1.56,1.22s.49,1.17,1.6,1.17a2.06,2.06,0,0,0,1.53-.46,1.58,1.58,0,0,0,.35-1.19Z"/></g></g></g></svg>
