<svg xmlns="http://www.w3.org/2000/svg" viewBox="0 0 324 341.42"><defs><style>.cls-1{fill:#fff;}.cls-2{fill:#4559a8;}</style></defs><title>decontext</title><g id="Layer_2" data-name="Layer 2"><g id="Layer_1-2" data-name="Layer 1"><path class="cls-1" d="M25.62,14.36H19.86V.12H25.4c2.64,0,4.3,1.5,4.3,3.9a3.23,3.23,0,0,1-1.92,3,3.39,3.39,0,0,1,2.14,3.3C29.92,13,28.14,14.36,25.62,14.36Zm-.4-12.3H22V6.14h3.2c1.38,0,2.32-.72,2.32-2S26.6,2.06,25.22,2.06Zm.2,6H22v4.34h3.4a2.11,2.11,0,0,0,2.34-2.18A2.1,2.1,0,0,0,25.42,8.08Zm9,1.8c0,1.76.9,2.84,2.58,2.84a3,3,0,0,0,2.46-1l1.3,1.22a4.76,4.76,0,0,1-3.8,1.58c-2.54,0-4.56-1.34-4.56-5.2,0-3.3,1.7-5.18,4.3-5.18S41,6.06,41,9v.86Zm4.28-2.8a2.22,2.22,0,0,0-4,0,3.15,3.15,0,0,0-.26,1.38h4.56A3.45,3.45,0,0,0,38.66,7.08Zm8,7.28a2.64,2.64,0,0,1-2.78-2.82V5.78H42.74V4.22H43.9V1.32h2v2.9h2V5.78h-2v5.66a1,1,0,0,0,1.12,1.18h.84v1.74Zm13.74,0H58.68L56.3,7.28l-2.36,7.08H52.18L49,4.22H51.2l2,7.14,2.36-7.14H57.1l2.34,7.14,2-7.14h2.18Zm6.34-4.48c0,1.76.9,2.84,2.58,2.84a3,3,0,0,0,2.46-1l1.3,1.22a4.76,4.76,0,0,1-3.8,1.58c-2.54,0-4.56-1.34-4.56-5.2,0-3.3,1.7-5.18,4.3-5.18s4.3,2,4.3,4.92v.86ZM71,7.08a2.22,2.22,0,0,0-4,0,3.15,3.15,0,0,0-.26,1.38h4.56A3.45,3.45,0,0,0,71,7.08Zm6.5,2.8c0,1.76.9,2.84,2.58,2.84a3,3,0,0,0,2.46-1l1.3,1.22a4.76,4.76,0,0,1-3.8,1.58c-2.54,0-4.56-1.34-4.56-5.2,0-3.3,1.7-5.18,4.3-5.18s4.3,2,4.3,4.92v.86Zm4.28-2.8a2.22,2.22,0,0,0-4,0,3.15,3.15,0,0,0-.26,1.38H82.1A3.45,3.45,0,0,0,81.82,7.08ZM93,14.36V8.18a2,2,0,0,0-2-2.26,2,2,0,0,0-2.1,2.26v6.18h-2V4.22h2v1a3.63,3.63,0,0,1,2.7-1.14A3.52,3.52,0,0,1,94,5a3.72,3.72,0,0,1,1,2.86v6.48Zm16.8-2.14v2.14h-2V12.22h-5.76v-1.9l5-10.2h2.2l-5,10.2h3.54V7h2v3.32h1.52v1.9Zm7.54,2.26a3.92,3.92,0,0,1-4.1-4.08V4.08a4.11,4.11,0,0,1,8.22,0V10.4A3.93,3.93,0,0,1,117.34,14.48Zm2.08-10.34a2.08,2.08,0,1,0-4.14,0v6.2a2.08,2.08,0,1,0,4.14,0Zm12.7,10.22a2.64,2.64,0,0,1-2.78-2.82V5.78h-1.16V4.22h1.16V1.32h2v2.9h2V5.78h-2v5.66a1,1,0,0,0,1.12,1.18h.84v1.74Zm10.5-1.08a4.1,4.1,0,0,1-3,1.2,4.06,4.06,0,0,1-3-1.2c-1-1-1.2-2.28-1.2-4a5.32,5.32,0,0,1,1.2-4,4.06,4.06,0,0,1,3-1.2,4.1,4.1,0,0,1,3,1.2,5.32,5.32,0,0,1,1.2,4C143.82,11,143.58,12.28,142.62,13.28ZM141.08,6.5a2.07,2.07,0,0,0-1.5-.58,2,2,0,0,0-1.48.58,3.92,3.92,0,0,0-.7,2.78,3.92,3.92,0,0,0,.7,2.78,2,2,0,0,0,1.48.6,2.08,2.08,0,0,0,1.5-.6,3.92,3.92,0,0,0,.7-2.78A3.92,3.92,0,0,0,141.08,6.5Zm14,8a4,4,0,0,1-4.22-4.26,7.9,7.9,0,0,1,1.06-3.5l3.24-6.6h2.18L154.3,6.24A3.28,3.28,0,0,1,155.56,6a3.81,3.81,0,0,1,3.74,4.12A4.06,4.06,0,0,1,155.1,14.48Zm0-6.76a2.17,2.17,0,0,0-2.16,2.46,2.19,2.19,0,1,0,4.34,0A2.21,2.21,0,0,0,155.08,7.72Zm10.66,6.76a3.92,3.92,0,0,1-4.1-4.08V4.08a4.11,4.11,0,0,1,8.22,0V10.4A3.93,3.93,0,0,1,165.74,14.48Zm2.08-10.34a2.08,2.08,0,1,0-4.14,0v6.2a2.08,2.08,0,1,0,4.14,0Zm15.5,10.22V13.28a3.12,3.12,0,0,1-2.68,1.2,3.51,3.51,0,0,1-2.48-.9c-1-1-1.14-2.62-1.14-4.3S177.18,6,178.16,5a3.46,3.46,0,0,1,2.46-.9,3.14,3.14,0,0,1,2.66,1.14V.12h2V14.36Zm-2.14-8.44c-1.86,0-2.12,1.56-2.12,3.36s.26,3.38,2.12,3.38,2.1-1.58,2.1-3.38S183,5.92,181.18,5.92Zm8.88,4c0,1.76.9,2.84,2.58,2.84a3,3,0,0,0,2.46-1l1.3,1.22a4.76,4.76,0,0,1-3.8,1.58c-2.54,0-4.56-1.34-4.56-5.2,0-3.3,1.7-5.18,4.3-5.18s4.3,2,4.3,4.92v.86Zm4.28-2.8a2.22,2.22,0,0,0-4,0,3.15,3.15,0,0,0-.26,1.38h4.56A3.45,3.45,0,0,0,194.34,7.08Zm8,7.28a2.64,2.64,0,0,1-2.78-2.82V5.78h-1.16V4.22h1.16V1.32h2v2.9h2V5.78h-2v5.66a1,1,0,0,0,1.12,1.18h.84v1.74Zm9.2,0v-.92a3.34,3.34,0,0,1-2.7,1,3.58,3.58,0,0,1-2.72-.92,3.11,3.11,0,0,1-.8-2.18c0-1.7,1.18-2.92,3.52-2.92h2.66V7.74c0-1.3-.62-1.9-2.22-1.9a2.45,2.45,0,0,0-2.22,1l-1.32-1.26a4.09,4.09,0,0,1,3.62-1.48c2.8,0,4.18,1.2,4.18,3.48v6.78Zm0-4.48h-2.34c-1.24,0-1.86.52-1.86,1.46s.58,1.44,1.92,1.44a2.44,2.44,0,0,0,1.84-.58,2,2,0,0,0,.44-1.5Zm8.46,4.6A5.58,5.58,0,0,1,215.72,13l1.34-1.34A3.94,3.94,0,0,0,220,12.74c1.26,0,2.22-.44,2.22-1.4,0-.7-.38-1.1-1.36-1.2L219.22,10c-1.92-.18-3-1-3-2.8,0-2,1.7-3.1,3.82-3.1a5.53,5.53,0,0,1,3.76,1.14l-1.28,1.3A3.83,3.83,0,0,0,220,5.8c-1.24,0-1.84.52-1.84,1.3s.4,1.06,1.4,1.16l1.42.12c2.1.18,3.2,1.1,3.2,2.88C224.2,13.38,222.4,14.48,220,14.48Zm9.88,0A5.58,5.58,0,0,1,225.6,13l1.34-1.34a3.94,3.94,0,0,0,2.92,1.06c1.26,0,2.22-.44,2.22-1.4,0-.7-.38-1.1-1.36-1.2L229.1,10c-1.92-.18-3-1-3-2.8,0-2,1.7-3.1,3.82-3.1a5.53,5.53,0,0,1,3.76,1.14l-1.28,1.3a3.83,3.83,0,0,0-2.5-.74c-1.24,0-1.84.52-1.84,1.3s.4,1.06,1.4,1.16l1.42.12c2.1.18,3.2,1.1,3.2,2.88C234.08,13.38,232.28,14.48,229.86,14.48Zm9.42-.12a2.58,2.58,0,0,1-2.78-2.8V.12h2V11.44c0,.78.28,1.18,1.1,1.18h.9v1.74Zm4.82-4.48c0,1.76.9,2.84,2.58,2.84a3,3,0,0,0,2.46-1l1.3,1.22a4.76,4.76,0,0,1-3.8,1.58c-2.54,0-4.56-1.34-4.56-5.2,0-3.3,1.7-5.18,4.3-5.18s4.3,2,4.3,4.92v.86Zm4.28-2.8a2.22,2.22,0,0,0-4,0,3.15,3.15,0,0,0-.26,1.38h4.56A3.45,3.45,0,0,0,248.38,7.08ZM259,6.6a1.88,1.88,0,0,0-1.52-.68,2.09,2.09,0,0,0-2,2.28v6.16h-2V4.22h2v1.1a3.37,3.37,0,0,1,2.7-1.22,3.14,3.14,0,0,1,2.42,1Zm6.28,7.88A5.58,5.58,0,0,1,261,13l1.34-1.34a3.94,3.94,0,0,0,2.92,1.06c1.26,0,2.22-.44,2.22-1.4,0-.7-.38-1.1-1.36-1.2L264.48,10c-1.92-.18-3-1-3-2.8,0-2,1.7-3.1,3.82-3.1a5.53,5.53,0,0,1,3.76,1.14l-1.28,1.3a3.83,3.83,0,0,0-2.5-.74c-1.24,0-1.84.52-1.84,1.3s.4,1.06,1.4,1.16l1.42.12c2.1.18,3.2,1.1,3.2,2.88C269.46,13.38,267.66,14.48,265.24,14.48Zm17-.12v-.92a3.34,3.34,0,0,1-2.7,1,3.58,3.58,0,0,1-2.72-.92,3.11,3.11,0,0,1-.8-2.18c0-1.7,1.18-2.92,3.52-2.92h2.66V7.74c0-1.3-.62-1.9-2.22-1.9a2.45,2.45,0,0,0-2.22,1L276.4,5.58A4.09,4.09,0,0,1,280,4.1c2.8,0,4.18,1.2,4.18,3.48v6.78Zm0-4.48h-2.34c-1.24,0-1.86.52-1.86,1.46s.58,1.44,1.92,1.44a2.44,2.44,0,0,0,1.84-.58,2,2,0,0,0,.44-1.5ZM292.92,6.6a1.88,1.88,0,0,0-1.52-.68,2.09,2.09,0,0,0-2,2.28v6.16h-2.05V4.22h2v1.1A3.37,3.37,0,0,1,292,4.1a3.14,3.14,0,0,1,2.42,1ZM297,9.88c0,1.76.9,2.84,2.58,2.84a3,3,0,0,0,2.46-1l1.3,1.22a4.76,4.76,0,0,1-3.8,1.58c-2.54,0-4.56-1.34-4.56-5.2,0-3.3,1.7-5.18,4.3-5.18s4.3,2,4.3,4.92v.86Zm4.28-2.8a2.22,2.22,0,0,0-4,0A3.15,3.15,0,0,0,297,8.46h4.56A3.45,3.45,0,0,0,301.32,7.08ZM22.9,36.48A5.58,5.58,0,0,1,18.64,35L20,33.68a3.94,3.94,0,0,0,2.92,1.06c1.26,0,2.22-.44,2.22-1.4,0-.7-.38-1.1-1.36-1.2L22.14,32c-1.92-.18-3-1-3-2.8,0-2,1.7-3.1,3.82-3.1a5.53,5.53,0,0,1,3.76,1.14l-1.28,1.3a3.83,3.83,0,0,0-2.5-.74c-1.24,0-1.84.52-1.84,1.3s.4,1.06,1.4,1.16l1.42.12c2.1.18,3.2,1.1,3.2,2.88C27.12,35.38,25.32,36.48,22.9,36.48Zm13.86-.9a3.42,3.42,0,0,1-2.46.9,3.1,3.1,0,0,1-2.66-1.16v5.14h-2V26.22h2V27.3a3.14,3.14,0,0,1,2.68-1.2,3.47,3.47,0,0,1,2.48.9c1,1,1.14,2.62,1.14,4.28S37.74,34.58,36.76,35.58Zm-3-7.66c-1.86,0-2.12,1.56-2.12,3.36s.26,3.38,2.12,3.38,2.1-1.58,2.1-3.38S35.6,27.92,33.76,27.92Zm12.48.68a1.88,1.88,0,0,0-1.52-.68,2.09,2.09,0,0,0-2,2.28v6.16h-2V26.22h2v1.1a3.37,3.37,0,0,1,2.7-1.22,3.14,3.14,0,0,1,2.42,1Zm8.46,7.76v-.92a3.34,3.34,0,0,1-2.7,1,3.58,3.58,0,0,1-2.72-.92,3.11,3.11,0,0,1-.8-2.18c0-1.7,1.18-2.92,3.52-2.92h2.66v-.72c0-1.3-.62-1.9-2.22-1.9a2.45,2.45,0,0,0-2.22,1L48.9,27.58a4.09,4.09,0,0,1,3.62-1.48c2.8,0,4.18,1.2,4.18,3.48v6.78Zm0-4.48H52.32c-1.24,0-1.86.52-1.86,1.46s.58,1.44,1.92,1.44a2.44,2.44,0,0,0,1.84-.58,2,2,0,0,0,.44-1.5Zm8.28,6.5a3.28,3.28,0,0,1-.74,1.26,2.81,2.81,0,0,1-2.08.74H59.3V38.54h.52c.86,0,1.16-.26,1.46-1.08l.56-1.58L58.3,26.22h2.16l2.42,7.14,2.36-7.14h2.18Zm7.5-6.5c0,1.76.9,2.84,2.58,2.84a3,3,0,0,0,2.46-1l1.3,1.22A4.76,4.76,0,0,1,73,36.48c-2.54,0-4.56-1.34-4.56-5.2,0-3.3,1.7-5.18,4.3-5.18S77,28.06,77,31v.86Zm4.28-2.8a2.22,2.22,0,0,0-4,0,3.15,3.15,0,0,0-.26,1.38H75A3.45,3.45,0,0,0,74.72,29.08Zm10.82,7.28V35.28a3.12,3.12,0,0,1-2.68,1.2,3.51,3.51,0,0,1-2.48-.9c-1-1-1.14-2.62-1.14-4.3S79.4,28,80.38,27a3.46,3.46,0,0,1,2.46-.9,3.14,3.14,0,0,1,2.66,1.14V22.12h2V36.36ZM83.4,27.92c-1.86,0-2.12,1.56-2.12,3.36s.26,3.38,2.12,3.38,2.1-1.58,2.1-3.38S85.24,27.92,83.4,27.92Zm19.34,7.66a3.51,3.51,0,0,1-2.48.9,3.14,3.14,0,0,1-2.68-1.2v1.08h-2V22.12h2v5.12a3.14,3.14,0,0,1,2.66-1.14,3.46,3.46,0,0,1,2.46.9c1,1,1.14,2.62,1.14,4.28S103.72,34.58,102.74,35.58Zm-3-7.66c-1.86,0-2.12,1.56-2.12,3.36s.26,3.38,2.12,3.38,2.1-1.58,2.1-3.38S101.58,27.92,99.74,27.92Zm10.08,10.46a3.28,3.28,0,0,1-.74,1.26,2.81,2.81,0,0,1-2.08.74h-.82V38.54h.52c.86,0,1.16-.26,1.46-1.08l.56-1.58-3.54-9.66h2.16l2.42,7.14,2.36-7.14h2.18ZM128,35.58a3.42,3.42,0,0,1-2.46.9,3.1,3.1,0,0,1-2.66-1.16v5.14h-2V26.22h2V27.3a3.14,3.14,0,0,1,2.68-1.2A3.47,3.47,0,0,1,128,27c1,1,1.14,2.62,1.14,4.28S128.94,34.58,128,35.58Zm-3-7.66c-1.86,0-2.12,1.56-2.12,3.36s.26,3.38,2.12,3.38,2.1-1.58,2.1-3.38S126.8,27.92,125,27.92Zm8.4,4c0,1.76.9,2.84,2.58,2.84a3,3,0,0,0,2.46-1l1.3,1.22a4.76,4.76,0,0,1-3.8,1.58c-2.54,0-4.56-1.34-4.56-5.2,0-3.3,1.7-5.18,4.3-5.18s4.3,2,4.3,4.92v.86Zm4.28-2.8a2.22,2.22,0,0,0-4,0,3.15,3.15,0,0,0-.26,1.38h4.56A3.45,3.45,0,0,0,137.64,29.08Zm8.28,7.4A5.58,5.58,0,0,1,141.66,35L143,33.68a3.94,3.94,0,0,0,2.92,1.06c1.26,0,2.22-.44,2.22-1.4,0-.7-.38-1.1-1.36-1.2L145.16,32c-1.92-.18-3-1-3-2.8,0-2,1.7-3.1,3.82-3.1a5.53,5.53,0,0,1,3.76,1.14l-1.28,1.3a3.83,3.83,0,0,0-2.5-.74c-1.24,0-1.84.52-1.84,1.3s.4,1.06,1.4,1.16l1.42.12c2.1.18,3.2,1.1,3.2,2.88C150.14,35.38,148.34,36.48,145.92,36.48Zm9.52-.12a2.64,2.64,0,0,1-2.78-2.82V27.78H151.5V26.22h1.16v-2.9h2v2.9h2v1.56h-2v5.66a1,1,0,0,0,1.12,1.18h.84v1.74Zm3.76-12.14V22.06h2.16v2.16Zm.06,12.14V26.22h2V36.36Zm9.28.12c-2.28,0-4.52-1.4-4.52-5.2s2.24-5.18,4.52-5.18a4.16,4.16,0,0,1,3.34,1.42l-1.4,1.36a2.36,2.36,0,0,0-1.94-1,2.29,2.29,0,0,0-1.88.9,3.75,3.75,0,0,0-.6,2.46,3.81,3.81,0,0,0,.6,2.48,2.29,2.29,0,0,0,1.88.9,2.36,2.36,0,0,0,1.94-1l1.4,1.34A4.18,4.18,0,0,1,168.54,36.48Zm5.64-12.26V22.06h2.16v2.16Zm.06,12.14V26.22h2V36.36Zm11.1,0V35.28a3.12,3.12,0,0,1-2.68,1.2,3.51,3.51,0,0,1-2.48-.9c-1-1-1.14-2.62-1.14-4.3S179.2,28,180.18,27a3.46,3.46,0,0,1,2.46-.9,3.14,3.14,0,0,1,2.66,1.14V22.12h2V36.36Zm-2.14-8.44c-1.86,0-2.12,1.56-2.12,3.36s.26,3.38,2.12,3.38,2.1-1.58,2.1-3.38S185,27.92,183.2,27.92Zm8.88,4c0,1.76.9,2.84,2.58,2.84a3,3,0,0,0,2.46-1l1.3,1.22a4.76,4.76,0,0,1-3.8,1.58c-2.54,0-4.56-1.34-4.56-5.2,0-3.3,1.7-5.18,4.3-5.18s4.3,2,4.3,4.92v.86Zm4.28-2.8a2.22,2.22,0,0,0-4,0,3.15,3.15,0,0,0-.26,1.38h4.56A3.45,3.45,0,0,0,196.36,29.08Zm13.8,7.4c-2.28,0-4.52-1.4-4.52-5.2s2.24-5.18,4.52-5.18a4.16,4.16,0,0,1,3.34,1.42l-1.4,1.36a2.36,2.36,0,0,0-1.94-1,2.29,2.29,0,0,0-1.88.9,3.75,3.75,0,0,0-.6,2.46,3.81,3.81,0,0,0,.6,2.48,2.29,2.29,0,0,0,1.88.9,2.36,2.36,0,0,0,1.94-1L213.5,35A4.18,4.18,0,0,1,210.16,36.48Zm11.28-7.88a1.88,1.88,0,0,0-1.52-.68,2.09,2.09,0,0,0-2,2.28v6.16h-2V26.22h2v1.1a3.37,3.37,0,0,1,2.7-1.22,3.14,3.14,0,0,1,2.42,1Zm9.38,6.68a4.1,4.1,0,0,1-3,1.2,4.06,4.06,0,0,1-3-1.2c-1-1-1.2-2.28-1.2-4a5.32,5.32,0,0,1,1.2-4,4.06,4.06,0,0,1,3-1.2,4.1,4.1,0,0,1,3,1.2,5.32,5.32,0,0,1,1.2,4C232,33,231.78,34.28,230.82,35.28Zm-1.54-6.78a2.07,2.07,0,0,0-1.5-.58,2,2,0,0,0-1.48.58,3.92,3.92,0,0,0-.7,2.78,3.92,3.92,0,0,0,.7,2.78,2,2,0,0,0,1.48.6,2.08,2.08,0,0,0,1.5-.6,3.92,3.92,0,0,0,.7-2.78A3.92,3.92,0,0,0,229.28,28.5Zm12.66,7.08a3.42,3.42,0,0,1-2.46.9,3.1,3.1,0,0,1-2.66-1.16v5.14h-2V26.22h2V27.3a3.14,3.14,0,0,1,2.68-1.2,3.47,3.47,0,0,1,2.48.9c1,1,1.14,2.62,1.14,4.28S242.92,34.58,241.94,35.58Zm-3-7.66c-1.86,0-2.12,1.56-2.12,3.36s.26,3.38,2.12,3.38,2.1-1.58,2.1-3.38S240.78,27.92,238.94,27.92Zm18.86,7.66a3.42,3.42,0,0,1-2.46.9,3.1,3.1,0,0,1-2.66-1.16v5.14h-2V26.22h2V27.3a3.14,3.14,0,0,1,2.68-1.2,3.47,3.47,0,0,1,2.48.9c1,1,1.14,2.62,1.14,4.28S258.78,34.58,257.8,35.58Zm-3-7.66c-1.86,0-2.12,1.56-2.12,3.36s.26,3.38,2.12,3.38,2.1-1.58,2.1-3.38S256.64,27.92,254.8,27.92Zm9.62,8.44a2.58,2.58,0,0,1-2.78-2.8V22.12h2V33.44c0,.78.28,1.18,1.1,1.18h.9v1.74Zm9,0v-.92a3.34,3.34,0,0,1-2.7,1,3.58,3.58,0,0,1-2.72-.92,3.11,3.11,0,0,1-.8-2.18c0-1.7,1.18-2.92,3.52-2.92h2.66v-.72c0-1.3-.62-1.9-2.22-1.9a2.45,2.45,0,0,0-2.22,1l-1.32-1.26a4.09,4.09,0,0,1,3.62-1.48c2.8,0,4.18,1.2,4.18,3.48v6.78Zm0-4.48H271c-1.24,0-1.86.52-1.86,1.46s.58,1.44,1.92,1.44a2.44,2.44,0,0,0,1.84-.58,2,2,0,0,0,.44-1.5Zm11.36,4.48V30.18a2,2,0,0,0-2-2.26,2,2,0,0,0-2.1,2.26v6.18h-2V26.22h2v1a3.63,3.63,0,0,1,2.7-1.14,3.52,3.52,0,0,1,2.5.92,3.72,3.72,0,0,1,1,2.86v6.48Zm6.68-4.48c0,1.76.9,2.84,2.58,2.84a3,3,0,0,0,2.46-1l1.3,1.22a4.76,4.76,0,0,1-3.8,1.58c-2.54,0-4.57-1.34-4.57-5.2,0-3.3,1.71-5.18,4.31-5.18s4.3,2,4.3,4.92v.86Zm4.28-2.8a2.22,2.22,0,0,0-4,0,3.15,3.15,0,0,0-.26,1.38h4.56A3.45,3.45,0,0,0,295.66,29.08Zm8.28,7.4A5.6,5.6,0,0,1,299.67,35L301,33.68a3.94,3.94,0,0,0,2.92,1.06c1.26,0,2.22-.44,2.22-1.4,0-.7-.38-1.1-1.36-1.2L303.18,32c-1.92-.18-3-1-3-2.8,0-2,1.71-3.1,3.83-3.1a5.53,5.53,0,0,1,3.76,1.14l-1.28,1.3a3.83,3.83,0,0,0-2.5-.74c-1.24,0-1.84.52-1.84,1.3s.4,1.06,1.4,1.16l1.42.12c2.1.18,3.2,1.1,3.2,2.88C308.16,35.38,306.36,36.48,303.94,36.48ZM19.56,46.22V44.06h2.16v2.16Zm.06,12.14V48.22h2V58.36Zm11.46,0V52.18a2,2,0,0,0-2-2.26,2,2,0,0,0-2.1,2.26v6.18h-2V48.22h2v1a3.63,3.63,0,0,1,2.7-1.14,3.52,3.52,0,0,1,2.5.92,3.72,3.72,0,0,1,1,2.86v6.48Zm10.22,0V44.12h2.16V58.36Zm12.42-1.08a4.1,4.1,0,0,1-3,1.2,4.06,4.06,0,0,1-3-1.2c-1-1-1.2-2.28-1.2-4a5.32,5.32,0,0,1,1.2-4,4.06,4.06,0,0,1,3-1.2,4.1,4.1,0,0,1,3,1.2,5.32,5.32,0,0,1,1.2,4C54.92,55,54.68,56.28,53.72,57.28ZM52.18,50.5a2.07,2.07,0,0,0-1.5-.58,2,2,0,0,0-1.48.58,3.92,3.92,0,0,0-.7,2.78,3.92,3.92,0,0,0,.7,2.78,2,2,0,0,0,1.48.6,2.08,2.08,0,0,0,1.5-.6,3.92,3.92,0,0,0,.7-2.78A3.92,3.92,0,0,0,52.18,50.5Zm15.34,7.86H65.78L63.4,51.28,61,58.36H59.28L56.14,48.22H58.3l2,7.14,2.36-7.14H64.2l2.34,7.14,2-7.14h2.18Zm10.3,0v-.92a3.34,3.34,0,0,1-2.7,1,3.58,3.58,0,0,1-2.72-.92,3.11,3.11,0,0,1-.8-2.18c0-1.7,1.18-2.92,3.52-2.92h2.66v-.72c0-1.3-.62-1.9-2.22-1.9a2.45,2.45,0,0,0-2.22,1L72,49.58a4.09,4.09,0,0,1,3.62-1.48c2.8,0,4.18,1.2,4.18,3.48v6.78Zm0-4.48H75.44c-1.24,0-1.86.52-1.86,1.46s.58,1.44,1.92,1.44a2.44,2.44,0,0,0,1.84-.58,2,2,0,0,0,.44-1.5ZM88,58.36V44.12h9.1v1.94H90.16v4.16h5.92v1.92H90.16v4.28H97.1v1.94Zm15.74,0h-1.66L98.36,48.22h2.16l2.4,7.14,2.38-7.14h2.16Zm6.8-4.48c0,1.76.9,2.84,2.58,2.84a3,3,0,0,0,2.46-1l1.3,1.22a4.76,4.76,0,0,1-3.8,1.58c-2.54,0-4.56-1.34-4.56-5.2,0-3.3,1.7-5.18,4.3-5.18s4.3,2,4.3,4.92v.86Zm4.28-2.8a2.22,2.22,0,0,0-4,0,3.15,3.15,0,0,0-.26,1.38h4.56A3.45,3.45,0,0,0,114.82,51.08Zm10.58-.48a1.88,1.88,0,0,0-1.52-.68,2.09,2.09,0,0,0-2,2.28v6.16h-2V48.22h2v1.1a3.37,3.37,0,0,1,2.7-1.22,3.14,3.14,0,0,1,2.42,1Zm6.38,9.78a3.28,3.28,0,0,1-.74,1.26,2.81,2.81,0,0,1-2.08.74h-.82V60.54h.52c.86,0,1.16-.26,1.46-1.08l.56-1.58-3.54-9.66h2.16l2.42,7.14,2.36-7.14h2.18Zm14.16,0a3.28,3.28,0,0,1-.74,1.26,2.81,2.81,0,0,1-2.08.74h-.82V60.54h.52c.86,0,1.16-.26,1.46-1.08l.56-1.58-3.54-9.66h2.16l2.42,7.14,2.36-7.14h2.18Zm7.48-6.5c0,1.76.9,2.84,2.58,2.84a3,3,0,0,0,2.46-1l1.3,1.22a4.76,4.76,0,0,1-3.8,1.58c-2.54,0-4.56-1.34-4.56-5.2,0-3.3,1.7-5.18,4.3-5.18s4.3,2,4.3,4.92v.86Zm4.28-2.8a2.22,2.22,0,0,0-4,0,3.15,3.15,0,0,0-.26,1.38H158A3.45,3.45,0,0,0,157.7,51.08Zm10.46,7.28v-.92a3.34,3.34,0,0,1-2.7,1,3.58,3.58,0,0,1-2.72-.92,3.11,3.11,0,0,1-.8-2.18c0-1.7,1.18-2.92,3.52-2.92h2.66v-.72c0-1.3-.62-1.9-2.22-1.9a2.45,2.45,0,0,0-2.22,1l-1.32-1.26A4.09,4.09,0,0,1,166,48.1c2.8,0,4.18,1.2,4.18,3.48v6.78Zm0-4.48h-2.34c-1.24,0-1.86.52-1.86,1.46s.58,1.44,1.92,1.44a2.44,2.44,0,0,0,1.84-.58,2,2,0,0,0,.44-1.5Zm10.76-3.28a1.88,1.88,0,0,0-1.52-.68,2.09,2.09,0,0,0-2,2.28v6.16h-2V48.22h2v1.1A3.37,3.37,0,0,1,178,48.1a3.14,3.14,0,0,1,2.42,1ZM19.06,83.06v-1H29.74v1Zm22.48,3.3-.8-2.25H36.38l-.8,2.25H34.45l3.67-10H39l3.65,10Zm-3-8.44-1.87,5.26h3.72Zm9.93,8.44V82.12a1.71,1.71,0,1,0-3.41,0v4.24h-1V79.47h1v.76A2.5,2.5,0,0,1,47,79.39,2.41,2.41,0,0,1,48.8,80,2.56,2.56,0,0,1,49.52,82v4.41Zm5.67,3.17a3,3,0,0,1-2.34-.93L52.5,88a2.1,2.1,0,0,0,1.65.69c1.33,0,1.89-.94,1.89-2.12V85.45a2.21,2.21,0,0,1-1.93.9,2.35,2.35,0,0,1-1.67-.62,5.32,5.32,0,0,1,0-5.74,2.41,2.41,0,0,1,1.68-.6,2.18,2.18,0,0,1,1.93.89v-.81h1v7.1A2.75,2.75,0,0,1,54.18,89.53Zm.15-9.25c-1.5,0-1.72,1.29-1.72,2.58s.22,2.58,1.72,2.58S56,84.15,56,82.86,55.83,80.28,54.33,80.28Zm5.18-2.77V76.38h1.14v1.13Zm.06,8.85V79.47h1v6.89Zm4.15-3.18c0,1.52.7,2.38,2,2.38a2.24,2.24,0,0,0,1.8-.78l.69.6a3.18,3.18,0,0,1-2.52,1.07c-1.84,0-3-1.1-3-3.53,0-2.24,1.07-3.53,2.83-3.53s2.83,1.27,2.83,3.35v.44Zm3.44-1.9a1.77,1.77,0,0,0-3.23,0,2.78,2.78,0,0,0-.21,1.15h3.66A2.93,2.93,0,0,0,67.16,81.28Zm8.18,5.17a3,3,0,0,1-2.28-.9l.72-.71a1.94,1.94,0,0,0,1.56.66c1.31,0,2-.83,2-2.3V76.39h1.06v7A2.93,2.93,0,0,1,75.34,86.45Zm6.3-3.27c0,1.52.7,2.38,2,2.38a2.24,2.24,0,0,0,1.8-.78l.69.6a3.18,3.18,0,0,1-2.52,1.07c-1.84,0-3-1.1-3-3.53,0-2.24,1.07-3.53,2.83-3.53s2.82,1.27,2.82,3.35v.44Zm3.44-1.9a1.77,1.77,0,0,0-3.23,0,2.78,2.78,0,0,0-.21,1.15H85.3A2.93,2.93,0,0,0,85.08,81.28Zm9.84,5.08H94L92.17,81l-1.79,5.35h-.94l-2.18-6.89h1.09L89.93,85l1.81-5.54h.87L94.43,85,96,79.47h1.09ZM99,83.18c0,1.52.7,2.38,2,2.38a2.26,2.26,0,0,0,1.81-.78l.68.6A3.17,3.17,0,0,1,101,86.45c-1.83,0-3-1.1-3-3.53,0-2.24,1.08-3.53,2.83-3.53s2.83,1.27,2.83,3.35v.44Zm3.43-1.9a1.77,1.77,0,0,0-3.22,0A2.62,2.62,0,0,0,99,82.43h3.66A2.92,2.92,0,0,0,102.42,81.28Zm5.29,5.08A1.68,1.68,0,0,1,106,84.52V80.24h-.87v-.77H106V77.36h1v2.11h1.47v.77H107v4.25c0,.63.29,1,.94,1h.53v.86Zm4.65,0a1.68,1.68,0,0,1-1.76-1.84V80.24h-.87v-.77h.87V77.36h1v2.11h1.48v.77H111.6v4.25c0,.63.3,1,.94,1h.54v.86Zm2.69,2V85.13h1.23v2.14Zm7.39-2v-10h1.06v10Zm8.19-.7a2.64,2.64,0,0,1-2,.79,2.68,2.68,0,0,1-2-.79,4.91,4.91,0,0,1,0-5.49,2.67,2.67,0,0,1,2-.78,2.63,2.63,0,0,1,2,.78,4.91,4.91,0,0,1,0,5.49Zm-.71-4.87a1.73,1.73,0,0,0-1.26-.51,1.71,1.71,0,0,0-1.25.51,3,3,0,0,0-.56,2.13,3,3,0,0,0,.56,2.13,1.74,1.74,0,0,0,1.25.5,1.76,1.76,0,0,0,1.26-.5,3,3,0,0,0,.54-2.13A3,3,0,0,0,129.92,80.79ZM140,86.36h-.94L137.3,81l-1.8,5.35h-.94l-2.18-6.89h1.09L135.05,85l1.81-5.54h.87L139.55,85l1.57-5.54h1.09Zm7.42,0v-.65a3.18,3.18,0,0,1-3.94.11,1.94,1.94,0,0,1-.52-1.4c0-1.22.86-2,2.4-2h2.06v-.66c0-1-.49-1.51-1.77-1.51a1.83,1.83,0,0,0-1.73.8l-.69-.64a2.66,2.66,0,0,1,2.44-1c1.86,0,2.76.81,2.76,2.3v4.67Zm0-3.18h-1.92c-1,0-1.55.41-1.55,1.22s.49,1.18,1.59,1.18a2.1,2.1,0,0,0,1.53-.46,1.6,1.6,0,0,0,.35-1.19Zm9.69,3.27a4.33,4.33,0,0,1-3.41-1.32l.72-.71a3.41,3.41,0,0,0,2.71,1.08c1.48,0,2.37-.68,2.37-1.85a1.55,1.55,0,0,0-.49-1.25,2.14,2.14,0,0,0-1.3-.49l-1.16-.17a3.43,3.43,0,0,1-1.82-.76,2.34,2.34,0,0,1-.78-1.87c0-1.7,1.22-2.8,3.2-2.8a4.06,4.06,0,0,1,3,1.09l-.69.69a3.07,3.07,0,0,0-2.32-.87c-1.35,0-2.12.74-2.12,1.86a1.45,1.45,0,0,0,.45,1.16,2.61,2.61,0,0,0,1.3.52l1.16.18a3,3,0,0,1,1.81.72,2.51,2.51,0,0,1,.84,2C160.59,85.37,159.23,86.45,157.15,86.45Zm7.42-.09a1.69,1.69,0,0,1-1.77-1.84V80.24h-.87v-.77h.87V77.36h1v2.11h1.47v.77h-1.47v4.25c0,.63.29,1,.94,1h.53v.86Zm6.56,0v-.65a3.17,3.17,0,0,1-3.93.11,1.94,1.94,0,0,1-.52-1.4c0-1.22.85-2,2.39-2h2.06v-.66c0-1-.49-1.51-1.76-1.51a1.84,1.84,0,0,0-1.74.8l-.69-.64a2.68,2.68,0,0,1,2.44-1c1.86,0,2.76.81,2.76,2.3v4.67Zm0-3.18h-1.92c-1,0-1.55.41-1.55,1.22s.49,1.18,1.6,1.18a2.09,2.09,0,0,0,1.52-.46,1.6,1.6,0,0,0,.35-1.19Zm5.39,3.18a1.68,1.68,0,0,1-1.76-1.84V80.24h-.87v-.77h.87V77.36h1v2.11h1.47v.77h-1.47v4.25c0,.63.29,1,.93,1h.54v.86Zm3.29-3.18c0,1.52.7,2.38,2,2.38a2.26,2.26,0,0,0,1.81-.78l.68.6a3.17,3.17,0,0,1-2.52,1.07c-1.83,0-3-1.1-3-3.53,0-2.24,1.08-3.53,2.83-3.53s2.83,1.27,2.83,3.35v.44Zm3.43-1.9a1.77,1.77,0,0,0-3.22,0,2.62,2.62,0,0,0-.21,1.15h3.66A2.92,2.92,0,0,0,183.24,81.28Zm10.36,5.17a3.29,3.29,0,0,1-3.47-3.38V76.39h1.06V83A2.42,2.42,0,1,0,196,83v-6.6h1.06v6.68A3.31,3.31,0,0,1,193.6,86.45Zm10.46-.09V82.12a1.71,1.71,0,1,0-3.4,0v4.24h-1V79.47h1v.76a2.48,2.48,0,0,1,1.93-.84,2.41,2.41,0,0,1,1.76.64,2.52,2.52,0,0,1,.72,1.92v4.41Zm3.4-8.85V76.38h1.13v1.13Zm.06,8.85V79.47h1v6.89Zm5.83,0h-.89l-2.52-6.89H211L212.91,85l1.89-5.54h1.09Zm4.46-3.18c0,1.52.7,2.38,2,2.38a2.22,2.22,0,0,0,1.8-.78l.69.6a3.18,3.18,0,0,1-2.52,1.07c-1.84,0-3-1.1-3-3.53,0-2.24,1.08-3.53,2.83-3.53s2.83,1.27,2.83,3.35v.44Zm3.43-1.9a1.77,1.77,0,0,0-3.22,0,2.49,2.49,0,0,0-.21,1.15h3.65A2.76,2.76,0,0,0,221.24,81.28Zm7.21-.49a1.44,1.44,0,0,0-1.19-.51,1.69,1.69,0,0,0-1.66,1.85v4.23h-1V79.47h1v.84a2.34,2.34,0,0,1,1.94-.92,2.11,2.11,0,0,1,1.65.64Zm4.08,5.66a3.74,3.74,0,0,1-2.82-1l.67-.67a2.85,2.85,0,0,0,2.14.8c1.15,0,1.84-.41,1.84-1.22,0-.62-.34-.94-1.15-1l-1.14-.1c-1.34-.11-2.06-.7-2.06-1.85s1.05-2,2.54-2a3.93,3.93,0,0,1,2.48.74l-.66.66a2.93,2.93,0,0,0-1.84-.55c-1,0-1.54.42-1.54,1.14s.38.92,1.24,1l1.08.09c1.2.12,2,.56,2,1.87S234.22,86.45,232.53,86.45Zm4.72-8.94V76.38h1.14v1.13Zm.06,8.85V79.47h1v6.89Zm5.46,0A1.69,1.69,0,0,1,241,84.52V80.24h-.86v-.77H241V77.36h1v2.11h1.47v.77H242v4.25c0,.63.3,1,.94,1h.53v.86ZM247.19,88a1.94,1.94,0,0,1-.49.81,1.88,1.88,0,0,1-1.34.48h-.44v-.9h.31c.7,0,.91-.22,1.14-.85l.49-1.35-2.48-6.75h1.09L247.36,85l1.88-5.54h1.09Zm8.22-1.67v-10h6.19v1h-5.13v3.52h4.37v1h-4.37v3.6h5.13v1Zm17.07,0V82.12a1.71,1.71,0,1,0-3.42-.11v4.35h-1V82.12c0-1.22-.65-1.84-1.69-1.84a1.63,1.63,0,0,0-1.72,1.84v4.24h-1V79.47h1v.76a2.5,2.5,0,0,1,1.94-.84,2.27,2.27,0,0,1,2.12,1.15A2.63,2.63,0,0,1,271,79.39a2.54,2.54,0,0,1,1.78.64,2.57,2.57,0,0,1,.74,1.92v4.41Zm4.08-3.18c0,1.52.7,2.38,2,2.38a2.26,2.26,0,0,0,1.81-.78l.69.6a3.18,3.18,0,0,1-2.52,1.07c-1.84,0-3-1.1-3-3.53,0-2.24,1.08-3.53,2.83-3.53s2.83,1.27,2.83,3.35v.44Zm3.44-1.9a1.77,1.77,0,0,0-3.23,0,2.78,2.78,0,0,0-.21,1.15h3.66A2.93,2.93,0,0,0,280,81.28Zm7.21-.49a1.45,1.45,0,0,0-1.2-.51,1.69,1.69,0,0,0-1.65,1.85v4.23h-1V79.47h1v.84a2.33,2.33,0,0,1,1.93-.92A2.13,2.13,0,0,1,288,80ZM291,89.53a3,3,0,0,1-2.34-.93l.66-.64a2.1,2.1,0,0,0,1.65.69c1.33,0,1.89-.94,1.89-2.12V85.45a2.21,2.21,0,0,1-1.93.9,2.37,2.37,0,0,1-1.67-.62,5.32,5.32,0,0,1,0-5.74,2.43,2.43,0,0,1,1.68-.6,2.19,2.19,0,0,1,1.94.89v-.81h1v7.1A2.74,2.74,0,0,1,291,89.53Zm.15-9.25c-1.49,0-1.72,1.29-1.72,2.58s.23,2.58,1.72,2.58,1.71-1.29,1.71-2.58S292.69,80.28,291.19,80.28Zm5.87,2.9c0,1.52.7,2.38,2,2.38a2.26,2.26,0,0,0,1.81-.78l.68.6a3.18,3.18,0,0,1-2.52,1.07c-1.83,0-3-1.1-3-3.53,0-2.24,1.08-3.53,2.83-3.53s2.83,1.27,2.83,3.35v.44Zm3.43-1.9a1.77,1.77,0,0,0-3.22,0,2.62,2.62,0,0,0-.21,1.15h3.65A2.76,2.76,0,0,0,300.49,81.28Zm7.77,5.08V82.12a1.71,1.71,0,1,0-3.4,0v4.24h-1V79.47h1v.76a2.48,2.48,0,0,1,1.93-.84,2.43,2.43,0,0,1,1.77.64,2.55,2.55,0,0,1,.71,1.92v4.41Zm6.13.09c-1.73,0-3.05-1.18-3.05-3.53s1.32-3.53,3.05-3.53a2.73,2.73,0,0,1,2.27,1l-.68.65a1.9,1.9,0,0,0-1.59-.78,1.85,1.85,0,0,0-1.59.79,4,4,0,0,0,0,3.7,1.85,1.85,0,0,0,1.59.78,1.93,1.93,0,0,0,1.59-.78l.68.66A2.73,2.73,0,0,1,314.39,86.45Zm5.9,1.58a2,2,0,0,1-.49.81,1.92,1.92,0,0,1-1.35.48H318v-.9h.3c.7,0,.91-.22,1.14-.85l.49-1.35-2.48-6.75h1.09L320.45,85l1.88-5.54h1.09ZM26.92,100.36V92.79l-2.73,6h-.91l-2.77-6v7.57H19.44v-10h1.07l3.25,7.07,3.16-7.07H28v10Zm7.67,0v-.65a2.45,2.45,0,0,1-2,.74,2.45,2.45,0,0,1-1.94-.63,1.94,1.94,0,0,1-.52-1.4c0-1.22.85-2,2.39-2h2.06v-.66c0-1-.49-1.51-1.76-1.51a1.84,1.84,0,0,0-1.74.8l-.69-.64a2.68,2.68,0,0,1,2.44-1c1.86,0,2.76.81,2.76,2.3v4.67Zm0-3.18H32.67c-1,0-1.55.41-1.55,1.22s.49,1.18,1.6,1.18a2.09,2.09,0,0,0,1.52-.46,1.6,1.6,0,0,0,.35-1.19Zm7.87,3.18V96.12a1.71,1.71,0,1,0-3.4,0v4.24h-1V93.47h1v.76A2.48,2.48,0,0,1,41,93.39a2.41,2.41,0,0,1,1.76.64A2.52,2.52,0,0,1,43.47,96v4.41Zm7.36,0v-.65a2.44,2.44,0,0,1-2,.74,2.46,2.46,0,0,1-2-.63,1.94,1.94,0,0,1-.52-1.4c0-1.22.85-2,2.4-2h2v-.66c0-1-.49-1.51-1.76-1.51a1.84,1.84,0,0,0-1.74.8l-.68-.64a2.66,2.66,0,0,1,2.43-1c1.87,0,2.76.81,2.76,2.3v4.67Zm0-3.18H47.91c-1,0-1.56.41-1.56,1.22s.49,1.18,1.6,1.18a2.08,2.08,0,0,0,1.52-.46,1.6,1.6,0,0,0,.35-1.19Zm5.67,6.35a3.05,3.05,0,0,1-2.34-.93l.66-.64a2.14,2.14,0,0,0,1.66.69c1.33,0,1.89-.94,1.89-2.12V99.45a2.21,2.21,0,0,1-1.94.9,2.32,2.32,0,0,1-1.66-.62,5.32,5.32,0,0,1,0-5.74,2.41,2.41,0,0,1,1.68-.6,2.19,2.19,0,0,1,1.93.89v-.81h1v7.1A2.74,2.74,0,0,1,55.49,103.53Zm.16-9.25c-1.5,0-1.73,1.29-1.73,2.58s.23,2.58,1.73,2.58,1.71-1.29,1.71-2.58S57.15,94.28,55.65,94.28Zm5.86,2.9c0,1.52.7,2.38,2,2.38a2.26,2.26,0,0,0,1.81-.78l.69.6a3.18,3.18,0,0,1-2.52,1.07c-1.84,0-3-1.1-3-3.53,0-2.24,1.08-3.53,2.83-3.53s2.83,1.27,2.83,3.35v.44Zm3.43-1.9a1.72,1.72,0,0,0-1.61-1,1.74,1.74,0,0,0-1.61,1,2.62,2.62,0,0,0-.21,1.15h3.66A2.75,2.75,0,0,0,64.94,95.28Zm12.21,5.08V96.12c0-1.22-.65-1.84-1.69-1.84A1.61,1.61,0,0,0,73.74,96v4.35h-1V96.12A1.61,1.61,0,0,0,71,94.28a1.63,1.63,0,0,0-1.72,1.84v4.24h-1V93.47h1v.76a2.52,2.52,0,0,1,2-.84,2.26,2.26,0,0,1,2.11,1.15,2.65,2.65,0,0,1,2.27-1.15,2.54,2.54,0,0,1,1.78.64A2.57,2.57,0,0,1,78.16,96v4.41Zm4.09-3.18c0,1.52.7,2.38,2,2.38a2.26,2.26,0,0,0,1.81-.78l.68.6a3.18,3.18,0,0,1-2.52,1.07c-1.83,0-3-1.1-3-3.53,0-2.24,1.08-3.53,2.83-3.53s2.83,1.27,2.83,3.35v.44Zm3.43-1.9a1.77,1.77,0,0,0-3.22,0,2.62,2.62,0,0,0-.21,1.15h3.65A2.76,2.76,0,0,0,84.67,95.28Zm7.77,5.08V96.12a1.71,1.71,0,1,0-3.4,0v4.24H88V93.47h1v.76A2.48,2.48,0,0,1,91,93.39a2.41,2.41,0,0,1,1.76.64A2.52,2.52,0,0,1,93.45,96v4.41Zm5.39,0a1.69,1.69,0,0,1-1.77-1.84V94.24H95.2v-.77h.86V91.36h1v2.11h1.47v.77H97.07v4.25c0,.63.3,1,.94,1h.53v.86Zm-70,145.8v-6.23H22v6.23H19.86V231.91H22V238H27.8v-6.08H30v14.25Zm11.76,0v-1a3.66,3.66,0,0,1-2.7,1.14,3.52,3.52,0,0,1-2.5-.93,3.72,3.72,0,0,1-1-2.86V236h2v6.18a2,2,0,0,0,2,2.26,2,2,0,0,0,2.1-2.26V236h2v10.15Zm17.6,0V240a2,2,0,0,0-2-2.26,2,2,0,0,0-2.1,2.16v6.29H51V240a2,2,0,0,0-2-2.26,2,2,0,0,0-2.1,2.26v6.19h-2V236h2v1a3.67,3.67,0,0,1,2.7-1.14,3.24,3.24,0,0,1,2.88,1.48,3.85,3.85,0,0,1,3.18-1.48,3.67,3.67,0,0,1,2.56.92,3.77,3.77,0,0,1,1.08,2.86v6.49Zm10.64,0v-.93a3.34,3.34,0,0,1-2.7,1.05,3.58,3.58,0,0,1-2.72-.93,3.11,3.11,0,0,1-.8-2.18c0-1.7,1.18-2.92,3.52-2.92h2.66v-.72c0-1.3-.62-1.9-2.22-1.9a2.45,2.45,0,0,0-2.22,1L62,237.37a4.09,4.09,0,0,1,3.62-1.48c2.8,0,4.18,1.2,4.18,3.48v6.79Zm0-4.49H65.42c-1.24,0-1.86.52-1.86,1.46s.58,1.44,1.92,1.44a2.44,2.44,0,0,0,1.84-.58,2,2,0,0,0,.44-1.5Zm11.36,4.49V240a2,2,0,0,0-2-2.26A2,2,0,0,0,75,240v6.19h-2V236h2v1a3.63,3.63,0,0,1,2.7-1.14,3.52,3.52,0,0,1,2.5.92,3.72,3.72,0,0,1,1,2.86v6.49Zm17.14-.79a3.43,3.43,0,0,1-2.46.91,3.1,3.1,0,0,1-2.66-1.16v5.14h-2V236h2v1.08a3.14,3.14,0,0,1,2.68-1.2,3.47,3.47,0,0,1,2.48.9c1,1,1.14,2.62,1.14,4.28S97.24,244.37,96.26,245.37Zm-3-7.66c-1.86,0-2.12,1.56-2.12,3.36s.26,3.38,2.12,3.38,2.1-1.58,2.1-3.38S95.1,237.71,93.26,237.71Zm12.48.68a1.88,1.88,0,0,0-1.52-.68,2.09,2.09,0,0,0-2,2.28v6.17h-2V236h2v1.1a3.37,3.37,0,0,1,2.7-1.22,3.14,3.14,0,0,1,2.42,1Zm9.4,6.69a4.1,4.1,0,0,1-3,1.2,4.06,4.06,0,0,1-3-1.2,5.38,5.38,0,0,1-1.2-4,5.32,5.32,0,0,1,1.2-4,4.06,4.06,0,0,1,3-1.2,4.1,4.1,0,0,1,3,1.2,5.32,5.32,0,0,1,1.2,4A5.38,5.38,0,0,1,115.14,245.08Zm-1.54-6.79a2.07,2.07,0,0,0-1.5-.58,2,2,0,0,0-1.48.58,5.87,5.87,0,0,0,0,5.56,2,2,0,0,0,1.48.6,2.08,2.08,0,0,0,1.5-.6,5.87,5.87,0,0,0,0-5.56Zm9.5,8c-2.28,0-4.52-1.41-4.52-5.21s2.24-5.18,4.52-5.18a4.16,4.16,0,0,1,3.34,1.42l-1.4,1.36a2.36,2.36,0,0,0-1.94-1,2.29,2.29,0,0,0-1.88.9,3.75,3.75,0,0,0-.6,2.46,3.81,3.81,0,0,0,.6,2.48,2.29,2.29,0,0,0,1.88.9,2.36,2.36,0,0,0,1.94-1l1.4,1.34A4.19,4.19,0,0,1,123.1,246.28Zm6.9-4.61c0,1.76.9,2.85,2.58,2.85a3,3,0,0,0,2.46-1.05l1.3,1.22a4.73,4.73,0,0,1-3.8,1.59c-2.54,0-4.56-1.35-4.56-5.21,0-3.3,1.7-5.18,4.3-5.18s4.3,2,4.3,4.92v.86Zm4.28-2.8a2.22,2.22,0,0,0-4,0,3.15,3.15,0,0,0-.26,1.38h4.56A3.45,3.45,0,0,0,134.28,238.87Zm8.28,7.41a5.59,5.59,0,0,1-4.26-1.47l1.34-1.34a4,4,0,0,0,2.92,1.07c1.26,0,2.22-.45,2.22-1.41,0-.7-.38-1.1-1.36-1.2l-1.62-.14c-1.92-.18-3-1-3-2.8,0-2,1.7-3.1,3.82-3.1a5.53,5.53,0,0,1,3.76,1.14l-1.28,1.3a3.83,3.83,0,0,0-2.5-.74c-1.24,0-1.84.52-1.84,1.3s.4,1.06,1.4,1.16l1.42.12c2.1.18,3.2,1.1,3.2,2.88C146.78,245.18,145,246.28,142.56,246.28Zm9.88,0a5.59,5.59,0,0,1-4.26-1.47l1.34-1.34a4,4,0,0,0,2.92,1.07c1.26,0,2.22-.45,2.22-1.41,0-.7-.38-1.1-1.36-1.2l-1.62-.14c-1.92-.18-3-1-3-2.8,0-2,1.7-3.1,3.82-3.1a5.53,5.53,0,0,1,3.76,1.14l-1.28,1.3a3.83,3.83,0,0,0-2.5-.74c-1.24,0-1.84.52-1.84,1.3s.4,1.06,1.4,1.16l1.42.12c2.1.18,3.2,1.1,3.2,2.88C156.66,245.18,154.86,246.28,152.44,246.28ZM159.08,234v-2.16h2.16V234Zm.06,12.15V236h2v10.15Zm11.46,0V240a2,2,0,0,0-2-2.26,2,2,0,0,0-2.1,2.26v6.19h-2V236h2v1a3.63,3.63,0,0,1,2.7-1.14,3.52,3.52,0,0,1,2.5.92,3.72,3.72,0,0,1,1,2.86v6.49Zm8.58,4.22A4.69,4.69,0,0,1,175.6,249l1.3-1.3a2.85,2.85,0,0,0,2.2.9,2.29,2.29,0,0,0,2.38-2.58v-1.31a3.1,3.1,0,0,1-2.62,1.16,3.35,3.35,0,0,1-2.42-.89c-1-1-1.14-2.41-1.14-4.13s.16-3.14,1.14-4.12a3.4,3.4,0,0,1,2.44-.88,3.11,3.11,0,0,1,2.66,1.2V236h2V246.1A4.07,4.07,0,0,1,179.18,250.38Zm.24-12.67c-1.84,0-2.08,1.58-2.08,3.18s.24,3.18,2.08,3.18,2.06-1.58,2.06-3.18S181.26,237.71,179.42,237.71Zm18,8.45v-1.08a3.15,3.15,0,0,1-2.68,1.2,3.51,3.51,0,0,1-2.48-.91c-1-1-1.14-2.62-1.14-4.3s.16-3.28,1.14-4.28a3.46,3.46,0,0,1,2.46-.9,3.14,3.14,0,0,1,2.66,1.14v-5.12h2v14.25Zm-2.14-8.45c-1.86,0-2.12,1.56-2.12,3.36s.26,3.38,2.12,3.38,2.1-1.58,2.1-3.38S197.08,237.71,195.24,237.71Zm13,.68a1.88,1.88,0,0,0-1.52-.68,2.09,2.09,0,0,0-2,2.28v6.17h-2V236h2v1.1a3.37,3.37,0,0,1,2.7-1.22,3.14,3.14,0,0,1,2.42,1Zm9.4,6.69a4.1,4.1,0,0,1-3,1.2,4.06,4.06,0,0,1-3-1.2,5.38,5.38,0,0,1-1.2-4,5.32,5.32,0,0,1,1.2-4,4.06,4.06,0,0,1,3-1.2,4.1,4.1,0,0,1,3,1.2,5.32,5.32,0,0,1,1.2,4A5.38,5.38,0,0,1,217.6,245.08Zm-1.54-6.79a2.07,2.07,0,0,0-1.5-.58,2,2,0,0,0-1.48.58,5.87,5.87,0,0,0,0,5.56,2,2,0,0,0,1.48.6,2.08,2.08,0,0,0,1.5-.6,5.87,5.87,0,0,0,0-5.56Zm12.66,7.08a3.43,3.43,0,0,1-2.46.91,3.1,3.1,0,0,1-2.66-1.16v5.14h-2V236h2v1.08a3.14,3.14,0,0,1,2.68-1.2,3.47,3.47,0,0,1,2.48.9c1,1,1.14,2.62,1.14,4.28S229.7,244.37,228.72,245.37Zm-3-7.66c-1.86,0-2.12,1.56-2.12,3.36s.26,3.38,2.12,3.38,2.1-1.58,2.1-3.38S227.56,237.71,225.72,237.71Zm10.18,8.57a5.59,5.59,0,0,1-4.26-1.47l1.34-1.34a4,4,0,0,0,2.92,1.07c1.26,0,2.22-.45,2.22-1.41,0-.7-.38-1.1-1.36-1.2l-1.62-.14c-1.92-.18-3-1-3-2.8,0-2,1.7-3.1,3.82-3.1a5.53,5.53,0,0,1,3.76,1.14l-1.28,1.3a3.83,3.83,0,0,0-2.5-.74c-1.24,0-1.84.52-1.84,1.3s.4,1.06,1.4,1.16l1.42.12c2.1.18,3.2,1.1,3.2,2.88C240.12,245.18,238.32,246.28,235.9,246.28Zm14.52-.12a2.65,2.65,0,0,1-2.78-2.83v-5.76h-1.16V236h1.16v-2.9h2V236h2v1.56h-2v5.66a1,1,0,0,0,1.12,1.18h.84v1.75Zm10.52-1.08a4.1,4.1,0,0,1-3,1.2,4.06,4.06,0,0,1-3-1.2,5.38,5.38,0,0,1-1.2-4,5.32,5.32,0,0,1,1.2-4,4.06,4.06,0,0,1,3-1.2,4.1,4.1,0,0,1,3,1.2,5.32,5.32,0,0,1,1.2,4A5.38,5.38,0,0,1,260.94,245.08Zm-1.54-6.79a2.07,2.07,0,0,0-1.5-.58,2,2,0,0,0-1.48.58,5.87,5.87,0,0,0,0,5.56,2,2,0,0,0,1.48.6,2.08,2.08,0,0,0,1.5-.6,5.87,5.87,0,0,0,0-5.56Zm13.88,8c-2.28,0-4.28-1.22-4.36-4h2a2.14,2.14,0,0,0,2.32,2.16,2.2,2.2,0,0,0,2.32-2.36,2.13,2.13,0,0,0-2.38-2.34h-.34V238h.34a2,2,0,0,0,2.16-2.16,2.12,2.12,0,0,0-4.24-.16h-2a4,4,0,0,1,4.18-3.88,3.89,3.89,0,0,1,4.14,4,3.13,3.13,0,0,1-1.78,3,3.34,3.34,0,0,1,2,3.36C277.64,244.89,275.66,246.3,273.28,246.3Zm10.78,0a3.93,3.93,0,0,1-4.1-4.09v-6.32a4.11,4.11,0,0,1,8.22,0v6.32A3.93,3.93,0,0,1,284.06,246.28Zm2.08-10.35a2.08,2.08,0,1,0-4.14,0v6.2a2.08,2.08,0,1,0,4.14,0ZM29.54,268.16H27.8l-2.38-7.09-2.36,7.09H21.3L18.16,258h2.16l2,7.14L24.64,258h1.58l2.34,7.14,2-7.14H32.7Zm11.64-1.08a4.1,4.1,0,0,1-3,1.2,4.06,4.06,0,0,1-3-1.2,5.38,5.38,0,0,1-1.2-4,5.32,5.32,0,0,1,1.2-4,4.06,4.06,0,0,1,3-1.2,4.1,4.1,0,0,1,3,1.2,5.32,5.32,0,0,1,1.2,4A5.38,5.38,0,0,1,41.18,267.08Zm-1.54-6.79a2.07,2.07,0,0,0-1.5-.58,2,2,0,0,0-1.48.58,5.87,5.87,0,0,0,0,5.56,2,2,0,0,0,1.48.6,2.08,2.08,0,0,0,1.5-.6,5.87,5.87,0,0,0,0-5.56Zm11.08.1a1.88,1.88,0,0,0-1.52-.68,2.09,2.09,0,0,0-2,2.28v6.17h-2V258h2v1.1a3.37,3.37,0,0,1,2.7-1.22,3.14,3.14,0,0,1,2.42,1Zm8.42,7.77v-1.08a3.15,3.15,0,0,1-2.68,1.2,3.51,3.51,0,0,1-2.48-.91c-1-1-1.14-2.62-1.14-4.3s.16-3.28,1.14-4.28a3.46,3.46,0,0,1,2.46-.9A3.14,3.14,0,0,1,59.1,259v-5.12h2v14.25ZM57,259.71c-1.86,0-2.12,1.56-2.12,3.36s.26,3.38,2.12,3.38,2.1-1.58,2.1-3.38S58.84,259.71,57,259.71Zm10.66,8.57a5.59,5.59,0,0,1-4.26-1.47l1.34-1.34a4,4,0,0,0,2.92,1.07c1.26,0,2.22-.45,2.22-1.41,0-.7-.38-1.1-1.36-1.2l-1.62-.14c-1.92-.18-3-1-3-2.8,0-2,1.7-3.1,3.82-3.1A5.53,5.53,0,0,1,71.48,259l-1.28,1.3a3.83,3.83,0,0,0-2.5-.74c-1.24,0-1.84.52-1.84,1.3s.4,1.06,1.4,1.16l1.42.12c2.1.18,3.2,1.1,3.2,2.88C71.88,267.18,70.08,268.28,67.66,268.28Zm17-.12v-.93a3.34,3.34,0,0,1-2.7,1,3.58,3.58,0,0,1-2.72-.93,3.11,3.11,0,0,1-.8-2.18c0-1.7,1.18-2.92,3.52-2.92h2.66v-.72c0-1.3-.62-1.9-2.22-1.9a2.45,2.45,0,0,0-2.22,1l-1.32-1.26a4.09,4.09,0,0,1,3.62-1.48c2.8,0,4.18,1.2,4.18,3.48v6.79Zm0-4.49H82.24c-1.24,0-1.86.52-1.86,1.46s.58,1.44,1.92,1.44a2.44,2.44,0,0,0,1.84-.58,2,2,0,0,0,.44-1.5Zm11.36,4.49V262a2,2,0,0,0-2-2.26A2,2,0,0,0,91.8,262v6.19h-2V258h2v1a3.63,3.63,0,0,1,2.7-1.14,3.52,3.52,0,0,1,2.5.92,3.72,3.72,0,0,1,1,2.86v6.49Zm11,0v-1.08a3.15,3.15,0,0,1-2.68,1.2,3.51,3.51,0,0,1-2.48-.91c-1-1-1.14-2.62-1.14-4.3s.16-3.28,1.14-4.28a3.46,3.46,0,0,1,2.46-.9A3.14,3.14,0,0,1,106.9,259v-5.12h2v14.25Zm-2.14-8.45c-1.86,0-2.12,1.56-2.12,3.36s.26,3.38,2.12,3.38,2.1-1.58,2.1-3.38S106.64,259.71,104.8,259.71Zm15.76,8.59c-2.28,0-4.28-1.22-4.36-4h2a2.14,2.14,0,0,0,2.32,2.16,2.2,2.2,0,0,0,2.32-2.36,2.13,2.13,0,0,0-2.38-2.34h-.34V260h.34a2,2,0,0,0,2.16-2.16,2.12,2.12,0,0,0-4.24-.16h-2a4,4,0,0,1,4.18-3.88,3.89,3.89,0,0,1,4.14,4,3.13,3.13,0,0,1-1.78,3,3.34,3.34,0,0,1,2,3.36C124.92,266.89,122.94,268.3,120.56,268.3Zm15.16,0a5.59,5.59,0,0,1-4.26-1.47l1.34-1.34a4,4,0,0,0,2.92,1.07c1.26,0,2.22-.45,2.22-1.41,0-.7-.38-1.1-1.36-1.2l-1.62-.14c-1.92-.18-3-1-3-2.8,0-2,1.7-3.1,3.82-3.1a5.53,5.53,0,0,1,3.76,1.14l-1.28,1.3a3.83,3.83,0,0,0-2.5-.74c-1.24,0-1.84.52-1.84,1.3s.4,1.06,1.4,1.16l1.42.12c2.1.18,3.2,1.1,3.2,2.88C139.94,267.18,138.14,268.28,135.72,268.28Zm8.2-4.61c0,1.76.9,2.85,2.58,2.85a3,3,0,0,0,2.46-1l1.3,1.22a4.73,4.73,0,0,1-3.8,1.59c-2.54,0-4.56-1.35-4.56-5.21,0-3.3,1.7-5.18,4.3-5.18s4.3,2,4.3,4.92v.86Zm4.28-2.8a2.22,2.22,0,0,0-4,0,3.15,3.15,0,0,0-.26,1.38h4.56A3.45,3.45,0,0,0,148.2,260.87Zm11.18,7.29V262a2,2,0,0,0-2-2.26,2,2,0,0,0-2.1,2.26v6.19h-2V258h2v1a3.63,3.63,0,0,1,2.7-1.14,3.52,3.52,0,0,1,2.5.92,3.72,3.72,0,0,1,1,2.86v6.49Zm8.2,0a2.65,2.65,0,0,1-2.78-2.83v-5.76h-1.16V258h1.16v-2.9h2V258h2v1.56h-2v5.66a1,1,0,0,0,1.12,1.18h.84v1.75Zm5.22-4.49c0,1.76.9,2.85,2.58,2.85a3,3,0,0,0,2.46-1l1.3,1.22a4.73,4.73,0,0,1-3.8,1.59c-2.54,0-4.56-1.35-4.56-5.21,0-3.3,1.7-5.18,4.3-5.18s4.3,2,4.3,4.92v.86Zm4.28-2.8a2.22,2.22,0,0,0-4,0,3.15,3.15,0,0,0-.26,1.38h4.56A3.45,3.45,0,0,0,177.08,260.87Zm11.18,7.29V262a2,2,0,0,0-2-2.26,2,2,0,0,0-2.1,2.26v6.19h-2V258h2v1a3.63,3.63,0,0,1,2.7-1.14,3.52,3.52,0,0,1,2.5.92,3.72,3.72,0,0,1,1,2.86v6.49Zm9.18.12c-2.28,0-4.52-1.41-4.52-5.21s2.24-5.18,4.52-5.18a4.16,4.16,0,0,1,3.34,1.42l-1.4,1.36a2.36,2.36,0,0,0-1.94-1,2.29,2.29,0,0,0-1.88.9,3.75,3.75,0,0,0-.6,2.46,3.81,3.81,0,0,0,.6,2.48,2.29,2.29,0,0,0,1.88.9,2.36,2.36,0,0,0,1.94-1l1.4,1.34A4.19,4.19,0,0,1,197.44,268.28Zm6.92-4.61c0,1.76.9,2.85,2.58,2.85a3,3,0,0,0,2.46-1l1.3,1.22a4.73,4.73,0,0,1-3.8,1.59c-2.54,0-4.56-1.35-4.56-5.21,0-3.3,1.7-5.18,4.3-5.18s4.3,2,4.3,4.92v.86Zm4.28-2.8a2.22,2.22,0,0,0-4,0,3.15,3.15,0,0,0-.26,1.38h4.56A3.45,3.45,0,0,0,208.64,260.87Zm8.28,7.41a5.59,5.59,0,0,1-4.26-1.47l1.34-1.34a4,4,0,0,0,2.92,1.07c1.26,0,2.22-.45,2.22-1.41,0-.7-.38-1.1-1.36-1.2l-1.62-.14c-1.92-.18-3-1-3-2.8,0-2,1.7-3.1,3.82-3.1a5.53,5.53,0,0,1,3.76,1.14l-1.28,1.3a3.83,3.83,0,0,0-2.5-.74c-1.24,0-1.84.52-1.84,1.3s.4,1.06,1.4,1.16l1.42.12c2.1.18,3.2,1.1,3.2,2.88C221.14,267.18,219.34,268.28,216.92,268.28Zm17-.12v-.93a3.34,3.34,0,0,1-2.7,1,3.58,3.58,0,0,1-2.72-.93,3.11,3.11,0,0,1-.8-2.18c0-1.7,1.18-2.92,3.52-2.92h2.66v-.72c0-1.3-.62-1.9-2.22-1.9a2.45,2.45,0,0,0-2.22,1l-1.32-1.26a4.09,4.09,0,0,1,3.62-1.48c2.8,0,4.18,1.2,4.18,3.48v6.79Zm0-4.49H231.5c-1.24,0-1.86.52-1.86,1.46s.58,1.44,1.92,1.44a2.44,2.44,0,0,0,1.84-.58,2,2,0,0,0,.44-1.5Zm8.2,4.49a2.65,2.65,0,0,1-2.78-2.83v-5.76H238.1V258h1.16v-2.9h2V258h2v1.56h-2v5.66a1,1,0,0,0,1.12,1.18h.84v1.75Zm14.08,0v-.93a3.34,3.34,0,0,1-2.7,1,3.58,3.58,0,0,1-2.72-.93,3.11,3.11,0,0,1-.8-2.18c0-1.7,1.18-2.92,3.52-2.92h2.66v-.72c0-1.3-.62-1.9-2.22-1.9a2.45,2.45,0,0,0-2.22,1l-1.32-1.26a4.09,4.09,0,0,1,3.62-1.48c2.8,0,4.18,1.2,4.18,3.48v6.79Zm0-4.49h-2.34c-1.24,0-1.86.52-1.86,1.46s.58,1.44,1.92,1.44a2.44,2.44,0,0,0,1.84-.58,2,2,0,0,0,.44-1.5Zm13,4.49a2.65,2.65,0,0,1-2.78-2.83v-5.76h-1.16V258h1.16v-2.9h2V258h2v1.56h-2v5.66a1,1,0,0,0,1.12,1.18h.84v1.75ZM272.84,256v-2.16H275V256Zm.06,12.15V258h2v10.15Zm17.64,0V262a2,2,0,0,0-2-2.26,2,2,0,0,0-2.1,2.16v6.29h-2V262a2,2,0,0,0-2-2.26,2,2,0,0,0-2.1,2.26v6.19h-2V258h2v1a3.67,3.67,0,0,1,2.7-1.14,3.24,3.24,0,0,1,2.88,1.48,3.85,3.85,0,0,1,3.18-1.48,3.67,3.67,0,0,1,2.56.92,3.77,3.77,0,0,1,1.08,2.86v6.49Zm6.68-4.49c0,1.76.9,2.85,2.58,2.85a3,3,0,0,0,2.46-1l1.3,1.22a4.73,4.73,0,0,1-3.8,1.59c-2.54,0-4.56-1.35-4.56-5.21,0-3.3,1.7-5.18,4.3-5.18s4.3,2,4.3,4.92v.86Zm4.28-2.8a2.22,2.22,0,0,0-4,0,3.15,3.15,0,0,0-.26,1.38h4.56A3.45,3.45,0,0,0,301.5,260.87ZM25.44,290.16v-1.08a3.15,3.15,0,0,1-2.68,1.2,3.51,3.51,0,0,1-2.48-.91c-1-1-1.14-2.62-1.14-4.3s.16-3.28,1.14-4.28a3.46,3.46,0,0,1,2.46-.9A3.14,3.14,0,0,1,25.4,281v-5.12h2v14.25Zm-2.14-8.45c-1.86,0-2.12,1.56-2.12,3.36s.26,3.38,2.12,3.38,2.1-1.58,2.1-3.38S25.14,281.71,23.3,281.71Zm13.5,8.45v-1a3.66,3.66,0,0,1-2.7,1.14,3.52,3.52,0,0,1-2.5-.93,3.72,3.72,0,0,1-1-2.86V280h2v6.18a2,2,0,0,0,2,2.26,2,2,0,0,0,2.1-2.26V280h2v10.15Zm10.82-7.77a1.88,1.88,0,0,0-1.52-.68,2.09,2.09,0,0,0-2,2.28v6.17H42V280h2v1.1a3.37,3.37,0,0,1,2.7-1.22,3.14,3.14,0,0,1,2.42,1ZM50.76,278v-2.16h2.16V278Zm.06,12.15V280h2v10.15Zm11.46,0V284a2,2,0,0,0-2-2.26,2,2,0,0,0-2.1,2.26v6.19h-2V280h2v1a3.63,3.63,0,0,1,2.7-1.14,3.52,3.52,0,0,1,2.5.92,3.72,3.72,0,0,1,1,2.86v6.49Zm8.58,4.22A4.69,4.69,0,0,1,67.28,293l1.3-1.3a2.85,2.85,0,0,0,2.2.9,2.29,2.29,0,0,0,2.38-2.58v-1.31a3.1,3.1,0,0,1-2.62,1.16,3.35,3.35,0,0,1-2.42-.89c-1-1-1.14-2.41-1.14-4.13s.16-3.14,1.14-4.12a3.4,3.4,0,0,1,2.44-.88,3.11,3.11,0,0,1,2.66,1.2V280h2V290.1A4.07,4.07,0,0,1,70.86,294.38Zm.24-12.67c-1.84,0-2.08,1.58-2.08,3.18s.24,3.18,2.08,3.18,2.06-1.58,2.06-3.18S72.94,281.71,71.1,281.71Zm17.6,8.45v-.93a3.34,3.34,0,0,1-2.7,1,3.58,3.58,0,0,1-2.72-.93,3.11,3.11,0,0,1-.8-2.18c0-1.7,1.18-2.92,3.52-2.92h2.66v-.72c0-1.3-.62-1.9-2.22-1.9a2.45,2.45,0,0,0-2.22,1l-1.32-1.26a4.09,4.09,0,0,1,3.62-1.48c2.8,0,4.18,1.2,4.18,3.48v6.79Zm0-4.49H86.32c-1.24,0-1.86.52-1.86,1.46s.58,1.44,1.92,1.44a2.44,2.44,0,0,0,1.84-.58,2,2,0,0,0,.44-1.5Zm13.26,4.61a5.59,5.59,0,0,1-4.26-1.47L99,287.47a4,4,0,0,0,2.92,1.07c1.26,0,2.22-.45,2.22-1.41,0-.7-.38-1.1-1.36-1.2l-1.62-.14c-1.92-.18-3-1-3-2.8,0-2,1.7-3.1,3.82-3.1a5.53,5.53,0,0,1,3.76,1.14l-1.28,1.3a3.83,3.83,0,0,0-2.5-.74c-1.24,0-1.84.52-1.84,1.3s.4,1.06,1.4,1.16l1.42.12c2.1.18,3.2,1.1,3.2,2.88C106.14,289.18,104.34,290.28,101.92,290.28Zm9.52-.12a2.65,2.65,0,0,1-2.78-2.83v-5.76H107.5V280h1.16v-2.9h2V280h2v1.56h-2v5.66a1,1,0,0,0,1.12,1.18h.84v1.75Zm9.2,0v-.93a3.34,3.34,0,0,1-2.7,1,3.58,3.58,0,0,1-2.72-.93,3.11,3.11,0,0,1-.8-2.18c0-1.7,1.18-2.92,3.52-2.92h2.66v-.72c0-1.3-.62-1.9-2.22-1.9a2.45,2.45,0,0,0-2.22,1l-1.32-1.26a4.09,4.09,0,0,1,3.62-1.48c2.8,0,4.18,1.2,4.18,3.48v6.79Zm0-4.49h-2.34c-1.24,0-1.86.52-1.86,1.46s.58,1.44,1.92,1.44a2.44,2.44,0,0,0,1.84-.58,2,2,0,0,0,.44-1.5Zm8.2,4.49a2.65,2.65,0,0,1-2.78-2.83v-5.76h-1.16V280H126v-2.9h2V280h2v1.56h-2v5.66a1,1,0,0,0,1.12,1.18H130v1.75Zm5.24-4.49c0,1.76.9,2.85,2.58,2.85a3,3,0,0,0,2.46-1l1.3,1.22a4.73,4.73,0,0,1-3.8,1.59c-2.54,0-4.56-1.35-4.56-5.21,0-3.3,1.7-5.18,4.3-5.18s4.3,2,4.3,4.92v.86Zm4.28-2.8a2.22,2.22,0,0,0-4,0,3.15,3.15,0,0,0-.26,1.38h4.56A3.45,3.45,0,0,0,138.32,282.87Zm16.58,6.21a4.1,4.1,0,0,1-3,1.2,4.06,4.06,0,0,1-3-1.2,5.38,5.38,0,0,1-1.2-4,5.32,5.32,0,0,1,1.2-4,4.06,4.06,0,0,1,3-1.2,4.1,4.1,0,0,1,3,1.2,5.32,5.32,0,0,1,1.2,4A5.38,5.38,0,0,1,154.9,289.08Zm-1.54-6.79a2.07,2.07,0,0,0-1.5-.58,2,2,0,0,0-1.48.58,5.87,5.87,0,0,0,0,5.56,2,2,0,0,0,1.48.6,2.08,2.08,0,0,0,1.5-.6,5.87,5.87,0,0,0,0-5.56Zm7.86-.72v8.59h-2v-8.59H158V280h1.16v-1.38a2.64,2.64,0,0,1,2.78-2.82h1.28v1.74h-.9a1,1,0,0,0-1.12,1.18V280h2v1.56Zm10.5,4.1c0,1.76.9,2.85,2.58,2.85a3,3,0,0,0,2.46-1l1.3,1.22a4.73,4.73,0,0,1-3.8,1.59c-2.54,0-4.56-1.35-4.56-5.21,0-3.3,1.7-5.18,4.3-5.18s4.3,2,4.3,4.92v.86Zm4.28-2.8a2.22,2.22,0,0,0-4,0,3.15,3.15,0,0,0-.26,1.38h4.56A3.45,3.45,0,0,0,176,282.87Zm17.36,7.29V284a2,2,0,0,0-2-2.26,2,2,0,0,0-2.1,2.16v6.29h-2V284a2,2,0,0,0-2-2.26A2,2,0,0,0,183,284v6.19h-2V280h2v1a3.67,3.67,0,0,1,2.7-1.14,3.24,3.24,0,0,1,2.88,1.48,3.85,3.85,0,0,1,3.18-1.48,3.67,3.67,0,0,1,2.56.92,3.77,3.77,0,0,1,1.08,2.86v6.49Zm6.68-4.49c0,1.76.9,2.85,2.58,2.85a3,3,0,0,0,2.46-1l1.3,1.22a4.73,4.73,0,0,1-3.8,1.59c-2.54,0-4.56-1.35-4.56-5.21,0-3.3,1.7-5.18,4.3-5.18s4.3,2,4.3,4.92v.86Zm4.28-2.8a2.22,2.22,0,0,0-4,0,3.15,3.15,0,0,0-.26,1.38h4.56A3.45,3.45,0,0,0,204.32,282.87Zm10.58-.48a1.88,1.88,0,0,0-1.52-.68,2.09,2.09,0,0,0-2,2.28v6.17h-2V280h2v1.1a3.37,3.37,0,0,1,2.7-1.22,3.14,3.14,0,0,1,2.42,1Zm6,12a4.69,4.69,0,0,1-3.58-1.34l1.3-1.3a2.85,2.85,0,0,0,2.2.9,2.29,2.29,0,0,0,2.38-2.58v-1.31a3.1,3.1,0,0,1-2.62,1.16,3.35,3.35,0,0,1-2.42-.89c-1-1-1.14-2.41-1.14-4.13s.16-3.14,1.14-4.12a3.4,3.4,0,0,1,2.44-.88,3.11,3.11,0,0,1,2.66,1.2V280h2V290.1A4.07,4.07,0,0,1,220.92,294.38Zm.24-12.67c-1.84,0-2.08,1.58-2.08,3.18s.24,3.18,2.08,3.18,2.06-1.58,2.06-3.18S223,281.71,221.16,281.71Zm8.84,4c0,1.76.9,2.85,2.58,2.85a3,3,0,0,0,2.46-1l1.3,1.22a4.73,4.73,0,0,1-3.8,1.59c-2.54,0-4.56-1.35-4.56-5.21,0-3.3,1.7-5.18,4.3-5.18s4.3,2,4.3,4.92v.86Zm4.28-2.8a2.22,2.22,0,0,0-4,0,3.15,3.15,0,0,0-.26,1.38h4.56A3.45,3.45,0,0,0,234.28,282.87Zm11.18,7.29V284a2,2,0,0,0-2-2.26,2,2,0,0,0-2.1,2.26v6.19h-2V280h2v1a3.63,3.63,0,0,1,2.7-1.14,3.52,3.52,0,0,1,2.5.92,3.72,3.72,0,0,1,1,2.86v6.49Zm9.18.12c-2.28,0-4.52-1.41-4.52-5.21s2.24-5.18,4.52-5.18a4.16,4.16,0,0,1,3.34,1.42l-1.4,1.36a2.36,2.36,0,0,0-1.94-1,2.29,2.29,0,0,0-1.88.9,3.75,3.75,0,0,0-.6,2.46,3.81,3.81,0,0,0,.6,2.48,2.29,2.29,0,0,0,1.88.9,2.36,2.36,0,0,0,1.94-1l1.4,1.34A4.19,4.19,0,0,1,254.64,290.28Zm8.88,1.9a3.28,3.28,0,0,1-.74,1.26,2.81,2.81,0,0,1-2.08.74h-.82v-1.84h.52c.86,0,1.16-.26,1.46-1.08l.56-1.58L258.88,280H261l2.42,7.14,2.36-7.14H268Zm5.12-2v-2.45h2.44v2.45ZM19.06,314.85v-1H29.74v1Zm20.54,3.31H35.72v-10h3.76a2.64,2.64,0,0,1,2.94,2.66A2.29,2.29,0,0,1,41,313a2.42,2.42,0,0,1,1.62,2.37A2.64,2.64,0,0,1,39.6,318.16Zm-.21-9h-2.6v3.46h2.6c1.11,0,2-.55,2-1.74S40.5,309.14,39.39,309.14Zm.12,4.41H36.79v3.65h2.72a1.83,1.83,0,1,0,0-3.65Zm9.24-1a1.44,1.44,0,0,0-1.19-.5,1.68,1.68,0,0,0-1.66,1.85v4.23h-1v-6.9h1v.84a2.34,2.34,0,0,1,1.94-.92,2.12,2.12,0,0,1,1.65.64Zm3.75,7.24a2.17,2.17,0,0,1-.49.82,2,2,0,0,1-1.35.47h-.43v-.89h.31c.7,0,.91-.23,1.13-.86l.49-1.34-2.48-6.76h1.09l1.9,5.54,1.87-5.54h1.09Zm8.33-1.66v-.66a3.18,3.18,0,0,1-3.94.11,1.93,1.93,0,0,1-.52-1.4c0-1.22.86-2,2.4-2h2.06v-.66c0-1-.49-1.51-1.77-1.51a1.82,1.82,0,0,0-1.73.8l-.69-.63a2.65,2.65,0,0,1,2.44-1c1.86,0,2.76.81,2.76,2.3v4.68Zm0-3.18H58.91c-1,0-1.56.4-1.56,1.21s.49,1.18,1.6,1.18a2.1,2.1,0,0,0,1.53-.46,1.6,1.6,0,0,0,.35-1.19Zm7.87,3.18v-4.25a1.71,1.71,0,1,0-3.41,0v4.25h-1v-6.9h1V312a2.5,2.5,0,0,1,1.94-.84,2.41,2.41,0,0,1,1.76.64,2.56,2.56,0,0,1,.72,1.92v4.42Zm10.83-4.11H76.88v4.11H75.82v-10h3.71a2.94,2.94,0,1,1,0,5.87Zm-.08-4.91H76.88v4h2.57a2,2,0,1,0,0-4Zm9.36,9v-.77a2.51,2.51,0,0,1-1.94.85,2.45,2.45,0,0,1-1.78-.64,2.59,2.59,0,0,1-.7-1.94v-4.4h1v4.25c0,1.22.64,1.83,1.68,1.83a1.63,1.63,0,0,0,1.72-1.83v-4.25h1v6.9Zm7.37-5.58a1.44,1.44,0,0,0-1.19-.5,1.68,1.68,0,0,0-1.66,1.85v4.23h-1v-6.9h1v.84a2.34,2.34,0,0,1,1.94-.92,2.12,2.12,0,0,1,1.65.64Zm5.74,5.58v-.83a2.22,2.22,0,0,1-2,.91,2.37,2.37,0,0,1-1.68-.6,5.53,5.53,0,0,1,0-5.86,2.37,2.37,0,0,1,1.68-.6,2.21,2.21,0,0,1,1.94.88v-3.88h1v10Zm-1.74-6.08c-1.51,0-1.74,1.28-1.74,2.63s.23,2.63,1.74,2.63,1.72-1.29,1.72-2.63S101.68,312.08,100.18,312.08Zm7,7.74a2.17,2.17,0,0,1-.49.82,2,2,0,0,1-1.35.47h-.43v-.89h.31c.7,0,.91-.23,1.13-.86l.49-1.34-2.48-6.76h1.1l1.89,5.54,1.87-5.54h1.1Zm3.62.35v-3.25H112v2.15Zm13.21-2-.8-2.26h-4.36l-.8,2.26h-1.13l3.67-10h.9l3.65,10Zm-3-8.45L119.13,315h3.73Zm9.93,8.45v-4.25a1.6,1.6,0,0,0-1.69-1.83,1.62,1.62,0,0,0-1.71,1.83v4.25h-1v-6.9h1V312a2.48,2.48,0,0,1,1.93-.84,2.41,2.41,0,0,1,1.76.64,2.56,2.56,0,0,1,.72,1.92v4.42ZM135,315c0,1.51.71,2.38,2,2.38a2.25,2.25,0,0,0,1.8-.79l.69.61a3.17,3.17,0,0,1-2.52,1.06c-1.84,0-3-1.09-3-3.53,0-2.24,1.07-3.53,2.83-3.53s2.83,1.27,2.83,3.35V315Zm3.44-1.91a1.74,1.74,0,0,0-1.61-1,1.72,1.72,0,0,0-1.61,1,2.61,2.61,0,0,0-.22,1.15h3.66A2.76,2.76,0,0,0,138.46,313.07Zm5.53,5.17a3.78,3.78,0,0,1-2.83-1l.67-.68a2.85,2.85,0,0,0,2.14.8c1.15,0,1.84-.4,1.84-1.22,0-.61-.34-.94-1.15-1l-1.14-.09c-1.34-.12-2.06-.7-2.06-1.85s1.06-2,2.54-2a3.91,3.91,0,0,1,2.48.74l-.66.66A2.92,2.92,0,0,0,144,312c-1,0-1.54.42-1.54,1.14s.37.92,1.23,1l1.08.1c1.2.11,2,.56,2,1.86S145.67,318.24,144,318.24Zm6.58-.08a1.69,1.69,0,0,1-1.77-1.85V312h-.87v-.77h.87v-2.11h1v2.11h1.47V312h-1.47v4.25c0,.63.29,1,.94,1h.53v.87Zm7.12,0V313.9c0-1.22-.63-1.82-1.68-1.82a1.6,1.6,0,0,0-1.72,1.82v4.26h-1v-10h1V312a2.48,2.48,0,0,1,1.93-.84,2.32,2.32,0,0,1,2.48,2.55v4.43Zm4.09-3.18c0,1.51.7,2.38,2,2.38a2.27,2.27,0,0,0,1.81-.79l.68.61a3.17,3.17,0,0,1-2.52,1.06c-1.83,0-3-1.09-3-3.53,0-2.24,1.08-3.53,2.83-3.53s2.83,1.27,2.83,3.35V315Zm3.43-1.91a1.77,1.77,0,0,0-3.22,0,2.62,2.62,0,0,0-.21,1.15h3.65A2.76,2.76,0,0,0,165.21,313.07Zm5.53,5.17a3.78,3.78,0,0,1-2.83-1l.67-.68a2.86,2.86,0,0,0,2.15.8c1.14,0,1.83-.4,1.83-1.22,0-.61-.34-.94-1.15-1l-1.13-.09c-1.35-.12-2.06-.7-2.06-1.85s1.05-2,2.53-2a3.91,3.91,0,0,1,2.48.74l-.66.66a2.92,2.92,0,0,0-1.83-.55c-1,0-1.54.42-1.54,1.14s.38.92,1.23,1l1.08.1c1.2.11,2,.56,2,1.86S172.42,318.24,170.74,318.24Zm4.72-8.94v-1.13h1.13v1.13Zm0,8.86v-6.9h1v6.9Zm8-.7a2.67,2.67,0,0,1-2,.78,2.63,2.63,0,0,1-2-.78,3.73,3.73,0,0,1-.84-2.75,3.69,3.69,0,0,1,.84-2.75,2.63,2.63,0,0,1,2-.78,2.67,2.67,0,0,1,2,.78,3.69,3.69,0,0,1,.84,2.75A3.73,3.73,0,0,1,183.47,317.46Zm-.72-4.88a1.83,1.83,0,0,0-2.51,0,4.33,4.33,0,0,0,0,4.26,1.83,1.83,0,0,0,2.51,0,4.4,4.4,0,0,0,0-4.26Zm5.43,5.58a1.65,1.65,0,0,1-1.75-1.84v-8.14h1v8.1c0,.67.22,1,.93,1h.54v.87Zm6.7-.7a2.67,2.67,0,0,1-2,.78,2.63,2.63,0,0,1-2-.78,3.73,3.73,0,0,1-.84-2.75,3.69,3.69,0,0,1,.84-2.75,2.63,2.63,0,0,1,2-.78,2.67,2.67,0,0,1,2,.78,3.69,3.69,0,0,1,.84,2.75A3.73,3.73,0,0,1,194.88,317.46Zm-.72-4.88a1.83,1.83,0,0,0-2.51,0,4.33,4.33,0,0,0,0,4.26,1.83,1.83,0,0,0,2.51,0,4.4,4.4,0,0,0,0-4.26Zm5.92,8.74a3,3,0,0,1-2.34-.92l.66-.65a2.14,2.14,0,0,0,1.66.69c1.33,0,1.89-.94,1.89-2.12v-1.07a2.23,2.23,0,0,1-1.94.89,2.36,2.36,0,0,1-1.66-.61,5.34,5.34,0,0,1,0-5.75,2.41,2.41,0,0,1,1.68-.6,2.17,2.17,0,0,1,1.93.9v-.82h1v7.11A2.75,2.75,0,0,1,200.08,321.32Zm.16-9.24c-1.5,0-1.73,1.28-1.73,2.57s.23,2.58,1.73,2.58,1.71-1.29,1.71-2.58S201.74,312.08,200.24,312.08Zm5.18-2.78v-1.13h1.13v1.13Zm.05,8.86v-6.9h1v6.9Zm5.7.08a3.78,3.78,0,0,1-2.83-1l.67-.68a2.87,2.87,0,0,0,2.15.8c1.15,0,1.83-.4,1.83-1.22,0-.61-.33-.94-1.15-1l-1.13-.09c-1.35-.12-2.06-.7-2.06-1.85s1-2,2.54-2a3.9,3.9,0,0,1,2.47.74l-.65.66a2.93,2.93,0,0,0-1.84-.55c-1,0-1.54.42-1.54,1.14s.38.92,1.23,1l1.08.1c1.21.11,2,.56,2,1.86S212.85,318.24,211.17,318.24Zm6.57-.08a1.69,1.69,0,0,1-1.77-1.85V312h-.87v-.77H216v-2.11h1v2.11h1.47V312H217v4.25c0,.63.29,1,.94,1h.53v.87Zm7.43-6.13v6.13h-1V312h-.88v-.77h.88V310a1.68,1.68,0,0,1,1.75-1.85h.73V309h-.55c-.64,0-.92.38-.92,1v1.23h1.47V312Zm7,.55a1.44,1.44,0,0,0-1.19-.5,1.68,1.68,0,0,0-1.66,1.85v4.23h-1v-6.9h1v.84a2.34,2.34,0,0,1,1.94-.92,2.12,2.12,0,0,1,1.65.64Zm6.06,4.88a2.67,2.67,0,0,1-2,.78,2.63,2.63,0,0,1-2-.78,3.73,3.73,0,0,1-.84-2.75,3.69,3.69,0,0,1,.84-2.75,2.63,2.63,0,0,1,2-.78,2.67,2.67,0,0,1,2,.78,3.69,3.69,0,0,1,.84,2.75A3.73,3.73,0,0,1,238.25,317.46Zm-.72-4.88a1.7,1.7,0,0,0-1.26-.5,1.66,1.66,0,0,0-1.24.5,4.33,4.33,0,0,0,0,4.26,1.66,1.66,0,0,0,1.24.5,1.7,1.7,0,0,0,1.26-.5,4.4,4.4,0,0,0,0-4.26Zm12.56,5.58v-4.25a1.71,1.71,0,1,0-3.41-.11v4.36h-1v-4.25a1.6,1.6,0,0,0-1.7-1.83,1.63,1.63,0,0,0-1.72,1.83v4.25h-1v-6.9h1V312a2.52,2.52,0,0,1,1.95-.84,2.26,2.26,0,0,1,2.11,1.15,2.63,2.63,0,0,1,2.27-1.15,2.54,2.54,0,0,1,1.78.64,2.57,2.57,0,0,1,.74,1.92v4.42Zm13.16-1.06a3.3,3.3,0,0,1-2.62,1.06h-3.42v-10h3.42a3.3,3.3,0,0,1,2.62,1.05c.88.95.88,2.41.88,3.94S264.13,316.15,263.25,317.1Zm-.84-7.24a2.48,2.48,0,0,0-2-.72h-2.17v8.06h2.17a2.48,2.48,0,0,0,2-.73c.65-.68.66-1.91.66-3.3S263.06,310.55,262.41,309.86Zm4.68,5.12c0,1.51.7,2.38,2,2.38a2.23,2.23,0,0,0,1.8-.79l.69.61a3.17,3.17,0,0,1-2.52,1.06c-1.84,0-3-1.09-3-3.53,0-2.24,1.08-3.53,2.83-3.53s2.83,1.27,2.83,3.35V315Zm3.43-1.91a1.74,1.74,0,0,0-1.61-1,1.72,1.72,0,0,0-1.61,1,2.49,2.49,0,0,0-.21,1.15h3.65A2.76,2.76,0,0,0,270.52,313.07Zm5.53,5.17a3.78,3.78,0,0,1-2.83-1l.67-.68a2.85,2.85,0,0,0,2.14.8c1.15,0,1.84-.4,1.84-1.22,0-.61-.34-.94-1.15-1l-1.14-.09c-1.34-.12-2.06-.7-2.06-1.85s1.06-2,2.54-2a3.93,3.93,0,0,1,2.48.74l-.66.66a2.92,2.92,0,0,0-1.83-.55c-1,0-1.55.42-1.55,1.14s.38.92,1.24,1l1.08.1c1.2.11,2,.56,2,1.86S277.73,318.24,276.05,318.24ZM26.92,332.16v-7.58l-2.73,6h-.91l-2.77-6v7.58H19.44v-10h1.07l3.25,7.08,3.16-7.08H28v10Zm8.19-.7a2.89,2.89,0,0,1-3.95,0,3.73,3.73,0,0,1-.84-2.75,3.69,3.69,0,0,1,.84-2.75,2.89,2.89,0,0,1,3.95,0,3.69,3.69,0,0,1,.84,2.75A3.73,3.73,0,0,1,35.11,331.46Zm-.71-4.88a1.72,1.72,0,0,0-1.26-.5,1.7,1.7,0,0,0-1.25.5,4.33,4.33,0,0,0,0,4.26,1.7,1.7,0,0,0,1.25.5,1.72,1.72,0,0,0,1.26-.5,4.47,4.47,0,0,0,0-4.26Zm3.65-3.28v-1.13h1.13v1.13Zm.05,8.86v-6.9h1v6.9Zm7.94,0v-4.25a1.6,1.6,0,0,0-1.69-1.83,1.62,1.62,0,0,0-1.71,1.83v4.25h-1v-6.9h1V326a2.48,2.48,0,0,1,1.93-.84,2.41,2.41,0,0,1,1.77.64,2.55,2.55,0,0,1,.71,1.92v4.42ZM50.13,329c0,1.51.7,2.38,2,2.38a2.27,2.27,0,0,0,1.81-.79l.69.61a3.18,3.18,0,0,1-2.53,1.06c-1.83,0-3-1.09-3-3.53,0-2.24,1.08-3.53,2.83-3.53s2.83,1.27,2.83,3.35V329Zm3.43-1.91a1.77,1.77,0,0,0-3.22,0,2.62,2.62,0,0,0-.21,1.15h3.66A2.75,2.75,0,0,0,53.56,327.07Zm5.53,5.17a3.8,3.8,0,0,1-2.83-1l.67-.68a2.87,2.87,0,0,0,2.15.8c1.15,0,1.83-.4,1.83-1.22,0-.61-.33-.94-1.15-1l-1.13-.09c-1.34-.12-2.06-.7-2.06-1.85s1-2,2.54-2a3.93,3.93,0,0,1,2.48.74l-.66.66a2.93,2.93,0,0,0-1.84-.55c-1,0-1.54.42-1.54,1.14s.38.92,1.23,1l1.08.1c1.21.11,2,.56,2,1.86S60.77,332.24,59.09,332.24Zm4.75,1.93v-3.25h1.23v2.15Zm7.39-2v-10h1.06v10Zm8.19-.7a2.89,2.89,0,0,1-4,0,3.73,3.73,0,0,1-.84-2.75,3.69,3.69,0,0,1,.84-2.75,2.89,2.89,0,0,1,4,0,3.69,3.69,0,0,1,.84,2.75A3.73,3.73,0,0,1,79.42,331.46Zm-.71-4.88a1.72,1.72,0,0,0-1.26-.5,1.7,1.7,0,0,0-1.25.5,4.33,4.33,0,0,0,0,4.26,1.7,1.7,0,0,0,1.25.5,1.72,1.72,0,0,0,1.26-.5,4.47,4.47,0,0,0,0-4.26Zm10.12,5.58h-.94l-1.81-5.35-1.79,5.35h-.94l-2.18-6.9h1.09l1.58,5.54,1.81-5.54h.87l1.82,5.54,1.57-5.54H91Zm7.42,0v-.66a3.18,3.18,0,0,1-3.94.11,1.93,1.93,0,0,1-.52-1.4c0-1.22.86-2,2.4-2h2.06v-.66c0-1-.49-1.51-1.77-1.51a1.82,1.82,0,0,0-1.73.8l-.69-.63a2.65,2.65,0,0,1,2.44-1c1.86,0,2.76.81,2.76,2.3v4.68Zm0-3.18H94.33c-1,0-1.56.4-1.56,1.21s.49,1.18,1.6,1.18a2.1,2.1,0,0,0,1.53-.46,1.6,1.6,0,0,0,.35-1.19Z"/><path class="cls-2" d="M313.45,94.62h-6.83v8.56l2.54.15L306,112.62h2.54l4.91-10.55Zm10.55,0h-6.83v8.56l2.49.15-3.17,9.29H319l5-10.55ZM10.55,18.12h6.83V9.57l-2.54-.15L18,.12H15.46L10.55,10.67ZM0,18.12H6.83V9.57L4.35,9.42,7.51.12H5L0,10.67Zm313.45,305.3h-6.83V332l2.54.15-3.16,9.3h2.54l4.91-10.55Zm10.55,0h-6.83V332l2.48.15-3.16,9.3H319l5-10.55ZM10.55,249.92h6.83v-8.56l-2.54-.15L18,231.92H15.46l-4.91,10.54ZM0,249.92H6.83v-8.56l-2.48-.15,3.16-9.29H5L0,242.46Z"/></g></g></svg>
