<svg xmlns="http://www.w3.org/2000/svg" viewBox="0 0 495.806 528.187"><g data-name="Layer 2"><path d="M35.848 61.333V50.317a11.93 11.93 0 0 1 .684-4.464 11.671 11.671 0 0 1 9.54-7.632v4.752a6.36 6.36 0 0 0-3.744 2.772 9.231 9.231 0 0 0-1.008 4.5h4.752v11.088zm15.336 0V50.317a11.92 11.92 0 0 1 .684-4.464 11.601 11.601 0 0 1 2.124-3.672 11.783 11.783 0 0 1 7.416-3.96v4.752a6.36 6.36 0 0 0-3.744 2.772 9.231 9.231 0 0 0-1.008 4.5h4.752v11.088zm254.122 120.888v11.016a11.958 11.958 0 0 1-.685 4.464 11.595 11.595 0 0 1-2.124 3.672 11.779 11.779 0 0 1-7.416 3.96v-4.752a6.367 6.367 0 0 0 3.744-2.772 9.24 9.24 0 0 0 1.008-4.5h-4.752v-11.088zm15.335 0v11.016a11.956 11.956 0 0 1-.684 4.464 11.595 11.595 0 0 1-2.124 3.672 11.779 11.779 0 0 1-7.416 3.96v-4.752a6.367 6.367 0 0 0 3.744-2.772 9.24 9.24 0 0 0 1.008-4.5h-4.752v-11.088zM35.848 293.334v-11.016a11.935 11.935 0 0 1 .684-4.465 11.672 11.672 0 0 1 9.54-7.632v4.752a6.363 6.363 0 0 0-3.744 2.773 9.232 9.232 0 0 0-1.008 4.5h4.752v11.088zm15.336 0v-11.016a11.925 11.925 0 0 1 .684-4.465 11.599 11.599 0 0 1 2.124-3.672 11.783 11.783 0 0 1 7.416-3.96v4.752a6.362 6.362 0 0 0-3.744 2.773 9.232 9.232 0 0 0-1.008 4.5h4.752v11.088zM385.512 414.22v11.017a11.956 11.956 0 0 1-.684 4.464 11.668 11.668 0 0 1-9.54 7.632v-4.752a6.362 6.362 0 0 0 3.744-2.773 9.239 9.239 0 0 0 1.008-4.5h-4.752v-11.088zm15.336 0v11.017a11.956 11.956 0 0 1-.684 4.464 11.668 11.668 0 0 1-9.54 7.632v-4.752a6.363 6.363 0 0 0 3.744-2.773 9.24 9.24 0 0 0 1.008-4.5h-4.752v-11.088z" fill="#4559a8"/><path d="M87.433 74.63H76.707V49H87c5.004 0 7.919 2.808 7.919 7.2a5.927 5.927 0 0 1-3.167 5.292 5.954 5.954 0 0 1 3.528 5.758c0 4.787-3.276 7.38-7.848 7.38zm-.828-21.166H81.71v5.903h4.895c2.124 0 3.312-1.188 3.312-2.952s-1.188-2.951-3.312-2.951zm.325 10.403h-5.22v6.299h5.22a3.155 3.155 0 1 0 0-6.3zm16.776 2.843a3.837 3.837 0 0 0 4.104 4.175 5.3 5.3 0 0 0 4.247-1.763l2.844 2.771a8.817 8.817 0 0 1-7.127 2.952c-4.427 0-8.675-2.016-8.675-9.611 0-6.12 3.311-9.575 8.17-9.575 5.22 0 8.172 3.744 8.172 9.071v1.98zm6.695-5.22a3.494 3.494 0 0 0-6.263 0 4.602 4.602 0 0 0-.432 2.016h7.127a4.595 4.595 0 0 0-.432-2.015zm15.229 13.14a5.086 5.086 0 0 1-5.436-5.364v-9.287h-1.98v-3.564h1.98v-5.543h4.68v5.543h3.312v3.564h-3.312v8.999c0 1.08.504 1.692 1.62 1.692h1.692v3.96zm25.63 0h-3.852l-3.923-11.77-3.924 11.77h-3.851l-5.76-18.754h4.967l3.024 11.59 3.816-11.59h3.42l3.85 11.59 3.024-11.59h4.932zm12.025-7.92a3.837 3.837 0 0 0 4.104 4.175 5.3 5.3 0 0 0 4.247-1.763l2.843 2.771a8.817 8.817 0 0 1-7.127 2.952c-4.427 0-8.675-2.016-8.675-9.611 0-6.12 3.312-9.575 8.171-9.575 5.22 0 8.171 3.744 8.171 9.071v1.98zm6.695-5.219a3.494 3.494 0 0 0-6.263 0 4.595 4.595 0 0 0-.432 2.016h7.127a4.595 4.595 0 0 0-.432-2.016zm13.032 5.219a3.837 3.837 0 0 0 4.104 4.175 5.3 5.3 0 0 0 4.248-1.763l2.843 2.771a8.817 8.817 0 0 1-7.127 2.952c-4.427 0-8.675-2.016-8.675-9.61 0-6.12 3.312-9.576 8.171-9.576 5.22 0 8.171 3.744 8.171 9.071v1.98zm6.695-5.22a3.494 3.494 0 0 0-6.263 0 4.595 4.595 0 0 0-.432 2.016h7.127a4.595 4.595 0 0 0-.432-2.015zm20.268 13.139V63.29c0-2.556-1.62-3.42-3.096-3.42s-3.131.864-3.131 3.42v11.338h-4.68V55.876h4.572v1.727a6.417 6.417 0 0 1 4.68-1.944 6.09 6.09 0 0 1 4.427 1.656 6.95 6.95 0 0 1 1.908 5.328v11.986zm31.535-3.636v3.636h-4.499v-3.636h-10.475v-4.427L235.32 49h5.111l-8.782 17.566h5.363v-4.787h4.499v4.787h2.34v4.427zm13.25 3.852c-4.175 0-7.812-2.735-7.812-7.63v-10.8c0-4.895 3.637-7.63 7.812-7.63s7.775 2.735 7.775 7.63v10.8c0 4.895-3.6 7.63-7.775 7.63zm3.096-18.358c0-2.16-1.224-3.491-3.095-3.491s-3.132 1.332-3.132 3.491v10.691c0 2.16 1.26 3.455 3.132 3.455s3.095-1.295 3.095-3.455zm23.508 18.142a5.086 5.086 0 0 1-5.435-5.363v-9.287h-1.98v-3.564h1.98v-5.543h4.68v5.543h3.311v3.564h-3.312v8.999c0 1.08.504 1.692 1.62 1.692h1.692v3.96zm19.582-2.088a7.834 7.834 0 0 1-5.831 2.304 7.744 7.744 0 0 1-5.795-2.304c-1.692-1.8-2.124-3.923-2.124-7.307s.432-5.471 2.124-7.27a8.486 8.486 0 0 1 11.626 0c1.692 1.8 2.124 3.887 2.124 7.27s-.396 5.544-2.124 7.307zM297.31 60.7a3.277 3.277 0 0 0-4.355 0c-.972.936-1.08 2.627-1.08 4.535 0 1.944.108 3.636 1.08 4.572a3.279 3.279 0 0 0 4.355 0c.973-.936 1.08-2.628 1.08-4.572 0-1.908-.107-3.599-1.08-4.535zm25.669 14.146c-4.535 0-7.991-2.843-7.991-7.919 0-2.34 1.008-4.5 2.16-6.839l5.4-11.087h5.111l-5.327 10.583a5.066 5.066 0 0 1 1.907-.324c3.456 0 6.732 2.844 6.732 7.595 0 5.04-3.457 7.991-7.992 7.991zm0-11.698c-1.908 0-3.312 1.367-3.312 3.743s1.404 3.743 3.312 3.743 3.312-1.367 3.312-3.743c0-2.268-1.332-3.743-3.312-3.743zm19.62 11.698c-4.176 0-7.811-2.735-7.811-7.63v-10.8c0-4.895 3.635-7.63 7.811-7.63s7.774 2.735 7.774 7.63v10.8c0 4.895-3.599 7.63-7.774 7.63zm3.096-18.358c0-2.16-1.225-3.491-3.096-3.491s-3.132 1.332-3.132 3.491v10.691c0 2.16 1.26 3.455 3.132 3.455s3.096-1.295 3.096-3.455zM44.955 113.63v-1.764a5.63 5.63 0 0 1-4.644 1.98 6.316 6.316 0 0 1-4.571-1.69c-1.8-1.837-1.944-4.752-1.944-7.92 0-3.132.144-6.047 1.944-7.883a6.226 6.226 0 0 1 4.535-1.692 5.617 5.617 0 0 1 4.572 1.872V88h4.68v25.629zm-3.312-14.758c-2.808 0-3.168 2.34-3.168 5.363s.36 5.4 3.168 5.4 3.203-2.376 3.203-5.4-.395-5.363-3.203-5.363zm16.812 6.839a3.837 3.837 0 0 0 4.104 4.175 5.3 5.3 0 0 0 4.247-1.763l2.844 2.771a8.817 8.817 0 0 1-7.127 2.952c-4.428 0-8.675-2.016-8.675-9.611 0-6.12 3.311-9.575 8.17-9.575 5.22 0 8.172 3.744 8.172 9.071v1.98zm6.695-5.219a3.494 3.494 0 0 0-6.263 0 4.602 4.602 0 0 0-.432 2.016h7.127a4.595 4.595 0 0 0-.432-2.016zm15.229 13.138a5.086 5.086 0 0 1-5.436-5.363v-9.287h-1.98v-3.564h1.98v-5.543h4.68v5.543h3.312v3.564h-3.312v8.999c0 1.08.504 1.692 1.62 1.692h1.692v3.96zm16.27 0v-1.62a5.7 5.7 0 0 1-4.608 1.8 6.486 6.486 0 0 1-4.787-1.656 6.01 6.01 0 0 1-1.548-4.212c0-2.987 2.052-5.435 6.48-5.435h4.355v-.936c0-2.051-1.008-2.951-3.492-2.951a4.149 4.149 0 0 0-3.6 1.62l-2.951-2.916c1.835-2.016 3.6-2.664 6.73-2.664 5.292 0 7.992 2.232 7.992 6.623v12.347zm-.108-7.919h-3.563c-1.872 0-2.772.756-2.772 2.16 0 1.296.9 2.124 2.844 2.124a3.562 3.562 0 0 0 2.772-.9 2.9 2.9 0 0 0 .72-2.376zm15.876 8.135c-2.952 0-5.579-.324-7.99-2.7l3.06-3.06a6.763 6.763 0 0 0 5.003 1.765c1.62 0 3.312-.54 3.312-1.944 0-.936-.468-1.584-1.98-1.728l-3.024-.288c-3.311-.324-5.4-1.8-5.4-5.255 0-3.924 3.42-5.975 7.236-5.975 2.952 0 5.363.54 7.163 2.195l-2.88 2.916a6.459 6.459 0 0 0-4.355-1.26c-1.872 0-2.664.864-2.664 1.8s.54 1.476 1.944 1.62l2.952.288c3.707.36 5.579 2.304 5.579 5.507 0 4.14-3.528 6.119-7.955 6.119zm17.892 0c-2.952 0-5.58-.324-7.991-2.7l3.06-3.06a6.763 6.763 0 0 0 5.003 1.764c1.62 0 3.312-.54 3.312-1.944 0-.936-.468-1.584-1.98-1.728l-3.023-.287c-3.312-.324-5.4-1.8-5.4-5.255 0-3.924 3.42-5.976 7.236-5.976 2.952 0 5.363.54 7.163 2.196l-2.88 2.916a6.459 6.459 0 0 0-4.355-1.26c-1.872 0-2.664.864-2.664 1.8s.54 1.476 1.944 1.62l2.951.288c3.708.36 5.58 2.304 5.58 5.507 0 4.14-3.528 6.119-7.956 6.119zm17.172-.216a5.096 5.096 0 0 1-5.472-5.363V88h4.68v19.978c0 1.115.468 1.692 1.655 1.692h1.8v3.959zm9.72-7.919a3.837 3.837 0 0 0 4.103 4.176 5.3 5.3 0 0 0 4.247-1.764l2.844 2.771a8.817 8.817 0 0 1-7.127 2.952c-4.427 0-8.675-2.016-8.675-9.61 0-6.12 3.312-9.576 8.17-9.576 5.22 0 8.172 3.744 8.172 9.071v1.98zm6.694-5.219a3.494 3.494 0 0 0-6.263 0 4.602 4.602 0 0 0-.432 2.016h7.127a4.595 4.595 0 0 0-.43-2.016zm19.548-.504a3.128 3.128 0 0 0-5.507 2.34v11.302h-4.68V94.876h4.572v1.799a6.35 6.35 0 0 1 4.715-2.016 5.658 5.658 0 0 1 4.427 1.764zm12.024 13.858c-2.952 0-5.579-.324-7.99-2.7l3.06-3.06a6.763 6.763 0 0 0 5.003 1.765c1.62 0 3.312-.54 3.312-1.944 0-.936-.468-1.584-1.98-1.728l-3.024-.288c-3.312-.324-5.4-1.8-5.4-5.255 0-3.924 3.42-5.975 7.236-5.975 2.952 0 5.363.54 7.163 2.195l-2.88 2.916a6.459 6.459 0 0 0-4.355-1.26c-1.872 0-2.664.864-2.664 1.8s.54 1.476 1.944 1.62l2.952.288c3.707.36 5.579 2.304 5.579 5.507 0 4.14-3.527 6.119-7.955 6.119zm29.844-.216v-1.62a5.7 5.7 0 0 1-4.608 1.8 6.486 6.486 0 0 1-4.787-1.656 6.01 6.01 0 0 1-1.548-4.212c0-2.987 2.052-5.435 6.479-5.435h4.355v-.936c0-2.051-1.007-2.951-3.49-2.951a4.149 4.149 0 0 0-3.6 1.62l-2.952-2.916c1.835-2.016 3.6-2.664 6.73-2.664 5.292 0 7.992 2.232 7.992 6.623v12.347zm-.109-7.919h-3.562c-1.871 0-2.772.756-2.772 2.16 0 1.296.9 2.124 2.844 2.124a3.562 3.562 0 0 0 2.772-.9 2.9 2.9 0 0 0 .72-2.376zm19.909-5.723a3.128 3.128 0 0 0-5.508 2.34v11.302h-4.679V94.876h4.571v1.799a6.348 6.348 0 0 1 4.715-2.016 5.66 5.66 0 0 1 4.428 1.764zm8.783 5.723a3.837 3.837 0 0 0 4.104 4.176 5.302 5.302 0 0 0 4.248-1.764l2.844 2.771a8.82 8.82 0 0 1-7.128 2.952c-4.427 0-8.675-2.016-8.675-9.61 0-6.12 3.311-9.576 8.17-9.576 5.22 0 8.173 3.744 8.173 9.071v1.98zm6.696-5.219a3.494 3.494 0 0 0-6.263 0 4.595 4.595 0 0 0-.433 2.016h7.128a4.595 4.595 0 0 0-.431-2.016zm23.87 13.354c-2.952 0-5.58-.324-7.991-2.7l3.06-3.06a6.762 6.762 0 0 0 5.003 1.764c1.62 0 3.311-.54 3.311-1.944 0-.936-.468-1.584-1.98-1.728l-3.023-.287c-3.312-.324-5.4-1.8-5.4-5.255 0-3.924 3.42-5.976 7.236-5.976 2.951 0 5.363.54 7.163 2.196l-2.88 2.916a6.459 6.459 0 0 0-4.355-1.26c-1.873 0-2.664.864-2.664 1.8s.54 1.476 1.944 1.62l2.951.288c3.708.36 5.58 2.304 5.58 5.507 0 4.14-3.529 6.119-7.955 6.119zm25.63-1.691a6.285 6.285 0 0 1-4.535 1.691 5.502 5.502 0 0 1-4.536-1.872v8.531h-4.679V94.876h4.535v1.763a5.657 5.657 0 0 1 4.68-1.98 6.284 6.284 0 0 1 4.535 1.692c1.8 1.836 1.944 4.752 1.944 7.883s-.145 6.084-1.944 7.92zm-5.903-13.283c-2.808 0-3.168 2.34-3.168 5.363s.36 5.4 3.168 5.4 3.168-2.376 3.168-5.4-.361-5.363-3.169-5.363zm22.5 1.116a3.128 3.128 0 0 0-5.508 2.34v11.302H316.5V94.876h4.571v1.799a6.348 6.348 0 0 1 4.715-2.016 5.659 5.659 0 0 1 4.428 1.764zm15.48 13.642v-1.62a5.699 5.699 0 0 1-4.608 1.8 6.486 6.486 0 0 1-4.787-1.656 6.01 6.01 0 0 1-1.548-4.212c0-2.987 2.052-5.435 6.48-5.435h4.355v-.936c0-2.051-1.008-2.951-3.492-2.951a4.15 4.15 0 0 0-3.6 1.62l-2.952-2.916c1.836-2.016 3.6-2.664 6.732-2.664 5.29 0 7.99 2.232 7.99 6.623v12.347zm-.108-7.919h-3.564c-1.872 0-2.772.756-2.772 2.16 0 1.296.9 2.124 2.844 2.124a3.56 3.56 0 0 0 2.771-.9 2.9 2.9 0 0 0 .72-2.376zm16.56 10.943a6.66 6.66 0 0 1-1.404 2.412 5.421 5.421 0 0 1-4.03 1.44h-1.837v-4.212h1.08a2.024 2.024 0 0 0 2.34-1.692l.791-2.304-6.407-17.421h4.932l3.887 11.59 3.744-11.59h4.931zm14.146-10.943a3.837 3.837 0 0 0 4.104 4.175 5.302 5.302 0 0 0 4.248-1.763l2.844 2.771a8.82 8.82 0 0 1-7.127 2.952c-4.428 0-8.676-2.016-8.676-9.611 0-6.12 3.312-9.575 8.17-9.575 5.22 0 8.173 3.744 8.173 9.071v1.98zm6.696-5.22a3.494 3.494 0 0 0-6.263 0 4.596 4.596 0 0 0-.433 2.016h7.128a4.595 4.595 0 0 0-.432-2.015zm19.727 13.139v-1.764a5.63 5.63 0 0 1-4.643 1.98 6.316 6.316 0 0 1-4.572-1.691c-1.8-1.836-1.943-4.752-1.943-7.92 0-3.13.144-6.046 1.943-7.882a6.227 6.227 0 0 1 4.537-1.692 5.619 5.619 0 0 1 4.57 1.872V88h4.68v25.629zm-3.311-14.758c-2.808 0-3.167 2.34-3.167 5.363s.36 5.4 3.167 5.4 3.204-2.376 3.204-5.4-.397-5.363-3.204-5.363zm35.243 13.283a6.285 6.285 0 0 1-4.535 1.691 5.657 5.657 0 0 1-4.68-1.98v1.764h-4.535V88h4.679v8.531a5.501 5.501 0 0 1 4.536-1.872 6.226 6.226 0 0 1 4.535 1.692c1.8 1.836 1.943 4.752 1.943 7.883 0 3.168-.143 6.084-1.943 7.92zm-5.903-13.283c-2.808 0-3.168 2.34-3.168 5.363s.36 5.4 3.168 5.4 3.168-2.376 3.168-5.4-.36-5.363-3.168-5.363zm19.296 17.782a6.661 6.661 0 0 1-1.404 2.412 5.422 5.422 0 0 1-4.031 1.44h-1.836v-4.212h1.08a2.024 2.024 0 0 0 2.34-1.692l.791-2.304-6.407-17.421h4.931l3.888 11.59 3.743-11.59h4.932zm-396.175 34.5a6.287 6.287 0 0 1-4.535 1.692 5.5 5.5 0 0 1-4.536-1.872v8.531h-4.68v-25.628h4.536v1.763a5.657 5.657 0 0 1 4.68-1.98 6.285 6.285 0 0 1 4.535 1.692c1.8 1.836 1.944 4.752 1.944 7.883s-.144 6.084-1.944 7.92zm-5.903-13.282c-2.808 0-3.168 2.34-3.168 5.363s.36 5.4 3.168 5.4 3.167-2.376 3.167-5.4-.36-5.363-3.167-5.363zm15.985 6.839a3.837 3.837 0 0 0 4.104 4.175 5.3 5.3 0 0 0 4.247-1.763l2.843 2.771a8.817 8.817 0 0 1-7.127 2.952c-4.427 0-8.674-2.016-8.674-9.611 0-6.12 3.311-9.575 8.17-9.575 5.22 0 8.171 3.744 8.171 9.071v1.98zm6.695-5.22a3.494 3.494 0 0 0-6.263 0 4.595 4.595 0 0 0-.432 2.016h7.127a4.595 4.595 0 0 0-.432-2.015zm15.516 13.355c-2.952 0-5.58-.324-7.99-2.7l3.06-3.06a6.763 6.763 0 0 0 5.003 1.764c1.62 0 3.311-.54 3.311-1.944 0-.936-.468-1.584-1.98-1.728l-3.024-.287c-3.312-.324-5.4-1.8-5.4-5.255 0-3.924 3.42-5.975 7.236-5.975 2.952 0 5.363.54 7.163 2.195l-2.88 2.916a6.459 6.459 0 0 0-4.356-1.26c-1.871 0-2.663.864-2.663 1.8s.54 1.476 1.944 1.62l2.951.288c3.708.36 5.58 2.304 5.58 5.507 0 4.14-3.528 6.119-7.955 6.119zm17.424-.216a5.086 5.086 0 0 1-5.436-5.363v-9.287h-1.98v-3.564h1.98v-5.543h4.68v5.543h3.311v3.564h-3.311v8.999c0 1.08.503 1.691 1.62 1.691h1.691v3.96zm6.732-21.957v-3.816h4.788v3.816zm.072 21.957v-18.214h4.68v18.214zm17.35.216c-3.743 0-8.386-2.016-8.386-9.611s4.643-9.575 8.387-9.575a7.987 7.987 0 0 1 6.191 2.52l-3.168 3.168a3.787 3.787 0 0 0-3.023-1.476 3.245 3.245 0 0 0-2.664 1.224 6.356 6.356 0 0 0-1.044 4.139 6.471 6.471 0 0 0 1.044 4.176 3.247 3.247 0 0 0 2.664 1.223 3.787 3.787 0 0 0 3.023-1.475l3.168 3.131a8.015 8.015 0 0 1-6.192 2.556zm9.758-22.173v-3.816h4.787v3.816zm.072 21.957v-18.214h4.68v18.214zm20.266 0v-1.764a5.63 5.63 0 0 1-4.643 1.98 6.316 6.316 0 0 1-4.572-1.691c-1.8-1.836-1.943-4.752-1.943-7.92 0-3.13.144-6.046 1.943-7.882a6.226 6.226 0 0 1 4.536-1.692 5.617 5.617 0 0 1 4.57 1.872V127h4.68v25.629zm-3.312-14.758c-2.807 0-3.167 2.34-3.167 5.363s.36 5.4 3.167 5.4 3.204-2.376 3.204-5.4-.396-5.363-3.204-5.363zm16.813 6.839a3.837 3.837 0 0 0 4.103 4.175 5.3 5.3 0 0 0 4.248-1.763l2.843 2.771a8.817 8.817 0 0 1-7.127 2.952c-4.427 0-8.675-2.016-8.675-9.61 0-6.12 3.312-9.576 8.171-9.576 5.22 0 8.171 3.744 8.171 9.071v1.98zm6.694-5.219a3.494 3.494 0 0 0-6.263 0 4.595 4.595 0 0 0-.432 2.016h7.127a4.595 4.595 0 0 0-.432-2.016zm25.164 13.354c-3.743 0-8.387-2.016-8.387-9.61s4.644-9.576 8.387-9.576a7.987 7.987 0 0 1 6.191 2.52l-3.167 3.168a3.787 3.787 0 0 0-3.024-1.476 3.245 3.245 0 0 0-2.663 1.224 6.355 6.355 0 0 0-1.045 4.14A6.47 6.47 0 0 0 195 147.41a3.247 3.247 0 0 0 2.664 1.224 3.787 3.787 0 0 0 3.024-1.476l3.167 3.131a8.015 8.015 0 0 1-6.19 2.556zm20.016-13.858a3.128 3.128 0 0 0-5.507 2.34v11.302h-4.68v-18.753h4.571v1.799a6.35 6.35 0 0 1 4.716-2.016 5.658 5.658 0 0 1 4.427 1.764zm18.071 11.554a7.836 7.836 0 0 1-5.832 2.304 7.744 7.744 0 0 1-5.795-2.304c-1.692-1.8-2.123-3.923-2.123-7.307s.431-5.471 2.123-7.27a8.487 8.487 0 0 1 11.627 0c1.692 1.8 2.123 3.887 2.123 7.27s-.395 5.544-2.123 7.307zm-3.635-11.842a3.277 3.277 0 0 0-4.356 0c-.972.936-1.08 2.627-1.08 4.535 0 1.944.108 3.636 1.08 4.572a3.279 3.279 0 0 0 4.356 0c.971-.936 1.08-2.628 1.08-4.572 0-1.908-.109-3.599-1.08-4.535zm23.976 12.455a6.286 6.286 0 0 1-4.536 1.691 5.504 5.504 0 0 1-4.536-1.872v8.531h-4.679v-25.628h4.535v1.763a5.659 5.659 0 0 1 4.68-1.98 6.284 6.284 0 0 1 4.536 1.692c1.8 1.836 1.943 4.752 1.943 7.883s-.144 6.084-1.943 7.92zm-5.904-13.283c-2.808 0-3.168 2.34-3.168 5.363s.36 5.4 3.168 5.4 3.168-2.376 3.168-5.4-.36-5.363-3.168-5.363zm34.415 13.283a6.285 6.285 0 0 1-4.535 1.691 5.502 5.502 0 0 1-4.536-1.872v8.531h-4.679v-25.628h4.536v1.763a5.657 5.657 0 0 1 4.68-1.98 6.284 6.284 0 0 1 4.535 1.692c1.8 1.836 1.943 4.752 1.943 7.883s-.144 6.084-1.944 7.92zM278.7 137.87c-2.808 0-3.168 2.34-3.168 5.363s.36 5.4 3.168 5.4 3.168-2.376 3.168-5.4-.36-5.363-3.168-5.363zm17.604 14.758a5.096 5.096 0 0 1-5.472-5.363V127h4.68v19.978c0 1.115.468 1.691 1.656 1.691h1.8v3.96zm16.019 0v-1.62a5.698 5.698 0 0 1-4.607 1.8 6.486 6.486 0 0 1-4.788-1.656 6.01 6.01 0 0 1-1.547-4.212c0-2.987 2.051-5.435 6.48-5.435h4.355v-.936c0-2.051-1.008-2.951-3.493-2.951a4.15 4.15 0 0 0-3.6 1.62l-2.95-2.916c1.835-2.016 3.6-2.664 6.73-2.664 5.292 0 7.99 2.232 7.99 6.623v12.347zm-.107-7.919h-3.564c-1.872 0-2.772.756-2.772 2.16 0 1.296.9 2.124 2.843 2.124a3.56 3.56 0 0 0 2.772-.9 2.9 2.9 0 0 0 .72-2.376zm20.627 7.92v-11.34c0-2.555-1.62-3.42-3.096-3.42s-3.132.865-3.132 3.42v11.34h-4.679v-18.754h4.572v1.727a6.417 6.417 0 0 1 4.68-1.944 6.089 6.089 0 0 1 4.426 1.656 6.95 6.95 0 0 1 1.909 5.328v11.986zm13.392-7.92a3.837 3.837 0 0 0 4.104 4.175 5.302 5.302 0 0 0 4.248-1.763l2.844 2.771a8.82 8.82 0 0 1-7.128 2.952c-4.427 0-8.675-2.016-8.675-9.61 0-6.12 3.311-9.576 8.17-9.576 5.22 0 8.173 3.744 8.173 9.071v1.98zm6.695-5.219a3.494 3.494 0 0 0-6.262 0 4.595 4.595 0 0 0-.433 2.016h7.128a4.596 4.596 0 0 0-.433-2.016zm15.517 13.354c-2.952 0-5.58-.324-7.991-2.7l3.06-3.06a6.762 6.762 0 0 0 5.003 1.764c1.62 0 3.311-.54 3.311-1.944 0-.936-.467-1.584-1.98-1.728l-3.023-.288c-3.312-.324-5.4-1.8-5.4-5.255 0-3.924 3.42-5.975 7.236-5.975 2.951 0 5.363.54 7.163 2.195l-2.88 2.916a6.459 6.459 0 0 0-4.356-1.26c-1.872 0-2.663.864-2.663 1.8s.54 1.476 1.944 1.62l2.951.288c3.708.36 5.58 2.304 5.58 5.507 0 4.14-3.528 6.12-7.955 6.12zm20.16-22.173v-3.816h4.787v3.816zm.072 21.957v-18.214h4.68v18.214zm20.807 0v-11.338c0-2.556-1.62-3.42-3.096-3.42s-3.132.864-3.132 3.42v11.338h-4.678v-18.753h4.571v1.727a6.416 6.416 0 0 1 4.68-1.944 6.089 6.089 0 0 1 4.427 1.656 6.95 6.95 0 0 1 1.908 5.328v11.986zm-374.538 39V166h5.003v25.629zm23.578-2.088a7.834 7.834 0 0 1-5.831 2.304 7.745 7.745 0 0 1-5.796-2.304c-1.692-1.8-2.123-3.923-2.123-7.307s.431-5.471 2.123-7.27a7.747 7.747 0 0 1 5.796-2.305 7.701 7.701 0 0 1 5.83 2.304c1.693 1.8 2.125 3.888 2.125 7.271s-.396 5.544-2.124 7.307zM54.89 177.7a2.959 2.959 0 0 0-2.196-.828 2.929 2.929 0 0 0-2.16.828c-.972.936-1.08 2.627-1.08 4.535 0 1.944.108 3.636 1.08 4.572a2.93 2.93 0 0 0 2.16.827 2.96 2.96 0 0 0 2.196-.827c.972-.936 1.08-2.628 1.08-4.572 0-1.908-.108-3.599-1.08-4.535zm28.907 13.93h-3.851l-3.924-11.77-3.923 11.77h-3.852l-5.759-18.753h4.967l3.024 11.59 3.816-11.59h3.42l3.85 11.59 3.024-11.59h4.932zm17.965 0v-1.62a5.699 5.699 0 0 1-4.608 1.8 6.486 6.486 0 0 1-4.787-1.656 6.01 6.01 0 0 1-1.548-4.212c0-2.987 2.052-5.435 6.48-5.435h4.355v-.936c0-2.051-1.008-2.951-3.492-2.951a4.148 4.148 0 0 0-3.6 1.62l-2.95-2.916c1.835-2.016 3.6-2.664 6.73-2.664 5.292 0 7.991 2.232 7.991 6.623v12.347zm-.108-7.919H98.09c-1.872 0-2.772.756-2.772 2.16 0 1.296.9 2.124 2.843 2.124a3.562 3.562 0 0 0 2.772-.9 2.9 2.9 0 0 0 .72-2.376zm21.744 0a3.837 3.837 0 0 0 4.104 4.175 5.3 5.3 0 0 0 4.247-1.763l2.844 2.771a8.817 8.817 0 0 1-7.127 2.952c-4.427 0-8.675-2.016-8.675-9.611 0-6.12 3.311-9.575 8.17-9.575 5.22 0 8.172 3.744 8.172 9.071v1.98zm6.695-5.22a3.494 3.494 0 0 0-6.263 0 4.602 4.602 0 0 0-.432 2.017h7.127a4.595 4.595 0 0 0-.431-2.016zm17.46 13.139h-3.671l-6.911-18.753h4.93l3.817 11.59 3.779-11.59h4.931zm12.96-7.919a3.837 3.837 0 0 0 4.104 4.175 5.3 5.3 0 0 0 4.247-1.763l2.843 2.771a8.817 8.817 0 0 1-7.127 2.952c-4.427 0-8.674-2.016-8.674-9.611 0-6.12 3.311-9.575 8.17-9.575 5.22 0 8.171 3.744 8.171 9.071v1.98zm6.695-5.22a3.494 3.494 0 0 0-6.263 0 4.602 4.602 0 0 0-.432 2.017h7.127a4.595 4.595 0 0 0-.431-2.016zm19.548-.503a3.128 3.128 0 0 0-5.508 2.34v11.302h-4.68v-18.753h4.572v1.799a6.35 6.35 0 0 1 4.716-2.016 5.658 5.658 0 0 1 4.427 1.764zm13.175 16.666a6.675 6.675 0 0 1-1.403 2.412 5.423 5.423 0 0 1-4.032 1.439h-1.835v-4.211h1.08a2.023 2.023 0 0 0 2.34-1.692l.791-2.304-6.407-17.421h4.931l3.888 11.59 3.744-11.59h4.93zm26.136 0a6.66 6.66 0 0 1-1.404 2.412 5.422 5.422 0 0 1-4.031 1.439h-1.836v-4.211h1.08a2.023 2.023 0 0 0 2.34-1.692l.792-2.304-6.407-17.421h4.93l3.888 11.59 3.744-11.59h4.931zm14.113-10.943a3.837 3.837 0 0 0 4.104 4.175 5.304 5.304 0 0 0 4.248-1.763l2.844 2.771a8.821 8.821 0 0 1-7.129 2.952c-4.426 0-8.675-2.016-8.675-9.611 0-6.12 3.312-9.575 8.171-9.575 5.22 0 8.173 3.744 8.173 9.071v1.98zm6.695-5.22a3.494 3.494 0 0 0-6.262 0 4.595 4.595 0 0 0-.433 2.016h7.128a4.595 4.595 0 0 0-.433-2.015zm18.973 13.139v-1.62a5.699 5.699 0 0 1-4.608 1.8 6.486 6.486 0 0 1-4.787-1.656 6.01 6.01 0 0 1-1.548-4.212c0-2.987 2.052-5.435 6.48-5.435h4.355v-.936c0-2.052-1.008-2.951-3.492-2.951a4.15 4.15 0 0 0-3.6 1.62l-2.951-2.916c1.836-2.016 3.6-2.664 6.731-2.664 5.291 0 7.99 2.232 7.99 6.623v12.347zm-.108-7.919h-3.563c-1.873 0-2.773.756-2.773 2.16 0 1.296.9 2.123 2.844 2.123a3.56 3.56 0 0 0 2.771-.9 2.9 2.9 0 0 0 .721-2.375zm19.907-5.723a3.129 3.129 0 0 0-5.508 2.34v11.302h-4.678v-18.753h4.571v1.799a6.348 6.348 0 0 1 4.715-2.016 5.659 5.659 0 0 1 4.428 1.764zM33.025 227.324v-.953h10.674v.952zm22.473 3.305l-.798-2.255h-4.357l-.798 2.255H48.41l3.67-9.973h.896l3.657 9.973zm-2.956-8.447l-1.877 5.268h3.726zm9.926 8.447v-4.244a1.605 1.605 0 0 0-1.694-1.835 1.62 1.62 0 0 0-1.71 1.835v4.244h-1.008v-6.891h1.009v.756a2.483 2.483 0 0 1 1.933-.84 2.417 2.417 0 0 1 1.765.644 2.547 2.547 0 0 1 .714 1.919v4.412zm5.67 3.166a3.042 3.042 0 0 1-2.339-.925l.658-.644a2.123 2.123 0 0 0 1.653.686c1.33 0 1.891-.938 1.891-2.115v-1.078a2.22 2.22 0 0 1-1.933.896 2.37 2.37 0 0 1-1.667-.616 5.326 5.326 0 0 1 0-5.743 2.4 2.4 0 0 1 1.681-.602 2.172 2.172 0 0 1 1.933.896v-.812h.995v7.101a2.742 2.742 0 0 1-2.872 2.956zm.154-9.245c-1.498 0-1.723 1.289-1.723 2.577s.225 2.578 1.723 2.578 1.71-1.29 1.71-2.578-.211-2.577-1.71-2.577zm5.179-2.773v-1.135h1.135v1.135zm.056 8.852v-6.891h1.008v6.891zm4.158-3.18c0 1.513.7 2.381 2.032 2.381a2.263 2.263 0 0 0 1.806-.784l.687.602a3.177 3.177 0 0 1-2.522 1.065c-1.835 0-3.011-1.093-3.011-3.53 0-2.241 1.078-3.53 2.83-3.53 1.792 0 2.83 1.274 2.83 3.347v.449zm3.432-1.905a1.77 1.77 0 0 0-3.222 0 2.628 2.628 0 0 0-.21 1.149h3.656a2.83 2.83 0 0 0-.224-1.149zm8.188 5.169a3.008 3.008 0 0 1-2.283-.897l.715-.714a1.944 1.944 0 0 0 1.569.658c1.302 0 2.044-.826 2.044-2.297v-6.808h1.065v6.948a2.933 2.933 0 0 1-3.11 3.11zm6.3-3.264c0 1.513.7 2.381 2.032 2.381a2.263 2.263 0 0 0 1.806-.784l.687.602a3.177 3.177 0 0 1-2.522 1.065c-1.835 0-3.011-1.093-3.011-3.53 0-2.241 1.078-3.53 2.83-3.53 1.793 0 2.83 1.274 2.83 3.347v.449zm3.432-1.905a1.77 1.77 0 0 0-3.222 0 2.63 2.63 0 0 0-.21 1.149h3.656a2.83 2.83 0 0 0-.225-1.149zm9.844 5.085h-.939l-1.807-5.351-1.793 5.35h-.938l-2.185-6.89h1.091l1.583 5.532 1.807-5.533h.868l1.822 5.533 1.569-5.533h1.092zm4.084-3.18c0 1.512.7 2.381 2.031 2.381a2.263 2.263 0 0 0 1.807-.785l.687.603a3.178 3.178 0 0 1-2.522 1.064c-1.835 0-3.011-1.092-3.011-3.53 0-2.24 1.078-3.53 2.83-3.53 1.792 0 2.83 1.275 2.83 3.348v.448zm3.432-1.906a1.77 1.77 0 0 0-3.222 0 2.63 2.63 0 0 0-.21 1.15h3.655a2.824 2.824 0 0 0-.224-1.149zm5.291 5.085a1.69 1.69 0 0 1-1.765-1.849v-4.272h-.868v-.77h.868v-2.116h1.009v2.116h1.47v.77h-1.47v4.244c0 .63.294 1.009.938 1.009h.532v.868zm4.648 0a1.69 1.69 0 0 1-1.766-1.848v-4.272h-.869v-.77h.869v-2.116h1.009v2.116h1.471v.77h-1.47v4.244c0 .63.293 1.009.938 1.009h.532v.868zm2.687 2.017v-3.25h1.232v2.145zm7.392-2.017v-9.973h1.064v9.973zm8.192-.7a2.88 2.88 0 0 1-3.95 0 4.905 4.905 0 0 1 0-5.491 2.88 2.88 0 0 1 3.95 0 4.906 4.906 0 0 1 0 5.491zm-.715-4.875a1.733 1.733 0 0 0-1.26-.504 1.7 1.7 0 0 0-1.247.504 4.324 4.324 0 0 0 0 4.259 1.7 1.7 0 0 0 1.246.504 1.732 1.732 0 0 0 1.261-.504 3.02 3.02 0 0 0 .546-2.13 2.983 2.983 0 0 0-.547-2.128zm10.124 5.575h-.938l-1.808-5.35-1.793 5.35h-.938l-2.185-6.891h1.092l1.583 5.533 1.807-5.533h.869l1.82 5.533 1.57-5.533h1.092zm7.419 0v-.658a3.17 3.17 0 0 1-3.937.112 1.926 1.926 0 0 1-.518-1.4c0-1.22.855-1.99 2.396-1.99h2.059v-.658c0-.994-.49-1.513-1.766-1.513a1.844 1.844 0 0 0-1.736.798l-.687-.63a2.651 2.651 0 0 1 2.438-1.036c1.862 0 2.759.813 2.759 2.297v4.679zm0-3.18h-1.92q-1.554 0-1.555 1.22c0 .797.49 1.176 1.598 1.176a2.074 2.074 0 0 0 1.526-.463 1.591 1.591 0 0 0 .35-1.19zm9.687 3.264a4.317 4.317 0 0 1-3.404-1.316l.714-.715a3.413 3.413 0 0 0 2.717 1.078c1.471 0 2.368-.672 2.368-1.848a1.566 1.566 0 0 0-.49-1.247 2.149 2.149 0 0 0-1.303-.49l-1.163-.168a3.509 3.509 0 0 1-1.82-.757 2.376 2.376 0 0 1-.77-1.877c0-1.694 1.218-2.801 3.193-2.801a4.06 4.06 0 0 1 2.97 1.092l-.686.687a3.096 3.096 0 0 0-2.326-.869c-1.344 0-2.115.743-2.115 1.863a1.472 1.472 0 0 0 .448 1.163 2.687 2.687 0 0 0 1.303.518l1.163.182a3.008 3.008 0 0 1 1.806.715 2.512 2.512 0 0 1 .841 1.96c-.001 1.752-1.36 2.831-3.447 2.831zm7.419-.084a1.69 1.69 0 0 1-1.765-1.85v-4.271h-.869v-.77h.869v-2.116h1.009v2.115h1.47v.771h-1.471v4.244c0 .63.294 1.008.939 1.008h.532v.869zm6.567 0v-.658a3.17 3.17 0 0 1-3.936.112 1.924 1.924 0 0 1-.519-1.401c0-1.219.855-1.989 2.396-1.989h2.059v-.659c0-.994-.49-1.512-1.765-1.512a1.844 1.844 0 0 0-1.737.798l-.687-.63a2.651 2.651 0 0 1 2.438-1.036c1.863 0 2.76.812 2.76 2.297v4.678zm0-3.18h-1.92q-1.554 0-1.554 1.219c0 .798.49 1.176 1.597 1.176a2.074 2.074 0 0 0 1.527-.462 1.594 1.594 0 0 0 .35-1.19zm5.389 3.18a1.69 1.69 0 0 1-1.766-1.85v-4.271h-.868v-.77h.869v-2.116h1.008v2.115h1.47v.771h-1.47v4.244c0 .63.294 1.008.939 1.008h.532v.869zm3.289-3.18c0 1.513.7 2.381 2.03 2.381a2.263 2.263 0 0 0 1.807-.784l.687.602a3.178 3.178 0 0 1-2.521 1.065c-1.835 0-3.012-1.093-3.012-3.53 0-2.242 1.078-3.53 2.83-3.53 1.793 0 2.83 1.274 2.83 3.347v.448zm3.431-1.905a1.77 1.77 0 0 0-3.221 0 2.628 2.628 0 0 0-.21 1.149h3.655a2.824 2.824 0 0 0-.224-1.148zm10.36 5.169a3.292 3.292 0 0 1-3.474-3.376v-6.682h1.064v6.598a2.418 2.418 0 1 0 4.833 0v-6.598h1.065v6.682a3.304 3.304 0 0 1-3.489 3.377zm10.458-.084v-4.243a1.605 1.605 0 0 0-1.695-1.835 1.62 1.62 0 0 0-1.709 1.835v4.244h-1.008v-6.891h1.008v.756a2.483 2.483 0 0 1 1.933-.84 2.417 2.417 0 0 1 1.766.644 2.547 2.547 0 0 1 .714 1.919v4.412zm3.4-8.853v-1.135h1.135v1.135zm.056 8.853v-6.892h1.009v6.892zm5.84 0h-.897l-2.521-6.892h1.092l1.877 5.533 1.891-5.533h1.093zm4.45-3.18c0 1.512.7 2.38 2.032 2.38a2.263 2.263 0 0 0 1.806-.784l.687.603a3.177 3.177 0 0 1-2.522 1.064c-1.835 0-3.011-1.093-3.011-3.53 0-2.241 1.078-3.53 2.83-3.53 1.792 0 2.83 1.275 2.83 3.348v.448zm3.432-1.906a1.77 1.77 0 0 0-3.222 0 2.628 2.628 0 0 0-.21 1.15h3.656a2.83 2.83 0 0 0-.225-1.148zm7.21-.49a1.442 1.442 0 0 0-1.19-.504 1.683 1.683 0 0 0-1.654 1.849v4.23h-1.009v-6.892h1.008v.84a2.316 2.316 0 0 1 1.933-.924 2.122 2.122 0 0 1 1.653.644zm4.087 5.66a3.756 3.756 0 0 1-2.83-.995l.673-.673a2.85 2.85 0 0 0 2.143.8c1.149 0 1.836-.407 1.836-1.22 0-.616-.337-.938-1.15-1.008l-1.135-.098c-1.344-.112-2.059-.7-2.059-1.849 0-1.26 1.05-2.017 2.535-2.017a3.897 3.897 0 0 1 2.48.742l-.658.658a2.943 2.943 0 0 0-1.835-.546c-1.008 0-1.54.42-1.54 1.135 0 .616.377.924 1.232 1.008l1.078.099c1.205.111 2.032.56 2.032 1.862 0 1.333-1.122 2.103-2.803 2.103zm4.717-8.937v-1.135h1.135v1.135zm.056 8.852v-6.891h1.009v6.891zm5.46 0a1.69 1.69 0 0 1-1.764-1.849v-4.272h-.869v-.77h.868v-2.115h1.009v2.115h1.47v.77h-1.47v4.244c0 .63.294 1.009.939 1.009h.532v.868zm4.425 1.667a2.021 2.021 0 0 1-.49.813 1.893 1.893 0 0 1-1.345.476h-.435v-.897h.309c.7 0 .91-.224 1.135-.854l.49-1.345-2.48-6.751h1.093l1.89 5.533 1.877-5.533h1.093zm8.216-1.667v-9.973h6.192v.952h-5.126v3.517h4.37v.952h-4.37v3.6h5.126v.953zm17.072 0v-4.242a1.711 1.711 0 1 0-3.418-.112v4.356h-1.008v-4.244a1.605 1.605 0 0 0-1.695-1.835 1.63 1.63 0 0 0-1.723 1.835v4.244h-1.009v-6.891h1.009v.756a2.513 2.513 0 0 1 1.946-.84 2.271 2.271 0 0 1 2.115 1.148 2.639 2.639 0 0 1 2.27-1.148 2.512 2.512 0 0 1 1.78.644 2.564 2.564 0 0 1 .742 1.919v4.412zm4.083-3.18c0 1.513.7 2.382 2.03 2.382a2.264 2.264 0 0 0 1.809-.785l.685.603a3.175 3.175 0 0 1-2.52 1.064c-1.835 0-3.012-1.093-3.012-3.53 0-2.241 1.079-3.53 2.83-3.53 1.792 0 2.83 1.274 2.83 3.348v.448zm3.432-1.905a1.77 1.77 0 0 0-3.221 0 2.62 2.62 0 0 0-.211 1.149h3.656a2.831 2.831 0 0 0-.224-1.147zm7.21-.49a1.441 1.441 0 0 0-1.19-.504 1.683 1.683 0 0 0-1.653 1.849v4.23h-1.009v-6.892h1.009v.84a2.315 2.315 0 0 1 1.932-.924 2.124 2.124 0 0 1 1.654.644zm3.834 8.74a3.042 3.042 0 0 1-2.339-.924l.659-.644a2.122 2.122 0 0 0 1.653.686c1.33 0 1.89-.938 1.89-2.115v-1.078a2.22 2.22 0 0 1-1.932.896 2.369 2.369 0 0 1-1.667-.616 5.324 5.324 0 0 1 0-5.743 2.4 2.4 0 0 1 1.68-.602 2.17 2.17 0 0 1 1.933.896v-.812h.995v7.101a2.742 2.742 0 0 1-2.873 2.958zm.155-9.244c-1.5 0-1.723 1.289-1.723 2.577s.223 2.578 1.722 2.578 1.71-1.29 1.71-2.578-.211-2.575-1.71-2.575zm5.865 2.9c0 1.512.7 2.38 2.031 2.38a2.264 2.264 0 0 0 1.808-.784l.685.603a3.175 3.175 0 0 1-2.52 1.064c-1.835 0-3.012-1.093-3.012-3.53 0-2.241 1.078-3.53 2.83-3.53 1.792 0 2.83 1.275 2.83 3.348v.448zm3.432-1.906a1.77 1.77 0 0 0-3.221 0 2.62 2.62 0 0 0-.211 1.15h3.655a2.831 2.831 0 0 0-.223-1.148zm7.77 5.085v-4.242a1.604 1.604 0 0 0-1.694-1.835 1.62 1.62 0 0 0-1.71 1.835v4.244h-1.009v-6.891h1.009v.756a2.482 2.482 0 0 1 1.932-.84 2.416 2.416 0 0 1 1.765.644 2.547 2.547 0 0 1 .715 1.919v4.412zm6.13.084c-1.737 0-3.053-1.177-3.053-3.53s1.316-3.53 3.054-3.53a2.727 2.727 0 0 1 2.268 1.023l-.686.644a1.89 1.89 0 0 0-1.582-.77 1.869 1.869 0 0 0-1.598.784 4.039 4.039 0 0 0 0 3.698 1.869 1.869 0 0 0 1.598.784 1.905 1.905 0 0 0 1.582-.784l.686.658a2.727 2.727 0 0 1-2.269 1.025zm5.894 1.583a2.02 2.02 0 0 1-.49.813 1.893 1.893 0 0 1-1.344.476h-.435v-.897h.308c.7 0 .91-.224 1.135-.854l.49-1.345-2.48-6.751h1.093l1.89 5.532 1.878-5.532h1.092zm15.698-1.667v-7.576l-2.732 6.01h-.91l-2.773-6.01v7.578h-1.066v-9.973h1.066l3.249 7.074 3.166-7.075h1.064v9.974zm7.67 0v-.658a3.17 3.17 0 0 1-3.937.112 1.927 1.927 0 0 1-.518-1.401c0-1.218.854-1.989 2.395-1.989h2.06v-.659c0-.994-.49-1.512-1.765-1.512a1.844 1.844 0 0 0-1.737.798l-.686-.63a2.651 2.651 0 0 1 2.437-1.036c1.863 0 2.76.813 2.76 2.297v4.679zm0-3.18h-1.92q-1.555 0-1.554 1.219c0 .798.49 1.177 1.597 1.177a2.073 2.073 0 0 0 1.526-.463 1.591 1.591 0 0 0 .35-1.19zm7.867 3.18v-4.242a1.604 1.604 0 0 0-1.695-1.835 1.62 1.62 0 0 0-1.709 1.835v4.244h-1.008v-6.891h1.008v.756a2.482 2.482 0 0 1 1.933-.84 2.416 2.416 0 0 1 1.765.644 2.547 2.547 0 0 1 .715 1.919v4.412zm7.364 0v-.658a3.17 3.17 0 0 1-3.937.112 1.927 1.927 0 0 1-.517-1.401c0-1.218.855-1.989 2.394-1.989h2.06v-.659c0-.994-.49-1.512-1.764-1.512a1.844 1.844 0 0 0-1.738.798l-.686-.63a2.651 2.651 0 0 1 2.437-1.036c1.864 0 2.76.813 2.76 2.297v4.679zm0-3.18h-1.92q-1.556 0-1.555 1.219c0 .798.49 1.177 1.597 1.177a2.074 2.074 0 0 0 1.526-.463 1.591 1.591 0 0 0 .351-1.19zm5.668 6.345a3.042 3.042 0 0 1-2.339-.924l.658-.645a2.122 2.122 0 0 0 1.654.687c1.33 0 1.89-.938 1.89-2.115v-1.079a2.22 2.22 0 0 1-1.932.897 2.369 2.369 0 0 1-1.667-.617 5.324 5.324 0 0 1 0-5.743 2.4 2.4 0 0 1 1.68-.602 2.17 2.17 0 0 1 1.933.897v-.813h.995v7.102a2.742 2.742 0 0 1-2.873 2.958zm.154-9.244c-1.499 0-1.722 1.288-1.722 2.577s.223 2.577 1.722 2.577 1.71-1.289 1.71-2.577-.212-2.575-1.71-2.575zm5.866 2.9c0 1.512.7 2.38 2.03 2.38a2.264 2.264 0 0 0 1.808-.784l.686.602a3.175 3.175 0 0 1-2.52 1.065c-1.836 0-3.012-1.093-3.012-3.53 0-2.241 1.078-3.53 2.829-3.53 1.793 0 2.83 1.274 2.83 3.347v.449zm3.432-1.906a1.77 1.77 0 0 0-3.222 0 2.62 2.62 0 0 0-.21 1.149h3.656a2.831 2.831 0 0 0-.225-1.147zm12.21 5.085v-4.242a1.711 1.711 0 1 0-3.418-.112v4.356h-1.008v-4.244a1.605 1.605 0 0 0-1.695-1.835 1.63 1.63 0 0 0-1.723 1.835v4.244h-1.008v-6.891h1.008v.756a2.512 2.512 0 0 1 1.947-.84 2.271 2.271 0 0 1 2.115 1.148 2.639 2.639 0 0 1 2.27-1.148 2.512 2.512 0 0 1 1.78.644 2.564 2.564 0 0 1 .741 1.919v4.412zm4.083-3.18c0 1.512.701 2.381 2.031 2.381a2.265 2.265 0 0 0 1.808-.785l.686.603a3.175 3.175 0 0 1-2.52 1.064c-1.835 0-3.012-1.092-3.012-3.53 0-2.24 1.078-3.53 2.829-3.53 1.793 0 2.83 1.275 2.83 3.348v.448zm3.433-1.906a1.77 1.77 0 0 0-3.222 0 2.62 2.62 0 0 0-.21 1.15h3.655a2.833 2.833 0 0 0-.224-1.147zm7.77 5.085v-4.241a1.604 1.604 0 0 0-1.695-1.835 1.62 1.62 0 0 0-1.709 1.835v4.244h-1.009v-6.891h1.01v.756a2.482 2.482 0 0 1 1.932-.84 2.416 2.416 0 0 1 1.764.644 2.547 2.547 0 0 1 .715 1.919v4.412zm5.388 0a1.69 1.69 0 0 1-1.765-1.849v-4.272h-.869v-.77h.868v-2.115h1.009v2.115h1.47v.77h-1.47v4.244c0 .63.294 1.009.938 1.009h.533v.868zm-330.478 76v-10.723H81.71v10.727h-5.003V281h5.003v10.475h8.675v-10.474h5.003v25.629zm21.42 0V304.9a6.417 6.417 0 0 1-4.68 1.943 6.09 6.09 0 0 1-4.427-1.655 6.952 6.952 0 0 1-1.908-5.328v-11.983h4.68v11.339c0 2.555 1.62 3.42 3.095 3.42s3.132-.865 3.132-3.42v-11.34h4.68v18.755zm31.642 0v-11.335c0-2.556-1.62-3.42-3.095-3.42a3.021 3.021 0 0 0-3.132 3.312v11.447h-4.68v-11.34c0-2.555-1.62-3.418-3.095-3.418s-3.132.863-3.132 3.419v11.339h-4.68v-18.754h4.572v1.728a6.559 6.559 0 0 1 4.68-1.944 5.809 5.809 0 0 1 4.967 2.376 7.15 7.15 0 0 1 5.615-2.376 6.54 6.54 0 0 1 4.607 1.656 7.068 7.068 0 0 1 2.052 5.327v11.987zm19.333 0v-1.62a5.699 5.699 0 0 1-4.607 1.8 6.484 6.484 0 0 1-4.787-1.655 6.01 6.01 0 0 1-1.548-4.212c0-2.987 2.052-5.435 6.48-5.435h4.355v-.936c0-2.052-1.008-2.951-3.492-2.951a4.149 4.149 0 0 0-3.6 1.62l-2.951-2.916c1.835-2.016 3.6-2.664 6.73-2.664 5.292 0 7.992 2.231 7.992 6.623v12.35zm-.107-7.919h-3.564c-1.872 0-2.772.756-2.772 2.16 0 1.295.9 2.124 2.844 2.124a3.564 3.564 0 0 0 2.772-.9 2.902 2.902 0 0 0 .72-2.376zm20.628 7.92V295.29c0-2.556-1.62-3.42-3.096-3.42s-3.132.864-3.132 3.42v11.339h-4.68v-18.754h4.572v1.728a6.417 6.417 0 0 1 4.68-1.944 6.09 6.09 0 0 1 4.427 1.656 6.949 6.949 0 0 1 1.908 5.327v11.987zm31.823-1.476a6.285 6.285 0 0 1-4.536 1.691 5.5 5.5 0 0 1-4.535-1.872v8.531h-4.68v-25.625h4.536v1.763a5.657 5.657 0 0 1 4.68-1.98 6.289 6.289 0 0 1 4.535 1.692c1.8 1.836 1.944 4.752 1.944 7.884s-.145 6.083-1.945 7.919zm-5.904-13.282c-2.807 0-3.167 2.34-3.167 5.363s.36 5.4 3.167 5.4 3.168-2.377 3.168-5.4-.36-5.36-3.168-5.36zm22.5 1.115a3.129 3.129 0 0 0-5.507 2.34v11.306h-4.68v-18.754h4.572v1.8a6.346 6.346 0 0 1 4.715-2.016 5.657 5.657 0 0 1 4.427 1.764zm18.107 11.554a7.836 7.836 0 0 1-5.831 2.304 7.745 7.745 0 0 1-5.795-2.304c-1.692-1.8-2.124-3.923-2.124-7.306s.432-5.472 2.124-7.272a8.486 8.486 0 0 1 11.626 0c1.692 1.8 2.124 3.888 2.124 7.272s-.397 5.546-2.124 7.31zm-3.636-11.842a3.28 3.28 0 0 0-4.355 0c-.972.936-1.08 2.628-1.08 4.536 0 1.943.108 3.636 1.08 4.571a3.277 3.277 0 0 0 4.355 0c.973-.935 1.08-2.628 1.08-4.571 0-1.905-.108-3.597-1.08-4.533zm17.678 14.15c-3.744 0-8.388-2.016-8.388-9.61s4.644-9.576 8.388-9.576a7.987 7.987 0 0 1 6.19 2.52l-3.167 3.168a3.786 3.786 0 0 0-3.023-1.476 3.244 3.244 0 0 0-2.664 1.224 6.354 6.354 0 0 0-1.044 4.14 6.467 6.467 0 0 0 1.044 4.175 3.245 3.245 0 0 0 2.664 1.224 3.787 3.787 0 0 0 3.023-1.476l3.167 3.131a8.015 8.015 0 0 1-6.19 2.555zm12.995-8.135a3.838 3.838 0 0 0 4.104 4.176 5.304 5.304 0 0 0 4.248-1.764l2.843 2.771a8.82 8.82 0 0 1-7.126 2.951c-4.428 0-8.676-2.015-8.676-9.61 0-6.119 3.311-9.575 8.17-9.575 5.22 0 8.173 3.743 8.173 9.072v1.98zm6.695-5.22a3.494 3.494 0 0 0-6.262 0 4.602 4.602 0 0 0-.433 2.015h7.128a4.6 4.6 0 0 0-.433-2.015zm15.517 13.354c-2.952 0-5.58-.324-7.991-2.7l3.06-3.06a6.761 6.761 0 0 0 5.003 1.765c1.62 0 3.311-.54 3.311-1.945 0-.935-.468-1.583-1.98-1.727l-3.023-.288c-3.311-.325-5.4-1.8-5.4-5.255 0-3.924 3.42-5.976 7.236-5.976 2.951 0 5.363.54 7.163 2.196l-2.88 2.915a6.46 6.46 0 0 0-4.355-1.26c-1.872 0-2.663.865-2.663 1.8s.539 1.476 1.943 1.62l2.951.289c3.708.359 5.58 2.303 5.58 5.506 0 4.141-3.528 6.12-7.955 6.12zm17.892 0c-2.953 0-5.58-.324-7.992-2.7l3.06-3.06a6.761 6.761 0 0 0 5.003 1.765c1.62 0 3.312-.54 3.312-1.944 0-.936-.468-1.583-1.98-1.728l-3.024-.288c-3.311-.324-5.4-1.8-5.4-5.255 0-3.924 3.42-5.975 7.236-5.975 2.951 0 5.363.54 7.163 2.196l-2.88 2.915a6.459 6.459 0 0 0-4.355-1.26c-1.872 0-2.663.864-2.663 1.8s.539 1.476 1.943 1.62l2.951.288c3.708.36 5.58 2.304 5.58 5.507 0 4.14-3.528 6.12-7.954 6.12zm11.808-22.173v-3.815h4.787v3.815zm.072 21.957v-18.213h4.68v18.214zm20.806 0v-11.338c0-2.556-1.62-3.42-3.096-3.42s-3.131.864-3.131 3.42v11.339h-4.68v-18.754h4.572v1.728a6.417 6.417 0 0 1 4.68-1.944 6.09 6.09 0 0 1 4.427 1.656 6.95 6.95 0 0 1 1.908 5.327v11.987zm16.2 7.091c-2.879 0-4.86-.575-6.803-2.447l2.916-2.952a4.775 4.775 0 0 0 3.671 1.44c2.808 0 3.78-1.98 3.78-3.888v-1.908a5.494 5.494 0 0 1-4.464 1.872 6.244 6.244 0 0 1-4.463-1.655c-1.764-1.765-1.908-4.176-1.908-7.452s.144-5.651 1.908-7.415a6.33 6.33 0 0 1 4.5-1.656 5.492 5.492 0 0 1 4.57 1.98v-1.764h4.536v18.07c0 4.5-3.203 7.776-8.243 7.776zm.469-21.849c-2.773 0-3.06 2.375-3.06 4.86s.287 4.895 3.06 4.895 3.096-2.412 3.096-4.895-.325-4.86-3.096-4.86zM44.954 345.63v-1.764a5.631 5.631 0 0 1-4.643 1.98 6.314 6.314 0 0 1-4.571-1.692c-1.8-1.836-1.943-4.752-1.943-7.919 0-3.132.144-6.048 1.943-7.884a6.23 6.23 0 0 1 4.536-1.691 5.617 5.617 0 0 1 4.571 1.872v-8.531h4.68v25.629zm-3.311-14.758c-2.808 0-3.168 2.34-3.168 5.364s.36 5.399 3.168 5.399 3.204-2.376 3.204-5.4-.397-5.363-3.204-5.363zm23.328 1.116a3.129 3.129 0 0 0-5.508 2.34v11.302h-4.68v-18.754h4.572v1.8a6.348 6.348 0 0 1 4.715-2.016 5.656 5.656 0 0 1 4.428 1.764zm18.106 11.554a7.835 7.835 0 0 1-5.83 2.304 7.747 7.747 0 0 1-5.796-2.304c-1.692-1.8-2.124-3.924-2.124-7.306s.432-5.472 2.124-7.272a8.486 8.486 0 0 1 11.626 0c1.692 1.8 2.125 3.888 2.125 7.271s-.397 5.543-2.125 7.307zM79.442 331.7a2.962 2.962 0 0 0-2.196-.827 2.933 2.933 0 0 0-2.16.827c-.972.936-1.08 2.628-1.08 4.536 0 1.943.108 3.636 1.08 4.571a2.93 2.93 0 0 0 2.16.829 2.96 2.96 0 0 0 2.196-.829c.972-.935 1.08-2.627 1.08-4.57 0-1.91-.108-3.6-1.08-4.537zm23.975 12.455a6.285 6.285 0 0 1-4.535 1.692 5.5 5.5 0 0 1-4.536-1.873v8.532h-4.68v-25.63h4.536v1.764a5.657 5.657 0 0 1 4.68-1.98 6.289 6.289 0 0 1 4.535 1.692c1.8 1.836 1.944 4.752 1.944 7.884s-.144 6.083-1.944 7.919zm-5.903-13.282c-2.808 0-3.167 2.34-3.167 5.363s.36 5.4 3.167 5.4 3.167-2.376 3.167-5.4-.36-5.363-3.167-5.363zm18.468 14.973c-2.951 0-5.579-.324-7.99-2.699l3.06-3.06a6.762 6.762 0 0 0 5.003 1.764c1.62 0 3.311-.54 3.311-1.945 0-.935-.467-1.582-1.98-1.727l-3.023-.288c-3.312-.324-5.4-1.8-5.4-5.255 0-3.924 3.42-5.976 7.236-5.976 2.952 0 5.363.54 7.163 2.197l-2.88 2.915a6.459 6.459 0 0 0-4.355-1.26c-1.872 0-2.664.864-2.664 1.8s.54 1.475 1.944 1.62l2.951.288c3.708.36 5.58 2.304 5.58 5.507 0 4.14-3.528 6.12-7.956 6.12zm26.1-.215a5.086 5.086 0 0 1-5.435-5.364v-9.287h-1.98v-3.563h1.98v-5.543h4.68v5.543h3.311v3.563h-3.312v9c0 1.08.504 1.69 1.62 1.69h1.692v3.96zm19.619-2.088a7.835 7.835 0 0 1-5.831 2.304 7.747 7.747 0 0 1-5.796-2.304c-1.692-1.8-2.123-3.924-2.123-7.307s.431-5.472 2.123-7.271a8.486 8.486 0 0 1 11.627 0c1.692 1.8 2.124 3.887 2.124 7.271s-.396 5.543-2.124 7.307zm-3.635-11.843a2.962 2.962 0 0 0-2.196-.827 2.932 2.932 0 0 0-2.16.827c-.972.937-1.08 2.628-1.08 4.536 0 1.944.108 3.636 1.08 4.571a2.93 2.93 0 0 0 2.16.829 2.96 2.96 0 0 0 2.196-.829c.971-.935 1.08-2.627 1.08-4.57-.001-1.91-.11-3.6-1.08-4.537zm25.631 14.147c-4.175 0-8.099-2.196-8.17-7.56h4.68a3.475 3.475 0 0 0 6.946-.215 3.292 3.292 0 0 0-3.6-3.528h-.684v-4.068h.684a2.94 2.94 0 0 0 3.24-3.203 3.151 3.151 0 1 0-6.3-.18h-4.679c.108-4.572 3.528-7.307 7.847-7.307 4.536 0 7.812 3.023 7.812 7.343a5.472 5.472 0 0 1-2.952 5.256 6.11 6.11 0 0 1 3.311 5.83c0 5.112-3.744 7.632-8.135 7.632zm19.656 0c-4.175 0-7.81-2.736-7.81-7.631v-10.8c0-4.895 3.635-7.63 7.81-7.63s7.776 2.735 7.776 7.63v10.8c0 4.895-3.6 7.63-7.776 7.63zm3.096-18.358c0-2.16-1.224-3.491-3.096-3.491s-3.131 1.33-3.131 3.491v10.69c0 2.16 1.26 3.456 3.131 3.456s3.096-1.296 3.096-3.456zm36.466 18.142h-3.851l-3.924-11.77-3.924 11.77h-3.851l-5.76-18.754h4.969l3.023 11.59 3.815-11.59h3.42l3.85 11.59 3.025-11.59h4.932zm21.313-2.088a7.835 7.835 0 0 1-5.83 2.304 7.746 7.746 0 0 1-5.796-2.304c-1.692-1.8-2.124-3.924-2.124-7.306s.432-5.472 2.124-7.272a8.486 8.486 0 0 1 11.626 0c1.692 1.8 2.124 3.888 2.124 7.271s-.396 5.543-2.124 7.307zm-3.635-11.843a3.28 3.28 0 0 0-4.356 0c-.972.937-1.079 2.628-1.079 4.537 0 1.943.107 3.635 1.08 4.57a3.277 3.277 0 0 0 4.355 0c.972-.935 1.08-2.627 1.08-4.57 0-1.91-.108-3.6-1.08-4.537zm20.412.289a3.129 3.129 0 0 0-5.508 2.34v11.302h-4.679v-18.754h4.571v1.8a6.346 6.346 0 0 1 4.715-2.016 5.657 5.657 0 0 1 4.428 1.764zm15.478 13.642v-1.764a5.632 5.632 0 0 1-4.643 1.98 6.314 6.314 0 0 1-4.572-1.692c-1.8-1.835-1.943-4.751-1.943-7.918 0-3.132.144-6.048 1.943-7.884a6.23 6.23 0 0 1 4.537-1.692 5.619 5.619 0 0 1 4.57 1.872v-8.53h4.68v25.628zm-3.311-14.758c-2.808 0-3.167 2.34-3.167 5.364s.36 5.399 3.167 5.399 3.204-2.376 3.204-5.4-.397-5.363-3.204-5.363zm19.296 14.974c-2.952 0-5.58-.324-7.99-2.7l3.06-3.06a6.761 6.761 0 0 0 5.002 1.764c1.62 0 3.312-.54 3.312-1.944 0-.936-.468-1.583-1.98-1.728l-3.024-.288c-3.311-.324-5.4-1.8-5.4-5.255 0-3.924 3.42-5.975 7.236-5.975 2.951 0 5.363.54 7.163 2.196l-2.88 2.915a6.459 6.459 0 0 0-4.355-1.26c-1.872 0-2.663.864-2.663 1.8s.539 1.476 1.943 1.62l2.951.288c3.708.36 5.58 2.304 5.58 5.507 0 4.14-3.528 6.12-7.954 6.12zm29.843-.216v-1.62a5.698 5.698 0 0 1-4.607 1.8 6.484 6.484 0 0 1-4.787-1.655 6.01 6.01 0 0 1-1.548-4.212c0-2.987 2.052-5.436 6.48-5.436h4.355v-.935c0-2.052-1.007-2.951-3.492-2.951a4.15 4.15 0 0 0-3.6 1.619l-2.951-2.915c1.836-2.016 3.6-2.664 6.731-2.664 5.291 0 7.99 2.231 7.99 6.623v12.346zm-.107-7.919h-3.564c-1.872 0-2.772.756-2.772 2.16 0 1.295.9 2.123 2.843 2.123a3.561 3.561 0 0 0 2.772-.9 2.902 2.902 0 0 0 .72-2.375zm20.627 7.919v-11.34c0-2.555-1.62-3.418-3.096-3.418s-3.132.863-3.132 3.419v11.339h-4.678v-18.754h4.57v1.728a6.417 6.417 0 0 1 4.68-1.944 6.089 6.089 0 0 1 4.428 1.656 6.95 6.95 0 0 1 1.908 5.327v11.987zm20.088 0v-1.764a5.631 5.631 0 0 1-4.644 1.98 6.314 6.314 0 0 1-4.571-1.692c-1.8-1.835-1.943-4.751-1.943-7.918 0-3.132.143-6.048 1.943-7.884a6.23 6.23 0 0 1 4.536-1.692 5.619 5.619 0 0 1 4.571 1.872v-8.531h4.679v25.629zm-3.312-14.758c-2.807 0-3.167 2.34-3.167 5.364s.36 5.399 3.167 5.399 3.204-2.376 3.204-5.4-.396-5.363-3.204-5.363zm28.547 14.974c-4.176 0-8.098-2.195-8.17-7.559h4.68a3.475 3.475 0 0 0 6.946-.216 3.292 3.292 0 0 0-3.6-3.528h-.684v-4.067h.684a2.94 2.94 0 0 0 3.24-3.203 3.15 3.15 0 1 0-6.3-.181h-4.68c.11-4.571 3.528-7.307 7.848-7.307 4.536 0 7.811 3.024 7.811 7.343a5.47 5.47 0 0 1-2.952 5.256 6.11 6.11 0 0 1 3.312 5.831c0 5.11-3.743 7.63-8.135 7.63zm-367.411 39c-2.952 0-5.58-.324-7.99-2.7l3.06-3.06a6.762 6.762 0 0 0 5.003 1.764c1.62 0 3.311-.54 3.311-1.944 0-.936-.468-1.583-1.98-1.728l-3.023-.288c-3.312-.324-5.4-1.8-5.4-5.255 0-3.923 3.42-5.975 7.236-5.975 2.951 0 5.363.54 7.163 2.196l-2.88 2.915a6.459 6.459 0 0 0-4.356-1.26c-1.871 0-2.663.864-2.663 1.8s.54 1.476 1.944 1.62l2.951.288c3.708.36 5.58 2.304 5.58 5.507-.001 4.14-3.528 6.12-7.956 6.12zm15.552-8.135a3.838 3.838 0 0 0 4.104 4.176 5.302 5.302 0 0 0 4.247-1.764l2.844 2.772a8.819 8.819 0 0 1-7.127 2.95c-4.428 0-8.675-2.015-8.675-9.61 0-6.118 3.311-9.574 8.17-9.574 5.22 0 8.172 3.743 8.172 9.071v1.98zm6.695-5.22a3.495 3.495 0 0 0-6.263 0 4.607 4.607 0 0 0-.432 2.016h7.127a4.602 4.602 0 0 0-.432-2.016zm20.268 13.139v-11.34c0-2.555-1.62-3.418-3.096-3.418s-3.131.863-3.131 3.419v11.339h-4.68v-18.754h4.571v1.728a6.418 6.418 0 0 1 4.68-1.944 6.09 6.09 0 0 1 4.427 1.656 6.95 6.95 0 0 1 1.908 5.327v11.987zm15.589 0a5.086 5.086 0 0 1-5.436-5.363v-9.287h-1.98v-3.564h1.98v-5.543h4.68v5.543h3.311v3.564h-3.311v8.999c0 1.08.504 1.691 1.62 1.691h1.692v3.96zm10.331-7.919a3.838 3.838 0 0 0 4.104 4.176 5.302 5.302 0 0 0 4.248-1.764l2.843 2.772a8.819 8.819 0 0 1-7.127 2.95c-4.427 0-8.675-2.015-8.675-9.61 0-6.118 3.312-9.574 8.171-9.574 5.22 0 8.17 3.743 8.17 9.071v1.98zm6.695-5.22a3.495 3.495 0 0 0-6.263 0 4.601 4.601 0 0 0-.432 2.016h7.127a4.602 4.602 0 0 0-.432-2.016zm20.268 13.139v-11.34c0-2.555-1.62-3.418-3.096-3.418s-3.131.863-3.131 3.419v11.339h-4.68v-18.754h4.572v1.728a6.418 6.418 0 0 1 4.679-1.944 6.09 6.09 0 0 1 4.428 1.656 6.95 6.95 0 0 1 1.907 5.327v11.987zm17.172.216c-3.743 0-8.386-2.016-8.386-9.61s4.643-9.575 8.386-9.575a7.989 7.989 0 0 1 6.192 2.52l-3.168 3.167a3.787 3.787 0 0 0-3.024-1.475 3.245 3.245 0 0 0-2.663 1.223 6.355 6.355 0 0 0-1.044 4.14 6.468 6.468 0 0 0 1.044 4.174 3.246 3.246 0 0 0 2.664 1.225 3.788 3.788 0 0 0 3.024-1.477l3.167 3.132a8.016 8.016 0 0 1-6.192 2.555zm12.997-8.135a3.838 3.838 0 0 0 4.103 4.176 5.302 5.302 0 0 0 4.248-1.764l2.843 2.772a8.819 8.819 0 0 1-7.127 2.95c-4.427 0-8.675-2.015-8.675-9.61 0-6.118 3.312-9.574 8.171-9.574 5.22 0 8.171 3.743 8.171 9.071v1.98zm6.695-5.22a3.495 3.495 0 0 0-6.264 0 4.607 4.607 0 0 0-.431 2.016h7.127a4.6 4.6 0 0 0-.432-2.016zm15.516 13.355c-2.952 0-5.58-.325-7.99-2.7l3.059-3.06a6.762 6.762 0 0 0 5.003 1.764c1.62 0 3.312-.54 3.312-1.944 0-.936-.468-1.583-1.98-1.728l-3.024-.288c-3.311-.324-5.4-1.8-5.4-5.255 0-3.924 3.42-5.976 7.236-5.976 2.952 0 5.363.54 7.163 2.197l-2.88 2.915a6.459 6.459 0 0 0-4.355-1.26c-1.872 0-2.664.864-2.664 1.8s.54 1.475 1.944 1.62l2.952.288c3.707.36 5.579 2.304 5.579 5.507 0 4.14-3.528 6.12-7.955 6.12zm29.843-.216v-1.62a5.7 5.7 0 0 1-4.607 1.8 6.484 6.484 0 0 1-4.788-1.656 6.01 6.01 0 0 1-1.547-4.212c0-2.987 2.051-5.435 6.479-5.435h4.355v-.936c0-2.051-1.008-2.95-3.491-2.95a4.149 4.149 0 0 0-3.6 1.618l-2.952-2.915c1.836-2.015 3.6-2.664 6.731-2.664 5.292 0 7.991 2.232 7.991 6.623v12.347zm-.108-7.92h-3.563c-1.872 0-2.772.757-2.772 2.16 0 1.296.9 2.124 2.844 2.124a3.564 3.564 0 0 0 2.771-.9 2.901 2.901 0 0 0 .72-2.376zm15.589 7.92a5.086 5.086 0 0 1-5.436-5.363v-9.287h-1.98v-3.564h1.98v-5.543h4.68v5.543h3.312v3.564h-3.312v8.999c0 1.08.504 1.691 1.62 1.691h1.692v3.96zm24.767 0v-1.62a5.699 5.699 0 0 1-4.607 1.8 6.484 6.484 0 0 1-4.787-1.655 6.01 6.01 0 0 1-1.549-4.212c0-2.988 2.052-5.436 6.48-5.436h4.356v-.935c0-2.052-1.008-2.951-3.493-2.951a4.15 4.15 0 0 0-3.6 1.619l-2.95-2.915c1.835-2.016 3.6-2.664 6.73-2.664 5.292 0 7.99 2.231 7.99 6.623v12.346zm-.107-7.919h-3.564c-1.872 0-2.772.756-2.772 2.16 0 1.295.9 2.123 2.843 2.123a3.561 3.561 0 0 0 2.772-.9 2.902 2.902 0 0 0 .72-2.375zm23.94 7.919a5.086 5.086 0 0 1-5.436-5.363v-9.287h-1.98v-3.564h1.98v-5.543h4.68v5.543H285v3.564h-3.312v8.999c0 1.08.504 1.691 1.62 1.691H285v3.96zm6.732-21.957v-3.815h4.787v3.815zm.072 21.957v-18.214h4.678v18.214zm31.713 0v-11.34c0-2.555-1.62-3.418-3.096-3.418a3.021 3.021 0 0 0-3.132 3.311v11.447h-4.68v-11.34c0-2.555-1.62-3.418-3.095-3.418s-3.132.863-3.132 3.419v11.339h-4.68v-18.754h4.573v1.728a6.558 6.558 0 0 1 4.68-1.944 5.809 5.809 0 0 1 4.967 2.376 7.15 7.15 0 0 1 5.615-2.376 6.54 6.54 0 0 1 4.607 1.656 7.07 7.07 0 0 1 2.052 5.327v11.987zm13.393-7.919a3.838 3.838 0 0 0 4.104 4.176 5.303 5.303 0 0 0 4.248-1.764l2.844 2.772a8.82 8.82 0 0 1-7.127 2.95c-4.428 0-8.676-2.015-8.676-9.61 0-6.118 3.311-9.574 8.17-9.574 5.22 0 8.173 3.743 8.173 9.071v1.98zm6.696-5.22a3.494 3.494 0 0 0-6.263 0 4.6 4.6 0 0 0-.433 2.016h7.128a4.6 4.6 0 0 0-.432-2.016zm28.079 13.139v-1.764a5.632 5.632 0 0 1-4.644 1.98 6.314 6.314 0 0 1-4.57-1.692c-1.8-1.835-1.944-4.751-1.944-7.918 0-3.132.143-6.048 1.943-7.884a6.23 6.23 0 0 1 4.536-1.692 5.619 5.619 0 0 1 4.572 1.872v-8.53h4.678v25.628zm-3.312-14.758c-2.807 0-3.167 2.34-3.167 5.364s.36 5.399 3.167 5.399 3.205-2.376 3.205-5.4-.397-5.363-3.205-5.363zm23.94 14.758v-1.728a6.42 6.42 0 0 1-4.68 1.944 6.09 6.09 0 0 1-4.428-1.656 6.951 6.951 0 0 1-1.907-5.328v-11.986h4.678v11.339c0 2.555 1.62 3.42 3.096 3.42s3.132-.865 3.132-3.42v-11.34h4.68v18.755zm20.015-13.643a3.129 3.129 0 0 0-5.508 2.34v11.303h-4.678v-18.754h4.571v1.8a6.346 6.346 0 0 1 4.715-2.016 5.657 5.657 0 0 1 4.428 1.764zm6.121-8.314v-3.815h4.787v3.815zm.073 21.957v-18.214h4.678v18.214zm20.805 0v-11.34c0-2.555-1.62-3.418-3.095-3.418s-3.132.863-3.132 3.419v11.339h-4.679v-18.754h4.571v1.728a6.417 6.417 0 0 1 4.68-1.944 6.089 6.089 0 0 1 4.427 1.656 6.95 6.95 0 0 1 1.908 5.327v11.987zm16.2 7.09c-2.879 0-4.86-.574-6.802-2.446l2.916-2.953a4.775 4.775 0 0 0 3.67 1.44c2.808 0 3.78-1.98 3.78-3.887v-1.909a5.494 5.494 0 0 1-4.463 1.872 6.244 6.244 0 0 1-4.464-1.655c-1.764-1.764-1.908-4.176-1.908-7.45s.144-5.652 1.908-7.416a6.33 6.33 0 0 1 4.5-1.656 5.492 5.492 0 0 1 4.571 1.98v-1.764h4.535v18.07c0 4.5-3.202 7.774-8.242 7.774zm.469-21.848c-2.772 0-3.06 2.375-3.06 4.86s.287 4.895 3.06 4.895 3.096-2.412 3.096-4.895-.324-4.86-3.096-4.86zM44.199 423.63v-1.62a5.698 5.698 0 0 1-4.608 1.8 6.484 6.484 0 0 1-4.787-1.655 6.01 6.01 0 0 1-1.548-4.212c0-2.988 2.052-5.436 6.48-5.436h4.355v-.935c0-2.052-1.008-2.951-3.492-2.951A4.149 4.149 0 0 0 37 410.239l-2.952-2.915c1.836-2.016 3.6-2.664 6.731-2.664 5.292 0 7.991 2.231 7.991 6.623v12.347zm-.108-7.919h-3.564c-1.871 0-2.771.756-2.771 2.16 0 1.295.9 2.123 2.843 2.123a3.563 3.563 0 0 0 2.772-.9 2.902 2.902 0 0 0 .72-2.375zm24.228 8.135c-2.952 0-5.58-.324-7.991-2.7l3.06-3.06a6.762 6.762 0 0 0 5.003 1.764c1.62 0 3.312-.54 3.312-1.944 0-.936-.468-1.583-1.98-1.728l-3.024-.288c-3.312-.324-5.4-1.8-5.4-5.255 0-3.924 3.42-5.976 7.236-5.976 2.952 0 5.363.54 7.163 2.197l-2.88 2.915a6.46 6.46 0 0 0-4.356-1.26c-1.871 0-2.663.864-2.663 1.8s.54 1.475 1.944 1.62l2.951.288c3.708.36 5.58 2.304 5.58 5.507 0 4.14-3.528 6.12-7.955 6.12zm17.424-.216a5.086 5.086 0 0 1-5.436-5.363v-9.287h-1.98v-3.564h1.98v-5.543h4.68v5.543H88.3v3.564h-3.312v8.999c0 1.08.504 1.691 1.62 1.691H88.3v3.96zm16.27 0v-1.62a5.7 5.7 0 0 1-4.608 1.8 6.484 6.484 0 0 1-4.787-1.655 6.01 6.01 0 0 1-1.547-4.212c0-2.988 2.051-5.436 6.479-5.436h4.355v-.935c0-2.052-1.008-2.951-3.491-2.951a4.15 4.15 0 0 0-3.6 1.619l-2.952-2.915c1.836-2.016 3.6-2.664 6.731-2.664 5.292 0 7.991 2.231 7.991 6.623v12.346zm-.108-7.919h-3.563c-1.871 0-2.771.756-2.771 2.16 0 1.295.9 2.123 2.843 2.123a3.564 3.564 0 0 0 2.772-.9 2.901 2.901 0 0 0 .72-2.375zm15.589 7.919a5.086 5.086 0 0 1-5.436-5.363v-9.287h-1.98v-3.564h1.98v-5.543h4.68v5.543h3.312v3.564h-3.312v8.999c0 1.08.504 1.691 1.62 1.691h1.692v3.96zm10.331-7.919a3.838 3.838 0 0 0 4.104 4.176 5.302 5.302 0 0 0 4.247-1.764l2.844 2.772a8.819 8.819 0 0 1-7.127 2.95c-4.427 0-8.675-2.015-8.675-9.61 0-6.118 3.312-9.574 8.17-9.574 5.22 0 8.172 3.743 8.172 9.071v1.98zm6.695-5.22a3.495 3.495 0 0 0-6.263 0 4.6 4.6 0 0 0-.432 2.016h7.127a4.6 4.6 0 0 0-.431-2.016zm30.672 11.05a7.836 7.836 0 0 1-5.831 2.305 7.747 7.747 0 0 1-5.796-2.304c-1.692-1.8-2.123-3.924-2.123-7.307s.431-5.472 2.123-7.271a8.486 8.486 0 0 1 11.627 0c1.692 1.8 2.124 3.887 2.124 7.271s-.396 5.543-2.124 7.307zm-3.636-11.842a2.962 2.962 0 0 0-2.195-.827 2.932 2.932 0 0 0-2.16.827c-.973.937-1.08 2.628-1.08 4.536 0 1.944.107 3.636 1.08 4.571a2.93 2.93 0 0 0 2.16.829 2.96 2.96 0 0 0 2.195-.829c.972-.935 1.08-2.627 1.08-4.57 0-1.91-.107-3.6-1.08-4.537zm15.48-.72v14.65h-4.679v-14.65h-1.944v-3.563h1.944v-2.34a5.116 5.116 0 0 1 5.471-5.364h2.664v3.96h-1.835c-1.116 0-1.62.612-1.62 1.692v2.052h3.456v3.563zm19.08 6.732a3.838 3.838 0 0 0 4.104 4.175 5.302 5.302 0 0 0 4.247-1.763l2.844 2.771a8.819 8.819 0 0 1-7.127 2.951c-4.428 0-8.675-2.015-8.675-9.61 0-6.119 3.312-9.575 8.17-9.575 5.22 0 8.172 3.743 8.172 9.071v1.98zm6.695-5.22a3.495 3.495 0 0 0-6.263 0 4.6 4.6 0 0 0-.432 2.015h7.127a4.6 4.6 0 0 0-.431-2.015zm31.176 13.139v-11.34c0-2.555-1.62-3.418-3.096-3.418a3.021 3.021 0 0 0-3.132 3.311v11.447h-4.68v-11.34c0-2.555-1.62-3.418-3.096-3.418s-3.131.863-3.131 3.419v11.339h-4.68v-18.754h4.572v1.728a6.559 6.559 0 0 1 4.679-1.944 5.809 5.809 0 0 1 4.967 2.376 7.15 7.15 0 0 1 5.616-2.376 6.54 6.54 0 0 1 4.607 1.656 7.07 7.07 0 0 1 2.052 5.327v11.987zm13.393-7.919a3.838 3.838 0 0 0 4.104 4.176 5.304 5.304 0 0 0 4.248-1.764l2.844 2.772a8.82 8.82 0 0 1-7.127 2.95c-4.428 0-8.676-2.015-8.676-9.61 0-6.118 3.311-9.574 8.171-9.574 5.22 0 8.172 3.743 8.172 9.071v1.98zm6.696-5.22a3.495 3.495 0 0 0-6.263 0 4.6 4.6 0 0 0-.433 2.016h7.129a4.6 4.6 0 0 0-.433-2.016zm19.548-.504a3.129 3.129 0 0 0-5.508 2.34v11.303h-4.679v-18.754h4.572v1.8a6.346 6.346 0 0 1 4.714-2.016 5.657 5.657 0 0 1 4.428 1.764zm11.592 20.734c-2.88 0-4.86-.576-6.803-2.448l2.916-2.952a4.775 4.775 0 0 0 3.67 1.44c2.808 0 3.78-1.98 3.78-3.888v-1.908a5.491 5.491 0 0 1-4.463 1.872 6.244 6.244 0 0 1-4.464-1.655c-1.763-1.765-1.907-4.176-1.907-7.451s.144-5.652 1.907-7.415a6.33 6.33 0 0 1 4.5-1.656 5.492 5.492 0 0 1 4.572 1.98v-1.764h4.535v18.07c0 4.5-3.203 7.774-8.243 7.774zm.468-21.85c-2.772 0-3.06 2.376-3.06 4.86s.287 4.896 3.06 4.896 3.095-2.412 3.095-4.896-.323-4.86-3.095-4.86zm16.703 6.84a3.838 3.838 0 0 0 4.104 4.176 5.304 5.304 0 0 0 4.248-1.764l2.844 2.771a8.821 8.821 0 0 1-7.128 2.952c-4.427 0-8.675-2.016-8.675-9.61 0-6.12 3.312-9.576 8.171-9.576 5.22 0 8.172 3.744 8.172 9.072v1.98zm6.696-5.22a3.494 3.494 0 0 0-6.263 0 4.6 4.6 0 0 0-.433 2.015h7.128a4.6 4.6 0 0 0-.432-2.015zm20.267 13.139v-11.34c0-2.555-1.62-3.418-3.096-3.418s-3.132.863-3.132 3.419v11.339h-4.678v-18.754h4.571v1.728a6.417 6.417 0 0 1 4.68-1.944 6.09 6.09 0 0 1 4.427 1.656 6.95 6.95 0 0 1 1.908 5.327v11.987zm17.173.216c-3.744 0-8.388-2.016-8.388-9.61s4.644-9.575 8.388-9.575a7.986 7.986 0 0 1 6.19 2.52l-3.167 3.167a3.786 3.786 0 0 0-3.023-1.475 3.244 3.244 0 0 0-2.664 1.223 6.354 6.354 0 0 0-1.044 4.14 6.467 6.467 0 0 0 1.044 4.175 3.245 3.245 0 0 0 2.664 1.225 3.787 3.787 0 0 0 3.023-1.477l3.167 3.132a8.014 8.014 0 0 1-6.19 2.555zm16.81 2.807a6.661 6.661 0 0 1-1.403 2.413 5.42 5.42 0 0 1-4.031 1.439h-1.836v-4.21h1.08a2.023 2.023 0 0 0 2.339-1.693l.792-2.304-6.407-17.422h4.931l3.888 11.59 3.743-11.59h4.932zM33.025 459.324v-.953h10.674v.953zm19.77 3.39a3.42 3.42 0 0 1-2.494-.98c-.938-.939-.995-1.807-.995-4.09s.057-3.152.995-4.09a3.42 3.42 0 0 1 2.493-.981 3.375 3.375 0 0 1 3.46 2.97h-1.092a2.421 2.421 0 0 0-4.09-1.317c-.63.645-.7 1.372-.7 3.418s.07 2.774.7 3.417a2.442 2.442 0 0 0 4.118-1.316h1.065a3.385 3.385 0 0 1-3.46 2.969zm10.038-.084v-4.259c0-1.217-.63-1.82-1.68-1.82a1.607 1.607 0 0 0-1.724 1.82v4.259h-1.008v-9.974h1.008v3.838a2.487 2.487 0 0 1 1.933-.84 2.322 2.322 0 0 1 2.48 2.549v4.427zm7.307-5.575a1.442 1.442 0 0 0-1.19-.504 1.683 1.683 0 0 0-1.653 1.849v4.23h-1.009v-6.892h1.009v.84a2.316 2.316 0 0 1 1.933-.924 2.122 2.122 0 0 1 1.653.645zm1.986-3.278v-1.134h1.135v1.135zm.056 8.853v-6.892h1.009v6.892zm5.7.084a3.756 3.756 0 0 1-2.83-.994l.672-.673a2.85 2.85 0 0 0 2.143.799c1.149 0 1.835-.406 1.835-1.219 0-.616-.336-.938-1.148-1.009l-1.135-.097c-1.344-.113-2.059-.7-2.059-1.85 0-1.261 1.05-2.017 2.535-2.017a3.9 3.9 0 0 1 2.48.742l-.659.658a2.941 2.941 0 0 0-1.835-.545c-1.008 0-1.54.42-1.54 1.134 0 .616.378.924 1.232 1.008l1.079.099c1.204.112 2.03.56 2.03 1.863 0 1.33-1.12 2.1-2.8 2.1zm12.152-4.189h-2.648v4.105h-1.064v-9.974h3.712a2.938 2.938 0 1 1 0 5.87zm-.084-4.915h-2.564v3.963h2.564a1.985 1.985 0 1 0 0-3.963zm5.5 5.84c0 1.513.7 2.381 2.032 2.381a2.26 2.26 0 0 0 1.806-.784l.687.603a3.177 3.177 0 0 1-2.522 1.064c-1.835 0-3.011-1.093-3.011-3.53 0-2.241 1.078-3.53 2.83-3.53 1.793 0 2.83 1.275 2.83 3.348v.449zm3.432-1.905a1.77 1.77 0 0 0-3.222 0 2.63 2.63 0 0 0-.21 1.149h3.656a2.831 2.831 0 0 0-.224-1.15zm7.21-.49a1.442 1.442 0 0 0-1.19-.504 1.683 1.683 0 0 0-1.653 1.849v4.23h-1.009v-6.892h1.008v.84a2.316 2.316 0 0 1 1.933-.924 2.123 2.123 0 0 1 1.653.645zm5.894 0a1.442 1.442 0 0 0-1.19-.504 1.683 1.683 0 0 0-1.654 1.849v4.23h-1.008v-6.892h1.008v.84a2.316 2.316 0 0 1 1.933-.924 2.122 2.122 0 0 1 1.653.645zm1.986-3.277v-1.135h1.134v1.135zm.056 8.852v-6.892h1.008v6.892zm7.94 0v-4.244a1.707 1.707 0 1 0-3.404 0v4.244h-1.008v-6.892h1.008v.756a2.486 2.486 0 0 1 1.933-.84 2.413 2.413 0 0 1 1.765.645 2.545 2.545 0 0 1 .714 1.918v4.413zm3.428 2.017v-3.25h1.232v2.143zm14.871-2.017v-7.578l-2.731 6.009h-.91l-2.774-6.009v7.578h-1.065v-9.974h1.065l3.25 7.074 3.165-7.074h1.065v9.974zm7.67 0v-.658a3.17 3.17 0 0 1-3.936.112 1.926 1.926 0 0 1-.518-1.4c0-1.22.854-1.99 2.395-1.99h2.06v-.658c0-.995-.49-1.513-1.766-1.513a1.845 1.845 0 0 0-1.737.799l-.686-.631a2.652 2.652 0 0 1 2.437-1.036c1.863 0 2.76.812 2.76 2.297v4.678zm0-3.18h-1.919q-1.554 0-1.555 1.22c0 .797.49 1.176 1.597 1.176a2.075 2.075 0 0 0 1.527-.463 1.592 1.592 0 0 0 .35-1.19zm7.308-2.395a1.442 1.442 0 0 0-1.19-.504 1.683 1.683 0 0 0-1.653 1.849v4.23h-1.008v-6.892h1.008v.84a2.316 2.316 0 0 1 1.933-.924 2.122 2.122 0 0 1 1.653.645zm3.751 7.242a2.024 2.024 0 0 1-.49.813 1.896 1.896 0 0 1-1.345.476h-.434v-.896h.308c.7 0 .91-.225 1.134-.855l.49-1.345-2.479-6.752h1.093l1.89 5.534 1.878-5.534h1.093zm13.988-2.731a3.51 3.51 0 0 1-2.662 1.148 3.42 3.42 0 0 1-2.493-.98c-.939-.939-.995-1.807-.995-4.09s.056-3.152.995-4.09a3.572 3.572 0 0 1 5.981 2.002h-1.065a2.384 2.384 0 0 0-2.423-2.03 2.32 2.32 0 0 0-1.723.7c-.63.645-.7 1.372-.7 3.418s.07 2.774.7 3.417a2.32 2.32 0 0 0 1.723.701 2.433 2.433 0 0 0 1.891-.854 2.662 2.662 0 0 0 .56-1.808v-.77h-2.451v-.91h3.516v1.583a3.382 3.382 0 0 1-.854 2.562zm6.999-4.511a1.442 1.442 0 0 0-1.19-.504 1.683 1.683 0 0 0-1.654 1.849v4.23h-1.008v-6.892h1.008v.84a2.316 2.316 0 0 1 1.934-.924 2.122 2.122 0 0 1 1.652.645zm2.252 2.395c0 1.513.7 2.381 2.031 2.381a2.26 2.26 0 0 0 1.807-.784l.687.603a3.178 3.178 0 0 1-2.522 1.064c-1.835 0-3.012-1.093-3.012-3.53 0-2.241 1.08-3.53 2.83-3.53 1.793 0 2.83 1.275 2.83 3.348v.449zm3.432-1.905a1.77 1.77 0 0 0-3.222 0 2.63 2.63 0 0 0-.21 1.149h3.656a2.824 2.824 0 0 0-.224-1.15zm3.988 1.905c0 1.513.7 2.381 2.03 2.381a2.261 2.261 0 0 0 1.808-.784l.687.603a3.178 3.178 0 0 1-2.522 1.064c-1.835 0-3.012-1.093-3.012-3.53 0-2.241 1.079-3.53 2.83-3.53 1.793 0 2.83 1.275 2.83 3.348v.449zm3.432-1.905a1.77 1.77 0 0 0-3.222 0 2.63 2.63 0 0 0-.21 1.149h3.656a2.823 2.823 0 0 0-.224-1.15zm5.08 5.085a1.642 1.642 0 0 1-1.75-1.835v-8.139h1.008v8.097c0 .672.224 1.009.924 1.009h.547v.868zm2.898-3.18c0 1.513.7 2.38 2.031 2.38a2.26 2.26 0 0 0 1.807-.783l.686.602a3.177 3.177 0 0 1-2.521 1.065c-1.835 0-3.012-1.093-3.012-3.53 0-2.241 1.079-3.53 2.83-3.53 1.793 0 2.83 1.275 2.83 3.348v.448zm3.431-1.905a1.77 1.77 0 0 0-3.221 0 2.63 2.63 0 0 0-.21 1.148h3.656a2.833 2.833 0 0 0-.225-1.148zm4.941 6.752a2.024 2.024 0 0 1-.49.812 1.896 1.896 0 0 1-1.344.477h-.435v-.897h.308c.7 0 .91-.224 1.135-.854l.49-1.345-2.48-6.752h1.093l1.891 5.533 1.877-5.533h1.093zm8.217-1.667v-9.974h6.192v.953h-5.127v3.516h4.37v.952h-4.37v3.6h5.127v.953zm17.07 0v-4.244a1.711 1.711 0 1 0-3.417-.113v4.357h-1.01v-4.244a1.605 1.605 0 0 0-1.694-1.835 1.63 1.63 0 0 0-1.723 1.835v4.244h-1.008v-6.892h1.008v.756a2.516 2.516 0 0 1 1.947-.84 2.272 2.272 0 0 1 2.116 1.148 2.637 2.637 0 0 1 2.268-1.148 2.508 2.508 0 0 1 1.78.645 2.562 2.562 0 0 1 .742 1.918v4.413zm4.084-3.18c0 1.512.7 2.38 2.031 2.38a2.26 2.26 0 0 0 1.807-.784l.687.603a3.178 3.178 0 0 1-2.522 1.064c-1.835 0-3.012-1.092-3.012-3.53 0-2.24 1.079-3.529 2.83-3.529 1.793 0 2.83 1.275 2.83 3.348v.448zm3.432-1.905a1.77 1.77 0 0 0-3.222 0 2.628 2.628 0 0 0-.21 1.148h3.656a2.822 2.822 0 0 0-.224-1.148zm7.21-.49a1.441 1.441 0 0 0-1.19-.504 1.683 1.683 0 0 0-1.654 1.848v4.23h-1.008v-6.891h1.008v.84a2.316 2.316 0 0 1 1.934-.924 2.122 2.122 0 0 1 1.652.645zm3.85 8.74a3.044 3.044 0 0 1-2.34-.924l.658-.645a2.123 2.123 0 0 0 1.653.687c1.33 0 1.89-.938 1.89-2.115v-1.078a2.221 2.221 0 0 1-1.932.896 2.375 2.375 0 0 1-1.667-.616 5.324 5.324 0 0 1 0-5.743 2.4 2.4 0 0 1 1.681-.602 2.172 2.172 0 0 1 1.934.896v-.812h.994v7.101a2.743 2.743 0 0 1-2.871 2.956zm.153-9.244c-1.498 0-1.722 1.288-1.722 2.577s.224 2.577 1.722 2.577 1.71-1.288 1.71-2.577-.211-2.577-1.71-2.577zm5.865 2.899c0 1.513.702 2.38 2.032 2.38a2.263 2.263 0 0 0 1.807-.783l.686.602a3.175 3.175 0 0 1-2.52 1.065c-1.836 0-3.012-1.093-3.012-3.53 0-2.241 1.078-3.53 2.829-3.53 1.793 0 2.83 1.275 2.83 3.348v.448zm3.433-1.905a1.77 1.77 0 0 0-3.222 0 2.62 2.62 0 0 0-.21 1.148h3.656a2.833 2.833 0 0 0-.224-1.148zm7.769 5.085v-4.244a1.706 1.706 0 1 0-3.403 0v4.244h-1.01v-6.892h1.01v.756a2.485 2.485 0 0 1 1.932-.84 2.412 2.412 0 0 1 1.765.645 2.545 2.545 0 0 1 .715 1.918v4.413zm6.132.084c-1.738 0-3.054-1.177-3.054-3.53s1.316-3.53 3.054-3.53a2.727 2.727 0 0 1 2.268 1.023l-.686.645a1.89 1.89 0 0 0-1.582-.77 1.867 1.867 0 0 0-1.598.783 4.038 4.038 0 0 0 0 3.699 1.867 1.867 0 0 0 1.598.784 1.905 1.905 0 0 0 1.582-.784l.686.658a2.727 2.727 0 0 1-2.268 1.022zm5.892 1.583a2.024 2.024 0 0 1-.49.813 1.896 1.896 0 0 1-1.344.476h-.435v-.896h.309c.7 0 .91-.225 1.134-.855l.49-1.345-2.48-6.752h1.094l1.89 5.534 1.877-5.534h1.093zm15.698-1.667v-7.578l-2.732 6.009h-.91l-2.773-6.01v7.579h-1.066v-9.974h1.066l3.249 7.074 3.166-7.074h1.064v9.974zm7.67 0v-.658a3.171 3.171 0 0 1-3.937.112 1.93 1.93 0 0 1-.517-1.401c0-1.219.854-1.99 2.394-1.99h2.06v-.658c0-.994-.49-1.512-1.765-1.512a1.845 1.845 0 0 0-1.737.798l-.686-.63a2.652 2.652 0 0 1 2.437-1.037c1.863 0 2.76.813 2.76 2.297v4.679zm0-3.18h-1.919q-1.556 0-1.555 1.219c0 .798.49 1.177 1.597 1.177a2.074 2.074 0 0 0 1.526-.463 1.59 1.59 0 0 0 .35-1.19zm7.868 3.18v-4.244a1.706 1.706 0 1 0-3.403 0v4.244h-1.009v-6.892h1.009v.756a2.486 2.486 0 0 1 1.932-.84 2.412 2.412 0 0 1 1.765.645 2.545 2.545 0 0 1 .715 1.918v4.413zm7.363 0v-.658a3.171 3.171 0 0 1-3.936.112 1.93 1.93 0 0 1-.518-1.401c0-1.219.854-1.99 2.395-1.99h2.06v-.658c0-.994-.49-1.512-1.765-1.512a1.845 1.845 0 0 0-1.737.798l-.687-.63a2.652 2.652 0 0 1 2.438-1.037c1.863 0 2.76.813 2.76 2.297v4.679zm0-3.18h-1.919q-1.555 0-1.554 1.219c0 .798.49 1.177 1.596 1.177a2.074 2.074 0 0 0 1.527-.463 1.59 1.59 0 0 0 .35-1.19zm5.67 6.346a3.043 3.043 0 0 1-2.34-.925l.658-.645a2.122 2.122 0 0 0 1.654.687c1.33 0 1.89-.938 1.89-2.115v-1.078a2.221 2.221 0 0 1-1.932.896 2.373 2.373 0 0 1-1.667-.616 5.324 5.324 0 0 1 0-5.743 2.4 2.4 0 0 1 1.68-.603 2.17 2.17 0 0 1 1.933.897v-.813h.995v7.102a2.743 2.743 0 0 1-2.872 2.956zm.153-9.245c-1.499 0-1.722 1.288-1.722 2.577s.223 2.577 1.722 2.577 1.71-1.288 1.71-2.577-.21-2.577-1.71-2.577zm5.865 2.899c0 1.513.7 2.38 2.03 2.38a2.263 2.263 0 0 0 1.809-.783l.685.602a3.175 3.175 0 0 1-2.52 1.065c-1.835 0-3.012-1.093-3.012-3.53 0-2.241 1.078-3.53 2.829-3.53 1.793 0 2.83 1.275 2.83 3.348v.448zm3.432-1.905a1.77 1.77 0 0 0-3.221 0 2.62 2.62 0 0 0-.211 1.148h3.656a2.833 2.833 0 0 0-.224-1.148zm12.21 5.085v-4.244a1.711 1.711 0 1 0-3.418-.113v4.357h-1.008v-4.244a1.605 1.605 0 0 0-1.695-1.835 1.63 1.63 0 0 0-1.722 1.835v4.244h-1.01v-6.892h1.01v.756a2.515 2.515 0 0 1 1.946-.84 2.27 2.27 0 0 1 2.115 1.148 2.638 2.638 0 0 1 2.27-1.148 2.512 2.512 0 0 1 1.78.645 2.562 2.562 0 0 1 .742 1.918v4.413zm4.084-3.18c0 1.512.701 2.38 2.032 2.38a2.263 2.263 0 0 0 1.807-.784l.686.603a3.175 3.175 0 0 1-2.52 1.064c-1.835 0-3.012-1.092-3.012-3.53 0-2.24 1.078-3.529 2.83-3.529 1.792 0 2.83 1.275 2.83 3.348v.448zm3.433-1.905a1.77 1.77 0 0 0-3.222 0 2.62 2.62 0 0 0-.21 1.148h3.656a2.832 2.832 0 0 0-.224-1.148zm7.77 5.084v-4.244a1.706 1.706 0 1 0-3.404 0v4.245h-1.008v-6.892h1.008v.756a2.486 2.486 0 0 1 1.933-.84 2.412 2.412 0 0 1 1.765.645 2.545 2.545 0 0 1 .715 1.918v4.413zm5.388 0a1.69 1.69 0 0 1-1.764-1.848v-4.273h-.868v-.77h.868v-2.115h1.009v2.115h1.47v.77h-1.47v4.245c0 .63.294 1.008.938 1.008h.532v.868zm9.493.084a3.418 3.418 0 0 1-2.493-.98c-.939-.938-.996-1.806-.996-4.09s.057-3.152.996-4.09a3.418 3.418 0 0 1 2.493-.98 3.376 3.376 0 0 1 3.46 2.97h-1.093a2.422 2.422 0 0 0-4.09-1.317c-.63.644-.7 1.372-.7 3.418s.07 2.773.7 3.417a2.443 2.443 0 0 0 4.117-1.317h1.065a3.385 3.385 0 0 1-3.46 2.97zm10.052-.784a2.88 2.88 0 0 1-3.95 0 4.903 4.903 0 0 1 0-5.491 2.88 2.88 0 0 1 3.95 0 4.908 4.908 0 0 1 0 5.491zm-.714-4.875a1.733 1.733 0 0 0-1.261-.504 1.704 1.704 0 0 0-1.247.504 4.331 4.331 0 0 0 0 4.259 1.703 1.703 0 0 0 1.247.504 1.733 1.733 0 0 0 1.26-.504 3.025 3.025 0 0 0 .546-2.13 2.986 2.986 0 0 0-.546-2.129zm8.134 4.875a2.88 2.88 0 0 1-3.95 0 4.903 4.903 0 0 1 0-5.491 2.88 2.88 0 0 1 3.95 0 4.908 4.908 0 0 1 0 5.491zm-.715-4.875a1.733 1.733 0 0 0-1.26-.504 1.704 1.704 0 0 0-1.247.504 4.332 4.332 0 0 0 0 4.259 1.704 1.704 0 0 0 1.247.504 1.733 1.733 0 0 0 1.26-.504 3.025 3.025 0 0 0 .546-2.13 2.986 2.986 0 0 0-.546-2.129zm7.561 0a1.441 1.441 0 0 0-1.19-.504 1.682 1.682 0 0 0-1.652 1.849v4.23h-1.01v-6.891h1.01v.84a2.315 2.315 0 0 1 1.932-.924 2.124 2.124 0 0 1 1.654.645zm5.74 5.575v-.826a2.217 2.217 0 0 1-1.96.91 2.374 2.374 0 0 1-1.682-.602 5.516 5.516 0 0 1 0-5.855 2.374 2.374 0 0 1 1.681-.602 2.217 2.217 0 0 1 1.947.882v-3.88h1.008v9.974zm-1.737-6.079c-1.513 0-1.737 1.288-1.737 2.633s.224 2.634 1.737 2.634c1.499 0 1.723-1.29 1.723-2.634s-.224-2.632-1.723-2.632zm5.193-2.773v-1.135h1.134v1.135zm.056 8.852v-6.891h1.009v6.892zm7.94 0v-4.244a1.706 1.706 0 1 0-3.403 0v4.245h-1.009v-6.892h1.009v.756a2.486 2.486 0 0 1 1.933-.84 2.412 2.412 0 0 1 1.764.645 2.545 2.545 0 0 1 .715 1.918v4.413zm7.363 0v-.658a3.171 3.171 0 0 1-3.936.113 1.93 1.93 0 0 1-.518-1.402c0-1.219.854-1.99 2.395-1.99h2.06v-.657c0-.994-.49-1.513-1.765-1.513a1.845 1.845 0 0 0-1.737.799l-.686-.631a2.652 2.652 0 0 1 2.437-1.036c1.863 0 2.76.812 2.76 2.297v4.679zm0-3.18h-1.918q-1.556 0-1.555 1.22c0 .797.49 1.176 1.597 1.176a2.074 2.074 0 0 0 1.526-.463 1.59 1.59 0 0 0 .35-1.19zm5.39 3.18a1.69 1.69 0 0 1-1.765-1.848v-4.273h-.869v-.77h.868v-2.115h1.009v2.115h1.47v.77h-1.47v4.245c0 .63.294 1.008.938 1.008h.533v.868zm7.07-.7a2.88 2.88 0 0 1-3.95 0 4.903 4.903 0 0 1 0-5.49 2.88 2.88 0 0 1 3.95 0 4.908 4.908 0 0 1 0 5.49zm-.714-4.875a1.734 1.734 0 0 0-1.261-.503 1.704 1.704 0 0 0-1.247.503 4.332 4.332 0 0 0 0 4.26 1.704 1.704 0 0 0 1.247.503 1.733 1.733 0 0 0 1.26-.504 3.025 3.025 0 0 0 .547-2.13 2.986 2.986 0 0 0-.546-2.129zm7.56 0a1.441 1.441 0 0 0-1.19-.503 1.682 1.682 0 0 0-1.652 1.848v4.23h-1.009v-6.891h1.009v.84a2.315 2.315 0 0 1 1.932-.924 2.124 2.124 0 0 1 1.654.645z" fill="#fff"/><path fill="none" d="M0 0h495.806v528.187H0z"/></g></svg>
