<?xml version="1.0" standalone="no"?>
<!DOCTYPE svg PUBLIC "-//W3C//DTD SVG 20010904//EN"
 "http://www.w3.org/TR/2001/REC-SVG-20010904/DTD/svg10.dtd">
<svg version="1.0" xmlns="http://www.w3.org/2000/svg"
 width="720.000000pt" height="720.000000pt" viewBox="0 0 720.000000 720.000000"
 preserveAspectRatio="xMidYMid meet">
<metadata>
Created by potrace 1.11, written by Peter Selinger 2001-2013
</metadata>
<g transform="translate(0.000000,720.000000) scale(0.100000,-0.100000)"
fill="#000000" stroke="none">
<path d="M7110 6569 c-41 -11 -82 -21 -90 -23 -8 -2 -44 -12 -80 -21 -36 -10
-74 -19 -85 -21 -11 -1 -20 -3 -20 -4 0 -2 -20 -7 -60 -15 -16 -3 -48 -11 -70
-16 -22 -5 -50 -12 -61 -14 -12 -3 -120 -27 -240 -54 -121 -28 -235 -53 -254
-56 -19 -3 -62 -12 -95 -20 -33 -8 -71 -17 -85 -19 -14 -3 -25 -5 -25 -6 0 -1
-9 -3 -20 -5 -11 -1 -31 -5 -45 -8 -14 -3 -70 -15 -125 -26 -55 -11 -107 -22
-115 -25 -8 -3 -33 -8 -55 -11 -22 -3 -56 -10 -75 -15 -19 -5 -48 -11 -65 -14
-16 -2 -95 -18 -175 -35 -80 -17 -156 -32 -170 -35 -14 -3 -36 -8 -50 -11 -14
-3 -41 -8 -60 -11 -19 -3 -55 -10 -80 -16 -25 -5 -56 -12 -70 -14 -22 -4 -226
-46 -290 -60 -14 -3 -36 -7 -50 -9 -14 -2 -36 -7 -50 -10 -28 -6 -113 -24
-147 -31 -13 -2 -33 -6 -45 -8 -13 -3 -45 -9 -73 -15 -27 -6 -61 -13 -75 -16
-23 -4 -36 -7 -100 -21 -32 -6 -64 -13 -92 -18 -13 -2 -43 -9 -68 -15 -25 -5
-56 -12 -70 -15 -14 -2 -79 -16 -145 -31 -66 -14 -156 -33 -200 -42 -93 -19
-102 -24 -110 -66 -4 -18 -13 -51 -21 -74 -7 -23 -16 -53 -19 -68 -3 -14 -7
-37 -10 -52 -3 -14 -10 -33 -14 -42 -5 -9 -12 -29 -15 -46 -3 -16 -15 -64 -26
-105 -27 -95 -40 -141 -44 -160 -2 -8 -11 -42 -21 -75 -9 -33 -28 -103 -41
-155 -14 -52 -28 -102 -31 -110 -3 -8 -7 -19 -8 -25 -2 -5 -8 -30 -15 -55 -7
-25 -14 -52 -15 -60 -2 -8 -4 -15 -5 -15 -1 0 -3 -7 -5 -16 -5 -26 -66 -251
-75 -279 -5 -14 -12 -41 -16 -60 -3 -19 -10 -39 -14 -45 -5 -5 -8 -13 -8 -18
0 -4 -3 -20 -6 -35 -4 -15 -8 -36 -11 -47 -2 -11 -16 -63 -31 -115 -14 -52
-28 -104 -30 -115 -2 -11 -8 -31 -14 -45 -8 -21 -17 -56 -56 -210 -5 -20 -18
-69 -44 -165 -20 -72 -26 -98 -33 -130 -2 -5 -6 -16 -10 -22 -5 -7 -6 -13 -3
-13 3 0 -1 -19 -10 -41 -8 -23 -16 -51 -18 -63 -2 -12 -9 -41 -16 -66 -7 -25
-14 -52 -16 -60 -1 -8 -15 -58 -30 -110 -14 -52 -28 -102 -29 -110 -2 -8 -4
-15 -5 -15 -1 0 -3 -9 -5 -20 -2 -11 -9 -36 -14 -55 -10 -30 -63 -230 -168
-620 -13 -52 -26 -98 -28 -101 -2 -3 -7 -19 -10 -35 -3 -16 -12 -54 -20 -84
-9 -30 -17 -62 -19 -70 -2 -8 -10 -35 -17 -60 -7 -25 -14 -49 -15 -55 -27
-108 -77 -291 -80 -294 -2 -2 -6 2 -8 10 -14 45 -48 166 -77 279 -5 19 -11 42
-14 50 -19 69 -48 178 -51 192 -6 29 -10 43 -68 258 -31 113 -70 257 -86 320
-17 63 -35 129 -40 145 -5 17 -11 42 -14 57 -2 15 -7 31 -10 36 -3 5 -7 19
-10 33 -2 13 -21 87 -41 164 -21 77 -58 217 -82 310 -25 94 -49 186 -54 205
-5 19 -12 46 -15 59 -3 14 -14 58 -26 100 -11 41 -22 82 -23 91 -2 8 -4 15 -5
15 -2 0 -9 27 -15 60 -2 11 -9 36 -14 55 -5 19 -17 64 -26 100 -9 36 -18 72
-21 80 -6 23 -38 149 -79 310 -20 80 -39 152 -42 160 -3 8 -7 20 -8 25 -2 6
-10 39 -19 75 -9 36 -19 76 -22 90 -2 14 -9 39 -15 56 -5 17 -12 40 -14 50 -2
10 -9 39 -16 64 -6 25 -13 53 -15 63 -6 27 -12 48 -29 107 -8 30 -22 82 -29
115 -8 33 -29 114 -46 180 -17 66 -33 127 -35 135 -1 8 -8 35 -15 60 -7 25
-14 52 -16 60 -2 8 -13 51 -24 95 -12 44 -23 87 -25 95 -2 8 -4 16 -5 18 -3 2
-3 4 -14 52 -4 19 -14 58 -22 86 l-14 50 -490 0 -490 0 0 -2728 0 -2728 324 0
c250 0 325 3 328 13 2 6 3 974 3 2149 -1 1175 2 2135 5 2133 4 -2 12 -30 20
-62 7 -32 23 -88 35 -125 13 -38 21 -68 18 -68 -3 0 0 -7 7 -15 7 -8 10 -15 6
-15 -3 0 -1 -11 4 -25 5 -14 12 -36 14 -48 2 -12 14 -51 25 -87 11 -36 22 -75
24 -85 2 -11 7 -27 10 -35 3 -8 61 -206 127 -440 67 -234 124 -432 127 -440 3
-8 7 -19 9 -25 1 -5 18 -66 38 -135 20 -69 38 -133 41 -143 2 -10 15 -55 29
-101 14 -45 28 -93 30 -107 3 -13 5 -25 7 -26 1 -2 2 -6 4 -10 1 -5 5 -16 10
-26 4 -10 9 -26 10 -35 1 -10 4 -24 7 -32 3 -8 18 -58 33 -110 57 -204 69
-246 90 -320 9 -30 25 -84 35 -120 10 -36 62 -213 114 -395 53 -181 98 -339
100 -350 3 -11 12 -42 21 -70 9 -27 18 -60 21 -73 2 -13 11 -42 19 -66 8 -23
16 -51 18 -62 2 -10 7 -26 10 -34 5 -13 13 -41 33 -115 2 -5 34 -118 72 -250
l69 -240 285 -3 285 -2 29 107 c16 60 29 110 30 113 0 3 3 12 6 20 5 14 152
529 154 540 0 3 6 25 13 50 7 25 14 50 15 55 7 28 28 105 40 140 12 34 64 219
71 250 1 5 4 17 7 25 5 13 23 76 79 280 10 36 27 99 39 140 12 41 23 82 25 90
2 8 8 27 14 42 6 16 8 28 5 28 -2 0 0 9 6 21 6 11 13 28 15 37 1 9 9 37 16 62
15 53 12 44 28 100 7 25 23 84 37 131 13 47 26 94 29 105 2 10 11 44 20 74 9
30 18 62 20 70 2 8 4 17 6 20 1 3 3 10 4 15 1 6 4 17 7 25 5 13 37 128 43 155
1 6 5 17 8 25 7 17 175 613 182 645 3 11 14 49 24 85 29 96 51 174 50 180 0 3
4 17 10 33 6 15 13 38 15 50 3 12 39 141 81 287 82 285 83 289 84 308 1 6 7
12 15 12 12 0 14 -303 15 -2156 0 -1186 1 -2158 3 -2159 2 -2 100 16 218 41
118 24 262 54 320 65 58 12 113 23 123 25 10 2 26 5 35 8 9 3 31 8 48 11 17 2
105 20 195 39 90 19 180 38 199 41 19 3 51 10 70 15 19 5 53 12 75 16 22 3 67
12 100 19 33 8 71 16 85 18 14 3 68 14 120 25 103 23 154 33 185 37 11 2 20 4
20 5 0 2 14 5 60 13 17 3 41 8 55 11 23 5 95 20 145 30 11 3 79 16 150 31 72
15 141 29 155 31 13 3 56 12 95 20 38 9 81 18 95 20 14 2 66 13 115 24 50 11
105 22 123 25 18 2 36 6 40 9 4 2 26 7 48 10 51 8 81 14 102 20 9 3 28 7 42
10 14 2 93 18 175 35 169 35 188 39 230 46 71 13 65 -19 65 351 l0 335 -32 -4
c-18 -3 -40 -7 -48 -10 -15 -6 -137 -36 -173 -43 -10 -2 -27 -6 -37 -9 -10 -3
-27 -8 -37 -10 -10 -2 -83 -20 -163 -39 -80 -20 -154 -38 -165 -40 -17 -4 -63
-15 -125 -30 -8 -2 -28 -7 -45 -11 -34 -7 -72 -16 -200 -46 -49 -11 -99 -23
-110 -25 -50 -10 -63 -13 -105 -24 -25 -7 -56 -14 -70 -17 -14 -2 -65 -13
-115 -24 -117 -26 -113 -25 -228 -49 -55 -11 -136 -29 -181 -40 -45 -10 -93
-21 -106 -24 -14 -2 -45 -9 -70 -15 -25 -5 -56 -12 -70 -15 -14 -2 -83 -16
-155 -31 -71 -15 -139 -29 -150 -31 -11 -2 -42 -8 -70 -14 -27 -6 -61 -13 -75
-15 -14 -3 -38 -8 -55 -11 -16 -4 -39 -8 -50 -9 -11 -2 -20 -4 -20 -5 0 -2
-32 -9 -65 -14 -14 -3 -44 -9 -67 -14 -24 -5 -44 -9 -44 -8 -1 0 -3 396 -3
879 -1 604 1 880 9 885 5 3 18 8 27 9 9 2 69 14 133 28 64 14 129 27 143 30
75 14 90 17 127 26 22 5 55 12 74 15 19 2 52 9 75 15 23 5 53 11 68 14 16 2
44 9 65 14 20 6 40 8 44 5 4 -2 10 0 13 5 3 5 27 12 53 16 69 11 76 12 198 40
61 14 121 27 135 30 14 3 36 7 50 10 14 3 36 8 50 11 14 3 33 7 42 10 10 3 30
7 45 10 16 3 57 12 93 20 36 9 74 17 85 20 11 2 31 6 45 9 14 4 36 8 49 11 12
3 53 12 90 20 36 9 75 18 86 20 11 2 70 15 130 29 61 14 123 27 139 30 15 2
36 7 46 10 10 3 29 8 42 10 13 3 48 10 78 17 30 7 60 13 65 14 6 1 12 3 15 4
3 1 12 3 20 5 8 1 51 11 95 21 95 22 81 18 132 28 24 4 46 13 50 18 7 12 9
596 2 603 -3 2 -45 -5 -94 -16 -50 -11 -106 -22 -125 -25 -19 -3 -51 -9 -70
-14 -19 -5 -51 -12 -70 -15 -19 -3 -51 -10 -70 -15 -19 -5 -48 -12 -65 -15
-68 -12 -94 -17 -180 -36 -49 -12 -101 -23 -115 -25 -14 -3 -65 -14 -115 -25
-49 -11 -101 -22 -115 -25 -26 -5 -78 -16 -95 -20 -5 -2 -23 -5 -40 -9 -16 -3
-50 -10 -75 -15 -25 -6 -54 -12 -65 -15 -11 -2 -51 -11 -90 -20 -38 -8 -79
-17 -90 -19 -11 -2 -50 -11 -86 -20 -37 -8 -78 -18 -90 -20 -13 -3 -55 -12
-92 -21 -37 -8 -82 -17 -99 -20 -17 -3 -35 -8 -39 -11 -5 -3 -21 -7 -36 -9
-16 -2 -80 -16 -143 -30 -63 -15 -124 -29 -135 -31 -19 -4 -125 -26 -135 -29
-10 -2 -115 -25 -135 -29 -11 -3 -40 -9 -65 -15 -25 -7 -53 -13 -62 -16 -9 -2
-18 2 -21 8 -2 7 -3 365 -3 797 l1 784 35 8 c19 4 49 10 65 12 46 7 96 16 140
26 22 5 60 12 85 15 24 4 47 8 50 10 4 2 29 7 56 11 27 3 59 10 71 15 13 5 23
7 23 4 0 -2 15 1 33 6 17 5 48 12 67 15 30 4 88 16 315 65 22 4 51 11 65 14
14 3 36 8 50 10 28 4 130 27 230 51 35 9 76 17 90 19 14 2 83 18 154 35 70 18
133 33 140 34 6 1 17 5 24 9 6 5 12 6 12 4 0 -3 17 -1 38 5 20 5 66 16 102 24
36 8 72 17 80 19 34 8 156 37 170 40 8 2 98 24 200 50 102 26 192 48 200 49 9
1 21 5 28 10 6 4 12 5 12 3 0 -2 66 13 148 33 l147 36 3 307 c1 169 -1 307 -5
306 -5 -1 -42 -10 -83 -20z"/>
</g>
</svg>
