<svg xmlns="http://www.w3.org/2000/svg" viewBox="0 0 487.33 175.67"><defs><style>.cls-1{fill:none;}.cls-2{fill:#4559a8;}.cls-3{fill:#111;}</style></defs><title>icons2</title><g id="Layer_2" data-name="Layer 2"><g id="Layer_1-2" data-name="Layer 1"><rect class="cls-1" width="487.33" height="175.67"/><path class="cls-2" d="M66.46,57.36a5.6,5.6,0,0,1-.18,2.15c-.08.39-.16.78-.21,1.15A99.31,99.31,0,0,0,64.6,82.12c.43,5.52-1.8,9.73-3.13,12.24a7.21,7.21,0,0,0-1,2.48c-.11,3.81-.1,6.34-.09,9.53,0,1.15,0,2.38,0,3.81.06,1.16-.24,1.52-1.49,1.83l-1.09.18-.4.06c0-1,0-2.24,0-3.63,0-4.37,0-9.82,0-11.46a6.48,6.48,0,0,1,.38-.76,11.57,11.57,0,0,0,1.71-6.62,46.75,46.75,0,0,1,.67-10.33,5,5,0,0,0,.24-2A2,2,0,0,0,59,76.08a1.6,1.6,0,0,0-1.61.59A2.27,2.27,0,0,0,57,77.78c0,.09,0,.18,0,.26-.31,1.41-.62,2.87-.85,4.3a.18.18,0,0,1-.08.11l-.06,0c.21-2.55.36-5.18.51-7.73l0-.33a2.22,2.22,0,0,0-.38-1.71,1.61,1.61,0,0,0-1.25-.48c-1.57,0-1.7,1.29-1.77,2-.13,2.06-.3,4.15-.45,6.22V77.8c0-1.74,0-3.54-.08-5.33A1.33,1.33,0,0,0,52,71.36l-.09,0a2.49,2.49,0,0,0-1.93,0,1.85,1.85,0,0,0-.67.84,1.94,1.94,0,0,0-.16,1.07,1.34,1.34,0,0,1,0,.2V81.1l-1-6.52a1.74,1.74,0,0,0-.71-1.24A1.77,1.77,0,0,0,46,73.06c-1.13.22-1.41.83-1.51,1.81a11.28,11.28,0,0,0,.16,1.58c.18,1.5.37,3,.57,4.55.23,1.75.45,3.51.66,5.27,0,.43,0,.67-.1.75a.22.22,0,0,1-.17.06,2.35,2.35,0,0,1-.55-.68L45,86.24a18.19,18.19,0,0,1-1.06-2c-.17-.36-.35-.72-.52-1A2,2,0,0,0,40.77,82,2.23,2.23,0,0,0,40,84.87c.45,1.06.89,2.13,1.33,3.21.68,1.68,1.38,3.4,2.13,5a8.62,8.62,0,0,0,1.82,2.75,4,4,0,0,1,1.13,2.8v14c-1-.08-2-.2-3-.33s-1.42-.48-1.36-1.67c.12-2.67.1-5.4.09-8,0-.88,0-1.77,0-2.65a10,10,0,0,0-2.86-7,18.57,18.57,0,0,1-3.35-4.93c-1.42-3.19-2.78-6.49-4.1-9.68-1-2.38-2-4.77-3-7.14a2.26,2.26,0,0,1,.44-2.93,1,1,0,0,1,.64-.22l.29,0a3.45,3.45,0,0,1,2.05,1.72c.32.62.62,1.26.93,1.9A36.49,36.49,0,0,0,35.6,76.2,4.82,4.82,0,0,0,39,78.27a2.05,2.05,0,0,0,1.6-.6c.64-.7.53-1.77.41-3l-2.54-20c0-.3-.11-.6-.17-.91a4.57,4.57,0,0,1-.15-1.93c0-.13.05-.26.08-.39.18-.88.28-1.37,1.45-1.47a1.12,1.12,0,0,1,.86.2,1.85,1.85,0,0,1,.77,1.23l2.32,15.58A2.08,2.08,0,0,0,46,68.57l.23-.06a1.59,1.59,0,0,0,1.4-1.82V48.26a4,4,0,0,1,.13-1.42c.22-.69.3-.74.5-.85a2.82,2.82,0,0,1,2.05.17c.34.39.39.55.39.82.12,2.69.1,5.46.09,8.14,0,.91,0,1.81,0,2.71s0,1.81,0,2.72c0,1.8,0,3.65,0,5.46v.24c0,.9,0,1.92,1.4,2a2,2,0,0,0,2.08-1.78c.19-2.66.4-5.31.61-8s.43-5.29.62-7.94c.17-1.78.44-2.37,1.69-2.37a1.38,1.38,0,0,1,1.07.35,3,3,0,0,1,.38,2c-.33,5.89-.63,11.2-1,16.66a1.88,1.88,0,0,0,1.72,2,2,2,0,0,0,2.22-1.56l.79-4.24c.27-1.47.55-2.94.82-4.39,0-.22.07-.44.1-.65a3.23,3.23,0,0,1,.4-1.42,2.46,2.46,0,0,1,1.46-1A2.16,2.16,0,0,1,66.46,57.36Zm34.26,22c0,27.3-22.55,49.44-50.36,49.44S0,106.61,0,79.31,22.55,29.86,50.36,29.86,100.72,52,100.72,79.31Zm-33-22.2a3.32,3.32,0,0,0-2.31-2.28c-1-.26-2.28.85-2.72,1.42a4.12,4.12,0,0,0-.65,2,5.81,5.81,0,0,1-.09.58c-.27,1.46-.54,2.93-.82,4.4l-.79,4.23a.73.73,0,0,1-.84.56.68.68,0,0,1-.62-.77c.37-5.38.67-10.7,1-16.6a3.93,3.93,0,0,0-.72-2.93,2.65,2.65,0,0,0-2-.73c-2.59,0-2.8,2.1-2.94,3.51-.19,2.66-.4,5.31-.61,8s-.43,5.29-.62,7.93a.71.71,0,0,1-.71.65L52,67a3.19,3.19,0,0,1,0-.75V66c0-1.81,0-3.68,0-5.49,0-.91,0-1.81,0-2.71s0-1.8,0-2.7c0-2.7,0-5.49-.09-8.18a2.32,2.32,0,0,0-.73-1.64,3.71,3.71,0,0,0-3.6-.4,2.2,2.2,0,0,0-1,1.52,4.88,4.88,0,0,0-.2,1.85V66.69c0,.54-.16.56-.37.59l-.23.07a.8.8,0,0,1-.85-.53L42.58,51.27a3.1,3.1,0,0,0-1.3-2.07,2.27,2.27,0,0,0-1.75-.39A2.54,2.54,0,0,0,37,51.26a2.9,2.9,0,0,1-.07.34,5.67,5.67,0,0,0,.14,2.48c.06.28.12.57.16.83l2.54,20c.08.77.17,1.64-.1,1.94A.93.93,0,0,1,39,77a3.71,3.71,0,0,1-2.41-1.52,34.93,34.93,0,0,1-2.32-4.31c-.31-.65-.63-1.3-1-1.93a4.69,4.69,0,0,0-2.9-2.37,2.28,2.28,0,0,0-2,.45,3.51,3.51,0,0,0-.78,4.4c1,2.35,2,4.73,3,7.11,1.32,3.2,2.69,6.5,4.12,9.71a19.88,19.88,0,0,0,3.57,5.27A8.78,8.78,0,0,1,40.88,100c0,.88,0,1.77,0,2.66,0,2.63,0,5.34-.09,8-.1,1.85.69,2.8,2.53,3,1.2.15,2.45.3,3.68.37h0a.68.68,0,0,0,.43-.17.67.67,0,0,0,.2-.46V98.66A5.19,5.19,0,0,0,46.2,95a7.72,7.72,0,0,1-1.58-2.39c-.75-1.63-1.45-3.35-2.13-5-.44-1.09-.88-2.17-1.34-3.24-.2-.44-.07-1.09.14-1.2a.82.82,0,0,1,1,.54c.18.35.34.7.51,1.05a20.59,20.59,0,0,0,1.15,2.17l.11.17c.34.52.82,1.23,1.56,1.23a1.46,1.46,0,0,0,1.13-.47,2.16,2.16,0,0,0,.41-1.73c-.2-1.77-.43-3.54-.66-5.29-.2-1.53-.39-3-.57-4.57a9.59,9.59,0,0,1-.15-1.34c0-.56.07-.56.51-.65a.53.53,0,0,1,.43.08.53.53,0,0,1,.2.38l1.16,7.69c.16.77.57,1.12,1.21,1h.1a.39.39,0,0,0,.15,0,1,1,0,0,0,.86-1.13V73.45a2.44,2.44,0,0,0,0-.27,1.14,1.14,0,0,1,0-.43c.15-.29.16-.31.2-.34a1.84,1.84,0,0,1,.7,0c.07,0,.08.07.07.08.08,1.78.08,3.57.08,5.3V82a1.35,1.35,0,0,0,.28,1.06,1,1,0,0,0,.67.28,1.22,1.22,0,0,0,1.38-1.18c.22-2.59.46-5.26.61-7.87.09-.86.16-.86.53-.86a.53.53,0,0,1,.32.07s.12.2.06.77l0,.36c-.15,2.57-.3,5.23-.52,7.8a1.11,1.11,0,0,0,1,1.25,1.47,1.47,0,0,0,1.63-1.17c.23-1.41.54-2.85.84-4.25l.06-.34a1.51,1.51,0,0,1,.13-.53.42.42,0,0,1,.31-.14.88.88,0,0,1,.43.37,4.4,4.4,0,0,1-.23,1.53,47.44,47.44,0,0,0-.7,10.66,10.26,10.26,0,0,1-1.56,6,3.49,3.49,0,0,0-.52,1.26c-.06,1.72,0,7.18,0,11.57,0,1.77,0,3.34,0,4.37a.64.64,0,0,0,.22.48.62.62,0,0,0,.52.13c.38-.08.74-.13,1.1-.19s.74-.11,1.16-.19c1.85-.45,2.57-1.36,2.48-3.09,0-1.4,0-2.62,0-3.77,0-3.19,0-5.7.09-9.48A8.32,8.32,0,0,1,62.57,95c1.4-2.64,3.73-7,3.28-12.9a97.82,97.82,0,0,1,1.46-21.21c0-.36.12-.72.19-1.08A6.39,6.39,0,0,0,67.68,57.11Z"/><path class="cls-2" d="M197.55,74.35l3.38,8h-6.77ZM183.24,65.5A4.22,4.22,0,0,0,179,69.66V81.57h-5.65a2.31,2.31,0,0,0-1.92.94A43.05,43.05,0,0,1,162.94,91a22.49,22.49,0,0,0,.88-7.16,2.48,2.48,0,0,0-2.44-2.26h-7.67a3,3,0,0,1-3-2.91v-20a3,3,0,0,1,3-2.91h28.63a3,3,0,0,1,3,2.91v6.8Zm-7.8.63a.63.63,0,0,0-.63-.63h-6.16V62.08a.63.63,0,1,0-1.25,0V65.5h-7a.63.63,0,1,0,0,1.25h11a30.64,30.64,0,0,1-3.79,4l0,0a30.07,30.07,0,0,1-5.7,3.92.62.62,0,1,0,.57,1.11A30,30,0,0,0,168,72l4.63,3.9a.62.62,0,0,0,.4.15.64.64,0,0,0,.48-.22.62.62,0,0,0-.08-.88L169,71.17a31.33,31.33,0,0,0,4-4.42h1.83A.63.63,0,0,0,175.44,66.13Zm39.44,3.53v20a3,3,0,0,1-3,2.9h-7.68a2.48,2.48,0,0,0-2.44,2.29,22.35,22.35,0,0,0,.88,7.13,43.1,43.1,0,0,1-8.44-8.45,2.31,2.31,0,0,0-1.94-1h-9a3,3,0,0,1-3-2.9v-20a3,3,0,0,1,3-2.91h28.63A3,3,0,0,1,214.88,69.66ZM204.19,86.81l-1.73-4.07v0l-4.32-10.2a.66.66,0,0,0-1.16,0l-4.32,10.2v0l-1.73,4.07a.63.63,0,0,0,1.16.48l1.56-3.7h7.83l1.57,3.7a.64.64,0,0,0,.58.38.52.52,0,0,0,.24,0A.62.62,0,0,0,204.19,86.81Zm25.4-7.5c0,27.3-22.55,49.44-50.36,49.44s-50.36-22.14-50.36-49.44,22.55-49.45,50.36-49.45S229.59,52,229.59,79.31ZM216.13,89.63v-20a4.22,4.22,0,0,0-4.26-4.16H186.6V58.7a4.21,4.21,0,0,0-4.26-4.16H153.71a4.22,4.22,0,0,0-4.27,4.16v20a4.22,4.22,0,0,0,4.27,4.16h7.67a1.23,1.23,0,0,1,1.19,1.09,20.82,20.82,0,0,1-1.38,8.35.63.63,0,0,0,.9.77c4.38-2.55,8.33-7.21,10.32-9.79a1.09,1.09,0,0,1,.91-.42H179v6.81a4.21,4.21,0,0,0,4.27,4.15h9a1.1,1.1,0,0,1,.93.45c2.41,3.12,6.15,7.34,10.3,9.76a.63.63,0,0,0,.9-.77A20.94,20.94,0,0,1,203,94.9a1.24,1.24,0,0,1,1.19-1.12h7.68A4.21,4.21,0,0,0,216.13,89.63Z"/><path class="cls-2" d="M346.32,94.06h-20a13.83,13.83,0,0,0-5.23-8,16.22,16.22,0,0,1,4.75-2.29,1.23,1.23,0,0,0,.36-2.25,8.8,8.8,0,0,1-3.88-7.39,8.93,8.93,0,1,1,14,7.4,1.23,1.23,0,0,0,.37,2.24C342.29,85.44,346,89.45,346.32,94.06Zm-51.17-8a16.59,16.59,0,0,0-4.8-2.33,1.23,1.23,0,0,1-.36-2.24,9,9,0,1,0-14-7.4,8.8,8.8,0,0,0,3.88,7.39,1.29,1.29,0,0,1,.57,1.25,1.27,1.27,0,0,1-.93,1c-5.53,1.65-9.33,5.75-9.65,10.33H290A13.85,13.85,0,0,1,295.15,86.06Zm30.05,8.71a12.71,12.71,0,0,0-5.48-8.23h0a18.52,18.52,0,0,0-5.38-2.6,1.37,1.37,0,0,1-1-1.07,1.35,1.35,0,0,1,.6-1.32,10.24,10.24,0,1,0-16-8.46,10.06,10.06,0,0,0,4.44,8.45,1.31,1.31,0,0,1-.39,2.4,18.49,18.49,0,0,0-5.45,2.63l0,0a12.65,12.65,0,0,0-5.41,8.19v0c-.05.33-.09.67-.11,1h34.3a8.49,8.49,0,0,0-.11-1Zm33.26-15.46c0,27.3-22.55,49.44-50.36,49.44s-50.36-22.14-50.36-49.44,22.55-49.45,50.36-49.45S358.46,52,358.46,79.31ZM347.59,94.68c0-5.43-4.15-10.2-10.58-12.16a10.16,10.16,0,1,0-11.5,0A17.08,17.08,0,0,0,320,85.25a20.3,20.3,0,0,0-5.38-2.52c-.07,0-.1,0-.1-.07s0-.06.07-.09a11.49,11.49,0,1,0-17.92-9.49,11.32,11.32,0,0,0,5,9.49c.06,0,.08.07.07.09s0,0-.11.07a19.79,19.79,0,0,0-5.45,2.56,18.06,18.06,0,0,0-5.51-2.77,10.21,10.21,0,1,0-15.92-8.43,10.13,10.13,0,0,0,4.42,8.45c-6.32,1.88-10.57,6.76-10.57,12.14a.63.63,0,0,0,.63.63H289.8a10.31,10.31,0,0,0-.05,1.11.62.62,0,0,0,.62.62H326a.62.62,0,0,0,.62-.62c0-.37,0-.74-.05-1.11H347A.63.63,0,0,0,347.59,94.68Z"/><path class="cls-2" d="M428.76,69.4l-.88-3.91H415.81l-.88,3.92v0l-2.22,9H431l-2.22-9S428.76,69.42,428.76,69.4Zm-11.17-1.85H426a.63.63,0,0,1,0,1.25h-8.45a.63.63,0,1,1,0-1.25Zm-.78,3.8H427a.63.63,0,1,1,0,1.25H416.81a.63.63,0,1,1,0-1.25Zm11.36,5.11H415.53a.63.63,0,1,1,0-1.25h12.64a.63.63,0,0,1,0,1.25Zm9.53,27.41h34.61v.77a3.16,3.16,0,0,1-3.2,3.1h-28.2a3.16,3.16,0,0,1-3.21-3.1ZM414.53,65.49h-1a.63.63,0,1,1,0-1.25h16.62a.63.63,0,0,1,0,1.25h-1l.72,3.17h7.45a1.09,1.09,0,0,0,1.08-1V57.48a1.09,1.09,0,0,0-1.08-1h-8.54V59a1.43,1.43,0,0,1-1.47,1.46H416.38A1.44,1.44,0,0,1,414.9,59V56.44h-8.39a1.09,1.09,0,0,0-1.08,1V67.62a1.09,1.09,0,0,0,1.08,1h7.31Zm17.76-8.29h2.55a.63.63,0,1,1,0,1.25h-2.55a.63.63,0,1,1,0-1.25ZM458.57,109l.59,3.05h-8.3l.58-3.05ZM437,29.86c-27.81,0-50.36,22.14-50.36,49.45s22.55,49.44,50.36,49.44,50.36-22.14,50.36-49.44S464.78,29.86,437,29.86Zm-4.69,49.61a.63.63,0,0,1-.49.24H411.91a.64.64,0,0,1-.5-.24.65.65,0,0,1-.11-.54l2.22-9h-7a2.34,2.34,0,0,1-2.33-2.29V57.48a2.34,2.34,0,0,1,2.33-2.29h8.39V50.36a1.4,1.4,0,0,1,.41-1l3.76-3.59a1.51,1.51,0,0,1,1-.45h7.25a1.43,1.43,0,0,1,1.47,1.45v8.42h8.54a2.34,2.34,0,0,1,2.33,2.29V67.62a2.34,2.34,0,0,1-2.33,2.29h-7.16l2.23,9A.65.65,0,0,1,432.28,79.47ZM433.5,74a.29.29,0,0,1,.14-.25L438,71a.3.3,0,0,1,.42.1.29.29,0,0,1-.09.41l-3,1.89h14.1a.63.63,0,0,1,.63.63.63.63,0,0,1-.63.62h-14l2.91,1.86a.31.31,0,0,1,.09.42.31.31,0,0,1-.26.14.33.33,0,0,1-.16,0l-4.32-2.75A.3.3,0,0,1,433.5,74Zm1,4.3a.63.63,0,0,1,.63-.63H449.3l-2.94-1.87a.31.31,0,0,1-.09-.42.32.32,0,0,1,.42-.1L451,78.08a.29.29,0,0,1,.14.25.3.3,0,0,1-.14.26l-4.32,2.75a.26.26,0,0,1-.17,0,.29.29,0,0,1-.25-.14.31.31,0,0,1,.09-.42L449.3,79H435.12A.63.63,0,0,1,434.49,78.34ZM469.11,109h-9.26l.58,3.05H463a.63.63,0,0,1,0,1.25H447.05a.63.63,0,0,1,0-1.25h2.54l.58-3.05h-9.26a4.41,4.41,0,0,1-4.46-4.35V86.47a4.41,4.41,0,0,1,4.46-4.35h28.2a4.41,4.41,0,0,1,4.45,4.35v18.17A4.41,4.41,0,0,1,469.11,109Zm3.2-22.52v16.15H437.7V86.47a3.16,3.16,0,0,1,3.21-3.1h28.2A3.16,3.16,0,0,1,472.31,86.47ZM416.15,59V50.36a.41.41,0,0,1,0-.1l3.77-3.59.13-.1h7.25c.22,0,.22.15.22.2V59s0,.21-.22.21H416.38C416.15,59.2,416.15,59,416.15,59Z"/><path class="cls-3" d="M113,6.62v9h1.36V9.53l5.37-8.46H116.3Zm-.42,0v9h-1.37V9.53l-5.37-8.46h3.38Zm-1.79-4.5a2,2,0,1,1,4,0,2,2,0,1,1-4,0m32.38,13.74c-4.51,0-6.18-2.24-6.18-5.85V1.07h3.18v9.16c0,2.18,1.22,3.13,3,3.13a2.79,2.79,0,0,0,3-3.13V1.07h3.16v9c0,3.55-1.69,5.77-6.2,5.77M130.89,8.44c0-3.63-1.44-5.15-3.68-5.15s-3.73,1.52-3.73,5.15,1.48,5,3.73,5,3.68-1.43,3.68-5m-10.81,0c0-4.68,2.81-7.55,7.13-7.55s7.08,2.87,7.08,7.53-2.74,7.46-7.08,7.46-7.13-2.82-7.13-7.44m39.35,6.91a6.47,6.47,0,0,1-5-1.88L155.81,12a4.79,4.79,0,0,0,3.66,1.38c1.88,0,2.94-.8,2.94-2.2a1.82,1.82,0,0,0-.56-1.48,2.81,2.81,0,0,0-1.56-.6l-1.68-.24a4.81,4.81,0,0,1-2.68-1.14A3.54,3.54,0,0,1,154.87,5c0-2.49,1.8-4.17,4.76-4.17a5.9,5.9,0,0,1,4.42,1.62l-1.36,1.36a4.25,4.25,0,0,0-3.14-1.1c-1.68,0-2.58.92-2.58,2.23a1.62,1.62,0,0,0,.52,1.31,2.7,2.7,0,0,0,1.56.65l1.7.26a4.63,4.63,0,0,1,2.64,1.06,3.79,3.79,0,0,1,1.16,2.92C164.55,13.77,162.43,15.33,159.43,15.33Zm10.86,1.9a3.28,3.28,0,0,1-.74,1.26,2.81,2.81,0,0,1-2.08.74h-.82V17.39h.52c.86,0,1.16-.26,1.46-1.08l.56-1.58-3.54-9.67h2.16l2.42,7.15,2.36-7.15h2.18Zm9.28-1.9a5.58,5.58,0,0,1-4.26-1.46l1.34-1.34a3.94,3.94,0,0,0,2.92,1.06c1.26,0,2.22-.44,2.22-1.4,0-.7-.38-1.1-1.36-1.2l-1.62-.14c-1.92-.18-3-1-3-2.8,0-2,1.7-3.1,3.82-3.1a5.48,5.48,0,0,1,3.76,1.14l-1.28,1.3a3.83,3.83,0,0,0-2.5-.74c-1.24,0-1.84.52-1.84,1.3s.4,1.06,1.4,1.16l1.42.12c2.1.18,3.2,1.1,3.2,2.88C183.79,14.23,182,15.33,179.57,15.33Zm9.52-.12a2.64,2.64,0,0,1-2.78-2.82V6.63h-1.16V5.06h1.16V2.16h2v2.9h2V6.63h-2v5.66a1,1,0,0,0,1.12,1.18h.84v1.74Zm5.24-4.48c0,1.76.9,2.84,2.58,2.84a3,3,0,0,0,2.46-1l1.3,1.22a4.76,4.76,0,0,1-3.8,1.58c-2.54,0-4.56-1.34-4.56-5.2,0-3.3,1.7-5.18,4.3-5.18s4.3,2,4.3,4.92v.86Zm4.28-2.8a2.22,2.22,0,0,0-4,0,3.15,3.15,0,0,0-.26,1.38h4.56A3.45,3.45,0,0,0,198.61,7.93ZM216,15.21V9a2,2,0,0,0-2-2.26,2,2,0,0,0-2.1,2.16v6.28h-2V9a2,2,0,0,0-2-2.26A2,2,0,0,0,205.65,9v6.18h-2V5.06h2v1A3.67,3.67,0,0,1,208.31,5a3.24,3.24,0,0,1,2.88,1.48A3.85,3.85,0,0,1,214.37,5a3.67,3.67,0,0,1,2.56.92A3.77,3.77,0,0,1,218,8.73v6.48Zm21.84,0h-1.88l-2.9-10-2.88,10h-1.88L224.55,1h2.28l2.48,10.19L232.17,1h1.74l2.86,10.19L239.25,1h2.29Zm6.28-4.48c0,1.76.9,2.84,2.58,2.84a3,3,0,0,0,2.46-1l1.3,1.22a4.76,4.76,0,0,1-3.8,1.58c-2.54,0-4.56-1.34-4.56-5.2,0-3.3,1.7-5.18,4.3-5.18s4.3,2,4.3,4.92v.86Zm4.28-2.8a2.22,2.22,0,0,0-4,0,3.15,3.15,0,0,0-.26,1.38h4.56A3.45,3.45,0,0,0,248.37,7.93Zm12.16,6.5a3.51,3.51,0,0,1-2.48.9,3.14,3.14,0,0,1-2.68-1.2v1.08h-2V1h2V6.09A3.14,3.14,0,0,1,258.07,5a3.46,3.46,0,0,1,2.46.9c1,1,1.14,2.62,1.14,4.28S261.51,13.43,260.53,14.43Zm-3-7.66c-1.86,0-2.12,1.56-2.12,3.36s.26,3.38,2.12,3.38,2.1-1.58,2.1-3.38S259.37,6.77,257.53,6.77Zm20.12,8.44-1-2.86h-5.62l-1,2.86h-2.3L273,1h1.74L280,15.21Zm-3.74-11-2.22,6.33h4.38Zm15,10.25a3.42,3.42,0,0,1-2.46.9,3.1,3.1,0,0,1-2.66-1.16v5.14h-2V5.06h2V6.15A3.12,3.12,0,0,1,286.41,5a3.47,3.47,0,0,1,2.48.9c1,1,1.14,2.62,1.14,4.28S289.87,13.43,288.89,14.43Zm-3-7.66c-1.86,0-2.12,1.56-2.12,3.36s.26,3.38,2.12,3.38,2.1-1.58,2.1-3.38S287.73,6.77,285.89,6.77ZM300,14.43a3.42,3.42,0,0,1-2.46.9,3.1,3.1,0,0,1-2.66-1.16v5.14h-2V5.06h2V6.15A3.12,3.12,0,0,1,297.47,5a3.47,3.47,0,0,1,2.48.9c1,1,1.14,2.62,1.14,4.28S300.93,13.43,300,14.43Zm-3-7.66c-1.86,0-2.12,1.56-2.12,3.36s.26,3.38,2.12,3.38,2.1-1.58,2.1-3.38S298.79,6.77,297,6.77Zm9.62,8.44a2.58,2.58,0,0,1-2.78-2.8V1h2V12.29c0,.78.28,1.18,1.1,1.18h.9v1.74ZM310,3.06V.9h2.16V3.06Zm.06,12.15V5.06h2V15.21Zm9.28.12c-2.28,0-4.52-1.4-4.52-5.2S317.07,5,319.35,5a4.16,4.16,0,0,1,3.34,1.42l-1.4,1.36a2.36,2.36,0,0,0-1.94-1,2.29,2.29,0,0,0-1.88.9,3.75,3.75,0,0,0-.6,2.46,3.81,3.81,0,0,0,.6,2.48,2.29,2.29,0,0,0,1.88.9,2.36,2.36,0,0,0,1.94-1l1.4,1.34A4.18,4.18,0,0,1,319.35,15.33Zm11.06-.12v-.92a3.34,3.34,0,0,1-2.7,1,3.58,3.58,0,0,1-2.72-.92,3.11,3.11,0,0,1-.8-2.18c0-1.7,1.18-2.92,3.52-2.92h2.66V8.59c0-1.3-.62-1.9-2.22-1.9a2.45,2.45,0,0,0-2.22,1l-1.32-1.26A4.09,4.09,0,0,1,328.23,5c2.8,0,4.18,1.2,4.18,3.48v6.78Zm0-4.48H328c-1.24,0-1.86.52-1.86,1.46s.58,1.44,1.92,1.44a2.44,2.44,0,0,0,1.84-.58,2,2,0,0,0,.44-1.5Zm8.2,4.48a2.64,2.64,0,0,1-2.78-2.82V6.63h-1.16V5.06h1.16V2.16h2v2.9h2V6.63h-2v5.66A1,1,0,0,0,339,13.47h.84v1.74Zm3.76-12.15V.9h2.16V3.06Zm.06,12.15V5.06h2V15.21Zm12.06-1.08a4.1,4.1,0,0,1-3,1.2,4.06,4.06,0,0,1-3-1.2c-1-1-1.2-2.28-1.2-4a5.32,5.32,0,0,1,1.2-4,4.06,4.06,0,0,1,3-1.2,4.1,4.1,0,0,1,3,1.2,5.32,5.32,0,0,1,1.2,4C355.65,11.85,355.41,13.13,354.45,14.13Zm-1.54-6.78a2.07,2.07,0,0,0-1.5-.58,2,2,0,0,0-1.48.58,3.92,3.92,0,0,0-.7,2.78,3.92,3.92,0,0,0,.7,2.78,2,2,0,0,0,1.48.6,2.08,2.08,0,0,0,1.5-.6,3.92,3.92,0,0,0,.7-2.78A3.92,3.92,0,0,0,352.91,7.35Zm11.68,7.86V9a2,2,0,0,0-2-2.26A2,2,0,0,0,360.45,9v6.18h-2V5.06h2v1A3.63,3.63,0,0,1,363.11,5a3.52,3.52,0,0,1,2.5.92,3.72,3.72,0,0,1,1,2.86v6.48ZM132.43,145.92a1.9,1.9,0,0,1-1.32.47,1.86,1.86,0,0,1-1.47-.62c-.56-.65-.62-1.38-.62-3.74s.06-3.1.62-3.75a1.86,1.86,0,0,1,1.47-.62,1.82,1.82,0,0,1,1.35.5,2.38,2.38,0,0,1,.61,1.7h-1a1.68,1.68,0,0,0-.27-1,.91.91,0,0,0-1.38,0c-.3.41-.35,1.09-.35,3.12s0,2.71.35,3.11a.91.91,0,0,0,1.38,0,1.74,1.74,0,0,0,.27-1h1A2.36,2.36,0,0,1,132.43,145.92Zm4,.38v-.56a1.52,1.52,0,0,1-.36.42,1.08,1.08,0,0,1-.73.23,1.3,1.3,0,0,1-1.07-.47,2.1,2.1,0,0,1-.39-1.39,1.84,1.84,0,0,1,.55-1.4,1.77,1.77,0,0,1,1.32-.42h.63v-1c0-.58-.25-.89-.73-.89a.65.65,0,0,0-.48.2,1,1,0,0,0-.23.72h-1a1.78,1.78,0,0,1,.48-1.32,1.75,1.75,0,0,1,1.2-.45,1.66,1.66,0,0,1,1.21.43,1.85,1.85,0,0,1,.49,1.37v4.51Zm-.05-2.88h-.55a.89.89,0,0,0-.69.23,1.21,1.21,0,0,0-.29.85c0,.64.25,1,.75,1s.78-.4.78-1Zm4.74,2.88v-4.57c0-.57-.33-.85-.74-.85s-.73.28-.73.85v4.57h-1v-6.22h.93v.48a1.28,1.28,0,0,1,.39-.38,1.25,1.25,0,0,1,.67-.19,1.29,1.29,0,0,1,1,.45,1.74,1.74,0,0,1,.37,1.29v4.57Zm7,0v-.48a1.23,1.23,0,0,1-1,.57,1.31,1.31,0,0,1-1.06-.45,1.74,1.74,0,0,1-.37-1.29v-4.57h1v4.57c0,.58.34.87.75.87s.73-.29.73-.87v-4.57h1v6.22Zm5-.4a1.67,1.67,0,0,1-1.27.49,1.72,1.72,0,0,1-1.25-.48,1.82,1.82,0,0,1-.52-1.36h1a1,1,0,0,0,.26.75.82.82,0,0,0,.55.22.81.81,0,0,0,.59-.23.91.91,0,0,0,.24-.62,1,1,0,0,0-.16-.57,1.39,1.39,0,0,0-.55-.44l-.8-.41a2,2,0,0,1-.85-.72,1.5,1.5,0,0,1-.2-.81,1.72,1.72,0,0,1,.52-1.26,1.85,1.85,0,0,1,2.43,0,1.79,1.79,0,0,1,.51,1.37h-1a1,1,0,0,0-.23-.74.69.69,0,0,0-.53-.22.75.75,0,0,0-.54.2.88.88,0,0,0-.23.6,1,1,0,0,0,.11.46,1.27,1.27,0,0,0,.52.41l.79.39a2,2,0,0,1,.88.71,1.86,1.86,0,0,1,.26,1A1.79,1.79,0,0,1,153.16,145.9Zm2.37-2.48a3.42,3.42,0,0,0,.25,1.83.65.65,0,0,0,.55.27.66.66,0,0,0,.55-.24,1,1,0,0,0,.21-.72h1a2,2,0,0,1-.51,1.38,1.63,1.63,0,0,1-1.22.45,1.55,1.55,0,0,1-1.24-.48c-.46-.49-.55-1.42-.55-2.72s.09-2.23.54-2.72a1.56,1.56,0,0,1,1.23-.48,1.54,1.54,0,0,1,1.22.48c.47.49.55,1.41.55,2.95Zm1.33-2.31a.66.66,0,0,0-.55-.25.63.63,0,0,0-.54.25c-.2.23-.24.68-.24,1.58h1.57C157.1,141.79,157.05,141.34,156.86,141.11Zm6.85,5.19v-.56a1.52,1.52,0,0,1-.36.42,1.08,1.08,0,0,1-.73.23,1.3,1.3,0,0,1-1.07-.47,2.1,2.1,0,0,1-.39-1.39,1.84,1.84,0,0,1,.55-1.4,1.77,1.77,0,0,1,1.32-.42h.63v-1c0-.58-.25-.89-.73-.89a.63.63,0,0,0-.48.2,1,1,0,0,0-.23.72h-1a1.78,1.78,0,0,1,.48-1.32,1.75,1.75,0,0,1,1.2-.45,1.66,1.66,0,0,1,1.21.43,1.85,1.85,0,0,1,.49,1.37v4.51Zm-.05-2.88h-.55a.89.89,0,0,0-.69.23,1.17,1.17,0,0,0-.29.85c0,.64.25,1,.75,1s.78-.4.78-1ZM171,146a1.66,1.66,0,0,1-1.22.43,1.53,1.53,0,0,1-1.31-.57,7.91,7.91,0,0,1,0-5.26,1.53,1.53,0,0,1,1.31-.57,1.62,1.62,0,0,1,1.21.42,1.93,1.93,0,0,1,.5,1.4h-1a1.09,1.09,0,0,0-.19-.72.64.64,0,0,0-.54-.23.66.66,0,0,0-.55.27c-.23.3-.24.93-.24,2.06a4.17,4.17,0,0,0,.24,2.06.66.66,0,0,0,.55.27.69.69,0,0,0,.53-.23,1,1,0,0,0,.2-.73h1A2,2,0,0,1,171,146Zm4,.34v-.48a1.28,1.28,0,0,1-.39.38,1.25,1.25,0,0,1-.67.19,1.28,1.28,0,0,1-1-.45,1.74,1.74,0,0,1-.37-1.29v-4.57h1v4.57c0,.58.33.87.74.87s.73-.29.73-.87v-4.57h1v6.22Zm4.4-5.38a1.07,1.07,0,0,0-1.13,1.14v4.24h-1v-6.22h.94v.66a1.5,1.5,0,0,1,.43-.44,1.74,1.74,0,0,1,1-.31v.93Zm3.27,0a1.07,1.07,0,0,0-1.13,1.14v4.24h-1v-6.22h.93v.66a1.8,1.8,0,0,1,.43-.44,1.76,1.76,0,0,1,1-.31v.93Zm1.88,2.5a3.52,3.52,0,0,0,.25,1.83.65.65,0,0,0,.55.27.69.69,0,0,0,.56-.24,1.08,1.08,0,0,0,.2-.72h1a1.94,1.94,0,0,1-.5,1.38,1.64,1.64,0,0,1-1.23.45,1.53,1.53,0,0,1-1.23-.48c-.47-.49-.55-1.42-.55-2.72s.08-2.23.54-2.72a1.79,1.79,0,0,1,2.44,0c.47.49.55,1.41.55,2.95Zm1.33-2.31a.66.66,0,0,0-.55-.25.64.64,0,0,0-.54.25c-.19.23-.24.68-.24,1.58h1.57C186.1,141.79,186.05,141.34,185.86,141.11Zm4.8,5.19v-4.57c0-.57-.33-.85-.74-.85s-.73.28-.73.85v4.57h-1v-6.22h.94v.48a1.25,1.25,0,0,1,.38-.38,1.4,1.4,0,0,1,1.73.26,1.74,1.74,0,0,1,.37,1.29v4.57Zm3.06-.39a1.69,1.69,0,0,1-.54-1.39v-3.68h-.71v-.76h.71v-1.7h1v1.7h1v.76h-1v3.65c0,.65.35.93,1,.93v.88A2.06,2.06,0,0,1,193.72,145.91Zm5.1,0a1.69,1.69,0,0,1-.55-1.39v-6.76h1v6.73a.82.82,0,0,0,.93.93v.88A2,2,0,0,1,198.82,145.91Zm5.13-.09a1.53,1.53,0,0,1-1.32.57,1.49,1.49,0,0,1-1.31-.57,7.75,7.75,0,0,1,0-5.26,1.49,1.49,0,0,1,1.31-.57,1.53,1.53,0,0,1,1.32.57,8.08,8.08,0,0,1,0,5.26Zm-.77-4.69a.67.67,0,0,0-.55-.27.64.64,0,0,0-.54.27,8.29,8.29,0,0,0,0,4.12.64.64,0,0,0,.54.27.67.67,0,0,0,.55-.27,9,9,0,0,0,0-4.12Zm5.17,4.83a1.66,1.66,0,0,1-1.22.43,1.53,1.53,0,0,1-1.31-.57,7.75,7.75,0,0,1,0-5.26,1.53,1.53,0,0,1,1.31-.57,1.63,1.63,0,0,1,1.21.42,1.93,1.93,0,0,1,.5,1.4h-1a1.15,1.15,0,0,0-.19-.72.65.65,0,0,0-.54-.23.66.66,0,0,0-.55.27c-.23.3-.24.93-.24,2.06a4.17,4.17,0,0,0,.24,2.06.66.66,0,0,0,.55.27.72.72,0,0,0,.53-.23,1.09,1.09,0,0,0,.2-.73h1A2.08,2.08,0,0,1,208.35,146Zm3.82.34v-.56a1.55,1.55,0,0,1-.37.42,1.06,1.06,0,0,1-.73.23,1.28,1.28,0,0,1-1.06-.47,2.09,2.09,0,0,1-.4-1.39,1.84,1.84,0,0,1,.55-1.4,1.77,1.77,0,0,1,1.32-.42h.64v-1c0-.58-.25-.89-.73-.89a.63.63,0,0,0-.48.2,1,1,0,0,0-.23.72h-1a1.61,1.61,0,0,1,1.68-1.77,1.66,1.66,0,0,1,1.21.43,1.85,1.85,0,0,1,.49,1.37v4.51Zm0-2.88h-.55a.92.92,0,0,0-.7.23,1.21,1.21,0,0,0-.29.85c0,.64.25,1,.76,1s.78-.4.78-1Zm3.06,2.49a1.69,1.69,0,0,1-.54-1.39v-3.68h-.71v-.76h.71v-1.7h1v1.7h1v.76h-1v3.65c0,.65.35.93,1,.93v.88A2,2,0,0,1,215.18,145.91Zm2.27-6.93v-1.13h1.14V139Zm.08,7.32v-6.22h1v6.22Zm5.23-.48a1.8,1.8,0,0,1-2.63,0,7.91,7.91,0,0,1,0-5.26,1.8,1.8,0,0,1,2.63,0,8.08,8.08,0,0,1,0,5.26Zm-.77-4.69a.66.66,0,0,0-.55-.27.64.64,0,0,0-.54.27,8.61,8.61,0,0,0,0,4.12.64.64,0,0,0,.54.27.66.66,0,0,0,.55-.27,9,9,0,0,0,0-4.12Zm4.84,5.17v-4.57a.75.75,0,0,0-.75-.85c-.4,0-.73.28-.73.85v4.57h-1v-6.22h.94v.48a1.23,1.23,0,0,1,1.05-.57,1.31,1.31,0,0,1,1.06.45,1.74,1.74,0,0,1,.37,1.29v4.57Zm-84.27,13.92a1.8,1.8,0,0,1-2.63,0,7.91,7.91,0,0,1,0-5.26,1.8,1.8,0,0,1,2.63,0,8.08,8.08,0,0,1,0,5.26Zm-.77-4.69a.66.66,0,0,0-.55-.27.64.64,0,0,0-.54.27,8.61,8.61,0,0,0,0,4.12.64.64,0,0,0,.54.27.66.66,0,0,0,.55-.27,9,9,0,0,0,0-4.12Zm4.49-.21a1.07,1.07,0,0,0-1.13,1.14v4.24h-1v-6.22h.94v.66a1.39,1.39,0,0,1,.43-.44,1.74,1.74,0,0,1,1-.31v.93Zm4.61-.08v5.46h-1v-5.46h-.71v-.76h.71v-.6a1.68,1.68,0,0,1,.54-1.38,2.06,2.06,0,0,1,1.39-.39V153a.84.84,0,0,0-1,.94v.56h1v.76Zm1.76-1.86v-1.13h1.14v1.13Zm.09,7.32v-6.22h1v6.22Zm4.78,0v-4.57c0-.57-.33-.86-.74-.86s-.73.29-.73.86v4.57h-1v-6.22H156V155a1.28,1.28,0,0,1,.39-.38,1.25,1.25,0,0,1,.67-.19,1.28,1.28,0,0,1,1.05.45,1.73,1.73,0,0,1,.37,1.29v4.57Zm4.62,0v-.48a1.22,1.22,0,0,1-.37.38,1.3,1.3,0,0,1-.67.19,1.23,1.23,0,0,1-1-.47c-.4-.45-.46-1.29-.46-2.73s.06-2.28.46-2.75a1.24,1.24,0,0,1,1-.45,1.27,1.27,0,0,1,.67.18,1.4,1.4,0,0,1,.35.34v-2.75h1v8.54Zm0-4.54a.94.94,0,0,0-.24-.71.68.68,0,0,0-.5-.19.66.66,0,0,0-.53.25c-.22.27-.25.8-.25,2.08s0,1.81.25,2.07a.64.64,0,0,0,.53.26.65.65,0,0,0,.5-.2.93.93,0,0,0,.24-.72Zm7.86,4.68a2.25,2.25,0,0,1-.51,1.74,1.69,1.69,0,0,1-1.22.48,1.59,1.59,0,0,1-1.71-1.79h1a1,1,0,0,0,.2.74.72.72,0,0,0,.53.21.71.71,0,0,0,.53-.23,1.59,1.59,0,0,0,.24-1.09v-1a1.45,1.45,0,0,1-.35.35,1.08,1.08,0,0,1-.65.19,1.27,1.27,0,0,1-1-.45c-.39-.45-.49-1.14-.49-2.61s.1-2.14.49-2.6a1.28,1.28,0,0,1,1-.44,1.13,1.13,0,0,1,.67.19,1.23,1.23,0,0,1,.35.33v-.43H170Zm-1-4.68a1,1,0,0,0-.24-.71.7.7,0,0,0-.51-.19.65.65,0,0,0-.52.25c-.22.27-.26.75-.26,1.94s0,1.66.26,1.94a.69.69,0,0,0,.52.25.71.71,0,0,0,.51-.2,1,1,0,0,0,.24-.71Zm4.44-.84a1.07,1.07,0,0,0-1.13,1.14v4.24h-1v-6.22h.93v.66a1.54,1.54,0,0,1,.44-.44,1.71,1.71,0,0,1,1-.31v.93Zm4,4.9a1.52,1.52,0,0,1-1.32.57,1.49,1.49,0,0,1-1.3-.57,7.75,7.75,0,0,1,0-5.26,1.49,1.49,0,0,1,1.3-.57,1.52,1.52,0,0,1,1.32.57,7.91,7.91,0,0,1,0,5.26Zm-.77-4.69a.69.69,0,0,0-1.09,0,8.61,8.61,0,0,0,0,4.12.69.69,0,0,0,1.09,0,9,9,0,0,0,0-4.12Zm4.83,5.17v-.48a1.28,1.28,0,0,1-.39.38,1.25,1.25,0,0,1-.67.19,1.28,1.28,0,0,1-1.05-.45,1.74,1.74,0,0,1-.37-1.29v-4.57h1v4.57c0,.58.33.87.74.87s.73-.29.73-.87v-4.57h1v6.22Zm5.33-.38a1.23,1.23,0,0,1-1,.47,1.29,1.29,0,0,1-.67-.18,1.26,1.26,0,0,1-.34-.35V163h-1v-8.54h.95V155a1.34,1.34,0,0,1,.37-.38,1.24,1.24,0,0,1,.67-.19,1.27,1.27,0,0,1,1,.45c.39.47.45,1.31.45,2.75S187.22,159.86,186.83,160.32Zm-.78-4.81a.66.66,0,0,0-.53-.25.7.7,0,0,0-.51.19,1,1,0,0,0-.23.71V159a1,1,0,0,0,.23.72.67.67,0,0,0,.51.2.64.64,0,0,0,.53-.26c.21-.26.25-.79.25-2.07S186.26,155.78,186.05,155.51Zm5.12,4.79a1.68,1.68,0,0,1-1.27.49,1.7,1.7,0,0,1-1.25-.48,1.84,1.84,0,0,1-.53-1.37h1a1,1,0,0,0,.27.76.82.82,0,0,0,.55.22.81.81,0,0,0,.59-.23.92.92,0,0,0,.24-.63,1,1,0,0,0-.16-.56,1.39,1.39,0,0,0-.55-.44l-.81-.41a2.08,2.08,0,0,1-.85-.72,1.61,1.61,0,0,1-.19-.82,1.67,1.67,0,0,1,1.74-1.72,1.66,1.66,0,0,1,1.21.44,1.79,1.79,0,0,1,.51,1.37h-1a1.05,1.05,0,0,0-.23-.75.8.8,0,0,0-1.07,0,.82.82,0,0,0-.23.6,1,1,0,0,0,.11.46,1.15,1.15,0,0,0,.52.41l.79.39a2,2,0,0,1,.87.71,1.9,1.9,0,0,1-.26,2.29Zm8.1.4h-1l-.84-4.55-.82,4.55h-1l-1.29-6.22h1.11l.71,4.68.82-4.68h.88l.87,4.68.72-4.68h1.11Zm2-7.32v-1.13h1.14v1.13Zm.08,7.32v-6.22h1v6.22Zm3.11-.39a1.69,1.69,0,0,1-.54-1.39v-3.68h-.71v-.76h.71v-1.7h1v1.7h1v.76h-1v3.65c0,.65.35.93,1,.93v.88A2,2,0,0,1,204.42,160.31Zm4.8.39v-4.57c0-.58-.34-.87-.75-.87s-.73.29-.73.87v4.57h-1v-8.54h1v2.77a1.29,1.29,0,0,1,.35-.35,1.25,1.25,0,0,1,.67-.19,1.31,1.31,0,0,1,1.06.45,1.73,1.73,0,0,1,.37,1.29v4.57Zm2.21-7.32v-1.13h1.14v1.13Zm.08,7.32v-6.22h1v6.22Zm4.79,0v-4.57a.76.76,0,0,0-.75-.86c-.4,0-.73.29-.73.86v4.57h-1v-6.22h.94V155a1.23,1.23,0,0,1,1.05-.57,1.31,1.31,0,0,1,1.06.45,1.73,1.73,0,0,1,.37,1.29v4.57Zm-59.21,14.4v-.56a1.52,1.52,0,0,1-.36.42,1.11,1.11,0,0,1-.74.23,1.28,1.28,0,0,1-1.06-.47,2.09,2.09,0,0,1-.4-1.39,1.84,1.84,0,0,1,.55-1.4,1.77,1.77,0,0,1,1.32-.42H157v-1c0-.58-.25-.89-.73-.89a.63.63,0,0,0-.48.2,1,1,0,0,0-.23.72h-1a1.78,1.78,0,0,1,.48-1.32,1.73,1.73,0,0,1,1.2-.45,1.66,1.66,0,0,1,1.21.43,1.85,1.85,0,0,1,.49,1.37v4.51Zm-.05-2.88h-.55a.92.92,0,0,0-.7.23,1.21,1.21,0,0,0-.29.85c0,.64.25,1,.76,1s.78-.4.78-1Zm4.74,2.88v-4.57a.75.75,0,0,0-.75-.85c-.4,0-.73.28-.73.85v4.57h-1v-6.22h.94v.48a1.23,1.23,0,0,1,1-.57,1.31,1.31,0,0,1,1.06.45,1.73,1.73,0,0,1,.37,1.29v4.57Zm5.18-.48a1.8,1.8,0,0,1-2.63,0,7.91,7.91,0,0,1,0-5.26,1.8,1.8,0,0,1,2.63,0,7.91,7.91,0,0,1,0,5.26Zm-.77-4.69a.69.69,0,0,0-1.09,0,8.61,8.61,0,0,0,0,4.12.69.69,0,0,0,1.09,0,9,9,0,0,0,0-4.12Zm3.16,4.78a1.69,1.69,0,0,1-.54-1.39v-3.68h-.71v-.76h.71v-1.7h1v1.7h1v.76h-1v3.65c0,.65.35.93,1,.93v.88A2.06,2.06,0,0,1,169.35,174.71Zm4.8.39v-4.57c0-.58-.34-.87-.74-.87s-.74.29-.74.87v4.57h-1v-8.54h1v2.77A1.29,1.29,0,0,1,173,169a1.25,1.25,0,0,1,.67-.19,1.3,1.3,0,0,1,1.06.45,1.73,1.73,0,0,1,.37,1.29v4.57Zm3.07-2.88a3.52,3.52,0,0,0,.25,1.83.65.65,0,0,0,.56.27.68.68,0,0,0,.55-.24,1.08,1.08,0,0,0,.2-.72h1a1.94,1.94,0,0,1-.5,1.38,1.63,1.63,0,0,1-1.22.45,1.54,1.54,0,0,1-1.24-.48c-.47-.49-.55-1.42-.55-2.72s.08-2.23.54-2.72a1.79,1.79,0,0,1,2.44,0c.47.49.56,1.41.56,2.95Zm1.33-2.3a.63.63,0,0,0-.55-.26.62.62,0,0,0-.54.26c-.19.22-.24.67-.24,1.57h1.57C178.79,170.59,178.75,170.14,178.55,169.92Zm4.45-.2a1.07,1.07,0,0,0-1.12,1.14v4.24h-1v-6.22h.93v.66a1.8,1.8,0,0,1,.43-.44,1.76,1.76,0,0,1,1-.31v.93Zm5.67,5.38v-.56a1.52,1.52,0,0,1-.36.42,1.08,1.08,0,0,1-.73.23,1.3,1.3,0,0,1-1.07-.47,2.09,2.09,0,0,1-.4-1.39,1.85,1.85,0,0,1,.56-1.4,1.77,1.77,0,0,1,1.32-.42h.63v-1c0-.58-.25-.89-.73-.89a.63.63,0,0,0-.48.2,1,1,0,0,0-.23.72h-1a1.78,1.78,0,0,1,.48-1.32,1.75,1.75,0,0,1,1.2-.45,1.66,1.66,0,0,1,1.21.43,1.85,1.85,0,0,1,.49,1.37v4.51Zm0-2.88h-.55a.93.93,0,0,0-.7.23,1.21,1.21,0,0,0-.28.85c0,.64.25,1,.75,1s.78-.4.78-1Zm4.39-2.5a1.06,1.06,0,0,0-1.12,1.14v4.24h-1v-6.22h.94v.66a1.63,1.63,0,0,1,.43-.44,1.76,1.76,0,0,1,1-.31v.93Zm1.89,2.5a3.42,3.42,0,0,0,.25,1.83.65.65,0,0,0,.55.27.66.66,0,0,0,.55-.24,1,1,0,0,0,.21-.72h1a2,2,0,0,1-.51,1.38,1.61,1.61,0,0,1-1.22.45,1.52,1.52,0,0,1-1.23-.48c-.47-.49-.56-1.42-.56-2.72s.09-2.23.54-2.72a1.56,1.56,0,0,1,1.23-.48,1.54,1.54,0,0,1,1.22.48c.47.49.55,1.41.55,2.95Zm1.33-2.3a.64.64,0,0,0-.55-.26.61.61,0,0,0-.54.26c-.19.22-.24.67-.24,1.57h1.57C196.47,170.59,196.42,170.14,196.23,169.92Zm4.61,5.18v-.56a1.52,1.52,0,0,1-.36.42,1.08,1.08,0,0,1-.73.23,1.3,1.3,0,0,1-1.07-.47,2.09,2.09,0,0,1-.4-1.39,1.84,1.84,0,0,1,.55-1.4,1.8,1.8,0,0,1,1.32-.42h.64v-1c0-.58-.25-.89-.73-.89a.63.63,0,0,0-.48.2,1,1,0,0,0-.23.72h-1a1.78,1.78,0,0,1,.48-1.32,1.73,1.73,0,0,1,1.2-.45,1.66,1.66,0,0,1,1.21.43,1.85,1.85,0,0,1,.49,1.37v4.51Zm-.05-2.88h-.55a.92.92,0,0,0-.7.23,1.21,1.21,0,0,0-.29.85c0,.64.26,1,.76,1s.78-.4.78-1Zm2.32,2.88v-1.19h1.18v1.19ZM3.88,145.86a2.1,2.1,0,0,1-1.51.52,2,2,0,0,1-1.5-.52,2.24,2.24,0,0,1-.53-1.79h1a1.47,1.47,0,0,0,.29,1.11.91.91,0,0,0,.71.26.94.94,0,0,0,.73-.27A1.57,1.57,0,0,0,3.37,144c0-1-.14-1.28-.84-1.57l-1-.4C.69,141.7.4,141.22.4,139.93a2.29,2.29,0,0,1,.65-1.75,1.88,1.88,0,0,1,1.35-.5,1.94,1.94,0,0,1,1.42.5,2.25,2.25,0,0,1,.56,1.75h-1a1.52,1.52,0,0,0-.26-1,.86.86,0,0,0-.7-.29.88.88,0,0,0-.66.26,1.53,1.53,0,0,0-.3,1c0,.84.13,1.09.82,1.38l1,.4c1,.39,1.2,1,1.2,2.34A2.4,2.4,0,0,1,3.88,145.86Zm4.17.44v-4.57c0-.58-.33-.87-.74-.87s-.73.29-.73.87v4.57h-1v-8.54h1v2.77a1.17,1.17,0,0,1,.35-.35A1.25,1.25,0,0,1,7.6,140a1.28,1.28,0,0,1,1.05.45A1.7,1.7,0,0,1,9,141.73v4.57Zm5.19-.48a1.52,1.52,0,0,1-1.32.57,1.5,1.5,0,0,1-1.31-.57,7.91,7.91,0,0,1,0-5.26,1.5,1.5,0,0,1,1.31-.57,1.52,1.52,0,0,1,1.32.57,8.08,8.08,0,0,1,0,5.26Zm-.77-4.69a.66.66,0,0,0-.55-.27.64.64,0,0,0-.54.27,8.61,8.61,0,0,0,0,4.12.64.64,0,0,0,.54.27.66.66,0,0,0,.55-.27,9,9,0,0,0,0-4.12Zm6.77,5.17h-1l-.84-4.55-.81,4.55h-1l-1.28-6.22h1.1l.71,4.68.83-4.68h.88l.87,4.68.72-4.68h1.1Zm4.81-.4a1.68,1.68,0,0,1-1.27.49,1.7,1.7,0,0,1-1.25-.48,1.83,1.83,0,0,1-.53-1.36h1a1,1,0,0,0,.27.75.82.82,0,0,0,.55.22.81.81,0,0,0,.59-.23.91.91,0,0,0,.24-.62,1,1,0,0,0-.16-.57,1.39,1.39,0,0,0-.55-.44l-.81-.41a2.08,2.08,0,0,1-.85-.72,1.59,1.59,0,0,1-.19-.81,1.68,1.68,0,0,1,.52-1.26,1.85,1.85,0,0,1,2.43,0,1.79,1.79,0,0,1,.51,1.37h-1a1,1,0,0,0-.23-.74.7.7,0,0,0-.53-.22.73.73,0,0,0-.54.2.84.84,0,0,0-.23.6,1,1,0,0,0,.11.46,1.15,1.15,0,0,0,.52.41l.79.39a2,2,0,0,1,.87.71,1.9,1.9,0,0,1-.26,2.29Zm6.08.4v-.56a1.37,1.37,0,0,1-.36.42,1.06,1.06,0,0,1-.73.23,1.31,1.31,0,0,1-1.07-.47,2.15,2.15,0,0,1-.39-1.39,1.84,1.84,0,0,1,.55-1.4,1.77,1.77,0,0,1,1.32-.42h.64v-1c0-.58-.26-.89-.74-.89a.65.65,0,0,0-.48.2,1,1,0,0,0-.22.72h-1a1.78,1.78,0,0,1,.48-1.32,1.75,1.75,0,0,1,1.2-.45,1.67,1.67,0,0,1,1.22.43,1.85,1.85,0,0,1,.49,1.37v4.51Zm0-2.88h-.56a.89.89,0,0,0-.69.23,1.21,1.21,0,0,0-.29.85c0,.64.25,1,.76,1s.78-.4.78-1Zm9.41,2.88v-4.57c0-.57-.32-.85-.73-.85s-.73.28-.73.85v4.57h-1v-4.57a.75.75,0,0,0-.74-.85c-.41,0-.74.28-.74.85v4.57h-1v-6.22h.94v.48a1.23,1.23,0,0,1,1-.57,1.44,1.44,0,0,1,1.19.65,2,2,0,0,1,.49-.46A1.48,1.48,0,0,1,39,140a1.34,1.34,0,0,1,1.12.45,1.75,1.75,0,0,1,.36,1.29v4.57Zm4.57,0v-.56a1.52,1.52,0,0,1-.36.42,1.11,1.11,0,0,1-.74.23,1.28,1.28,0,0,1-1.06-.47,2.09,2.09,0,0,1-.4-1.39,1.84,1.84,0,0,1,.55-1.4,1.77,1.77,0,0,1,1.32-.42H44v-1c0-.58-.25-.89-.73-.89a.63.63,0,0,0-.48.2,1,1,0,0,0-.23.72h-1A1.61,1.61,0,0,1,43.29,140a1.66,1.66,0,0,1,1.21.43,1.85,1.85,0,0,1,.49,1.37v4.51Zm0-2.88h-.55a.92.92,0,0,0-.7.23,1.21,1.21,0,0,0-.29.85c0,.64.25,1,.76,1s.78-.4.78-1Zm5.31,2.5a1.2,1.2,0,0,1-1,.47,1.27,1.27,0,0,1-.67-.18,1.45,1.45,0,0,1-.35-.35v2.76h-1v-8.54h.95v.48a1.34,1.34,0,0,1,.37-.38,1.21,1.21,0,0,1,.67-.19,1.25,1.25,0,0,1,1,.45c.4.47.46,1.31.46,2.75S49.73,145.46,49.33,145.92Zm-.78-4.81a.7.7,0,0,0-1-.05.94.94,0,0,0-.24.7v2.84a1,1,0,0,0,.24.72.66.66,0,0,0,.51.2.63.63,0,0,0,.52-.26c.22-.26.26-.79.26-2.07S48.77,141.38,48.55,141.11Zm7.54,4.71a1.52,1.52,0,0,1-1.32.57,1.5,1.5,0,0,1-1.31-.57,7.91,7.91,0,0,1,0-5.26,1.5,1.5,0,0,1,1.31-.57,1.52,1.52,0,0,1,1.32.57,8.08,8.08,0,0,1,0,5.26Zm-.77-4.69a.66.66,0,0,0-.55-.27.64.64,0,0,0-.54.27,8.61,8.61,0,0,0,0,4.12.64.64,0,0,0,.54.27.66.66,0,0,0,.55-.27,9,9,0,0,0,0-4.12Zm3.59-.29v5.46h-1v-5.46h-.71v-.76h.71v-.6a1.68,1.68,0,0,1,.54-1.38,2.06,2.06,0,0,1,1.39-.39v.87a.84.84,0,0,0-1,.94v.56h1v.76ZM65.79,146a1.67,1.67,0,0,1-1.23.43,1.54,1.54,0,0,1-1.31-.57,7.91,7.91,0,0,1,0-5.26,1.54,1.54,0,0,1,1.31-.57,1.6,1.6,0,0,1,1.21.42,1.94,1.94,0,0,1,.51,1.4h-1a1.1,1.1,0,0,0-.2-.72.64.64,0,0,0-.54-.23.67.67,0,0,0-.55.27c-.23.3-.24.93-.24,2.06a4.17,4.17,0,0,0,.24,2.06.67.67,0,0,0,.55.27.69.69,0,0,0,.53-.23,1,1,0,0,0,.21-.73h1A2.14,2.14,0,0,1,65.79,146Zm4,.34v-.48a1.23,1.23,0,0,1-1,.57,1.3,1.3,0,0,1-1.06-.45,1.74,1.74,0,0,1-.37-1.29v-4.57h1v4.57c0,.58.34.87.74.87s.74-.29.74-.87v-4.57h1v6.22Zm2.81-.39a1.66,1.66,0,0,1-.55-1.39v-6.76h1v6.73a.81.81,0,0,0,.92.93v.88A2,2,0,0,1,72.59,145.91Zm3,0a1.69,1.69,0,0,1-.54-1.39v-3.68h-.71v-.76h.71v-1.7h1v1.7h1v.76H76v3.65c0,.65.35.93,1,.93v.88A2.06,2.06,0,0,1,75.59,145.91Zm4.79.39v-.48a1.41,1.41,0,0,1-.39.38,1.25,1.25,0,0,1-.67.19,1.28,1.28,0,0,1-1-.45,1.7,1.7,0,0,1-.38-1.29v-4.57h1v4.57c0,.58.33.87.74.87s.73-.29.73-.87v-4.57h1v6.22Zm4.4-5.38a1.07,1.07,0,0,0-1.13,1.14v4.24h-1v-6.22h.94v.66a1.5,1.5,0,0,1,.43-.44,1.74,1.74,0,0,1,1-.31v.93Zm3.36,5.38v-.56a1.52,1.52,0,0,1-.36.42,1.08,1.08,0,0,1-.73.23,1.3,1.3,0,0,1-1.07-.47,2.1,2.1,0,0,1-.39-1.39,1.84,1.84,0,0,1,.55-1.4,1.77,1.77,0,0,1,1.32-.42h.63v-1c0-.58-.25-.89-.73-.89a.65.65,0,0,0-.48.2,1,1,0,0,0-.23.72h-1a1.78,1.78,0,0,1,.48-1.32,1.75,1.75,0,0,1,1.2-.45,1.66,1.66,0,0,1,1.21.43,1.85,1.85,0,0,1,.49,1.37v4.51Zm0-2.88h-.55a.89.89,0,0,0-.69.23,1.21,1.21,0,0,0-.29.85c0,.64.25,1,.75,1s.78-.4.78-1Zm2.8,2.49a1.66,1.66,0,0,1-.55-1.39v-6.76h1v6.73a.81.81,0,0,0,.92.93v.88A2,2,0,0,1,90.89,145.91Zm2.74,0a1.66,1.66,0,0,1-.56-1.39v-6.76h1v6.73a.81.81,0,0,0,.92.93v.88A2,2,0,0,1,93.63,145.91Zm3.86,1.38c-.27,1.12-1,1.33-2.06,1.33v-.86c.6,0,1-.16,1.11-.72l.19-.76-1.51-6.2h1.07l.95,4.67.93-4.67h1.07ZM17.28,160.7v-.56a1.52,1.52,0,0,1-.36.42,1.11,1.11,0,0,1-.74.23,1.28,1.28,0,0,1-1.06-.47,2.09,2.09,0,0,1-.4-1.39,1.84,1.84,0,0,1,.55-1.4,1.77,1.77,0,0,1,1.32-.42h.64v-1c0-.58-.25-.89-.73-.89a.63.63,0,0,0-.48.2,1,1,0,0,0-.23.72h-1a1.61,1.61,0,0,1,1.68-1.77,1.66,1.66,0,0,1,1.21.43,1.85,1.85,0,0,1,.49,1.37v4.51Zm-.05-2.88h-.55a.92.92,0,0,0-.7.23,1.21,1.21,0,0,0-.29.85c0,.64.25,1,.76,1s.78-.4.78-1Zm5.31,2.5a1.2,1.2,0,0,1-1,.47,1.27,1.27,0,0,1-.67-.18,1.45,1.45,0,0,1-.35-.35V163h-1v-8.54h.95V155a1.34,1.34,0,0,1,.37-.38,1.21,1.21,0,0,1,.67-.19,1.25,1.25,0,0,1,1,.45c.4.47.46,1.31.46,2.75S22.94,159.86,22.54,160.32Zm-.78-4.81a.65.65,0,0,0-.52-.25.69.69,0,0,0-.51.19,1,1,0,0,0-.24.71V159a1,1,0,0,0,.24.72.66.66,0,0,0,.51.2.63.63,0,0,0,.52-.26c.22-.26.26-.79.26-2.07S22,155.78,21.76,155.51Zm5.43,4.81a1.22,1.22,0,0,1-1,.47,1.3,1.3,0,0,1-.68-.18,1.26,1.26,0,0,1-.34-.35V163h-1v-8.54h.95V155a1.34,1.34,0,0,1,.37-.38,1.27,1.27,0,0,1,.68-.19,1.26,1.26,0,0,1,1,.45c.39.47.45,1.31.45,2.75S27.58,159.86,27.19,160.32Zm-.78-4.81a.66.66,0,0,0-.53-.25.7.7,0,0,0-.51.19,1,1,0,0,0-.23.71V159a1,1,0,0,0,.23.72.67.67,0,0,0,.51.2.64.64,0,0,0,.53-.26c.21-.26.25-.79.25-2.07S26.62,155.78,26.41,155.51Zm4.5-.19a1.07,1.07,0,0,0-1.13,1.14v4.24h-1v-6.22h.93v.66a1.54,1.54,0,0,1,.44-.44,1.71,1.71,0,0,1,1-.31v.93Zm4,4.9a1.53,1.53,0,0,1-1.32.57,1.49,1.49,0,0,1-1.31-.57,7.75,7.75,0,0,1,0-5.26,1.49,1.49,0,0,1,1.31-.57,1.53,1.53,0,0,1,1.32.57,8.08,8.08,0,0,1,0,5.26Zm-.77-4.69a.67.67,0,0,0-.55-.27.64.64,0,0,0-.54.27,8.29,8.29,0,0,0,0,4.12.64.64,0,0,0,.54.27.67.67,0,0,0,.55-.27,9,9,0,0,0,0-4.12Zm5.41,4.79a1.22,1.22,0,0,1-1,.47,1.27,1.27,0,0,1-.67-.18,1.29,1.29,0,0,1-.35-.35V163h-1v-8.54h.94V155a1.37,1.37,0,0,1,.38-.38,1.21,1.21,0,0,1,.67-.19,1.26,1.26,0,0,1,1,.45c.39.47.45,1.31.45,2.75S40,159.86,39.56,160.32Zm-.78-4.81a.66.66,0,0,0-.53-.25.68.68,0,0,0-.5.19.94.94,0,0,0-.24.71V159a.93.93,0,0,0,.24.72.65.65,0,0,0,.5.2.64.64,0,0,0,.53-.26c.22-.26.25-.79.25-2.07S39,155.78,38.78,155.51Zm4.5-.19a1.07,1.07,0,0,0-1.13,1.14v4.24h-1v-6.22h.94v.66a1.39,1.39,0,0,1,.43-.44,1.71,1.71,0,0,1,1-.31v.93Zm1.08-1.94v-1.13H45.5v1.13Zm.08,7.32v-6.22h1v6.22Zm4.6,0v-.56a1.52,1.52,0,0,1-.36.42,1.08,1.08,0,0,1-.73.23,1.3,1.3,0,0,1-1.07-.47,2.09,2.09,0,0,1-.4-1.39,1.85,1.85,0,0,1,.56-1.4,1.77,1.77,0,0,1,1.32-.42H49v-1c0-.58-.25-.89-.73-.89a.63.63,0,0,0-.48.2,1,1,0,0,0-.23.72h-1a1.78,1.78,0,0,1,.48-1.32,1.75,1.75,0,0,1,1.2-.45,1.66,1.66,0,0,1,1.21.43,1.85,1.85,0,0,1,.49,1.37v4.51Zm0-2.88h-.55a.93.93,0,0,0-.7.23,1.21,1.21,0,0,0-.28.85c0,.64.25,1,.75,1s.78-.4.78-1Zm3.06,2.49a1.69,1.69,0,0,1-.54-1.39v-3.68H50.8v-.76h.71v-1.7h1v1.7h1v.76h-1v3.65c0,.65.35.93,1,.93v.88A2.06,2.06,0,0,1,52.05,160.31Zm3.13-2.49a3.52,3.52,0,0,0,.25,1.83.65.65,0,0,0,.56.27.68.68,0,0,0,.55-.24,1.08,1.08,0,0,0,.2-.72h1a1.94,1.94,0,0,1-.5,1.38,1.63,1.63,0,0,1-1.22.45,1.55,1.55,0,0,1-1.24-.48c-.47-.49-.55-1.42-.55-2.72s.08-2.23.54-2.72a1.54,1.54,0,0,1,1.22-.48,1.56,1.56,0,0,1,1.23.48c.46.49.55,1.41.55,2.95Zm1.33-2.31a.65.65,0,0,0-.55-.25.64.64,0,0,0-.54.25c-.19.23-.24.68-.24,1.58h1.57C56.75,156.19,56.71,155.74,56.51,155.51Zm6.86,5.19v-.56a1.52,1.52,0,0,1-.36.42,1.11,1.11,0,0,1-.74.23,1.29,1.29,0,0,1-1.06-.47,2.09,2.09,0,0,1-.4-1.39,1.84,1.84,0,0,1,.55-1.4,1.79,1.79,0,0,1,1.32-.42h.64v-1c0-.58-.25-.89-.73-.89a.63.63,0,0,0-.48.2,1,1,0,0,0-.23.72h-1a1.78,1.78,0,0,1,.48-1.32,1.73,1.73,0,0,1,1.2-.45,1.66,1.66,0,0,1,1.21.43,1.85,1.85,0,0,1,.49,1.37v4.51Zm0-2.88h-.55a.92.92,0,0,0-.7.23,1.21,1.21,0,0,0-.29.85c0,.64.26,1,.76,1s.78-.4.78-1Zm2.21-4.44v-1.13h1.14v1.13Zm.08,7.32v-6.22h1v6.22Zm4.67,0v-.48a1.34,1.34,0,0,1-.37.38,1.37,1.37,0,0,1-.68.19,1.25,1.25,0,0,1-1-.47c-.39-.45-.45-1.29-.45-2.73s.06-2.28.45-2.75a1.26,1.26,0,0,1,1-.45,1.3,1.3,0,0,1,.68.18,1.22,1.22,0,0,1,.34.34v-2.75h1v8.54Zm0-4.54a.94.94,0,0,0-.24-.71.68.68,0,0,0-.5-.19.66.66,0,0,0-.53.25c-.21.27-.25.8-.25,2.08s0,1.81.25,2.07a.64.64,0,0,0,.53.26.65.65,0,0,0,.5-.2.93.93,0,0,0,.24-.72Zm5.79-.92v5.46h-1v-5.46h-.71v-.76h.71v-.6a1.68,1.68,0,0,1,.54-1.38,2.06,2.06,0,0,1,1.39-.39V153a.84.84,0,0,0-1,.94v.56h1v.76Zm4.62,5a1.52,1.52,0,0,1-1.32.57,1.5,1.5,0,0,1-1.31-.57A7.91,7.91,0,0,1,78,155a1.5,1.5,0,0,1,1.31-.57,1.52,1.52,0,0,1,1.32.57,8.08,8.08,0,0,1,0,5.26Zm-.77-4.69a.66.66,0,0,0-.55-.27.64.64,0,0,0-.54.27,8.61,8.61,0,0,0,0,4.12.64.64,0,0,0,.54.27.66.66,0,0,0,.55-.27,9,9,0,0,0,0-4.12Zm4.49-.21a1.07,1.07,0,0,0-1.13,1.14v4.24h-1v-6.22h.93v.66a1.54,1.54,0,0,1,.44-.44,1.71,1.71,0,0,1,1-.31v.93ZM35.21,174.7a1.68,1.68,0,0,1-1.27.49,1.7,1.7,0,0,1-1.25-.48,1.83,1.83,0,0,1-.53-1.36h1a1,1,0,0,0,.27.75.82.82,0,0,0,.55.22.81.81,0,0,0,.59-.23.91.91,0,0,0,.23-.62,1,1,0,0,0-.15-.57,1.39,1.39,0,0,0-.55-.44l-.81-.41a2.08,2.08,0,0,1-.85-.72,1.61,1.61,0,0,1-.19-.82,1.78,1.78,0,0,1,2.95-1.28,1.82,1.82,0,0,1,.51,1.37h-1a1.05,1.05,0,0,0-.23-.75.8.8,0,0,0-1.07,0,.84.84,0,0,0-.23.6,1,1,0,0,0,.11.46,1.15,1.15,0,0,0,.52.41l.79.39a2,2,0,0,1,.87.71,1.9,1.9,0,0,1-.26,2.29Zm4,.4v-.48a1.28,1.28,0,0,1-.39.38,1.25,1.25,0,0,1-.67.19,1.29,1.29,0,0,1-1.05-.45,1.74,1.74,0,0,1-.37-1.29v-4.57h1v4.57c0,.58.33.87.74.87s.73-.29.73-.87v-4.57h1v6.22Zm4.4-5.38a1.06,1.06,0,0,0-1.12,1.14v4.24h-1v-6.22h.94v.66a1.8,1.8,0,0,1,.43-.44,1.76,1.76,0,0,1,1-.31v.93ZM47,175.1H46l-1.5-6.22h1.07l.94,4.68.94-4.68h1.07Zm2.14-7.32v-1.13h1.14v1.13Zm.08,7.32v-6.22h1v6.22Zm4.24,0h-1l-1.5-6.22H52l1,4.68.94-4.68h1.06Zm5.16-.48a1.52,1.52,0,0,1-1.32.57,1.5,1.5,0,0,1-1.31-.57,7.75,7.75,0,0,1,0-5.26,1.5,1.5,0,0,1,1.31-.57,1.52,1.52,0,0,1,1.32.57,8.08,8.08,0,0,1,0,5.26Zm-.77-4.69a.67.67,0,0,0-.55-.27.64.64,0,0,0-.54.27,8.61,8.61,0,0,0,0,4.12.64.64,0,0,0,.54.27.67.67,0,0,0,.55-.27,9,9,0,0,0,0-4.12Zm4.49-.21a1.07,1.07,0,0,0-1.13,1.14v4.24h-1v-6.22h.93v.66a1.8,1.8,0,0,1,.43-.44,1.76,1.76,0,0,1,1-.31v.93Zm3.82,5a1.65,1.65,0,0,1-1.27.49,1.72,1.72,0,0,1-1.25-.48,1.82,1.82,0,0,1-.52-1.36h1a1,1,0,0,0,.26.75.82.82,0,0,0,.55.22.81.81,0,0,0,.59-.23.91.91,0,0,0,.24-.62,1,1,0,0,0-.16-.57,1.39,1.39,0,0,0-.55-.44l-.8-.41a2,2,0,0,1-.85-.72,1.61,1.61,0,0,1-.19-.82,1.69,1.69,0,0,1,.51-1.25,1.86,1.86,0,0,1,2.44,0,1.82,1.82,0,0,1,.5,1.37h-1a1,1,0,0,0-.23-.75.7.7,0,0,0-.53-.21.77.77,0,0,0-.54.2.87.87,0,0,0-.22.6,1,1,0,0,0,.1.46,1.27,1.27,0,0,0,.52.41l.79.39a2,2,0,0,1,.88.71,1.78,1.78,0,0,1,.26,1A1.75,1.75,0,0,1,66.14,174.7Zm1.61.4v-1.19h1.19v1.19ZM262,145.86a2.1,2.1,0,0,1-1.51.52,2,2,0,0,1-1.5-.52,2.24,2.24,0,0,1-.53-1.79h1a1.47,1.47,0,0,0,.29,1.11.91.91,0,0,0,.71.26.94.94,0,0,0,.73-.27,1.57,1.57,0,0,0,.27-1.14c0-1-.14-1.28-.84-1.57l-1-.4c-.87-.36-1.16-.84-1.16-2.13a2.25,2.25,0,0,1,.65-1.75,1.88,1.88,0,0,1,1.35-.5,1.94,1.94,0,0,1,1.42.5,2.25,2.25,0,0,1,.56,1.75h-1a1.47,1.47,0,0,0-.27-1,.83.83,0,0,0-.69-.29.88.88,0,0,0-.66.26,1.53,1.53,0,0,0-.3,1c0,.84.13,1.09.81,1.38l1,.4c1,.39,1.2,1,1.2,2.34A2.44,2.44,0,0,1,262,145.86Zm2.51-2.44a3.42,3.42,0,0,0,.25,1.83.65.65,0,0,0,.55.27.67.67,0,0,0,.55-.24,1,1,0,0,0,.21-.72h1a2,2,0,0,1-.51,1.38,1.63,1.63,0,0,1-1.22.45,1.55,1.55,0,0,1-1.24-.48c-.46-.49-.55-1.42-.55-2.72s.09-2.23.54-2.72a1.56,1.56,0,0,1,1.23-.48,1.54,1.54,0,0,1,1.22.48c.47.49.55,1.41.55,2.95Zm1.33-2.31a.66.66,0,0,0-.55-.25.63.63,0,0,0-.54.25c-.2.23-.24.68-.24,1.58h1.57C266.09,141.79,266,141.34,265.85,141.11Zm4.8,5.19v-4.57a.75.75,0,0,0-.75-.85c-.4,0-.73.28-.73.85v4.57h-1v-6.22h.94v.48a1.23,1.23,0,0,1,1.05-.57,1.31,1.31,0,0,1,1.06.45,1.74,1.74,0,0,1,.37,1.29v4.57Zm4.62,0v-.48a1.34,1.34,0,0,1-.37.38,1.37,1.37,0,0,1-.68.19,1.25,1.25,0,0,1-1-.47c-.39-.45-.45-1.29-.45-2.73s.06-2.28.45-2.75a1.25,1.25,0,0,1,1-.45,1.3,1.3,0,0,1,.68.18,1.22,1.22,0,0,1,.34.34v-2.75h1v8.54Zm0-4.54a.9.9,0,0,0-.24-.7.65.65,0,0,0-.5-.2.66.66,0,0,0-.53.25c-.21.27-.25.8-.25,2.08s0,1.81.25,2.07a.64.64,0,0,0,.53.26.65.65,0,0,0,.5-.2.93.93,0,0,0,.24-.72Zm7.31,4.14a1.68,1.68,0,0,1-1.27.49,1.72,1.72,0,0,1-1.25-.48,1.83,1.83,0,0,1-.53-1.36h1a1,1,0,0,0,.27.75.82.82,0,0,0,.55.22.81.81,0,0,0,.59-.23.91.91,0,0,0,.24-.62,1,1,0,0,0-.16-.57,1.39,1.39,0,0,0-.55-.44l-.8-.41a2,2,0,0,1-.86-.72,1.59,1.59,0,0,1-.19-.81,1.72,1.72,0,0,1,.52-1.26,1.85,1.85,0,0,1,2.43,0,1.79,1.79,0,0,1,.51,1.37h-1a1,1,0,0,0-.23-.74.7.7,0,0,0-.53-.22.73.73,0,0,0-.54.2.88.88,0,0,0-.23.6,1,1,0,0,0,.11.46,1.27,1.27,0,0,0,.52.41l.79.39a2,2,0,0,1,.87.71,1.9,1.9,0,0,1-.26,2.29Zm4,.4v-.48a1.23,1.23,0,0,1-1.06.57,1.29,1.29,0,0,1-1.05-.45,1.74,1.74,0,0,1-.37-1.29v-4.57h1v4.57c0,.58.34.87.74.87s.73-.29.73-.87v-4.57h1v6.22Zm4.4-5.38a1.07,1.07,0,0,0-1.12,1.14v4.24h-1v-6.22h.93v.66a1.8,1.8,0,0,1,.43-.44,1.76,1.76,0,0,1,1-.31v.93Zm3.35,5.38h-1l-1.5-6.22h1.07l.95,4.68.93-4.68h1.07Zm2.14-7.32v-1.13h1.14V139Zm.08,7.32v-6.22h1v6.22Zm4.24,0h-1l-1.5-6.22h1.07l.94,4.68.94-4.68h1.07Zm5.17-.48a1.8,1.8,0,0,1-2.63,0,7.91,7.91,0,0,1,0-5.26,1.8,1.8,0,0,1,2.63,0,8.08,8.08,0,0,1,0,5.26Zm-.77-4.69a.66.66,0,0,0-.55-.27.64.64,0,0,0-.54.27,8.61,8.61,0,0,0,0,4.12.64.64,0,0,0,.54.27.66.66,0,0,0,.55-.27,9,9,0,0,0,0-4.12Zm4.49-.21a1.07,1.07,0,0,0-1.13,1.14v4.24h-1v-6.22h.94v.66a1.5,1.5,0,0,1,.43-.44,1.74,1.74,0,0,1,1-.31v.93ZM313,139v-1.13h1.13V139Zm.08,7.32v-6.22h1v6.22Zm4.79,0v-4.57a.75.75,0,0,0-.75-.85c-.41,0-.73.28-.73.85v4.57h-1v-6.22h.93v.48a1.41,1.41,0,0,1,.39-.38,1.25,1.25,0,0,1,.67-.19,1.28,1.28,0,0,1,1,.45,1.7,1.7,0,0,1,.38,1.29v4.57Zm3.49-5.46v5.46h-1v-5.46h-.71v-.76h.71v-.6a1.68,1.68,0,0,1,.54-1.38,2.06,2.06,0,0,1,1.39-.39v.87a.84.84,0,0,0-1,.94v.56h1v.76Zm4.62,5a1.52,1.52,0,0,1-1.32.57,1.5,1.5,0,0,1-1.31-.57,7.91,7.91,0,0,1,0-5.26,1.5,1.5,0,0,1,1.31-.57,1.52,1.52,0,0,1,1.32.57,8.08,8.08,0,0,1,0,5.26Zm-.77-4.69a.66.66,0,0,0-.55-.27.64.64,0,0,0-.54.27,8.61,8.61,0,0,0,0,4.12.64.64,0,0,0,.54.27.66.66,0,0,0,.55-.27,9,9,0,0,0,0-4.12Zm4.49-.21a1.07,1.07,0,0,0-1.13,1.14v4.24h-1v-6.22h.93v.66a1.67,1.67,0,0,1,.44-.44,1.71,1.71,0,0,1,1-.31v.93Zm6,5.38v-4.57c0-.57-.32-.85-.73-.85s-.73.28-.73.85v4.57h-1v-4.57a.75.75,0,0,0-.74-.85c-.41,0-.74.28-.74.85v4.57h-1v-6.22h.94v.48a1.23,1.23,0,0,1,1.05-.57,1.44,1.44,0,0,1,1.19.65,2,2,0,0,1,.49-.46,1.45,1.45,0,0,1,.71-.19,1.34,1.34,0,0,1,1.12.45,1.75,1.75,0,0,1,.35,1.29v4.57Zm4.57,0v-.56a1.52,1.52,0,0,1-.36.42,1.11,1.11,0,0,1-.74.23,1.28,1.28,0,0,1-1.06-.47,2.09,2.09,0,0,1-.4-1.39,1.84,1.84,0,0,1,.55-1.4,1.77,1.77,0,0,1,1.32-.42h.64v-1c0-.58-.25-.89-.73-.89a.63.63,0,0,0-.48.2,1,1,0,0,0-.23.72h-1a1.78,1.78,0,0,1,.48-1.32,1.73,1.73,0,0,1,1.2-.45,1.66,1.66,0,0,1,1.21.43,1.85,1.85,0,0,1,.49,1.37v4.51Zm-.05-2.88h-.55a.92.92,0,0,0-.7.23,1.21,1.21,0,0,0-.29.85c0,.64.25,1,.76,1s.78-.4.78-1Zm3.06,2.49a1.69,1.69,0,0,1-.54-1.39v-3.68h-.71v-.76h.71v-1.7h1v1.7h1v.76h-1v3.65c0,.65.35.93,1,.93v.88A2,2,0,0,1,343.32,145.91Zm2.27-6.93v-1.13h1.14V139Zm.08,7.32v-6.22h1v6.22Zm5.23-.48a1.8,1.8,0,0,1-2.63,0,7.91,7.91,0,0,1,0-5.26,1.8,1.8,0,0,1,2.63,0,8.08,8.08,0,0,1,0,5.26Zm-.77-4.69a.66.66,0,0,0-.55-.27.64.64,0,0,0-.54.27,8.61,8.61,0,0,0,0,4.12.64.64,0,0,0,.54.27.66.66,0,0,0,.55-.27,9,9,0,0,0,0-4.12ZM355,146.3v-4.57a.75.75,0,0,0-.74-.85c-.41,0-.74.28-.74.85v4.57h-1v-6.22h.94v.48a1.23,1.23,0,0,1,1.05-.57,1.31,1.31,0,0,1,1.06.45,1.74,1.74,0,0,1,.37,1.29v4.57ZM263.1,160.22a1.52,1.52,0,0,1-1.32.57,1.5,1.5,0,0,1-1.31-.57,7.91,7.91,0,0,1,0-5.26,1.5,1.5,0,0,1,1.31-.57,1.52,1.52,0,0,1,1.32.57,8.08,8.08,0,0,1,0,5.26Zm-.77-4.69a.66.66,0,0,0-.55-.27.64.64,0,0,0-.54.27,8.61,8.61,0,0,0,0,4.12.64.64,0,0,0,.54.27.66.66,0,0,0,.55-.27,9,9,0,0,0,0-4.12Zm3.59-.29v5.46h-1v-5.46h-.71v-.76H265v-.6a1.68,1.68,0,0,1,.54-1.38,2.06,2.06,0,0,1,1.39-.39V153a.84.84,0,0,0-1,.94v.56h1v.76Zm3.05,0v5.46h-1v-5.46h-.71v-.76H268v-.6a1.68,1.68,0,0,1,.54-1.38,2.06,2.06,0,0,1,1.39-.39V153a.84.84,0,0,0-1,.94v.56h1v.76Zm4.86,5.07a1.69,1.69,0,0,1-.54-1.39v-3.68h-.71v-.76h.71v-1.7h1v1.7h1v.76h-1v3.65c0,.65.35.93,1,.93v.88A2,2,0,0,1,273.83,160.31Zm5.24-.09a1.8,1.8,0,0,1-2.63,0,7.91,7.91,0,0,1,0-5.26,1.8,1.8,0,0,1,2.63,0,8.08,8.08,0,0,1,0,5.26Zm-.77-4.69a.66.66,0,0,0-.55-.27.64.64,0,0,0-.54.27,8.61,8.61,0,0,0,0,4.12.64.64,0,0,0,.54.27.66.66,0,0,0,.55-.27,9,9,0,0,0,0-4.12Zm6.89,5.17v-.56a1.52,1.52,0,0,1-.36.42,1.08,1.08,0,0,1-.73.23,1.3,1.3,0,0,1-1.07-.47,2.1,2.1,0,0,1-.39-1.39,1.84,1.84,0,0,1,.55-1.4,1.77,1.77,0,0,1,1.32-.42h.63v-1c0-.58-.25-.89-.73-.89a.65.65,0,0,0-.48.2,1,1,0,0,0-.23.72h-1a1.78,1.78,0,0,1,.48-1.32,1.75,1.75,0,0,1,1.2-.45,1.66,1.66,0,0,1,1.21.43,1.85,1.85,0,0,1,.49,1.37v4.51Zm-.05-2.88h-.55a.89.89,0,0,0-.69.23,1.17,1.17,0,0,0-.29.85c0,.64.25,1,.75,1s.78-.4.78-1Zm2.21-4.44v-1.13h1.14v1.13Zm.09,7.32v-6.22h1v6.22Zm4.66,0v-.48a1.22,1.22,0,0,1-.37.38,1.3,1.3,0,0,1-.67.19,1.23,1.23,0,0,1-1-.47c-.4-.45-.46-1.29-.46-2.73s.06-2.28.46-2.75a1.24,1.24,0,0,1,1-.45,1.27,1.27,0,0,1,.67.18,1.4,1.4,0,0,1,.35.34v-2.75h1v8.54Zm0-4.54a1,1,0,0,0-.24-.71.69.69,0,0,0-.51-.19.65.65,0,0,0-.52.25c-.22.27-.26.8-.26,2.08s0,1.81.26,2.07a.63.63,0,0,0,.52.26.66.66,0,0,0,.51-.2,1,1,0,0,0,.24-.72Zm5.78-.92v5.46h-1v-5.46h-.71v-.76h.71v-.6a1.68,1.68,0,0,1,.54-1.38,2.06,2.06,0,0,1,1.39-.39V153a.85.85,0,0,0-1,.94v.56h1v.76ZM302,160.7v-.56a1.37,1.37,0,0,1-.36.42,1.06,1.06,0,0,1-.73.23,1.28,1.28,0,0,1-1.06-.47,2.09,2.09,0,0,1-.4-1.39,1.84,1.84,0,0,1,.55-1.4,1.77,1.77,0,0,1,1.32-.42H302v-1c0-.58-.26-.89-.73-.89a.65.65,0,0,0-.49.2,1,1,0,0,0-.22.72h-1a1.74,1.74,0,0,1,.48-1.32,1.71,1.71,0,0,1,1.2-.45,1.66,1.66,0,0,1,1.21.43,1.85,1.85,0,0,1,.49,1.37v4.51Zm0-2.88h-.55a.92.92,0,0,0-.7.23,1.21,1.21,0,0,0-.29.85c0,.64.25,1,.76,1s.78-.4.78-1Zm5.07,2.54a1.66,1.66,0,0,1-1.22.43,1.53,1.53,0,0,1-1.31-.57,7.91,7.91,0,0,1,0-5.26,1.53,1.53,0,0,1,1.31-.57,1.62,1.62,0,0,1,1.21.42,1.93,1.93,0,0,1,.5,1.4h-1a1.08,1.08,0,0,0-.19-.72.64.64,0,0,0-.54-.23.66.66,0,0,0-.55.27c-.23.3-.24.93-.24,2.06a4.19,4.19,0,0,0,.24,2.06.66.66,0,0,0,.55.27.69.69,0,0,0,.53-.23,1.05,1.05,0,0,0,.2-.73h1A2,2,0,0,1,307,160.36Zm1.48-7v-1.13h1.14v1.13Zm.08,7.32v-6.22h1v6.22Zm2.85-.39a1.66,1.66,0,0,1-.55-1.39v-6.76h1v6.73a.81.81,0,0,0,.92.93v.88A2,2,0,0,1,311.45,160.31Zm2.15-6.93v-1.13h1.14v1.13Zm.08,7.32v-6.22h1v6.22Zm3.11-.39a1.69,1.69,0,0,1-.54-1.39v-3.68h-.71v-.76h.71v-1.7h1v1.7h1v.76h-1v3.65c0,.65.35.93,1,.93v.88A2,2,0,0,1,316.79,160.31Zm2.26-6.93v-1.13h1.14v1.13Zm.09,7.32v-6.22h1v6.22Zm3.12-2.88a3.42,3.42,0,0,0,.25,1.83.65.65,0,0,0,.55.27.66.66,0,0,0,.55-.24,1,1,0,0,0,.21-.72h1a2,2,0,0,1-.5,1.38,1.64,1.64,0,0,1-1.23.45,1.52,1.52,0,0,1-1.23-.48c-.47-.49-.56-1.42-.56-2.72s.09-2.23.54-2.72a1.56,1.56,0,0,1,1.23-.48,1.54,1.54,0,0,1,1.22.48c.47.49.55,1.41.55,2.95Zm1.33-2.31a.66.66,0,0,0-.55-.25.63.63,0,0,0-.54.25c-.19.23-.24.68-.24,1.58h1.57C323.83,156.19,323.78,155.74,323.59,155.51Zm5.08,4.79a1.88,1.88,0,0,1-2.52,0,1.84,1.84,0,0,1-.53-1.37h1a1,1,0,0,0,.26.76.83.83,0,0,0,.55.22.78.78,0,0,0,.59-.23.88.88,0,0,0,.24-.63,1.07,1.07,0,0,0-.15-.56,1.36,1.36,0,0,0-.56-.44l-.8-.41a2,2,0,0,1-.85-.72,1.61,1.61,0,0,1-.19-.82,1.66,1.66,0,0,1,1.74-1.72,1.66,1.66,0,0,1,1.21.44,1.82,1.82,0,0,1,.5,1.37h-1a1,1,0,0,0-.23-.75.69.69,0,0,0-.52-.21.73.73,0,0,0-.54.2.82.82,0,0,0-.23.6.85.85,0,0,0,.11.46,1.17,1.17,0,0,0,.51.41l.79.39a2,2,0,0,1,.88.71,1.94,1.94,0,0,1-.26,2.29Zm8.09.4h-1l-.84-4.55-.81,4.55h-1l-1.28-6.22H333l.71,4.68.83-4.68h.87l.88,4.68.72-4.68h1.1Zm2-7.32v-1.13h1.14v1.13Zm.09,7.32v-6.22h1v6.22Zm3.1-.39a1.72,1.72,0,0,1-.54-1.39v-3.68h-.7v-.76h.7v-1.7h1v1.7h1v.76h-1v3.65c0,.65.34.93,1,.93v.88A2.06,2.06,0,0,1,341.91,160.31Zm4.8.39v-4.57c0-.58-.33-.87-.74-.87s-.73.29-.73.87v4.57h-1v-8.54h1v2.77a1.17,1.17,0,0,1,.35-.35,1.25,1.25,0,0,1,.67-.19,1.28,1.28,0,0,1,1.05.45,1.73,1.73,0,0,1,.37,1.29v4.57Zm6.79,0v-.56a1.37,1.37,0,0,1-.36.42,1.06,1.06,0,0,1-.73.23,1.28,1.28,0,0,1-1.06-.47,2.09,2.09,0,0,1-.4-1.39,1.84,1.84,0,0,1,.55-1.4,1.77,1.77,0,0,1,1.32-.42h.64v-1c0-.58-.25-.89-.73-.89a.63.63,0,0,0-.48.2,1,1,0,0,0-.23.72h-1a1.61,1.61,0,0,1,1.68-1.77,1.66,1.66,0,0,1,1.21.43,1.85,1.85,0,0,1,.49,1.37v4.51Zm0-2.88h-.55a.92.92,0,0,0-.7.23,1.21,1.21,0,0,0-.29.85c0,.64.25,1,.76,1s.78-.4.78-1Zm-52.18,16.94a1.67,1.67,0,0,1-1.23.43,1.51,1.51,0,0,1-1.3-.57,7.75,7.75,0,0,1,0-5.26,1.51,1.51,0,0,1,1.3-.57,1.6,1.6,0,0,1,1.21.42,1.94,1.94,0,0,1,.51,1.4h-1a1.1,1.1,0,0,0-.2-.72.64.64,0,0,0-.54-.23.67.67,0,0,0-.55.27,4.25,4.25,0,0,0-.24,2.06,4.32,4.32,0,0,0,.24,2.06.67.67,0,0,0,.55.27.69.69,0,0,0,.53-.23,1.06,1.06,0,0,0,.21-.73h1A2.14,2.14,0,0,1,301.28,174.76Zm2.06,0a1.66,1.66,0,0,1-.55-1.39v-6.76h1v6.73a.81.81,0,0,0,.92.93v.88A2,2,0,0,1,303.34,174.71Zm2.15-6.93v-1.13h1.14v1.13Zm.08,7.32v-6.22h1v6.22Zm5.13-.34a1.67,1.67,0,0,1-1.23.43,1.51,1.51,0,0,1-1.3-.57,7.75,7.75,0,0,1,0-5.26,1.51,1.51,0,0,1,1.3-.57,1.6,1.6,0,0,1,1.21.42,1.94,1.94,0,0,1,.51,1.4h-1a1.1,1.1,0,0,0-.2-.72.64.64,0,0,0-.54-.23.67.67,0,0,0-.55.27,4.25,4.25,0,0,0-.24,2.06,4.32,4.32,0,0,0,.24,2.06.67.67,0,0,0,.55.27.69.69,0,0,0,.53-.23,1.06,1.06,0,0,0,.21-.73h1A2.14,2.14,0,0,1,310.7,174.76Zm4.39.34-1.19-2.93-.67,1.07v1.86h-1v-8.54h1v5.27l1.76-3h1l-1.51,2.43,1.66,3.79Zm2.05,0v-1.19h1.19v1.19Zm75.38-28.8-.4-2h-2l-.41,2h-1.08l2-8.54h1l2,8.54Zm-1.39-6.88-.8,3.94h1.59Zm5.74,6.88v-.48a1.34,1.34,0,0,1-.37.38,1.37,1.37,0,0,1-.68.19,1.25,1.25,0,0,1-1-.47c-.39-.45-.45-1.29-.45-2.73s.06-2.28.45-2.75a1.25,1.25,0,0,1,1-.45,1.3,1.3,0,0,1,.68.18,1.22,1.22,0,0,1,.34.34v-2.75h1v8.54Zm0-4.54a.9.9,0,0,0-.24-.7.65.65,0,0,0-.5-.2.66.66,0,0,0-.53.25c-.21.27-.25.8-.25,2.08s0,1.81.25,2.07a.64.64,0,0,0,.53.26.65.65,0,0,0,.5-.2.93.93,0,0,0,.24-.72Zm4.24,4.54h-1l-1.5-6.22h1.07l.94,4.68.94-4.68h1.07Zm5.17-.48a1.8,1.8,0,0,1-2.63,0,7.91,7.91,0,0,1,0-5.26,1.8,1.8,0,0,1,2.63,0,8.08,8.08,0,0,1,0,5.26Zm-.77-4.69a.66.66,0,0,0-.55-.27.64.64,0,0,0-.54.27,8.61,8.61,0,0,0,0,4.12.64.64,0,0,0,.54.27.66.66,0,0,0,.55-.27,9,9,0,0,0,0-4.12Zm5.17,4.83a1.66,1.66,0,0,1-1.22.43,1.54,1.54,0,0,1-1.31-.57,7.91,7.91,0,0,1,0-5.26,1.54,1.54,0,0,1,1.31-.57,1.62,1.62,0,0,1,1.21.42,1.94,1.94,0,0,1,.51,1.4h-1a1.09,1.09,0,0,0-.19-.72.64.64,0,0,0-.54-.23.67.67,0,0,0-.55.27c-.23.3-.24.93-.24,2.06a4.17,4.17,0,0,0,.24,2.06.67.67,0,0,0,.55.27.69.69,0,0,0,.53-.23,1,1,0,0,0,.2-.73h1A2.09,2.09,0,0,1,410.65,146Zm3.82.34v-.56a1.52,1.52,0,0,1-.36.42,1.08,1.08,0,0,1-.73.23,1.3,1.3,0,0,1-1.07-.47,2.1,2.1,0,0,1-.39-1.39,1.84,1.84,0,0,1,.55-1.4,1.77,1.77,0,0,1,1.32-.42h.63v-1c0-.58-.25-.89-.73-.89a.65.65,0,0,0-.48.2,1,1,0,0,0-.23.72h-1a1.78,1.78,0,0,1,.48-1.32,1.75,1.75,0,0,1,1.2-.45,1.66,1.66,0,0,1,1.21.43,1.85,1.85,0,0,1,.49,1.37v4.51Zm-.05-2.88h-.55a.89.89,0,0,0-.69.23,1.21,1.21,0,0,0-.29.85c0,.64.25,1,.75,1s.78-.4.78-1Zm3.06,2.49a1.72,1.72,0,0,1-.54-1.39v-3.68h-.7v-.76h.7v-1.7h1v1.7h.95v.76h-.95v3.65c0,.65.34.93,1,.93v.88A2.06,2.06,0,0,1,417.48,145.91Zm3.14-2.49a3.42,3.42,0,0,0,.25,1.83.65.65,0,0,0,.55.27.68.68,0,0,0,.55-.24,1,1,0,0,0,.2-.72h1a2,2,0,0,1-.51,1.38,1.63,1.63,0,0,1-1.22.45,1.55,1.55,0,0,1-1.24-.48c-.46-.49-.55-1.42-.55-2.72s.09-2.23.54-2.72a1.8,1.8,0,0,1,2.45,0c.47.49.55,1.41.55,2.95Zm1.33-2.31a.66.66,0,0,0-.55-.25.63.63,0,0,0-.54.25c-.2.23-.24.68-.24,1.58h1.57C422.19,141.79,422.14,141.34,422,141.11ZM427,145.9a1.67,1.67,0,0,1-1.27.49,1.72,1.72,0,0,1-1.25-.48,1.82,1.82,0,0,1-.52-1.36h1a1,1,0,0,0,.26.75.82.82,0,0,0,.55.22.81.81,0,0,0,.59-.23.91.91,0,0,0,.24-.62,1,1,0,0,0-.16-.57,1.39,1.39,0,0,0-.55-.44l-.8-.41a2,2,0,0,1-.85-.72,1.5,1.5,0,0,1-.2-.81,1.72,1.72,0,0,1,.52-1.26,1.85,1.85,0,0,1,2.43,0,1.79,1.79,0,0,1,.51,1.37h-1a1,1,0,0,0-.23-.74.67.67,0,0,0-.53-.22.77.77,0,0,0-.54.2.87.87,0,0,0-.22.6,1,1,0,0,0,.1.46,1.27,1.27,0,0,0,.52.41l.79.39a2,2,0,0,1,.88.71,1.86,1.86,0,0,1,.26,1A1.79,1.79,0,0,1,427,145.9Zm6.61.06a1.66,1.66,0,0,1-1.22.43,1.54,1.54,0,0,1-1.31-.57,7.91,7.91,0,0,1,0-5.26,1.54,1.54,0,0,1,1.31-.57,1.62,1.62,0,0,1,1.21.42,1.94,1.94,0,0,1,.51,1.4h-1a1.09,1.09,0,0,0-.19-.72.64.64,0,0,0-.54-.23.67.67,0,0,0-.55.27c-.23.3-.24.93-.24,2.06a4.17,4.17,0,0,0,.24,2.06.67.67,0,0,0,.55.27.69.69,0,0,0,.53-.23,1,1,0,0,0,.2-.73h1A2.09,2.09,0,0,1,433.63,146Zm3.82.34v-.56a1.37,1.37,0,0,1-.36.42,1.06,1.06,0,0,1-.73.23,1.3,1.3,0,0,1-1.07-.47,2.1,2.1,0,0,1-.39-1.39,1.84,1.84,0,0,1,.55-1.4,1.77,1.77,0,0,1,1.32-.42h.63v-1c0-.58-.25-.89-.73-.89a.65.65,0,0,0-.48.2,1,1,0,0,0-.23.72h-1a1.78,1.78,0,0,1,.48-1.32,1.75,1.75,0,0,1,1.2-.45,1.66,1.66,0,0,1,1.21.43,1.85,1.85,0,0,1,.49,1.37v4.51Zm-.05-2.88h-.55a.89.89,0,0,0-.69.23,1.21,1.21,0,0,0-.29.85c0,.64.25,1,.75,1s.78-.4.78-1Zm4.74,2.88v-4.57c0-.57-.33-.85-.74-.85s-.73.28-.73.85v4.57h-1v-6.22h.93v.48a1.28,1.28,0,0,1,.39-.38,1.25,1.25,0,0,1,.67-.19,1.28,1.28,0,0,1,1.05.45,1.74,1.74,0,0,1,.37,1.29v4.57Zm7.56-.38a1.2,1.2,0,0,1-1,.47,1.27,1.27,0,0,1-.67-.18,1.45,1.45,0,0,1-.35-.35v2.76h-1v-8.54h.95v.48a1.34,1.34,0,0,1,.37-.38,1.21,1.21,0,0,1,.67-.19,1.25,1.25,0,0,1,1,.45c.4.47.46,1.31.46,2.75S450.1,145.46,449.7,145.92Zm-.78-4.81a.66.66,0,0,0-.53-.25.65.65,0,0,0-.5.2.94.94,0,0,0-.24.7v2.84a1,1,0,0,0,.24.72.65.65,0,0,0,.5.2.64.64,0,0,0,.53-.26c.22-.26.25-.79.25-2.07S449.14,141.38,448.92,141.11Zm4.5-.19a1.07,1.07,0,0,0-1.13,1.14v4.24h-1v-6.22h.94v.66a1.5,1.5,0,0,1,.43-.44,1.74,1.74,0,0,1,1-.31v.93ZM454.5,139v-1.13h1.14V139Zm.09,7.32v-6.22h1v6.22Zm4.78,0v-4.57c0-.57-.33-.85-.74-.85s-.73.28-.73.85v4.57h-1v-6.22h.93v.48a1.41,1.41,0,0,1,.39-.38,1.25,1.25,0,0,1,.67-.19,1.28,1.28,0,0,1,1.05.45,1.7,1.7,0,0,1,.38,1.29v4.57Zm3.06-.39a1.72,1.72,0,0,1-.54-1.39v-3.68h-.7v-.76h.7v-1.7h1v1.7h1v.76h-1v3.65c0,.65.34.93,1,.93v.88A2.06,2.06,0,0,1,462.43,145.91Zm7.49-.09a1.8,1.8,0,0,1-2.63,0,7.91,7.91,0,0,1,0-5.26,1.8,1.8,0,0,1,2.63,0,7.91,7.91,0,0,1,0,5.26Zm-.77-4.69a.66.66,0,0,0-.55-.27.64.64,0,0,0-.54.27,8.61,8.61,0,0,0,0,4.12.64.64,0,0,0,.54.27.66.66,0,0,0,.55-.27,9,9,0,0,0,0-4.12Zm3.59-.29v5.46h-1v-5.46h-.71v-.76h.71v-.6a1.68,1.68,0,0,1,.54-1.38,2.06,2.06,0,0,1,1.39-.39v.87a.85.85,0,0,0-1,.94v.56h1v.76Zm3.05,0v5.46h-1v-5.46h-.71v-.76h.71v-.6a1.68,1.68,0,0,1,.54-1.38,2.06,2.06,0,0,1,1.39-.39v.87a.84.84,0,0,0-1,.94v.56h1v.76Zm6.35,5.46v-.56a1.52,1.52,0,0,1-.36.42,1.08,1.08,0,0,1-.73.23,1.3,1.3,0,0,1-1.07-.47,2.09,2.09,0,0,1-.4-1.39,1.84,1.84,0,0,1,.55-1.4,1.8,1.8,0,0,1,1.32-.42h.64v-1c0-.58-.25-.89-.73-.89a.63.63,0,0,0-.48.2,1,1,0,0,0-.23.72h-1a1.78,1.78,0,0,1,.48-1.32,1.73,1.73,0,0,1,1.2-.45,1.66,1.66,0,0,1,1.21.43,1.85,1.85,0,0,1,.49,1.37v4.51Zm-.05-2.88h-.55a.92.92,0,0,0-.7.23,1.21,1.21,0,0,0-.29.85c0,.64.26,1,.76,1s.78-.4.78-1ZM387.84,163v-2.76a1.45,1.45,0,0,1-.35.35,1.27,1.27,0,0,1-.67.18,1.2,1.2,0,0,1-1-.47c-.4-.46-.46-1.29-.46-2.73s.06-2.28.46-2.75a1.25,1.25,0,0,1,1-.45,1.21,1.21,0,0,1,.67.19,1.34,1.34,0,0,1,.37.38v-.48h.95V163Zm0-6.86a1,1,0,0,0-.24-.71.69.69,0,0,0-.51-.19.65.65,0,0,0-.52.25c-.22.27-.26.8-.26,2.08s0,1.81.26,2.07a.63.63,0,0,0,.52.26.66.66,0,0,0,.51-.2,1,1,0,0,0,.24-.72Zm4.77,4.54v-.48a1.23,1.23,0,0,1-1.05.57,1.31,1.31,0,0,1-1.06-.45,1.74,1.74,0,0,1-.37-1.29v-4.57h1v4.57c0,.58.34.87.75.87s.73-.29.73-.87v-4.57h1v6.22Zm2.22-7.32v-1.13H396v1.13Zm.09,7.32v-6.22h1v6.22Zm5.12-.34a1.66,1.66,0,0,1-1.22.43,1.53,1.53,0,0,1-1.31-.57,7.75,7.75,0,0,1,0-5.26,1.53,1.53,0,0,1,1.31-.57,1.62,1.62,0,0,1,1.21.42,1.93,1.93,0,0,1,.5,1.4h-1a1.08,1.08,0,0,0-.19-.72.64.64,0,0,0-.54-.23.66.66,0,0,0-.55.27c-.23.3-.24.93-.24,2.06a4.19,4.19,0,0,0,.24,2.06.66.66,0,0,0,.55.27.69.69,0,0,0,.53-.23,1.05,1.05,0,0,0,.2-.73h1A2,2,0,0,1,400,160.36Zm4.39.34-1.18-2.93-.68,1.07v1.86h-1v-8.54h1v5.27l1.77-3h1l-1.51,2.43,1.65,3.79Zm1.49-2.93v-.92h2.35v.92Zm5.75-2.45a1.07,1.07,0,0,0-1.13,1.14v4.24h-1v-6.22h.94v.66a1.39,1.39,0,0,1,.43-.44,1.74,1.74,0,0,1,1-.31v.93Zm1.88,2.5a3.39,3.39,0,0,0,.26,1.83.63.63,0,0,0,.55.27.68.68,0,0,0,.55-.24,1,1,0,0,0,.2-.72h1a1.94,1.94,0,0,1-.5,1.38,1.63,1.63,0,0,1-1.22.45,1.55,1.55,0,0,1-1.24-.48c-.47-.49-.55-1.42-.55-2.72s.08-2.23.54-2.72a1.54,1.54,0,0,1,1.22-.48,1.56,1.56,0,0,1,1.23.48c.46.49.55,1.41.55,2.95Zm1.34-2.31a.67.67,0,0,0-.56-.25.64.64,0,0,0-.54.25c-.19.23-.24.68-.24,1.58h1.57C415.12,156.19,415.08,155.74,414.89,155.51Zm3.55-.27v5.46h-1v-5.46h-.71v-.76h.71v-.6a1.68,1.68,0,0,1,.54-1.38,2.06,2.06,0,0,1,1.39-.39V153a.84.84,0,0,0-1,.94v.56h1v.76Zm2.52,2.58a3.42,3.42,0,0,0,.25,1.83.65.65,0,0,0,.55.27.66.66,0,0,0,.55-.24,1,1,0,0,0,.21-.72h1a2,2,0,0,1-.5,1.38,1.64,1.64,0,0,1-1.23.45,1.52,1.52,0,0,1-1.23-.48c-.47-.49-.56-1.42-.56-2.72s.09-2.23.54-2.72a1.56,1.56,0,0,1,1.23-.48,1.54,1.54,0,0,1,1.22.48c.47.49.55,1.41.55,2.95Zm1.33-2.31a.66.66,0,0,0-.55-.25.63.63,0,0,0-.54.25c-.19.23-.24.68-.24,1.58h1.57C422.53,156.19,422.48,155.74,422.29,155.51Zm4.45-.19a1.07,1.07,0,0,0-1.13,1.14v4.24h-1v-6.22h.94v.66a1.39,1.39,0,0,1,.43-.44,1.74,1.74,0,0,1,1-.31v.93Zm1.88,2.5a3.39,3.39,0,0,0,.26,1.83.65.65,0,0,0,.55.27.68.68,0,0,0,.55-.24,1,1,0,0,0,.2-.72h1a2,2,0,0,1-.51,1.38,1.63,1.63,0,0,1-1.22.45,1.55,1.55,0,0,1-1.24-.48c-.46-.49-.55-1.42-.55-2.72s.09-2.23.54-2.72a1.8,1.8,0,0,1,2.45,0c.47.49.55,1.41.55,2.95Zm1.34-2.31a.66.66,0,0,0-.55-.25.63.63,0,0,0-.54.25c-.2.23-.25.68-.25,1.58h1.58C430.2,156.19,430.15,155.74,430,155.51Zm4.8,5.19v-4.57a.76.76,0,0,0-.75-.86c-.41,0-.73.29-.73.86v4.57h-1v-6.22h.94V155a1.23,1.23,0,0,1,1.05-.57,1.31,1.31,0,0,1,1.06.45,1.73,1.73,0,0,1,.37,1.29v4.57Zm5.07-.34a1.66,1.66,0,0,1-1.22.43,1.53,1.53,0,0,1-1.31-.57,7.91,7.91,0,0,1,0-5.26,1.53,1.53,0,0,1,1.31-.57,1.62,1.62,0,0,1,1.21.42,1.93,1.93,0,0,1,.5,1.4h-1a1.08,1.08,0,0,0-.19-.72.64.64,0,0,0-.54-.23.66.66,0,0,0-.55.27c-.23.3-.24.93-.24,2.06a4.19,4.19,0,0,0,.24,2.06.66.66,0,0,0,.55.27.69.69,0,0,0,.53-.23,1.05,1.05,0,0,0,.2-.73h1A2,2,0,0,1,439.83,160.36Zm2.34-2.54a3.52,3.52,0,0,0,.25,1.83.65.65,0,0,0,.56.27.68.68,0,0,0,.55-.24,1.08,1.08,0,0,0,.2-.72h1a1.94,1.94,0,0,1-.5,1.38,1.63,1.63,0,0,1-1.22.45,1.55,1.55,0,0,1-1.24-.48c-.47-.49-.55-1.42-.55-2.72s.08-2.23.54-2.72a1.54,1.54,0,0,1,1.22-.48,1.56,1.56,0,0,1,1.23.48c.46.49.55,1.41.55,2.95Zm1.33-2.31a.65.65,0,0,0-.55-.25.64.64,0,0,0-.54.25c-.19.23-.24.68-.24,1.58h1.57C443.74,156.19,443.7,155.74,443.5,155.51Zm5.11,4.8a1.66,1.66,0,0,1-.56-1.39v-6.76h1v6.73a.81.81,0,0,0,.92.93v.88A2,2,0,0,1,448.61,160.31Zm2.14-6.93v-1.13h1.14v1.13Zm.09,7.32v-6.22h1v6.22Zm5.06-.4a1.68,1.68,0,0,1-1.27.49,1.7,1.7,0,0,1-1.25-.48,1.84,1.84,0,0,1-.53-1.37h1a1,1,0,0,0,.27.76.82.82,0,0,0,.55.22.81.81,0,0,0,.59-.23.92.92,0,0,0,.24-.63,1,1,0,0,0-.16-.56,1.39,1.39,0,0,0-.55-.44l-.8-.41a2,2,0,0,1-.86-.72,1.61,1.61,0,0,1-.19-.82,1.74,1.74,0,0,1,.52-1.26,1.68,1.68,0,0,1,1.22-.46,1.66,1.66,0,0,1,1.21.44,1.79,1.79,0,0,1,.51,1.37h-1a1.05,1.05,0,0,0-.23-.75.8.8,0,0,0-1.07,0,.86.86,0,0,0-.23.6,1,1,0,0,0,.11.46,1.27,1.27,0,0,0,.52.41l.79.39a2,2,0,0,1,.87.71,1.9,1.9,0,0,1-.26,2.29Zm2.35,0a1.72,1.72,0,0,1-.54-1.39v-3.68H457v-.76h.7v-1.7h1v1.7h1v.76h-1v3.65c0,.65.35.93,1,.93v.88A2.06,2.06,0,0,1,458.25,160.31Zm5.8-5.07v5.46h-1v-5.46h-.71v-.76h.71v-.6a1.68,1.68,0,0,1,.54-1.38,2.06,2.06,0,0,1,1.39-.39V153a.84.84,0,0,0-1,.94v.56h1v.76Zm4.62,5a1.52,1.52,0,0,1-1.32.57,1.5,1.5,0,0,1-1.31-.57,7.91,7.91,0,0,1,0-5.26,1.5,1.5,0,0,1,1.31-.57,1.52,1.52,0,0,1,1.32.57,8.08,8.08,0,0,1,0,5.26Zm-.77-4.69a.66.66,0,0,0-.55-.27.64.64,0,0,0-.54.27,8.61,8.61,0,0,0,0,4.12.64.64,0,0,0,.54.27.66.66,0,0,0,.55-.27,9,9,0,0,0,0-4.12Zm4.49-.21a1.07,1.07,0,0,0-1.13,1.14v4.24h-1v-6.22h.93v.66a1.54,1.54,0,0,1,.44-.44,1.71,1.71,0,0,1,1-.31v.93Zm4.17,5a1.72,1.72,0,0,1-.54-1.39v-3.68h-.7v-.76h.7v-1.7h1v1.7h1v.76h-1v3.65c0,.65.34.93,1,.93v.88A2.06,2.06,0,0,1,476.56,160.31Zm4.8.39v-4.57c0-.58-.33-.87-.74-.87s-.73.29-.73.87v4.57h-1v-8.54h1v2.77a1.17,1.17,0,0,1,.35-.35,1.25,1.25,0,0,1,.67-.19,1.28,1.28,0,0,1,1,.45,1.73,1.73,0,0,1,.37,1.29v4.57Zm3.08-2.88a3.42,3.42,0,0,0,.25,1.83.65.65,0,0,0,.55.27.66.66,0,0,0,.55-.24A1,1,0,0,0,486,159h1a2,2,0,0,1-.51,1.38,1.63,1.63,0,0,1-1.22.45,1.55,1.55,0,0,1-1.24-.48c-.46-.49-.55-1.42-.55-2.72s.09-2.23.54-2.72a1.56,1.56,0,0,1,1.23-.48,1.54,1.54,0,0,1,1.22.48c.47.49.55,1.41.55,2.95Zm1.33-2.31a.66.66,0,0,0-.55-.25.63.63,0,0,0-.54.25c-.2.23-.24.68-.24,1.58H486C486,156.19,486,155.74,485.77,155.51Zm-57.93,19.21a1.25,1.25,0,0,1-1,.47,1.2,1.2,0,0,1-.67-.19,1.52,1.52,0,0,1-.38-.38v.48h-.94v-8.54h1v2.75a1.36,1.36,0,0,1,.35-.33,1.13,1.13,0,0,1,.67-.19,1.26,1.26,0,0,1,1,.45c.41.47.45,1.29.45,2.75S428.25,174.26,427.84,174.72Zm-.78-4.8a.64.64,0,0,0-.53-.26.68.68,0,0,0-.5.19.94.94,0,0,0-.24.71v2.84a.93.93,0,0,0,.24.72.65.65,0,0,0,.5.2.64.64,0,0,0,.53-.26c.22-.26.25-.79.25-2.07S427.28,170.18,427.06,169.92Zm2.32-2.14v-1.13h1.14v1.13Zm.08,7.32v-6.22h1v6.22Zm4.79,0v-4.57a.75.75,0,0,0-.75-.85c-.41,0-.73.28-.73.85v4.57h-1v-6.22h.94v.48a1.23,1.23,0,0,1,1.05-.57,1.31,1.31,0,0,1,1.06.45,1.73,1.73,0,0,1,.37,1.29v4.57Zm4.62,0v-.48a1.34,1.34,0,0,1-.37.38,1.37,1.37,0,0,1-.68.19,1.25,1.25,0,0,1-1-.47c-.39-.45-.45-1.29-.45-2.73s.06-2.28.45-2.75a1.25,1.25,0,0,1,1-.45,1.3,1.3,0,0,1,.68.18,1.22,1.22,0,0,1,.34.34v-2.75h1v8.54Zm0-4.54a.94.94,0,0,0-.24-.71.68.68,0,0,0-.5-.19.64.64,0,0,0-.53.26c-.21.26-.25.79-.25,2.07s0,1.81.25,2.07a.64.64,0,0,0,.53.26.65.65,0,0,0,.5-.2.93.93,0,0,0,.24-.72Zm3.12,1.66a3.52,3.52,0,0,0,.25,1.83.65.65,0,0,0,.56.27.68.68,0,0,0,.55-.24,1.08,1.08,0,0,0,.2-.72h1a1.94,1.94,0,0,1-.5,1.38,1.63,1.63,0,0,1-1.22.45,1.55,1.55,0,0,1-1.24-.48c-.47-.49-.55-1.42-.55-2.72s.08-2.23.54-2.72a1.54,1.54,0,0,1,1.22-.48,1.56,1.56,0,0,1,1.23.48c.46.49.55,1.41.55,2.95Zm1.33-2.3a.63.63,0,0,0-.55-.26.62.62,0,0,0-.54.26c-.19.22-.24.67-.24,1.57h1.57C443.53,170.59,443.49,170.14,443.29,169.92Zm4.46-.2a1.07,1.07,0,0,0-1.13,1.14v4.24h-1v-6.22h.93v.66a1.67,1.67,0,0,1,.44-.44,1.71,1.71,0,0,1,1-.31v.93Zm.77,5.38v-1.19h1.18v1.19Z"/></g></g></svg>
