<?xml version="1.0" encoding="utf-8"?>
<!-- Generator: Adobe Illustrator 23.0.3, SVG Export Plug-In . SVG Version: 6.00 Build 0)  -->
<svg version="1.1" id="Layer_1" xmlns="http://www.w3.org/2000/svg" xmlns:xlink="http://www.w3.org/1999/xlink" x="0px" y="0px"
	 viewBox="0 0 487.3 175.7" style="enable-background:new 0 0 487.3 175.7;" xml:space="preserve">
<style type="text/css">
	.st0{fill:none;}
	.st1{fill:#4559A8;}
	.st2{fill:#111111;}
</style>
<g>
	<rect class="st0" width="487.3" height="175.7"/>
	<path class="st1" d="M66.5,57.4c0.1,0.7,0,1.5-0.2,2.2c-0.1,0.4-0.2,0.8-0.2,1.2c-1.3,7.1-1.8,14.3-1.5,21.5
		c0.4,5.5-1.8,9.7-3.1,12.2c-0.5,0.8-0.8,1.6-1,2.5c-0.1,3.8-0.1,6.3-0.1,9.5c0,1.2,0,2.4,0,3.8c0.1,1.2-0.2,1.5-1.5,1.8l-1.1,0.2
		l-0.4,0.1c0-1,0-2.2,0-3.6c0-4.4,0-9.8,0-11.5c0.1-0.3,0.2-0.5,0.4-0.8c1.2-2,1.8-4.3,1.7-6.6c-0.2-3.5,0.1-6.9,0.7-10.3
		c0.2-0.6,0.3-1.3,0.2-2c-0.2-0.7-0.7-1.2-1.4-1.4c-0.6-0.1-1.2,0.1-1.6,0.6C57.2,77,57,77.4,57,77.8c0,0.1,0,0.2,0,0.3
		c-0.3,1.4-0.6,2.9-0.8,4.3c0,0,0,0.1-0.1,0.1H56c0.2-2.6,0.4-5.2,0.5-7.7v-0.3c0.1-0.6,0-1.2-0.4-1.7c-0.3-0.3-0.8-0.5-1.2-0.5
		c-1.6,0-1.7,1.3-1.8,2c-0.1,2.1-0.3,4.2-0.5,6.2v-2.6c0-1.7,0-3.5-0.1-5.3c0-0.4-0.2-0.9-0.6-1.1h-0.1c-0.6-0.3-1.3-0.3-1.9,0
		c-0.3,0.2-0.5,0.5-0.7,0.8c-0.2,0.3-0.2,0.7-0.2,1.1c0,0.1,0,0.1,0,0.2v7.6l-1-6.5c0-0.5-0.3-0.9-0.7-1.2C47,73,46.5,72.9,46,73.1
		c-1.1,0.2-1.4,0.8-1.5,1.8c0,0.5,0.1,1.1,0.2,1.6c0.2,1.5,0.4,3,0.6,4.6c0.2,1.8,0.5,3.5,0.7,5.3c0,0.4,0,0.7-0.1,0.8
		c0,0-0.1,0.1-0.2,0.1c-0.2-0.2-0.4-0.4-0.5-0.7L45,86.2c-0.4-0.6-0.7-1.3-1.1-2c-0.2-0.4-0.3-0.7-0.5-1c-0.3-1.1-1.5-1.6-2.5-1.3
		c0,0-0.1,0-0.1,0c-0.9,0.6-1.3,1.9-0.8,2.9c0.5,1.1,0.9,2.1,1.3,3.2c0.7,1.7,1.4,3.4,2.1,5c0.4,1,1,2,1.8,2.8
		c0.7,0.7,1.1,1.8,1.1,2.8v14c-1-0.1-2-0.2-3-0.3s-1.4-0.5-1.4-1.7c0.1-2.7,0.1-5.4,0.1-8c0-0.9,0-1.8,0-2.7c0-2.6-1-5.1-2.9-7
		c-1.4-1.5-2.5-3.1-3.3-4.9c-1.4-3.2-2.8-6.5-4.1-9.7c-1-2.4-2-4.8-3-7.1c-0.6-0.9-0.4-2.2,0.4-2.9c0.2-0.1,0.4-0.2,0.6-0.2h0.3
		c0.9,0.3,1.6,0.9,2,1.7c0.3,0.6,0.6,1.3,0.9,1.9c0.7,1.6,1.5,3.1,2.4,4.5c0.8,1.1,2,1.9,3.4,2.1c0.6,0,1.2-0.2,1.6-0.6
		c0.6-0.7,0.5-1.8,0.4-3l-2.5-20c0-0.3-0.1-0.6-0.2-0.9c-0.2-0.6-0.2-1.3-0.2-1.9c0-0.1,0-0.3,0.1-0.4c0.2-0.9,0.3-1.4,1.5-1.5
		c0.3-0.1,0.6,0,0.9,0.2c0.4,0.3,0.7,0.7,0.8,1.2L43.6,67c0.2,1.1,1.3,1.8,2.4,1.6l0.2-0.1c0.9-0.1,1.5-0.9,1.4-1.8c0,0,0,0,0-0.1
		V48.3c0-0.5,0-1,0.1-1.4c0.2-0.7,0.3-0.7,0.5-0.8c0.7-0.2,1.4-0.1,2,0.2c0.3,0.4,0.4,0.5,0.4,0.8c0.1,2.7,0.1,5.5,0.1,8.1
		c0,0.9,0,1.8,0,2.7s0,1.8,0,2.7c0,1.8,0,3.6,0,5.5v0.2c0,0.9,0,1.9,1.4,2c1.1,0,2-0.7,2.1-1.8c0.2-2.7,0.4-5.3,0.6-8
		s0.4-5.3,0.6-7.9c0.2-1.8,0.4-2.4,1.7-2.4c0.4,0,0.8,0.1,1.1,0.3c0.4,0.6,0.5,1.3,0.4,2c-0.3,5.9-0.6,11.2-1,16.7
		c-0.1,1,0.7,1.9,1.7,2c1,0.1,2-0.5,2.2-1.6l0.8-4.2c0.3-1.5,0.5-2.9,0.8-4.4c0-0.2,0.1-0.4,0.1-0.7c0-0.5,0.2-1,0.4-1.4
		c0.3-0.5,0.9-0.9,1.5-1C65.8,56.2,66.3,56.7,66.5,57.4z M100.7,79.4c0,27.3-22.6,49.4-50.4,49.4S0,106.6,0,79.3
		s22.5-49.4,50.4-49.4S100.7,52,100.7,79.4L100.7,79.4z M67.7,57.2c-0.3-1.1-1.2-2-2.3-2.3c-1-0.3-2.3,0.8-2.7,1.4
		c-0.4,0.6-0.6,1.3-0.7,2c0,0.2-0.1,0.4-0.1,0.6c-0.3,1.5-0.5,2.9-0.8,4.4l-0.8,4.2c-0.1,0.4-0.5,0.6-0.8,0.6
		c-0.4,0-0.7-0.4-0.6-0.7c0,0,0,0,0,0c0.4-5.4,0.7-10.7,1-16.6c0.2-1-0.1-2.1-0.7-2.9c-0.5-0.5-1.3-0.8-2-0.7
		c-2.6,0-2.8,2.1-2.9,3.5c-0.2,2.7-0.4,5.3-0.6,8s-0.4,5.3-0.6,7.9c0,0.4-0.3,0.7-0.7,0.7L52,67c0-0.2,0-0.5,0-0.8V66
		c0-1.8,0-3.7,0-5.5c0-0.9,0-1.8,0-2.7s0-1.8,0-2.7c0-2.7,0-5.5-0.1-8.2c0-0.6-0.3-1.2-0.7-1.6c-1-0.7-2.4-0.9-3.6-0.4
		c-0.5,0.3-0.9,0.9-1,1.5c-0.2,0.6-0.3,1.2-0.2,1.8v18.4c0,0.5-0.2,0.6-0.4,0.6l-0.2,0.1c-0.4,0-0.7-0.2-0.8-0.5l-2.4-15.5
		c-0.1-0.8-0.6-1.6-1.3-2.1c-0.5-0.4-1.1-0.5-1.8-0.4c-1.4,0-2.5,1.1-2.5,2.4c0,0.1,0,0.2-0.1,0.3c-0.1,0.8-0.1,1.7,0.1,2.5
		c0.1,0.3,0.1,0.6,0.2,0.8l2.5,20c0.1,0.8,0.2,1.6-0.1,1.9C39.5,77,39.2,77,39,77c-1-0.2-1.8-0.7-2.4-1.5c-0.9-1.4-1.6-2.8-2.3-4.3
		c-0.3-0.7-0.6-1.3-1-1.9c-0.6-1.2-1.6-2-2.9-2.4c-0.7-0.2-1.4,0-2,0.4c-1.3,1.1-1.6,2.9-0.8,4.4c1,2.3,2,4.7,3,7.1
		c1.3,3.2,2.7,6.5,4.1,9.7c0.9,1.9,2.1,3.7,3.6,5.3c1.7,1.6,2.6,3.9,2.6,6.2c0,0.9,0,1.8,0,2.7c0,2.6,0,5.3-0.1,8
		c-0.1,1.8,0.7,2.8,2.5,3c1.2,0.2,2.5,0.3,3.7,0.4l0,0c0.2,0,0.3-0.1,0.4-0.2c0.1-0.1,0.2-0.3,0.2-0.5V98.7c0-1.4-0.5-2.7-1.4-3.7
		c-0.7-0.7-1.2-1.5-1.6-2.4c-0.8-1.6-1.5-3.3-2.1-5c-0.4-1.1-0.9-2.2-1.3-3.2c-0.2-0.4-0.1-1.1,0.1-1.2c0.4-0.1,0.9,0.1,1,0.5
		c0.2,0.3,0.3,0.7,0.5,1.1c0.3,0.7,0.7,1.5,1.2,2.2l0.1,0.2c0.3,0.5,0.8,1.2,1.6,1.2c0.4,0,0.8-0.2,1.1-0.5c0.4-0.5,0.5-1.1,0.4-1.7
		c-0.2-1.8-0.4-3.5-0.7-5.3c-0.2-1.5-0.4-3-0.6-4.6c-0.1-0.4-0.1-0.9-0.2-1.3c0-0.6,0.1-0.6,0.5-0.7c0.1,0,0.3,0,0.4,0.1
		c0.1,0.1,0.2,0.2,0.2,0.4l1.2,7.7c0.2,0.8,0.6,1.1,1.2,1h0.1c0,0,0.1,0,0.2,0c0.5-0.1,0.9-0.6,0.9-1.1c0,0,0,0,0,0v-8.9
		c0-0.1,0-0.2,0-0.3c0-0.1,0-0.3,0-0.4c0.2-0.3,0.2-0.3,0.2-0.3c0.2,0,0.5,0,0.7,0c0.1,0,0.1,0.1,0.1,0.1c0.1,1.8,0.1,3.6,0.1,5.3
		V82c-0.1,0.4,0,0.8,0.3,1.1c0.2,0.2,0.4,0.3,0.7,0.3c0.7,0.1,1.3-0.4,1.4-1c0,0,0-0.1,0-0.1c0.2-2.6,0.5-5.3,0.6-7.9
		c0.1-0.9,0.2-0.9,0.5-0.9c0.1,0,0.2,0,0.3,0.1c0,0,0.1,0.2,0.1,0.8v0.4c-0.2,2.6-0.3,5.2-0.5,7.8c-0.1,0.6,0.3,1.2,1,1.2
		c0,0,0,0,0,0c0.8,0.1,1.5-0.4,1.6-1.2c0.2-1.4,0.5-2.8,0.8-4.2l0.1-0.3c0-0.2,0.1-0.4,0.1-0.5c0.1-0.1,0.2-0.1,0.3-0.1
		c0.2,0.1,0.3,0.2,0.4,0.4c0,0.5-0.1,1-0.2,1.5c-0.6,3.5-0.9,7.1-0.7,10.7c0.1,2.1-0.4,4.2-1.6,6c-0.3,0.4-0.4,0.8-0.5,1.3
		c-0.1,1.7,0,7.2,0,11.6c0,1.8,0,3.3,0,4.4c0,0.2,0.1,0.4,0.2,0.5c0.1,0.1,0.3,0.2,0.5,0.1c0.4-0.1,0.7-0.1,1.1-0.2s0.7-0.1,1.2-0.2
		c1.8-0.4,2.6-1.4,2.5-3.1c0-1.4,0-2.6,0-3.8c0-3.2,0-5.7,0.1-9.5c0.2-0.7,0.5-1.3,0.8-1.9c1.4-2.6,3.7-7,3.3-12.9
		c-0.3-7.1,0.2-14.2,1.5-21.2c0-0.4,0.1-0.7,0.2-1.1C67.8,58.9,67.8,58,67.7,57.2L67.7,57.2z M197.6,74.3l3.4,8h-6.8L197.6,74.3z
		 M183.2,65.5c-2.3,0-4.2,1.8-4.2,4.2v11.9h-5.6c-0.8,0-1.5,0.3-1.9,0.9c-2.4,3.2-5.3,6.1-8.5,8.5c0.7-2.3,1-4.7,0.9-7.2
		c-0.1-1.3-1.2-2.2-2.4-2.3h-7.7c-1.6,0-3-1.3-3-2.9v-20c0-1.6,1.4-2.9,3-2.9h28.6c1.6,0,3,1.3,3,2.9v6.8L183.2,65.5z M175.4,66.1
		c0-0.3-0.3-0.6-0.6-0.6l0,0h-6.2v-3.4c0-0.3-0.2-0.7-0.5-0.7c-0.3,0-0.7,0.2-0.7,0.5c0,0.1,0,0.1,0,0.2v3.4h-7
		c-0.3,0-0.7,0.2-0.7,0.5c0,0.3,0.2,0.7,0.5,0.7c0.1,0,0.1,0,0.2,0h11c-1.1,1.4-2.4,2.8-3.8,4l0,0c-1.7,1.5-3.7,2.8-5.7,3.9
		c-0.3,0.2-0.4,0.5-0.3,0.8c0.2,0.3,0.5,0.4,0.8,0.3l0,0c2-1.1,3.8-2.3,5.5-3.8l4.6,3.9c0.1,0.1,0.3,0.1,0.4,0.2
		c0.2,0,0.4-0.1,0.5-0.2c0.2-0.3,0.2-0.7-0.1-0.9c0,0,0,0,0,0l-4.4-3.8c1.5-1.3,2.8-2.8,4-4.4h1.8C175.2,66.7,175.4,66.5,175.4,66.1
		z M214.9,69.7v20c-0.1,1.6-1.4,2.9-3,2.9h-7.7c-1.3,0-2.3,1-2.4,2.3c-0.1,2.4,0.2,4.8,0.9,7.1c-3.2-2.4-6-5.3-8.4-8.4
		c-0.4-0.6-1.2-1-1.9-1h-9c-1.6,0-2.9-1.3-3-2.9v-20c0-1.6,1.4-2.9,3-2.9h28.6C213.5,66.7,214.8,68,214.9,69.7z M204.2,86.8
		l-1.7-4.1l0,0l-4.3-10.2c-0.2-0.3-0.6-0.4-0.9-0.3c-0.1,0.1-0.2,0.2-0.3,0.3l-4.3,10.2l0,0l-1.7,4.1c-0.1,0.3,0.1,0.7,0.4,0.8
		c0.3,0.1,0.6,0,0.7-0.3l1.6-3.7h7.8l1.6,3.7c0.1,0.2,0.3,0.4,0.6,0.4c0.1,0,0.2,0,0.2,0C204.2,87.5,204.3,87.2,204.2,86.8
		C204.2,86.8,204.2,86.8,204.2,86.8z M229.6,79.3c0,27.3-22.6,49.4-50.4,49.4s-50.4-22.1-50.4-49.4s22.6-49.5,50.4-49.5
		S229.6,52,229.6,79.3z M216.1,89.6v-20c0-2.3-1.9-4.2-4.3-4.2h-25.3v-6.8c0-2.3-1.9-4.2-4.3-4.2c0,0,0,0,0,0h-28.6
		c-2.3,0-4.2,1.8-4.3,4.2v20c0,2.3,1.9,4.2,4.3,4.2h7.7c0.6,0,1.1,0.5,1.2,1.1c0.1,2.8-0.4,5.7-1.4,8.3c-0.1,0.3,0,0.7,0.4,0.8
		c0.2,0.1,0.4,0.1,0.5,0c4.4-2.6,8.3-7.2,10.3-9.8c0.2-0.3,0.6-0.4,0.9-0.4h5.7v6.8c0,2.3,1.9,4.2,4.3,4.2c0,0,0,0,0,0h9
		c0.4,0,0.7,0.2,0.9,0.4c2.4,3.1,6.1,7.3,10.3,9.8c0.3,0.2,0.7,0.1,0.9-0.2c0.1-0.2,0.1-0.4,0-0.5c-1-2.7-1.5-5.5-1.4-8.4
		c0.1-0.6,0.6-1.1,1.2-1.1h7.7C214.2,93.8,216.1,92,216.1,89.6z M346.3,94.1h-20c-0.7-3.2-2.6-6-5.2-8c1.4-1,3.1-1.8,4.8-2.3
		c0.7-0.2,1.1-0.8,0.9-1.5c-0.1-0.3-0.3-0.6-0.6-0.8c-2.5-1.7-3.9-4.4-3.9-7.4c0-4.9,4-8.9,9-8.9s8.9,4,8.9,9c0,2.9-1.5,5.6-3.9,7.3
		c-0.6,0.4-0.8,1.1-0.4,1.7c0.2,0.3,0.4,0.5,0.8,0.5C342.3,85.4,346,89.4,346.3,94.1z M295.2,86.1c-1.5-1-3.1-1.8-4.8-2.3
		c-0.7-0.2-1.1-0.8-0.9-1.5c0.1-0.3,0.3-0.6,0.5-0.8c4.1-2.8,5.2-8.4,2.5-12.5c-2.8-4.1-8.4-5.2-12.5-2.5c-2.5,1.7-4,4.5-4,7.6
		c0,3,1.4,5.7,3.9,7.4c0.4,0.3,0.6,0.8,0.6,1.2c-0.1,0.5-0.5,0.9-0.9,1c-5.5,1.7-9.3,5.8-9.6,10.3H290
		C290.7,90.9,292.5,88,295.2,86.1L295.2,86.1z M325.2,94.8c-0.6-3.4-2.6-6.3-5.5-8.2l0,0c-1.6-1.2-3.5-2-5.4-2.6
		c-0.5-0.1-0.9-0.6-1-1.1c-0.1-0.5,0.2-1,0.6-1.3c4.7-3.2,5.9-9.6,2.7-14.2c-3.2-4.7-9.6-5.9-14.2-2.7c-2.8,1.9-4.5,5.1-4.5,8.5
		c0,3.4,1.6,6.6,4.4,8.4c0.6,0.4,0.8,1.2,0.4,1.8c-0.2,0.3-0.5,0.5-0.8,0.6c-1.9,0.6-3.8,1.5-5.5,2.6l0,0c-2.8,1.9-4.8,4.8-5.4,8.2
		l0,0c0,0.3-0.1,0.7-0.1,1h34.3C325.3,95.4,325.3,95.1,325.2,94.8L325.2,94.8z M358.5,79.3c0,27.3-22.5,49.4-50.4,49.4
		s-50.4-22.1-50.4-49.4s22.5-49.5,50.4-49.5S358.5,52,358.5,79.3L358.5,79.3z M347.6,94.7c0-5.4-4.1-10.2-10.6-12.2
		c4.6-3.2,5.8-9.5,2.6-14.1s-9.5-5.8-14.1-2.6c-4.6,3.2-5.8,9.5-2.6,14.1c0.7,1,1.6,1.9,2.6,2.6c-2,0.6-3.9,1.5-5.5,2.7
		c-1.7-1.1-3.5-1.9-5.4-2.5c-0.1,0-0.1,0-0.1-0.1s0-0.1,0.1-0.1c5.3-3.6,6.6-10.7,3.1-16c-3.6-5.3-10.7-6.6-16-3.1
		c-3.2,2.1-5.1,5.7-5.1,9.6c0,3.8,1.8,7.4,5,9.5c0.1,0,0.1,0.1,0.1,0.1s0,0-0.1,0.1c-1.9,0.6-3.8,1.4-5.5,2.6
		c-1.7-1.2-3.5-2.2-5.5-2.8c4.7-3.2,5.9-9.5,2.8-14.2c-3.2-4.7-9.5-5.9-14.2-2.8c-2.8,1.9-4.5,5.1-4.5,8.5c0,3.4,1.6,6.5,4.4,8.4
		c-6.3,1.9-10.6,6.8-10.6,12.1c0,0.3,0.3,0.6,0.6,0.6l0,0h20.6c0,0.4-0.1,0.7,0,1.1c0,0.3,0.3,0.6,0.6,0.6H326
		c0.3,0,0.6-0.3,0.6-0.6c0-0.4,0-0.7,0-1.1H347C347.3,95.3,347.6,95,347.6,94.7z M428.8,69.4l-0.9-3.9h-12.1l-0.9,3.9l0,0l-2.2,9
		H431L428.8,69.4C428.8,69.4,428.8,69.4,428.8,69.4z M417.6,67.6h8.4c0.3,0,0.6,0.4,0.5,0.7c0,0.3-0.3,0.5-0.5,0.5h-8.5
		c-0.3,0-0.7-0.2-0.7-0.5c0-0.3,0.2-0.7,0.5-0.7C417.4,67.5,417.5,67.5,417.6,67.6L417.6,67.6z M416.8,71.4H427
		c0.3,0,0.7,0.2,0.7,0.5c0,0.3-0.2,0.7-0.5,0.7c-0.1,0-0.1,0-0.2,0h-10.2c-0.3,0-0.7-0.2-0.7-0.5c0-0.3,0.2-0.7,0.5-0.7
		C416.7,71.3,416.8,71.3,416.8,71.4z M428.2,76.5h-12.6c-0.3,0-0.7-0.2-0.7-0.5c0-0.3,0.2-0.7,0.5-0.7c0.1,0,0.1,0,0.2,0h12.6
		c0.3,0,0.6,0.4,0.5,0.7C428.7,76.2,428.5,76.4,428.2,76.5L428.2,76.5z M437.7,103.9h34.6v0.8c0,1.7-1.5,3.1-3.2,3.1h-28.2
		c-1.7,0-3.2-1.4-3.2-3.1V103.9z M414.5,65.5h-1c-0.3,0-0.7-0.2-0.7-0.5c0-0.3,0.2-0.7,0.5-0.7c0.1,0,0.1,0,0.2,0h16.6
		c0.3,0,0.6,0.4,0.5,0.7c0,0.3-0.3,0.5-0.5,0.5h-1l0.7,3.2h7.5c0.6,0,1-0.4,1.1-1V57.5c0-0.6-0.5-1-1.1-1h-8.5V59
		c0,0.8-0.6,1.4-1.4,1.5c0,0,0,0-0.1,0h-10.9c-0.8,0-1.5-0.6-1.5-1.4c0,0,0,0,0-0.1v-2.6h-8.4c-0.6,0-1,0.4-1.1,1v10.2
		c0,0.6,0.5,1,1.1,1h7.3L414.5,65.5z M432.3,57.2h2.5c0.3,0,0.7,0.2,0.7,0.5c0,0.3-0.2,0.7-0.5,0.7c-0.1,0-0.1,0-0.2,0h-2.5
		c-0.3,0-0.7-0.2-0.7-0.5c0-0.3,0.2-0.7,0.5-0.7C432.2,57.2,432.2,57.2,432.3,57.2z M458.6,109l0.6,3.1h-8.3l0.6-3.1H458.6z
		 M437,29.9c-27.8,0-50.4,22.1-50.4,49.4s22.5,49.4,50.4,49.4s50.4-22.1,50.4-49.4S464.8,29.9,437,29.9z M432.3,79.5
		c-0.1,0.2-0.3,0.2-0.5,0.2h-19.9c-0.2,0-0.4-0.1-0.5-0.2c-0.1-0.2-0.2-0.4-0.1-0.5l2.2-9h-7c-1.3,0-2.3-1-2.3-2.3V57.5
		c0-1.3,1.1-2.3,2.3-2.3h8.4v-4.8c0-0.4,0.1-0.7,0.4-1l3.8-3.6c0.3-0.3,0.6-0.4,1-0.5h7.2c0.8,0,1.4,0.6,1.5,1.4c0,0,0,0,0,0.1v8.4
		h8.5c1.3,0,2.3,1,2.3,2.3v10.1c0,1.3-1.1,2.3-2.3,2.3h-7.2l2.2,9C432.5,79.1,432.4,79.3,432.3,79.5L432.3,79.5z M433.5,74
		c0-0.1,0.1-0.2,0.1-0.2L438,71c0.1-0.1,0.3,0,0.4,0.1c0,0,0,0,0,0c0.1,0.1,0.1,0.3-0.1,0.4c0,0,0,0,0,0l-3,1.9h14.1
		c0.3,0,0.6,0.3,0.6,0.6l0,0c0,0.3-0.3,0.6-0.6,0.6h-14l2.9,1.9c0.1,0.1,0.2,0.3,0.1,0.4c-0.1,0.1-0.2,0.1-0.3,0.1
		c-0.1,0-0.1,0-0.2,0l-4.3-2.8C433.6,74.3,433.5,74.1,433.5,74z M434.5,78.3c0-0.3,0.3-0.6,0.6-0.6l0,0h14.2l-2.9-1.9
		c-0.1-0.1-0.2-0.3-0.1-0.4c0.1-0.1,0.3-0.2,0.4-0.1l4.3,2.8c0.1,0.1,0.1,0.1,0.1,0.2c0,0.1-0.1,0.2-0.1,0.3l-4.3,2.8
		c-0.1,0-0.1,0-0.2,0c-0.1,0-0.2-0.1-0.2-0.1c-0.1-0.1,0-0.3,0.1-0.4l3-1.8h-14.2C434.8,79,434.5,78.7,434.5,78.3
		C434.5,78.4,434.5,78.4,434.5,78.3L434.5,78.3z M469.1,109h-9.3l0.6,3.1h2.6c0.3,0,0.6,0.4,0.5,0.7c0,0.3-0.3,0.5-0.5,0.5h-16
		c-0.3,0-0.6-0.4-0.5-0.7c0-0.3,0.3-0.5,0.5-0.5h2.5l0.6-3.1h-9.3c-2.4,0-4.4-1.9-4.5-4.3V86.5c0-2.4,2-4.4,4.5-4.3h28.2
		c2.4,0,4.4,1.9,4.5,4.3v18.2C473.5,107.1,471.5,109,469.1,109z M472.3,86.5v16.2h-34.6V86.5c0-1.7,1.5-3.1,3.2-3.1h28.2
		C470.8,83.3,472.3,84.7,472.3,86.5L472.3,86.5z M416.1,59v-8.6c0,0,0-0.1,0-0.1l3.8-3.6l0.1-0.1h7.2c0.2,0,0.2,0.2,0.2,0.2V59
		c0,0,0,0.2-0.2,0.2h-10.9C416.1,59.2,416.1,59,416.1,59z"/>
	<path class="st2" d="M113,6.6v9h1.4V9.5l5.4-8.5h-3.4L113,6.6z M112.6,6.6v9h-1.4V9.5l-5.4-8.5h3.4L112.6,6.6z M110.8,2.1
		c0-1.1,0.9-2,2-2s2,0.9,2,2s-0.9,2-2,2S110.8,3.2,110.8,2.1 M143.2,15.9c-4.5,0-6.2-2.2-6.2-5.8V1.1h3.2v9.2c0,2.2,1.2,3.1,3,3.1
		c1.5,0.1,2.9-1,3-2.5c0-0.2,0-0.4,0-0.6V1.1h3.2v9C149.3,13.6,147.6,15.8,143.2,15.9 M130.9,8.4c0-3.6-1.4-5.2-3.7-5.2
		s-3.7,1.5-3.7,5.2s1.5,5,3.7,5C129.5,13.4,130.9,12,130.9,8.4 M120.1,8.4c0-4.7,2.8-7.6,7.1-7.6s7.1,2.9,7.1,7.5s-2.7,7.5-7.1,7.5
		S120.1,13.1,120.1,8.4 M159.4,15.4c-1.9,0.1-3.7-0.6-5-1.9l1.4-1.5c1,1,2.3,1.5,3.7,1.4c1.9,0,2.9-0.8,2.9-2.2
		c0-0.6-0.2-1.1-0.6-1.5c-0.4-0.4-1-0.6-1.6-0.6l-1.7-0.2c-1-0.1-1.9-0.5-2.7-1.1C155.2,7,154.8,6,154.9,5c0-2.5,1.8-4.2,4.8-4.2
		c1.6-0.1,3.2,0.5,4.4,1.6l-1.4,1.4c-0.9-0.8-2-1.2-3.1-1.1c-1.7,0-2.6,0.9-2.6,2.2c0,0.5,0.2,1,0.5,1.3c0.4,0.4,1,0.6,1.6,0.7
		l1.7,0.3c1,0.1,1.9,0.4,2.6,1.1c0.8,0.8,1.2,1.8,1.2,2.9C164.6,13.8,162.4,15.3,159.4,15.4L159.4,15.4z M170.3,17.2
		c-0.1,0.5-0.4,0.9-0.7,1.3c-0.6,0.5-1.3,0.8-2.1,0.7h-0.8v-1.9h0.5c0.9,0,1.2-0.3,1.5-1.1l0.6-1.6l-3.5-9.7h2.2l2.4,7.1l2.4-7.2
		h2.2L170.3,17.2z M179.6,15.4c-1.6,0.1-3.1-0.4-4.3-1.5l1.3-1.3c0.8,0.7,1.8,1.1,2.9,1.1c1.3,0,2.2-0.4,2.2-1.4
		c0-0.7-0.4-1.1-1.4-1.2l-1.6-0.1c-1.9-0.2-3-1-3-2.8c0-2,1.7-3.1,3.8-3.1c1.4-0.1,2.7,0.3,3.8,1.1l-1.3,1.3
		c-0.7-0.5-1.6-0.8-2.5-0.7c-1.2,0-1.8,0.5-1.8,1.3s0.4,1.1,1.4,1.2l1.4,0.1c2.1,0.2,3.2,1.1,3.2,2.9
		C183.8,14.2,182,15.3,179.6,15.4L179.6,15.4z M189.1,15.2c-1.5,0.1-2.7-1-2.8-2.5c0-0.1,0-0.2,0-0.3V6.6h-1.2V5.1h1.2V2.2h2v2.9h2
		v1.6h-2v5.7c-0.1,0.5,0.3,1.1,0.8,1.2c0.1,0,0.2,0,0.3,0h0.8v1.7L189.1,15.2z M194.3,10.8c0,1.8,0.9,2.8,2.6,2.8
		c0.9,0.1,1.8-0.3,2.5-1l1.3,1.2c-1,1.1-2.4,1.7-3.8,1.6c-2.5,0-4.6-1.3-4.6-5.2c0-3.3,1.7-5.2,4.3-5.2s4.3,2,4.3,4.9v0.9
		L194.3,10.8z M198.6,7.9c-0.5-1.1-1.9-1.6-3-1c-0.5,0.2-0.8,0.6-1,1c-0.2,0.4-0.3,0.9-0.3,1.4h4.6C198.9,8.8,198.8,8.4,198.6,7.9
		L198.6,7.9z M216,15.2V9c0.1-1.1-0.6-2.1-1.7-2.2c-0.1,0-0.2,0-0.3,0c-1.1-0.1-2,0.8-2.1,1.9c0,0.1,0,0.2,0,0.3v6.3h-2V9
		c0.1-1.1-0.6-2.1-1.7-2.2c-0.1,0-0.2,0-0.3,0c-1.1-0.1-2.1,0.6-2.3,1.7c0,0.2,0,0.4,0,0.5v6.2h-2V5.1h2v1c0.7-0.7,1.7-1.1,2.7-1.1
		c1.2-0.1,2.3,0.5,2.9,1.5c0.8-1,1.9-1.5,3.2-1.5c0.9,0,1.9,0.3,2.6,0.9c0.7,0.7,1.1,1.8,1.1,2.8v6.5L216,15.2z M237.8,15.2H236
		l-2.9-10l-2.9,10h-1.9L224.6,1h2.3l2.5,10.2L232.2,1h1.7l2.9,10.2L239.2,1h2.3L237.8,15.2z M244.1,10.7c0,1.8,0.9,2.8,2.6,2.8
		c0.9,0.1,1.8-0.3,2.5-1l1.3,1.2c-1,1.1-2.4,1.7-3.8,1.6c-2.5,0-4.6-1.3-4.6-5.2c0-3.3,1.7-5.2,4.3-5.2s4.3,2,4.3,4.9v0.9
		L244.1,10.7z M248.4,7.9c-0.5-1.1-1.9-1.6-3-1c-0.5,0.2-0.8,0.6-1,1c-0.2,0.4-0.3,0.9-0.3,1.4h4.6C248.7,8.8,248.6,8.4,248.4,7.9
		L248.4,7.9z M260.6,14.4c-0.7,0.6-1.6,0.9-2.5,0.9c-1,0.1-2-0.4-2.7-1.2v1.1h-2V1h2v5.1c0.7-0.8,1.7-1.2,2.7-1.1
		c0.9,0,1.8,0.3,2.5,0.9c1,1,1.1,2.6,1.1,4.3S261.5,13.4,260.6,14.4L260.6,14.4z M257.6,6.8c-1.9,0-2.1,1.6-2.1,3.4s0.3,3.4,2.1,3.4
		c1.9,0,2.1-1.6,2.1-3.4S259.4,6.8,257.6,6.8L257.6,6.8z M277.7,15.2l-1-2.9h-5.6l-1,2.9h-2.3L273,1h1.7l5.3,14.2L277.7,15.2z
		 M273.9,4.2l-2.2,6.3h4.4L273.9,4.2z M288.9,14.5c-0.7,0.6-1.6,0.9-2.5,0.9c-1,0.1-2-0.4-2.7-1.2v5.1h-2V5.1h2v1.1
		c0.6-0.8,1.6-1.2,2.6-1.2c0.9,0,1.8,0.3,2.5,0.9c1,1,1.1,2.6,1.1,4.3S289.9,13.4,288.9,14.5L288.9,14.5z M285.9,6.8
		c-1.9,0-2.1,1.6-2.1,3.4s0.3,3.4,2.1,3.4s2.1-1.6,2.1-3.4S287.7,6.8,285.9,6.8L285.9,6.8z M300,14.4c-0.7,0.6-1.6,0.9-2.5,0.9
		c-1,0.1-2-0.4-2.7-1.2v5.1h-2V5.1h2v1.1c0.6-0.8,1.6-1.2,2.6-1.2c0.9,0,1.8,0.3,2.5,0.9c1,1,1.1,2.6,1.1,4.3S300.9,13.4,300,14.4z
		 M297,6.8c-1.9,0-2.1,1.6-2.1,3.4s0.3,3.4,2.1,3.4s2.1-1.6,2.1-3.4S298.8,6.8,297,6.8z M306.6,15.2c-1.4,0.1-2.7-0.9-2.8-2.4
		c0-0.1,0-0.3,0-0.4V1h2v11.3c0,0.8,0.3,1.2,1.1,1.2h0.9v1.7H306.6z M310,3.1V0.9h2.2v2.2H310z M310.1,15.2V5.1h2v10.1L310.1,15.2z
		 M319.3,15.3c-2.3,0-4.5-1.4-4.5-5.2s2.2-5.1,4.5-5.1c1.3-0.1,2.5,0.5,3.3,1.4l-1.4,1.4c-0.4-0.6-1.2-1-1.9-1
		c-0.7,0-1.4,0.3-1.9,0.9c-0.5,0.7-0.7,1.6-0.6,2.5c-0.1,0.9,0.1,1.7,0.6,2.5c0.4,0.6,1.1,0.9,1.9,0.9c0.8,0,1.5-0.4,1.9-1l1.4,1.3
		C321.9,14.8,320.6,15.4,319.3,15.3L319.3,15.3z M330.4,15.2v-0.9c-0.7,0.7-1.7,1.1-2.7,1c-1,0.1-2-0.2-2.7-0.9
		c-0.5-0.6-0.8-1.4-0.8-2.2c0-1.7,1.2-2.9,3.5-2.9h2.7V8.6c0-1.3-0.6-1.9-2.2-1.9c-0.9-0.1-1.7,0.3-2.2,1l-1.3-1.3
		c0.9-1.1,2.3-1.6,3.6-1.4c2.8,0,4.2,1.2,4.2,3.5v6.8L330.4,15.2z M330.4,10.7H328c-1.2,0-1.9,0.5-1.9,1.5s0.6,1.4,1.9,1.4
		c0.7,0.1,1.3-0.1,1.8-0.6c0.3-0.4,0.5-1,0.4-1.5L330.4,10.7z M338.6,15.2c-1.5,0.1-2.7-1-2.8-2.5c0-0.1,0-0.2,0-0.3V6.6h-1.2V5.1
		h1.2V2.2h2v2.9h2v1.6h-2v5.7c-0.1,0.5,0.2,1.1,0.8,1.2c0.1,0,0.3,0,0.4,0h0.8v1.7L338.6,15.2z M342.4,3.1V0.9h2.2v2.2L342.4,3.1z
		 M342.4,15.2V5.1h2v10.1L342.4,15.2z M354.5,14.1c-0.8,0.8-1.9,1.2-3,1.2c-1.1,0-2.2-0.4-3-1.2c-1-1-1.2-2.3-1.2-4
		c-0.2-1.4,0.3-2.9,1.2-4c0.8-0.8,1.9-1.2,3-1.2c1.1,0,2.2,0.4,3,1.2c0.9,1.1,1.4,2.6,1.2,4C355.6,11.9,355.4,13.1,354.5,14.1
		L354.5,14.1z M352.9,7.3c-0.4-0.4-0.9-0.6-1.5-0.6c-0.6,0-1.1,0.2-1.5,0.6c-0.6,0.8-0.8,1.8-0.7,2.8c-0.1,1,0.1,2,0.7,2.8
		c0.4,0.4,0.9,0.6,1.5,0.6c0.6,0,1.1-0.2,1.5-0.6c0.6-0.8,0.8-1.8,0.7-2.8C353.8,9.1,353.5,8.2,352.9,7.3L352.9,7.3z M364.6,15.2V9
		c0.1-1.1-0.6-2.1-1.7-2.2c-0.1,0-0.2,0-0.3,0c-1.1-0.1-2.1,0.7-2.2,1.8c0,0.2,0,0.3,0,0.5v6.2h-2V5.1h2v1c0.7-0.7,1.7-1.1,2.7-1.1
		c0.9,0,1.8,0.3,2.5,0.9c0.7,0.8,1.1,1.8,1,2.9v6.5L364.6,15.2z M132.4,145.9c-0.4,0.3-0.8,0.5-1.3,0.5c-0.6,0-1.1-0.2-1.5-0.6
		c-0.6-0.6-0.6-1.4-0.6-3.7s0.1-3.1,0.6-3.8c0.4-0.4,0.9-0.6,1.5-0.6c0.5,0,1,0.2,1.4,0.5c0.4,0.5,0.6,1.1,0.6,1.7h-1
		c0-0.4-0.1-0.7-0.3-1c-0.3-0.4-0.9-0.4-1.3-0.1c0,0-0.1,0.1-0.1,0.1c-0.3,0.4-0.4,1.1-0.4,3.1s0,2.7,0.4,3.1
		c0.3,0.4,0.9,0.4,1.3,0.1c0,0,0.1-0.1,0.1-0.1c0.2-0.3,0.3-0.6,0.3-1h1C133.1,144.8,132.9,145.4,132.4,145.9z M136.4,146.3v-0.6
		c-0.1,0.2-0.2,0.3-0.4,0.4c-0.2,0.2-0.5,0.2-0.7,0.2c-0.4,0-0.8-0.2-1.1-0.5c-0.3-0.4-0.4-0.9-0.4-1.4c0-0.5,0.2-1,0.6-1.4
		c0.4-0.3,0.8-0.5,1.3-0.4h0.6v-1c0-0.6-0.2-0.9-0.7-0.9c-0.2,0-0.4,0.1-0.5,0.2c-0.2,0.2-0.3,0.5-0.2,0.7h-1c0-0.5,0.1-1,0.5-1.3
		c0.3-0.3,0.8-0.5,1.2-0.4c0.4,0,0.9,0.1,1.2,0.4c0.3,0.4,0.5,0.9,0.5,1.4v4.5L136.4,146.3z M136.4,143.4h-0.6
		c-0.3,0-0.5,0.1-0.7,0.2c-0.2,0.2-0.3,0.5-0.3,0.9c0,0.6,0.2,1,0.8,1s0.8-0.4,0.8-1V143.4z M141.1,146.3v-4.6
		c0-0.6-0.3-0.9-0.7-0.9s-0.7,0.3-0.7,0.9v4.6h-1v-6.2h0.9v0.5c0.1-0.2,0.2-0.3,0.4-0.4c0.2-0.1,0.4-0.2,0.7-0.2
		c0.4,0,0.8,0.2,1,0.4c0.3,0.4,0.4,0.8,0.4,1.3v4.6L141.1,146.3z M148.1,146.3v-0.5c-0.2,0.3-0.6,0.6-1,0.6c-0.4,0-0.8-0.1-1.1-0.4
		c-0.3-0.4-0.4-0.8-0.4-1.3v-4.6h1v4.6c0,0.6,0.3,0.9,0.8,0.9s0.7-0.3,0.7-0.9v-4.6h1v6.2L148.1,146.3z M153.1,145.9
		c-0.3,0.3-0.8,0.5-1.3,0.5c-0.5,0-0.9-0.2-1.2-0.5c-0.4-0.4-0.5-0.9-0.5-1.4h1c0,0.3,0.1,0.5,0.3,0.8c0.1,0.1,0.3,0.2,0.6,0.2
		c0.2,0,0.4-0.1,0.6-0.2c0.2-0.2,0.2-0.4,0.2-0.6c0-0.2-0.1-0.4-0.2-0.6c-0.1-0.2-0.3-0.3-0.6-0.4l-0.8-0.4
		c-0.3-0.2-0.6-0.4-0.9-0.7c-0.1-0.2-0.2-0.5-0.2-0.8c0-0.5,0.2-0.9,0.5-1.3c0.7-0.6,1.7-0.6,2.4,0c0.4,0.4,0.5,0.9,0.5,1.4h-1
		c0-0.3-0.1-0.5-0.2-0.7c-0.1-0.1-0.3-0.2-0.5-0.2c-0.2,0-0.4,0.1-0.5,0.2c-0.1,0.2-0.2,0.4-0.2,0.6c0,0.2,0,0.3,0.1,0.5
		c0.1,0.2,0.3,0.3,0.5,0.4l0.8,0.4c0.4,0.1,0.7,0.4,0.9,0.7c0.2,0.3,0.3,0.6,0.3,1C153.7,145.1,153.5,145.6,153.1,145.9L153.1,145.9
		z M155.5,143.4c-0.1,0.6,0,1.3,0.2,1.8c0.1,0.2,0.3,0.3,0.6,0.3c0.2,0,0.4-0.1,0.6-0.2c0.2-0.2,0.2-0.5,0.2-0.7h1
		c0,0.5-0.2,1-0.5,1.4c-0.3,0.3-0.8,0.5-1.2,0.4c-0.5,0-0.9-0.1-1.2-0.5c-0.5-0.5-0.6-1.4-0.6-2.7s0.1-2.2,0.5-2.7
		c0.3-0.3,0.8-0.5,1.2-0.5c0.5,0,0.9,0.1,1.2,0.5c0.5,0.5,0.6,1.4,0.6,2.9H155.5z M156.8,141.1c-0.1-0.2-0.3-0.3-0.6-0.2
		c-0.2,0-0.4,0.1-0.5,0.2c-0.2,0.2-0.2,0.7-0.2,1.6h1.6C157.1,141.8,157.1,141.3,156.8,141.1L156.8,141.1z M163.7,146.3v-0.6
		c-0.1,0.2-0.2,0.3-0.4,0.4c-0.2,0.2-0.5,0.2-0.7,0.2c-0.4,0-0.8-0.2-1.1-0.5c-0.3-0.4-0.4-0.9-0.4-1.4c0-0.5,0.2-1,0.6-1.4
		c0.4-0.3,0.8-0.5,1.3-0.4h0.6v-1c0-0.6-0.2-0.9-0.7-0.9c-0.2,0-0.4,0.1-0.5,0.2c-0.2,0.2-0.3,0.5-0.2,0.7h-1c0-0.5,0.1-1,0.5-1.3
		c0.3-0.3,0.8-0.5,1.2-0.4c0.4,0,0.9,0.1,1.2,0.4c0.3,0.4,0.5,0.9,0.5,1.4v4.5L163.7,146.3z M163.6,143.4h-0.6
		c-0.3,0-0.5,0.1-0.7,0.2c-0.2,0.2-0.3,0.5-0.3,0.9c0,0.6,0.2,1,0.8,1s0.8-0.4,0.8-1V143.4z M171,146c-0.3,0.3-0.8,0.5-1.2,0.4
		c-0.5,0-1-0.2-1.3-0.6c-0.6-1.7-0.6-3.6,0-5.3c0.3-0.4,0.8-0.6,1.3-0.6c0.4,0,0.9,0.1,1.2,0.4c0.3,0.4,0.5,0.9,0.5,1.4h-1
		c0-0.3,0-0.5-0.2-0.7c-0.1-0.2-0.3-0.2-0.5-0.2c-0.2,0-0.4,0.1-0.6,0.3c-0.2,0.3-0.2,0.9-0.2,2.1c-0.1,0.7,0,1.4,0.2,2.1
		c0.1,0.2,0.3,0.3,0.6,0.3c0.2,0,0.4-0.1,0.5-0.2c0.2-0.2,0.2-0.5,0.2-0.7h1C171.5,145.1,171.3,145.6,171,146z M175,146.3v-0.5
		c-0.1,0.2-0.2,0.3-0.4,0.4c-0.2,0.1-0.4,0.2-0.7,0.2c-0.4,0-0.8-0.2-1-0.4c-0.3-0.4-0.4-0.8-0.4-1.3v-4.6h1v4.6
		c0,0.6,0.3,0.9,0.7,0.9s0.7-0.3,0.7-0.9v-4.6h1v6.2L175,146.3z M179.4,141c-0.6,0-1.1,0.4-1.1,1c0,0,0,0.1,0,0.1v4.2h-1v-6.2h0.9
		v0.7c0.1-0.2,0.3-0.3,0.4-0.4c0.3-0.2,0.6-0.3,1-0.3v0.9H179.4z M182.7,141c-0.6,0-1.1,0.4-1.1,1c0,0,0,0.1,0,0.1v4.2h-1v-6.2h0.9
		v0.7c0.1-0.2,0.3-0.3,0.4-0.4c0.3-0.2,0.6-0.3,1-0.3v0.9H182.7z M184.6,143.5c-0.1,0.6,0,1.3,0.2,1.8c0.1,0.2,0.3,0.3,0.6,0.3
		c0.2,0,0.4-0.1,0.6-0.2c0.2-0.2,0.2-0.5,0.2-0.7h1c0,0.5-0.2,1-0.5,1.4c-0.3,0.3-0.8,0.5-1.2,0.4c-0.5,0-0.9-0.1-1.2-0.5
		c-0.5-0.5-0.6-1.4-0.6-2.7s0.1-2.2,0.5-2.7c0.7-0.6,1.8-0.6,2.4,0c0.5,0.5,0.6,1.4,0.6,2.9H184.6z M185.9,141.1
		c-0.1-0.2-0.3-0.3-0.6-0.2c-0.2,0-0.4,0.1-0.5,0.2c-0.2,0.2-0.2,0.7-0.2,1.6h1.6C186.1,141.8,186.1,141.3,185.9,141.1L185.9,141.1z
		 M190.7,146.3v-4.6c0-0.6-0.3-0.9-0.7-0.9s-0.7,0.3-0.7,0.9v4.6h-1v-6.2h0.9v0.5c0.1-0.2,0.2-0.3,0.4-0.4c0.6-0.3,1.3-0.2,1.7,0.3
		c0.3,0.4,0.4,0.8,0.4,1.3v4.6L190.7,146.3z M193.7,145.9c-0.4-0.4-0.6-0.9-0.5-1.4v-3.7h-0.7v-0.8h0.7v-1.7h1v1.7h1v0.8h-1v3.6
		c0,0.6,0.4,0.9,1,0.9v0.9C194.7,146.4,194.1,146.2,193.7,145.9L193.7,145.9z M198.8,145.9c-0.4-0.4-0.6-0.9-0.6-1.4v-6.8h1v6.7
		c-0.1,0.4,0.2,0.9,0.7,0.9c0.1,0,0.2,0,0.2,0v0.9C199.7,146.4,199.2,146.2,198.8,145.9L198.8,145.9z M204,145.9
		c-0.3,0.4-0.8,0.6-1.3,0.6c-0.5,0-1-0.2-1.3-0.6c-0.6-1.7-0.6-3.6,0-5.3c0.3-0.4,0.8-0.6,1.3-0.6c0.5,0,1,0.2,1.3,0.6
		C204.6,142.3,204.6,144.2,204,145.9z M203.2,141.2c-0.1-0.2-0.3-0.3-0.6-0.3c-0.2,0-0.4,0.1-0.5,0.3c-0.3,1.4-0.3,2.8,0,4.1
		c0.1,0.2,0.3,0.3,0.5,0.3c0.2,0,0.4-0.1,0.6-0.3C203.5,143.9,203.5,142.5,203.2,141.2z M208.4,146c-0.3,0.3-0.8,0.5-1.2,0.4
		c-0.5,0-1-0.2-1.3-0.6c-0.6-1.7-0.6-3.6,0-5.3c0.3-0.4,0.8-0.6,1.3-0.6c0.4,0,0.9,0.1,1.2,0.4c0.3,0.4,0.5,0.9,0.5,1.4h-1
		c0-0.3,0-0.5-0.2-0.7c-0.1-0.2-0.3-0.2-0.5-0.2c-0.2,0-0.4,0.1-0.6,0.3c-0.2,0.3-0.2,0.9-0.2,2.1c-0.1,0.7,0,1.4,0.2,2.1
		c0.1,0.2,0.3,0.3,0.6,0.3c0.2,0,0.4-0.1,0.5-0.2c0.2-0.2,0.2-0.5,0.2-0.7h1C208.9,145.1,208.7,145.6,208.4,146L208.4,146z
		 M212.2,146.3v-0.6c-0.1,0.2-0.2,0.3-0.4,0.4c-0.2,0.2-0.5,0.2-0.7,0.2c-0.4,0-0.8-0.2-1.1-0.5c-0.3-0.4-0.4-0.9-0.4-1.4
		c0-0.5,0.2-1,0.6-1.4c0.4-0.3,0.8-0.5,1.3-0.4h0.6v-1c0-0.6-0.2-0.9-0.7-0.9c-0.2,0-0.4,0.1-0.5,0.2c-0.2,0.2-0.3,0.5-0.2,0.7h-1
		c-0.1-0.9,0.6-1.7,1.4-1.8c0.1,0,0.2,0,0.2,0c0.4,0,0.9,0.1,1.2,0.4c0.3,0.4,0.5,0.9,0.5,1.4v4.5L212.2,146.3z M212.2,143.5h-0.6
		c-0.3,0-0.5,0.1-0.7,0.2c-0.2,0.2-0.3,0.5-0.3,0.9c0,0.6,0.2,1,0.8,1s0.8-0.4,0.8-1V143.5z M215.3,145.9c-0.4-0.4-0.6-0.9-0.5-1.4
		v-3.7H214v-0.8h0.7v-1.7h1v1.7h1v0.8h-1v3.6c0,0.6,0.4,0.9,1,0.9v0.9C216.2,146.4,215.6,146.3,215.3,145.9L215.3,145.9z M217.5,139
		v-1.1h1.1v1.1L217.5,139z M217.6,146.3v-6.2h1v6.2H217.6z M222.8,145.9c-0.7,0.7-1.8,0.8-2.5,0.1c0,0-0.1-0.1-0.1-0.1
		c-0.6-1.7-0.6-3.6,0-5.3c0.7-0.7,1.8-0.8,2.5-0.1c0,0,0.1,0.1,0.1,0.1C223.4,142.3,223.4,144.2,222.8,145.9z M222.1,141.2
		c-0.1-0.2-0.3-0.3-0.6-0.3c-0.2,0-0.4,0.1-0.5,0.3c-0.3,1.4-0.3,2.8,0,4.1c0.1,0.2,0.3,0.3,0.5,0.3c0.2,0,0.4-0.1,0.6-0.3
		C222.4,143.9,222.4,142.5,222.1,141.2z M226.9,146.3v-4.6c0.1-0.4-0.2-0.8-0.6-0.8c0,0-0.1,0-0.1,0c-0.4,0-0.7,0.3-0.7,0.9v4.6h-1
		v-6.2h0.9v0.5c0.2-0.4,0.6-0.6,1.1-0.6c0.4,0,0.8,0.1,1.1,0.4c0.3,0.4,0.4,0.8,0.4,1.3v4.6L226.9,146.3z M142.6,160.3
		c-0.7,0.7-1.8,0.8-2.5,0.1c0,0-0.1-0.1-0.1-0.1c-0.6-1.7-0.6-3.6,0-5.3c0.7-0.7,1.8-0.8,2.5-0.1c0,0,0.1,0.1,0.1,0.1
		C143.2,156.7,143.2,158.6,142.6,160.3z M141.9,155.6c-0.1-0.2-0.3-0.3-0.6-0.3c-0.2,0-0.4,0.1-0.5,0.3c-0.3,1.4-0.3,2.8,0,4.1
		c0.1,0.2,0.3,0.3,0.5,0.3c0.2,0,0.4-0.1,0.6-0.3C142.2,158.3,142.2,156.9,141.9,155.6z M146.4,155.4c-0.6,0-1.1,0.4-1.1,1
		c0,0,0,0.1,0,0.1v4.2h-1v-6.2h0.9v0.7c0.1-0.2,0.3-0.3,0.4-0.4c0.3-0.2,0.6-0.3,1-0.3v0.9H146.4z M151,155.3v5.5h-1v-5.5h-0.7v-0.8
		h0.7v-0.6c0-0.5,0.2-1,0.5-1.4c0.4-0.3,0.9-0.4,1.4-0.4v0.9c-0.5-0.1-0.9,0.2-1,0.7c0,0.1,0,0.2,0,0.3v0.6h1v0.8L151,155.3z
		 M152.7,153.4v-1.1h1.1v1.1H152.7z M152.8,160.7v-6.2h1v6.2H152.8z M157.6,160.7v-4.6c0-0.6-0.3-0.9-0.7-0.9s-0.7,0.3-0.7,0.9v4.6
		h-1v-6.2h0.9v0.5c0.1-0.2,0.2-0.3,0.4-0.4c0.2-0.1,0.4-0.2,0.7-0.2c0.4,0,0.8,0.1,1.1,0.4c0.3,0.4,0.4,0.8,0.4,1.3v4.6L157.6,160.7
		z M162.2,160.7v-0.5c-0.1,0.2-0.2,0.3-0.4,0.4c-0.2,0.1-0.4,0.2-0.7,0.2c-0.4,0-0.8-0.2-1-0.5c-0.4-0.4-0.5-1.3-0.5-2.7
		s0.1-2.3,0.5-2.8c0.2-0.3,0.6-0.5,1-0.4c0.2,0,0.5,0.1,0.7,0.2c0.1,0.1,0.3,0.2,0.4,0.3v-2.8h1v8.5H162.2z M162.2,156.2
		c0-0.3-0.1-0.5-0.2-0.7c-0.1-0.1-0.3-0.2-0.5-0.2c-0.2,0-0.4,0.1-0.5,0.2c-0.2,0.3-0.2,0.8-0.2,2.1s0,1.8,0.2,2.1
		c0.1,0.2,0.3,0.3,0.5,0.3c0.2,0,0.4-0.1,0.5-0.2c0.2-0.2,0.3-0.5,0.2-0.7V156.2z M170.1,160.9c0.1,0.6-0.1,1.3-0.5,1.7
		c-0.3,0.3-0.8,0.5-1.2,0.5c-0.9,0.1-1.6-0.6-1.7-1.5c0-0.1,0-0.2,0-0.3h1c0,0.3,0,0.5,0.2,0.7c0.1,0.1,0.3,0.2,0.5,0.2
		c0.2,0,0.4-0.1,0.5-0.2c0.2-0.3,0.3-0.7,0.2-1.1v-1c-0.1,0.1-0.2,0.3-0.4,0.4c-0.2,0.1-0.4,0.2-0.6,0.2c-0.4,0-0.8-0.2-1-0.4
		c-0.4-0.4-0.5-1.1-0.5-2.6s0.1-2.1,0.5-2.6c0.3-0.3,0.6-0.5,1-0.4c0.2,0,0.5,0.1,0.7,0.2c0.1,0.1,0.3,0.2,0.4,0.3v-0.4h0.9
		L170.1,160.9z M169.1,156.2c0-0.3-0.1-0.5-0.2-0.7c-0.1-0.1-0.3-0.2-0.5-0.2c-0.2,0-0.4,0.1-0.5,0.2c-0.2,0.3-0.3,0.8-0.3,1.9
		s0,1.7,0.3,1.9c0.1,0.2,0.3,0.2,0.5,0.2c0.2,0,0.4-0.1,0.5-0.2c0.2-0.2,0.3-0.5,0.2-0.7V156.2z M173.5,155.4c-0.6,0-1.1,0.4-1.1,1
		c0,0,0,0.1,0,0.1v4.2h-1v-6.2h0.9v0.7c0.1-0.2,0.3-0.3,0.4-0.4c0.3-0.2,0.6-0.3,1-0.3v0.9H173.5z M177.5,160.3
		c-0.3,0.4-0.8,0.6-1.3,0.6c-0.5,0-1-0.2-1.3-0.6c-0.6-1.7-0.6-3.6,0-5.3c0.3-0.4,0.8-0.6,1.3-0.6c0.5,0,1,0.2,1.3,0.6
		C178.1,156.7,178.1,158.6,177.5,160.3z M176.7,155.6c-0.2-0.3-0.7-0.4-1-0.1c0,0-0.1,0.1-0.1,0.1c-0.3,1.4-0.3,2.8,0,4.1
		c0.2,0.3,0.7,0.4,1,0.1c0,0,0.1-0.1,0.1-0.1C177.1,158.3,177.1,156.9,176.7,155.6z M181.6,160.7v-0.5c-0.1,0.2-0.2,0.3-0.4,0.4
		c-0.2,0.1-0.4,0.2-0.7,0.2c-0.4,0-0.8-0.1-1.1-0.4c-0.3-0.4-0.4-0.8-0.4-1.3v-4.6h1v4.6c0,0.6,0.3,0.9,0.7,0.9s0.7-0.3,0.7-0.9
		v-4.6h1v6.2L181.6,160.7z M186.9,160.4c-0.2,0.3-0.6,0.5-1,0.5c-0.2,0-0.5-0.1-0.7-0.2c-0.1-0.1-0.3-0.2-0.3-0.4v2.7h-1v-8.5h0.9
		v0.5c0.1-0.2,0.2-0.3,0.4-0.4c0.2-0.1,0.4-0.2,0.7-0.2c0.4,0,0.8,0.2,1,0.4c0.4,0.5,0.4,1.3,0.4,2.8S187.2,159.9,186.9,160.4
		L186.9,160.4z M186.1,155.6c-0.1-0.2-0.3-0.3-0.5-0.2c-0.2,0-0.4,0.1-0.5,0.2c-0.2,0.2-0.2,0.5-0.2,0.7v2.8c0,0.3,0.1,0.5,0.2,0.7
		c0.1,0.1,0.3,0.2,0.5,0.2c0.2,0,0.4-0.1,0.5-0.3c0.2-0.3,0.2-0.8,0.2-2.1S186.3,155.8,186.1,155.6L186.1,155.6z M191.2,160.3
		c-0.3,0.3-0.8,0.5-1.3,0.5c-0.5,0-0.9-0.2-1.2-0.5c-0.4-0.4-0.6-0.9-0.5-1.4h1c0,0.3,0.1,0.6,0.3,0.8c0.1,0.1,0.3,0.2,0.6,0.2
		c0.2,0,0.4-0.1,0.6-0.2c0.2-0.2,0.2-0.4,0.2-0.6c0-0.2-0.1-0.4-0.2-0.6c-0.1-0.2-0.3-0.3-0.6-0.4l-0.8-0.4
		c-0.3-0.2-0.6-0.4-0.9-0.7c-0.1-0.3-0.2-0.5-0.2-0.8c0-0.9,0.7-1.7,1.6-1.7c0,0,0.1,0,0.1,0c0.4,0,0.9,0.1,1.2,0.4
		c0.4,0.4,0.5,0.9,0.5,1.4h-1c0-0.3-0.1-0.5-0.2-0.8c-0.3-0.3-0.8-0.3-1.1,0c-0.2,0.2-0.2,0.4-0.2,0.6c0,0.2,0,0.3,0.1,0.5
		c0.1,0.2,0.3,0.3,0.5,0.4l0.8,0.4c0.4,0.1,0.7,0.4,0.9,0.7C191.9,158.8,191.8,159.7,191.2,160.3L191.2,160.3z M199.3,160.7h-1
		l-0.8-4.6l-0.8,4.6h-1l-1.3-6.2h1.1l0.7,4.7l0.8-4.7h0.9l0.9,4.7l0.7-4.7h1.1L199.3,160.7z M201.3,153.4v-1.1h1.1v1.1H201.3z
		 M201.4,160.7v-6.2h1v6.2H201.4z M204.5,160.3c-0.4-0.4-0.6-0.9-0.5-1.4v-3.7h-0.7v-0.8h0.7v-1.7h1v1.7h1v0.8h-1v3.6
		c0,0.6,0.4,0.9,1,0.9v0.9c-0.6,0.1-1.1-0.1-1.6-0.4L204.5,160.3z M209.3,160.7v-4.6c0-0.6-0.3-0.9-0.8-0.9s-0.7,0.3-0.7,0.9v4.6h-1
		v-8.5h1v2.8c0.1-0.1,0.2-0.3,0.4-0.4c0.2-0.1,0.4-0.2,0.7-0.2c0.4,0,0.8,0.1,1.1,0.4c0.3,0.4,0.4,0.8,0.4,1.3v4.6H209.3z
		 M211.5,153.4v-1.1h1.1v1.1H211.5z M211.6,160.7v-6.2h1v6.2H211.6z M216.4,160.7v-4.6c0.1-0.4-0.2-0.8-0.7-0.9c0,0-0.1,0-0.1,0
		c-0.4,0-0.7,0.3-0.7,0.9v4.6h-1v-6.2h0.9v0.5c0.2-0.4,0.6-0.6,1.1-0.6c0.4,0,0.8,0.1,1.1,0.4c0.3,0.4,0.4,0.8,0.4,1.3v4.6H216.4z
		 M157.2,175.1v-0.6c-0.1,0.2-0.2,0.3-0.4,0.4c-0.2,0.2-0.5,0.2-0.7,0.2c-0.4,0-0.8-0.2-1.1-0.5c-0.3-0.4-0.4-0.9-0.4-1.4
		c0-0.5,0.2-1,0.6-1.4c0.4-0.3,0.8-0.5,1.3-0.4h0.5v-1c0-0.6-0.2-0.9-0.7-0.9c-0.2,0-0.4,0.1-0.5,0.2c-0.2,0.2-0.3,0.5-0.2,0.7h-1
		c0-0.5,0.1-1,0.5-1.3c0.3-0.3,0.8-0.5,1.2-0.4c0.4,0,0.9,0.1,1.2,0.4c0.3,0.4,0.5,0.9,0.5,1.4v4.5L157.2,175.1z M157.2,172.3h-0.6
		c-0.3,0-0.5,0.1-0.7,0.2c-0.2,0.2-0.3,0.5-0.3,0.9c0,0.6,0.2,1,0.8,1s0.8-0.4,0.8-1V172.3z M161.9,175.1v-4.6
		c0.1-0.4-0.2-0.8-0.6-0.8c0,0-0.1,0-0.1,0c-0.4,0-0.7,0.3-0.7,0.9v4.6h-1v-6.2h0.9v0.5c0.2-0.3,0.6-0.6,1-0.6
		c0.4,0,0.8,0.1,1.1,0.4c0.3,0.4,0.4,0.8,0.4,1.3v4.6L161.9,175.1z M167.1,174.7c-0.7,0.7-1.8,0.8-2.5,0.1c0,0-0.1-0.1-0.1-0.1
		c-0.6-1.7-0.6-3.6,0-5.3c0.7-0.7,1.8-0.8,2.5-0.1c0,0,0.1,0.1,0.1,0.1C167.7,171.1,167.7,173,167.1,174.7z M166.3,170
		c-0.2-0.3-0.7-0.4-1-0.1c0,0-0.1,0.1-0.1,0.1c-0.3,1.4-0.3,2.8,0,4.1c0.2,0.3,0.7,0.4,1,0.1c0,0,0.1-0.1,0.1-0.1
		C166.6,172.7,166.6,171.3,166.3,170z M169.5,174.7c-0.4-0.4-0.6-0.9-0.5-1.4v-3.7h-0.7v-0.8h0.7v-1.7h1v1.7h1v0.8h-1v3.6
		c0,0.6,0.4,0.9,1,0.9v0.9c-0.6,0.1-1.1-0.1-1.6-0.4L169.5,174.7z M174.3,175.1v-4.6c0-0.6-0.3-0.9-0.7-0.9s-0.7,0.3-0.7,0.9v4.6h-1
		v-8.5h1v2.8c0.1-0.1,0.1-0.3,0.2-0.4c0.2-0.1,0.4-0.2,0.7-0.2c0.4,0,0.8,0.1,1.1,0.4c0.3,0.4,0.4,0.8,0.4,1.3v4.6L174.3,175.1z
		 M177.3,172.3c-0.1,0.6,0,1.3,0.2,1.8c0.1,0.2,0.3,0.3,0.6,0.3c0.2,0,0.4-0.1,0.6-0.2c0.2-0.2,0.2-0.5,0.2-0.7h1
		c0,0.5-0.2,1-0.5,1.4c-0.3,0.3-0.8,0.5-1.2,0.4c-0.5,0-0.9-0.1-1.2-0.5c-0.5-0.5-0.6-1.4-0.6-2.7s0.1-2.2,0.5-2.7
		c0.7-0.6,1.8-0.6,2.4,0c0.5,0.5,0.6,1.4,0.6,2.9H177.3z M178.7,170c-0.1-0.2-0.3-0.3-0.6-0.3c-0.2,0-0.4,0.1-0.5,0.3
		c-0.2,0.2-0.2,0.7-0.2,1.6h1.6c-0.1-0.9-0.2-1.4-0.4-1.6L178.7,170z M183.1,169.8c-0.6,0-1.1,0.4-1.1,1c0,0,0,0.1,0,0.1v4.2h-1
		v-6.2h0.9v0.7c0.1-0.2,0.3-0.3,0.4-0.4c0.3-0.2,0.6-0.3,1-0.3v0.9H183.1z M188.8,175.1v-0.6c-0.1,0.2-0.2,0.3-0.4,0.4
		c-0.2,0.2-0.5,0.2-0.7,0.2c-0.4,0-0.8-0.2-1.1-0.5c-0.3-0.4-0.4-0.9-0.4-1.4c0-0.5,0.2-1,0.6-1.4c0.4-0.3,0.8-0.5,1.3-0.4h0.6v-1
		c0-0.6-0.2-0.9-0.7-0.9c-0.2,0-0.4,0.1-0.5,0.2c-0.2,0.2-0.3,0.5-0.2,0.7h-1c0-0.5,0.1-1,0.5-1.3c0.3-0.3,0.8-0.5,1.2-0.4
		c0.4,0,0.9,0.1,1.2,0.4c0.3,0.4,0.5,0.9,0.5,1.4v4.5L188.8,175.1z M188.8,172.3h-0.6c-0.3,0-0.5,0.1-0.7,0.2
		c-0.2,0.2-0.3,0.5-0.3,0.9c0,0.6,0.2,1,0.8,1s0.8-0.4,0.8-1V172.3z M193.2,169.8c-0.6,0-1.1,0.4-1.1,1c0,0,0,0.1,0,0.1v4.2h-1v-6.2
		h0.9v0.7c0.1-0.2,0.3-0.3,0.4-0.4c0.3-0.2,0.6-0.3,1-0.3v0.9H193.2z M195.1,172.3c-0.1,0.6,0,1.3,0.2,1.8c0.1,0.2,0.3,0.3,0.6,0.3
		c0.2,0,0.4-0.1,0.6-0.2c0.2-0.2,0.2-0.5,0.2-0.7h1c0,0.5-0.2,1-0.5,1.4c-0.3,0.3-0.8,0.5-1.2,0.4c-0.5,0-0.9-0.1-1.2-0.5
		c-0.5-0.5-0.6-1.4-0.6-2.7s0.1-2.2,0.5-2.7c0.3-0.3,0.8-0.5,1.2-0.5c0.5,0,0.9,0.1,1.2,0.5c0.5,0.5,0.6,1.4,0.6,2.9H195.1z
		 M196.4,170c-0.1-0.2-0.3-0.3-0.6-0.3c-0.2,0-0.4,0.1-0.5,0.3c-0.2,0.2-0.2,0.7-0.2,1.6h1.6c-0.2-0.9-0.2-1.4-0.4-1.6L196.4,170z
		 M201,175.1v-0.6c-0.1,0.2-0.2,0.3-0.4,0.4c-0.2,0.2-0.5,0.2-0.7,0.2c-0.4,0-0.8-0.2-1.1-0.5c-0.3-0.4-0.4-0.9-0.4-1.4
		c0-0.5,0.2-1,0.6-1.4c0.4-0.3,0.8-0.5,1.3-0.4h0.6v-1c0-0.6-0.2-0.9-0.7-0.9c-0.2,0-0.4,0.1-0.5,0.2c-0.2,0.2-0.3,0.5-0.2,0.7h-1
		c0-0.5,0.1-1,0.5-1.3c0.3-0.3,0.8-0.5,1.2-0.4c0.4,0,0.9,0.1,1.2,0.4c0.3,0.4,0.5,0.9,0.5,1.4v4.5L201,175.1z M201,172.3h-0.6
		c-0.3,0-0.5,0.1-0.7,0.2c-0.2,0.2-0.3,0.5-0.3,0.9c0,0.6,0.3,1,0.8,1s0.8-0.4,0.8-1V172.3z M203.3,175.1v-1.2h1.2v1.2H203.3z
		 M3.9,145.9c-0.4,0.4-1,0.6-1.5,0.5c-0.6,0-1.1-0.1-1.5-0.5c-0.4-0.5-0.6-1.1-0.5-1.8h1c-0.1,0.4,0,0.8,0.3,1.1
		c0.2,0.2,0.4,0.3,0.7,0.3c0.3,0,0.5-0.1,0.7-0.3c0.3-0.3,0.4-0.8,0.3-1.2c0-1-0.1-1.3-0.8-1.6l-1-0.4c-0.8-0.3-1.1-0.8-1.1-2.1
		c0-0.6,0.2-1.3,0.6-1.8c0.4-0.3,0.9-0.5,1.4-0.5c0.5,0,1,0.1,1.4,0.5c0.4,0.5,0.6,1.1,0.6,1.8h-1c0-0.4-0.1-0.7-0.3-1
		c-0.2-0.2-0.4-0.3-0.7-0.3c-0.2,0-0.5,0.1-0.7,0.3c-0.2,0.3-0.3,0.6-0.3,1c0,0.8,0.1,1.1,0.8,1.4l1,0.4c1,0.4,1.2,1,1.2,2.3
		C4.5,144.7,4.3,145.4,3.9,145.9z M8.1,146.3v-4.6c0-0.6-0.3-0.9-0.7-0.9s-0.7,0.3-0.7,0.9v4.6h-1v-8.5h1v2.8
		c0.1-0.1,0.2-0.3,0.3-0.4c0.2-0.1,0.4-0.2,0.7-0.2c0.4,0,0.8,0.1,1,0.4c0.3,0.4,0.4,0.8,0.4,1.3v4.6H8.1z M13.2,145.8
		c-0.3,0.4-0.8,0.6-1.3,0.6c-0.5,0-1-0.2-1.3-0.6c-0.6-1.7-0.6-3.6,0-5.3c0.3-0.4,0.8-0.6,1.3-0.6c0.5,0,1,0.2,1.3,0.6
		C13.8,142.3,13.8,144.1,13.2,145.8z M12.5,141.1c-0.1-0.2-0.3-0.3-0.6-0.3c-0.2,0-0.4,0.1-0.5,0.3c-0.3,1.4-0.3,2.8,0,4.1
		c0.1,0.2,0.3,0.3,0.5,0.3c0.2,0,0.4-0.1,0.6-0.3C12.8,143.9,12.8,142.5,12.5,141.1z M19.2,146.3h-1l-0.8-4.6l-0.8,4.6h-1l-1.3-6.2
		h1.1l0.7,4.7l0.8-4.7h0.9l0.9,4.7l0.7-4.7h1.1L19.2,146.3z M24,145.9c-0.3,0.3-0.8,0.5-1.3,0.5c-0.5,0-0.9-0.2-1.2-0.5
		c-0.4-0.4-0.5-0.9-0.5-1.4h1c0,0.3,0.1,0.5,0.3,0.8c0.1,0.1,0.3,0.2,0.5,0.2c0.2,0,0.4-0.1,0.6-0.2c0.2-0.2,0.2-0.4,0.2-0.6
		c0-0.2-0.1-0.4-0.2-0.6c-0.1-0.2-0.3-0.3-0.5-0.4l-0.8-0.4c-0.3-0.2-0.6-0.4-0.9-0.7c-0.1-0.2-0.2-0.5-0.2-0.8
		c0-0.5,0.2-0.9,0.5-1.3c0.7-0.6,1.7-0.6,2.4,0c0.4,0.4,0.5,0.9,0.5,1.4h-1c0-0.3-0.1-0.5-0.2-0.7c-0.1-0.1-0.3-0.2-0.5-0.2
		c-0.2,0-0.4,0.1-0.5,0.2c-0.2,0.2-0.2,0.4-0.2,0.6c0,0.2,0,0.3,0.1,0.5c0.1,0.2,0.3,0.3,0.5,0.4l0.8,0.4c0.4,0.1,0.7,0.4,0.9,0.7
		C24.7,144.4,24.6,145.3,24,145.9L24,145.9z M30.1,146.3v-0.6c-0.1,0.2-0.2,0.3-0.4,0.4c-0.2,0.2-0.5,0.2-0.7,0.2
		c-0.4,0-0.8-0.2-1.1-0.5c-0.3-0.4-0.4-0.9-0.4-1.4c0-0.5,0.2-1,0.5-1.4c0.4-0.3,0.8-0.5,1.3-0.4h0.6v-1c0-0.6-0.3-0.9-0.7-0.9
		c-0.2,0-0.4,0.1-0.5,0.2c-0.2,0.2-0.2,0.5-0.2,0.7h-1c0-0.5,0.1-1,0.5-1.3c0.3-0.3,0.8-0.5,1.2-0.4c0.4,0,0.9,0.1,1.2,0.4
		c0.3,0.4,0.5,0.9,0.5,1.4v4.5L30.1,146.3z M30.1,143.4h-0.6c-0.3,0-0.5,0.1-0.7,0.2c-0.2,0.2-0.3,0.5-0.3,0.9c0,0.6,0.2,1,0.8,1
		s0.8-0.4,0.8-1V143.4z M39.5,146.3v-4.6c0-0.6-0.3-0.9-0.7-0.9s-0.7,0.3-0.7,0.9v4.6h-1v-4.6c0.1-0.4-0.2-0.8-0.6-0.8
		c0,0-0.1,0-0.1,0c-0.4,0-0.7,0.3-0.7,0.9v4.6h-1v-6.2h0.9v0.5c0.2-0.3,0.6-0.6,1-0.6c0.5,0,0.9,0.2,1.2,0.6
		c0.1-0.2,0.3-0.3,0.5-0.5c0.2-0.1,0.5-0.2,0.8-0.2c0.4,0,0.8,0.1,1.1,0.4c0.3,0.4,0.4,0.8,0.4,1.3v4.6L39.5,146.3z M44.1,146.3
		v-0.6c-0.1,0.2-0.2,0.3-0.4,0.4c-0.2,0.2-0.5,0.2-0.7,0.2c-0.4,0-0.8-0.2-1.1-0.5c-0.3-0.4-0.4-0.9-0.4-1.4c0-0.5,0.2-1,0.5-1.4
		c0.4-0.3,0.8-0.5,1.3-0.4H44v-1c0-0.6-0.2-0.9-0.7-0.9c-0.2,0-0.4,0.1-0.5,0.2c-0.2,0.2-0.3,0.5-0.2,0.7h-1
		c-0.1-0.9,0.6-1.7,1.5-1.7c0.1,0,0.2,0,0.3,0c0.4,0,0.9,0.1,1.2,0.4c0.3,0.4,0.5,0.9,0.5,1.4v4.5L44.1,146.3z M44.1,143.4h-0.5
		c-0.3,0-0.5,0.1-0.7,0.2c-0.2,0.2-0.3,0.5-0.3,0.9c0,0.6,0.2,1,0.8,1s0.8-0.4,0.8-1L44.1,143.4z M49.4,145.9
		c-0.2,0.3-0.6,0.5-1,0.5c-0.2,0-0.5-0.1-0.7-0.2c-0.1-0.1-0.3-0.2-0.3-0.4v2.8h-1v-8.5h1v0.5c0.1-0.2,0.2-0.3,0.4-0.4
		c0.2-0.1,0.4-0.2,0.7-0.2c0.4,0,0.8,0.2,1,0.4c0.4,0.5,0.5,1.3,0.5,2.8S49.7,145.5,49.4,145.9L49.4,145.9z M48.6,141.1
		c-0.3-0.3-0.7-0.3-1-0.1c0,0,0,0,0,0c-0.2,0.2-0.3,0.4-0.2,0.7v2.8c0,0.3,0.1,0.5,0.2,0.7c0.1,0.1,0.3,0.2,0.5,0.2
		c0.2,0,0.4-0.1,0.5-0.3c0.2-0.3,0.3-0.8,0.3-2.1S48.8,141.4,48.6,141.1L48.6,141.1z M56.2,145.8c-0.3,0.4-0.8,0.6-1.3,0.6
		c-0.5,0-1-0.2-1.3-0.6c-0.6-1.7-0.6-3.6,0-5.3c0.3-0.4,0.8-0.6,1.3-0.6c0.5,0,1,0.2,1.3,0.6C56.8,142.3,56.8,144.1,56.2,145.8z
		 M55.4,141.1c-0.1-0.2-0.3-0.3-0.5-0.3c-0.2,0-0.4,0.1-0.5,0.3c-0.3,1.4-0.3,2.8,0,4.1c0.1,0.2,0.3,0.3,0.5,0.3
		c0.2,0,0.4-0.1,0.5-0.3C55.7,143.9,55.7,142.5,55.4,141.1z M59,140.8v5.5h-1v-5.5h-0.7v-0.8H58v-0.6c0-0.5,0.2-1,0.5-1.4
		c0.4-0.3,0.9-0.4,1.4-0.4v0.9c-0.5-0.1-0.9,0.2-1,0.7c0,0.1,0,0.2,0,0.3v0.6h1v0.8L59,140.8z M65.8,146c-0.3,0.3-0.8,0.5-1.2,0.4
		c-0.5,0-1-0.2-1.3-0.6c-0.6-1.7-0.6-3.6,0-5.3c0.3-0.4,0.8-0.6,1.3-0.6c0.4,0,0.9,0.1,1.2,0.4c0.3,0.4,0.5,0.9,0.5,1.4h-1
		c0-0.3-0.1-0.5-0.2-0.7c-0.1-0.2-0.3-0.2-0.5-0.2c-0.2,0-0.4,0.1-0.5,0.3c-0.2,0.3-0.2,0.9-0.2,2.1c-0.1,0.7,0,1.4,0.2,2.1
		c0.1,0.2,0.3,0.3,0.5,0.3c0.2,0,0.4-0.1,0.5-0.2c0.2-0.2,0.2-0.5,0.2-0.7h1C66.3,145.1,66.1,145.6,65.8,146z M69.8,146.3v-0.5
		c-0.2,0.3-0.6,0.6-1,0.6c-0.4,0-0.8-0.1-1.1-0.4c-0.3-0.4-0.4-0.8-0.4-1.3v-4.6h1v4.6c0,0.6,0.3,0.9,0.7,0.9s0.7-0.3,0.7-0.9v-4.6
		h1v6.2L69.8,146.3z M72.6,145.9c-0.4-0.3-0.6-0.9-0.6-1.4v-6.8h1v6.7c-0.1,0.4,0.2,0.9,0.7,0.9c0.1,0,0.2,0,0.2,0v0.9
		C73.5,146.4,73,146.2,72.6,145.9L72.6,145.9z M75.6,145.9c-0.4-0.4-0.6-0.9-0.5-1.4v-3.7h-0.7v-0.8h0.7v-1.7h1v1.7h1v0.8H76v3.6
		c0,0.6,0.3,0.9,1,0.9v0.9C76.5,146.4,76,146.2,75.6,145.9L75.6,145.9z M80.4,146.3v-0.5c-0.1,0.2-0.2,0.3-0.4,0.4
		c-0.2,0.1-0.4,0.2-0.7,0.2c-0.4,0-0.8-0.2-1-0.4c-0.3-0.4-0.4-0.8-0.4-1.3v-4.6h1v4.6c0,0.6,0.3,0.9,0.7,0.9s0.7-0.3,0.7-0.9v-4.6
		h1v6.2L80.4,146.3z M84.8,141c-0.6,0-1.1,0.4-1.1,1c0,0,0,0.1,0,0.1v4.2h-1v-6.2h0.9v0.7c0.1-0.2,0.3-0.3,0.4-0.4
		c0.3-0.2,0.6-0.3,1-0.3v0.9H84.8z M88.2,146.3v-0.6c-0.1,0.2-0.2,0.3-0.4,0.4c-0.2,0.2-0.5,0.2-0.7,0.2c-0.4,0-0.8-0.2-1.1-0.5
		c-0.3-0.4-0.4-0.9-0.4-1.4c0-0.5,0.2-1,0.6-1.4c0.4-0.3,0.8-0.5,1.3-0.4h0.6v-1c0-0.6-0.2-0.9-0.7-0.9c-0.2,0-0.4,0.1-0.5,0.2
		c-0.2,0.2-0.3,0.5-0.2,0.7h-1c0-0.5,0.1-1,0.5-1.3c0.3-0.3,0.8-0.5,1.2-0.4c0.4,0,0.9,0.1,1.2,0.4c0.3,0.4,0.5,0.9,0.5,1.4v4.5
		L88.2,146.3z M88.2,143.5h-0.6c-0.3,0-0.5,0.1-0.7,0.2c-0.2,0.2-0.3,0.5-0.3,0.9c0,0.6,0.2,1,0.8,1s0.8-0.4,0.8-1L88.2,143.5z
		 M91,145.9c-0.4-0.3-0.6-0.9-0.6-1.4v-6.8h1v6.7c-0.1,0.4,0.2,0.9,0.7,0.9c0.1,0,0.2,0,0.2,0v0.9C91.8,146.4,91.3,146.2,91,145.9
		L91,145.9z M93.7,145.9c-0.4-0.3-0.6-0.9-0.6-1.4v-6.8h1v6.7c-0.1,0.4,0.2,0.9,0.7,0.9c0.1,0,0.2,0,0.2,0v0.9
		C94.5,146.4,94,146.2,93.7,145.9L93.7,145.9z M97.6,147.3c-0.3,1.1-1,1.3-2.1,1.3v-0.9c0.6,0,1-0.2,1.1-0.7l0.2-0.8l-1.5-6.2h1.1
		l0.9,4.7l0.9-4.7h1.1L97.6,147.3z M17.3,160.7v-0.6c-0.1,0.2-0.2,0.3-0.4,0.4c-0.2,0.2-0.5,0.2-0.7,0.2c-0.4,0-0.8-0.2-1.1-0.5
		c-0.3-0.4-0.4-0.9-0.4-1.4c0-0.5,0.2-1,0.6-1.4c0.4-0.3,0.8-0.5,1.3-0.4h0.6v-1c0-0.6-0.2-0.9-0.7-0.9c-0.2,0-0.4,0.1-0.5,0.2
		c-0.2,0.2-0.3,0.5-0.2,0.7h-1c-0.1-0.9,0.6-1.7,1.4-1.8c0.1,0,0.2,0,0.2,0c0.4,0,0.9,0.1,1.2,0.4c0.3,0.4,0.5,0.9,0.5,1.4v4.5
		L17.3,160.7z M17.2,157.8h-0.5c-0.3,0-0.5,0.1-0.7,0.2c-0.2,0.2-0.3,0.5-0.3,0.9c0,0.6,0.2,1,0.8,1s0.8-0.4,0.8-1L17.2,157.8z
		 M22.5,160.3c-0.2,0.3-0.6,0.5-1,0.5c-0.2,0-0.5-0.1-0.7-0.2c-0.1-0.1-0.3-0.2-0.4-0.4v2.7h-1v-8.5h1v0.5c0.1-0.2,0.2-0.3,0.4-0.4
		c0.2-0.1,0.4-0.2,0.7-0.2c0.4,0,0.8,0.2,1,0.4c0.4,0.5,0.5,1.3,0.5,2.8S22.9,159.9,22.5,160.3L22.5,160.3z M21.8,155.5
		c-0.1-0.2-0.3-0.3-0.5-0.2c-0.2,0-0.4,0.1-0.5,0.2c-0.2,0.2-0.3,0.5-0.2,0.7v2.8c0,0.3,0.1,0.5,0.2,0.7c0.1,0.1,0.3,0.2,0.5,0.2
		c0.2,0,0.4-0.1,0.5-0.3c0.2-0.3,0.3-0.8,0.3-2.1S22,155.8,21.8,155.5z M27.2,160.3c-0.2,0.3-0.6,0.5-1,0.5c-0.2,0-0.5-0.1-0.7-0.2
		c-0.1-0.1-0.3-0.2-0.3-0.4v2.7h-1v-8.5h1v0.5c0.1-0.2,0.2-0.3,0.4-0.4c0.2-0.1,0.4-0.2,0.7-0.2c0.4,0,0.8,0.2,1,0.4
		c0.4,0.5,0.5,1.3,0.5,2.8S27.6,159.9,27.2,160.3L27.2,160.3z M26.4,155.5c-0.1-0.2-0.3-0.3-0.5-0.2c-0.2,0-0.4,0.1-0.5,0.2
		c-0.2,0.2-0.2,0.5-0.2,0.7v2.8c0,0.3,0.1,0.5,0.2,0.7c0.1,0.1,0.3,0.2,0.5,0.2c0.2,0,0.4-0.1,0.5-0.3c0.2-0.3,0.2-0.8,0.2-2.1
		S26.6,155.8,26.4,155.5z M30.9,155.3c-0.6,0-1.1,0.4-1.1,1c0,0,0,0.1,0,0.1v4.2h-1v-6.2h0.9v0.7c0.1-0.2,0.3-0.3,0.4-0.4
		c0.3-0.2,0.6-0.3,1-0.3v0.9H30.9z M34.9,160.2c-0.3,0.4-0.8,0.6-1.3,0.6c-0.5,0-1-0.2-1.3-0.6c-0.6-1.7-0.6-3.6,0-5.3
		c0.3-0.4,0.8-0.6,1.3-0.6c0.5,0,1,0.2,1.3,0.6C35.5,156.7,35.5,158.5,34.9,160.2z M34.1,155.5c-0.1-0.2-0.3-0.3-0.5-0.3
		c-0.2,0-0.4,0.1-0.5,0.3c-0.3,1.4-0.3,2.8,0,4.1c0.1,0.2,0.3,0.3,0.5,0.3c0.2,0,0.4-0.1,0.5-0.3C34.5,158.3,34.5,156.9,34.1,155.5z
		 M39.5,160.3c-0.2,0.3-0.6,0.5-1,0.5c-0.2,0-0.5-0.1-0.7-0.2c-0.1-0.1-0.3-0.2-0.3-0.4v2.7h-1v-8.5h0.9v0.5
		c0.1-0.2,0.2-0.3,0.4-0.4c0.2-0.1,0.4-0.2,0.7-0.2c0.4,0,0.8,0.2,1,0.4c0.4,0.5,0.5,1.3,0.5,2.8S40,159.9,39.5,160.3L39.5,160.3z
		 M38.8,155.5c-0.1-0.2-0.3-0.3-0.5-0.2c-0.2,0-0.4,0.1-0.5,0.2c-0.2,0.2-0.3,0.5-0.2,0.7v2.8c0,0.3,0.1,0.5,0.2,0.7
		c0.1,0.1,0.3,0.2,0.5,0.2c0.2,0,0.4-0.1,0.5-0.3c0.2-0.3,0.2-0.8,0.2-2.1S39,155.8,38.8,155.5L38.8,155.5z M43.3,155.3
		c-0.6,0-1.1,0.4-1.1,1c0,0,0,0.1,0,0.1v4.2h-1v-6.2h0.9v0.7c0.1-0.2,0.3-0.3,0.4-0.4c0.3-0.2,0.6-0.3,1-0.3v0.9H43.3z M44.4,153.4
		v-1.1h1.1v1.1H44.4z M44.4,160.7v-6.2h1v6.2H44.4z M49,160.7v-0.6c-0.1,0.2-0.2,0.3-0.4,0.4c-0.2,0.2-0.5,0.2-0.7,0.2
		c-0.4,0-0.8-0.2-1.1-0.5c-0.3-0.4-0.4-0.9-0.4-1.4c0-0.5,0.2-1,0.6-1.4c0.4-0.3,0.8-0.5,1.3-0.4H49v-1c0-0.6-0.2-0.9-0.7-0.9
		c-0.2,0-0.4,0.1-0.5,0.2c-0.2,0.2-0.3,0.5-0.2,0.7h-1c0-0.5,0.1-1,0.5-1.3c0.3-0.3,0.8-0.5,1.2-0.4c0.4,0,0.9,0.1,1.2,0.4
		c0.3,0.4,0.5,0.9,0.5,1.4v4.5L49,160.7z M49,157.8h-0.5c-0.3,0-0.5,0.1-0.7,0.2c-0.2,0.2-0.3,0.5-0.3,0.9c0,0.6,0.2,1,0.8,1
		s0.8-0.4,0.8-1V157.8z M52.1,160.3c-0.4-0.4-0.6-0.9-0.5-1.4v-3.7h-0.8v-0.8h0.7v-1.7h1v1.7h1v0.8h-1v3.6c0,0.6,0.3,0.9,1,0.9v0.9
		C53,160.8,52.5,160.6,52.1,160.3L52.1,160.3z M55.2,157.8c-0.1,0.6,0,1.3,0.2,1.8c0.1,0.2,0.3,0.3,0.6,0.3c0.2,0,0.4-0.1,0.5-0.2
		c0.2-0.2,0.2-0.5,0.2-0.7h1c0,0.5-0.2,1-0.5,1.4c-0.3,0.3-0.8,0.5-1.2,0.4c-0.5,0-0.9-0.1-1.2-0.5c-0.5-0.5-0.5-1.4-0.5-2.7
		s0.1-2.2,0.5-2.7c0.3-0.3,0.8-0.5,1.2-0.5c0.5,0,0.9,0.1,1.2,0.5c0.5,0.5,0.5,1.4,0.5,2.9H55.2z M56.6,155.5
		c-0.1-0.2-0.3-0.3-0.5-0.2c-0.2,0-0.4,0.1-0.5,0.2c-0.2,0.2-0.2,0.7-0.2,1.6h1.6C56.8,156.2,56.7,155.7,56.6,155.5L56.6,155.5z
		 M63.4,160.7v-0.6c-0.1,0.2-0.2,0.3-0.4,0.4c-0.2,0.2-0.5,0.2-0.7,0.2c-0.4,0-0.8-0.2-1.1-0.5c-0.3-0.4-0.4-0.9-0.4-1.4
		c0-0.5,0.2-1,0.5-1.4c0.4-0.3,0.8-0.5,1.3-0.4h0.6v-1c0-0.6-0.2-0.9-0.7-0.9c-0.2,0-0.4,0.1-0.5,0.2c-0.2,0.2-0.3,0.5-0.2,0.7h-1
		c0-0.5,0.1-1,0.5-1.3c0.3-0.3,0.8-0.5,1.2-0.4c0.4,0,0.9,0.1,1.2,0.4c0.3,0.4,0.5,0.9,0.5,1.4v4.5L63.4,160.7z M63.4,157.8h-0.5
		c-0.3,0-0.5,0.1-0.7,0.2c-0.2,0.2-0.3,0.5-0.3,0.9c0,0.6,0.3,1,0.8,1s0.8-0.4,0.8-1L63.4,157.8z M65.6,153.4v-1.1h1.1v1.1H65.6z
		 M65.7,160.7v-6.2h1v6.2H65.7z M70.4,160.7v-0.5c-0.1,0.2-0.2,0.3-0.4,0.4c-0.2,0.1-0.4,0.2-0.7,0.2c-0.4,0-0.8-0.2-1-0.5
		c-0.4-0.4-0.4-1.3-0.4-2.7s0.1-2.3,0.4-2.8c0.2-0.3,0.6-0.5,1-0.4c0.2,0,0.5,0.1,0.7,0.2c0.1,0.1,0.3,0.2,0.3,0.3v-2.8h1v8.5H70.4z
		 M70.4,156.2c0-0.3-0.1-0.5-0.2-0.7c-0.1-0.1-0.3-0.2-0.5-0.2c-0.2,0-0.4,0.1-0.5,0.2c-0.2,0.3-0.2,0.8-0.2,2.1s0,1.8,0.2,2.1
		c0.1,0.2,0.3,0.3,0.5,0.3c0.2,0,0.4-0.1,0.5-0.2c0.2-0.2,0.3-0.5,0.2-0.7V156.2z M76.2,155.2v5.5h-1v-5.5h-0.7v-0.8h0.7v-0.6
		c0-0.5,0.2-1,0.5-1.4c0.4-0.3,0.9-0.4,1.4-0.4v0.9c-0.5-0.1-0.9,0.2-1,0.7c0,0.1,0,0.2,0,0.3v0.6h1v0.8L76.2,155.2z M80.8,160.2
		c-0.3,0.4-0.8,0.6-1.3,0.6c-0.5,0-1-0.2-1.3-0.6c-0.6-1.7-0.7-3.5-0.2-5.2c0.3-0.4,0.8-0.6,1.3-0.6c0.5,0,1,0.2,1.3,0.6
		c0.6,1.7,0.6,3.6,0,5.3L80.8,160.2z M80,155.5c-0.1-0.2-0.3-0.3-0.6-0.3c-0.2,0-0.4,0.1-0.5,0.3c-0.3,1.4-0.3,2.8,0,4.1
		c0.1,0.2,0.3,0.3,0.5,0.3c0.2,0,0.4-0.1,0.6-0.3C80.3,158.3,80.3,156.9,80,155.5z M84.5,155.3c-0.6,0-1.1,0.4-1.1,1
		c0,0,0,0.1,0,0.1v4.2h-1v-6.2h0.9v0.7c0.1-0.2,0.3-0.3,0.4-0.4c0.3-0.2,0.6-0.3,1-0.3v0.9H84.5z M35.2,174.7
		c-0.3,0.3-0.8,0.5-1.3,0.5c-0.5,0-0.9-0.2-1.2-0.5c-0.4-0.4-0.5-0.9-0.5-1.4h1c0,0.3,0.1,0.5,0.3,0.8c0.1,0.1,0.3,0.2,0.5,0.2
		c0.2,0,0.4-0.1,0.6-0.2c0.2-0.2,0.2-0.4,0.2-0.6c0-0.2,0-0.4-0.2-0.6c-0.1-0.2-0.3-0.3-0.5-0.4l-0.8-0.4c-0.3-0.2-0.6-0.4-0.8-0.7
		c-0.1-0.3-0.2-0.5-0.2-0.8c0-1,0.9-1.8,1.8-1.7c0.4,0,0.8,0.2,1.1,0.4c0.4,0.4,0.5,0.9,0.5,1.4h-1c0-0.3-0.1-0.5-0.2-0.8
		c-0.3-0.3-0.8-0.3-1.1,0c-0.2,0.2-0.2,0.4-0.2,0.6c0,0.2,0,0.3,0.1,0.5c0.1,0.2,0.3,0.3,0.5,0.4l0.8,0.4c0.4,0.1,0.7,0.4,0.9,0.7
		C35.9,173.2,35.8,174.1,35.2,174.7L35.2,174.7z M39.2,175.1v-0.5c-0.1,0.2-0.2,0.3-0.4,0.4c-0.2,0.1-0.4,0.2-0.7,0.2
		c-0.4,0-0.8-0.1-1-0.4c-0.3-0.4-0.4-0.8-0.4-1.3v-4.6h1v4.6c0,0.6,0.3,0.9,0.7,0.9s0.7-0.3,0.7-0.9v-4.6h1v6.2L39.2,175.1z
		 M43.6,169.7c-0.6,0-1.1,0.4-1.1,1c0,0,0,0.1,0,0.1v4.2h-1v-6.2h0.9v0.7c0.1-0.2,0.3-0.3,0.4-0.4c0.3-0.2,0.6-0.3,1-0.3v0.9H43.6z
		 M47,175.1h-1l-1.5-6.2h1.1l0.9,4.7l0.9-4.7h1.1L47,175.1z M49.1,167.8v-1.1h1.1v1.1H49.1z M49.2,175.1v-6.2h1v6.2H49.2z
		 M53.5,175.1h-1l-1.5-6.2h1l1,4.7l0.9-4.7H55L53.5,175.1z M58.6,174.6c-0.3,0.4-0.8,0.6-1.3,0.6c-0.5,0-1-0.2-1.3-0.6
		c-0.6-1.7-0.6-3.6,0-5.3c0.3-0.4,0.8-0.6,1.3-0.6c0.5,0,1,0.2,1.3,0.6C59.2,171.1,59.2,172.9,58.6,174.6z M57.8,169.9
		c-0.1-0.2-0.3-0.3-0.5-0.3c-0.2,0-0.4,0.1-0.5,0.3c-0.3,1.4-0.3,2.8,0,4.1c0.1,0.2,0.3,0.3,0.5,0.3c0.2,0,0.4-0.1,0.5-0.3
		C58.2,172.7,58.2,171.3,57.8,169.9z M62.3,169.7c-0.6,0-1.1,0.4-1.1,1c0,0,0,0.1,0,0.1v4.2h-1v-6.2h0.9v0.7
		c0.1-0.2,0.3-0.3,0.4-0.4c0.3-0.2,0.6-0.3,1-0.3v0.9H62.3z M66.2,174.7c-0.3,0.3-0.8,0.5-1.3,0.5c-0.5,0-0.9-0.2-1.2-0.5
		c-0.4-0.4-0.5-0.9-0.5-1.4h1c0,0.3,0.1,0.5,0.3,0.8c0.1,0.1,0.3,0.2,0.6,0.2c0.2,0,0.4-0.1,0.6-0.2c0.2-0.2,0.2-0.4,0.2-0.6
		c0-0.2-0.1-0.4-0.2-0.6c-0.1-0.2-0.3-0.3-0.6-0.4l-0.8-0.4c-0.3-0.2-0.6-0.4-0.8-0.7c-0.1-0.3-0.2-0.5-0.2-0.8
		c0-0.5,0.2-0.9,0.5-1.2c0.7-0.6,1.7-0.6,2.4,0c0.4,0.4,0.5,0.9,0.5,1.4h-1c0-0.3-0.1-0.5-0.2-0.8c-0.1-0.1-0.3-0.2-0.5-0.2
		c-0.2,0-0.4,0.1-0.5,0.2c-0.1,0.2-0.2,0.4-0.2,0.6c0,0.2,0,0.3,0.1,0.5c0.1,0.2,0.3,0.3,0.5,0.4l0.8,0.4c0.4,0.1,0.7,0.4,0.9,0.7
		c0.2,0.3,0.3,0.6,0.3,1C66.7,173.9,66.5,174.4,66.2,174.7L66.2,174.7z M67.8,175.1v-1.2H69v1.2H67.8z M262,145.9
		c-0.4,0.4-1,0.6-1.5,0.5c-0.6,0-1.1-0.1-1.5-0.5c-0.4-0.5-0.6-1.1-0.5-1.8h1c-0.1,0.4,0,0.8,0.3,1.1c0.2,0.2,0.4,0.3,0.7,0.3
		c0.3,0,0.5-0.1,0.7-0.3c0.2-0.3,0.3-0.7,0.3-1.1c0-1-0.1-1.3-0.8-1.6l-1-0.4c-0.9-0.4-1.2-0.8-1.2-2.1c0-0.6,0.2-1.3,0.6-1.8
		c0.4-0.3,0.9-0.5,1.4-0.5c0.5,0,1,0.1,1.4,0.5c0.4,0.5,0.6,1.1,0.6,1.8h-1c0-0.4-0.1-0.7-0.3-1c-0.2-0.2-0.4-0.3-0.7-0.3
		c-0.2,0-0.5,0.1-0.7,0.3c-0.2,0.3-0.3,0.6-0.3,1c0,0.8,0.1,1.1,0.8,1.4l1,0.4c1,0.4,1.2,1,1.2,2.3
		C262.6,144.7,262.4,145.3,262,145.9z M264.5,143.4c-0.1,0.6,0,1.3,0.2,1.8c0.1,0.2,0.3,0.3,0.5,0.3c0.2,0,0.4-0.1,0.5-0.2
		c0.2-0.2,0.2-0.5,0.2-0.7h1c0,0.5-0.2,1-0.5,1.4c-0.3,0.3-0.8,0.5-1.2,0.4c-0.5,0-0.9-0.1-1.2-0.5c-0.5-0.5-0.5-1.4-0.5-2.7
		s0.1-2.2,0.5-2.7c0.3-0.3,0.8-0.5,1.2-0.5c0.5,0,0.9,0.1,1.2,0.5c0.5,0.5,0.5,1.4,0.5,2.9H264.5z M265.8,141.1
		c-0.1-0.2-0.3-0.3-0.5-0.2c-0.2,0-0.4,0.1-0.5,0.2c-0.2,0.2-0.2,0.7-0.2,1.6h1.6C266.1,141.8,266,141.3,265.8,141.1L265.8,141.1z
		 M270.6,146.3v-4.6c0.1-0.4-0.2-0.8-0.6-0.8c0,0-0.1,0-0.1,0c-0.4,0-0.7,0.3-0.7,0.9v4.6h-1v-6.2h0.9v0.5c0.2-0.4,0.6-0.6,1-0.6
		c0.4,0,0.8,0.1,1.1,0.4c0.3,0.4,0.4,0.8,0.4,1.3v4.6L270.6,146.3z M275.3,146.3v-0.5c-0.1,0.2-0.2,0.3-0.4,0.4
		c-0.2,0.1-0.4,0.2-0.7,0.2c-0.4,0-0.8-0.2-1-0.5c-0.4-0.4-0.5-1.3-0.5-2.7s0.1-2.3,0.5-2.8c0.2-0.3,0.6-0.5,1-0.4
		c0.2,0,0.5,0.1,0.7,0.2c0.1,0.1,0.3,0.2,0.3,0.3v-2.8h1v8.5H275.3z M275.3,141.8c0-0.3-0.1-0.5-0.2-0.7c-0.1-0.1-0.3-0.2-0.5-0.2
		c-0.2,0-0.4,0.1-0.5,0.2c-0.2,0.3-0.2,0.8-0.2,2.1s0,1.8,0.2,2.1c0.1,0.2,0.3,0.3,0.5,0.3c0.2,0,0.4-0.1,0.5-0.2
		c0.2-0.2,0.3-0.5,0.2-0.7V141.8z M282.6,145.9c-0.3,0.3-0.8,0.5-1.3,0.5c-0.5,0-0.9-0.2-1.2-0.5c-0.4-0.4-0.5-0.9-0.5-1.4h1
		c0,0.3,0.1,0.5,0.3,0.8c0.1,0.1,0.3,0.2,0.5,0.2c0.2,0,0.4-0.1,0.6-0.2c0.2-0.2,0.2-0.4,0.2-0.6c0-0.2-0.1-0.4-0.2-0.6
		c-0.1-0.2-0.3-0.3-0.5-0.4l-0.8-0.4c-0.3-0.2-0.6-0.4-0.9-0.7c-0.1-0.2-0.2-0.5-0.2-0.8c0-0.5,0.2-0.9,0.5-1.3
		c0.7-0.6,1.7-0.6,2.4,0c0.4,0.4,0.5,0.9,0.5,1.4h-1c0-0.3-0.1-0.5-0.2-0.7c-0.1-0.1-0.3-0.2-0.5-0.2c-0.2,0-0.4,0.1-0.5,0.2
		c-0.1,0.2-0.2,0.4-0.2,0.6c0,0.2,0,0.3,0.1,0.5c0.1,0.2,0.3,0.3,0.5,0.4l0.8,0.4c0.4,0.1,0.7,0.4,0.9,0.7
		C283.3,144.4,283.2,145.3,282.6,145.9L282.6,145.9z M286.6,146.3v-0.5c-0.2,0.4-0.6,0.6-1.1,0.6c-0.4,0-0.8-0.1-1-0.4
		c-0.3-0.4-0.4-0.8-0.4-1.3v-4.6h1v4.6c0,0.6,0.3,0.9,0.7,0.9s0.7-0.3,0.7-0.9v-4.6h1v6.2L286.6,146.3z M291,140.9
		c-0.6,0-1.1,0.4-1.1,1c0,0,0,0.1,0,0.1v4.2h-1v-6.2h0.9v0.7c0.1-0.2,0.3-0.3,0.4-0.4c0.3-0.2,0.6-0.3,1-0.3v0.9H291z M294.3,146.3
		h-1l-1.5-6.2h1.1l1,4.7l0.9-4.7h1.1L294.3,146.3z M296.5,139v-1.1h1.1v1.2L296.5,139z M296.5,146.3v-6.2h1v6.2H296.5z M300.8,146.3
		h-1l-1.5-6.2h1.1l0.9,4.7l0.9-4.7h1.1L300.8,146.3z M305.9,145.8c-0.7,0.7-1.8,0.8-2.5,0.1c0,0-0.1-0.1-0.1-0.1
		c-0.6-1.7-0.6-3.6,0-5.3c0.7-0.7,1.8-0.8,2.5-0.1c0,0,0.1,0.1,0.1,0.1C306.5,142.3,306.5,144.1,305.9,145.8z M305.2,141.1
		c-0.1-0.2-0.3-0.3-0.5-0.3c-0.2,0-0.4,0.1-0.5,0.3c-0.3,1.4-0.3,2.8,0,4.1c0.1,0.2,0.3,0.3,0.5,0.3c0.2,0,0.4-0.1,0.5-0.3
		C305.5,143.9,305.5,142.5,305.2,141.1z M309.7,140.9c-0.6,0-1.1,0.4-1.1,1c0,0,0,0.1,0,0.1v4.2h-1v-6.2h0.9v0.7
		c0.1-0.2,0.3-0.3,0.4-0.4c0.3-0.2,0.6-0.3,1-0.3v0.9H309.7z M313,139v-1.1h1.1v1.1H313z M313.1,146.3v-6.2h1v6.2H313.1z
		 M317.9,146.3v-4.6c0.1-0.4-0.2-0.8-0.6-0.8c0,0-0.1,0-0.1,0c-0.4,0-0.7,0.3-0.7,0.9v4.6h-1v-6.2h0.9v0.5c0.1-0.2,0.2-0.3,0.4-0.4
		c0.2-0.1,0.4-0.2,0.7-0.2c0.4,0,0.8,0.2,1,0.4c0.3,0.4,0.4,0.8,0.4,1.3v4.6L317.9,146.3z M321.4,140.9v5.5h-1v-5.5h-0.7v-0.8h0.7
		v-0.6c0-0.5,0.2-1,0.5-1.4c0.4-0.3,0.9-0.4,1.4-0.4v0.9c-0.5-0.1-0.9,0.2-1,0.7c0,0.1,0,0.2,0,0.3v0.6h1v0.8L321.4,140.9z
		 M326,145.9c-0.3,0.4-0.8,0.6-1.3,0.6c-0.5,0-1-0.2-1.3-0.6c-0.6-1.7-0.6-3.6,0-5.3c0.3-0.4,0.8-0.6,1.3-0.6c0.5,0,1,0.2,1.3,0.6
		C326.6,142.3,326.6,144.2,326,145.9z M325.2,141.2c-0.1-0.2-0.3-0.3-0.5-0.3c-0.2,0-0.4,0.1-0.5,0.3c-0.3,1.4-0.3,2.8,0,4.1
		c0.1,0.2,0.3,0.3,0.5,0.3c0.2,0,0.4-0.1,0.5-0.3C325.5,143.9,325.5,142.5,325.2,141.2z M329.7,141c-0.6,0-1.1,0.4-1.1,1
		c0,0,0,0.1,0,0.1v4.2h-1v-6.2h0.9v0.7c0.1-0.2,0.3-0.3,0.4-0.4c0.3-0.2,0.6-0.3,1-0.3v0.9H329.7z M335.7,146.3v-4.6
		c0-0.6-0.3-0.9-0.7-0.9s-0.7,0.3-0.7,0.9v4.6h-1v-4.6c0.1-0.4-0.2-0.8-0.6-0.8c0,0-0.1,0-0.1,0c-0.4,0-0.7,0.3-0.7,0.9v4.6h-1v-6.2
		h0.9v0.5c0.2-0.4,0.6-0.6,1-0.6c0.5,0,0.9,0.2,1.2,0.6c0.1-0.2,0.3-0.3,0.5-0.5c0.2-0.1,0.5-0.2,0.7-0.2c0.4,0,0.8,0.1,1.1,0.4
		c0.3,0.4,0.4,0.8,0.4,1.3v4.6L335.7,146.3z M340.3,146.3v-0.6c-0.1,0.2-0.2,0.3-0.4,0.4c-0.2,0.2-0.5,0.2-0.7,0.2
		c-0.4,0-0.8-0.2-1.1-0.5c-0.3-0.4-0.4-0.9-0.4-1.4c0-0.5,0.2-1,0.5-1.4c0.4-0.3,0.8-0.5,1.3-0.4h0.6v-1c0-0.6-0.2-0.9-0.7-0.9
		c-0.2,0-0.4,0.1-0.5,0.2c-0.2,0.2-0.3,0.5-0.2,0.7h-1c0-0.5,0.1-1,0.5-1.3c0.3-0.3,0.8-0.5,1.2-0.4c0.4,0,0.9,0.1,1.2,0.4
		c0.3,0.4,0.5,0.9,0.5,1.4v4.5L340.3,146.3z M340.2,143.5h-0.5c-0.3,0-0.5,0.1-0.7,0.2c-0.2,0.2-0.3,0.5-0.3,0.9c0,0.6,0.2,1,0.8,1
		s0.8-0.4,0.8-1V143.5z M343.3,145.9c-0.4-0.4-0.6-0.9-0.5-1.4v-3.7H342v-0.8h0.7v-1.7h1v1.7h1v0.8h-1v3.6c0,0.6,0.4,0.9,1,0.9v0.9
		C344.2,146.4,343.7,146.2,343.3,145.9L343.3,145.9z M345.5,139v-1.1h1.1v1.1L345.5,139z M345.6,146.3v-6.2h1v6.2H345.6z
		 M350.9,145.9c-0.7,0.7-1.8,0.8-2.5,0.1c0,0-0.1-0.1-0.1-0.1c-0.6-1.7-0.6-3.6,0-5.3c0.7-0.7,1.8-0.8,2.5-0.1c0,0,0.1,0.1,0.1,0.1
		C351.4,142.3,351.4,144.2,350.9,145.9z M350.1,141.2c-0.1-0.2-0.3-0.3-0.5-0.3c-0.2,0-0.4,0.1-0.5,0.3c-0.3,1.4-0.3,2.8,0,4.1
		c0.1,0.2,0.3,0.3,0.5,0.3c0.2,0,0.4-0.1,0.5-0.3C350.4,143.9,350.4,142.5,350.1,141.2z M355,146.3v-4.6c0.1-0.4-0.2-0.8-0.6-0.8
		c0,0-0.1,0-0.1,0c-0.4,0-0.7,0.3-0.7,0.9v4.6h-1v-6.2h0.9v0.5c0.2-0.4,0.6-0.6,1-0.6c0.4,0,0.8,0.1,1.1,0.4
		c0.3,0.4,0.4,0.8,0.4,1.3v4.6L355,146.3z M263.1,160.2c-0.3,0.4-0.8,0.6-1.3,0.6c-0.5,0-1-0.2-1.3-0.6c-0.6-1.7-0.6-3.6,0-5.3
		c0.3-0.4,0.8-0.6,1.3-0.6c0.5,0,1,0.2,1.3,0.6C263.7,156.7,263.7,158.5,263.1,160.2z M262.3,155.5c-0.1-0.2-0.3-0.3-0.5-0.3
		c-0.2,0-0.4,0.1-0.5,0.3c-0.3,1.4-0.3,2.8,0,4.1c0.1,0.2,0.3,0.3,0.5,0.3c0.2,0,0.4-0.1,0.5-0.3
		C262.6,158.3,262.6,156.9,262.3,155.5z M265.9,155.2v5.5h-1v-5.5h-0.7v-0.8h0.8v-0.6c0-0.5,0.2-1,0.5-1.4c0.4-0.3,0.9-0.4,1.4-0.4
		v0.9c-0.5-0.1-0.9,0.2-1,0.7c0,0.1,0,0.2,0,0.3v0.6h1v0.8L265.9,155.2z M269,155.2v5.5h-1v-5.5h-0.7v-0.8h0.7v-0.6
		c0-0.5,0.2-1,0.5-1.4c0.4-0.3,0.9-0.4,1.4-0.4v0.9c-0.5-0.1-0.9,0.2-1,0.7c0,0.1,0,0.2,0,0.3v0.6h1v0.8L269,155.2z M273.8,160.3
		c-0.4-0.4-0.6-0.9-0.5-1.4v-3.7h-0.7v-0.8h0.7v-1.7h1v1.7h1v0.8h-1v3.6c0,0.6,0.4,0.9,1,0.9v0.9
		C274.8,160.8,274.2,160.6,273.8,160.3L273.8,160.3z M279.1,160.2c-0.7,0.7-1.8,0.8-2.5,0.1c0,0-0.1-0.1-0.1-0.1
		c-0.6-1.7-0.6-3.6,0-5.3c0.7-0.7,1.8-0.8,2.5-0.1c0,0,0.1,0.1,0.1,0.1C279.7,156.7,279.7,158.5,279.1,160.2z M278.3,155.5
		c-0.1-0.2-0.3-0.3-0.5-0.3c-0.2,0-0.4,0.1-0.5,0.3c-0.3,1.4-0.3,2.8,0,4.1c0.1,0.2,0.3,0.3,0.5,0.3c0.2,0,0.4-0.1,0.5-0.3
		C278.6,158.3,278.6,156.9,278.3,155.5z M285.2,160.7v-0.6c-0.1,0.2-0.2,0.3-0.4,0.4c-0.2,0.2-0.5,0.2-0.7,0.2
		c-0.4,0-0.8-0.2-1.1-0.5c-0.3-0.4-0.4-0.9-0.4-1.4c0-0.5,0.2-1,0.5-1.4c0.4-0.3,0.8-0.5,1.3-0.4h0.6v-1c0-0.6-0.2-0.9-0.7-0.9
		c-0.2,0-0.4,0.1-0.5,0.2c-0.2,0.2-0.3,0.5-0.2,0.7h-1c0-0.5,0.1-1,0.5-1.3c0.3-0.3,0.8-0.5,1.2-0.4c0.4,0,0.9,0.1,1.2,0.4
		c0.3,0.4,0.5,0.9,0.5,1.4v4.5L285.2,160.7z M285.1,157.8h-0.5c-0.3,0-0.5,0.1-0.7,0.2c-0.2,0.2-0.3,0.5-0.3,0.9c0,0.6,0.2,1,0.8,1
		s0.8-0.4,0.8-1V157.8z M287.4,153.4v-1.1h1.1v1.1H287.4z M287.4,160.7v-6.2h1v6.2H287.4z M292.1,160.7v-0.5
		c-0.1,0.2-0.2,0.3-0.4,0.4c-0.2,0.1-0.4,0.2-0.7,0.2c-0.4,0-0.8-0.2-1-0.5c-0.4-0.4-0.5-1.3-0.5-2.7s0.1-2.3,0.5-2.8
		c0.2-0.3,0.6-0.5,1-0.4c0.2,0,0.5,0.1,0.7,0.2c0.1,0.1,0.3,0.2,0.4,0.3v-2.8h1v8.5H292.1z M292.1,156.2c0-0.3-0.1-0.5-0.2-0.7
		c-0.1-0.1-0.3-0.2-0.5-0.2c-0.2,0-0.4,0.1-0.5,0.2c-0.2,0.3-0.3,0.8-0.3,2.1s0,1.8,0.3,2.1c0.1,0.2,0.3,0.3,0.5,0.3
		c0.2,0,0.4-0.1,0.5-0.2c0.2-0.2,0.3-0.5,0.2-0.7V156.2z M297.9,155.2v5.5h-1v-5.5h-0.7v-0.8h0.7v-0.6c0-0.5,0.2-1,0.5-1.4
		c0.4-0.3,0.9-0.4,1.4-0.4v0.9c-0.5-0.1-0.9,0.2-1,0.7c0,0.1,0,0.2,0,0.3v0.6h1v0.8L297.9,155.2z M302,160.7v-0.6
		c-0.1,0.2-0.2,0.3-0.4,0.4c-0.2,0.2-0.5,0.2-0.7,0.2c-0.4,0-0.8-0.2-1.1-0.5c-0.3-0.4-0.4-0.9-0.4-1.4c0-0.5,0.2-1,0.5-1.4
		c0.4-0.3,0.8-0.5,1.3-0.4h0.7v-1c0-0.6-0.3-0.9-0.7-0.9c-0.2,0-0.4,0.1-0.5,0.2c-0.2,0.2-0.2,0.5-0.2,0.7h-1c0-0.5,0.1-1,0.5-1.3
		c0.3-0.3,0.8-0.5,1.2-0.4c0.4,0,0.9,0.1,1.2,0.4c0.3,0.4,0.5,0.9,0.5,1.4v4.5L302,160.7z M302,157.8h-0.5c-0.3,0-0.5,0.1-0.7,0.2
		c-0.2,0.2-0.3,0.5-0.3,0.9c0,0.6,0.2,1,0.8,1s0.8-0.4,0.8-1V157.8z M307.1,160.4c-0.3,0.3-0.8,0.5-1.2,0.4c-0.5,0-1-0.2-1.3-0.6
		c-0.6-1.7-0.6-3.6,0-5.3c0.3-0.4,0.8-0.6,1.3-0.6c0.4,0,0.9,0.1,1.2,0.4c0.3,0.4,0.5,0.9,0.5,1.4h-1c0-0.3,0-0.5-0.2-0.7
		c-0.1-0.2-0.3-0.2-0.5-0.2c-0.2,0-0.4,0.1-0.5,0.3c-0.2,0.3-0.2,0.9-0.2,2.1c-0.1,0.7,0,1.4,0.2,2.1c0.1,0.2,0.3,0.3,0.5,0.3
		c0.2,0,0.4-0.1,0.5-0.2c0.2-0.2,0.2-0.5,0.2-0.7h1C307.6,159.5,307.4,160,307.1,160.4L307.1,160.4z M308.6,153.4v-1.1h1.1v1.1
		H308.6z M308.6,160.7v-6.2h1v6.2H308.6z M311.5,160.3c-0.4-0.3-0.6-0.9-0.5-1.4v-6.8h1v6.7c-0.1,0.4,0.2,0.9,0.7,0.9
		c0.1,0,0.2,0,0.2,0v0.9C312.4,160.7,311.9,160.6,311.5,160.3L311.5,160.3z M313.6,153.4v-1.1h1.1v1.1H313.6z M313.7,160.7v-6.2h1
		v6.2H313.7z M316.8,160.3c-0.4-0.4-0.6-0.9-0.5-1.4v-3.7h-0.7v-0.8h0.7v-1.7h1v1.7h1v0.8h-1v3.6c0,0.6,0.4,0.9,1,0.9v0.9
		C317.8,160.8,317.2,160.6,316.8,160.3L316.8,160.3z M319.1,153.4v-1.1h1.1v1.1H319.1z M319.2,160.7v-6.2h1v6.2H319.2z M322.3,157.8
		c-0.1,0.6,0,1.3,0.2,1.8c0.1,0.2,0.3,0.3,0.5,0.3c0.2,0,0.4-0.1,0.5-0.2c0.2-0.2,0.2-0.5,0.2-0.7h1c0,0.5-0.2,1-0.5,1.4
		c-0.3,0.3-0.8,0.5-1.2,0.4c-0.5,0-0.9-0.1-1.2-0.5c-0.5-0.5-0.6-1.4-0.6-2.7s0.1-2.2,0.5-2.7c0.3-0.3,0.8-0.5,1.2-0.5
		c0.5,0,0.9,0.1,1.2,0.5c0.5,0.5,0.5,1.4,0.5,2.9H322.3z M323.6,155.5c-0.1-0.2-0.3-0.3-0.5-0.2c-0.2,0-0.4,0.1-0.5,0.2
		c-0.2,0.2-0.2,0.7-0.2,1.6h1.6C323.8,156.2,323.8,155.7,323.6,155.5L323.6,155.5z M328.7,160.3c-0.7,0.6-1.8,0.6-2.5,0
		c-0.4-0.4-0.6-0.9-0.5-1.4h1c0,0.3,0.1,0.6,0.3,0.8c0.2,0.1,0.3,0.2,0.5,0.2c0.2,0,0.4-0.1,0.6-0.2c0.2-0.2,0.2-0.4,0.2-0.6
		c0-0.2,0-0.4-0.1-0.6c-0.1-0.2-0.3-0.3-0.6-0.4l-0.8-0.4c-0.3-0.2-0.6-0.4-0.9-0.7c-0.1-0.3-0.2-0.5-0.2-0.8c0-0.9,0.7-1.7,1.6-1.7
		c0,0,0.1,0,0.1,0c0.4,0,0.9,0.1,1.2,0.4c0.4,0.4,0.5,0.9,0.5,1.4h-1c0-0.3-0.1-0.5-0.2-0.8c-0.1-0.1-0.3-0.2-0.5-0.2
		c-0.2,0-0.4,0.1-0.5,0.2c-0.2,0.2-0.2,0.4-0.2,0.6c0,0.2,0,0.3,0.1,0.5c0.1,0.2,0.3,0.3,0.5,0.4l0.8,0.4c0.4,0.1,0.7,0.4,0.9,0.7
		C329.4,158.7,329.3,159.6,328.7,160.3L328.7,160.3z M336.8,160.7h-1l-0.8-4.6l-0.8,4.6h-1l-1.3-6.2h1.1l0.7,4.7l0.8-4.7h0.9
		l0.9,4.7l0.7-4.7h1.1L336.8,160.7z M338.8,153.4v-1.1h1.1v1.1H338.8z M338.9,160.7v-6.2h1v6.2H338.9z M342,160.3
		c-0.4-0.4-0.6-0.9-0.5-1.4v-3.7h-0.7v-0.8h0.7v-1.7h1v1.7h1v0.8h-1v3.6c0,0.6,0.3,0.9,1,0.9v0.9C342.9,160.8,342.4,160.6,342,160.3
		L342,160.3z M346.8,160.7v-4.6c0-0.6-0.3-0.9-0.7-0.9s-0.7,0.3-0.7,0.9v4.6h-1v-8.5h1v2.8c0.1-0.1,0.2-0.3,0.4-0.4
		c0.2-0.1,0.4-0.2,0.7-0.2c0.4,0,0.8,0.1,1,0.4c0.3,0.4,0.4,0.8,0.4,1.3v4.6H346.8z M353.6,160.7v-0.6c-0.1,0.2-0.2,0.3-0.4,0.4
		c-0.2,0.2-0.5,0.2-0.7,0.2c-0.4,0-0.8-0.2-1.1-0.5c-0.3-0.4-0.4-0.9-0.4-1.4c0-0.5,0.2-1,0.5-1.4c0.4-0.3,0.8-0.5,1.3-0.4h0.6v-1
		c0-0.6-0.2-0.9-0.7-0.9c-0.2,0-0.4,0.1-0.5,0.2c-0.2,0.2-0.3,0.5-0.2,0.7h-1c-0.1-0.9,0.6-1.7,1.4-1.8c0.1,0,0.2,0,0.2,0
		c0.4,0,0.9,0.1,1.2,0.4c0.3,0.4,0.5,0.9,0.5,1.4v4.5L353.6,160.7z M353.6,157.8H353c-0.3,0-0.5,0.1-0.7,0.2
		c-0.2,0.2-0.3,0.5-0.3,0.9c0,0.6,0.2,1,0.8,1s0.8-0.4,0.8-1V157.8z M301.4,174.7c-0.3,0.3-0.8,0.5-1.2,0.4c-0.5,0-1-0.2-1.3-0.6
		c-0.6-1.7-0.6-3.6,0-5.3c0.3-0.4,0.8-0.6,1.3-0.6c0.4,0,0.9,0.1,1.2,0.4c0.3,0.4,0.5,0.9,0.5,1.4h-1c0-0.3-0.1-0.5-0.2-0.7
		c-0.1-0.2-0.3-0.2-0.5-0.2c-0.2,0-0.4,0.1-0.5,0.3c-0.2,0.7-0.3,1.4-0.2,2.1c-0.1,0.7,0,1.4,0.2,2.1c0.1,0.2,0.3,0.3,0.5,0.3
		c0.2,0,0.4-0.1,0.5-0.2c0.2-0.2,0.2-0.5,0.2-0.7h1c0,0.5-0.2,1-0.6,1.4L301.4,174.7z M303.4,174.7c-0.4-0.3-0.6-0.9-0.5-1.4v-6.8h1
		v6.7c-0.1,0.4,0.2,0.9,0.7,0.9c0.1,0,0.2,0,0.2,0v0.9c-0.5,0.1-1.1-0.1-1.5-0.4L303.4,174.7z M305.6,167.8v-1.1h1.1v1.1H305.6z
		 M305.7,175.1v-6.2h1v6.2H305.7z M310.8,174.8c-0.3,0.3-0.8,0.5-1.2,0.4c-0.5,0-1-0.2-1.3-0.6c-0.6-1.7-0.6-3.6,0-5.3
		c0.3-0.4,0.8-0.6,1.3-0.6c0.4,0,0.9,0.1,1.2,0.4c0.3,0.4,0.5,0.9,0.5,1.4h-1c0-0.3-0.1-0.5-0.2-0.7c-0.1-0.2-0.3-0.2-0.5-0.2
		c-0.2,0-0.4,0.1-0.5,0.3c-0.2,0.7-0.3,1.4-0.2,2.1c-0.1,0.7,0,1.4,0.2,2.1c0.1,0.2,0.3,0.3,0.5,0.3c0.2,0,0.4-0.1,0.5-0.2
		c0.2-0.2,0.2-0.5,0.2-0.7h1c0,0.5-0.2,1-0.6,1.4L310.8,174.8z M315.2,175.1l-1.2-2.9l-0.7,1.1v1.9h-1v-8.5h1v5.3l1.8-3h1l-1.5,2.4
		l1.7,3.8L315.2,175.1z M317.2,175.1v-1.2h1.2v1.2H317.2z M392.6,146.3l-0.4-2h-2l-0.4,2h-1.1l2-8.5h1l2,8.5H392.6z M391.2,139.5
		l-0.8,3.9h1.6L391.2,139.5z M397,146.3v-0.5c-0.1,0.2-0.2,0.3-0.4,0.4c-0.2,0.1-0.4,0.2-0.7,0.2c-0.4,0-0.8-0.2-1-0.5
		c-0.4-0.4-0.5-1.3-0.5-2.7s0.1-2.3,0.5-2.8c0.2-0.3,0.6-0.5,1-0.4c0.2,0,0.5,0.1,0.7,0.2c0.1,0.1,0.3,0.2,0.3,0.3v-2.8h1v8.5H397z
		 M397,141.8c0-0.3-0.1-0.5-0.2-0.7c-0.1-0.1-0.3-0.2-0.5-0.2c-0.2,0-0.4,0.1-0.5,0.2c-0.2,0.3-0.2,0.8-0.2,2.1s0,1.8,0.2,2.1
		c0.1,0.2,0.3,0.3,0.5,0.3c0.2,0,0.4-0.1,0.5-0.2c0.2-0.2,0.3-0.5,0.2-0.7V141.8z M401.2,146.3h-1l-1.5-6.2h1.1l0.9,4.7l0.9-4.7h1.1
		L401.2,146.3z M406.4,145.9c-0.7,0.7-1.8,0.8-2.5,0.1c0,0-0.1-0.1-0.1-0.1c-0.6-1.7-0.6-3.6,0-5.3c0.7-0.7,1.8-0.8,2.5-0.1
		c0,0,0.1,0.1,0.1,0.1C407,142.3,407,144.1,406.4,145.9z M405.6,141.2c-0.1-0.2-0.3-0.3-0.5-0.3c-0.2,0-0.4,0.1-0.5,0.3
		c-0.3,1.4-0.3,2.8,0,4.1c0.1,0.2,0.3,0.3,0.5,0.3c0.2,0,0.4-0.1,0.5-0.3C405.9,143.9,405.9,142.5,405.6,141.2z M410.8,146
		c-0.3,0.3-0.8,0.5-1.2,0.4c-0.5,0-1-0.2-1.3-0.6c-0.6-1.7-0.6-3.6,0-5.3c0.3-0.4,0.8-0.6,1.3-0.6c0.4,0,0.9,0.1,1.2,0.4
		c0.3,0.4,0.5,0.9,0.5,1.4h-1c0-0.3,0-0.5-0.2-0.7c-0.1-0.2-0.3-0.2-0.5-0.2c-0.2,0-0.4,0.1-0.5,0.3c-0.2,0.3-0.2,0.9-0.2,2.1
		c-0.1,0.7,0,1.4,0.2,2.1c0.1,0.2,0.3,0.3,0.5,0.3c0.2,0,0.4-0.1,0.5-0.2c0.2-0.2,0.2-0.5,0.2-0.7h1c0,0.5-0.3,1-0.6,1.4L410.8,146z
		 M414.6,146.3v-0.6c-0.1,0.2-0.2,0.3-0.4,0.4c-0.2,0.2-0.5,0.2-0.7,0.2c-0.4,0-0.8-0.2-1.1-0.5c-0.3-0.4-0.4-0.9-0.4-1.4
		c0-0.5,0.2-1,0.5-1.4c0.4-0.3,0.8-0.5,1.3-0.4h0.6v-1c0-0.6-0.2-0.9-0.7-0.9c-0.2,0-0.4,0.1-0.5,0.2c-0.2,0.2-0.3,0.5-0.2,0.7h-1
		c0-0.5,0.1-1,0.5-1.3c0.3-0.3,0.8-0.5,1.2-0.4c0.4,0,0.9,0.1,1.2,0.4c0.3,0.4,0.5,0.9,0.5,1.4v4.5L414.6,146.3z M414.6,143.5H414
		c-0.3,0-0.5,0.1-0.7,0.2c-0.2,0.2-0.3,0.5-0.3,0.9c0,0.6,0.2,1,0.8,1s0.8-0.4,0.8-1V143.5z M417.6,145.9c-0.4-0.4-0.6-0.9-0.5-1.4
		v-3.7h-0.7v-0.8h0.7v-1.7h1v1.7h1v0.8h-1v3.6c0,0.6,0.3,0.9,1,0.9v0.9c-0.6,0.1-1.1-0.1-1.6-0.4L417.6,145.9z M420.8,143.5
		c-0.1,0.6,0,1.3,0.2,1.8c0.1,0.2,0.3,0.3,0.5,0.3c0.2,0,0.4-0.1,0.5-0.2c0.2-0.2,0.2-0.5,0.2-0.7h1c0,0.5-0.2,1-0.5,1.4
		c-0.3,0.3-0.8,0.5-1.2,0.4c-0.5,0-0.9-0.1-1.2-0.5c-0.5-0.5-0.5-1.4-0.5-2.7s0.1-2.2,0.5-2.7c0.7-0.6,1.8-0.6,2.5,0
		c0.5,0.5,0.5,1.4,0.5,2.9H420.8z M422.1,141.1c-0.1-0.2-0.3-0.3-0.5-0.2c-0.2,0-0.4,0.1-0.5,0.2c-0.2,0.2-0.2,0.7-0.2,1.6h1.6
		C422.2,141.8,422.1,141.3,422.1,141.1L422.1,141.1z M427,145.9c-0.3,0.3-0.8,0.5-1.3,0.5c-0.5,0-0.9-0.2-1.2-0.5
		c-0.4-0.4-0.5-0.9-0.5-1.4h1c0,0.3,0.1,0.5,0.3,0.8c0.1,0.1,0.3,0.2,0.5,0.2c0.2,0,0.4-0.1,0.6-0.2c0.2-0.2,0.2-0.4,0.2-0.6
		c0-0.2-0.1-0.4-0.2-0.6c-0.1-0.2-0.3-0.3-0.5-0.4l-0.8-0.4c-0.3-0.2-0.6-0.4-0.9-0.7c-0.1-0.2-0.2-0.5-0.2-0.8
		c0-0.5,0.2-0.9,0.5-1.3c0.7-0.6,1.7-0.6,2.4,0c0.4,0.4,0.5,0.9,0.5,1.4h-1c0-0.3-0.1-0.5-0.2-0.7c-0.1-0.1-0.3-0.2-0.5-0.2
		c-0.2,0-0.4,0.1-0.5,0.2c-0.1,0.2-0.2,0.4-0.2,0.6c0,0.2,0,0.3,0.1,0.5c0.1,0.2,0.3,0.3,0.5,0.4l0.8,0.4c0.4,0.1,0.7,0.4,0.9,0.7
		c0.2,0.3,0.3,0.6,0.3,1C427.5,145.1,427.3,145.6,427,145.9z M433.6,146c-0.3,0.3-0.8,0.5-1.2,0.4c-0.5,0-1-0.2-1.3-0.6
		c-0.6-1.7-0.6-3.6,0-5.3c0.3-0.4,0.8-0.6,1.3-0.6c0.4,0,0.9,0.1,1.2,0.4c0.3,0.4,0.5,0.9,0.5,1.4h-1c0-0.3,0-0.5-0.2-0.7
		c-0.1-0.2-0.3-0.2-0.5-0.2c-0.2,0-0.4,0.1-0.5,0.3c-0.2,0.3-0.2,0.9-0.2,2.1c-0.1,0.7,0,1.4,0.2,2.1c0.1,0.2,0.3,0.3,0.5,0.3
		c0.2,0,0.4-0.1,0.5-0.2c0.2-0.2,0.2-0.5,0.2-0.7h1C434.1,145.1,434,145.6,433.6,146L433.6,146z M437.4,146.3v-0.6
		c-0.1,0.2-0.2,0.3-0.4,0.4c-0.2,0.2-0.5,0.2-0.7,0.2c-0.4,0-0.8-0.2-1.1-0.5c-0.3-0.4-0.4-0.9-0.4-1.4c0-0.5,0.2-1,0.5-1.4
		c0.4-0.3,0.8-0.5,1.3-0.4h0.6v-1c0-0.6-0.2-0.9-0.7-0.9c-0.2,0-0.4,0.1-0.5,0.2c-0.2,0.2-0.3,0.5-0.2,0.7h-1c0-0.5,0.1-1,0.5-1.3
		c0.3-0.3,0.8-0.5,1.2-0.4c0.4,0,0.9,0.1,1.2,0.4c0.3,0.4,0.5,0.9,0.5,1.4v4.5L437.4,146.3z M437.4,143.4h-0.5
		c-0.3,0-0.5,0.1-0.7,0.2c-0.2,0.2-0.3,0.5-0.3,0.9c0,0.6,0.2,1,0.8,1s0.8-0.4,0.8-1V143.4z M442.1,146.3v-4.6
		c0-0.6-0.3-0.9-0.7-0.9s-0.7,0.3-0.7,0.9v4.6h-1v-6.2h0.9v0.5c0.1-0.2,0.2-0.3,0.4-0.4c0.2-0.1,0.4-0.2,0.7-0.2
		c0.4,0,0.8,0.1,1,0.4c0.3,0.4,0.4,0.8,0.4,1.3v4.6L442.1,146.3z M449.7,145.9c-0.2,0.3-0.6,0.5-1,0.5c-0.2,0-0.5-0.1-0.7-0.2
		c-0.1-0.1-0.3-0.2-0.4-0.4v2.8h-1v-8.5h1v0.5c0.1-0.2,0.2-0.3,0.4-0.4c0.2-0.1,0.4-0.2,0.7-0.2c0.4,0,0.8,0.2,1,0.4
		c0.4,0.5,0.5,1.3,0.5,2.8S450.1,145.5,449.7,145.9L449.7,145.9z M448.9,141.1c-0.1-0.2-0.3-0.3-0.5-0.2c-0.2,0-0.4,0.1-0.5,0.2
		c-0.2,0.2-0.3,0.4-0.2,0.7v2.8c0,0.3,0.1,0.5,0.2,0.7c0.1,0.1,0.3,0.2,0.5,0.2c0.2,0,0.4-0.1,0.5-0.3c0.2-0.3,0.2-0.8,0.2-2.1
		S449.1,141.4,448.9,141.1L448.9,141.1z M453.4,140.9c-0.6,0-1.1,0.4-1.1,1c0,0,0,0.1,0,0.1v4.2h-1v-6.2h0.9v0.7
		c0.1-0.2,0.3-0.3,0.4-0.4c0.3-0.2,0.6-0.3,1-0.3v0.9H453.4z M454.5,139v-1.1h1.1v1.1H454.5z M454.6,146.3v-6.2h1v6.2H454.6z
		 M459.4,146.3v-4.6c0-0.6-0.3-0.9-0.7-0.9s-0.7,0.3-0.7,0.9v4.6h-1v-6.2h0.9v0.5c0.1-0.2,0.2-0.3,0.4-0.4c0.2-0.1,0.4-0.2,0.7-0.2
		c0.4,0,0.8,0.1,1,0.4c0.3,0.4,0.4,0.8,0.4,1.3v4.6L459.4,146.3z M462.4,145.9c-0.4-0.4-0.6-0.9-0.5-1.4v-3.7h-0.7v-0.8h0.7v-1.7h1
		v1.7h1v0.8h-1v3.6c0,0.6,0.3,0.9,1,0.9v0.9C463.4,146.4,462.8,146.2,462.4,145.9L462.4,145.9z M469.9,145.8
		c-0.7,0.7-1.8,0.8-2.5,0.1c0,0-0.1-0.1-0.1-0.1c-0.6-1.7-0.6-3.6,0-5.3c0.7-0.7,1.8-0.8,2.5-0.1c0,0,0.1,0.1,0.1,0.1
		C470.5,142.3,470.5,144.1,469.9,145.8z M469.1,141.2c-0.1-0.2-0.3-0.3-0.5-0.3c-0.2,0-0.4,0.1-0.5,0.3c-0.3,1.4-0.3,2.8,0,4.1
		c0.1,0.2,0.3,0.3,0.5,0.3c0.2,0,0.4-0.1,0.5-0.3C469.5,143.9,469.5,142.5,469.1,141.2z M472.7,140.9v5.5h-1v-5.5H471v-0.8h0.7v-0.6
		c0-0.5,0.2-1,0.5-1.4c0.4-0.3,0.9-0.4,1.4-0.4v0.9c-0.5-0.1-0.9,0.2-1,0.7c0,0.1,0,0.2,0,0.3v0.6h1v0.8L472.7,140.9z M475.8,140.9
		v5.5h-1v-5.5h-0.7v-0.8h0.7v-0.6c0-0.5,0.2-1,0.5-1.4c0.4-0.3,0.9-0.4,1.4-0.4v0.9c-0.5-0.1-0.9,0.2-1,0.7c0,0.1,0,0.2,0,0.3v0.6h1
		v0.8L475.8,140.9z M482.1,146.3v-0.6c-0.1,0.2-0.2,0.3-0.4,0.4c-0.2,0.2-0.5,0.2-0.7,0.2c-0.4,0-0.8-0.2-1.1-0.5
		c-0.3-0.4-0.4-0.9-0.4-1.4c0-0.5,0.2-1,0.5-1.4c0.4-0.3,0.8-0.5,1.3-0.4h0.6v-1c0-0.6-0.2-0.9-0.7-0.9c-0.2,0-0.4,0.1-0.5,0.2
		c-0.2,0.2-0.3,0.5-0.2,0.7h-1c0-0.5,0.1-1,0.5-1.3c0.3-0.3,0.8-0.5,1.2-0.4c0.4,0,0.9,0.1,1.2,0.4c0.3,0.4,0.5,0.9,0.5,1.4v4.5
		L482.1,146.3z M482.1,143.4h-0.5c-0.3,0-0.5,0.1-0.7,0.2c-0.2,0.2-0.3,0.5-0.3,0.9c0,0.6,0.3,1,0.8,1s0.8-0.4,0.8-1V143.4z
		 M387.8,163v-2.8c-0.1,0.1-0.2,0.3-0.4,0.4c-0.2,0.1-0.4,0.2-0.7,0.2c-0.4,0-0.8-0.2-1-0.5c-0.4-0.5-0.5-1.3-0.5-2.7
		s0.1-2.3,0.5-2.8c0.2-0.3,0.6-0.5,1-0.4c0.2,0,0.5,0.1,0.7,0.2c0.1,0.1,0.3,0.2,0.4,0.4v-0.5h1v8.5H387.8z M387.8,156.1
		c0-0.3-0.1-0.5-0.2-0.7c-0.1-0.1-0.3-0.2-0.5-0.2c-0.2,0-0.4,0.1-0.5,0.2c-0.2,0.3-0.3,0.8-0.3,2.1s0,1.8,0.3,2.1
		c0.1,0.2,0.3,0.3,0.5,0.3c0.2,0,0.4-0.1,0.5-0.2c0.2-0.2,0.3-0.5,0.2-0.7V156.1z M392.6,160.7v-0.5c-0.2,0.4-0.6,0.6-1,0.6
		c-0.4,0-0.8-0.1-1.1-0.4c-0.3-0.4-0.4-0.8-0.4-1.3v-4.6h1v4.6c0,0.6,0.3,0.9,0.8,0.9s0.7-0.3,0.7-0.9v-4.6h1v6.2L392.6,160.7z
		 M394.8,153.4v-1.1h1.2v1.1H394.8z M394.9,160.7v-6.2h1v6.2H394.9z M400,160.3c-0.3,0.3-0.8,0.5-1.2,0.4c-0.5,0-1-0.2-1.3-0.6
		c-0.6-1.7-0.6-3.6,0-5.3c0.3-0.4,0.8-0.6,1.3-0.6c0.4,0,0.9,0.1,1.2,0.4c0.3,0.4,0.5,0.9,0.5,1.4h-1c0-0.3,0-0.5-0.2-0.7
		c-0.1-0.2-0.3-0.2-0.5-0.2c-0.2,0-0.4,0.1-0.5,0.3c-0.2,0.3-0.2,0.9-0.2,2.1c-0.1,0.7,0,1.4,0.2,2.1c0.1,0.2,0.3,0.3,0.5,0.3
		c0.2,0,0.4-0.1,0.5-0.2c0.2-0.2,0.2-0.5,0.2-0.7h1C400.5,159.5,400.4,160,400,160.3L400,160.3z M404.4,160.7l-1.2-2.9l-0.7,1.1v1.9
		h-1v-8.5h1v5.3l1.8-3h1l-1.5,2.4l1.6,3.8L404.4,160.7z M405.9,157.8v-0.9h2.4v0.9H405.9z M411.7,155.3c-0.6,0-1.1,0.4-1.1,1
		c0,0,0,0.1,0,0.1v4.2h-1v-6.2h0.9v0.7c0.1-0.2,0.3-0.3,0.4-0.4c0.3-0.2,0.6-0.3,1-0.3v0.9H411.7z M413.5,157.8
		c-0.1,0.6,0,1.3,0.3,1.8c0.1,0.2,0.3,0.3,0.5,0.3c0.2,0,0.4-0.1,0.5-0.2c0.2-0.2,0.2-0.5,0.2-0.7h1c0,0.5-0.2,1-0.5,1.4
		c-0.3,0.3-0.8,0.5-1.2,0.4c-0.5,0-0.9-0.1-1.2-0.5c-0.5-0.5-0.5-1.4-0.5-2.7s0.1-2.2,0.5-2.7c0.3-0.3,0.8-0.5,1.2-0.5
		c0.5,0,0.9,0.1,1.2,0.5c0.5,0.5,0.5,1.4,0.5,2.9H413.5z M414.9,155.5c-0.1-0.2-0.3-0.3-0.6-0.2c-0.2,0-0.4,0.1-0.5,0.2
		c-0.2,0.2-0.2,0.7-0.2,1.6h1.6C415.1,156.2,415.1,155.7,414.9,155.5L414.9,155.5z M418.4,155.2v5.5h-1v-5.5h-0.7v-0.8h0.7v-0.6
		c0-0.5,0.2-1,0.5-1.4c0.4-0.3,0.9-0.4,1.4-0.4v0.9c-0.5-0.1-0.9,0.2-1,0.7c0,0.1,0,0.2,0,0.3v0.6h1v0.8L418.4,155.2z M421,157.8
		c-0.1,0.6,0,1.3,0.2,1.8c0.1,0.2,0.3,0.3,0.5,0.3c0.2,0,0.4-0.1,0.5-0.2c0.2-0.2,0.2-0.5,0.2-0.7h1c0,0.5-0.2,1-0.5,1.4
		c-0.3,0.3-0.8,0.5-1.2,0.4c-0.5,0-0.9-0.1-1.2-0.5c-0.5-0.5-0.6-1.4-0.6-2.7s0.1-2.2,0.5-2.7c0.3-0.3,0.8-0.5,1.2-0.5
		c0.5,0,0.9,0.1,1.2,0.5c0.5,0.5,0.5,1.4,0.5,2.9H421z M422.3,155.5c-0.1-0.2-0.3-0.3-0.5-0.2c-0.2,0-0.4,0.1-0.5,0.2
		c-0.2,0.2-0.2,0.7-0.2,1.6h1.6C422.5,156.2,422.5,155.7,422.3,155.5L422.3,155.5z M426.7,155.3c-0.6,0-1.1,0.4-1.1,1
		c0,0,0,0.1,0,0.1v4.2h-1v-6.2h0.9v0.7c0.1-0.2,0.3-0.3,0.4-0.4c0.3-0.2,0.6-0.3,1-0.3v0.9H426.7z M428.6,157.8
		c-0.1,0.6,0,1.3,0.3,1.8c0.1,0.2,0.3,0.3,0.5,0.3c0.2,0,0.4-0.1,0.5-0.2c0.2-0.2,0.2-0.5,0.2-0.7h1c0,0.5-0.2,1-0.5,1.4
		c-0.3,0.3-0.8,0.5-1.2,0.4c-0.5,0-0.9-0.1-1.2-0.5c-0.5-0.5-0.5-1.4-0.5-2.7s0.1-2.2,0.5-2.7c0.7-0.6,1.8-0.6,2.5,0
		c0.5,0.5,0.5,1.4,0.5,2.9H428.6z M430,155.5c-0.1-0.2-0.3-0.3-0.5-0.2c-0.2,0-0.4,0.1-0.5,0.2c-0.2,0.2-0.2,0.7-0.2,1.6h1.6
		C430.2,156.2,430.1,155.7,430,155.5L430,155.5z M434.8,160.7v-4.6c0.1-0.4-0.2-0.8-0.7-0.9c0,0-0.1,0-0.1,0c-0.4,0-0.7,0.3-0.7,0.9
		v4.6h-1v-6.2h0.9v0.5c0.2-0.4,0.6-0.6,1-0.6c0.4,0,0.8,0.1,1.1,0.4c0.3,0.4,0.4,0.8,0.4,1.3v4.6L434.8,160.7z M439.8,160.3
		c-0.3,0.3-0.8,0.5-1.2,0.4c-0.5,0-1-0.2-1.3-0.6c-0.6-1.7-0.6-3.6,0-5.3c0.3-0.4,0.8-0.6,1.3-0.6c0.4,0,0.9,0.1,1.2,0.4
		c0.3,0.4,0.5,0.9,0.5,1.4h-1c0-0.3,0-0.5-0.2-0.7c-0.1-0.2-0.3-0.2-0.5-0.2c-0.2,0-0.4,0.1-0.5,0.3c-0.2,0.3-0.2,0.9-0.2,2.1
		c-0.1,0.7,0,1.4,0.2,2.1c0.1,0.2,0.3,0.3,0.5,0.3c0.2,0,0.4-0.1,0.5-0.2c0.2-0.2,0.2-0.5,0.2-0.7h1
		C440.3,159.5,440.2,160,439.8,160.3L439.8,160.3z M442.2,157.8c-0.1,0.6,0,1.3,0.2,1.8c0.1,0.2,0.3,0.3,0.6,0.3
		c0.2,0,0.4-0.1,0.5-0.2c0.2-0.2,0.2-0.5,0.2-0.7h1c0,0.5-0.2,1-0.5,1.4c-0.3,0.3-0.8,0.5-1.2,0.4c-0.5,0-0.9-0.1-1.2-0.5
		c-0.5-0.5-0.5-1.4-0.5-2.7s0.1-2.2,0.5-2.7c0.3-0.3,0.8-0.5,1.2-0.5c0.5,0,0.9,0.1,1.2,0.5c0.5,0.5,0.5,1.4,0.5,2.9H442.2z
		 M443.5,155.5c-0.1-0.2-0.3-0.3-0.5-0.2c-0.2,0-0.4,0.1-0.5,0.2c-0.2,0.2-0.2,0.7-0.2,1.6h1.6C443.7,156.2,443.7,155.7,443.5,155.5
		L443.5,155.5z M448.6,160.3c-0.4-0.3-0.6-0.9-0.6-1.4v-6.8h1v6.7c-0.1,0.4,0.2,0.9,0.7,0.9c0.1,0,0.2,0,0.2,0v0.9
		C449.5,160.7,449,160.6,448.6,160.3L448.6,160.3z M450.7,153.4v-1.1h1.1v1.1H450.7z M450.8,160.7v-6.2h1v6.2H450.8z M455.9,160.3
		c-0.3,0.3-0.8,0.5-1.3,0.5c-0.5,0-0.9-0.2-1.2-0.5c-0.4-0.4-0.6-0.9-0.5-1.4h1c0,0.3,0.1,0.6,0.3,0.8c0.1,0.1,0.3,0.2,0.5,0.2
		c0.2,0,0.4-0.1,0.6-0.2c0.2-0.2,0.2-0.4,0.2-0.6c0-0.2-0.1-0.4-0.2-0.6c-0.1-0.2-0.3-0.3-0.5-0.4l-0.8-0.4
		c-0.3-0.2-0.6-0.4-0.9-0.7c-0.1-0.3-0.2-0.5-0.2-0.8c0-0.5,0.2-0.9,0.5-1.3c0.3-0.3,0.8-0.5,1.2-0.5c0.4,0,0.9,0.1,1.2,0.4
		c0.4,0.4,0.5,0.9,0.5,1.4h-1c0-0.3-0.1-0.5-0.2-0.8c-0.3-0.3-0.8-0.3-1.1,0c-0.2,0.2-0.2,0.4-0.2,0.6c0,0.2,0,0.3,0.1,0.5
		c0.1,0.2,0.3,0.3,0.5,0.4l0.8,0.4c0.4,0.1,0.7,0.4,0.9,0.7C456.6,158.7,456.5,159.7,455.9,160.3L455.9,160.3z M458.2,160.3
		c-0.4-0.4-0.6-0.9-0.5-1.4v-3.7H457v-0.8h0.7v-1.7h1v1.7h1v0.8h-1v3.6c0,0.6,0.4,0.9,1,0.9v0.9
		C459.2,160.7,458.7,160.6,458.2,160.3L458.2,160.3z M464,155.2v5.5h-1v-5.5h-0.7v-0.8h0.7v-0.6c0-0.5,0.2-1,0.5-1.4
		c0.4-0.3,0.9-0.4,1.4-0.4v0.9c-0.5-0.1-0.9,0.2-1,0.7c0,0.1,0,0.2,0,0.3v0.6h1v0.8L464,155.2z M468.7,160.2
		c-0.3,0.4-0.8,0.6-1.3,0.6c-0.5,0-1-0.2-1.3-0.6c-0.6-1.7-0.6-3.6,0-5.3c0.3-0.4,0.8-0.6,1.3-0.6c0.5,0,1,0.2,1.3,0.6
		C469.3,156.7,469.3,158.5,468.7,160.2z M467.9,155.5c-0.1-0.2-0.3-0.3-0.5-0.3c-0.2,0-0.4,0.1-0.5,0.3c-0.3,1.4-0.3,2.8,0,4.1
		c0.1,0.2,0.3,0.3,0.5,0.3c0.2,0,0.4-0.1,0.5-0.3C468.2,158.3,468.2,156.9,467.9,155.5z M472.4,155.3c-0.6,0-1.1,0.4-1.1,1
		c0,0,0,0.1,0,0.1v4.2h-1v-6.2h0.9v0.7c0.1-0.2,0.3-0.3,0.4-0.4c0.3-0.2,0.6-0.3,1-0.3v0.9H472.4z M476.6,160.3
		c-0.4-0.4-0.6-0.9-0.5-1.4v-3.7h-0.7v-0.8h0.7v-1.7h1v1.7h1v0.8h-1v3.6c0,0.6,0.3,0.9,1,0.9v0.9C477.5,160.8,477,160.6,476.6,160.3
		L476.6,160.3z M481.4,160.7v-4.6c0-0.6-0.3-0.9-0.7-0.9s-0.7,0.3-0.7,0.9v4.6h-1v-8.5h1v2.8c0.1-0.1,0.2-0.3,0.4-0.4
		c0.2-0.1,0.4-0.2,0.7-0.2c0.4,0,0.8,0.2,1,0.4c0.3,0.4,0.4,0.8,0.4,1.3v4.6H481.4z M484.4,157.8c-0.1,0.6,0,1.3,0.2,1.8
		c0.1,0.2,0.3,0.3,0.5,0.3c0.2,0,0.4-0.1,0.5-0.2c0.2-0.2,0.2-0.4,0.2-0.7h1c0,0.5-0.2,1-0.5,1.4c-0.3,0.3-0.8,0.5-1.2,0.4
		c-0.5,0-0.9-0.1-1.2-0.5c-0.5-0.5-0.5-1.4-0.5-2.7s0.1-2.2,0.5-2.7c0.3-0.3,0.8-0.5,1.2-0.5c0.5,0,0.9,0.1,1.2,0.5
		c0.5,0.5,0.5,1.4,0.5,2.9L484.4,157.8z M485.8,155.5c-0.1-0.2-0.3-0.3-0.5-0.2c-0.2,0-0.4,0.1-0.5,0.2c-0.2,0.2-0.2,0.7-0.2,1.6
		h1.6C486,156.2,486,155.7,485.8,155.5L485.8,155.5z M427.8,174.7c-0.2,0.3-0.6,0.5-1,0.5c-0.2,0-0.5-0.1-0.7-0.2
		c-0.1-0.1-0.3-0.2-0.4-0.4v0.5h-0.9v-8.5h1v2.8c0.1-0.1,0.2-0.2,0.4-0.3c0.2-0.1,0.4-0.2,0.7-0.2c0.4,0,0.8,0.2,1,0.4
		c0.4,0.5,0.5,1.3,0.5,2.8S428.2,174.3,427.8,174.7L427.8,174.7z M427.1,169.9c-0.1-0.2-0.3-0.3-0.5-0.3c-0.2,0-0.4,0.1-0.5,0.2
		c-0.2,0.2-0.3,0.5-0.2,0.7v2.8c0,0.3,0.1,0.5,0.2,0.7c0.1,0.1,0.3,0.2,0.5,0.2c0.2,0,0.4-0.1,0.5-0.3c0.2-0.3,0.2-0.8,0.2-2.1
		S427.3,170.2,427.1,169.9L427.1,169.9z M429.4,167.8v-1.1h1.1v1.1H429.4z M429.5,175.1v-6.2h1v6.2H429.5z M434.2,175.1v-4.6
		c0.1-0.4-0.2-0.8-0.6-0.8c0,0-0.1,0-0.1,0c-0.4,0-0.7,0.3-0.7,0.9v4.6h-1v-6.2h0.9v0.5c0.2-0.4,0.6-0.6,1-0.6
		c0.4,0,0.8,0.1,1.1,0.4c0.3,0.4,0.4,0.8,0.4,1.3v4.6L434.2,175.1z M438.9,175.1v-0.5c-0.1,0.2-0.2,0.3-0.4,0.4
		c-0.2,0.1-0.4,0.2-0.7,0.2c-0.4,0-0.8-0.2-1-0.5c-0.4-0.4-0.5-1.3-0.5-2.7s0.1-2.3,0.5-2.8c0.2-0.3,0.6-0.5,1-0.4
		c0.2,0,0.5,0.1,0.7,0.2c0.1,0.1,0.3,0.2,0.3,0.3v-2.8h1v8.5H438.9z M438.9,170.6c0-0.3-0.1-0.5-0.2-0.7c-0.1-0.1-0.3-0.2-0.5-0.2
		c-0.2,0-0.4,0.1-0.5,0.3c-0.2,0.3-0.2,0.8-0.2,2.1s0,1.8,0.2,2.1c0.1,0.2,0.3,0.3,0.5,0.3c0.2,0,0.4-0.1,0.5-0.2
		c0.2-0.2,0.3-0.5,0.2-0.7V170.6z M442,172.2c-0.1,0.6,0,1.3,0.2,1.8c0.1,0.2,0.3,0.3,0.6,0.3c0.2,0,0.4-0.1,0.5-0.2
		c0.2-0.2,0.2-0.5,0.2-0.7h1c0,0.5-0.2,1-0.5,1.4c-0.3,0.3-0.8,0.5-1.2,0.4c-0.5,0-0.9-0.1-1.2-0.5c-0.5-0.5-0.5-1.4-0.5-2.7
		s0.1-2.2,0.5-2.7c0.3-0.3,0.8-0.5,1.2-0.5c0.5,0,0.9,0.1,1.2,0.5c0.5,0.5,0.5,1.4,0.5,2.9H442z M443.3,169.9
		c-0.1-0.2-0.3-0.3-0.5-0.3c-0.2,0-0.4,0.1-0.5,0.3c-0.2,0.2-0.2,0.7-0.2,1.6h1.6C443.5,170.6,443.5,170.1,443.3,169.9L443.3,169.9z
		 M447.8,169.7c-0.6,0-1.1,0.4-1.1,1c0,0,0,0.1,0,0.1v4.2h-1v-6.2h0.9v0.7c0.1-0.2,0.3-0.3,0.4-0.4c0.3-0.2,0.6-0.3,1-0.3v0.9H447.8
		z M448.5,175.1v-1.2h1.2v1.2H448.5z"/>
</g>
</svg>
