<svg xmlns="http://www.w3.org/2000/svg" viewBox="0 0 487.33 175.67"><defs><style>.cls-1{fill:none;}.cls-2{fill:#4559a8;}.cls-3{fill:#111;}</style></defs><title>icons1</title><g id="Layer_2" data-name="Layer 2"><g id="Layer_1-2" data-name="Layer 1"><rect class="cls-1" width="487.33" height="175.67"/><path class="cls-2" d="M436.94,29.86c-27.83,0-50.39,22.14-50.39,49.45s22.56,49.44,50.39,49.44,50.39-22.14,50.39-49.44S464.77,29.86,436.94,29.86Zm34.41,65.32h-17l5.2,21.32a.63.63,0,0,1-.12.53.6.6,0,0,1-.49.24h-44.4a.6.6,0,0,1-.49-.24.63.63,0,0,1-.12-.53l5.2-21.32H402.53a4.45,4.45,0,0,1-4.43-4.36V68a4.45,4.45,0,0,1,4.43-4.36H422V51.92a2.38,2.38,0,0,1,.66-1.69l8.41-8.09a2.66,2.66,0,0,1,1.71-.8H449a2.43,2.43,0,0,1,2.53,2.49V63.59h19.83A4.46,4.46,0,0,1,475.78,68V90.82A4.46,4.46,0,0,1,471.35,95.18ZM453,94.67l-2.11-9.45H422.69l-2.11,9.46a.06.06,0,0,1,0,0l-5.2,21.3h42.82L453,94.72A.09.09,0,0,1,453,94.67Zm-25.71-3.23h18.87a.63.63,0,0,1,0,1.25H427.27a.63.63,0,1,1,0-1.25ZM425.52,100H448.2a.63.63,0,0,1,0,1.25H425.52a.63.63,0,1,1,0-1.25Zm25.37,10H422.67a.63.63,0,1,1,0-1.25h28.22a.63.63,0,1,1,0,1.25Zm-27.6-38.59V51.92a1.11,1.11,0,0,1,.29-.79L432,43a1.4,1.4,0,0,1,.84-.44H449a1.2,1.2,0,0,1,1.28,1.24V71.37A1.2,1.2,0,0,1,449,72.61H424.57A1.2,1.2,0,0,1,423.29,71.37Zm48.06-6.53H451.52v6.53A2.42,2.42,0,0,1,449,73.86H424.57A2.42,2.42,0,0,1,422,71.37V64.84H402.53A3.18,3.18,0,0,0,399.35,68V90.82a3.18,3.18,0,0,0,3.18,3.11h16.94l1.94-8.71h-3.18a.63.63,0,1,1,0-1.25h37.1a.63.63,0,1,1,0,1.25h-3.18l1.94,8.71h17.26a3.19,3.19,0,0,0,3.18-3.11V68A3.19,3.19,0,0,0,471.35,64.84Zm-5.55,4.51h-5.71a.63.63,0,0,1,0-1.25h5.71a.63.63,0,1,1,0,1.25ZM333.56,88.72a21,21,0,0,1,.27,10.14,42.5,42.5,0,0,1-3.57,11.21c-1.81,4-3.76,6.73-6,8.34a1.14,1.14,0,0,1-.66.22H300.28a1.17,1.17,0,0,1-.83-.37c-6-6.9-11.6-16.45-16.65-28.37-.91-2.3-1.14-4-.74-5.49A7,7,0,0,1,288.29,80a4.74,4.74,0,0,1,1.24.16c2.08.52,5.61,4.72,6.72,7.09a.62.62,0,0,0,1.19-.26V61.46A4.86,4.86,0,0,1,302.38,57h0a4.19,4.19,0,0,1,4.19,4.48V78.54a.63.63,0,0,0,.27.51.59.59,0,0,0,.56.08,8.05,8.05,0,0,1,2.62-.49,7.15,7.15,0,0,1,3.65,1,4.76,4.76,0,0,1,1.16,1.2.62.62,0,0,0,.81.15,5.36,5.36,0,0,1,2.66-.77,7,7,0,0,1,3.6,1,4.71,4.71,0,0,1,1.72,2,.63.63,0,0,0,.68.33,14.28,14.28,0,0,1,2.47-.2h0A7.66,7.66,0,0,1,333.56,88.72Zm24.92-9.41c0,27.3-22.56,49.44-50.39,49.44S257.7,106.61,257.7,79.31s22.56-49.45,50.39-49.45S358.48,52,358.48,79.31ZM312.36,55.82a.64.64,0,0,0,.55.31.54.54,0,0,0,.3-.08l9-5.1a.62.62,0,1,0-.62-1.08l-9,5.1A.62.62,0,0,0,312.36,55.82Zm-11-6.26a.63.63,0,0,0,1.25,0V39.36a.63.63,0,0,0-1.25,0ZM281.8,51l9,5.1a.54.54,0,0,0,.3.08.64.64,0,0,0,.55-.31.62.62,0,0,0-.24-.85l-9-5.1a.63.63,0,0,0-.86.23A.62.62,0,0,0,281.8,51Zm52.95,37.39A9,9,0,0,0,326.83,82a15.81,15.81,0,0,0-2.31.15,5.62,5.62,0,0,0-2-2.08,8.24,8.24,0,0,0-4.24-1.14,6.36,6.36,0,0,0-2.8.69,4.67,4.67,0,0,0-1.17-1.09,8.43,8.43,0,0,0-6.5-.83V61.45a5.44,5.44,0,0,0-5.44-5.72h0a6.05,6.05,0,0,0-6.19,5.73V84.7c-1.64-2.37-4.31-5.27-6.35-5.78-3.8-1-8,2-9,5.13-.49,1.73-.24,3.73.78,6.31,5.11,12.06,10.78,21.72,16.87,28.72a2.43,2.43,0,0,0,1.77.8h23.37a2.42,2.42,0,0,0,1.39-.47c2.37-1.73,4.45-4.61,6.36-8.82a43.9,43.9,0,0,0,3.66-11.52A22.32,22.32,0,0,0,334.75,88.34Zm-157.28,7,1.77,5.11L181,95.37v0l11.82-34.08a13.75,13.75,0,0,0-.59-10.64A14.13,14.13,0,0,0,184,43.37a15.41,15.41,0,0,0-4.8-.78h-.08a14.21,14.21,0,0,0-14.32,14,13.59,13.59,0,0,0,.8,4.68l11.8,34.08Zm-6-39.33a7.8,7.8,0,1,1,7.8,7.67A7.74,7.74,0,0,1,171.44,56.06Zm7.8,6.42a6.42,6.42,0,1,1,6.55-6.42A6.49,6.49,0,0,1,179.24,62.48Zm29.52,43.61c0,4.15-11.23,9.93-29.52,9.93s-29.52-5.78-29.52-9.93,10.95-9.35,26.71-9.89l2.22,6.41a.65.65,0,0,0,1.18,0l2.23-6.41C197.82,96.74,208.76,101.81,208.76,106.09ZM179.24,29.86c-27.83,0-50.39,22.14-50.39,49.45s22.56,49.44,50.39,49.44,50.39-22.14,50.39-49.44S207.07,29.86,179.24,29.86Zm0,87.41c-18.4,0-30.77-5.78-30.77-11.18,0-5.6,12.27-10.53,27.53-11.13L164.46,61.65a14.74,14.74,0,0,1-.87-5.1,15.46,15.46,0,0,1,15.57-15.21h.17a16,16,0,0,1,5.12.85,15.38,15.38,0,0,1,8.94,7.89A14.91,14.91,0,0,1,194,61.67L182.48,95c15.26.6,27.53,5.53,27.53,11.13C210,111.49,197.65,117.27,179.24,117.27ZM50.92,81v24c-5.35-1.82-12.61-4-19-4q-.63,0-1.23,0l6-38.35a28.8,28.8,0,0,1,7.39.8ZM57,59.65a3.93,3.93,0,1,0-3.93,3.84A3.89,3.89,0,0,0,57,59.65ZM53.05,83,44.61,61.43a6.79,6.79,0,0,1-.48-2.51c0-4.19,4-7.59,8.87-7.59h0a10.27,10.27,0,0,1,3,.44,8.45,8.45,0,0,1,5.25,4.29,6.62,6.62,0,0,1,.19,5.39l-2.31,5.87v0Zm0-18.25a5.09,5.09,0,1,0-5.18-5.09A5.14,5.14,0,0,0,53.05,64.74ZM22.2,65l-11.83,37.2a32.54,32.54,0,0,0,5.49.45,122.17,122.17,0,0,0,12.8-1.42l.77-.12L35.35,63.1C31.86,64.2,24.12,64.89,22.2,65Zm78.59,14.27c0,27.3-22.57,49.44-50.4,49.44S0,106.61,0,79.31,22.56,29.86,50.39,29.86,100.79,52,100.79,79.31Zm-9,21L79.45,62.1a.62.62,0,0,0-.39-.4.65.65,0,0,0-.56.07,58.87,58.87,0,0,1-12.63,5.32h0a15.79,15.79,0,0,1-5.25,0l2-5.18a7.89,7.89,0,0,0-.22-6.4,9.72,9.72,0,0,0-6-4.94,11.52,11.52,0,0,0-3.3-.49H53c-5.55,0-10.09,4-10.12,8.83a7.82,7.82,0,0,0,.57,3l.06.16A30,30,0,0,0,36,61.51a.49.49,0,0,0-.17.06c-2.21,1.14-11,2-14.17,2.26a.61.61,0,0,0-.54.43L9,102.53A.61.61,0,0,0,9,103a.64.64,0,0,0,.42.3,33.46,33.46,0,0,0,6.42.6,121.38,121.38,0,0,0,13-1.44l1.17-.17h0c6.86-.55,15.43,2.07,21.28,4.1h0a55.8,55.8,0,0,0,15.2,2.08,23.19,23.19,0,0,0,6.44-.71h0c3-1,17.8-6.51,18.43-6.75A.64.64,0,0,0,91.82,100.27Zm-31.67-32L53.63,84.93a.65.65,0,0,1-1.16,0l-.3-.77v21.23c4.62,1.45,15.09,2.58,19.93,1.37L65.49,68.43A18.39,18.39,0,0,1,60.15,68.28Zm6.56-.1,6.6,38.2c3.61-1.23,14.53-5.32,17.13-6.29L78.5,63.24A66.54,66.54,0,0,1,66.71,68.18Z"/><path class="cls-3" d="M159.13,15.33a6.47,6.47,0,0,1-5-1.88L155.51,12a4.79,4.79,0,0,0,3.66,1.38c1.88,0,2.94-.8,2.94-2.2a1.82,1.82,0,0,0-.56-1.48,2.81,2.81,0,0,0-1.56-.6l-1.68-.24a4.81,4.81,0,0,1-2.68-1.14A3.54,3.54,0,0,1,154.57,5c0-2.49,1.8-4.17,4.76-4.17a5.9,5.9,0,0,1,4.42,1.62l-1.36,1.36a4.25,4.25,0,0,0-3.14-1.1c-1.68,0-2.58.92-2.58,2.23a1.62,1.62,0,0,0,.52,1.31,2.7,2.7,0,0,0,1.56.65l1.7.26a4.63,4.63,0,0,1,2.64,1.06,3.79,3.79,0,0,1,1.16,2.92C164.25,13.77,162.13,15.33,159.13,15.33ZM170,17.23a3.28,3.28,0,0,1-.74,1.26,2.81,2.81,0,0,1-2.08.74h-.82V17.39h.52c.86,0,1.16-.26,1.46-1.08l.56-1.58-3.54-9.67h2.16l2.42,7.15,2.36-7.15h2.18Zm9.28-1.9A5.58,5.58,0,0,1,175,13.87l1.34-1.34a3.94,3.94,0,0,0,2.92,1.06c1.26,0,2.22-.44,2.22-1.4,0-.7-.38-1.1-1.36-1.2l-1.62-.14c-1.92-.18-3-1-3-2.8,0-2,1.7-3.1,3.82-3.1a5.48,5.48,0,0,1,3.76,1.14l-1.28,1.3a3.83,3.83,0,0,0-2.5-.74c-1.24,0-1.84.52-1.84,1.3s.4,1.06,1.4,1.16l1.42.12c2.1.18,3.2,1.1,3.2,2.88C183.49,14.23,181.69,15.33,179.27,15.33Zm9.54-.12A2.64,2.64,0,0,1,186,12.39V6.63h-1.16V5.06H186V2.16h2v2.9h2V6.63h-2v5.66a1,1,0,0,0,1.12,1.18H190v1.74ZM194,10.73c0,1.76.9,2.84,2.58,2.84a3,3,0,0,0,2.46-1l1.3,1.22a4.76,4.76,0,0,1-3.8,1.58C194,15.33,192,14,192,10.13c0-3.3,1.7-5.18,4.3-5.18s4.3,2,4.3,4.92v.86Zm4.28-2.8a2.22,2.22,0,0,0-4,0A3.15,3.15,0,0,0,194,9.31h4.56A3.45,3.45,0,0,0,198.31,7.93Zm17.36,7.28V9a2,2,0,0,0-2-2.26,2,2,0,0,0-2.1,2.16v6.28h-2V9a2,2,0,0,0-2-2.26A2,2,0,0,0,205.35,9v6.18h-2V5.06h2v1A3.67,3.67,0,0,1,208,5a3.24,3.24,0,0,1,2.88,1.48A3.85,3.85,0,0,1,214.07,5a3.67,3.67,0,0,1,2.56.92,3.77,3.77,0,0,1,1.08,2.86v6.48Zm18.08,0-3-6h-2.7v6h-2.16V1h5.52a4.08,4.08,0,0,1,4.42,4.17A3.74,3.74,0,0,1,233,8.91l3.28,6.3ZM231.25,2.9h-3.2V7.37h3.2a2.17,2.17,0,0,0,2.42-2.23A2.18,2.18,0,0,0,231.25,2.9Zm8.4,7.83c0,1.76.9,2.84,2.58,2.84a3,3,0,0,0,2.46-1l1.3,1.22a4.76,4.76,0,0,1-3.8,1.58c-2.54,0-4.56-1.34-4.56-5.2,0-3.3,1.7-5.18,4.3-5.18s4.3,2,4.3,4.92v.86Zm4.28-2.8a2.22,2.22,0,0,0-4,0,3.15,3.15,0,0,0-.26,1.38h4.56A3.45,3.45,0,0,0,243.93,7.93Zm8.28,7.4A5.58,5.58,0,0,1,248,13.87l1.34-1.34a3.94,3.94,0,0,0,2.92,1.06c1.26,0,2.22-.44,2.22-1.4,0-.7-.38-1.1-1.36-1.2l-1.62-.14c-1.92-.18-3-1-3-2.8,0-2,1.7-3.1,3.82-3.1A5.48,5.48,0,0,1,256,6.09l-1.28,1.3a3.83,3.83,0,0,0-2.5-.74c-1.24,0-1.84.52-1.84,1.3s.4,1.06,1.4,1.16l1.42.12c2.1.18,3.2,1.1,3.2,2.88C256.43,14.23,254.63,15.33,252.21,15.33Zm13.48-1.2a4.1,4.1,0,0,1-3,1.2,4.06,4.06,0,0,1-3-1.2c-1-1-1.2-2.28-1.2-4a5.32,5.32,0,0,1,1.2-4,4.06,4.06,0,0,1,3-1.2,4.1,4.1,0,0,1,3,1.2,5.32,5.32,0,0,1,1.2,4C266.89,11.85,266.65,13.13,265.69,14.13Zm-1.54-6.78a2.07,2.07,0,0,0-1.5-.58,2,2,0,0,0-1.48.58,3.92,3.92,0,0,0-.7,2.78,3.92,3.92,0,0,0,.7,2.78,2,2,0,0,0,1.48.6,2.08,2.08,0,0,0,1.5-.6,3.92,3.92,0,0,0,.7-2.78A3.92,3.92,0,0,0,264.15,7.35Zm11.62,7.86v-1a3.63,3.63,0,0,1-2.7,1.14,3.52,3.52,0,0,1-2.5-.92,3.72,3.72,0,0,1-1-2.86V5.06h2v6.19a2,2,0,0,0,2,2.26,2,2,0,0,0,2.1-2.26V5.06h2V15.21Zm10.82-7.76a1.88,1.88,0,0,0-1.52-.68,2.09,2.09,0,0,0-2,2.28v6.16h-2V5.06h2V6.17A3.37,3.37,0,0,1,285.71,5a3.14,3.14,0,0,1,2.42,1Zm6.6,7.88c-2.28,0-4.52-1.4-4.52-5.2S290.91,5,293.19,5a4.16,4.16,0,0,1,3.34,1.42l-1.4,1.36a2.36,2.36,0,0,0-1.94-1,2.29,2.29,0,0,0-1.88.9,3.75,3.75,0,0,0-.6,2.46,3.81,3.81,0,0,0,.6,2.48,2.29,2.29,0,0,0,1.88.9,2.36,2.36,0,0,0,1.94-1l1.4,1.34A4.18,4.18,0,0,1,293.19,15.33Zm6.92-4.6c0,1.76.9,2.84,2.58,2.84a3,3,0,0,0,2.46-1l1.3,1.22a4.76,4.76,0,0,1-3.8,1.58c-2.54,0-4.56-1.34-4.56-5.2,0-3.3,1.7-5.18,4.3-5.18s4.3,2,4.3,4.92v.86Zm4.28-2.8a2.22,2.22,0,0,0-4,0,3.15,3.15,0,0,0-.26,1.38h4.56A3.45,3.45,0,0,0,304.39,7.93Zm15.8,7.28h-5.76V1H320c2.64,0,4.3,1.5,4.3,3.91a3.23,3.23,0,0,1-1.92,3,3.39,3.39,0,0,1,2.14,3.3C324.49,13.81,322.71,15.21,320.19,15.21Zm-.4-12.31h-3.2V7h3.2c1.38,0,2.32-.73,2.32-2S321.17,2.9,319.79,2.9Zm.2,6h-3.4v4.34H320a2.11,2.11,0,0,0,2.34-2.18A2.1,2.1,0,0,0,320,8.93Zm7.4-5.87V.9h2.16V3.06Zm.06,12.15V5.06h2V15.21Zm11.46,0V9a2,2,0,0,0-2-2.26A2,2,0,0,0,334.77,9v6.18h-2V5.06h2v1A3.63,3.63,0,0,1,337.43,5a3.52,3.52,0,0,1,2.5.92,3.72,3.72,0,0,1,1,2.86v6.48Zm11,0V14.13a3.12,3.12,0,0,1-2.68,1.2,3.51,3.51,0,0,1-2.48-.9c-1-1-1.14-2.62-1.14-4.3s.16-3.28,1.14-4.28a3.46,3.46,0,0,1,2.46-.9,3.14,3.14,0,0,1,2.66,1.14V1h2V15.21Zm-2.14-8.44c-1.86,0-2.12,1.56-2.12,3.36s.26,3.38,2.12,3.38,2.1-1.58,2.1-3.38S349.61,6.77,347.77,6.77Zm8.88,4c0,1.76.9,2.84,2.58,2.84a3,3,0,0,0,2.46-1l1.3,1.22a4.76,4.76,0,0,1-3.8,1.58c-2.54,0-4.56-1.34-4.56-5.2,0-3.3,1.7-5.18,4.3-5.18s4.3,2,4.3,4.92v.86Zm4.28-2.8a2.22,2.22,0,0,0-4,0,3.15,3.15,0,0,0-.26,1.38h4.56A3.45,3.45,0,0,0,360.93,7.93Zm10.58-.48A1.88,1.88,0,0,0,370,6.77a2.09,2.09,0,0,0-2,2.28v6.16h-2V5.06h2V6.17A3.37,3.37,0,0,1,370.63,5a3.14,3.14,0,0,1,2.42,1ZM112.64,6.62v9H114V9.53l5.37-8.46H116Zm-.41,0v9h-1.37V9.53l-5.37-8.46h3.38Zm-1.79-4.5a2,2,0,1,1,4,0,2,2,0,1,1-4,0m32.38,13.74c-4.52,0-6.18-2.24-6.18-5.85V1.07h3.18v9.16c0,2.18,1.22,3.13,3,3.13a2.79,2.79,0,0,0,3-3.13V1.07H149v9c0,3.55-1.69,5.77-6.2,5.77M130.59,8.44c0-3.63-1.44-5.15-3.68-5.15s-3.73,1.52-3.73,5.15,1.48,5,3.73,5,3.68-1.43,3.68-5m-10.81,0c0-4.68,2.8-7.55,7.13-7.55S134,3.74,134,8.4s-2.74,7.46-7.08,7.46-7.13-2.82-7.13-7.44M257.13,146.3v-8.54h1v8.54Zm6-.6a1.88,1.88,0,0,1-1.46.6h-2v-8.54h2a1.84,1.84,0,0,1,1.46.6c.55.58.61,1.35.61,3.67S263.69,145.11,263.14,145.7Zm-.77-6.7a.89.89,0,0,0-.73-.32h-.9v6.69h.9a.89.89,0,0,0,.73-.32c.33-.4.35-1.06.35-3S262.7,139.4,262.37,139Zm7.13,7.3v-.56a1.52,1.52,0,0,1-.36.42,1.08,1.08,0,0,1-.73.23,1.3,1.3,0,0,1-1.07-.47,2.1,2.1,0,0,1-.39-1.39,1.84,1.84,0,0,1,.55-1.4,1.77,1.77,0,0,1,1.32-.42h.63v-1c0-.58-.25-.89-.73-.89a.63.63,0,0,0-.48.2,1,1,0,0,0-.23.72h-1a1.78,1.78,0,0,1,.48-1.32,1.75,1.75,0,0,1,1.2-.45,1.66,1.66,0,0,1,1.21.43,1.85,1.85,0,0,1,.49,1.37v4.51Zm-.05-2.88h-.55a.93.93,0,0,0-.7.23,1.21,1.21,0,0,0-.28.85c0,.64.25,1,.75,1s.78-.4.78-1Zm4.74,2.88v-4.57c0-.57-.33-.85-.74-.85s-.73.28-.73.85v4.57h-1v-6.22h.93v.48a1.25,1.25,0,0,1,.38-.38,1.4,1.4,0,0,1,1.73.26,1.74,1.74,0,0,1,.37,1.29v4.57Zm4.62,0v-.48a1.22,1.22,0,0,1-.37.38,1.3,1.3,0,0,1-.67.19,1.23,1.23,0,0,1-1-.47c-.4-.45-.46-1.29-.46-2.73s.06-2.28.46-2.75a1.24,1.24,0,0,1,1-.45,1.27,1.27,0,0,1,.67.18,1.4,1.4,0,0,1,.35.34v-2.75h1v8.54Zm0-4.54a.94.94,0,0,0-.24-.7.7.7,0,0,0-1,.05c-.22.27-.25.8-.25,2.08s0,1.81.25,2.07a.63.63,0,0,0,.52.26.66.66,0,0,0,.51-.2,1,1,0,0,0,.24-.72Zm6.68-.84a1.07,1.07,0,0,0-1.13,1.14v4.24h-1v-6.22h.94v.66a1.5,1.5,0,0,1,.43-.44,1.74,1.74,0,0,1,1-.31v.93Zm1.89,2.5a3.42,3.42,0,0,0,.25,1.83.65.65,0,0,0,.55.27.66.66,0,0,0,.55-.24,1,1,0,0,0,.21-.72h1a2,2,0,0,1-.51,1.38,1.63,1.63,0,0,1-1.22.45,1.55,1.55,0,0,1-1.24-.48c-.46-.49-.55-1.42-.55-2.72s.09-2.23.54-2.72a1.56,1.56,0,0,1,1.23-.48,1.54,1.54,0,0,1,1.22.48c.47.49.55,1.41.55,2.95Zm1.33-2.31a.66.66,0,0,0-.55-.25.63.63,0,0,0-.54.25c-.2.23-.24.68-.24,1.58h1.57C288.93,141.79,288.88,141.34,288.69,141.11Zm5.07,4.79a1.65,1.65,0,0,1-1.27.49,1.68,1.68,0,0,1-1.24-.48,1.83,1.83,0,0,1-.53-1.36h1a1,1,0,0,0,.26.75.82.82,0,0,0,.55.22.81.81,0,0,0,.59-.23.91.91,0,0,0,.24-.62,1,1,0,0,0-.16-.57,1.39,1.39,0,0,0-.55-.44l-.8-.41a2,2,0,0,1-.85-.72,1.59,1.59,0,0,1-.19-.81,1.71,1.71,0,0,1,.51-1.26,1.86,1.86,0,0,1,2.44,0,1.82,1.82,0,0,1,.5,1.37h-1a1,1,0,0,0-.23-.74.67.67,0,0,0-.53-.22.77.77,0,0,0-.54.2.87.87,0,0,0-.22.6,1,1,0,0,0,.1.46,1.27,1.27,0,0,0,.52.41l.79.39a2,2,0,0,1,.88.71,1.78,1.78,0,0,1,.26,1A1.75,1.75,0,0,1,293.76,145.9Zm4.61,0a1.2,1.2,0,0,1-1,.47,1.27,1.27,0,0,1-.67-.18,1.45,1.45,0,0,1-.35-.35v2.76h-1v-8.54h.95v.48a1.34,1.34,0,0,1,.37-.38,1.21,1.21,0,0,1,.67-.19,1.25,1.25,0,0,1,1,.45c.4.47.46,1.31.46,2.75S298.77,145.46,298.37,145.92Zm-.78-4.81a.66.66,0,0,0-.53-.25.65.65,0,0,0-.5.2.9.9,0,0,0-.24.7v2.84a.93.93,0,0,0,.24.72.65.65,0,0,0,.5.2.64.64,0,0,0,.53-.26c.22-.26.25-.79.25-2.07S297.81,141.38,297.59,141.11Zm5.29,4.71a1.51,1.51,0,0,1-1.32.57,1.49,1.49,0,0,1-1.3-.57,7.75,7.75,0,0,1,0-5.26,1.49,1.49,0,0,1,1.3-.57,1.51,1.51,0,0,1,1.32.57,7.91,7.91,0,0,1,0,5.26Zm-.76-4.69a.68.68,0,0,0-.56-.27.65.65,0,0,0-.54.27,8.61,8.61,0,0,0,0,4.12.65.65,0,0,0,.54.27.68.68,0,0,0,.56-.27,9,9,0,0,0,0-4.12ZM307,146.3v-4.57c0-.57-.33-.85-.74-.85s-.73.28-.73.85v4.57h-1v-6.22h.94v.48a1.25,1.25,0,0,1,.38-.38,1.4,1.4,0,0,1,1.73.26,1.74,1.74,0,0,1,.37,1.29v4.57Zm5-.4a1.68,1.68,0,0,1-1.27.49,1.7,1.7,0,0,1-1.25-.48,1.83,1.83,0,0,1-.53-1.36h1a1,1,0,0,0,.26.75.84.84,0,0,0,.56.22.77.77,0,0,0,.58-.23.87.87,0,0,0,.24-.62,1,1,0,0,0-.15-.57,1.39,1.39,0,0,0-.55-.44l-.81-.41a2,2,0,0,1-.85-.72,1.59,1.59,0,0,1-.19-.81,1.71,1.71,0,0,1,.51-1.26,1.69,1.69,0,0,1,1.23-.47,1.66,1.66,0,0,1,1.21.44,1.82,1.82,0,0,1,.5,1.37h-1a1,1,0,0,0-.22-.74.7.7,0,0,0-.53-.22.73.73,0,0,0-.54.2.84.84,0,0,0-.23.6,1,1,0,0,0,.11.46,1.17,1.17,0,0,0,.51.41l.8.39a2,2,0,0,1,.87.71,1.94,1.94,0,0,1-.26,2.29Zm2.36-2.48a3.52,3.52,0,0,0,.25,1.83.65.65,0,0,0,.56.27.68.68,0,0,0,.55-.24,1.08,1.08,0,0,0,.2-.72h1a1.94,1.94,0,0,1-.5,1.38,1.63,1.63,0,0,1-1.22.45,1.54,1.54,0,0,1-1.24-.48c-.47-.49-.55-1.42-.55-2.72s.08-2.23.54-2.72a1.79,1.79,0,0,1,2.44,0c.47.49.56,1.41.56,2.95Zm1.33-2.31a.65.65,0,0,0-.55-.25.64.64,0,0,0-.54.25c-.19.23-.24.68-.24,1.58h1.57C315.9,141.79,315.85,141.34,315.66,141.11Zm5.08,4.79a1.68,1.68,0,0,1-1.27.49,1.7,1.7,0,0,1-1.25-.48,1.83,1.83,0,0,1-.53-1.36h1a1,1,0,0,0,.27.75.82.82,0,0,0,.55.22.81.81,0,0,0,.59-.23.91.91,0,0,0,.23-.62,1,1,0,0,0-.15-.57,1.39,1.39,0,0,0-.55-.44l-.81-.41a2.08,2.08,0,0,1-.85-.72,1.59,1.59,0,0,1-.19-.81,1.68,1.68,0,0,1,.52-1.26,1.85,1.85,0,0,1,2.43,0,1.82,1.82,0,0,1,.5,1.37h-1a1,1,0,0,0-.22-.74.7.7,0,0,0-.53-.22.73.73,0,0,0-.54.2.84.84,0,0,0-.23.6,1,1,0,0,0,.11.46,1.15,1.15,0,0,0,.52.41l.79.39a2,2,0,0,1,.87.71,1.9,1.9,0,0,1-.26,2.29Zm5-5.06v5.46h-1v-5.46h-.71v-.76h.71v-.6a1.68,1.68,0,0,1,.54-1.38,2.06,2.06,0,0,1,1.39-.39v.87a.84.84,0,0,0-1,.94v.56h1v.76Zm4.62,5a1.53,1.53,0,0,1-1.32.57,1.5,1.5,0,0,1-1.31-.57,7.75,7.75,0,0,1,0-5.26,1.5,1.5,0,0,1,1.31-.57,1.53,1.53,0,0,1,1.32.57,8.08,8.08,0,0,1,0,5.26Zm-.77-4.69a.67.67,0,0,0-.55-.27.64.64,0,0,0-.54.27,8.61,8.61,0,0,0,0,4.12.64.64,0,0,0,.54.27.67.67,0,0,0,.55-.27,9,9,0,0,0,0-4.12Zm4.49-.21a1.07,1.07,0,0,0-1.13,1.14v4.24h-1v-6.22h.93v.66a1.8,1.8,0,0,1,.43-.44,1.76,1.76,0,0,1,1-.31v.93Zm5.66,5.38v-.56a1.52,1.52,0,0,1-.36.42,1.08,1.08,0,0,1-.73.23,1.3,1.3,0,0,1-1.07-.47,2.1,2.1,0,0,1-.39-1.39,1.84,1.84,0,0,1,.55-1.4,1.77,1.77,0,0,1,1.32-.42h.63v-1c0-.58-.25-.89-.73-.89a.63.63,0,0,0-.48.2,1,1,0,0,0-.23.72h-1a1.78,1.78,0,0,1,.48-1.32A1.75,1.75,0,0,1,339,140a1.66,1.66,0,0,1,1.21.43,1.85,1.85,0,0,1,.49,1.37v4.51Zm0-2.88h-.55a.89.89,0,0,0-.69.23,1.21,1.21,0,0,0-.29.85c0,.64.25,1,.75,1s.78-.4.78-1Zm2.21-4.44v-1.13h1.14V139Zm.09,7.32v-6.22h1v6.22Zm4.66,0v-.48a1.22,1.22,0,0,1-.37.38,1.3,1.3,0,0,1-.67.19,1.23,1.23,0,0,1-1-.47c-.4-.45-.46-1.29-.46-2.73s.06-2.28.46-2.75a1.24,1.24,0,0,1,1-.45,1.27,1.27,0,0,1,.67.18,1.4,1.4,0,0,1,.35.34v-2.75h1v8.54Zm0-4.54a.94.94,0,0,0-.24-.7.7.7,0,0,0-1,.05c-.22.27-.25.8-.25,2.08s0,1.81.25,2.07a.63.63,0,0,0,.52.26.66.66,0,0,0,.51-.2,1,1,0,0,0,.24-.72Zm2.26-2.78v-1.13h1.14V139Zm.08,7.32v-6.22h1v6.22Zm4.79,0v-4.57a.75.75,0,0,0-.75-.85c-.41,0-.73.28-.73.85v4.57h-1v-6.22h.93v.48a1.41,1.41,0,0,1,.39-.38,1.25,1.25,0,0,1,.67-.19,1.31,1.31,0,0,1,1.06.45,1.74,1.74,0,0,1,.37,1.29v4.57Zm5.56.14a2.25,2.25,0,0,1-.5,1.74,1.71,1.71,0,0,1-1.22.48,1.83,1.83,0,0,1-1.25-.44,1.8,1.8,0,0,1-.47-1.35h1a1.09,1.09,0,0,0,.21.75.73.73,0,0,0,.52.2.71.71,0,0,0,.53-.23c.18-.19.24-.51.24-1.09v-.95a1.17,1.17,0,0,1-.35.35,1.05,1.05,0,0,1-.64.19,1.25,1.25,0,0,1-1-.45c-.4-.45-.49-1.14-.49-2.61s.09-2.14.49-2.6a1.26,1.26,0,0,1,1-.44,1.15,1.15,0,0,1,.67.19,1.57,1.57,0,0,1,.35.33v-.43h.94Zm-1-4.68a.9.9,0,0,0-.24-.7.65.65,0,0,0-.5-.2.66.66,0,0,0-.53.25c-.22.27-.25.75-.25,1.94s0,1.66.25,1.94a.7.7,0,0,0,1,0,.92.92,0,0,0,.24-.71ZM267.76,160.7h-1l-.84-4.55-.81,4.55h-1l-1.28-6.22H264l.71,4.68.83-4.68h.87l.88,4.68.72-4.68h1.1Zm2-7.32v-1.13h1.14v1.13Zm.09,7.32v-6.22h1v6.22Zm3.1-.39a1.72,1.72,0,0,1-.54-1.39v-3.68h-.7v-.76h.7v-1.7h1v1.7h1v.76h-1v3.65c0,.65.34.93,1,.93v.88A2.06,2.06,0,0,1,272.91,160.31Zm4.8.39v-4.57c0-.58-.33-.87-.74-.87s-.73.29-.73.87v4.57h-1v-8.54h1v2.77a1.17,1.17,0,0,1,.35-.35,1.25,1.25,0,0,1,.67-.19,1.28,1.28,0,0,1,1.05.45,1.73,1.73,0,0,1,.37,1.29v4.57Zm5.19-.48a1.52,1.52,0,0,1-1.32.57,1.5,1.5,0,0,1-1.31-.57,7.75,7.75,0,0,1,0-5.26,1.5,1.5,0,0,1,1.31-.57,1.52,1.52,0,0,1,1.32.57,8.08,8.08,0,0,1,0,5.26Zm-.77-4.69a.66.66,0,0,0-.55-.27.64.64,0,0,0-.54.27,8.61,8.61,0,0,0,0,4.12.64.64,0,0,0,.54.27.66.66,0,0,0,.55-.27,9,9,0,0,0,0-4.12ZM287,160.7v-.48a1.23,1.23,0,0,1-1.05.57,1.31,1.31,0,0,1-1.06-.45,1.74,1.74,0,0,1-.37-1.29v-4.57h1v4.57c0,.58.34.87.75.87s.73-.29.73-.87v-4.57h1v6.22Zm3.08-.39a1.69,1.69,0,0,1-.54-1.39v-3.68h-.71v-.76h.71v-1.7h1v1.7h1v.76h-1v3.65c0,.65.35.93,1,.93v.88A2,2,0,0,1,290,160.31Zm6.69-5a1.07,1.07,0,0,0-1.13,1.14v4.24h-1v-6.22h.94v.66a1.39,1.39,0,0,1,.43-.44,1.74,1.74,0,0,1,1-.31v.93Zm1.9,2.5a3.42,3.42,0,0,0,.25,1.83.65.65,0,0,0,.55.27.66.66,0,0,0,.55-.24,1,1,0,0,0,.21-.72h1a2,2,0,0,1-.51,1.38,1.6,1.6,0,0,1-1.22.45,1.52,1.52,0,0,1-1.23-.48c-.47-.49-.56-1.42-.56-2.72s.09-2.23.54-2.72a1.56,1.56,0,0,1,1.23-.48,1.54,1.54,0,0,1,1.22.48c.47.49.55,1.41.55,2.95Zm1.33-2.31a.66.66,0,0,0-.55-.25.63.63,0,0,0-.54.25c-.19.23-.24.68-.24,1.58h1.57C300.19,156.19,300.14,155.74,300,155.51Zm2.28,2.26v-.92h2.35v.92Zm4.42,2.54a1.69,1.69,0,0,1-.54-1.39v-3.68h-.71v-.76h.71v-1.7h1v1.7h1v.76h-1v3.65c0,.65.35.93,1,.93v.88A2,2,0,0,1,306.65,160.31Zm4.45-5a1.07,1.07,0,0,0-1.13,1.14v4.24h-1v-6.22h.93v.66a1.54,1.54,0,0,1,.44-.44,1.71,1.71,0,0,1,1-.31v.93Zm3.36,5.38v-.56a1.52,1.52,0,0,1-.36.42,1.1,1.1,0,0,1-.73.23,1.3,1.3,0,0,1-1.07-.47,2.09,2.09,0,0,1-.4-1.39,1.84,1.84,0,0,1,.55-1.4,1.79,1.79,0,0,1,1.32-.42h.64v-1c0-.58-.25-.89-.73-.89a.63.63,0,0,0-.48.2,1,1,0,0,0-.23.72h-1a1.78,1.78,0,0,1,.48-1.32,1.73,1.73,0,0,1,1.2-.45,1.66,1.66,0,0,1,1.21.43,1.85,1.85,0,0,1,.49,1.37v4.51Zm0-2.88h-.55a.92.92,0,0,0-.7.23,1.21,1.21,0,0,0-.29.85c0,.64.25,1,.76,1s.78-.4.78-1Zm4.73,2.88v-.48a1.41,1.41,0,0,1-.39.38,1.25,1.25,0,0,1-.67.19,1.28,1.28,0,0,1-1.05-.45,1.7,1.7,0,0,1-.38-1.29v-4.57h1v4.57c0,.58.34.87.75.87s.73-.29.73-.87v-4.57h1v6.22Zm7.18,0v-4.57c0-.57-.32-.86-.73-.86s-.73.29-.73.86v4.57h-1v-4.57a.76.76,0,0,0-.75-.86c-.4,0-.73.29-.73.86v4.57h-1v-6.22h.94V155a1.23,1.23,0,0,1,1.05-.57,1.45,1.45,0,0,1,1.19.64,2.1,2.1,0,0,1,.49-.45,1.45,1.45,0,0,1,.71-.19,1.31,1.31,0,0,1,1.11.45,1.69,1.69,0,0,1,.36,1.29v4.57Zm4.56,0v-.56a1.37,1.37,0,0,1-.36.42,1.06,1.06,0,0,1-.73.23,1.28,1.28,0,0,1-1.06-.47,2.09,2.09,0,0,1-.4-1.39,1.84,1.84,0,0,1,.55-1.4,1.77,1.77,0,0,1,1.32-.42h.64v-1c0-.58-.26-.89-.74-.89a.65.65,0,0,0-.48.2,1,1,0,0,0-.22.72h-1a1.74,1.74,0,0,1,.48-1.32,1.71,1.71,0,0,1,1.19-.45,1.67,1.67,0,0,1,1.22.43,1.85,1.85,0,0,1,.49,1.37v4.51Zm0-2.88h-.56a.89.89,0,0,0-.69.23,1.21,1.21,0,0,0-.29.85c0,.64.25,1,.76,1s.78-.4.78-1Zm3.06,2.49a1.69,1.69,0,0,1-.54-1.39v-3.68h-.71v-.76h.71v-1.7h1v1.7h1v.76h-1v3.65c0,.65.35.93,1,.93v.88A2,2,0,0,1,333.9,160.31Zm2.27-6.93v-1.13h1.14v1.13Zm.08,7.32v-6.22h1v6.22Zm1.94,0V160l2-4.6h-1.82v-.87h2.9v.75l-2,4.59h2v.88Zm3.93-7.32v-1.13h1.14v1.13Zm.08,7.32v-6.22h1v6.22Zm4.79,0v-4.57a.76.76,0,0,0-.75-.86c-.4,0-.73.29-.73.86v4.57h-1v-6.22h.94V155a1.23,1.23,0,0,1,1-.57,1.31,1.31,0,0,1,1.06.45,1.73,1.73,0,0,1,.37,1.29v4.57Zm5.57.14a2.25,2.25,0,0,1-.51,1.74,1.71,1.71,0,0,1-1.22.48,1.79,1.79,0,0,1-1.25-.45,1.77,1.77,0,0,1-.47-1.34h1a1.05,1.05,0,0,0,.21.74.74.74,0,0,0,1,0,1.59,1.59,0,0,0,.24-1.09v-1a1.26,1.26,0,0,1-.34.35,1.08,1.08,0,0,1-.65.19,1.25,1.25,0,0,1-1-.45c-.4-.45-.49-1.14-.49-2.61s.09-2.14.49-2.6a1.26,1.26,0,0,1,1-.44,1.15,1.15,0,0,1,.67.19,1.57,1.57,0,0,1,.35.33v-.43h.95Zm-1-4.68a.94.94,0,0,0-.24-.71.68.68,0,0,0-.5-.19.66.66,0,0,0-.53.25c-.21.27-.25.75-.25,1.94s0,1.66.25,1.94a.7.7,0,0,0,1,.05.94.94,0,0,0,.24-.71ZM354,160.7v-1.19h1.19v1.19ZM4.51,144.61A1.87,1.87,0,0,1,3.05,144c-.55-.61-.63-1.38-.63-3.74s.08-3.13.63-3.74a1.87,1.87,0,0,1,1.46-.62,1.89,1.89,0,0,1,1.38.52,2.37,2.37,0,0,1,.59,1.68h-1c0-.57-.16-1.28-1-1.28a.85.85,0,0,0-.71.32c-.3.41-.34,1.1-.34,3.12s0,2.71.34,3.12a.85.85,0,0,0,.71.32c.6,0,1-.49,1-1.18v-1.72h-1v-.85h2v2.53A1.92,1.92,0,0,1,4.51,144.61Zm5.68-.1V144a1.45,1.45,0,0,1-.39.39,1.25,1.25,0,0,1-.67.19,1.28,1.28,0,0,1-1.05-.46,1.66,1.66,0,0,1-.38-1.28V138.3h1v4.57a.76.76,0,0,0,.75.86c.41,0,.73-.29.73-.86V138.3h1v6.21Zm2.22-7.31v-1.13h1.14v1.13Zm.08,7.31V138.3h1v6.21Zm4.67,0V144a1.38,1.38,0,0,1-.37.39,1.37,1.37,0,0,1-.68.19,1.28,1.28,0,0,1-1-.47c-.39-.46-.45-1.29-.45-2.73s.06-2.28.45-2.75a1.26,1.26,0,0,1,1-.46,1.3,1.3,0,0,1,.68.18,1.42,1.42,0,0,1,.34.35V136h1v8.54Zm0-4.53a.92.92,0,0,0-.24-.71.68.68,0,0,0-.5-.19.66.66,0,0,0-.53.25c-.21.27-.25.79-.25,2.08s0,1.81.25,2.07a.63.63,0,0,0,.53.25.68.68,0,0,0,.5-.19.93.93,0,0,0,.24-.72Zm3.12,1.65a3.43,3.43,0,0,0,.26,1.84.65.65,0,0,0,.55.26.68.68,0,0,0,.55-.24,1,1,0,0,0,.2-.72h1a2,2,0,0,1-.51,1.38,1.64,1.64,0,0,1-1.22.46,1.55,1.55,0,0,1-1.24-.48c-.47-.49-.55-1.43-.55-2.72s.08-2.23.54-2.73A1.57,1.57,0,0,1,21,138.2a1.59,1.59,0,0,1,1.23.48c.47.5.55,1.42.55,2.95Zm1.34-2.3a.67.67,0,0,0-.56-.25.64.64,0,0,0-.54.25c-.19.23-.24.67-.24,1.57h1.58C21.83,140,21.78,139.56,21.59,139.33Zm5.07,4.79a1.7,1.7,0,0,1-1.27.49,1.72,1.72,0,0,1-1.25-.48,1.85,1.85,0,0,1-.52-1.37h.95a1.05,1.05,0,0,0,.27.76.81.81,0,0,0,.55.21.77.77,0,0,0,.59-.23.89.89,0,0,0,.24-.62,1,1,0,0,0-.16-.56,1.5,1.5,0,0,0-.55-.45l-.8-.4a2.12,2.12,0,0,1-.86-.72,1.63,1.63,0,0,1-.19-.82,1.72,1.72,0,0,1,.52-1.26,1.69,1.69,0,0,1,1.22-.47,1.66,1.66,0,0,1,1.21.45,1.76,1.76,0,0,1,.51,1.36h-1a1,1,0,0,0-.23-.74.68.68,0,0,0-.53-.21.73.73,0,0,0-.54.2.85.85,0,0,0-.23.6.91.91,0,0,0,.11.45,1.2,1.2,0,0,0,.52.41l.79.4a2,2,0,0,1,.88.71,1.86,1.86,0,0,1,.26,1A1.82,1.82,0,0,1,26.66,144.12Zm5-5.06v5.45h-1v-5.45H30v-.76h.71v-.6a1.67,1.67,0,0,1,.54-1.38,2.06,2.06,0,0,1,1.39-.39v.87a.84.84,0,0,0-1,.94v.56h1v.76Zm4.62,5a1.53,1.53,0,0,1-1.32.58,1.51,1.51,0,0,1-1.31-.58,7.88,7.88,0,0,1,0-5.25A1.51,1.51,0,0,1,35,138.2a1.53,1.53,0,0,1,1.32.58,8.05,8.05,0,0,1,0,5.25Zm-.77-4.69a.68.68,0,0,0-.55-.26.66.66,0,0,0-.54.26,8.65,8.65,0,0,0,0,4.13.63.63,0,0,0,.54.26.65.65,0,0,0,.55-.26,9,9,0,0,0,0-4.13Zm4.49-.2a1.07,1.07,0,0,0-1.13,1.14v4.23h-1V138.3h.94V139a1.42,1.42,0,0,1,.43-.45,1.74,1.74,0,0,1,1-.31v.94Zm5.86,5.37v-4.57a.76.76,0,0,0-.75-.86c-.41,0-.73.29-.73.86v4.57h-1V136h1v2.77a1.13,1.13,0,0,1,.35-.34,1.26,1.26,0,0,1,.67-.2,1.28,1.28,0,0,1,1,.46,1.66,1.66,0,0,1,.38,1.28v4.57Zm5.18-.48a1.53,1.53,0,0,1-1.32.58,1.51,1.51,0,0,1-1.31-.58,7.88,7.88,0,0,1,0-5.25,1.51,1.51,0,0,1,1.31-.58,1.53,1.53,0,0,1,1.32.58,8.05,8.05,0,0,1,0,5.25Zm-.77-4.69a.68.68,0,0,0-.55-.26.66.66,0,0,0-.54.26,8.65,8.65,0,0,0,0,4.13.63.63,0,0,0,.54.26.65.65,0,0,0,.55-.26,9,9,0,0,0,0-4.13Zm6.78,5.17h-1L55.26,140l-.82,4.54h-1l-1.29-6.21h1.11L54,143l.82-4.68h.88l.87,4.68.72-4.68h1.11Zm5.05-.38a1.72,1.72,0,0,1-.54-1.39v-3.68h-.7v-.76h.7v-1.7h1v1.7h1v.76h-1v3.64c0,.66.34.94,1,.94v.87A2.11,2.11,0,0,1,62.13,144.13Zm5.25-.1a1.54,1.54,0,0,1-1.32.58,1.51,1.51,0,0,1-1.31-.58,7.72,7.72,0,0,1,0-5.25,1.51,1.51,0,0,1,1.31-.58,1.54,1.54,0,0,1,1.32.58,8.05,8.05,0,0,1,0,5.25Zm-.77-4.69a.69.69,0,0,0-.55-.26.66.66,0,0,0-.54.26,8.65,8.65,0,0,0,0,4.13.63.63,0,0,0,.54.26.66.66,0,0,0,.55-.26,9,9,0,0,0,0-4.13Zm7.65,4.8a1.22,1.22,0,0,1-1,.47,1.27,1.27,0,0,1-.67-.18,1.93,1.93,0,0,1-.35-.35v2.76h-1V138.3h1v.48a1.34,1.34,0,0,1,.37-.38,1.15,1.15,0,0,1,.67-.2,1.25,1.25,0,0,1,1,.46c.4.47.46,1.31.46,2.75S74.66,143.67,74.26,144.14Zm-.78-4.81a.65.65,0,0,0-.52-.25.69.69,0,0,0-.51.19,1,1,0,0,0-.24.71v2.84a1,1,0,0,0,.24.72.69.69,0,0,0,.51.19.63.63,0,0,0,.52-.25c.22-.26.26-.79.26-2.07S73.7,139.6,73.48,139.33Zm4.5-.19a1.07,1.07,0,0,0-1.12,1.14v4.23h-1V138.3h.93V139a1.68,1.68,0,0,1,.43-.45,1.76,1.76,0,0,1,1-.31v.94ZM82,144a1.53,1.53,0,0,1-1.32.58,1.49,1.49,0,0,1-1.3-.58,7.72,7.72,0,0,1,0-5.25,1.49,1.49,0,0,1,1.3-.58,1.53,1.53,0,0,1,1.32.58A7.88,7.88,0,0,1,82,144Zm-.77-4.69a.68.68,0,0,0-.55-.26.66.66,0,0,0-.54.26,8.65,8.65,0,0,0,0,4.13.63.63,0,0,0,.54.26.65.65,0,0,0,.55-.26,9,9,0,0,0,0-4.13Zm4.34,5.17h-1L83,138.3h1.06L85,143,86,138.3H87Zm2.13-7.31v-1.13h1.14v1.13Zm.09,7.31V138.3h1v6.21Zm4.66,0V144a1.26,1.26,0,0,1-.37.39,1.3,1.3,0,0,1-.67.19,1.26,1.26,0,0,1-1-.47c-.4-.46-.46-1.29-.46-2.73s.06-2.28.46-2.75a1.24,1.24,0,0,1,1-.46,1.27,1.27,0,0,1,.67.18,1.66,1.66,0,0,1,.35.35V136h1v8.54Zm0-4.53a.92.92,0,0,0-.24-.71.68.68,0,0,0-.5-.19.66.66,0,0,0-.53.25c-.22.27-.25.79-.25,2.08s0,1.81.25,2.07a.63.63,0,0,0,.53.25.68.68,0,0,0,.5-.19.93.93,0,0,0,.24-.72Zm3.12,1.65a3.57,3.57,0,0,0,.25,1.84.66.66,0,0,0,.55.26.69.69,0,0,0,.56-.24,1.08,1.08,0,0,0,.2-.72h1a1.91,1.91,0,0,1-.5,1.38,1.64,1.64,0,0,1-1.23.46,1.53,1.53,0,0,1-1.23-.48c-.47-.49-.55-1.43-.55-2.72s.08-2.23.54-2.73a1.79,1.79,0,0,1,2.44,0c.47.5.56,1.42.56,2.95Zm1.33-2.3a.66.66,0,0,0-.55-.25.64.64,0,0,0-.54.25c-.19.23-.24.67-.24,1.57h1.57C97.11,140,97.06,139.56,96.87,139.33Zm-89.3,19.1a1.53,1.53,0,0,1-1.32.58,1.51,1.51,0,0,1-1.31-.58,7.88,7.88,0,0,1,0-5.25,1.51,1.51,0,0,1,1.31-.58,1.53,1.53,0,0,1,1.32.58,8.05,8.05,0,0,1,0,5.25Zm-.77-4.69a.65.65,0,0,0-.55-.26.63.63,0,0,0-.54.26,8.65,8.65,0,0,0,0,4.13.63.63,0,0,0,.54.26.65.65,0,0,0,.55-.26,9,9,0,0,0,0-4.13Zm4.83,5.17v-.48a1.45,1.45,0,0,1-.39.39,1.25,1.25,0,0,1-.67.19,1.32,1.32,0,0,1-1.06-.46,1.7,1.7,0,0,1-.37-1.28V152.7h1v4.57a.76.76,0,0,0,.75.86c.41,0,.73-.29.73-.86V152.7h1v6.21Zm3.07-.38a1.71,1.71,0,0,1-.54-1.39v-3.69h-.71v-.75h.71V151h1v1.7h1v.75h-1v3.65c0,.66.35.94,1,.94v.87A2.08,2.08,0,0,1,14.7,158.53Zm4.45-5A1.07,1.07,0,0,0,18,154.68v4.23h-1V152.7H18v.66a1.42,1.42,0,0,1,.43-.45,1.74,1.74,0,0,1,1-.31v.94Zm1.9,2.49a3.46,3.46,0,0,0,.25,1.84.73.73,0,0,0,1.1,0,1,1,0,0,0,.21-.72h1a2,2,0,0,1-.51,1.38,1.64,1.64,0,0,1-1.22.46,1.55,1.55,0,0,1-1.24-.48c-.46-.49-.55-1.43-.55-2.72s.09-2.24.54-2.73a1.56,1.56,0,0,1,1.23-.48,1.54,1.54,0,0,1,1.22.48c.47.49.55,1.42.55,2.95Zm1.33-2.3a.63.63,0,0,0-.55-.25.6.6,0,0,0-.54.25c-.2.23-.24.67-.24,1.57h1.57C22.62,154.4,22.57,154,22.38,153.73ZM27,158.91v-.55a1.69,1.69,0,0,1-.36.42,1.17,1.17,0,0,1-.74.23,1.31,1.31,0,0,1-1.06-.47,2.11,2.11,0,0,1-.4-1.39,1.83,1.83,0,0,1,.55-1.4,1.77,1.77,0,0,1,1.32-.42h.64v-1c0-.57-.25-.89-.73-.89a.64.64,0,0,0-.48.21.94.94,0,0,0-.23.72h-1a1.74,1.74,0,0,1,.48-1.32,1.85,1.85,0,0,1,2.41,0,1.88,1.88,0,0,1,.49,1.37v4.51Zm0-2.88h-.55a.92.92,0,0,0-.7.23,1.25,1.25,0,0,0-.29.85c0,.65.25,1,.76,1s.78-.4.78-1ZM32,158.58a1.66,1.66,0,0,1-1.22.43,1.53,1.53,0,0,1-1.31-.58,7.88,7.88,0,0,1,0-5.25,1.53,1.53,0,0,1,1.31-.58A1.62,1.62,0,0,1,32,153a2,2,0,0,1,.5,1.41h-1a1.06,1.06,0,0,0-.19-.72.64.64,0,0,0-.54-.23.65.65,0,0,0-.55.26c-.23.3-.24.94-.24,2.07a4.19,4.19,0,0,0,.24,2.06.65.65,0,0,0,.55.26.66.66,0,0,0,.53-.23,1,1,0,0,0,.2-.73h1A2,2,0,0,1,32,158.58Zm4,.33v-4.57c0-.57-.33-.86-.74-.86s-.73.29-.73.86v4.57h-1v-8.54h1v2.77a1.1,1.1,0,0,1,.34-.34,1.36,1.36,0,0,1,1.73.26,1.7,1.7,0,0,1,.37,1.28v4.57Zm5.31-.38a1.71,1.71,0,0,1-.54-1.39v-3.69h-.71v-.75h.71V151h1v1.7h1v.75h-1v3.65c0,.66.35.94,1,.94v.87A2.07,2.07,0,0,1,41.33,158.53Zm5.24-.1a1.53,1.53,0,0,1-1.32.58,1.51,1.51,0,0,1-1.31-.58,7.88,7.88,0,0,1,0-5.25,1.51,1.51,0,0,1,1.31-.58,1.53,1.53,0,0,1,1.32.58,8.05,8.05,0,0,1,0,5.25Zm-.77-4.69a.65.65,0,0,0-.55-.26.63.63,0,0,0-.54.26,8.65,8.65,0,0,0,0,4.13.63.63,0,0,0,.54.26.65.65,0,0,0,.55-.26,9,9,0,0,0,0-4.13Zm6.27,6.17c-.27,1.11-1,1.33-2.07,1.33v-.87c.6,0,1-.15,1.12-.72l.19-.75-1.51-6.2h1.07l.94,4.66.94-4.66h1.07Zm5.5-1.48a1.52,1.52,0,0,1-1.32.58,1.49,1.49,0,0,1-1.3-.58,7.72,7.72,0,0,1,0-5.25,1.49,1.49,0,0,1,1.3-.58,1.52,1.52,0,0,1,1.32.58,7.88,7.88,0,0,1,0,5.25Zm-.76-4.69a.68.68,0,0,0-.56-.26.65.65,0,0,0-.54.26,8.65,8.65,0,0,0,0,4.13.65.65,0,0,0,.54.26.68.68,0,0,0,.56-.26,9.39,9.39,0,0,0,0-4.13Zm4.82,5.17v-.48a1.32,1.32,0,0,1-.39.39,1.23,1.23,0,0,1-.67.19,1.3,1.3,0,0,1-1-.46,1.7,1.7,0,0,1-.37-1.28V152.7h1v4.57c0,.57.33.86.74.86s.73-.29.73-.86V152.7h1v6.21Zm3.07-.38a1.71,1.71,0,0,1-.54-1.39v-3.69h-.71v-.75h.71V151h1v1.7h1v.75h-1v3.65c0,.66.35.94,1,.94v.87A2.11,2.11,0,0,1,64.7,158.53Zm4.8.38v-4.57a.76.76,0,0,0-.74-.86c-.41,0-.73.29-.73.86v4.57h-1v-8.54h1v2.77a1.1,1.1,0,0,1,.34-.34,1.26,1.26,0,0,1,.67-.2,1.31,1.31,0,0,1,1.06.46,1.7,1.7,0,0,1,.37,1.28v4.57Zm5.31-.38a1.71,1.71,0,0,1-.54-1.39v-3.69h-.71v-.75h.71V151h1v1.7h1v.75h-1v3.65c0,.66.34.94,1,.94v.87A2.07,2.07,0,0,1,74.81,158.53Zm4.6.38v-.55a1.5,1.5,0,0,1-.36.42,1.12,1.12,0,0,1-.73.23,1.34,1.34,0,0,1-1.07-.47,2.12,2.12,0,0,1-.39-1.39,1.83,1.83,0,0,1,.55-1.4,1.77,1.77,0,0,1,1.32-.42h.63v-1c0-.57-.25-.89-.73-.89a.65.65,0,0,0-.48.21,1,1,0,0,0-.22.72H77a1.78,1.78,0,0,1,.48-1.32,1.71,1.71,0,0,1,1.2-.46,1.67,1.67,0,0,1,1.21.43,1.88,1.88,0,0,1,.5,1.37v4.51Zm0-2.88h-.55a.89.89,0,0,0-.69.23,1.25,1.25,0,0,0-.29.85c0,.65.25,1,.75,1s.78-.4.78-1Zm4.4-2.49a1.07,1.07,0,0,0-1.13,1.14v4.23h-1V152.7h.93v.66a1.68,1.68,0,0,1,.43-.45,1.76,1.76,0,0,1,1-.31v.94Zm4.38,5.52a2.22,2.22,0,0,1-.51,1.73,1.71,1.71,0,0,1-1.22.48,1.59,1.59,0,0,1-1.72-1.78h1a1.05,1.05,0,0,0,.21.74.74.74,0,0,0,.53.2.7.7,0,0,0,.52-.22,1.6,1.6,0,0,0,.24-1.09v-1a1.41,1.41,0,0,1-.34.35,1.08,1.08,0,0,1-.65.19,1.26,1.26,0,0,1-1-.46c-.4-.44-.49-1.14-.49-2.6s.09-2.15.49-2.6a1.27,1.27,0,0,1,1-.45,1.09,1.09,0,0,1,.67.2,1.37,1.37,0,0,1,.35.33v-.43h1Zm-1-4.68a.92.92,0,0,0-.24-.71.68.68,0,0,0-.5-.19.63.63,0,0,0-.53.25c-.21.26-.25.74-.25,1.93s0,1.67.25,1.94a.67.67,0,0,0,.53.26.69.69,0,0,0,.5-.21.91.91,0,0,0,.24-.71ZM90.29,156a3.46,3.46,0,0,0,.25,1.84.65.65,0,0,0,.55.26.68.68,0,0,0,.55-.24,1,1,0,0,0,.2-.72h1a2,2,0,0,1-.51,1.38,1.64,1.64,0,0,1-1.22.46,1.55,1.55,0,0,1-1.24-.48c-.46-.49-.55-1.43-.55-2.72s.09-2.24.54-2.73a1.54,1.54,0,0,1,1.22-.48,1.56,1.56,0,0,1,1.23.48c.47.49.55,1.42.55,2.95Zm1.33-2.3a.64.64,0,0,0-.56-.25.61.61,0,0,0-.54.25c-.19.23-.23.67-.23,1.57h1.57C91.86,154.4,91.81,154,91.62,153.73Zm3.12,4.8a1.71,1.71,0,0,1-.54-1.39v-3.69h-.71v-.75h.71V151h1v1.7h1v.75h-1v3.65c0,.66.35.94,1,.94v.87A2.07,2.07,0,0,1,94.74,158.53ZM39.85,173.31v-4.57c0-.56-.32-.85-.73-.85s-.73.29-.73.85v4.57h-1v-4.57a.75.75,0,1,0-1.48,0v4.57H35V167.1h.94v.48a1.15,1.15,0,0,1,.38-.38A1.26,1.26,0,0,1,37,167a1.46,1.46,0,0,1,1.19.65,1.74,1.74,0,0,1,.49-.45,1.46,1.46,0,0,1,.71-.2,1.35,1.35,0,0,1,1.12.46,1.7,1.7,0,0,1,.36,1.28v4.57Zm4.57,0v-.55a1.69,1.69,0,0,1-.36.42,1.17,1.17,0,0,1-.74.23,1.31,1.31,0,0,1-1.06-.47,2.11,2.11,0,0,1-.4-1.39,1.83,1.83,0,0,1,.55-1.4,1.77,1.77,0,0,1,1.32-.42h.64v-1c0-.57-.25-.89-.73-.89a.64.64,0,0,0-.48.21.94.94,0,0,0-.23.72H42a1.74,1.74,0,0,1,.48-1.32,1.85,1.85,0,0,1,2.41,0,1.88,1.88,0,0,1,.49,1.37v4.51Zm-.05-2.88h-.55a.92.92,0,0,0-.7.23,1.25,1.25,0,0,0-.29.85c0,.65.25,1.05.76,1.05s.78-.4.78-1Zm4.39-2.49a1.07,1.07,0,0,0-1.13,1.14v4.23h-1V167.1h.94v.66a1.42,1.42,0,0,1,.43-.45,1.74,1.74,0,0,1,1-.31v.94Zm4,5.37-1.18-2.92-.67,1.06v1.86h-1v-8.54h1v5.28l1.76-3h1l-1.51,2.42,1.65,3.79Zm2.59-2.88a3.46,3.46,0,0,0,.25,1.84.73.73,0,0,0,1.1,0,1,1,0,0,0,.2-.72h1a2,2,0,0,1-.51,1.38,1.64,1.64,0,0,1-1.22.46,1.55,1.55,0,0,1-1.24-.48c-.46-.49-.55-1.43-.55-2.72s.09-2.24.54-2.73a1.8,1.8,0,0,1,2.45,0c.47.49.55,1.42.55,3Zm1.33-2.3a.63.63,0,0,0-.55-.25.6.6,0,0,0-.54.25c-.2.23-.24.67-.24,1.57h1.57C56.91,168.8,56.86,168.36,56.67,168.13Zm3.12,4.8a1.71,1.71,0,0,1-.54-1.39v-3.69h-.71v-.75h.71v-1.7h1v1.7h1v.75h-1v3.65c0,.66.35.94,1,.94v.87A2.08,2.08,0,0,1,59.79,172.93Zm5.07,0a1.69,1.69,0,0,1-1.27.49,1.72,1.72,0,0,1-1.25-.48,1.85,1.85,0,0,1-.52-1.37h1a1,1,0,0,0,.26.76.81.81,0,0,0,.55.21.77.77,0,0,0,.59-.23.89.89,0,0,0,.24-.62,1,1,0,0,0-.16-.56,1.5,1.5,0,0,0-.55-.45l-.8-.4a2,2,0,0,1-.85-.72,1.54,1.54,0,0,1-.2-.82,1.72,1.72,0,0,1,.52-1.26A1.69,1.69,0,0,1,63.6,167a1.65,1.65,0,0,1,1.21.45,1.76,1.76,0,0,1,.51,1.36h-1a1,1,0,0,0-.23-.74.67.67,0,0,0-.53-.22.77.77,0,0,0-.54.21.84.84,0,0,0-.22.6.91.91,0,0,0,.1.45,1.2,1.2,0,0,0,.52.41l.79.4a2,2,0,0,1,.88.71,1.92,1.92,0,0,1-.27,2.29Zm1.61.39v-1.19h1.19v1.19Zm71.85-36.41v7.61h-1V136.9h-1.44V136h3.9v.93Zm3.88,2.24a1.07,1.07,0,0,0-1.13,1.14v4.23h-1V138.3H141V139a1.57,1.57,0,0,1,.44-.45,1.71,1.71,0,0,1,1-.31v.94Zm3.37,5.37V144a1.69,1.69,0,0,1-.36.42,1.14,1.14,0,0,1-.73.23,1.33,1.33,0,0,1-1.07-.47,2.12,2.12,0,0,1-.39-1.39,1.83,1.83,0,0,1,.55-1.4,1.77,1.77,0,0,1,1.32-.42h.63v-1c0-.57-.25-.88-.73-.88a.63.63,0,0,0-.48.2.94.94,0,0,0-.23.72h-1a1.78,1.78,0,0,1,.48-1.32,1.71,1.71,0,0,1,1.2-.46,1.66,1.66,0,0,1,1.21.44,1.84,1.84,0,0,1,.49,1.36v4.51Zm0-2.88H145a.93.93,0,0,0-.7.23,1.24,1.24,0,0,0-.28.85c0,.65.25,1,.75,1s.78-.4.78-1Zm3.49-2.57v5.45h-1v-5.45h-.7v-.76h.7v-.6a1.67,1.67,0,0,1,.54-1.38,2.09,2.09,0,0,1,1.39-.39v.87a.84.84,0,0,0-1,.94v.56h1v.76Zm3.05,0v5.45h-1v-5.45h-.71v-.76h.71v-.6a1.67,1.67,0,0,1,.54-1.38,2.06,2.06,0,0,1,1.39-.39v.87a.84.84,0,0,0-1,.94v.56h1v.76Zm1.77-1.86v-1.13H155v1.13Zm.08,7.31V138.3h1v6.21Zm5.12-.33a1.66,1.66,0,0,1-1.22.43,1.53,1.53,0,0,1-1.31-.58,7.88,7.88,0,0,1,0-5.25,1.53,1.53,0,0,1,1.31-.58,1.62,1.62,0,0,1,1.21.42,2,2,0,0,1,.51,1.41h-1a1.06,1.06,0,0,0-.19-.72.64.64,0,0,0-.54-.23.68.68,0,0,0-.55.26c-.23.3-.24.94-.24,2.07a4.19,4.19,0,0,0,.24,2.06.65.65,0,0,0,.55.26.66.66,0,0,0,.53-.23,1,1,0,0,0,.2-.73h1A2.1,2.1,0,0,1,159,144.18Zm4.4.33-1.19-2.92-.67,1.06v1.86h-1V136h1v5.28l1.76-2.95h1l-1.51,2.42,1.65,3.79Zm1.82-7.31v-1.13h1.14v1.13Zm.08,7.31V138.3h1v6.21Zm4.79,0v-4.57a.75.75,0,0,0-.74-.85c-.41,0-.73.29-.73.85v4.57h-1V138.3h.94v.48a1.25,1.25,0,0,1,.38-.38,1.28,1.28,0,0,1,.67-.2,1.31,1.31,0,0,1,1.06.46,1.7,1.7,0,0,1,.37,1.28v4.57Zm5.57.15a2.21,2.21,0,0,1-.51,1.73,1.69,1.69,0,0,1-1.22.48,1.57,1.57,0,0,1-1.71-1.78h1a1,1,0,0,0,.2.74.77.77,0,0,0,.53.21.71.71,0,0,0,.53-.23,1.59,1.59,0,0,0,.24-1.09v-.95a1.66,1.66,0,0,1-.35.35,1.08,1.08,0,0,1-.65.19,1.28,1.28,0,0,1-1-.46c-.39-.44-.49-1.14-.49-2.6s.1-2.15.49-2.6a1.29,1.29,0,0,1,1-.45,1.07,1.07,0,0,1,.67.2,1.11,1.11,0,0,1,.35.33v-.43h.95Zm-1-4.68a1,1,0,0,0-.24-.71.69.69,0,0,0-.51-.19.65.65,0,0,0-.52.25c-.22.27-.26.74-.26,1.93s0,1.67.26,1.94a.68.68,0,0,0,1,.05.94.94,0,0,0,.24-.7Zm4.5-2.78v-1.13h1.14v1.13Zm.08,7.31V138.3h1v6.21Zm4.79,0v-4.57a.75.75,0,1,0-1.48,0v4.57h-1V138.3h.94v.48a1.26,1.26,0,0,1,1-.58,1.32,1.32,0,0,1,1.06.46,1.7,1.7,0,0,1,.37,1.28v4.57Zm3.49-5.45v5.45h-1v-5.45h-.71v-.76h.71v-.6a1.67,1.67,0,0,1,.54-1.38,2.06,2.06,0,0,1,1.39-.39v.87a.84.84,0,0,0-1,.94v.56h1v.76Zm4.62,5a1.78,1.78,0,0,1-2.63,0,7.88,7.88,0,0,1,0-5.25,1.78,1.78,0,0,1,2.63,0,8.05,8.05,0,0,1,0,5.25Zm-.77-4.69a.68.68,0,0,0-.55-.26.66.66,0,0,0-.54.26,8.65,8.65,0,0,0,0,4.13.63.63,0,0,0,.54.26.65.65,0,0,0,.55-.26,9,9,0,0,0,0-4.13Zm4.49-.2a1.07,1.07,0,0,0-1.13,1.14v4.23h-1V138.3h.94V139a1.42,1.42,0,0,1,.43-.45,1.74,1.74,0,0,1,1-.31v.94Zm6.05,5.37v-4.57a.74.74,0,1,0-1.47,0v4.57h-1v-4.57a.75.75,0,0,0-.74-.85c-.41,0-.73.29-.73.85v4.57h-1V138.3H198v.48a1.28,1.28,0,0,1,.39-.38,1.26,1.26,0,0,1,.67-.2,1.45,1.45,0,0,1,1.18.65,1.93,1.93,0,0,1,.5-.45,1.45,1.45,0,0,1,.7-.2,1.35,1.35,0,0,1,1.12.46,1.7,1.7,0,0,1,.36,1.28v4.57Zm4.56,0V144a1.69,1.69,0,0,1-.36.42,1.14,1.14,0,0,1-.73.23,1.33,1.33,0,0,1-1.07-.47,2.11,2.11,0,0,1-.4-1.39,1.84,1.84,0,0,1,.56-1.4,1.77,1.77,0,0,1,1.32-.42h.63v-1c0-.57-.25-.88-.73-.88a.63.63,0,0,0-.48.2.94.94,0,0,0-.23.72h-1a1.78,1.78,0,0,1,.48-1.32,1.71,1.71,0,0,1,1.2-.46,1.66,1.66,0,0,1,1.21.44,1.84,1.84,0,0,1,.49,1.36v4.51Zm-.05-2.88h-.55a.93.93,0,0,0-.7.23,1.24,1.24,0,0,0-.28.85c0,.65.25,1,.75,1s.78-.4.78-1Zm3.06,2.5a1.69,1.69,0,0,1-.54-1.39v-3.68h-.71v-.76H209v-1.7h1v1.7h1v.76h-1v3.64c0,.66.35.94,1,.94v.87A2.11,2.11,0,0,1,209.54,144.13Zm2.27-6.93v-1.13H213v1.13Zm.08,7.31V138.3h1v6.21Zm5.23-.48a1.52,1.52,0,0,1-1.32.58,1.49,1.49,0,0,1-1.3-.58,7.72,7.72,0,0,1,0-5.25,1.49,1.49,0,0,1,1.3-.58,1.52,1.52,0,0,1,1.32.58,7.88,7.88,0,0,1,0,5.25Zm-.76-4.69a.7.7,0,0,0-.56-.26.67.67,0,0,0-.54.26,8.65,8.65,0,0,0,0,4.13.65.65,0,0,0,.54.26.67.67,0,0,0,.56-.26,9,9,0,0,0,0-4.13Zm4.83,5.17v-4.57a.75.75,0,0,0-.74-.85c-.41,0-.73.29-.73.85v4.57h-1V138.3h.93v.48a1.37,1.37,0,0,1,.38-.38,1.36,1.36,0,0,1,1.73.26,1.7,1.7,0,0,1,.37,1.28v4.57Zm-85.13,8.94v5.46h-1v-5.46h-.71v-.75h.71v-.6a1.67,1.67,0,0,1,.54-1.38,2.06,2.06,0,0,1,1.39-.4v.88a.84.84,0,0,0-1,.94v.56h1v.75Zm2.35,5.08a1.7,1.7,0,0,1-.55-1.39v-6.77h1v6.73a.83.83,0,0,0,.93.94v.87A2,2,0,0,1,138.41,158.53Zm2.15-6.93v-1.13h1.14v1.13Zm.08,7.31V152.7h1v6.21Zm3.13-2.88a3.46,3.46,0,0,0,.25,1.84.65.65,0,0,0,.55.26.68.68,0,0,0,.55-.24,1,1,0,0,0,.2-.72h1a2,2,0,0,1-.51,1.38,1.64,1.64,0,0,1-1.22.46,1.55,1.55,0,0,1-1.24-.48c-.46-.49-.55-1.43-.55-2.72s.09-2.24.54-2.73a1.54,1.54,0,0,1,1.22-.48,1.56,1.56,0,0,1,1.23.48c.47.49.55,1.42.55,2.95Zm1.33-2.3a.64.64,0,0,0-.56-.25.61.61,0,0,0-.54.25c-.19.23-.23.67-.23,1.57h1.57C145.34,154.4,145.29,154,145.1,153.73Zm4.45-.19a1.07,1.07,0,0,0-1.13,1.14v4.23h-1V152.7h.93v.66a1.57,1.57,0,0,1,.44-.45,1.71,1.71,0,0,1,1-.31v.94Zm3.84,5a1.88,1.88,0,0,1-2.52,0,1.85,1.85,0,0,1-.53-1.37h1a1.06,1.06,0,0,0,.26.76.83.83,0,0,0,.56.21.73.73,0,0,0,.58-.23.85.85,0,0,0,.24-.62.94.94,0,0,0-.15-.56,1.41,1.41,0,0,0-.55-.45l-.81-.4a2.09,2.09,0,0,1-.85-.72,1.63,1.63,0,0,1-.19-.82,1.68,1.68,0,0,1,1.74-1.73,1.66,1.66,0,0,1,1.21.45,1.8,1.8,0,0,1,.5,1.36h-1a1,1,0,0,0-.22-.74.7.7,0,0,0-.53-.22.74.74,0,0,0-.54.21.81.81,0,0,0-.23.6.91.91,0,0,0,.11.45,1.11,1.11,0,0,0,.51.41l.8.4a2,2,0,0,1,.87.7,1.91,1.91,0,0,1-.26,2.3Zm4.59,0a1.74,1.74,0,0,1-.54-1.39v-3.69h-.7v-.75h.7V151h1v1.7h1v.75h-1v3.65c0,.66.34.94,1,.94v.87A2.11,2.11,0,0,1,158,158.53Zm4.46-5a1.07,1.07,0,0,0-1.13,1.14v4.23h-1V152.7h.93v.66a1.68,1.68,0,0,1,.43-.45,1.76,1.76,0,0,1,1-.31v.94Zm3.37,5.37v-.55a1.69,1.69,0,0,1-.36.42,1.14,1.14,0,0,1-.73.23,1.33,1.33,0,0,1-1.07-.47,2.11,2.11,0,0,1-.4-1.39,1.83,1.83,0,0,1,.55-1.4,1.8,1.8,0,0,1,1.32-.42h.64v-1c0-.57-.25-.89-.73-.89a.64.64,0,0,0-.48.21.94.94,0,0,0-.23.72h-1a1.78,1.78,0,0,1,.48-1.32,1.85,1.85,0,0,1,2.41,0,1.88,1.88,0,0,1,.49,1.37v4.51Zm-.05-2.88h-.55a.92.92,0,0,0-.7.23,1.25,1.25,0,0,0-.29.85c0,.65.26,1,.76,1s.78-.4.78-1Zm4.74,2.88v-4.57a.75.75,0,1,0-1.48,0v4.57h-1V152.7H169v.48a1.15,1.15,0,0,1,.38-.38,1.26,1.26,0,0,1,.67-.2,1.31,1.31,0,0,1,1.06.46,1.7,1.7,0,0,1,.37,1.28v4.57Zm5-.39a1.73,1.73,0,0,1-1.28.49,1.7,1.7,0,0,1-1.24-.48,1.85,1.85,0,0,1-.53-1.37h1a1.06,1.06,0,0,0,.26.76.82.82,0,0,0,.55.21.74.74,0,0,0,.59-.23.85.85,0,0,0,.24-.62,1,1,0,0,0-.15-.56,1.37,1.37,0,0,0-.56-.45l-.8-.4a2,2,0,0,1-.85-.72,1.63,1.63,0,0,1-.19-.82,1.68,1.68,0,0,1,1.74-1.73,1.66,1.66,0,0,1,1.21.45,1.8,1.8,0,0,1,.5,1.36h-1a1,1,0,0,0-.23-.74.67.67,0,0,0-.52-.22.74.74,0,0,0-.54.21.93.93,0,0,0-.12,1.05,1.11,1.11,0,0,0,.51.41l.79.4a2,2,0,0,1,.88.7,2,2,0,0,1-.26,2.3Zm2.08,0a1.7,1.7,0,0,1-.55-1.39v-6.77h1v6.73a.83.83,0,0,0,.93.94v.87A2,2,0,0,1,177.6,158.53Zm4.49.38v-.55a1.5,1.5,0,0,1-.36.42,1.12,1.12,0,0,1-.73.23,1.33,1.33,0,0,1-1.07-.47,2.12,2.12,0,0,1-.39-1.39,1.83,1.83,0,0,1,.55-1.4,1.77,1.77,0,0,1,1.32-.42H182v-1c0-.57-.25-.89-.73-.89a.65.65,0,0,0-.48.21.94.94,0,0,0-.23.72h-1a1.78,1.78,0,0,1,.48-1.32,1.71,1.71,0,0,1,1.2-.46,1.67,1.67,0,0,1,1.21.43,1.88,1.88,0,0,1,.49,1.37v4.51ZM182,156h-.55a.89.89,0,0,0-.69.23,1.25,1.25,0,0,0-.29.85c0,.65.25,1,.75,1s.78-.4.78-1Zm3.06,2.5a1.74,1.74,0,0,1-.54-1.39v-3.69h-.7v-.75h.7V151h1v1.7h1v.75h-1v3.65c0,.66.34.94,1,.94v.87A2.11,2.11,0,0,1,185.1,158.53Zm3.14-2.5a3.46,3.46,0,0,0,.25,1.84.73.73,0,0,0,1.1,0,1,1,0,0,0,.21-.72h1a2,2,0,0,1-.51,1.38A1.64,1.64,0,0,1,189,159a1.55,1.55,0,0,1-1.24-.48c-.46-.49-.55-1.43-.55-2.72s.09-2.24.54-2.73a1.8,1.8,0,0,1,2.45,0c.47.49.55,1.42.55,2.95Zm1.33-2.3a.63.63,0,0,0-.55-.25.6.6,0,0,0-.54.25c-.2.23-.24.67-.24,1.57h1.57C189.81,154.4,189.76,154,189.57,153.73Zm4.68,5.18v-.48a1.38,1.38,0,0,1-.37.39,1.37,1.37,0,0,1-.68.19,1.28,1.28,0,0,1-1-.47c-.39-.46-.45-1.3-.45-2.73s.06-2.28.45-2.75a1.26,1.26,0,0,1,1-.46,1.3,1.3,0,0,1,.68.18,1.26,1.26,0,0,1,.34.35v-2.76h1v8.54Zm0-4.53a.92.92,0,0,0-.24-.71.68.68,0,0,0-.5-.19.63.63,0,0,0-.53.25c-.21.26-.25.79-.25,2.08s0,1.81.25,2.07a.63.63,0,0,0,.53.25.68.68,0,0,0,.5-.19,1,1,0,0,0,.24-.72Zm4.5-2.78v-1.13h1.14v1.13Zm.09,7.31V152.7h1v6.21Zm4.78,0v-4.57a.75.75,0,0,0-.74-.85c-.41,0-.73.29-.73.85v4.57h-1V152.7h.93v.48a1.28,1.28,0,0,1,.39-.38,1.26,1.26,0,0,1,.67-.2,1.28,1.28,0,0,1,1.05.46,1.66,1.66,0,0,1,.38,1.28v4.57Zm3.07-.38a1.71,1.71,0,0,1-.54-1.39v-3.69h-.71v-.75h.71V151h1v1.7h1v.75h-1v3.65c0,.66.34.94,1,.94v.87A2.07,2.07,0,0,1,206.66,158.53Zm5.24-.1a1.53,1.53,0,0,1-1.32.58,1.51,1.51,0,0,1-1.31-.58,7.88,7.88,0,0,1,0-5.25,1.51,1.51,0,0,1,1.31-.58,1.53,1.53,0,0,1,1.32.58,8.05,8.05,0,0,1,0,5.25Zm-.77-4.69a.65.65,0,0,0-.55-.26.63.63,0,0,0-.54.26,8.65,8.65,0,0,0,0,4.13.63.63,0,0,0,.54.26.65.65,0,0,0,.55-.26,9,9,0,0,0,0-4.13Zm4.54,5.17v-.81l2.08-4.43a3.79,3.79,0,0,0,.39-1.66c0-.57-.33-.86-.73-.86a.76.76,0,0,0-.75.86v.58h-1V152a1.71,1.71,0,0,1,.48-1.31,1.81,1.81,0,0,1,1.24-.45,1.72,1.72,0,0,1,1.2.43,1.76,1.76,0,0,1,.5,1.34,4.92,4.92,0,0,1-.49,1.93L216.71,158h2.4v.87Zm7.5-.36a1.82,1.82,0,0,1-1.24.46,1.77,1.77,0,0,1-1.22-.46,1.71,1.71,0,0,1-.48-1.32v-5.18a1.72,1.72,0,0,1,.48-1.32,1.76,1.76,0,0,1,1.22-.45,1.81,1.81,0,0,1,1.24.45,1.72,1.72,0,0,1,.48,1.32v5.18A1.71,1.71,0,0,1,223.17,158.55Zm-.5-6.54c0-.57-.33-.86-.74-.86s-.73.29-.73.86v5.26c0,.57.32.86.73.86s.74-.29.74-.86Zm-60.8,20.92a1.7,1.7,0,0,1-.55-1.39v-6.77h1v6.73a.83.83,0,0,0,.93.94v.87A2,2,0,0,1,161.87,172.93Zm4.49.38v-.55a1.69,1.69,0,0,1-.36.42,1.14,1.14,0,0,1-.73.23,1.33,1.33,0,0,1-1.07-.47,2.11,2.11,0,0,1-.4-1.39,1.84,1.84,0,0,1,.56-1.4,1.77,1.77,0,0,1,1.32-.42h.63v-1c0-.57-.25-.89-.73-.89a.64.64,0,0,0-.48.21.94.94,0,0,0-.23.72h-1a1.78,1.78,0,0,1,.48-1.32,1.85,1.85,0,0,1,2.41,0,1.88,1.88,0,0,1,.49,1.37v4.51Zm-.05-2.88h-.55a.93.93,0,0,0-.7.23,1.24,1.24,0,0,0-.28.85c0,.65.25,1.05.75,1.05s.78-.4.78-1Zm4.74,2.88v-4.57a.75.75,0,0,0-.74-.85c-.41,0-.73.29-.73.85v4.57h-1V167.1h.94v.48a1.15,1.15,0,0,1,.38-.38,1.36,1.36,0,0,1,1.73.26,1.7,1.7,0,0,1,.37,1.28v4.57Zm5.57.15a2.25,2.25,0,0,1-.5,1.73,1.73,1.73,0,0,1-1.23.48,1.57,1.57,0,0,1-1.71-1.78h1a1,1,0,0,0,.2.74.77.77,0,0,0,.53.21.71.71,0,0,0,.53-.23,1.59,1.59,0,0,0,.24-1.09v-1a1.66,1.66,0,0,1-.35.35,1.08,1.08,0,0,1-.65.19,1.28,1.28,0,0,1-1-.46c-.39-.44-.49-1.14-.49-2.6s.1-2.15.49-2.6a1.29,1.29,0,0,1,1-.45,1.07,1.07,0,0,1,.67.2,1.11,1.11,0,0,1,.35.33v-.43h1Zm-1-4.68a1,1,0,0,0-.24-.71.69.69,0,0,0-.51-.19.63.63,0,0,0-.52.25c-.22.26-.26.74-.26,1.93s0,1.67.26,1.94a.66.66,0,0,0,.52.26.7.7,0,0,0,.51-.21.94.94,0,0,0,.24-.7Zm4.77,4.53v-.48a1.29,1.29,0,0,1-.38.39,1.25,1.25,0,0,1-.67.19,1.32,1.32,0,0,1-1.06-.46,1.7,1.7,0,0,1-.37-1.28V167.1h1v4.57a.76.76,0,0,0,.75.86c.4,0,.73-.29.73-.86V167.1h1v6.21Zm4.56,0v-.55a1.5,1.5,0,0,1-.36.42,1.12,1.12,0,0,1-.73.23,1.34,1.34,0,0,1-1.07-.47,2.12,2.12,0,0,1-.39-1.39,1.83,1.83,0,0,1,.55-1.4,1.77,1.77,0,0,1,1.32-.42h.64v-1c0-.57-.26-.89-.74-.89a.65.65,0,0,0-.48.21,1,1,0,0,0-.22.72h-1a1.78,1.78,0,0,1,.48-1.32,1.71,1.71,0,0,1,1.2-.46,1.67,1.67,0,0,1,1.21.43,1.88,1.88,0,0,1,.5,1.37v4.51Zm0-2.88h-.56a.89.89,0,0,0-.69.23,1.25,1.25,0,0,0-.29.85c0,.65.25,1.05.76,1.05s.78-.4.78-1Zm5.56,3a2.21,2.21,0,0,1-.5,1.73,1.71,1.71,0,0,1-1.22.48,1.59,1.59,0,0,1-1.72-1.78h1a1.05,1.05,0,0,0,.21.74.74.74,0,0,0,.52.21.71.71,0,0,0,.53-.23,1.59,1.59,0,0,0,.24-1.09v-1a1.3,1.3,0,0,1-.35.35,1.05,1.05,0,0,1-.64.19,1.26,1.26,0,0,1-1-.46c-.4-.44-.5-1.14-.5-2.6s.1-2.15.5-2.6a1.26,1.26,0,0,1,1-.45,1.09,1.09,0,0,1,.67.2,1.37,1.37,0,0,1,.35.33v-.43h.94Zm-1-4.68a.92.92,0,0,0-.24-.71.68.68,0,0,0-.5-.19.63.63,0,0,0-.53.25c-.22.26-.25.74-.25,1.93s0,1.67.25,1.94a.67.67,0,0,0,.53.26.69.69,0,0,0,.5-.21.9.9,0,0,0,.24-.7Zm3.12,1.65a3.57,3.57,0,0,0,.25,1.84.67.67,0,0,0,.56.26.68.68,0,0,0,.55-.24,1.08,1.08,0,0,0,.2-.72h1a1.91,1.91,0,0,1-.5,1.38,1.64,1.64,0,0,1-1.22.46,1.54,1.54,0,0,1-1.24-.48c-.47-.49-.55-1.43-.55-2.72s.08-2.24.54-2.73a1.79,1.79,0,0,1,2.44,0c.47.49.56,1.42.56,3Zm1.33-2.3a.62.62,0,0,0-.55-.25.61.61,0,0,0-.54.25c-.19.23-.24.67-.24,1.57h1.57C194.22,168.8,194.17,168.36,194,168.13Zm5.08,4.79a1.88,1.88,0,0,1-2.52,0,1.85,1.85,0,0,1-.53-1.37h1a1.05,1.05,0,0,0,.27.76.81.81,0,0,0,.55.21.73.73,0,0,0,.58-.23.85.85,0,0,0,.24-.62,1,1,0,0,0-.15-.56,1.5,1.5,0,0,0-.55-.45l-.81-.4a2.16,2.16,0,0,1-.85-.72,1.63,1.63,0,0,1-.19-.82A1.69,1.69,0,0,1,197.8,167a1.66,1.66,0,0,1,1.21.45,1.8,1.8,0,0,1,.5,1.36h-1a1,1,0,0,0-.22-.74.7.7,0,0,0-.53-.22.74.74,0,0,0-.54.21.81.81,0,0,0-.23.6.91.91,0,0,0,.11.45,1.09,1.09,0,0,0,.52.41l.79.4a1.93,1.93,0,0,1,.87.71,1.75,1.75,0,0,1,.27,1A1.82,1.82,0,0,1,199.06,172.92ZM405,146.3l-.41-2h-2l-.41,2h-1.07l2-8.54h1l2,8.54Zm-1.39-6.88-.81,3.94h1.6Zm6,6.49a1.66,1.66,0,0,1-.56-1.39v-6.76h1v6.73a.82.82,0,0,0,.93.93v.88A2,2,0,0,1,409.6,145.91Zm5.12-.09a1.52,1.52,0,0,1-1.32.57,1.5,1.5,0,0,1-1.31-.57,7.91,7.91,0,0,1,0-5.26,1.5,1.5,0,0,1,1.31-.57,1.52,1.52,0,0,1,1.32.57,8.08,8.08,0,0,1,0,5.26Zm-.77-4.69a.66.66,0,0,0-.55-.27.64.64,0,0,0-.54.27,8.61,8.61,0,0,0,0,4.12.64.64,0,0,0,.54.27.66.66,0,0,0,.55-.27,9,9,0,0,0,0-4.12Zm5.17,4.83a1.66,1.66,0,0,1-1.22.43,1.53,1.53,0,0,1-1.31-.57,7.75,7.75,0,0,1,0-5.26,1.53,1.53,0,0,1,1.31-.57,1.62,1.62,0,0,1,1.21.42,1.93,1.93,0,0,1,.5,1.4h-1a1.09,1.09,0,0,0-.19-.72.64.64,0,0,0-.54-.23.66.66,0,0,0-.55.27c-.23.3-.24.93-.24,2.06a4.17,4.17,0,0,0,.24,2.06.66.66,0,0,0,.55.27.69.69,0,0,0,.53-.23,1,1,0,0,0,.2-.73h1A2,2,0,0,1,419.12,146Zm3.82.34v-.56a1.52,1.52,0,0,1-.36.42,1.08,1.08,0,0,1-.73.23,1.3,1.3,0,0,1-1.07-.47,2.09,2.09,0,0,1-.4-1.39,1.88,1.88,0,0,1,.55-1.4,1.8,1.8,0,0,1,1.32-.42h.64v-1c0-.58-.25-.89-.73-.89a.63.63,0,0,0-.48.2,1,1,0,0,0-.23.72h-1a1.78,1.78,0,0,1,.48-1.32,1.73,1.73,0,0,1,1.2-.45,1.66,1.66,0,0,1,1.21.43,1.85,1.85,0,0,1,.49,1.37v4.51Zm-.05-2.88h-.55a.92.92,0,0,0-.7.23,1.21,1.21,0,0,0-.29.85c0,.64.26,1,.76,1s.78-.4.78-1Zm2.8,2.49a1.66,1.66,0,0,1-.55-1.39v-6.76h1v6.73a.81.81,0,0,0,.92.93v.88A2,2,0,0,1,425.69,145.91Zm2.14-6.93v-1.13H429V139Zm.09,7.32v-6.22h1v6.22Zm1.94,0v-.75l2-4.6H430v-.87h2.9v.75l-2,4.59h2v.88Zm4.79-2.88a3.52,3.52,0,0,0,.25,1.83.65.65,0,0,0,.55.27.69.69,0,0,0,.56-.24,1.08,1.08,0,0,0,.2-.72h1a1.94,1.94,0,0,1-.5,1.38,1.64,1.64,0,0,1-1.23.45,1.53,1.53,0,0,1-1.23-.48c-.47-.49-.55-1.42-.55-2.72s.08-2.23.54-2.72a1.79,1.79,0,0,1,2.44,0c.47.49.56,1.41.56,2.95Zm1.33-2.31a.66.66,0,0,0-.55-.25.64.64,0,0,0-.54.25c-.19.23-.24.68-.24,1.58h1.57C436.22,141.79,436.17,141.34,436,141.11Zm4.68,5.19v-.48a1.22,1.22,0,0,1-.37.38,1.3,1.3,0,0,1-.67.19,1.23,1.23,0,0,1-1-.47c-.4-.45-.46-1.29-.46-2.73s.06-2.28.46-2.75a1.24,1.24,0,0,1,1-.45,1.27,1.27,0,0,1,.67.18,1.4,1.4,0,0,1,.35.34v-2.75h1v8.54Zm0-4.54a.94.94,0,0,0-.24-.7.7.7,0,0,0-1,.05c-.22.27-.26.8-.26,2.08s0,1.81.26,2.07a.63.63,0,0,0,.52.26.66.66,0,0,0,.51-.2,1,1,0,0,0,.24-.72Zm6.68-.84a1.07,1.07,0,0,0-1.13,1.14v4.24h-1v-6.22h.94v.66a1.5,1.5,0,0,1,.43-.44,1.74,1.74,0,0,1,1-.31v.93Zm1.89,2.5a3.42,3.42,0,0,0,.25,1.83.65.65,0,0,0,.55.27.66.66,0,0,0,.55-.24,1,1,0,0,0,.21-.72h1a2,2,0,0,1-.51,1.38,1.63,1.63,0,0,1-1.22.45,1.55,1.55,0,0,1-1.24-.48c-.46-.49-.55-1.42-.55-2.72s.09-2.23.54-2.72a1.8,1.8,0,0,1,2.45,0c.47.49.55,1.41.55,2.95Zm1.33-2.31a.66.66,0,0,0-.55-.25.63.63,0,0,0-.54.25c-.2.23-.24.68-.24,1.58h1.57C450.78,141.79,450.73,141.34,450.54,141.11Zm3.55-.27v5.46h-1v-5.46h-.71v-.76h.71v-.6a1.68,1.68,0,0,1,.54-1.38,2.06,2.06,0,0,1,1.39-.39v.87a.84.84,0,0,0-1,.94v.56h1v.76Zm2.52,2.58a3.52,3.52,0,0,0,.25,1.83.65.65,0,0,0,.55.27.69.69,0,0,0,.56-.24,1.08,1.08,0,0,0,.2-.72h1a2,2,0,0,1-.5,1.38,1.64,1.64,0,0,1-1.23.45,1.53,1.53,0,0,1-1.23-.48c-.47-.49-.55-1.42-.55-2.72s.08-2.23.54-2.72a1.79,1.79,0,0,1,2.44,0c.47.49.55,1.41.55,2.95Zm1.33-2.31a.66.66,0,0,0-.55-.25.64.64,0,0,0-.54.25c-.19.23-.24.68-.24,1.58h1.57C458.18,141.79,458.13,141.34,457.94,141.11Zm4.45-.19a1.06,1.06,0,0,0-1.12,1.14v4.24h-1v-6.22h.94v.66a1.8,1.8,0,0,1,.43-.44,1.76,1.76,0,0,1,1-.31v.93Zm3.27,0a1.07,1.07,0,0,0-1.13,1.14v4.24h-1v-6.22h.93v.66a1.67,1.67,0,0,1,.44-.44,1.71,1.71,0,0,1,1-.31v.93ZM469,146.3v-.56a1.52,1.52,0,0,1-.36.42,1.08,1.08,0,0,1-.73.23,1.3,1.3,0,0,1-1.07-.47,2.09,2.09,0,0,1-.4-1.39,1.85,1.85,0,0,1,.56-1.4,1.77,1.77,0,0,1,1.32-.42H469v-1c0-.58-.25-.89-.73-.89a.63.63,0,0,0-.48.2,1,1,0,0,0-.23.72h-1a1.78,1.78,0,0,1,.48-1.32,1.75,1.75,0,0,1,1.2-.45,1.66,1.66,0,0,1,1.21.43,1.85,1.85,0,0,1,.49,1.37v4.51Zm0-2.88h-.55a.93.93,0,0,0-.7.23,1.21,1.21,0,0,0-.28.85c0,.64.25,1,.75,1s.78-.4.78-1Zm2.8,2.49a1.66,1.66,0,0,1-.55-1.39v-6.76h1v6.73a.81.81,0,0,0,.92.93v.88A2,2,0,0,1,471.78,145.91ZM391.85,160.7v-.48a1.22,1.22,0,0,1-.37.38,1.3,1.3,0,0,1-.67.19,1.23,1.23,0,0,1-1-.47c-.4-.45-.46-1.29-.46-2.73s.06-2.28.46-2.75a1.24,1.24,0,0,1,1-.45,1.27,1.27,0,0,1,.67.18,1.4,1.4,0,0,1,.35.34v-2.75h1v8.54Zm0-4.54a1,1,0,0,0-.24-.71.69.69,0,0,0-.51-.19.65.65,0,0,0-.52.25c-.22.27-.25.8-.25,2.08s0,1.81.25,2.07a.63.63,0,0,0,.52.26.66.66,0,0,0,.51-.2,1,1,0,0,0,.24-.72Zm2.26-2.78v-1.13h1.14v1.13Zm.08,7.32v-6.22h1v6.22Zm4.44-5.38a1.07,1.07,0,0,0-1.13,1.14v4.24h-1v-6.22h.93v.66a1.54,1.54,0,0,1,.44-.44,1.71,1.71,0,0,1,1-.31v.93Zm1.89,2.5a3.39,3.39,0,0,0,.26,1.83.63.63,0,0,0,.55.27.68.68,0,0,0,.55-.24,1,1,0,0,0,.2-.72h1a2,2,0,0,1-.51,1.38,1.63,1.63,0,0,1-1.22.45,1.55,1.55,0,0,1-1.24-.48c-.47-.49-.55-1.42-.55-2.72s.08-2.23.54-2.72a1.54,1.54,0,0,1,1.22-.48,1.56,1.56,0,0,1,1.23.48c.47.49.55,1.41.55,2.95Zm1.34-2.31a.67.67,0,0,0-.56-.25.64.64,0,0,0-.54.25c-.19.23-.24.68-.24,1.58h1.58C402.08,156.19,402,155.74,401.84,155.51Zm5.13,4.85a1.66,1.66,0,0,1-1.22.43,1.53,1.53,0,0,1-1.31-.57,7.91,7.91,0,0,1,0-5.26,1.53,1.53,0,0,1,1.31-.57,1.62,1.62,0,0,1,1.21.42,1.93,1.93,0,0,1,.5,1.4h-1a1.08,1.08,0,0,0-.19-.72.64.64,0,0,0-.54-.23.66.66,0,0,0-.55.27c-.23.3-.24.93-.24,2.06a4.19,4.19,0,0,0,.24,2.06.66.66,0,0,0,.55.27.69.69,0,0,0,.53-.23,1.05,1.05,0,0,0,.2-.73h1A2,2,0,0,1,407,160.36Zm2.33-.05a1.69,1.69,0,0,1-.54-1.39v-3.68h-.71v-.76h.71v-1.7h1v1.7h1v.76h-1v3.65c0,.65.35.93,1,.93v.88A2.06,2.06,0,0,1,409.3,160.31Zm5.24-.09a1.51,1.51,0,0,1-1.32.57,1.49,1.49,0,0,1-1.3-.57,7.75,7.75,0,0,1,0-5.26,1.49,1.49,0,0,1,1.3-.57,1.51,1.51,0,0,1,1.32.57,7.91,7.91,0,0,1,0,5.26Zm-.76-4.69a.68.68,0,0,0-.56-.27.65.65,0,0,0-.54.27,8.61,8.61,0,0,0,0,4.12.65.65,0,0,0,.54.27.68.68,0,0,0,.56-.27,9,9,0,0,0,0-4.12Zm4.48-.21a1.06,1.06,0,0,0-1.12,1.14v4.24h-1v-6.22h.94v.66a1.64,1.64,0,0,1,.43-.44,1.76,1.76,0,0,1,1-.31v.93Zm3,6.37c-.27,1.12-1,1.33-2.07,1.33v-.86c.6,0,1-.16,1.12-.72l.19-.76-1.51-6.2H420l1,4.67.93-4.67H423Zm7.77-1.37a1.2,1.2,0,0,1-1,.47,1.27,1.27,0,0,1-.67-.18,1.45,1.45,0,0,1-.35-.35V163h-1v-8.54h.95V155a1.34,1.34,0,0,1,.37-.38,1.21,1.21,0,0,1,.67-.19,1.25,1.25,0,0,1,1,.45c.4.47.46,1.31.46,2.75S429.4,159.86,429,160.32Zm-.78-4.81a.65.65,0,0,0-.52-.25.69.69,0,0,0-.51.19,1,1,0,0,0-.24.71V159a1,1,0,0,0,.24.72.66.66,0,0,0,.51.2.63.63,0,0,0,.52-.26c.22-.26.26-.79.26-2.07S428.44,155.78,428.22,155.51Zm4.5-.19a1.06,1.06,0,0,0-1.12,1.14v4.24h-1v-6.22h.94v.66a1.64,1.64,0,0,1,.43-.44,1.76,1.76,0,0,1,1-.31v.93Zm1.08-1.94v-1.13h1.14v1.13Zm.09,7.32v-6.22h1v6.22Zm4.78,0v-4.57c0-.57-.33-.86-.74-.86s-.73.29-.73.86v4.57h-1v-6.22h.93V155a1.41,1.41,0,0,1,.39-.38,1.25,1.25,0,0,1,.67-.19,1.28,1.28,0,0,1,1,.45,1.69,1.69,0,0,1,.38,1.29v4.57Zm3.07-.39a1.69,1.69,0,0,1-.54-1.39v-3.68h-.71v-.76h.71v-1.7h1v1.7h1v.76h-1v3.65c0,.65.35.93,1,.93v.88A2,2,0,0,1,441.74,160.31Zm3.13-2.49a3.42,3.42,0,0,0,.25,1.83.65.65,0,0,0,.55.27.66.66,0,0,0,.55-.24,1,1,0,0,0,.21-.72h1a2,2,0,0,1-.51,1.38,1.63,1.63,0,0,1-1.22.45,1.52,1.52,0,0,1-1.23-.48c-.47-.49-.56-1.42-.56-2.72s.09-2.23.54-2.72a1.56,1.56,0,0,1,1.23-.48,1.54,1.54,0,0,1,1.22.48c.47.49.55,1.41.55,2.95Zm1.33-2.31a.66.66,0,0,0-.55-.25.63.63,0,0,0-.54.25c-.19.23-.24.68-.24,1.58h1.57C446.44,156.19,446.39,155.74,446.2,155.51Zm4.68,5.19v-.48a1.19,1.19,0,0,1-1.05.57,1.25,1.25,0,0,1-1-.47c-.39-.45-.45-1.29-.45-2.73s.06-2.28.45-2.75a1.26,1.26,0,0,1,1-.45,1.3,1.3,0,0,1,.68.18,1.22,1.22,0,0,1,.34.34v-2.75h1v8.54Zm0-4.54a.94.94,0,0,0-.24-.71.68.68,0,0,0-.5-.19.66.66,0,0,0-.53.25c-.21.27-.25.8-.25,2.08s0,1.81.25,2.07a.64.64,0,0,0,.53.26.65.65,0,0,0,.5-.2.93.93,0,0,0,.24-.72Zm7.48,4.06a1.8,1.8,0,0,1-2.63,0,7.91,7.91,0,0,1,0-5.26,1.8,1.8,0,0,1,2.63,0,8.08,8.08,0,0,1,0,5.26Zm-.77-4.69a.66.66,0,0,0-.55-.27.64.64,0,0,0-.54.27,8.61,8.61,0,0,0,0,4.12.64.64,0,0,0,.54.27.66.66,0,0,0,.55-.27,9,9,0,0,0,0-4.12Zm3.59-.29v5.46h-1v-5.46h-.71v-.76h.71v-.6a1.68,1.68,0,0,1,.54-1.38,2.06,2.06,0,0,1,1.39-.39V153a.84.84,0,0,0-1,.94v.56h1v.76Zm3.05,0v5.46h-1v-5.46h-.71v-.76h.71v-.6a1.68,1.68,0,0,1,.54-1.38,2.06,2.06,0,0,1,1.39-.39V153a.84.84,0,0,0-1,.94v.56h1v.76Zm5.29,0v5.46h-1v-5.46h-.71v-.76h.71v-.6a1.68,1.68,0,0,1,.54-1.38,2.06,2.06,0,0,1,1.39-.39V153a.84.84,0,0,0-1,.94v.56h1v.76Zm3.95.08a1.07,1.07,0,0,0-1.13,1.14v4.24h-1v-6.22h.93v.66a1.54,1.54,0,0,1,.44-.44,1.71,1.71,0,0,1,1-.31v.93Zm4,4.9a1.51,1.51,0,0,1-1.32.57,1.49,1.49,0,0,1-1.3-.57,7.75,7.75,0,0,1,0-5.26,1.49,1.49,0,0,1,1.3-.57,1.51,1.51,0,0,1,1.32.57,7.91,7.91,0,0,1,0,5.26Zm-.76-4.69a.68.68,0,0,0-.56-.27.65.65,0,0,0-.54.27,8.61,8.61,0,0,0,0,4.12.65.65,0,0,0,.54.27.68.68,0,0,0,.56-.27,9,9,0,0,0,0-4.12Zm7.27,5.17v-4.57c0-.57-.33-.86-.73-.86s-.74.29-.74.86v4.57h-1v-4.57c0-.57-.33-.86-.74-.86s-.73.29-.73.86v4.57h-1v-6.22H480V155a1.25,1.25,0,0,1,.38-.38,1.29,1.29,0,0,1,.68-.19,1.44,1.44,0,0,1,1.18.64,2.37,2.37,0,0,1,.5-.45,1.44,1.44,0,0,1,.7-.19,1.34,1.34,0,0,1,1.12.45,1.73,1.73,0,0,1,.36,1.29v4.57Zm-67.57,14a1.69,1.69,0,0,1-.54-1.39v-3.68h-.71v-.76h.71v-1.7h1v1.7h1v.76h-1v3.65c0,.65.35.93,1,.93v.88A2,2,0,0,1,416.37,174.71Zm4.8.39v-4.57c0-.58-.34-.87-.75-.87s-.73.29-.73.87v4.57h-1v-8.54h1v2.77A1.29,1.29,0,0,1,420,169a1.25,1.25,0,0,1,.67-.19,1.31,1.31,0,0,1,1.06.45,1.73,1.73,0,0,1,.37,1.29v4.57Zm3.07-2.88a3.52,3.52,0,0,0,.25,1.83.65.65,0,0,0,.55.27.69.69,0,0,0,.56-.24,1.08,1.08,0,0,0,.2-.72h1a1.94,1.94,0,0,1-.5,1.38,1.64,1.64,0,0,1-1.23.45,1.53,1.53,0,0,1-1.23-.48c-.47-.49-.55-1.42-.55-2.72s.08-2.23.54-2.72a1.79,1.79,0,0,1,2.44,0c.47.49.55,1.41.55,2.95Zm1.33-2.3a.64.64,0,0,0-.55-.26.62.62,0,0,0-.54.26c-.19.22-.24.67-.24,1.57h1.57C425.81,170.59,425.76,170.14,425.57,169.92Zm8.87,5.18h-1l-.84-4.55-.82,4.55h-1l-1.29-6.22h1.11l.7,4.68.83-4.68h.88l.87,4.68.72-4.68h1.11Zm2.82-2.88a3.52,3.52,0,0,0,.25,1.83.65.65,0,0,0,.55.27.69.69,0,0,0,.56-.24,1.08,1.08,0,0,0,.2-.72h1a2,2,0,0,1-.5,1.38,1.64,1.64,0,0,1-1.23.45,1.53,1.53,0,0,1-1.23-.48c-.47-.49-.55-1.42-.55-2.72s.08-2.23.54-2.72a1.79,1.79,0,0,1,2.44,0c.47.49.55,1.41.55,2.95Zm1.33-2.3a.64.64,0,0,0-.55-.26.62.62,0,0,0-.54.26c-.19.22-.24.67-.24,1.57h1.57C438.83,170.59,438.78,170.14,438.59,169.92Zm5.38,4.8a1.34,1.34,0,0,1-1.71.28,1.34,1.34,0,0,1-.37-.38v.48h-.95v-8.54h1v2.75a1.33,1.33,0,0,1,.34-.33,1.17,1.17,0,0,1,.67-.19,1.27,1.27,0,0,1,1,.45c.4.47.45,1.29.45,2.75S444.37,174.26,444,174.72Zm-.78-4.8a.64.64,0,0,0-.53-.26.68.68,0,0,0-.5.19.94.94,0,0,0-.24.71v2.84a.93.93,0,0,0,.24.72.65.65,0,0,0,.5.2.64.64,0,0,0,.53-.26c.21-.26.25-.79.25-2.07S443.4,170.18,443.19,169.92Zm5.12,4.78a1.67,1.67,0,0,1-1.27.49,1.72,1.72,0,0,1-1.25-.48,1.83,1.83,0,0,1-.53-1.36h1a1,1,0,0,0,.27.75.82.82,0,0,0,.55.22.81.81,0,0,0,.59-.23.91.91,0,0,0,.24-.62,1,1,0,0,0-.16-.57,1.39,1.39,0,0,0-.55-.44l-.8-.41a2,2,0,0,1-.86-.72,1.61,1.61,0,0,1-.19-.82,1.7,1.7,0,0,1,.52-1.25,1.85,1.85,0,0,1,2.43,0,1.79,1.79,0,0,1,.51,1.37h-1a1,1,0,0,0-.23-.75.72.72,0,0,0-.53-.21.73.73,0,0,0-.54.2.88.88,0,0,0-.23.6,1,1,0,0,0,.11.46,1.27,1.27,0,0,0,.52.41l.79.39a2,2,0,0,1,.87.71,1.9,1.9,0,0,1-.26,2.29Zm1.5-6.92v-1.13H451v1.13Zm.09,7.32v-6.22h1v6.22Zm3.1-.39a1.72,1.72,0,0,1-.54-1.39v-3.68h-.7v-.76h.7v-1.7h1v1.7h.95v.76h-.95v3.65c0,.65.34.93,1,.93v.88A2.06,2.06,0,0,1,453,174.71Zm3.14-2.49a3.42,3.42,0,0,0,.25,1.83.65.65,0,0,0,.55.27.66.66,0,0,0,.55-.24,1,1,0,0,0,.21-.72h1a2,2,0,0,1-.51,1.38,1.63,1.63,0,0,1-1.22.45,1.55,1.55,0,0,1-1.24-.48c-.46-.49-.55-1.42-.55-2.72s.09-2.23.54-2.72a1.8,1.8,0,0,1,2.45,0c.47.49.55,1.41.55,2.95Zm1.33-2.3a.64.64,0,0,0-.55-.26.61.61,0,0,0-.54.26c-.2.22-.24.67-.24,1.57h1.57C457.71,170.59,457.66,170.14,457.47,169.92Zm2.37,5.18v-1.19H461v1.19Z"/></g></g></svg>
