<?xml version="1.0" encoding="utf-8"?>
<!-- Generator: Adobe Illustrator 23.0.3, SVG Export Plug-In . SVG Version: 6.00 Build 0)  -->
<svg version="1.1" id="Layer_1" xmlns="http://www.w3.org/2000/svg" xmlns:xlink="http://www.w3.org/1999/xlink" x="0px" y="0px"
	 viewBox="0 0 487.3 175.7" style="enable-background:new 0 0 487.3 175.7;" xml:space="preserve">
<style type="text/css">
	.st0{fill:none;}
	.st1{fill:#4559A8;}
	.st2{fill:#111111;}
</style>
<g>
	<rect class="st0" width="487.3" height="175.7"/>
	<path class="st1" d="M66.4,57.3c0.1,0.7,0,1.5-0.2,2.2c-0.1,0.4-0.2,0.8-0.2,1.2c-1.3,7.1-1.8,14.3-1.5,21.5
		c0.4,5.5-1.8,9.7-3.1,12.2c-0.5,0.8-0.8,1.6-1,2.5c-0.1,3.8-0.1,6.3-0.1,9.5c0,1.2,0,2.4,0,3.8c0.1,1.2-0.2,1.5-1.5,1.8l-1.1,0.2
		l-0.4,0.1c0-1,0-2.2,0-3.6c0-4.4,0-9.8,0-11.5c0.1-0.3,0.2-0.5,0.4-0.8c1.2-2,1.8-4.3,1.7-6.6c-0.2-3.5,0.1-6.9,0.7-10.3
		c0.2-0.6,0.3-1.3,0.2-2c-0.2-0.7-0.7-1.2-1.4-1.4c-0.6-0.1-1.2,0.1-1.6,0.6c-0.2,0.3-0.4,0.7-0.4,1.1c0,0.1,0,0.2,0,0.3
		c-0.3,1.4-0.6,2.9-0.8,4.3c0,0,0,0.1-0.1,0.1h0c0.2-2.6,0.4-5.2,0.5-7.7v-0.3c0.1-0.6,0-1.2-0.4-1.7c-0.3-0.3-0.8-0.5-1.2-0.5
		c-1.6,0-1.7,1.3-1.8,2c-0.1,2.1-0.3,4.2-0.5,6.2v-2.6c0-1.7,0-3.5-0.1-5.3c0-0.4-0.2-0.9-0.6-1.1h-0.1c-0.6-0.3-1.3-0.3-1.9,0
		c-0.3,0.2-0.5,0.5-0.7,0.8S49,73,49,73.4c0,0.1,0,0.1,0,0.2V81l-1-6.5c0-0.5-0.3-0.9-0.7-1.2C47,73,46.5,72.9,46,73
		c-1.1,0.2-1.4,0.8-1.5,1.8c0,0.5,0.1,1.1,0.2,1.6c0.2,1.5,0.4,3,0.6,4.6c0.2,1.8,0.5,3.5,0.7,5.3c0,0.4,0,0.7-0.1,0.8
		c0,0-0.1,0.1-0.2,0.1c-0.2-0.2-0.4-0.4-0.5-0.7L45,86.2c-0.4-0.6-0.7-1.3-1.1-2c-0.2-0.4-0.3-0.7-0.5-1c-0.3-1.1-1.5-1.6-2.5-1.3
		h-0.1c-0.9,0.6-1.3,1.9-0.8,2.9c0.5,1.1,0.9,2.1,1.3,3.2c0.7,1.7,1.4,3.4,2.1,5c0.4,1,1,2,1.8,2.8c0.7,0.7,1.1,1.8,1.1,2.8v14
		c-1-0.1-2-0.2-3-0.3s-1.4-0.5-1.4-1.7c0.1-2.7,0.1-5.4,0.1-8c0-0.9,0-1.8,0-2.7c0-2.6-1-5.1-2.9-7c-1.4-1.5-2.5-3.1-3.3-4.9
		c-1.4-3.2-2.8-6.5-4.1-9.7c-1-2.4-2-4.8-3-7.1c-0.6-0.9-0.4-2.2,0.4-2.9c0.2-0.1,0.4-0.2,0.6-0.2H30c0.9,0.3,1.6,0.9,2,1.7
		c0.3,0.6,0.6,1.3,0.9,1.9c0.7,1.6,1.5,3.1,2.4,4.5c0.8,1.1,2,1.9,3.4,2.1c0.6,0,1.2-0.2,1.6-0.6c0.6-0.7,0.5-1.8,0.4-3l-2.5-20
		c0-0.3-0.1-0.6-0.2-0.9c-0.2-0.6-0.2-1.3-0.2-1.9c0-0.1,0-0.3,0.1-0.4c0.2-0.9,0.3-1.4,1.5-1.5c0.3-0.1,0.6,0,0.9,0.2
		c0.4,0.3,0.7,0.7,0.8,1.2L43.4,67c0.2,1.1,1.3,1.8,2.4,1.6l0.2-0.1c0.9-0.1,1.5-0.9,1.4-1.8c0,0,0,0,0-0.1V48.2c0-0.5,0-1,0.1-1.4
		c0.2-0.7,0.3-0.7,0.5-0.8c0.7-0.2,1.4-0.1,2,0.2c0.3,0.4,0.4,0.5,0.4,0.8c0.1,2.7,0.1,5.5,0.1,8.1c0,0.9,0,1.8,0,2.7s0,1.8,0,2.7
		c0,1.8,0,3.6,0,5.5v0.2c0,0.9,0,1.9,1.4,2c1.1,0,2-0.7,2.1-1.8c0.2-2.7,0.4-5.3,0.6-8s0.4-5.3,0.6-7.9c0.2-1.8,0.4-2.4,1.7-2.4
		c0.4,0,0.8,0.1,1.1,0.3c0.4,0.6,0.5,1.3,0.4,2c-0.3,5.9-0.6,11.2-1,16.7c-0.1,1,0.7,1.9,1.7,2s2-0.5,2.2-1.6l0.8-4.2
		c0.3-1.5,0.5-2.9,0.8-4.4c0-0.2,0.1-0.4,0.1-0.7c0-0.5,0.2-1,0.4-1.4c0.3-0.5,0.9-0.9,1.5-1C65.8,56.1,66.2,56.6,66.4,57.3z
		 M100.7,79.3c0,27.3-22.6,49.4-50.4,49.4S0,106.6,0,79.3s22.5-49.4,50.4-49.4S100.7,51.9,100.7,79.3L100.7,79.3z M67.7,57.1
		c-0.3-1.1-1.2-2-2.3-2.3c-1-0.3-2.3,0.8-2.7,1.4c-0.4,0.6-0.6,1.3-0.7,2c0,0.2-0.1,0.4-0.1,0.6c-0.3,1.5-0.5,2.9-0.8,4.4l-0.8,4.2
		c-0.1,0.4-0.5,0.6-0.8,0.6c-0.4,0-0.7-0.4-0.6-0.7l0,0c0.4-5.4,0.7-10.7,1-16.6c0.2-1-0.1-2.1-0.7-2.9c-0.5-0.5-1.3-0.8-2-0.7
		c-2.6,0-2.8,2.1-2.9,3.5c-0.2,2.7-0.4,5.3-0.6,8s-0.4,5.3-0.6,7.9c0,0.4-0.3,0.7-0.7,0.7L52,66.9c0-0.2,0-0.5,0-0.8v-0.2
		c0-1.8,0-3.7,0-5.5c0-0.9,0-1.8,0-2.7s0-1.8,0-2.7c0-2.7,0-5.5-0.1-8.2c0-0.6-0.3-1.2-0.7-1.6c-1-0.7-2.4-0.9-3.6-0.4
		c-0.5,0.3-0.9,0.9-1,1.5c-0.2,0.6-0.3,1.2-0.2,1.8v18.4c0,0.5-0.2,0.6-0.4,0.6l-0.2,0.1c-0.4,0-0.7-0.2-0.8-0.5l-2.4-15.5
		c-0.1-0.8-0.6-1.6-1.3-2.1c-0.5-0.4-1.1-0.5-1.8-0.4c-1.4,0-2.5,1.1-2.5,2.4c0,0.1,0,0.2-0.1,0.3c-0.1,0.8-0.1,1.7,0.1,2.5
		c0.1,0.3,0.1,0.6,0.2,0.8l2.5,20c0.1,0.8,0.2,1.6-0.1,1.9c-0.2,0.1-0.4,0.2-0.7,0.1c-1-0.2-1.8-0.7-2.4-1.5
		c-0.9-1.4-1.6-2.8-2.3-4.3c-0.3-0.7-0.6-1.3-1-1.9c-0.6-1.2-1.6-2-2.9-2.4c-0.7-0.2-1.4,0-2,0.4c-1.3,1.1-1.6,2.9-0.8,4.4
		c1,2.3,2,4.7,3,7.1c1.3,3.2,2.7,6.5,4.1,9.7c0.9,1.9,2.1,3.7,3.6,5.3c1.7,1.6,2.6,3.9,2.6,6.2c0,0.9,0,1.8,0,2.7c0,2.6,0,5.3-0.1,8
		c-0.1,1.8,0.7,2.8,2.5,3c1.2,0.2,2.5,0.3,3.7,0.4l0,0c0.2,0,0.3-0.1,0.4-0.2c0.1-0.1,0.2-0.3,0.2-0.5V98.6c0-1.4-0.5-2.7-1.4-3.7
		c-0.7-0.7-1.2-1.5-1.6-2.4c-0.8-1.6-1.5-3.3-2.1-5c-0.4-1.1-0.9-2.2-1.3-3.2c-0.2-0.4-0.1-1.1,0.1-1.2c0.4-0.1,0.9,0.1,1,0.5
		c0.2,0.3,0.3,0.7,0.5,1.1c0.3,0.7,0.7,1.5,1.2,2.2l0.1,0.2c0.3,0.5,0.8,1.2,1.6,1.2c0.4,0,0.8-0.2,1.1-0.5c0.4-0.5,0.5-1.1,0.4-1.7
		c-0.2-1.8-0.4-3.5-0.7-5.3c-0.2-1.5-0.4-3-0.6-4.6c-0.1-0.4-0.1-0.9-0.2-1.3c0-0.6,0.1-0.6,0.5-0.7c0.1,0,0.3,0,0.4,0.1
		c0.1,0.1,0.2,0.2,0.2,0.4l1.2,7.7c0.2,0.8,0.6,1.1,1.2,1h0.1c0,0,0.1,0,0.2,0c0.5-0.1,0.9-0.6,0.9-1.1l0,0v-8.9c0-0.1,0-0.2,0-0.3
		c0-0.1,0-0.3,0-0.4c0.2-0.3,0.2-0.3,0.2-0.3c0.2,0,0.5,0,0.7,0c0.1,0,0.1,0.1,0.1,0.1c0.1,1.8,0.1,3.6,0.1,5.3V82
		c-0.1,0.4,0,0.8,0.3,1.1c0.2,0.2,0.4,0.3,0.7,0.3c0.7,0.1,1.3-0.4,1.4-1v-0.1c0.2-2.6,0.5-5.3,0.6-7.9c0.1-0.9,0.2-0.9,0.5-0.9
		c0.1,0,0.2,0,0.3,0.1c0,0,0.1,0.2,0.1,0.8v0.4c-0.2,2.6-0.3,5.2-0.5,7.8c-0.1,0.6,0.3,1.2,1,1.2l0,0c0.8,0.1,1.5-0.4,1.6-1.2
		c0.2-1.4,0.5-2.8,0.8-4.2l0.1-0.3c0-0.2,0.1-0.4,0.1-0.5c0.1-0.1,0.2-0.1,0.3-0.1c0.2,0.1,0.3,0.2,0.4,0.4c0,0.5-0.1,1-0.2,1.5
		c-0.6,3.5-0.9,7.1-0.7,10.7c0.1,2.1-0.4,4.2-1.6,6c-0.3,0.4-0.4,0.8-0.5,1.3c-0.1,1.7,0,7.2,0,11.6c0,1.8,0,3.3,0,4.4
		c0,0.2,0.1,0.4,0.2,0.5c0.1,0.1,0.3,0.2,0.5,0.1c0.4-0.1,0.7-0.1,1.1-0.2s0.7-0.1,1.2-0.2c1.8-0.4,2.6-1.4,2.5-3.1
		c0-1.4,0-2.6,0-3.8c0-3.2,0-5.7,0.1-9.5c0.2-0.7,0.5-1.3,0.8-1.9c1.4-2.6,3.7-7,3.3-12.9c-0.3-7.1,0.2-14.2,1.5-21.2
		c0-0.4,0.1-0.7,0.2-1.1C67.7,58.9,67.8,58,67.7,57.1L67.7,57.1z M197.5,74.3l3.4,8h-6.8L197.5,74.3z M183.2,65.4
		c-2.3,0-4.2,1.8-4.2,4.2v11.9h-5.6c-0.8,0-1.5,0.3-1.9,0.9c-2.4,3.2-5.3,6.1-8.5,8.5c0.7-2.3,1-4.7,0.9-7.2
		c-0.1-1.3-1.2-2.2-2.4-2.3h-7.7c-1.6,0-3-1.3-3-2.9v-20c0-1.6,1.4-2.9,3-2.9h28.6c1.6,0,3,1.3,3,2.9v6.8L183.2,65.4z M175.4,66.1
		c0-0.3-0.3-0.6-0.6-0.6l0,0h-6.2V62c0-0.3-0.2-0.7-0.5-0.7s-0.7,0.2-0.7,0.5c0,0.1,0,0.1,0,0.2v3.4h-7c-0.3,0-0.7,0.2-0.7,0.5
		s0.2,0.7,0.5,0.7c0.1,0,0.1,0,0.2,0h11c-1.1,1.4-2.4,2.8-3.8,4l0,0c-1.7,1.5-3.7,2.8-5.7,3.9c-0.3,0.2-0.4,0.5-0.3,0.8
		c0.2,0.3,0.5,0.4,0.8,0.3l0,0c2-1.1,3.8-2.3,5.5-3.8l4.6,3.9c0.1,0.1,0.3,0.1,0.4,0.2c0.2,0,0.4-0.1,0.5-0.2
		c0.2-0.3,0.2-0.7-0.1-0.9l0,0l-4.4-3.8c1.5-1.3,2.8-2.8,4-4.4h1.8C175.1,66.7,175.4,66.4,175.4,66.1z M214.9,69.6v20
		c-0.1,1.6-1.4,2.9-3,2.9h-7.7c-1.3,0-2.3,1-2.4,2.3c-0.1,2.4,0.2,4.8,0.9,7.1c-3.2-2.4-6-5.3-8.4-8.4c-0.4-0.6-1.2-1-1.9-1h-9
		c-1.6,0-2.9-1.3-3-2.9v-20c0-1.6,1.4-2.9,3-2.9H212C213.5,66.7,214.8,68,214.9,69.6z M204.2,86.8l-1.7-4.1l0,0l-4.3-10.2
		c-0.2-0.3-0.6-0.4-0.9-0.3c-0.1,0.1-0.2,0.2-0.3,0.3l-4.3,10.2l0,0l-1.7,4.1c-0.1,0.3,0.1,0.7,0.4,0.8c0.3,0.1,0.6,0,0.7-0.3
		l1.6-3.7h7.8l1.6,3.7c0.1,0.2,0.3,0.4,0.6,0.4c0.1,0,0.2,0,0.2,0C204.2,87.5,204.3,87.1,204.2,86.8L204.2,86.8z M229.6,79.3
		c0,27.3-22.6,49.4-50.4,49.4s-50.4-22.1-50.4-49.4s22.6-49.5,50.4-49.5S229.6,51.9,229.6,79.3z M216.1,89.6v-20
		c0-2.3-1.9-4.2-4.3-4.2h-25.3v-6.8c0-2.3-1.9-4.2-4.3-4.2l0,0h-28.6c-2.3,0-4.2,1.8-4.3,4.2v20c0,2.3,1.9,4.2,4.3,4.2h7.7
		c0.6,0,1.1,0.5,1.2,1.1c0.1,2.8-0.4,5.7-1.4,8.3c-0.1,0.3,0,0.7,0.4,0.8c0.2,0.1,0.4,0.1,0.5,0c4.4-2.6,8.3-7.2,10.3-9.8
		c0.2-0.3,0.6-0.4,0.9-0.4h5.7v6.8c0,2.3,1.9,4.2,4.3,4.2l0,0h9c0.4,0,0.7,0.2,0.9,0.4c2.4,3.1,6.1,7.3,10.3,9.8
		c0.3,0.2,0.7,0.1,0.9-0.2c0.1-0.2,0.1-0.4,0-0.5c-1-2.7-1.5-5.5-1.4-8.4c0.1-0.6,0.6-1.1,1.2-1.1h7.7
		C214.2,93.8,216.1,91.9,216.1,89.6z M346.3,94h-20c-0.7-3.2-2.6-6-5.2-8c1.4-1,3.1-1.8,4.8-2.3c0.7-0.2,1.1-0.8,0.9-1.5
		c-0.1-0.3-0.3-0.6-0.6-0.8c-2.5-1.7-3.9-4.4-3.9-7.4c0-4.9,4-8.9,9-8.9s8.9,4,8.9,9c0,2.9-1.5,5.6-3.9,7.3
		c-0.6,0.4-0.8,1.1-0.4,1.7c0.2,0.3,0.4,0.5,0.8,0.5C342.3,85.4,346,89.4,346.3,94z M295.1,86c-1.5-1-3.1-1.8-4.8-2.3
		c-0.7-0.2-1.1-0.8-0.9-1.5c0.1-0.3,0.3-0.6,0.5-0.8c4.1-2.8,5.2-8.4,2.5-12.5c-2.8-4.1-8.4-5.2-12.5-2.5c-2.5,1.7-4,4.5-4,7.6
		c0,3,1.4,5.7,3.9,7.4c0.4,0.3,0.6,0.8,0.6,1.2c-0.1,0.5-0.5,0.9-0.9,1c-5.5,1.7-9.3,5.8-9.6,10.3H290C290.7,90.8,292.5,88,295.1,86
		L295.1,86z M325.2,94.7c-0.6-3.4-2.6-6.3-5.5-8.2l0,0c-1.6-1.2-3.5-2-5.4-2.6c-0.5-0.1-0.9-0.6-1-1.1s0.2-1,0.6-1.3
		c4.7-3.2,5.9-9.6,2.7-14.2c-3.2-4.7-9.6-5.9-14.2-2.7c-2.8,1.9-4.5,5.1-4.5,8.5s1.6,6.6,4.4,8.4c0.6,0.4,0.8,1.2,0.4,1.8
		c-0.2,0.3-0.5,0.5-0.8,0.6c-1.9,0.6-3.8,1.5-5.5,2.6l0,0c-2.8,1.9-4.8,4.8-5.4,8.2l0,0c0,0.3-0.1,0.7-0.1,1h34.3
		C325.3,95.4,325.2,95,325.2,94.7L325.2,94.7z M358.4,79.3c0,27.3-22.5,49.4-50.4,49.4s-50.4-22.1-50.4-49.4s22.5-49.5,50.4-49.5
		S358.4,51.9,358.4,79.3L358.4,79.3z M347.6,94.6c0-5.4-4.1-10.2-10.6-12.2c4.6-3.2,5.8-9.5,2.6-14.1s-9.5-5.8-14.1-2.6
		c-4.6,3.2-5.8,9.5-2.6,14.1c0.7,1,1.6,1.9,2.6,2.6c-2,0.6-3.9,1.5-5.5,2.7c-1.7-1.1-3.5-1.9-5.4-2.5c-0.1,0-0.1,0-0.1-0.1
		s0-0.1,0.1-0.1c5.3-3.6,6.6-10.7,3.1-16c-3.6-5.3-10.7-6.6-16-3.1c-3.2,2.1-5.1,5.7-5.1,9.6c0,3.8,1.8,7.4,5,9.5
		c0.1,0,0.1,0.1,0.1,0.1s0,0-0.1,0.1c-1.9,0.6-3.8,1.4-5.5,2.6c-1.7-1.2-3.5-2.2-5.5-2.8c4.7-3.2,5.9-9.5,2.8-14.2
		c-3.2-4.7-9.5-5.9-14.2-2.8c-2.8,1.9-4.5,5.1-4.5,8.5s1.6,6.5,4.4,8.4c-6.3,1.9-10.6,6.8-10.6,12.1c0,0.3,0.3,0.6,0.6,0.6l0,0h20.6
		c0,0.4-0.1,0.7,0,1.1c0,0.3,0.3,0.6,0.6,0.6H326c0.3,0,0.6-0.3,0.6-0.6c0-0.4,0-0.7,0-1.1H347C347.3,95.2,347.6,95,347.6,94.6z
		 M428.7,69.3l-0.9-3.9h-12.1l-0.9,3.9l0,0l-2.2,9H431L428.7,69.3C428.8,69.4,428.7,69.4,428.7,69.3z M417.6,67.5h8.4
		c0.3,0,0.6,0.4,0.5,0.7c0,0.3-0.3,0.5-0.5,0.5h-8.5c-0.3,0-0.7-0.2-0.7-0.5s0.2-0.7,0.5-0.7C417.4,67.5,417.5,67.5,417.6,67.5
		L417.6,67.5z M416.8,71.3H427c0.3,0,0.7,0.2,0.7,0.5s-0.2,0.7-0.5,0.7c-0.1,0-0.1,0-0.2,0h-10.2c-0.3,0-0.7-0.2-0.7-0.5
		s0.2-0.7,0.5-0.7C416.7,71.3,416.7,71.3,416.8,71.3z M428.1,76.4h-12.6c-0.3,0-0.7-0.2-0.7-0.5s0.2-0.7,0.5-0.7c0.1,0,0.1,0,0.2,0
		h12.6c0.3,0,0.6,0.4,0.5,0.7C428.6,76.1,428.4,76.4,428.1,76.4L428.1,76.4z M437.7,103.8h34.6v0.8c0,1.7-1.5,3.1-3.2,3.1h-28.2
		c-1.7,0-3.2-1.4-3.2-3.1L437.7,103.8L437.7,103.8z M414.5,65.4h-1c-0.3,0-0.7-0.2-0.7-0.5s0.2-0.7,0.5-0.7c0.1,0,0.1,0,0.2,0h16.6
		c0.3,0,0.6,0.4,0.5,0.7c0,0.3-0.3,0.5-0.5,0.5h-1l0.7,3.2h7.5c0.6,0,1-0.4,1.1-1V57.4c0-0.6-0.5-1-1.1-1h-8.5v2.5
		c0,0.8-0.6,1.4-1.4,1.5c0,0,0,0-0.1,0h-10.9c-0.8,0-1.5-0.6-1.5-1.4c0,0,0,0,0-0.1v-2.6h-8.4c-0.6,0-1,0.4-1.1,1v10.2
		c0,0.6,0.5,1,1.1,1h7.3L414.5,65.4z M432.3,57.1h2.5c0.3,0,0.7,0.2,0.7,0.5s-0.2,0.7-0.5,0.7c-0.1,0-0.1,0-0.2,0h-2.5
		c-0.3,0-0.7-0.2-0.7-0.5s0.2-0.7,0.5-0.7C432.2,57.1,432.2,57.1,432.3,57.1z M458.5,108.9l0.6,3.1h-8.3l0.6-3.1H458.5z M437,29.8
		c-27.8,0-50.4,22.1-50.4,49.4s22.5,49.4,50.4,49.4s50.4-22.1,50.4-49.4S464.8,29.8,437,29.8z M432.3,79.4c-0.1,0.2-0.3,0.2-0.5,0.2
		h-19.9c-0.2,0-0.4-0.1-0.5-0.2c-0.1-0.2-0.2-0.4-0.1-0.5l2.2-9h-7c-1.3,0-2.3-1-2.3-2.3V57.4c0-1.3,1.1-2.3,2.3-2.3h8.4v-4.8
		c0-0.4,0.1-0.7,0.4-1l3.8-3.6c0.3-0.3,0.6-0.4,1-0.5h7.2c0.8,0,1.4,0.6,1.5,1.4c0,0,0,0,0,0.1v8.4h8.5c1.3,0,2.3,1,2.3,2.3v10.1
		c0,1.3-1.1,2.3-2.3,2.3h-7.2l2.2,9C432.4,79.1,432.4,79.3,432.3,79.4L432.3,79.4z M433.5,73.9c0-0.1,0.1-0.2,0.1-0.2l4.4-2.8
		c0.1-0.1,0.3,0,0.4,0.1l0,0c0.1,0.1,0.1,0.3-0.1,0.4l0,0l-3,1.9h14.1c0.3,0,0.6,0.3,0.6,0.6l0,0c0,0.3-0.3,0.6-0.6,0.6h-14l2.9,1.9
		c0.1,0.1,0.2,0.3,0.1,0.4s-0.2,0.1-0.3,0.1c-0.1,0-0.1,0-0.2,0l-4.3-2.8C433.5,74.2,433.5,74.1,433.5,73.9z M434.5,78.2
		c0-0.3,0.3-0.6,0.6-0.6l0,0h14.2l-2.9-1.9c-0.1-0.1-0.2-0.3-0.1-0.4s0.3-0.2,0.4-0.1L451,78c0.1,0.1,0.1,0.1,0.1,0.2
		s-0.1,0.2-0.1,0.3l-4.3,2.8c-0.1,0-0.1,0-0.2,0s-0.2-0.1-0.2-0.1c-0.1-0.1,0-0.3,0.1-0.4l3-1.8h-14.2
		C434.7,79,434.5,78.7,434.5,78.2C434.5,78.3,434.5,78.3,434.5,78.2L434.5,78.2z M469.1,108.9h-9.3l0.6,3.1h2.6
		c0.3,0,0.6,0.4,0.5,0.7c0,0.3-0.3,0.5-0.5,0.5h-16c-0.3,0-0.6-0.4-0.5-0.7c0-0.3,0.3-0.5,0.5-0.5h2.5l0.6-3.1h-9.3
		c-2.4,0-4.4-1.9-4.5-4.3V86.4c0-2.4,2-4.4,4.5-4.3H469c2.4,0,4.4,1.9,4.5,4.3v18.2C473.5,107,471.5,109,469.1,108.9z M472.3,86.4
		v16.2h-34.6V86.4c0-1.7,1.5-3.1,3.2-3.1h28.2C470.8,83.3,472.2,84.7,472.3,86.4L472.3,86.4z M416.1,58.9v-8.6v-0.1l3.8-3.6l0.1-0.1
		h7.2c0.2,0,0.2,0.2,0.2,0.2v12.2c0,0,0,0.2-0.2,0.2h-10.9C416.1,59.1,416.1,58.9,416.1,58.9z"/>
	<path class="st2" d="M159.1,15.3c-1.9,0.1-3.7-0.6-5-1.9l1.4-1.4c1,1,2.3,1.5,3.7,1.4c1.9,0,2.9-0.8,2.9-2.2c0-0.6-0.2-1.1-0.6-1.5
		c-0.4-0.4-1-0.6-1.6-0.6l-1.7-0.2c-1-0.1-1.9-0.5-2.7-1.1c-0.6-0.8-1-1.8-0.9-2.8c0-2.5,1.8-4.2,4.8-4.2c1.6-0.1,3.2,0.5,4.4,1.6
		l-1.4,1.4c-0.9-0.8-2-1.2-3.1-1.1c-1.7,0-2.6,0.9-2.6,2.2c0,0.5,0.2,1,0.5,1.3c0.4,0.4,1,0.6,1.6,0.7l1.7,0.3
		c1,0.1,1.9,0.4,2.6,1.1c0.8,0.8,1.2,1.8,1.2,2.9C164.2,13.8,162.1,15.3,159.1,15.3z M170,17.2c-0.1,0.5-0.4,0.9-0.7,1.3
		c-0.6,0.5-1.3,0.8-2.1,0.7h-0.8v-1.8h0.5c0.9,0,1.2-0.3,1.5-1.1l0.6-1.6L165.5,5h2.2l2.4,7.1l2.4-7.2h2.2L170,17.2z M179.3,15.3
		c-1.6,0.1-3.1-0.4-4.3-1.5l1.3-1.3c0.8,0.7,1.8,1.1,2.9,1.1c1.3,0,2.2-0.4,2.2-1.4c0-0.7-0.4-1.1-1.4-1.2l-1.6-0.1
		c-1.9-0.2-3-1-3-2.8c0-2,1.7-3.1,3.8-3.1c1.4-0.1,2.7,0.3,3.8,1.1l-1.3,1.3c-0.7-0.5-1.6-0.8-2.5-0.7c-1.2,0-1.8,0.5-1.8,1.3
		s0.4,1.1,1.4,1.2l1.4,0.1c2.1,0.2,3.2,1.1,3.2,2.9C183.5,14.2,181.7,15.3,179.3,15.3L179.3,15.3z M188.8,15.2
		c-1.5,0.1-2.7-1-2.8-2.4c0-0.1,0-0.2,0-0.4V6.6h-1.2V5.1h1.2V2.2h2v2.9h2v1.6h-2v5.7c-0.1,0.5,0.3,1.1,0.8,1.2c0.1,0,0.2,0,0.3,0
		h0.9v1.7L188.8,15.2L188.8,15.2z M194,10.7c0,1.8,0.9,2.8,2.6,2.8c0.9,0.1,1.8-0.3,2.5-1l1.3,1.2c-1,1.1-2.4,1.7-3.8,1.6
		c-2.5,0-4.5-1.4-4.5-5.2c0-3.3,1.7-5.2,4.3-5.2s4.3,2,4.3,4.9v0.9L194,10.7z M198.3,7.9c-0.5-1.1-1.9-1.6-3-1c-0.5,0.2-0.8,0.6-1,1
		S194,8.8,194,9.3h4.6C198.6,8.8,198.5,8.4,198.3,7.9L198.3,7.9z M215.6,15.2V9c0.1-1.1-0.6-2.1-1.7-2.2c-0.1,0-0.2,0-0.3,0
		c-1.1-0.1-2,0.8-2.1,1.9c0,0.1,0,0.2,0,0.3v6.3h-2V9c0.1-1.1-0.6-2.1-1.7-2.2c-0.1,0-0.2,0-0.3,0c-1.1-0.1-2.1,0.7-2.2,1.8
		c0,0.2,0,0.3,0,0.5v6.2h-2V5.1h2v1C206.1,5.4,207,5,208,5c1.2-0.1,2.3,0.5,2.9,1.5c0.8-1,2-1.5,3.2-1.5c0.9,0,1.9,0.3,2.6,0.9
		c0.7,0.8,1.1,1.8,1.1,2.9v6.5L215.6,15.2z M233.7,15.2l-3-6H228v6h-2.2V1h5.5c2.2-0.2,4.2,1.5,4.4,3.7c0,0.1,0,0.3,0,0.4
		c0.1,1.7-1.1,3.3-2.8,3.7l3.3,6.3L233.7,15.2z M231.2,2.9H228v4.5h3.2c1.2,0.1,2.3-0.7,2.4-1.9c0-0.1,0-0.2,0-0.3
		c0-1.2-0.9-2.2-2.1-2.3C231.5,2.9,231.4,2.9,231.2,2.9z M239.6,10.7c0,1.8,0.9,2.8,2.6,2.8c0.9,0.1,1.8-0.3,2.5-1l1.3,1.2
		c-1,1.1-2.4,1.7-3.8,1.6c-2.5,0-4.6-1.3-4.6-5.2c0-3.3,1.7-5.2,4.3-5.2s4.3,2,4.3,4.9v0.9L239.6,10.7z M243.9,7.9
		c-0.5-1.1-1.9-1.6-3-1c-0.5,0.2-0.8,0.6-1,1s-0.3,0.9-0.3,1.4h4.6C244.2,8.8,244.1,8.4,243.9,7.9z M252.2,15.3
		c-1.5,0.1-3.1-0.4-4.2-1.5l1.3-1.3c0.8,0.7,1.8,1.1,2.9,1.1c1.3,0,2.2-0.4,2.2-1.4c0-0.7-0.4-1.1-1.4-1.2l-1.6-0.1
		c-1.9-0.2-3-1-3-2.8c0-2,1.7-3.1,3.8-3.1c1.3-0.1,2.6,0.3,3.7,1.1l-1.3,1.3c-0.7-0.5-1.6-0.8-2.5-0.7c-1.2,0-1.8,0.5-1.8,1.3
		s0.4,1.1,1.4,1.2l1.4,0.1c2.1,0.2,3.2,1.1,3.2,2.9C256.4,14.2,254.6,15.3,252.2,15.3L252.2,15.3z M265.7,14.1
		c-0.8,0.8-1.9,1.2-3,1.2s-2.2-0.4-3-1.2c-1-1-1.2-2.3-1.2-4c-0.2-1.4,0.3-2.9,1.2-4c0.8-0.8,1.9-1.2,3-1.2s2.2,0.4,3,1.2
		c0.9,1.1,1.4,2.6,1.2,4C266.9,11.9,266.6,13.1,265.7,14.1z M264.1,7.3c-0.4-0.4-0.9-0.6-1.5-0.6s-1.1,0.2-1.5,0.6
		c-0.6,0.8-0.8,1.8-0.7,2.8c-0.1,1,0.1,2,0.7,2.8c0.4,0.4,0.9,0.6,1.5,0.6s1.1-0.2,1.5-0.6c0.6-0.8,0.8-1.8,0.7-2.8
		C265,9.1,264.7,8.2,264.1,7.3z M275.8,15.2v-1c-0.7,0.7-1.7,1.2-2.7,1.1c-0.9,0-1.8-0.3-2.5-0.9c-0.7-0.8-1.1-1.8-1-2.9V5.1h2v6.2
		c-0.1,1.1,0.6,2.1,1.7,2.2c0.1,0,0.2,0,0.3,0c1.1,0.1,2-0.8,2.1-1.9c0-0.1,0-0.3,0-0.4V5.1h2v10.1
		C277.7,15.2,275.8,15.2,275.8,15.2z M286.6,7.4c-0.4-0.5-0.9-0.7-1.5-0.7c-1.2,0-2.1,1-2,2.2V9v6.2h-2V5.1h2v1.1
		c0.7-0.8,1.6-1.2,2.6-1.2c0.9,0,1.8,0.3,2.4,1L286.6,7.4z M293.2,15.3c-2.3,0-4.5-1.4-4.5-5.2s2.2-5.1,4.5-5.1
		c1.3-0.1,2.5,0.5,3.3,1.4l-1.4,1.4c-0.4-0.6-1.2-1-1.9-1c-0.7,0-1.4,0.3-1.9,0.9c-0.5,0.7-0.7,1.6-0.6,2.5
		c-0.1,0.9,0.1,1.7,0.6,2.5c0.4,0.6,1.1,0.9,1.9,0.9s1.5-0.4,1.9-1l1.4,1.3C295.7,14.8,294.5,15.4,293.2,15.3z M300.1,10.7
		c0,1.8,0.9,2.8,2.6,2.8c0.9,0.1,1.8-0.3,2.5-1l1.3,1.2c-1,1.1-2.4,1.7-3.8,1.6c-2.5,0-4.6-1.3-4.6-5.2c0-3.3,1.7-5.2,4.3-5.2
		s4.3,2,4.3,4.9v0.9L300.1,10.7z M304.4,7.9c-0.5-1.1-1.9-1.6-3-1c-0.5,0.2-0.8,0.6-1,1s-0.3,0.9-0.3,1.4h4.6
		C304.7,8.8,304.6,8.4,304.4,7.9z M320.2,15.2h-5.8V1h5.6c2.6,0,4.3,1.5,4.3,3.9c0,1.3-0.7,2.5-1.9,3c1.3,0.5,2.2,1.9,2.1,3.3
		C324.5,13.8,322.7,15.2,320.2,15.2z M319.8,2.9h-3.2V7h3.2c1.4,0,2.3-0.7,2.3-2S321.2,2.9,319.8,2.9z M320,8.9h-3.4v4.3h3.4
		c1.2,0.1,2.2-0.7,2.3-1.9c0-0.1,0-0.2,0-0.3c0-1.2-0.9-2.1-2.1-2.1C320.2,8.9,320.1,8.9,320,8.9L320,8.9z M327.4,3V0.9h2.2v2.2
		L327.4,3z M327.5,15.2V5.1h2v10.1L327.5,15.2z M338.9,15.2V9c0.1-1.1-0.6-2.1-1.7-2.2c-0.1,0-0.2,0-0.3,0c-1.1-0.1-2.1,0.7-2.2,1.8
		c0,0.1,0,0.3,0,0.4v6.2h-2V5.1h2v1c0.7-0.7,1.7-1.1,2.7-1.1c0.9,0,1.8,0.3,2.5,0.9c0.7,0.8,1.1,1.8,1,2.9v6.5L338.9,15.2z
		 M349.9,15.2v-1c-0.6,0.8-1.6,1.3-2.7,1.2c-0.9,0-1.8-0.3-2.5-0.9c-1-1-1.1-2.6-1.1-4.3s0.2-3.3,1.1-4.3c0.7-0.6,1.6-0.9,2.5-0.9
		c1-0.1,2,0.3,2.7,1.1V1h2v14.2H349.9z M347.8,6.7c-1.9,0-2.1,1.6-2.1,3.4s0.3,3.4,2.1,3.4s2.1-1.6,2.1-3.4S349.6,6.8,347.8,6.7
		L347.8,6.7z M356.6,10.7c0,1.8,0.9,2.8,2.6,2.8c0.9,0.1,1.8-0.3,2.5-1l1.3,1.2c-1,1.1-2.4,1.7-3.8,1.6c-2.5,0-4.6-1.3-4.6-5.2
		c0-3.3,1.7-5.2,4.3-5.2s4.3,2,4.3,4.9v0.9L356.6,10.7z M360.9,7.9c-0.5-1.1-1.9-1.6-3-1c-0.5,0.2-0.8,0.6-1,1s-0.3,0.9-0.3,1.4h4.6
		C361.2,8.8,361.1,8.4,360.9,7.9L360.9,7.9z M371.5,7.5c-0.4-0.5-0.9-0.7-1.5-0.7c-1.2,0-2.1,1-2,2.2v0.1v6.2h-2V5.1h2v1.1
		c0.7-0.8,1.6-1.2,2.6-1.2c0.9,0,1.8,0.3,2.4,1L371.5,7.5z M112.6,6.6v9h1.4V9.5l5.4-8.5H116L112.6,6.6z M112.2,6.6v9h-1.4V9.5
		L105.4,1h3.4L112.2,6.6z M110.4,2.1c0-1.1,0.9-2,2-2s2,0.9,2,2s-0.9,2-2,2S110.4,3.2,110.4,2.1 M142.8,15.9c-4.5,0-6.2-2.2-6.2-5.8
		v-9h3.2v9.2c0,2.2,1.2,3.1,3,3.1c1.5,0.1,2.9-1,3-2.5c0-0.2,0-0.4,0-0.6V1.1h3.2v9C149,13.6,147.3,15.8,142.8,15.9 M130.6,8.4
		c0-3.6-1.4-5.2-3.7-5.2s-3.7,1.5-3.7,5.2s1.5,5,3.7,5C129.2,13.4,130.6,12,130.6,8.4 M119.8,8.4c0-4.7,2.8-7.6,7.1-7.6
		s7.1,2.9,7.1,7.5s-2.7,7.5-7.1,7.5S119.8,13,119.8,8.4 M257.1,146.3v-8.5h1v8.5H257.1z M263.1,145.7c-0.4,0.4-0.9,0.6-1.5,0.6h-2
		v-8.5h2c0.6,0,1.1,0.2,1.5,0.6c0.5,0.6,0.6,1.4,0.6,3.7S263.7,145.1,263.1,145.7L263.1,145.7z M262.4,139c-0.2-0.2-0.4-0.3-0.7-0.3
		h-0.9v6.7h0.9c0.3,0,0.6-0.1,0.7-0.3c0.3-0.4,0.4-1.1,0.4-3S262.7,139.4,262.4,139L262.4,139z M269.5,146.3v-0.6
		c-0.1,0.2-0.2,0.3-0.4,0.4c-0.2,0.2-0.5,0.2-0.7,0.2c-0.4,0-0.8-0.2-1.1-0.5c-0.3-0.4-0.4-0.9-0.4-1.4s0.2-1,0.5-1.4
		c0.4-0.3,0.8-0.5,1.3-0.4h0.6v-1c0-0.6-0.2-0.9-0.7-0.9c-0.2,0-0.4,0.1-0.5,0.2c-0.2,0.2-0.3,0.5-0.2,0.7h-1c0-0.5,0.1-1,0.5-1.3
		c0.3-0.3,0.8-0.5,1.2-0.4c0.4,0,0.9,0.1,1.2,0.4c0.3,0.4,0.5,0.9,0.5,1.4v4.5L269.5,146.3z M269.4,143.4h-0.5
		c-0.3,0-0.5,0.1-0.7,0.2c-0.2,0.2-0.3,0.5-0.3,0.9c0,0.6,0.2,1,0.8,1s0.8-0.4,0.8-1L269.4,143.4L269.4,143.4z M274.2,146.3v-4.6
		c0-0.6-0.3-0.9-0.7-0.9s-0.7,0.3-0.7,0.9v4.6h-1v-6.2h0.9v0.5c0.1-0.2,0.2-0.3,0.4-0.4c0.6-0.3,1.3-0.2,1.7,0.3
		c0.3,0.4,0.4,0.8,0.4,1.3v4.6L274.2,146.3z M278.8,146.3v-0.5c-0.1,0.2-0.2,0.3-0.4,0.4c-0.2,0.1-0.4,0.2-0.7,0.2
		c-0.4,0-0.8-0.2-1-0.5c-0.4-0.4-0.5-1.3-0.5-2.7s0.1-2.3,0.5-2.8c0.2-0.3,0.6-0.5,1-0.4c0.2,0,0.5,0.1,0.7,0.2
		c0.1,0.1,0.3,0.2,0.4,0.3v-2.8h1v8.5h-1V146.3z M278.8,141.8c0-0.3-0.1-0.5-0.2-0.7c-0.3-0.3-0.7-0.2-1,0l0,0
		c-0.2,0.3-0.2,0.8-0.2,2.1s0,1.8,0.2,2.1c0.1,0.2,0.3,0.3,0.5,0.3s0.4-0.1,0.5-0.2c0.2-0.2,0.3-0.5,0.2-0.7V141.8z M285.5,140.9
		c-0.6,0-1.1,0.4-1.1,1v0.1v4.2h-1V140h0.9v0.7c0.1-0.2,0.3-0.3,0.4-0.4c0.3-0.2,0.6-0.3,1-0.3v0.9H285.5z M287.4,143.4
		c-0.1,0.6,0,1.3,0.2,1.8c0.1,0.2,0.3,0.3,0.5,0.3s0.4-0.1,0.5-0.2c0.2-0.2,0.2-0.5,0.2-0.7h1c0,0.5-0.2,1-0.5,1.4
		c-0.3,0.3-0.8,0.5-1.2,0.4c-0.5,0-0.9-0.1-1.2-0.5c-0.5-0.5-0.5-1.4-0.5-2.7s0.1-2.2,0.5-2.7c0.3-0.3,0.8-0.5,1.2-0.5
		c0.5,0,0.9,0.1,1.2,0.5c0.5,0.5,0.5,1.4,0.5,2.9H287.4z M288.7,141.1c-0.1-0.2-0.3-0.3-0.5-0.2c-0.2,0-0.4,0.1-0.5,0.2
		c-0.2,0.2-0.2,0.7-0.2,1.6h1.6C288.9,141.8,288.9,141.3,288.7,141.1L288.7,141.1z M293.8,145.9c-0.3,0.3-0.8,0.5-1.3,0.5
		s-0.9-0.2-1.2-0.5c-0.4-0.4-0.5-0.9-0.5-1.4h1c0,0.3,0.1,0.5,0.3,0.8c0.1,0.1,0.3,0.2,0.5,0.2s0.4-0.1,0.6-0.2
		c0.2-0.2,0.2-0.4,0.2-0.6c0-0.2-0.1-0.4-0.2-0.6c-0.1-0.2-0.3-0.3-0.5-0.4l-0.8-0.4c-0.3-0.2-0.6-0.4-0.9-0.7
		c-0.1-0.2-0.2-0.5-0.2-0.8c0-0.5,0.2-0.9,0.5-1.3c0.7-0.6,1.7-0.6,2.4,0c0.4,0.4,0.5,0.9,0.5,1.4h-1c0-0.3-0.1-0.5-0.2-0.7
		c-0.1-0.1-0.3-0.2-0.5-0.2s-0.4,0.1-0.5,0.2c-0.1,0.2-0.2,0.4-0.2,0.6c0,0.2,0,0.3,0.1,0.5s0.3,0.3,0.5,0.4l0.8,0.4
		c0.4,0.1,0.7,0.4,0.9,0.7c0.2,0.3,0.3,0.6,0.3,1C294.3,145.1,294.1,145.6,293.8,145.9L293.8,145.9z M298.4,145.9
		c-0.2,0.3-0.6,0.5-1,0.5c-0.2,0-0.5-0.1-0.7-0.2c-0.1-0.1-0.3-0.2-0.4-0.4v2.8h-1v-8.5h1v0.5c0.1-0.2,0.2-0.3,0.4-0.4
		c0.2-0.1,0.4-0.2,0.7-0.2c0.4,0,0.8,0.2,1,0.4c0.4,0.5,0.5,1.3,0.5,2.8S298.8,145.5,298.4,145.9L298.4,145.9z M297.6,141.1
		c-0.1-0.2-0.3-0.3-0.5-0.2c-0.2,0-0.4,0.1-0.5,0.2c-0.2,0.2-0.3,0.4-0.2,0.7v2.8c0,0.3,0.1,0.5,0.2,0.7c0.1,0.1,0.3,0.2,0.5,0.2
		s0.4-0.1,0.5-0.3c0.2-0.3,0.2-0.8,0.2-2.1S297.8,141.4,297.6,141.1L297.6,141.1z M302.9,145.8c-0.3,0.4-0.8,0.6-1.3,0.6
		s-1-0.2-1.3-0.6c-0.6-1.7-0.6-3.6,0-5.3c0.3-0.4,0.8-0.6,1.3-0.6s1,0.2,1.3,0.6C303.5,142.2,303.5,144.1,302.9,145.8z M302.1,141.1
		c-0.1-0.2-0.3-0.3-0.6-0.3c-0.2,0-0.4,0.1-0.5,0.3c-0.3,1.4-0.3,2.8,0,4.1c0.1,0.2,0.3,0.3,0.5,0.3s0.4-0.1,0.6-0.3
		C302.4,143.9,302.4,142.5,302.1,141.1z M307,146.3v-4.6c0-0.6-0.3-0.9-0.7-0.9s-0.7,0.3-0.7,0.9v4.6h-1v-6.2h0.9v0.5
		c0.1-0.2,0.2-0.3,0.4-0.4c0.6-0.3,1.3-0.2,1.7,0.3c0.3,0.4,0.4,0.8,0.4,1.3v4.6L307,146.3z M312,145.9c-0.3,0.3-0.8,0.5-1.3,0.5
		s-0.9-0.2-1.2-0.5c-0.4-0.4-0.5-0.9-0.5-1.4h1c0,0.3,0.1,0.5,0.3,0.8c0.2,0.1,0.4,0.2,0.6,0.2s0.4-0.1,0.6-0.2
		c0.2-0.2,0.2-0.4,0.2-0.6c0-0.2,0-0.4-0.1-0.6c-0.1-0.2-0.3-0.3-0.5-0.4l-0.8-0.4c-0.3-0.2-0.6-0.4-0.9-0.7
		c-0.1-0.2-0.2-0.5-0.2-0.8c0-0.5,0.2-0.9,0.5-1.3c0.3-0.3,0.8-0.5,1.2-0.5c0.4,0,0.9,0.1,1.2,0.4c0.4,0.4,0.5,0.9,0.5,1.4h-1
		c0-0.3-0.1-0.5-0.2-0.7c-0.1-0.1-0.3-0.2-0.5-0.2s-0.4,0.1-0.5,0.2c-0.2,0.2-0.2,0.4-0.2,0.6c0,0.2,0,0.3,0.1,0.5s0.3,0.3,0.5,0.4
		l0.8,0.4c0.4,0.1,0.7,0.4,0.9,0.7C312.7,144.3,312.6,145.3,312,145.9L312,145.9z M314.4,143.4c-0.1,0.6,0,1.3,0.2,1.8
		c0.1,0.2,0.3,0.3,0.6,0.3c0.2,0,0.4-0.1,0.5-0.2c0.2-0.2,0.2-0.5,0.2-0.7h1c0,0.5-0.2,1-0.5,1.4c-0.3,0.3-0.8,0.5-1.2,0.4
		c-0.5,0-0.9-0.1-1.2-0.5c-0.5-0.5-0.5-1.4-0.5-2.7s0.1-2.2,0.5-2.7c0.7-0.6,1.8-0.6,2.4,0c0.5,0.5,0.6,1.4,0.6,2.9H314.4z
		 M315.7,141.1c-0.1-0.2-0.3-0.3-0.5-0.2c-0.2,0-0.4,0.1-0.5,0.2c-0.2,0.2-0.2,0.7-0.2,1.6h1.6C315.9,141.8,315.9,141.3,315.7,141.1
		L315.7,141.1z M320.8,145.9c-0.3,0.3-0.8,0.5-1.3,0.5s-0.9-0.2-1.2-0.5c-0.4-0.4-0.5-0.9-0.5-1.4h1c0,0.3,0.1,0.5,0.3,0.8
		c0.1,0.1,0.3,0.2,0.5,0.2s0.4-0.1,0.6-0.2c0.2-0.2,0.2-0.4,0.2-0.6c0-0.2,0-0.4-0.1-0.6c-0.1-0.2-0.3-0.3-0.5-0.4l-0.8-0.4
		c-0.3-0.2-0.6-0.4-0.9-0.7c-0.1-0.2-0.2-0.5-0.2-0.8c0-0.5,0.2-0.9,0.5-1.3c0.7-0.6,1.7-0.6,2.4,0c0.4,0.4,0.5,0.9,0.5,1.4h-1
		c0-0.3-0.1-0.5-0.2-0.7c-0.1-0.1-0.3-0.2-0.5-0.2s-0.4,0.1-0.5,0.2c-0.2,0.2-0.2,0.4-0.2,0.6c0,0.2,0,0.3,0.1,0.5s0.3,0.3,0.5,0.4
		l0.8,0.4c0.4,0.1,0.7,0.4,0.9,0.7C321.5,144.4,321.4,145.3,320.8,145.9L320.8,145.9z M325.8,140.8v5.5h-1v-5.5h-0.7V140h0.7v-0.6
		c0-0.5,0.2-1,0.5-1.4c0.4-0.3,0.9-0.4,1.4-0.4v0.9c-0.5-0.1-0.9,0.2-1,0.7c0,0.1,0,0.2,0,0.3v0.6h1v0.8L325.8,140.8z M330.4,145.8
		c-0.3,0.4-0.8,0.6-1.3,0.6s-1-0.2-1.3-0.6c-0.6-1.7-0.6-3.6,0-5.3c0.3-0.4,0.8-0.6,1.3-0.6s1,0.2,1.3,0.6
		C331,142.3,331,144.1,330.4,145.8z M329.6,141.2c-0.1-0.2-0.3-0.3-0.5-0.3s-0.4,0.1-0.5,0.3c-0.3,1.4-0.3,2.8,0,4.1
		c0.1,0.2,0.3,0.3,0.5,0.3s0.4-0.1,0.5-0.3C329.9,143.9,329.9,142.5,329.6,141.2z M334.1,140.9c-0.6,0-1.1,0.4-1.1,1v0.1v4.2h-1V140
		h0.9v0.7c0.1-0.2,0.3-0.3,0.4-0.4c0.3-0.2,0.6-0.3,1-0.3v0.9H334.1z M339.8,146.3v-0.6c-0.1,0.2-0.2,0.3-0.4,0.4
		c-0.2,0.2-0.5,0.2-0.7,0.2c-0.4,0-0.8-0.2-1.1-0.5c-0.3-0.4-0.4-0.9-0.4-1.4s0.2-1,0.5-1.4c0.4-0.3,0.8-0.5,1.3-0.4h0.6v-1
		c0-0.6-0.2-0.9-0.7-0.9c-0.2,0-0.4,0.1-0.5,0.2c-0.2,0.2-0.3,0.5-0.2,0.7h-1c0-0.5,0.1-1,0.5-1.3c0.3-0.3,0.8-0.5,1.2-0.4
		c0.4,0,0.9,0.1,1.2,0.4c0.3,0.4,0.5,0.9,0.5,1.4v4.5L339.8,146.3z M339.8,143.4h-0.5c-0.3,0-0.5,0.1-0.7,0.2
		c-0.2,0.2-0.3,0.5-0.3,0.9c0,0.6,0.2,1,0.8,1s0.8-0.4,0.8-1L339.8,143.4L339.8,143.4z M342,139v-1.1h1.1v1.1H342z M342.1,146.3
		v-6.2h1v6.2H342.1z M346.7,146.3v-0.5c-0.1,0.2-0.2,0.3-0.4,0.4c-0.2,0.1-0.4,0.2-0.7,0.2c-0.4,0-0.8-0.2-1-0.5
		c-0.4-0.4-0.5-1.3-0.5-2.7s0.1-2.3,0.5-2.8c0.2-0.3,0.6-0.5,1-0.4c0.2,0,0.5,0.1,0.7,0.2c0.1,0.1,0.3,0.2,0.4,0.3v-2.8h1v8.5h-1
		V146.3z M346.7,141.8c0-0.3-0.1-0.5-0.2-0.7c-0.3-0.3-0.7-0.2-1,0l0,0c-0.2,0.3-0.2,0.8-0.2,2.1s0,1.8,0.2,2.1
		c0.1,0.2,0.3,0.3,0.5,0.3s0.4-0.1,0.5-0.2c0.2-0.2,0.3-0.5,0.2-0.7V141.8z M349,139v-1.1h1.1v1.1H349z M349.1,146.3v-6.2h1v6.2
		H349.1z M353.9,146.3v-4.6c0.1-0.4-0.2-0.8-0.6-0.8h-0.1c-0.4,0-0.7,0.3-0.7,0.9v4.6h-1v-6.2h0.9v0.5c0.1-0.2,0.2-0.3,0.4-0.4
		c0.2-0.1,0.4-0.2,0.7-0.2c0.4,0,0.8,0.1,1.1,0.4c0.3,0.4,0.4,0.8,0.4,1.3v4.6L353.9,146.3z M359.4,146.5c0.1,0.6-0.1,1.3-0.5,1.7
		c-0.3,0.3-0.8,0.5-1.2,0.5c-0.5,0-0.9-0.1-1.2-0.4c-0.3-0.4-0.5-0.9-0.5-1.4h1c0,0.3,0.1,0.5,0.2,0.8c0.1,0.1,0.3,0.2,0.5,0.2
		s0.4-0.1,0.5-0.2c0.2-0.2,0.2-0.5,0.2-1.1v-0.9c-0.1,0.1-0.2,0.3-0.4,0.4c-0.2,0.1-0.4,0.2-0.6,0.2c-0.4,0-0.8-0.2-1-0.4
		c-0.4-0.4-0.5-1.1-0.5-2.6s0.1-2.1,0.5-2.6c0.2-0.3,0.6-0.5,1-0.4c0.2,0,0.5,0.1,0.7,0.2c0.1,0.1,0.3,0.2,0.4,0.3v-0.4h0.9V146.5z
		 M358.4,141.8c0-0.3-0.1-0.5-0.2-0.7c-0.1-0.1-0.3-0.2-0.5-0.2s-0.4,0.1-0.5,0.2c-0.2,0.3-0.2,0.8-0.2,1.9s0,1.7,0.2,1.9
		c0.3,0.3,0.7,0.3,1,0l0,0c0.2-0.2,0.3-0.4,0.2-0.7V141.8z M267.8,160.7h-1l-0.8-4.6l-0.8,4.6h-1l-1.3-6.2h1.2l0.7,4.7l0.8-4.7h0.9
		l0.9,4.7l0.7-4.7h1.1L267.8,160.7z M269.8,153.4v-1.1h1.1v1.1H269.8z M269.9,160.7v-6.2h1v6.2H269.9z M273,160.3
		c-0.4-0.4-0.6-0.9-0.5-1.4v-3.7h-0.7v-0.8h0.7v-1.7h1v1.7h1v0.8h-1v3.6c0,0.6,0.3,0.9,1,0.9v0.9C273.9,160.8,273.3,160.6,273,160.3
		L273,160.3z M277.8,160.7v-4.6c0-0.6-0.3-0.9-0.7-0.9s-0.7,0.3-0.7,0.9v4.6h-1v-8.5h1v2.8c0.1-0.1,0.2-0.3,0.4-0.4
		c0.2-0.1,0.4-0.2,0.7-0.2c0.4,0,0.8,0.1,1,0.4c0.3,0.4,0.4,0.8,0.4,1.3v4.6L277.8,160.7L277.8,160.7z M282.9,160.2
		c-0.3,0.4-0.8,0.6-1.3,0.6s-1-0.2-1.3-0.6c-0.6-1.7-0.6-3.6,0-5.3c0.3-0.4,0.8-0.6,1.3-0.6s1,0.2,1.3,0.6
		C283.5,156.7,283.5,158.5,282.9,160.2z M282.2,155.5c-0.1-0.2-0.3-0.3-0.5-0.3s-0.4,0.1-0.5,0.3c-0.3,1.4-0.3,2.8,0,4.1
		c0.1,0.2,0.3,0.3,0.5,0.3s0.4-0.1,0.5-0.3C282.5,158.3,282.5,156.9,282.2,155.5z M287,160.7v-0.5c-0.2,0.4-0.6,0.6-1,0.6
		s-0.8-0.1-1.1-0.4c-0.3-0.4-0.4-0.8-0.4-1.3v-4.6h1v4.6c0,0.6,0.3,0.9,0.8,0.9s0.7-0.3,0.7-0.9v-4.6h1v6.2H287z M290.1,160.3
		c-0.4-0.4-0.6-0.9-0.5-1.4v-3.7h-0.7v-0.8h0.7v-1.7h1v1.7h1v0.8h-1v3.6c0,0.6,0.4,0.9,1,0.9v0.9C291,160.8,290.4,160.6,290.1,160.3
		L290.1,160.3z M296.8,155.3c-0.6,0-1.1,0.4-1.1,1v0.1v4.2h-1v-6.2h0.9v0.7c0.1-0.2,0.3-0.3,0.4-0.4c0.3-0.2,0.6-0.3,1-0.3v0.9
		H296.8z M298.7,157.8c-0.1,0.6,0,1.3,0.2,1.8c0.1,0.2,0.3,0.3,0.5,0.3s0.4-0.1,0.5-0.2c0.2-0.2,0.2-0.5,0.2-0.7h1
		c0,0.5-0.2,1-0.5,1.4c-0.3,0.3-0.8,0.5-1.2,0.4c-0.5,0-0.9-0.1-1.2-0.5c-0.5-0.5-0.6-1.4-0.6-2.7s0.1-2.2,0.5-2.7
		c0.3-0.3,0.8-0.5,1.2-0.5c0.5,0,0.9,0.1,1.2,0.5c0.5,0.5,0.5,1.4,0.5,2.9H298.7z M300,155.5c-0.1-0.2-0.3-0.3-0.5-0.2
		c-0.2,0-0.4,0.1-0.5,0.2c-0.2,0.2-0.2,0.7-0.2,1.6h1.6C300.2,156.2,300.1,155.7,300,155.5L300,155.5z M302.3,157.8v-0.9h2.4v0.9
		H302.3z M306.7,160.3c-0.4-0.4-0.6-0.9-0.5-1.4v-3.7h-0.7v-0.8h0.7v-1.7h1v1.7h1v0.8h-1v3.6c0,0.6,0.4,0.9,1,0.9v0.9
		C307.6,160.8,307.1,160.6,306.7,160.3L306.7,160.3z M311.1,155.3c-0.6,0-1.1,0.4-1.1,1v0.1v4.2h-1v-6.2h0.9v0.7
		c0.1-0.2,0.3-0.3,0.4-0.4c0.3-0.2,0.6-0.3,1-0.3v0.9H311.1z M314.5,160.7v-0.6c-0.1,0.2-0.2,0.3-0.4,0.4c-0.2,0.2-0.5,0.2-0.7,0.2
		c-0.4,0-0.8-0.2-1.1-0.5c-0.3-0.4-0.4-0.9-0.4-1.4s0.2-1,0.5-1.4c0.4-0.3,0.8-0.5,1.3-0.4h0.6v-1c0-0.6-0.2-0.9-0.7-0.9
		c-0.2,0-0.4,0.1-0.5,0.2c-0.2,0.2-0.3,0.5-0.2,0.7h-1c0-0.5,0.1-1,0.5-1.3c0.3-0.3,0.8-0.5,1.2-0.4c0.4,0,0.9,0.1,1.2,0.4
		c0.3,0.4,0.5,0.9,0.5,1.4v4.5L314.5,160.7z M314.5,157.8H314c-0.3,0-0.5,0.1-0.7,0.2c-0.2,0.2-0.3,0.5-0.3,0.9c0,0.6,0.2,1,0.8,1
		s0.8-0.4,0.8-1L314.5,157.8L314.5,157.8z M319.2,160.7v-0.5c-0.1,0.2-0.2,0.3-0.4,0.4c-0.2,0.1-0.4,0.2-0.7,0.2
		c-0.4,0-0.8-0.1-1-0.4c-0.3-0.4-0.4-0.8-0.4-1.3v-4.6h1v4.6c0,0.6,0.3,0.9,0.8,0.9s0.7-0.3,0.7-0.9v-4.6h1v6.2L319.2,160.7z
		 M326.4,160.7v-4.6c0-0.6-0.3-0.9-0.7-0.9s-0.7,0.3-0.7,0.9v4.6h-1v-4.6c0.1-0.4-0.2-0.8-0.7-0.9h-0.1c-0.4,0-0.7,0.3-0.7,0.9v4.6
		h-1v-6.2h0.9v0.5c0.2-0.4,0.6-0.6,1-0.6c0.5,0,0.9,0.2,1.2,0.6c0.1-0.2,0.3-0.3,0.5-0.4c0.2-0.1,0.5-0.2,0.7-0.2
		c0.4,0,0.8,0.1,1.1,0.4c0.3,0.4,0.4,0.8,0.4,1.3v4.6L326.4,160.7z M331,160.7v-0.6c-0.1,0.2-0.2,0.3-0.4,0.4
		c-0.2,0.2-0.5,0.2-0.7,0.2c-0.4,0-0.8-0.2-1.1-0.5c-0.3-0.4-0.4-0.9-0.4-1.4s0.2-1,0.5-1.4c0.4-0.3,0.8-0.5,1.3-0.4h0.6v-1
		c0-0.6-0.3-0.9-0.7-0.9c-0.2,0-0.4,0.1-0.5,0.2c-0.2,0.2-0.2,0.5-0.2,0.7h-1c0-0.5,0.1-1,0.5-1.3c0.3-0.3,0.8-0.5,1.2-0.4
		c0.4,0,0.9,0.1,1.2,0.4c0.3,0.4,0.5,0.9,0.5,1.4v4.5L331,160.7z M331,157.8h-0.6c-0.3,0-0.5,0.1-0.7,0.2c-0.2,0.2-0.3,0.5-0.3,0.9
		c0,0.6,0.2,1,0.8,1s0.8-0.4,0.8-1L331,157.8L331,157.8z M334,160.3c-0.4-0.4-0.6-0.9-0.5-1.4v-3.7h-0.7v-0.8h0.7v-1.7h1v1.7h1v0.8
		h-1v3.6c0,0.6,0.4,0.9,1,0.9v0.9c-0.6,0.1-1.1,0-1.6-0.4L334,160.3z M336.3,153.4v-1.1h1.1v1.1H336.3z M336.4,160.7v-6.2h1v6.2
		H336.4z M338.3,160.7V160l2-4.6h-1.8v-0.9h2.9v0.8l-2,4.6h2v0.9L338.3,160.7z M342.3,153.4v-1.1h1.1v1.1H342.3z M342.3,160.7v-6.2
		h1v6.2H342.3z M347.1,160.7v-4.6c0.1-0.4-0.2-0.8-0.7-0.9h-0.1c-0.4,0-0.7,0.3-0.7,0.9v4.6h-1v-6.2h0.9v0.5c0.2-0.3,0.6-0.6,1-0.6
		s0.8,0.1,1.1,0.4c0.3,0.4,0.4,0.8,0.4,1.3v4.6H347.1z M352.7,160.8c0.1,0.6-0.1,1.3-0.5,1.7c-0.3,0.3-0.8,0.5-1.2,0.5
		c-0.5,0-0.9-0.1-1.2-0.4c-0.3-0.4-0.5-0.8-0.5-1.3h1c0,0.3,0,0.5,0.2,0.7c0.3,0.3,0.7,0.3,1,0c0.2-0.3,0.3-0.7,0.2-1.1v-1
		c-0.1,0.1-0.2,0.3-0.3,0.4c-0.2,0.1-0.4,0.2-0.6,0.2c-0.4,0-0.8-0.2-1-0.4c-0.4-0.4-0.5-1.1-0.5-2.6s0.1-2.1,0.5-2.6
		c0.2-0.3,0.6-0.5,1-0.4c0.2,0,0.5,0.1,0.7,0.2c0.1,0.1,0.3,0.2,0.4,0.3v-0.4h1L352.7,160.8z M351.7,156.1c0-0.3-0.1-0.5-0.2-0.7
		c-0.1-0.1-0.3-0.2-0.5-0.2s-0.4,0.1-0.5,0.2c-0.2,0.3-0.2,0.8-0.2,1.9s0,1.7,0.2,1.9c0.3,0.3,0.7,0.3,1,0.1l0,0
		c0.2-0.2,0.3-0.5,0.2-0.7V156.1z M354,160.7v-1.2h1.2v1.2H354z M4.5,144.6c-0.6,0-1.1-0.2-1.5-0.6c-0.5-0.6-0.6-1.4-0.6-3.7
		s0.1-3.1,0.6-3.7c0.4-0.4,0.9-0.6,1.5-0.6c0.5,0,1,0.2,1.4,0.5c0.4,0.5,0.6,1.1,0.6,1.7h-1c0-0.6-0.2-1.3-1-1.3
		c-0.3,0-0.5,0.1-0.7,0.3c-0.3,0.4-0.3,1.1-0.3,3.1s0,2.7,0.3,3.1c0.2,0.2,0.4,0.3,0.7,0.3c0.6,0,1-0.5,1-1.2v-1.7h-1v-0.9h2v2.5
		c0.1,1.1-0.6,2-1.7,2.1C4.7,144.6,4.6,144.6,4.5,144.6z M10.2,144.5V144c-0.1,0.2-0.2,0.3-0.4,0.4c-0.2,0.1-0.4,0.2-0.7,0.2
		c-0.4,0-0.8-0.1-1.1-0.5s-0.4-0.8-0.4-1.3v-4.5h1v4.6c-0.1,0.4,0.2,0.8,0.7,0.9h0.1c0.4,0,0.7-0.3,0.7-0.9v-4.6h1v6.2L10.2,144.5z
		 M12.4,137.2v-1.1h1.1v1.1H12.4z M12.5,144.5v-6.2h1v6.2H12.5z M17.2,144.5V144c-0.1,0.2-0.2,0.3-0.4,0.4c-0.2,0.1-0.4,0.2-0.7,0.2
		c-0.4,0-0.8-0.2-1-0.5c-0.4-0.5-0.4-1.3-0.4-2.7s0.1-2.3,0.4-2.8c0.2-0.3,0.6-0.5,1-0.5c0.2,0,0.5,0.1,0.7,0.2
		c0.1,0.1,0.2,0.2,0.3,0.4V136h1v8.5H17.2z M17.2,140c0-0.3-0.1-0.5-0.2-0.7c-0.1-0.1-0.3-0.2-0.5-0.2s-0.4,0.1-0.5,0.2
		c-0.2,0.3-0.2,0.8-0.2,2.1s0,1.8,0.2,2.1c0.1,0.2,0.3,0.3,0.5,0.2c0.2,0,0.4-0.1,0.5-0.2c0.2-0.2,0.3-0.5,0.2-0.7V140z M20.3,141.6
		c-0.1,0.6,0,1.3,0.3,1.8c0.1,0.2,0.3,0.3,0.5,0.3s0.4-0.1,0.5-0.2c0.2-0.2,0.2-0.5,0.2-0.7h1c0,0.5-0.2,1-0.5,1.4
		c-0.3,0.3-0.8,0.5-1.2,0.5c-0.5,0-0.9-0.1-1.2-0.5c-0.5-0.5-0.5-1.4-0.5-2.7s0.1-2.2,0.5-2.7c0.3-0.3,0.7-0.5,1.1-0.5
		c0.5,0,0.9,0.1,1.2,0.5c0.5,0.5,0.5,1.4,0.5,2.9h-2.4V141.6z M21.6,139.3c-0.1-0.2-0.3-0.3-0.6-0.2c-0.2,0-0.4,0.1-0.5,0.2
		c-0.2,0.2-0.2,0.7-0.2,1.6h1.6C21.8,140,21.8,139.6,21.6,139.3L21.6,139.3z M26.7,144.1c-0.3,0.3-0.8,0.5-1.3,0.5s-0.9-0.2-1.2-0.5
		c-0.4-0.4-0.5-0.9-0.5-1.4h1c0,0.3,0.1,0.6,0.3,0.8c0.2,0.1,0.3,0.2,0.5,0.2s0.4-0.1,0.6-0.2c0.2-0.2,0.2-0.4,0.2-0.6
		c0-0.2-0.1-0.4-0.2-0.6c-0.1-0.2-0.3-0.3-0.5-0.4l-0.8-0.4c-0.3-0.2-0.6-0.4-0.9-0.7c-0.1-0.3-0.2-0.5-0.2-0.8
		c0-0.5,0.2-0.9,0.5-1.3c0.3-0.3,0.8-0.5,1.2-0.5c0.4,0,0.9,0.1,1.2,0.4c0.4,0.4,0.5,0.9,0.5,1.4h-1c0-0.3-0.1-0.5-0.2-0.7
		c-0.1-0.1-0.3-0.2-0.5-0.2s-0.4,0.1-0.5,0.2c-0.2,0.2-0.2,0.4-0.2,0.6c0,0.2,0,0.3,0.1,0.4c0.1,0.2,0.3,0.3,0.5,0.4l0.8,0.4
		c0.4,0.1,0.7,0.4,0.9,0.7c0.2,0.3,0.3,0.6,0.3,1C27.2,143.3,27,143.8,26.7,144.1L26.7,144.1z M31.7,139.1v5.4h-1v-5.4H30v-0.8h0.7
		v-0.6c0-0.5,0.2-1,0.5-1.4c0.4-0.3,0.9-0.4,1.4-0.4v0.9c-0.5-0.1-0.9,0.2-1,0.7c0,0.1,0,0.2,0,0.3v0.6h1v0.8L31.7,139.1z
		 M36.3,144.1c-0.3,0.4-0.8,0.6-1.3,0.6s-1-0.2-1.3-0.6c-0.6-1.7-0.6-3.6,0-5.2c0.3-0.4,0.8-0.6,1.3-0.6s1,0.2,1.3,0.6
		C36.9,140.5,36.9,142.3,36.3,144.1L36.3,144.1z M35.5,139.4c-0.1-0.2-0.3-0.3-0.5-0.3s-0.4,0.1-0.5,0.3c-0.3,1.4-0.3,2.8,0,4.1
		c0.1,0.2,0.3,0.3,0.5,0.3s0.4-0.1,0.5-0.3C35.9,142.1,35.9,140.7,35.5,139.4z M40,139.2c-0.6,0-1.1,0.4-1.1,1v0.1v4.2h-1v-6.2h0.9
		v0.7c0.1-0.2,0.3-0.3,0.4-0.4c0.3-0.2,0.6-0.3,1-0.3v0.9H40z M45.9,144.5V140c0.1-0.4-0.2-0.8-0.7-0.9h-0.1c-0.4,0-0.7,0.3-0.7,0.9
		v4.6h-1V136h1v2.8c0.1-0.1,0.2-0.3,0.3-0.3c0.2-0.1,0.4-0.2,0.7-0.2c0.4,0,0.8,0.2,1,0.5c0.3,0.4,0.4,0.8,0.4,1.3v4.6L45.9,144.5z
		 M51.1,144.1c-0.3,0.4-0.8,0.6-1.3,0.6s-1-0.2-1.3-0.6c-0.6-1.7-0.6-3.6,0-5.2c0.3-0.4,0.8-0.6,1.3-0.6s1,0.2,1.3,0.6
		C51.7,140.5,51.7,142.4,51.1,144.1z M50.3,139.4c-0.1-0.2-0.3-0.3-0.5-0.3s-0.4,0.1-0.5,0.3c-0.3,1.4-0.3,2.8,0,4.1
		c0.1,0.2,0.3,0.3,0.5,0.3s0.4-0.1,0.5-0.3C50.6,142.1,50.6,140.7,50.3,139.4z M57.1,144.5h-1l-0.8-4.5l-0.8,4.5h-1l-1.3-6.2h1.1
		L54,143l0.8-4.7h0.9l0.9,4.7l0.7-4.7h1.1L57.1,144.5z M62.1,144.2c-0.4-0.4-0.6-0.9-0.5-1.4v-3.7h-0.7v-0.8h0.7v-1.7h1v1.7h1v0.8
		h-1v3.6c0,0.7,0.3,0.9,1,0.9v0.9C63.1,144.6,62.5,144.4,62.1,144.2L62.1,144.2z M67.4,144.1c-0.3,0.4-0.8,0.6-1.3,0.6
		s-1-0.2-1.3-0.6c-0.6-1.7-0.6-3.6,0-5.2c0.3-0.4,0.8-0.6,1.3-0.6s1,0.2,1.3,0.6C68,140.5,68,142.4,67.4,144.1z M66.6,139.4
		c-0.1-0.2-0.3-0.3-0.6-0.3c-0.2,0-0.4,0.1-0.5,0.3c-0.3,1.4-0.3,2.8,0,4.1c0.1,0.2,0.3,0.3,0.5,0.3s0.4-0.1,0.6-0.3
		C66.9,142.1,66.9,140.7,66.6,139.4z M74.3,144.2c-0.2,0.3-0.6,0.5-1,0.5c-0.2,0-0.5-0.1-0.7-0.2c-0.1-0.1-0.2-0.2-0.3-0.4v2.8h-1
		v-8.6h1v0.5c0.1-0.2,0.2-0.3,0.4-0.4c0.2-0.1,0.4-0.2,0.7-0.2c0.4,0,0.8,0.2,1,0.5c0.4,0.5,0.5,1.3,0.5,2.8S74.7,143.7,74.3,144.2
		L74.3,144.2z M73.5,139.4c-0.1-0.2-0.3-0.3-0.5-0.2c-0.2,0-0.4,0.1-0.5,0.2c-0.2,0.2-0.3,0.5-0.2,0.7v2.8c0,0.3,0.1,0.5,0.2,0.7
		c0.1,0.1,0.3,0.2,0.5,0.2s0.4-0.1,0.5-0.2c0.2-0.3,0.3-0.8,0.3-2.1S73.7,139.6,73.5,139.4L73.5,139.4z M78,139.2
		c-0.6,0-1.1,0.4-1.1,1v0.1v4.2h-1v-6.2h0.9v0.7c0.1-0.2,0.3-0.3,0.4-0.4c0.3-0.2,0.6-0.3,1-0.3v0.9H78z M82,144
		c-0.3,0.4-0.8,0.6-1.3,0.6s-1-0.2-1.3-0.6c-0.6-1.7-0.6-3.6,0-5.2c0.3-0.4,0.8-0.6,1.3-0.6s1,0.2,1.3,0.6
		C82.6,140.4,82.6,142.3,82,144z M81.2,139.3c-0.1-0.2-0.3-0.3-0.6-0.3c-0.2,0-0.4,0.1-0.5,0.3c-0.3,1.4-0.3,2.8,0,4.1
		c0.1,0.2,0.3,0.3,0.5,0.3s0.4-0.1,0.6-0.3C81.6,142.1,81.6,140.7,81.2,139.3z M85.6,144.5h-1l-1.6-6.2h1.1L85,143l1-4.7h1
		L85.6,144.5z M87.7,137.2V136h1.1v1.1L87.7,137.2L87.7,137.2z M87.8,144.5v-6.2h1v6.2H87.8z M92.4,144.5V144
		c-0.1,0.2-0.2,0.3-0.4,0.4c-0.2,0.1-0.4,0.2-0.7,0.2c-0.4,0-0.8-0.2-1-0.5c-0.4-0.5-0.5-1.3-0.5-2.7s0.1-2.3,0.5-2.8
		c0.2-0.3,0.6-0.5,1-0.5c0.2,0,0.5,0.1,0.7,0.2c0.1,0.1,0.3,0.2,0.3,0.4V136h1v8.5H92.4z M92.4,139.9c0-0.3-0.1-0.5-0.2-0.7
		c-0.1-0.1-0.3-0.2-0.5-0.2s-0.4,0.1-0.5,0.2c-0.2,0.3-0.2,0.8-0.2,2.1s0,1.8,0.2,2.1c0.1,0.2,0.3,0.3,0.5,0.2
		c0.2,0,0.4-0.1,0.5-0.2c0.2-0.2,0.3-0.5,0.2-0.7V139.9z M95.6,141.6c-0.1,0.6,0,1.3,0.2,1.8c0.1,0.2,0.3,0.3,0.6,0.3
		c0.2,0,0.4-0.1,0.6-0.2c0.2-0.2,0.2-0.5,0.2-0.7h1c0,0.5-0.2,1-0.5,1.4c-0.3,0.3-0.8,0.5-1.2,0.5c-0.5,0-0.9-0.1-1.2-0.5
		c-0.5-0.5-0.6-1.4-0.6-2.7s0.1-2.2,0.5-2.7c0.7-0.6,1.8-0.6,2.4,0c0.5,0.5,0.6,1.4,0.6,2.9h-2.6V141.6z M96.9,139.3
		c-0.1-0.2-0.3-0.3-0.6-0.2c-0.2,0-0.4,0.1-0.5,0.2c-0.2,0.2-0.2,0.7-0.2,1.6h1.6C97.1,140,97.1,139.6,96.9,139.3L96.9,139.3z
		 M7.6,158.4c-0.3,0.4-0.8,0.6-1.3,0.6s-1-0.2-1.3-0.6c-0.6-1.7-0.6-3.6,0-5.2c0.3-0.4,0.8-0.6,1.3-0.6s1,0.2,1.3,0.6
		C8.2,154.9,8.2,156.7,7.6,158.4z M6.8,153.7c-0.1-0.2-0.3-0.3-0.6-0.3c-0.2,0-0.4,0.1-0.5,0.3c-0.3,1.4-0.3,2.8,0,4.1
		c0.1,0.2,0.3,0.3,0.5,0.3s0.4-0.1,0.6-0.3C7.2,156.5,7.2,155.1,6.8,153.7z M11.7,158.9v-0.5c-0.1,0.2-0.2,0.3-0.4,0.4
		c-0.2,0.1-0.4,0.2-0.7,0.2c-0.4,0-0.8-0.2-1.1-0.5c-0.3-0.4-0.4-0.8-0.4-1.3v-4.5h1v4.6c-0.1,0.4,0.2,0.8,0.7,0.9h0.1
		c0.4,0,0.7-0.3,0.7-0.9v-4.6h1v6.2L11.7,158.9z M14.7,158.5c-0.4-0.4-0.6-0.9-0.5-1.4v-3.7h-0.7v-0.8h0.7V151h1v1.7h1v0.8h-1v3.6
		c0,0.7,0.4,0.9,1,0.9v0.9C15.7,159,15.1,158.8,14.7,158.5L14.7,158.5z M19.2,153.5c-0.6-0.1-1.1,0.4-1.2,0.9c0,0.1,0,0.2,0,0.2v4.2
		h-1v-6.2h1v0.7c0.1-0.2,0.3-0.3,0.4-0.4c0.3-0.2,0.6-0.3,1-0.3v0.9L19.2,153.5z M21.1,156c-0.1,0.6,0,1.3,0.2,1.8
		c0.3,0.3,0.7,0.3,1,0.1c0,0,0,0,0.1-0.1c0.2-0.2,0.2-0.5,0.2-0.7h1c0,0.5-0.2,1-0.5,1.4c-0.3,0.3-0.8,0.5-1.2,0.5
		c-0.5,0-0.9-0.1-1.2-0.5c-0.5-0.5-0.5-1.4-0.5-2.7s0.1-2.2,0.5-2.7c0.3-0.3,0.8-0.5,1.2-0.5c0.5,0,0.9,0.1,1.2,0.5
		c0.5,0.5,0.5,1.4,0.5,2.9H21.1z M22.4,153.7c-0.1-0.2-0.3-0.3-0.5-0.2c-0.2,0-0.4,0.1-0.5,0.2c-0.2,0.2-0.2,0.7-0.2,1.6h1.6
		C22.6,154.4,22.6,154,22.4,153.7L22.4,153.7z M27,158.9v-0.6c-0.1,0.2-0.2,0.3-0.4,0.4c-0.2,0.2-0.5,0.2-0.7,0.2
		c-0.4,0-0.8-0.2-1.1-0.5c-0.3-0.4-0.4-0.9-0.4-1.4s0.2-1,0.5-1.4c0.4-0.3,0.8-0.5,1.3-0.4h0.6v-1c0-0.6-0.2-0.9-0.7-0.9
		c-0.2,0-0.4,0.1-0.5,0.2c-0.2,0.2-0.3,0.5-0.2,0.7h-1c0-0.5,0.1-1,0.5-1.3c0.7-0.6,1.7-0.6,2.4,0c0.3,0.4,0.5,0.9,0.5,1.4v4.5
		L27,158.9z M27,156h-0.5c-0.3,0-0.5,0.1-0.7,0.2c-0.2,0.2-0.3,0.5-0.3,0.9c0,0.6,0.2,1,0.8,1s0.8-0.4,0.8-1L27,156L27,156z
		 M32,158.6c-0.3,0.3-0.8,0.5-1.2,0.4c-0.5,0-1-0.2-1.3-0.6c-0.6-1.7-0.6-3.6,0-5.2c0.3-0.4,0.8-0.6,1.3-0.6c0.4,0,0.9,0.1,1.2,0.4
		c0.3,0.4,0.5,0.9,0.5,1.4h-1c0-0.3,0-0.5-0.2-0.7c-0.1-0.2-0.3-0.2-0.5-0.2s-0.4,0.1-0.5,0.3c-0.2,0.3-0.2,0.9-0.2,2.1
		c-0.1,0.7,0,1.4,0.2,2.1c0.1,0.2,0.3,0.3,0.5,0.3s0.4-0.1,0.5-0.2c0.2-0.2,0.2-0.5,0.2-0.7h1C32.5,157.7,32.3,158.2,32,158.6z
		 M36,158.9v-4.6c0-0.6-0.3-0.9-0.7-0.9s-0.7,0.3-0.7,0.9v4.6h-1v-8.5h1v2.8c0.1-0.1,0.2-0.3,0.3-0.3c0.6-0.3,1.3-0.2,1.7,0.3
		c0.3,0.4,0.4,0.8,0.4,1.3v4.6L36,158.9z M41.3,158.5c-0.4-0.4-0.6-0.9-0.5-1.4v-3.7h-0.7v-0.8h0.7V151h1v1.7h1v0.8h-1v3.6
		c0,0.7,0.3,0.9,1,0.9v0.9C42.3,159,41.7,158.8,41.3,158.5L41.3,158.5z M46.6,158.4c-0.3,0.4-0.8,0.6-1.3,0.6s-1-0.2-1.3-0.6
		c-0.6-1.7-0.6-3.6,0-5.2c0.3-0.4,0.8-0.6,1.3-0.6s1,0.2,1.3,0.6C47.1,154.9,47.1,156.7,46.6,158.4z M45.8,153.7
		c-0.1-0.2-0.3-0.3-0.5-0.3s-0.4,0.1-0.5,0.3c-0.3,1.4-0.3,2.8,0,4.1c0.1,0.2,0.3,0.3,0.5,0.3s0.4-0.1,0.5-0.3
		C46.1,156.5,46.1,155.1,45.8,153.7z M52.1,159.9c-0.3,1.1-1,1.3-2.1,1.3v-0.9c0.6,0,1-0.1,1.1-0.7l0.2-0.8l-1.5-6.2h1.1l0.9,4.7
		l0.9-4.7h1.1L52.1,159.9z M57.6,158.4c-0.3,0.4-0.8,0.6-1.3,0.6s-1-0.2-1.3-0.6c-0.6-1.7-0.6-3.6,0-5.2c0.3-0.4,0.8-0.6,1.3-0.6
		s1,0.2,1.3,0.6C58.2,154.9,58.2,156.7,57.6,158.4z M56.8,153.7c-0.1-0.2-0.3-0.3-0.6-0.3c-0.2,0-0.4,0.1-0.5,0.3
		c-0.3,1.4-0.3,2.8,0,4.1c0.1,0.2,0.3,0.3,0.5,0.3s0.4-0.1,0.6-0.3C57.1,156.5,57.1,155.1,56.8,153.7z M61.6,158.9v-0.5
		c-0.1,0.2-0.2,0.3-0.4,0.4c-0.2,0.1-0.4,0.2-0.7,0.2c-0.4,0-0.8-0.2-1-0.5c-0.3-0.4-0.4-0.8-0.4-1.3v-4.6h1v4.6
		c0,0.6,0.3,0.9,0.7,0.9s0.7-0.3,0.7-0.9v-4.6h1v6.2L61.6,158.9z M64.7,158.5c-0.4-0.4-0.6-0.9-0.5-1.4v-3.7h-0.7v-0.8h0.7V151h1
		v1.7h1v0.8h-1v3.6c0,0.7,0.3,0.9,1,0.9v0.9C65.6,159,65.1,158.8,64.7,158.5L64.7,158.5z M69.5,158.9v-4.6c0.1-0.4-0.2-0.8-0.7-0.9
		h-0.1c-0.4,0-0.7,0.3-0.7,0.9v4.6h-1v-8.5h1v2.8c0.1-0.1,0.2-0.3,0.3-0.3c0.2-0.1,0.4-0.2,0.7-0.2c0.4,0,0.8,0.2,1.1,0.5
		c0.3,0.4,0.4,0.8,0.4,1.3v4.6L69.5,158.9z M74.8,158.5c-0.4-0.4-0.6-0.9-0.5-1.4v-3.7h-0.7v-0.8h0.7V151h1v1.7h1v0.8h-1v3.6
		c0,0.7,0.3,0.9,1,0.9v0.9C75.7,159,75.2,158.8,74.8,158.5L74.8,158.5z M79.4,158.9v-0.6c-0.1,0.2-0.2,0.3-0.4,0.4
		c-0.2,0.2-0.5,0.2-0.7,0.2c-0.4,0-0.8-0.2-1.1-0.5c-0.3-0.4-0.4-0.9-0.4-1.4s0.2-1,0.6-1.4c0.4-0.3,0.8-0.5,1.3-0.4h0.6v-1
		c0-0.6-0.2-0.9-0.7-0.9c-0.2,0-0.4,0.1-0.5,0.2c-0.2,0.2-0.2,0.5-0.2,0.7H77c0-0.5,0.1-1,0.5-1.3c0.3-0.3,0.8-0.5,1.2-0.5
		c0.4,0,0.9,0.1,1.2,0.4c0.3,0.4,0.5,0.9,0.5,1.4v4.5L79.4,158.9z M79.4,156h-0.6c-0.3,0-0.5,0.1-0.7,0.2c-0.2,0.2-0.3,0.5-0.3,0.9
		c0,0.6,0.2,1,0.8,1s0.8-0.4,0.8-1L79.4,156z M83.8,153.5c-0.6,0-1.1,0.4-1.1,1v0.1v4.2h-1v-6.2h0.9v0.7c0.1-0.2,0.3-0.3,0.4-0.4
		c0.3-0.2,0.6-0.3,1-0.3v0.9H83.8z M88.2,159.1c0.1,0.6-0.1,1.3-0.5,1.7c-0.3,0.3-0.8,0.5-1.2,0.5c-0.9,0.1-1.6-0.6-1.7-1.4
		c0-0.1,0-0.2,0-0.3h1c0,0.3,0,0.5,0.2,0.7c0.1,0.1,0.3,0.2,0.5,0.2s0.4-0.1,0.5-0.2c0.2-0.3,0.3-0.7,0.2-1.1v-1
		c-0.1,0.1-0.2,0.3-0.3,0.4c-0.2,0.1-0.4,0.2-0.7,0.2c-0.4,0-0.8-0.2-1-0.5c-0.4-0.4-0.5-1.1-0.5-2.6s0.1-2.1,0.5-2.6
		c0.2-0.3,0.6-0.5,1-0.4c0.2,0,0.5,0.1,0.7,0.2c0.1,0.1,0.3,0.2,0.3,0.3v-0.4h1V159.1z M87.2,154.4c0-0.3-0.1-0.5-0.2-0.7
		c-0.1-0.1-0.3-0.2-0.5-0.2s-0.4,0.1-0.5,0.2c-0.2,0.3-0.2,0.7-0.2,1.9s0,1.7,0.2,1.9c0.1,0.2,0.3,0.3,0.5,0.3s0.4-0.1,0.5-0.2
		c0.2-0.2,0.3-0.4,0.2-0.7V154.4z M90.3,156c-0.1,0.6,0,1.3,0.2,1.8c0.1,0.2,0.3,0.3,0.6,0.3c0.2,0,0.4-0.1,0.6-0.2
		c0.2-0.2,0.2-0.5,0.2-0.7h1c0,0.5-0.2,1-0.5,1.4c-0.3,0.3-0.8,0.5-1.2,0.5c-0.5,0-0.9-0.1-1.2-0.5c-0.5-0.5-0.6-1.4-0.6-2.7
		s0.1-2.2,0.5-2.7c0.3-0.3,0.8-0.5,1.2-0.5c0.5,0,0.9,0.1,1.2,0.5c0.5,0.5,0.6,1.4,0.6,2.9h-2.6V156z M91.6,153.7
		c-0.1-0.2-0.3-0.3-0.6-0.2c-0.2,0-0.4,0.1-0.5,0.2c-0.2,0.2-0.2,0.7-0.2,1.6h1.6C91.9,154.4,91.8,154,91.6,153.7L91.6,153.7z
		 M94.7,158.5c-0.4-0.4-0.6-0.9-0.5-1.4v-3.7h-0.7v-0.8h0.7V151h1v1.7h1v0.8h-1v3.6c0,0.7,0.3,0.9,1,0.9v0.9
		C95.7,159,95.2,158.8,94.7,158.5L94.7,158.5z M39.8,173.3v-4.6c0-0.6-0.3-0.9-0.7-0.9s-0.7,0.3-0.7,0.9v4.6h-1v-4.6
		c0.1-0.4-0.2-0.8-0.6-0.9c-0.4-0.1-0.8,0.2-0.9,0.6c0,0.1,0,0.2,0,0.2v4.6H35V167h0.9v0.5c0.1-0.2,0.2-0.3,0.4-0.4
		c0.2-0.1,0.4-0.2,0.7-0.2c0.5,0,0.9,0.3,1.2,0.6c0.1-0.2,0.3-0.3,0.5-0.4c0.2-0.1,0.5-0.2,0.7-0.2c0.4,0,0.8,0.1,1.1,0.5
		s0.4,0.8,0.4,1.3v4.6L39.8,173.3z M44.4,173.3v-0.6c-0.1,0.2-0.2,0.3-0.4,0.4c-0.2,0.2-0.5,0.2-0.7,0.2c-0.4,0-0.8-0.2-1.1-0.5
		c-0.3-0.4-0.4-0.9-0.4-1.4s0.2-1,0.5-1.4c0.4-0.3,0.8-0.5,1.3-0.4h0.6v-1c0-0.6-0.2-0.9-0.7-0.9c-0.2,0-0.4,0.1-0.5,0.2
		c-0.2,0.2-0.3,0.5-0.2,0.7H42c0-0.5,0.1-1,0.5-1.3c0.7-0.6,1.7-0.6,2.4,0c0.3,0.4,0.5,0.9,0.5,1.4v4.5L44.4,173.3z M44.4,170.4
		h-0.5c-0.3,0-0.5,0.1-0.7,0.2c-0.2,0.2-0.3,0.5-0.3,0.9c0,0.6,0.2,1.1,0.8,1.1s0.8-0.4,0.8-1L44.4,170.4z M48.8,167.9
		c-0.6,0-1.1,0.4-1.1,1v0.1v4.2h-1V167h0.9v0.7c0.1-0.2,0.3-0.3,0.4-0.4c0.3-0.2,0.6-0.3,1-0.3v0.9H48.8z M52.8,173.3l-1.2-2.9
		l-0.7,1.1v1.9h-1v-8.5h1v5.3l1.8-3h1l-1.5,2.4l1.7,3.8L52.8,173.3z M55.3,170.4c-0.1,0.6,0,1.3,0.2,1.8c0.3,0.3,0.7,0.3,1,0.1
		c0,0,0,0,0.1-0.1c0.2-0.2,0.2-0.5,0.2-0.7h1c0,0.5-0.2,1-0.5,1.4c-0.3,0.3-0.8,0.5-1.2,0.5c-0.5,0-0.9-0.1-1.2-0.5
		c-0.5-0.5-0.5-1.4-0.5-2.7s0.1-2.2,0.5-2.7c0.7-0.6,1.8-0.6,2.5,0c0.5,0.5,0.5,1.4,0.5,3L55.3,170.4z M56.7,168.1
		c-0.1-0.2-0.3-0.3-0.5-0.2c-0.2,0-0.4,0.1-0.5,0.2c-0.2,0.2-0.2,0.7-0.2,1.6h1.6C56.9,168.8,56.9,168.4,56.7,168.1L56.7,168.1z
		 M59.8,172.9c-0.4-0.4-0.6-0.9-0.5-1.4v-3.7h-0.7V167h0.7v-1.7h1v1.7h1v0.8h-1v3.6c0,0.7,0.3,0.9,1,0.9v0.9
		C60.7,173.4,60.2,173.2,59.8,172.9L59.8,172.9z M64.9,172.9c-0.3,0.3-0.8,0.5-1.3,0.5c-0.5,0-0.9-0.2-1.2-0.5
		c-0.4-0.4-0.5-0.9-0.5-1.4h1c0,0.3,0.1,0.6,0.3,0.8c0.2,0.1,0.3,0.2,0.5,0.2s0.4-0.1,0.6-0.2c0.2-0.2,0.2-0.4,0.2-0.6
		c0-0.2-0.1-0.4-0.2-0.6c-0.1-0.2-0.3-0.3-0.5-0.4l-0.8-0.4c-0.3-0.2-0.6-0.4-0.8-0.7c-0.1-0.2-0.2-0.5-0.2-0.8
		c0-0.5,0.2-0.9,0.5-1.3c0.3-0.3,0.7-0.5,1.2-0.5c0.4,0,0.9,0.1,1.2,0.4c0.4,0.4,0.5,0.9,0.5,1.4h-1c0-0.3-0.1-0.5-0.2-0.7
		c-0.1-0.1-0.3-0.2-0.5-0.2s-0.4,0.1-0.5,0.2c-0.1,0.2-0.2,0.4-0.2,0.6c0,0.2,0,0.3,0.1,0.4c0.1,0.2,0.3,0.3,0.5,0.4l0.8,0.4
		c0.4,0.1,0.7,0.4,0.9,0.7C65.5,171.4,65.4,172.3,64.9,172.9L64.9,172.9z M66.5,173.3v-1.2h1.2v1.2H66.5z M138.3,136.9v7.6h-1v-7.6
		h-1.4V136h3.9v0.9H138.3z M142.2,139.1c-0.6,0-1.1,0.4-1.1,1v0.1v4.2h-1v-6.2h0.9v0.7c0.1-0.2,0.3-0.3,0.4-0.4
		c0.3-0.2,0.6-0.3,1-0.3v0.9H142.2z M145.6,144.5V144c-0.1,0.2-0.2,0.3-0.4,0.4c-0.2,0.2-0.5,0.2-0.7,0.2c-0.4,0-0.8-0.2-1.1-0.5
		c-0.3-0.4-0.4-0.9-0.4-1.4s0.2-1,0.6-1.4c0.4-0.3,0.8-0.5,1.3-0.4h0.6v-1c0-0.6-0.2-0.9-0.7-0.9c-0.2,0-0.4,0.1-0.5,0.2
		c-0.2,0.2-0.3,0.5-0.2,0.7h-1c0-0.5,0.1-1,0.5-1.3c0.3-0.3,0.8-0.5,1.2-0.5s0.9,0.1,1.2,0.4c0.3,0.4,0.5,0.9,0.5,1.4v4.5
		L145.6,144.5z M145.6,141.6H145c-0.3,0-0.5,0.1-0.7,0.2c-0.2,0.2-0.3,0.5-0.3,0.9c0,0.6,0.2,1,0.8,1s0.8-0.4,0.8-1V141.6z
		 M149.1,139.1v5.4h-1v-5.4h-0.7v-0.8h0.7v-0.6c0-0.5,0.2-1,0.5-1.4c0.4-0.3,0.9-0.4,1.4-0.4v0.9c-0.5-0.1-0.9,0.2-1,0.7
		c0,0.1,0,0.2,0,0.3v0.6h1v0.8L149.1,139.1z M152.1,139.1v5.4h-1v-5.4h-0.7v-0.8h0.7v-0.6c0-0.5,0.2-1,0.5-1.4
		c0.4-0.3,0.9-0.4,1.4-0.4v0.9c-0.5-0.1-0.9,0.2-1,0.7c0,0.1,0,0.2,0,0.3v0.6h1v0.8L152.1,139.1z M153.9,137.2v-1.1h1.1v1.1H153.9z
		 M154,144.5v-6.2h1v6.2H154z M159.1,144.2c-0.3,0.3-0.8,0.5-1.2,0.4c-0.5,0-1-0.2-1.3-0.6c-0.6-1.7-0.6-3.6,0-5.2
		c0.3-0.4,0.8-0.6,1.3-0.6c0.4,0,0.9,0.1,1.2,0.4c0.3,0.4,0.5,0.9,0.5,1.4h-1c0-0.3,0-0.5-0.2-0.7c-0.1-0.2-0.3-0.2-0.5-0.2
		s-0.4,0.1-0.6,0.3c-0.2,0.3-0.2,0.9-0.2,2.1c-0.1,0.7,0,1.4,0.2,2.1c0.1,0.2,0.3,0.3,0.6,0.3c0.2,0,0.4-0.1,0.5-0.2
		c0.2-0.2,0.2-0.5,0.2-0.7h1C159.6,143.3,159.4,143.8,159.1,144.2L159.1,144.2z M163.5,144.5l-1.2-2.9l-0.7,1.1v1.9h-1V136h1v5.3
		l1.8-2.9h1l-1.5,2.4l1.6,3.8L163.5,144.5z M165.3,137.2v-1.1h1.1v1.1H165.3z M165.4,144.5v-6.2h1v6.2H165.4z M170.2,144.5v-4.6
		c0.1-0.4-0.2-0.8-0.6-0.8h-0.1c-0.4,0-0.7,0.3-0.7,0.9v4.6h-1v-6.2h0.9v0.5c0.1-0.2,0.2-0.3,0.4-0.4c0.2-0.1,0.4-0.2,0.7-0.2
		c0.4,0,0.8,0.2,1.1,0.5c0.3,0.4,0.4,0.8,0.4,1.3v4.6L170.2,144.5z M175.8,144.7c0.1,0.6-0.1,1.3-0.5,1.7c-0.3,0.3-0.8,0.5-1.2,0.5
		c-0.9,0.1-1.6-0.5-1.7-1.4c0-0.1,0-0.2,0-0.4h1c0,0.3,0,0.5,0.2,0.7c0.1,0.1,0.3,0.2,0.5,0.2s0.4-0.1,0.5-0.2
		c0.2-0.3,0.3-0.7,0.2-1.1v-0.9c-0.1,0.1-0.2,0.3-0.4,0.4c-0.2,0.1-0.4,0.2-0.6,0.2c-0.4,0-0.8-0.2-1-0.5c-0.4-0.4-0.5-1.1-0.5-2.6
		s0.1-2.1,0.5-2.6c0.2-0.3,0.6-0.5,1-0.4c0.2,0,0.5,0.1,0.7,0.2c0.1,0.1,0.3,0.2,0.4,0.3v-0.4h0.9L175.8,144.7z M174.8,140
		c0-0.3-0.1-0.5-0.2-0.7c-0.1-0.1-0.3-0.2-0.5-0.2s-0.4,0.1-0.5,0.2c-0.2,0.3-0.3,0.7-0.3,1.9s0,1.7,0.3,1.9c0.2,0.3,0.7,0.3,1,0.1
		l0,0c0.2-0.2,0.3-0.4,0.2-0.7V140z M179.3,137.2v-1.1h1.1v1.1H179.3z M179.3,144.5v-6.2h1v6.2H179.3z M184.1,144.5v-4.6
		c0.1-0.4-0.2-0.8-0.6-0.9s-0.8,0.2-0.9,0.6c0,0.1,0,0.2,0,0.2v4.6h-1v-6.2h0.9v0.5c0.2-0.3,0.6-0.6,1-0.6s0.8,0.2,1.1,0.5
		c0.3,0.4,0.4,0.8,0.4,1.3v4.6L184.1,144.5z M187.6,139.1v5.4h-1v-5.4h-0.7v-0.8h0.7v-0.6c0-0.5,0.2-1,0.5-1.4
		c0.4-0.3,0.9-0.4,1.4-0.4v0.9c-0.5-0.1-0.9,0.2-1,0.7c0,0.1,0,0.2,0,0.3v0.6h1v0.8L187.6,139.1z M192.2,144.1
		c-0.7,0.7-1.8,0.8-2.5,0.1l-0.1-0.1c-0.6-1.7-0.6-3.6,0-5.2c0.7-0.7,1.8-0.8,2.5-0.1l0.1,0.1C192.8,140.5,192.8,142.4,192.2,144.1z
		 M191.5,139.4c-0.1-0.2-0.3-0.3-0.6-0.3c-0.2,0-0.4,0.1-0.5,0.3c-0.3,1.4-0.3,2.8,0,4.1c0.1,0.2,0.3,0.3,0.5,0.3s0.4-0.1,0.6-0.3
		C191.8,142.2,191.8,140.7,191.5,139.4z M196,139.2c-0.6,0-1.1,0.4-1.1,1v0.1v4.2h-1v-6.2h0.9v0.7c0.1-0.2,0.3-0.3,0.4-0.4
		c0.3-0.2,0.6-0.3,1-0.3v0.9H196z M202,144.5V140c0-0.4-0.2-0.8-0.6-0.8s-0.8,0.2-0.8,0.6c0,0.1,0,0.1,0,0.2v4.6h-1V140
		c0.1-0.4-0.2-0.8-0.6-0.8h-0.1c-0.4,0-0.7,0.3-0.7,0.9v4.6h-1v-6.2h0.9v0.5c0.1-0.2,0.2-0.3,0.4-0.4c0.2-0.1,0.4-0.2,0.7-0.2
		c0.5,0,0.9,0.3,1.2,0.6c0.1-0.2,0.3-0.3,0.5-0.4c0.2-0.1,0.5-0.2,0.7-0.2c0.4,0,0.8,0.1,1.1,0.5s0.4,0.8,0.4,1.3v4.6L202,144.5z
		 M206.6,144.5V144c-0.1,0.2-0.2,0.3-0.4,0.4c-0.2,0.2-0.5,0.2-0.7,0.2c-0.4,0-0.8-0.2-1.1-0.5c-0.3-0.4-0.4-0.9-0.4-1.4
		s0.2-1,0.6-1.4c0.4-0.3,0.8-0.5,1.3-0.4h0.6v-1c0-0.6-0.2-0.9-0.7-0.9c-0.2,0-0.4,0.1-0.5,0.2c-0.2,0.2-0.3,0.5-0.2,0.7h-1
		c0-0.5,0.1-1,0.5-1.3c0.3-0.3,0.8-0.5,1.2-0.5s0.9,0.1,1.2,0.4c0.3,0.4,0.5,0.9,0.5,1.4v4.5L206.6,144.5z M206.5,141.7H206
		c-0.3,0-0.5,0.1-0.7,0.2c-0.2,0.2-0.3,0.5-0.3,0.9c0,0.6,0.2,1,0.8,1s0.8-0.4,0.8-1v-1.1H206.5z M209.6,144.2
		c-0.4-0.4-0.6-0.9-0.5-1.4v-3.7h-0.7v-0.8h0.7v-1.7h1v1.7h1v0.8h-1v3.6c0,0.7,0.4,0.9,1,0.9v0.9C210.5,144.6,210,144.4,209.6,144.2
		L209.6,144.2z M211.8,137.2v-1.1h1.2v1.1H211.8z M211.9,144.5v-6.2h1v6.2H211.9z M217.2,144.1c-0.3,0.4-0.8,0.6-1.3,0.6
		s-1-0.2-1.3-0.6c-0.6-1.7-0.6-3.6,0-5.2c0.3-0.4,0.8-0.6,1.3-0.6s1,0.2,1.3,0.6C217.8,140.5,217.8,142.4,217.2,144.1z M216.4,139.4
		c-0.1-0.2-0.3-0.3-0.6-0.3c-0.2,0-0.4,0.1-0.5,0.3c-0.3,1.4-0.3,2.8,0,4.1c0.1,0.2,0.3,0.3,0.5,0.3s0.4-0.1,0.6-0.3
		C216.7,142.2,216.7,140.7,216.4,139.4z M221.2,144.5V140c0.1-0.4-0.2-0.8-0.6-0.8h-0.1c-0.4,0-0.7,0.3-0.7,0.9v4.6h-1v-6.2h0.9v0.5
		c0.1-0.2,0.2-0.3,0.4-0.4c0.6-0.3,1.3-0.2,1.7,0.3c0.3,0.4,0.4,0.8,0.4,1.3v4.6L221.2,144.5z M136.1,153.5v5.5h-1v-5.5h-0.7v-0.8
		h0.7v-0.6c0-0.5,0.2-1,0.5-1.4c0.4-0.3,0.9-0.4,1.4-0.4v0.9c-0.5-0.1-0.9,0.2-1,0.7c0,0.1,0,0.2,0,0.3v0.6h1v0.8h-0.9V153.5z
		 M138.4,158.6c-0.4-0.4-0.6-0.9-0.6-1.4v-6.8h1v6.7c-0.1,0.5,0.3,0.9,0.7,0.9c0.1,0,0.2,0,0.2,0v0.9
		C139.3,159,138.8,158.8,138.4,158.6L138.4,158.6z M140.6,151.6v-1.1h1.1v1.1H140.6z M140.7,158.9v-6.2h1v6.2H140.7z M143.8,156.1
		c-0.1,0.6,0,1.3,0.2,1.8c0.1,0.2,0.3,0.3,0.6,0.3c0.2,0,0.4-0.1,0.6-0.2c0.2-0.2,0.2-0.5,0.2-0.7h1c0,0.5-0.2,1-0.5,1.4
		c-0.3,0.3-0.8,0.5-1.2,0.5c-0.5,0-0.9-0.1-1.2-0.5c-0.5-0.5-0.6-1.4-0.6-2.7s0.1-2.2,0.5-2.7c0.3-0.3,0.8-0.5,1.2-0.5
		c0.5,0,0.9,0.1,1.2,0.5c0.5,0.5,0.6,1.4,0.6,2.9h-2.6V156.1z M145.1,153.8c-0.1-0.2-0.3-0.3-0.6-0.2c-0.2,0-0.4,0.1-0.5,0.2
		c-0.2,0.2-0.2,0.7-0.2,1.6h1.6C145.3,154.4,145.3,154,145.1,153.8L145.1,153.8z M149.6,153.6c-0.6,0-1.1,0.4-1.1,1v0.1v4.2h-1v-6.2
		h0.9v0.7c0.1-0.2,0.3-0.3,0.4-0.4c0.3-0.2,0.6-0.3,1-0.3v0.9H149.6z M153.4,158.6c-0.7,0.6-1.8,0.6-2.5,0c-0.4-0.4-0.5-0.9-0.5-1.4
		h1c0,0.3,0.1,0.6,0.3,0.8c0.2,0.1,0.4,0.2,0.6,0.2c0.2,0,0.4-0.1,0.6-0.2c0.2-0.2,0.2-0.4,0.2-0.6c0-0.2,0-0.4-0.1-0.6
		c-0.1-0.2-0.3-0.3-0.6-0.4l-0.8-0.4c-0.3-0.2-0.6-0.4-0.9-0.7c-0.1-0.3-0.2-0.5-0.2-0.8c0-0.9,0.7-1.7,1.6-1.7h0.1
		c0.4,0,0.9,0.1,1.2,0.4c0.3,0.4,0.5,0.9,0.5,1.4h-1c0-0.3-0.1-0.5-0.2-0.7c-0.1-0.1-0.3-0.2-0.5-0.2s-0.4,0.1-0.5,0.2
		c-0.2,0.2-0.2,0.4-0.2,0.6c0,0.2,0,0.3,0.1,0.4c0.1,0.2,0.3,0.3,0.5,0.4l0.8,0.4c0.4,0.1,0.7,0.4,0.9,0.7
		C154.1,157,154,157.9,153.4,158.6L153.4,158.6z M158,158.6c-0.4-0.4-0.6-0.9-0.5-1.4v-3.7h-0.7v-0.8h0.7V151h1v1.7h1v0.8h-1v3.6
		c0,0.7,0.3,0.9,1,0.9v0.9C158.9,159,158.4,158.8,158,158.6L158,158.6z M162.5,153.6c-0.6,0-1.1,0.4-1.1,1v0.1v4.2h-1v-6.2h0.9v0.7
		c0.1-0.2,0.3-0.3,0.4-0.4c0.3-0.2,0.6-0.3,1-0.3v0.9H162.5z M165.8,158.9v-0.6c-0.1,0.2-0.2,0.3-0.4,0.4c-0.2,0.2-0.5,0.2-0.7,0.2
		c-0.4,0-0.8-0.2-1.1-0.5c-0.3-0.4-0.4-0.9-0.4-1.4s0.2-1,0.6-1.4c0.4-0.3,0.8-0.5,1.3-0.4h0.6v-1c0-0.6-0.2-0.9-0.7-0.9
		c-0.2,0-0.4,0.1-0.5,0.2c-0.2,0.2-0.3,0.5-0.2,0.7h-1c0-0.5,0.1-1,0.5-1.3c0.7-0.6,1.7-0.6,2.4,0c0.3,0.4,0.5,0.9,0.5,1.4v4.5
		L165.8,158.9z M165.8,156.1h-0.6c-0.3,0-0.5,0.1-0.7,0.2c-0.2,0.2-0.3,0.5-0.3,0.9c0,0.6,0.3,1,0.8,1s0.8-0.4,0.8-1V156.1z
		 M170.5,158.9v-4.6c0.1-0.4-0.2-0.8-0.6-0.9s-0.8,0.2-0.9,0.6c0,0.1,0,0.2,0,0.2v4.6h-1v-6.2h0.9v0.5c0.1-0.2,0.2-0.3,0.4-0.4
		c0.2-0.1,0.4-0.2,0.7-0.2c0.4,0,0.8,0.2,1.1,0.5c0.3,0.4,0.4,0.8,0.4,1.3v4.6L170.5,158.9z M175.5,158.6c-0.3,0.3-0.8,0.5-1.3,0.5
		s-0.9-0.2-1.2-0.5c-0.4-0.4-0.5-0.9-0.5-1.4h1c0,0.3,0.1,0.6,0.3,0.8c0.2,0.1,0.3,0.2,0.6,0.2c0.2,0,0.4-0.1,0.6-0.2
		c0.2-0.2,0.2-0.4,0.2-0.6c0-0.2,0-0.4-0.1-0.6c-0.1-0.2-0.3-0.4-0.6-0.4l-0.8-0.4c-0.3-0.2-0.6-0.4-0.9-0.7
		c-0.1-0.3-0.2-0.5-0.2-0.8c0-0.9,0.7-1.7,1.6-1.7h0.1c0.4,0,0.9,0.1,1.2,0.4c0.3,0.4,0.5,0.9,0.5,1.4h-1c0-0.3-0.1-0.5-0.2-0.7
		c-0.1-0.1-0.3-0.2-0.5-0.2s-0.4,0.1-0.5,0.2c-0.3,0.3-0.3,0.7-0.1,1.1c0.1,0.2,0.3,0.3,0.5,0.4l0.8,0.4c0.4,0.1,0.7,0.4,0.9,0.7
		C176.2,157,176.1,157.9,175.5,158.6L175.5,158.6z M177.6,158.6c-0.4-0.4-0.6-0.9-0.6-1.4v-6.8h1v6.7c-0.1,0.5,0.3,0.9,0.7,0.9
		c0.1,0,0.2,0,0.2,0v0.9C178.5,159,178,158.8,177.6,158.6L177.6,158.6z M182.1,158.9v-0.6c-0.1,0.2-0.2,0.3-0.4,0.4
		c-0.2,0.2-0.5,0.2-0.7,0.2c-0.4,0-0.8-0.2-1.1-0.5c-0.3-0.4-0.4-0.9-0.4-1.4s0.2-1,0.6-1.4c0.4-0.3,0.8-0.5,1.3-0.4h0.6v-1
		c0-0.6-0.2-0.9-0.7-0.9c-0.2,0-0.4,0.1-0.5,0.2c-0.2,0.2-0.3,0.5-0.2,0.7h-1c0-0.5,0.1-1,0.5-1.3c0.3-0.3,0.8-0.5,1.2-0.5
		s0.9,0.1,1.2,0.4c0.3,0.4,0.5,0.9,0.5,1.4v4.5L182.1,158.9z M182,156h-0.6c-0.3,0-0.5,0.1-0.7,0.2c-0.2,0.2-0.3,0.5-0.3,0.9
		c0,0.6,0.2,1,0.8,1s0.8-0.4,0.8-1V156z M185.1,158.5c-0.4-0.4-0.6-0.9-0.5-1.4v-3.7h-0.7v-0.8h0.7V151h1v1.7h1v0.8h-1v3.6
		c0,0.7,0.3,0.9,1,0.9v0.9C186,159,185.5,158.8,185.1,158.5L185.1,158.5z M188.2,156c-0.1,0.6,0,1.3,0.2,1.8c0.3,0.3,0.7,0.3,1,0.1
		c0,0,0,0,0.1-0.1c0.2-0.2,0.2-0.5,0.2-0.7h1c0,0.5-0.2,1-0.5,1.4c-0.3,0.3-0.8,0.5-1.3,0.5s-0.9-0.1-1.2-0.5
		c-0.5-0.5-0.6-1.4-0.6-2.7s0.1-2.2,0.5-2.7c0.7-0.6,1.8-0.6,2.4,0c0.5,0.5,0.6,1.4,0.6,2.9H188.2z M189.5,153.7
		c-0.1-0.2-0.3-0.3-0.6-0.2c-0.2,0-0.4,0.1-0.5,0.2c-0.2,0.2-0.2,0.7-0.2,1.6h1.6C189.8,154.4,189.8,154,189.5,153.7L189.5,153.7z
		 M194.2,158.9v-0.5c-0.1,0.2-0.2,0.3-0.4,0.4c-0.2,0.1-0.4,0.2-0.7,0.2c-0.4,0-0.8-0.2-1-0.5c-0.4-0.5-0.4-1.3-0.4-2.7
		s0.1-2.3,0.4-2.8c0.2-0.3,0.6-0.5,1-0.5c0.2,0,0.5,0.1,0.7,0.2c0.1,0.1,0.3,0.2,0.3,0.4v-2.8h1v8.5h-0.9V158.9z M194.2,154.3
		c0-0.3-0.1-0.5-0.2-0.7c-0.1-0.1-0.3-0.2-0.5-0.2s-0.4,0.1-0.5,0.2c-0.2,0.3-0.2,0.8-0.2,2.1s0,1.8,0.2,2.1
		c0.1,0.2,0.3,0.3,0.5,0.2c0.2,0,0.4-0.1,0.5-0.2c0.2-0.2,0.3-0.5,0.2-0.7V154.3z M198.7,151.6v-1.1h1.1v1.1H198.7z M198.8,158.9
		v-6.2h1v6.2H198.8z M203.6,158.9v-4.6c0.1-0.4-0.2-0.8-0.6-0.8h-0.1c-0.4,0-0.7,0.3-0.7,0.9v4.6h-1v-6.2h0.9v0.5
		c0.1-0.2,0.2-0.3,0.4-0.4c0.2-0.1,0.4-0.2,0.7-0.2c0.4,0,0.8,0.1,1.1,0.5s0.4,0.8,0.4,1.3v4.6L203.6,158.9z M206.6,158.5
		c-0.4-0.4-0.6-0.9-0.5-1.4v-3.7h-0.7v-0.8h0.7V151h1v1.7h1v0.8h-1v3.6c0,0.7,0.3,0.9,1,0.9v0.9C207.6,159,207.1,158.8,206.6,158.5
		L206.6,158.5z M211.9,158.4c-0.3,0.4-0.8,0.6-1.3,0.6s-1-0.2-1.3-0.6c-0.6-1.7-0.6-3.6,0-5.2c0.3-0.4,0.8-0.6,1.3-0.6
		s1,0.2,1.3,0.6C212.5,154.9,212.5,156.7,211.9,158.4z M211.1,153.7c-0.1-0.2-0.3-0.3-0.6-0.3c-0.2,0-0.4,0.1-0.5,0.3
		c-0.3,1.4-0.3,2.8,0,4.1c0.1,0.2,0.3,0.3,0.5,0.3s0.4-0.1,0.6-0.3C211.4,156.5,211.4,155.1,211.1,153.7z M215.7,158.9v-0.8l2.1-4.4
		c0.3-0.5,0.4-1.1,0.4-1.7c0-0.6-0.3-0.9-0.7-0.9s-0.8,0.3-0.8,0.8v0.1v0.6h-1V152c0-0.5,0.1-1,0.5-1.3c0.3-0.3,0.8-0.5,1.2-0.4
		c0.4,0,0.9,0.1,1.2,0.4c0.3,0.4,0.5,0.8,0.5,1.3c0,0.7-0.2,1.3-0.5,1.9l-1.9,4.1h2.4v0.9H215.7z M223.2,158.5
		c-0.3,0.3-0.8,0.5-1.2,0.5c-0.5,0-0.9-0.2-1.2-0.5c-0.3-0.4-0.5-0.8-0.5-1.3V152c0-0.5,0.1-1,0.5-1.3c0.3-0.3,0.8-0.5,1.2-0.4
		c0.5,0,0.9,0.1,1.2,0.4c0.3,0.4,0.5,0.8,0.5,1.3v5.2C223.7,157.7,223.5,158.2,223.2,158.5L223.2,158.5z M222.7,152
		c0-0.6-0.3-0.9-0.7-0.9s-0.7,0.3-0.7,0.9v5.3c0,0.6,0.3,0.9,0.7,0.9s0.7-0.3,0.7-0.9V152z M161.9,172.9c-0.4-0.4-0.6-0.9-0.6-1.4
		v-6.8h1v6.7c-0.1,0.5,0.3,0.9,0.7,0.9c0.1,0,0.2,0,0.2,0v0.9C162.8,173.3,162.3,173.2,161.9,172.9L161.9,172.9z M166.3,173.3v-0.6
		c-0.1,0.2-0.2,0.3-0.4,0.4c-0.2,0.2-0.5,0.2-0.7,0.2c-0.4,0-0.8-0.2-1.1-0.5c-0.3-0.4-0.4-0.9-0.4-1.4s0.2-1,0.6-1.4
		c0.4-0.3,0.8-0.5,1.3-0.4h0.6v-1c0-0.6-0.2-0.9-0.7-0.9c-0.2,0-0.4,0.1-0.5,0.2c-0.2,0.2-0.3,0.5-0.2,0.7h-1c0-0.5,0.1-1,0.5-1.3
		c0.7-0.6,1.7-0.6,2.4,0c0.3,0.4,0.5,0.9,0.5,1.4v4.5L166.3,173.3z M166.3,170.4h-0.6c-0.3,0-0.5,0.1-0.7,0.2
		c-0.2,0.2-0.3,0.5-0.3,0.9c0,0.6,0.2,1.1,0.8,1.1s0.8-0.4,0.8-1V170.4z M171,173.3v-4.6c0.1-0.4-0.2-0.8-0.6-0.8h-0.1
		c-0.4,0-0.7,0.3-0.7,0.9v4.6h-1v-6.2h0.9v0.5c0.1-0.2,0.2-0.3,0.4-0.4c0.6-0.3,1.3-0.2,1.7,0.3c0.3,0.4,0.4,0.8,0.4,1.3v4.6
		L171,173.3z M176.6,173.4c0.1,0.6-0.1,1.2-0.5,1.7c-0.3,0.3-0.8,0.5-1.2,0.5c-0.9,0.1-1.6-0.5-1.7-1.4c0-0.1,0-0.2,0-0.4h1
		c0,0.3,0,0.5,0.2,0.7c0.1,0.1,0.3,0.2,0.5,0.2s0.4-0.1,0.5-0.2c0.2-0.3,0.3-0.7,0.2-1.1v-1c-0.1,0.1-0.2,0.3-0.4,0.4
		c-0.2,0.1-0.4,0.2-0.6,0.2c-0.4,0-0.8-0.2-1-0.5c-0.4-0.4-0.5-1.1-0.5-2.6s0.1-2.1,0.5-2.6c0.2-0.3,0.6-0.5,1-0.4
		c0.2,0,0.5,0.1,0.7,0.2c0.1,0.1,0.3,0.2,0.4,0.3V167h1L176.6,173.4z M175.6,168.7c0-0.3-0.1-0.5-0.2-0.7c-0.1-0.1-0.3-0.2-0.5-0.2
		s-0.4,0.1-0.5,0.2c-0.2,0.3-0.3,0.7-0.3,1.9s0,1.7,0.3,1.9c0.1,0.2,0.3,0.3,0.5,0.3s0.4-0.1,0.5-0.2c0.2-0.2,0.3-0.4,0.2-0.7V168.7
		z M180.4,173.3v-0.5c-0.1,0.2-0.2,0.3-0.4,0.4c-0.2,0.1-0.4,0.2-0.7,0.2c-0.4,0-0.8-0.2-1.1-0.5c-0.3-0.4-0.4-0.8-0.4-1.3v-4.5h1
		v4.6c-0.1,0.4,0.2,0.8,0.7,0.9h0.1c0.4,0,0.7-0.3,0.7-0.9v-4.6h1v6.2L180.4,173.3z M184.9,173.3v-0.6c-0.1,0.2-0.2,0.3-0.4,0.4
		c-0.2,0.2-0.5,0.2-0.7,0.2c-0.4,0-0.8-0.2-1.1-0.5c-0.3-0.4-0.4-0.9-0.4-1.4s0.2-1,0.6-1.4c0.4-0.3,0.8-0.5,1.3-0.4h0.6v-1
		c0-0.6-0.3-0.9-0.7-0.9c-0.2,0-0.4,0.1-0.5,0.2c-0.2,0.2-0.2,0.5-0.2,0.7h-1c0-0.5,0.1-1,0.5-1.3c0.3-0.3,0.8-0.5,1.2-0.5
		s0.9,0.1,1.2,0.4c0.3,0.4,0.5,0.9,0.5,1.4v4.5L184.9,173.3z M184.9,170.4h-0.6c-0.3,0-0.5,0.1-0.7,0.2c-0.2,0.2-0.3,0.5-0.3,0.9
		c0,0.6,0.2,1.1,0.8,1.1s0.8-0.4,0.8-1V170.4z M190.5,173.4c0.1,0.6-0.1,1.3-0.5,1.7c-0.3,0.3-0.8,0.5-1.2,0.5
		c-0.9,0.1-1.6-0.6-1.7-1.4c0-0.1,0-0.2,0-0.3h1c0,0.3,0,0.5,0.2,0.7c0.1,0.1,0.3,0.2,0.5,0.2s0.4-0.1,0.5-0.2
		c0.2-0.3,0.3-0.7,0.2-1.1v-1c-0.1,0.1-0.2,0.3-0.4,0.4c-0.2,0.1-0.4,0.2-0.6,0.2c-0.4,0-0.8-0.2-1-0.5c-0.4-0.4-0.5-1.1-0.5-2.6
		s0.1-2.1,0.5-2.6c0.2-0.3,0.6-0.5,1-0.4c0.2,0,0.5,0.1,0.7,0.2c0.1,0.1,0.3,0.2,0.4,0.3V167h0.9L190.5,173.4z M189.5,168.7
		c0-0.3-0.1-0.5-0.2-0.7c-0.1-0.1-0.3-0.2-0.5-0.2s-0.4,0.1-0.5,0.2c-0.2,0.3-0.2,0.7-0.2,1.9s0,1.7,0.2,1.9
		c0.1,0.2,0.3,0.3,0.5,0.3s0.4-0.1,0.5-0.2c0.2-0.2,0.3-0.4,0.2-0.7V168.7z M192.6,170.4c-0.1,0.6,0,1.3,0.2,1.8
		c0.1,0.2,0.3,0.3,0.6,0.3c0.2,0,0.4-0.1,0.6-0.2c0.2-0.2,0.2-0.5,0.2-0.7h1c0,0.5-0.2,1-0.5,1.4c-0.3,0.3-0.8,0.5-1.2,0.5
		c-0.5,0-0.9-0.1-1.2-0.5c-0.5-0.5-0.6-1.4-0.6-2.7s0.1-2.2,0.5-2.7c0.7-0.6,1.8-0.6,2.4,0c0.5,0.5,0.6,1.4,0.6,3L192.6,170.4z
		 M193.9,168.1c-0.1-0.2-0.3-0.3-0.6-0.2c-0.2,0-0.4,0.1-0.5,0.2c-0.2,0.2-0.2,0.7-0.2,1.6h1.6C194.2,168.8,194.2,168.4,193.9,168.1
		L193.9,168.1z M199,172.9c-0.7,0.6-1.8,0.6-2.5,0c-0.4-0.4-0.5-0.9-0.5-1.4h1c0,0.3,0.1,0.6,0.3,0.8c0.2,0.1,0.3,0.2,0.6,0.2
		c0.2,0,0.4-0.1,0.6-0.2c0.2-0.2,0.2-0.4,0.2-0.6c0-0.2,0-0.4-0.1-0.6c-0.1-0.2-0.3-0.3-0.6-0.4l-0.8-0.4c-0.3-0.2-0.6-0.4-0.9-0.7
		c-0.1-0.3-0.2-0.5-0.2-0.8c0-0.9,0.8-1.7,1.7-1.7l0,0c0.4,0,0.9,0.1,1.2,0.4c0.3,0.4,0.5,0.9,0.5,1.4h-1c0-0.3-0.1-0.5-0.2-0.7
		c-0.1-0.1-0.3-0.2-0.5-0.2s-0.4,0.1-0.5,0.2c-0.2,0.2-0.2,0.4-0.2,0.6c0,0.2,0,0.3,0.1,0.4c0.1,0.2,0.3,0.3,0.5,0.4l0.8,0.4
		c0.4,0.1,0.7,0.4,0.9,0.7s0.3,0.6,0.3,1C199.6,172.1,199.4,172.6,199,172.9L199,172.9z M405,146.3l-0.4-2h-2l-0.4,2h-1.1l2-8.5h1
		l2,8.5H405z M403.6,139.4l-0.8,3.9h1.6L403.6,139.4z M409.6,145.9c-0.4-0.3-0.6-0.9-0.6-1.4v-6.8h1v6.7c-0.1,0.4,0.2,0.9,0.7,0.9
		c0.1,0,0.2,0,0.2,0v0.9C410.5,146.3,410,146.2,409.6,145.9L409.6,145.9z M414.7,145.8c-0.3,0.4-0.8,0.6-1.3,0.6s-1-0.2-1.3-0.6
		c-0.6-1.7-0.6-3.6,0-5.3c0.3-0.4,0.8-0.6,1.3-0.6s1,0.2,1.3,0.6C415.3,142.3,415.3,144.1,414.7,145.8z M414,141.1
		c-0.1-0.2-0.3-0.3-0.5-0.3s-0.4,0.1-0.5,0.3c-0.3,1.4-0.3,2.8,0,4.1c0.1,0.2,0.3,0.3,0.5,0.3s0.4-0.1,0.5-0.3
		C414.3,143.9,414.3,142.5,414,141.1z M419.1,146c-0.3,0.3-0.8,0.5-1.2,0.4c-0.5,0-1-0.2-1.3-0.6c-0.6-1.7-0.6-3.6,0-5.3
		c0.3-0.4,0.8-0.6,1.3-0.6c0.4,0,0.9,0.1,1.2,0.4c0.3,0.4,0.5,0.9,0.5,1.4h-1c0-0.3,0-0.5-0.2-0.7c-0.1-0.2-0.3-0.2-0.5-0.2
		s-0.4,0.1-0.5,0.3c-0.2,0.3-0.2,0.9-0.2,2.1c-0.1,0.7,0,1.4,0.2,2.1c0.1,0.2,0.3,0.3,0.5,0.3s0.4-0.1,0.5-0.2
		c0.2-0.2,0.2-0.5,0.2-0.7h1C419.6,145.1,419.5,145.6,419.1,146L419.1,146z M423,146.3v-0.6c-0.1,0.2-0.2,0.3-0.4,0.4
		c-0.2,0.2-0.5,0.2-0.7,0.2c-0.4,0-0.8-0.2-1.1-0.5c-0.3-0.4-0.4-0.9-0.4-1.4s0.2-1,0.5-1.4c0.4-0.3,0.8-0.5,1.3-0.4h0.6v-1
		c0-0.6-0.2-0.9-0.7-0.9c-0.2,0-0.4,0.1-0.5,0.2c-0.2,0.2-0.3,0.5-0.2,0.7h-1c0-0.5,0.1-1,0.5-1.3c0.3-0.3,0.8-0.5,1.2-0.4
		c0.4,0,0.9,0.1,1.2,0.4c0.3,0.4,0.5,0.9,0.5,1.4v4.5L423,146.3z M422.9,143.4h-0.5c-0.3,0-0.5,0.1-0.7,0.2
		c-0.2,0.2-0.3,0.5-0.3,0.9c0,0.6,0.3,1,0.8,1s0.8-0.4,0.8-1L422.9,143.4L422.9,143.4z M425.7,145.9c-0.4-0.3-0.6-0.9-0.5-1.4v-6.8
		h1v6.7c-0.1,0.4,0.2,0.9,0.7,0.9c0.1,0,0.2,0,0.2,0v0.9C426.6,146.3,426.1,146.2,425.7,145.9L425.7,145.9z M427.8,139v-1.1h1.2v1.1
		H427.8z M427.9,146.3v-6.2h1v6.2H427.9z M429.9,146.3v-0.8l2-4.6H430V140h2.9v0.8l-2,4.6h2v0.9H429.9z M434.7,143.4
		c-0.1,0.6,0,1.3,0.2,1.8c0.1,0.2,0.3,0.3,0.5,0.3s0.4-0.1,0.6-0.2c0.2-0.2,0.2-0.5,0.2-0.7h1c0,0.5-0.2,1-0.5,1.4
		c-0.3,0.3-0.8,0.5-1.2,0.4c-0.5,0-0.9-0.1-1.2-0.5c-0.5-0.5-0.5-1.4-0.5-2.7s0.1-2.2,0.5-2.7c0.7-0.6,1.8-0.6,2.4,0
		c0.5,0.5,0.6,1.4,0.6,2.9H434.7z M436,141.1c-0.1-0.2-0.3-0.3-0.5-0.2c-0.2,0-0.4,0.1-0.5,0.2c-0.2,0.2-0.2,0.7-0.2,1.6h1.6
		C436.2,141.8,436.2,141.3,436,141.1L436,141.1z M440.7,146.3v-0.5c-0.1,0.2-0.2,0.3-0.4,0.4c-0.2,0.1-0.4,0.2-0.7,0.2
		c-0.4,0-0.8-0.2-1-0.5c-0.4-0.4-0.5-1.3-0.5-2.7s0.1-2.3,0.5-2.8c0.2-0.3,0.6-0.5,1-0.4c0.2,0,0.5,0.1,0.7,0.2
		c0.1,0.1,0.3,0.2,0.4,0.3v-2.8h1v8.5h-1V146.3z M440.7,141.8c0-0.3-0.1-0.5-0.2-0.7c-0.3-0.3-0.7-0.2-1,0l0,0
		c-0.2,0.3-0.3,0.8-0.3,2.1s0,1.8,0.3,2.1c0.1,0.2,0.3,0.3,0.5,0.3s0.4-0.1,0.5-0.2c0.2-0.2,0.3-0.5,0.2-0.7V141.8z M447.4,140.9
		c-0.6,0-1.1,0.4-1.1,1v0.1v4.2h-1V140h0.9v0.7c0.1-0.2,0.3-0.3,0.4-0.4c0.3-0.2,0.6-0.3,1-0.3v0.9H447.4z M449.2,143.4
		c-0.1,0.6,0,1.3,0.2,1.8c0.1,0.2,0.3,0.3,0.5,0.3s0.4-0.1,0.5-0.2c0.2-0.2,0.2-0.5,0.2-0.7h1c0,0.5-0.2,1-0.5,1.4
		c-0.3,0.3-0.8,0.5-1.2,0.4c-0.5,0-0.9-0.1-1.2-0.5c-0.5-0.5-0.5-1.4-0.5-2.7s0.1-2.2,0.5-2.7c0.7-0.6,1.8-0.6,2.5,0
		c0.5,0.5,0.5,1.4,0.5,2.9H449.2z M450.6,141.1c-0.1-0.2-0.3-0.3-0.5-0.2c-0.2,0-0.4,0.1-0.5,0.2c-0.2,0.2-0.2,0.7-0.2,1.6h1.6
		C450.8,141.8,450.7,141.3,450.6,141.1L450.6,141.1z M454.1,140.8v5.5h-1v-5.5h-0.7V140h0.7v-0.6c0-0.5,0.2-1,0.5-1.4
		c0.4-0.3,0.9-0.4,1.4-0.4v0.9c-0.5-0.1-0.9,0.2-1,0.7c0,0.1,0,0.2,0,0.3v0.6h1v0.8L454.1,140.8z M456.6,143.4
		c-0.1,0.6,0,1.3,0.2,1.8c0.1,0.2,0.3,0.3,0.5,0.3s0.4-0.1,0.6-0.2c0.2-0.2,0.2-0.5,0.2-0.7h1c0,0.5-0.2,1-0.5,1.4
		c-0.3,0.3-0.8,0.5-1.2,0.4c-0.5,0-0.9-0.1-1.2-0.5c-0.5-0.5-0.5-1.4-0.5-2.7s0.1-2.2,0.5-2.7c0.7-0.6,1.8-0.6,2.4,0
		c0.5,0.5,0.5,1.4,0.5,2.9H456.6z M458,141.1c-0.1-0.2-0.3-0.3-0.5-0.2c-0.2,0-0.4,0.1-0.5,0.2c-0.2,0.2-0.2,0.7-0.2,1.6h1.6
		C458.2,141.8,458.1,141.3,458,141.1L458,141.1z M462.4,140.9c-0.6,0-1.1,0.4-1.1,1v0.1v4.2h-1V140h0.9v0.7c0.1-0.2,0.3-0.3,0.4-0.4
		c0.3-0.2,0.6-0.3,1-0.3v0.9H462.4z M465.7,140.9c-0.6,0-1.1,0.4-1.1,1v0.1v4.2h-1V140h0.9v0.7c0.1-0.2,0.3-0.3,0.4-0.4
		c0.3-0.2,0.6-0.3,1-0.3v0.9H465.7z M469,146.3v-0.6c-0.1,0.2-0.2,0.3-0.4,0.4c-0.2,0.2-0.5,0.2-0.7,0.2c-0.4,0-0.8-0.2-1.1-0.5
		c-0.3-0.4-0.4-0.9-0.4-1.4s0.2-1,0.6-1.4c0.4-0.3,0.8-0.5,1.3-0.4h0.7v-1c0-0.6-0.2-0.9-0.7-0.9c-0.2,0-0.4,0.1-0.5,0.2
		c-0.2,0.2-0.3,0.5-0.2,0.7h-1c0-0.5,0.1-1,0.5-1.3c0.3-0.3,0.8-0.5,1.2-0.4c0.4,0,0.9,0.1,1.2,0.4c0.3,0.4,0.5,0.9,0.5,1.4v4.5
		L469,146.3z M469,143.4h-0.5c-0.3,0-0.5,0.1-0.7,0.2c-0.2,0.2-0.3,0.5-0.3,0.9c0,0.6,0.2,1,0.8,1s0.8-0.4,0.8-1L469,143.4
		L469,143.4z M471.8,145.9c-0.4-0.3-0.6-0.9-0.5-1.4v-6.8h1v6.7c-0.1,0.4,0.2,0.9,0.7,0.9c0.1,0,0.2,0,0.2,0v0.9
		C472.7,146.3,472.2,146.2,471.8,145.9L471.8,145.9z M391.9,160.7v-0.5c-0.1,0.2-0.2,0.3-0.4,0.4c-0.2,0.1-0.4,0.2-0.7,0.2
		c-0.4,0-0.8-0.2-1-0.5c-0.4-0.4-0.5-1.3-0.5-2.7s0.1-2.3,0.5-2.8c0.2-0.3,0.6-0.5,1-0.4c0.2,0,0.5,0.1,0.7,0.2
		c0.1,0.1,0.3,0.2,0.4,0.3v-2.8h1v8.5h-1V160.7z M391.9,156.2c0-0.3-0.1-0.5-0.2-0.7c-0.1-0.1-0.3-0.2-0.5-0.2s-0.4,0.1-0.5,0.2
		c-0.2,0.3-0.2,0.8-0.2,2.1s0,1.8,0.2,2.1c0.1,0.2,0.3,0.3,0.5,0.3s0.4-0.1,0.5-0.2c0.2-0.2,0.3-0.5,0.2-0.7V156.2z M394.1,153.4
		v-1.1h1.1v1.1H394.1z M394.2,160.7v-6.2h1v6.2H394.2z M398.6,155.3c-0.6,0-1.1,0.4-1.1,1v0.1v4.2h-1v-6.2h0.9v0.7
		c0.1-0.2,0.3-0.3,0.4-0.4c0.3-0.2,0.6-0.3,1-0.3v0.9H398.6z M400.5,157.8c-0.1,0.6,0,1.3,0.3,1.8c0.1,0.2,0.3,0.3,0.5,0.3
		s0.4-0.1,0.5-0.2c0.2-0.2,0.2-0.5,0.2-0.7h1c0,0.5-0.2,1-0.5,1.4c-0.3,0.3-0.8,0.5-1.2,0.4c-0.5,0-0.9-0.1-1.2-0.5
		c-0.5-0.5-0.5-1.4-0.5-2.7s0.1-2.2,0.5-2.7c0.3-0.3,0.8-0.5,1.2-0.5c0.5,0,0.9,0.1,1.2,0.5c0.5,0.5,0.5,1.4,0.5,2.9H400.5z
		 M401.9,155.5c-0.1-0.2-0.3-0.3-0.6-0.2c-0.2,0-0.4,0.1-0.5,0.2c-0.2,0.2-0.2,0.7-0.2,1.6h1.6C402.1,156.2,402,155.7,401.9,155.5
		L401.9,155.5z M407,160.4c-0.3,0.3-0.8,0.5-1.2,0.4c-0.5,0-1-0.2-1.3-0.6c-0.6-1.7-0.6-3.6,0-5.3c0.3-0.4,0.8-0.6,1.3-0.6
		c0.4,0,0.9,0.1,1.2,0.4c0.3,0.4,0.5,0.9,0.5,1.4h-1c0-0.3,0-0.5-0.2-0.7c-0.1-0.2-0.3-0.2-0.5-0.2s-0.4,0.1-0.5,0.3
		c-0.2,0.3-0.2,0.9-0.2,2.1c-0.1,0.7,0,1.4,0.2,2.1c0.1,0.2,0.3,0.3,0.5,0.3s0.4-0.1,0.5-0.2c0.2-0.2,0.2-0.5,0.2-0.7h1
		C407.5,159.5,407.3,160,407,160.4L407,160.4z M409.3,160.3c-0.4-0.4-0.6-0.9-0.5-1.4v-3.7h-0.7v-0.8h0.7v-1.7h1v1.7h1v0.8h-1v3.6
		c0,0.6,0.4,0.9,1,0.9v0.9C410.3,160.8,409.7,160.6,409.3,160.3L409.3,160.3z M414.6,160.2c-0.3,0.4-0.8,0.6-1.3,0.6s-1-0.2-1.3-0.6
		c-0.6-1.7-0.6-3.6,0-5.3c0.3-0.4,0.8-0.6,1.3-0.6s1,0.2,1.3,0.6C415.2,156.7,415.2,158.5,414.6,160.2z M413.8,155.5
		c-0.1-0.2-0.3-0.3-0.6-0.3c-0.2,0-0.4,0.1-0.5,0.3c-0.3,1.4-0.3,2.8,0,4.1c0.1,0.2,0.3,0.3,0.5,0.3s0.4-0.1,0.6-0.3
		C414.1,158.3,414.1,156.9,413.8,155.5z M418.3,155.3c-0.6,0-1.1,0.4-1.1,1v0.1v4.2h-1v-6.2h0.9v0.7c0.1-0.2,0.3-0.3,0.4-0.4
		c0.3-0.2,0.6-0.3,1-0.3v0.9H418.3z M421.3,161.7c-0.3,1.1-1,1.3-2.1,1.3v-0.9c0.6,0,1-0.2,1.1-0.7l0.2-0.8l-1.5-6.2h1l1,4.7
		l0.9-4.7h1.1L421.3,161.7z M429,160.3c-0.2,0.3-0.6,0.5-1,0.5c-0.2,0-0.5-0.1-0.7-0.2c-0.1-0.1-0.3-0.2-0.4-0.4v2.7h-1v-8.5h1v0.5
		c0.1-0.2,0.2-0.3,0.4-0.4c0.2-0.1,0.4-0.2,0.7-0.2c0.4,0,0.8,0.2,1,0.4c0.4,0.5,0.5,1.3,0.5,2.8S429.4,159.9,429,160.3L429,160.3z
		 M428.3,155.5c-0.1-0.2-0.3-0.3-0.5-0.2c-0.2,0-0.4,0.1-0.5,0.2c-0.2,0.2-0.3,0.5-0.2,0.7v2.8c0,0.3,0.1,0.5,0.2,0.7
		c0.1,0.1,0.3,0.2,0.5,0.2s0.4-0.1,0.5-0.3c0.2-0.3,0.3-0.8,0.3-2.1S428.4,155.8,428.3,155.5L428.3,155.5z M432.8,155.3
		c-0.6,0-1.1,0.4-1.1,1v0.1v4.2h-1v-6.2h0.9v0.7c0.1-0.2,0.3-0.3,0.4-0.4c0.3-0.2,0.6-0.3,1-0.3v0.9H432.8z M433.8,153.4v-1.1h1.1
		v1.1H433.8z M433.9,160.7v-6.2h1v6.2H433.9z M438.7,160.7v-4.6c0-0.6-0.3-0.9-0.7-0.9s-0.7,0.3-0.7,0.9v4.6h-1v-6.2h0.9v0.5
		c0.1-0.2,0.2-0.3,0.4-0.4c0.2-0.1,0.4-0.2,0.7-0.2c0.4,0,0.8,0.2,1,0.4c0.3,0.4,0.4,0.8,0.4,1.3v4.6L438.7,160.7z M441.8,160.3
		c-0.4-0.4-0.6-0.9-0.5-1.4v-3.7h-0.7v-0.8h0.7v-1.7h1v1.7h1v0.8h-1v3.6c0,0.6,0.4,0.9,1,0.9v0.9
		C442.7,160.8,442.2,160.6,441.8,160.3L441.8,160.3z M444.9,157.8c-0.1,0.6,0,1.3,0.2,1.8c0.1,0.2,0.3,0.3,0.5,0.3s0.4-0.1,0.5-0.2
		c0.2-0.2,0.2-0.5,0.2-0.7h1c0,0.5-0.2,1-0.5,1.4c-0.3,0.3-0.8,0.5-1.2,0.4c-0.5,0-0.9-0.1-1.2-0.5c-0.5-0.5-0.6-1.4-0.6-2.7
		s0.1-2.2,0.5-2.7c0.3-0.3,0.8-0.5,1.2-0.5c0.5,0,0.9,0.1,1.2,0.5c0.5,0.5,0.5,1.4,0.5,2.9H444.9z M446.2,155.5
		c-0.1-0.2-0.3-0.3-0.5-0.2c-0.2,0-0.4,0.1-0.5,0.2c-0.2,0.2-0.2,0.7-0.2,1.6h1.6C446.4,156.2,446.4,155.7,446.2,155.5L446.2,155.5z
		 M450.9,160.7v-0.5c-0.2,0.4-0.6,0.6-1,0.6s-0.8-0.2-1-0.5c-0.4-0.4-0.5-1.3-0.5-2.7s0.1-2.3,0.5-2.8c0.2-0.3,0.6-0.5,1-0.4
		c0.2,0,0.5,0.1,0.7,0.2c0.1,0.1,0.3,0.2,0.3,0.3v-2.8h1v8.5L450.9,160.7L450.9,160.7z M450.9,156.2c0-0.3-0.1-0.5-0.2-0.7
		c-0.1-0.1-0.3-0.2-0.5-0.2s-0.4,0.1-0.5,0.2c-0.2,0.3-0.2,0.8-0.2,2.1s0,1.8,0.2,2.1c0.1,0.2,0.3,0.3,0.5,0.3s0.4-0.1,0.5-0.2
		c0.2-0.2,0.3-0.5,0.2-0.7V156.2z M458.4,160.2c-0.7,0.7-1.8,0.8-2.5,0.1l-0.1-0.1c-0.6-1.7-0.6-3.6,0-5.3c0.7-0.7,1.8-0.8,2.5-0.1
		l0.1,0.1C459,156.7,459,158.5,458.4,160.2z M457.6,155.5c-0.1-0.2-0.3-0.3-0.5-0.3s-0.4,0.1-0.5,0.3c-0.3,1.4-0.3,2.8,0,4.1
		c0.1,0.2,0.3,0.3,0.5,0.3s0.4-0.1,0.5-0.3C458,158.3,458,156.9,457.6,155.5z M461.2,155.2v5.5h-1v-5.5h-0.7v-0.8h0.7v-0.6
		c0-0.5,0.2-1,0.5-1.4c0.4-0.3,0.9-0.4,1.4-0.4v0.9c-0.5-0.1-0.9,0.2-1,0.7c0,0.1,0,0.2,0,0.3v0.6h1v0.8L461.2,155.2z M464.3,155.2
		v5.5h-1v-5.5h-0.7v-0.8h0.7v-0.6c0-0.5,0.2-1,0.5-1.4c0.4-0.3,0.9-0.4,1.4-0.4v0.9c-0.5-0.1-0.9,0.2-1,0.7c0,0.1,0,0.2,0,0.3v0.6h1
		v0.8L464.3,155.2z M469.6,155.2v5.5h-1v-5.5h-0.7v-0.8h0.7v-0.6c0-0.5,0.2-1,0.5-1.4c0.4-0.3,0.9-0.4,1.4-0.4v0.9
		c-0.5-0.1-0.9,0.2-1,0.7c0,0.1,0,0.2,0,0.3v0.6h1v0.8L469.6,155.2z M473.5,155.3c-0.6,0-1.1,0.4-1.1,1v0.1v4.2h-1v-6.2h0.9v0.7
		c0.1-0.2,0.3-0.3,0.4-0.4c0.3-0.2,0.6-0.3,1-0.3v0.9H473.5z M477.5,160.2c-0.3,0.4-0.8,0.6-1.3,0.6s-1-0.2-1.3-0.6
		c-0.6-1.7-0.6-3.6,0-5.3c0.3-0.4,0.8-0.6,1.3-0.6s1,0.2,1.3,0.6C478.1,156.7,478.1,158.5,477.5,160.2z M476.8,155.5
		c-0.1-0.2-0.3-0.3-0.6-0.3c-0.2,0-0.4,0.1-0.5,0.3c-0.3,1.4-0.3,2.8,0,4.1c0.1,0.2,0.3,0.3,0.5,0.3s0.4-0.1,0.6-0.3
		C477.1,158.3,477.1,156.9,476.8,155.5z M484,160.7v-4.6c0-0.6-0.3-0.9-0.7-0.9s-0.7,0.3-0.7,0.9v4.6h-1v-4.6c0-0.6-0.3-0.9-0.7-0.9
		s-0.7,0.3-0.7,0.9v4.6h-1v-6.2h0.9v0.5c0.1-0.2,0.2-0.3,0.4-0.4c0.2-0.1,0.4-0.2,0.7-0.2c0.5,0,0.9,0.2,1.2,0.6
		c0.1-0.2,0.3-0.3,0.5-0.4c0.2-0.1,0.5-0.2,0.7-0.2c0.4,0,0.8,0.1,1.1,0.4c0.3,0.4,0.4,0.8,0.4,1.3v4.6L484,160.7z M416.5,174.7
		c-0.4-0.4-0.6-0.9-0.5-1.4v-3.7h-0.7v-0.8h0.7v-1.7h1v1.7h1v0.8h-1v3.6c0,0.6,0.4,0.9,1,0.9v0.9C417.4,175.2,416.8,175,416.5,174.7
		L416.5,174.7z M421.3,175.1v-4.6c0-0.6-0.3-0.9-0.8-0.9s-0.7,0.3-0.7,0.9v4.6h-1v-8.5h1v2.8c0.1-0.1,0.1-0.2,0.2-0.3
		c0.2-0.1,0.4-0.2,0.7-0.2c0.4,0,0.8,0.1,1.1,0.4c0.3,0.4,0.4,0.8,0.4,1.3v4.6L421.3,175.1z M424.3,172.2c-0.1,0.6,0,1.3,0.2,1.8
		c0.1,0.2,0.3,0.3,0.5,0.3s0.4-0.1,0.6-0.2c0.2-0.2,0.2-0.5,0.2-0.7h1c0,0.5-0.2,1-0.5,1.4c-0.3,0.3-0.8,0.5-1.2,0.4
		c-0.5,0-0.9-0.1-1.2-0.5c-0.5-0.5-0.5-1.4-0.5-2.7s0.1-2.2,0.5-2.7c0.7-0.6,1.8-0.6,2.4,0c0.5,0.5,0.5,1.4,0.5,2.9H424.3z
		 M425.7,169.9c-0.1-0.2-0.3-0.3-0.5-0.3s-0.4,0.1-0.5,0.3c-0.2,0.2-0.2,0.7-0.2,1.6h1.6C425.8,170.6,425.8,170.1,425.7,169.9
		L425.7,169.9z M434.5,175.1h-1l-0.8-4.6l-0.8,4.6h-1l-1.3-6.2h1.1l0.7,4.7l0.8-4.7h0.9l0.9,4.7l0.7-4.7h1.1L434.5,175.1z
		 M437.3,172.2c-0.1,0.6,0,1.3,0.2,1.8c0.1,0.2,0.3,0.3,0.5,0.3s0.4-0.1,0.6-0.2c0.2-0.2,0.2-0.5,0.2-0.7h1c0,0.5-0.2,1-0.5,1.4
		c-0.3,0.3-0.8,0.5-1.2,0.4c-0.5,0-0.9-0.1-1.2-0.5c-0.5-0.5-0.5-1.4-0.5-2.7s0.1-2.2,0.5-2.7c0.7-0.6,1.8-0.6,2.4,0
		c0.5,0.5,0.5,1.4,0.5,2.9H437.3z M438.7,169.9c-0.1-0.2-0.3-0.3-0.5-0.3s-0.4,0.1-0.5,0.3c-0.2,0.2-0.2,0.7-0.2,1.6h1.6
		C438.8,170.6,438.8,170.1,438.7,169.9L438.7,169.9z M444.1,174.7c-0.4,0.5-1.1,0.6-1.7,0.3c-0.1-0.1-0.3-0.2-0.4-0.4v0.5h-1v-8.5h1
		v2.8c0.1-0.1,0.2-0.2,0.3-0.3c0.2-0.1,0.4-0.2,0.7-0.2c0.4,0,0.8,0.2,1,0.4c0.4,0.5,0.5,1.3,0.5,2.8S444.4,174.3,444.1,174.7
		L444.1,174.7z M443.3,169.9c-0.1-0.2-0.3-0.3-0.5-0.3s-0.4,0.1-0.5,0.2c-0.2,0.2-0.3,0.5-0.2,0.7v2.8c0,0.3,0.1,0.5,0.2,0.7
		c0.1,0.1,0.3,0.2,0.5,0.2s0.4-0.1,0.5-0.3c0.2-0.3,0.2-0.8,0.2-2.1S443.4,170.2,443.3,169.9L443.3,169.9z M448.4,174.7
		c-0.3,0.3-0.8,0.5-1.3,0.5s-0.9-0.2-1.2-0.5c-0.4-0.4-0.5-0.9-0.5-1.4h1c0,0.3,0.1,0.5,0.3,0.8c0.1,0.1,0.3,0.2,0.5,0.2
		s0.4-0.1,0.6-0.2c0.2-0.2,0.2-0.4,0.2-0.6c0-0.2-0.1-0.4-0.2-0.6c-0.1-0.2-0.3-0.3-0.5-0.4l-0.8-0.4c-0.3-0.2-0.6-0.4-0.9-0.7
		c-0.1-0.3-0.2-0.5-0.2-0.8c0-0.5,0.2-0.9,0.5-1.2c0.7-0.6,1.7-0.6,2.4,0c0.4,0.4,0.5,0.9,0.5,1.4h-1c0-0.3-0.1-0.5-0.2-0.8
		c-0.1-0.1-0.3-0.2-0.5-0.2s-0.4,0.1-0.5,0.2c-0.1,0.2-0.2,0.4-0.2,0.6c0,0.2,0,0.3,0.1,0.5s0.3,0.3,0.5,0.4l0.8,0.4
		c0.4,0.1,0.7,0.4,0.9,0.7C449.1,173.2,449,174.1,448.4,174.7L448.4,174.7z M449.9,167.8v-1.1h1.1v1.1H449.9z M450,175.1v-6.2h1v6.2
		H450z M453.1,174.7c-0.4-0.4-0.6-0.9-0.5-1.4v-3.7h-0.7v-0.8h0.7v-1.7h1v1.7h1v0.8h-1v3.6c0,0.6,0.3,0.9,1,0.9v0.9
		C454,175.2,453.4,175,453.1,174.7L453.1,174.7z M456.2,172.2c-0.1,0.6,0,1.3,0.2,1.8c0.1,0.2,0.3,0.3,0.5,0.3s0.4-0.1,0.5-0.2
		c0.2-0.2,0.2-0.5,0.2-0.7h1c0,0.5-0.2,1-0.5,1.4c-0.3,0.3-0.8,0.5-1.2,0.4c-0.5,0-0.9-0.1-1.2-0.5c-0.5-0.5-0.5-1.4-0.5-2.7
		s0.1-2.2,0.5-2.7c0.7-0.6,1.8-0.6,2.5,0c0.5,0.5,0.5,1.4,0.5,2.9H456.2z M457.6,169.9c-0.1-0.2-0.3-0.3-0.5-0.3s-0.4,0.1-0.5,0.3
		c-0.2,0.2-0.2,0.7-0.2,1.6h1.6C457.7,170.6,457.7,170.1,457.6,169.9L457.6,169.9z M459.9,175.1v-1.2h1.1v1.2H459.9z"/>
</g>
</svg>
