<?xml version="1.0" encoding="utf-8"?>
<!-- Generator: Adobe Illustrator 23.0.3, SVG Export Plug-In . SVG Version: 6.00 Build 0)  -->
<svg version="1.1" xmlns="http://www.w3.org/2000/svg" xmlns:xlink="http://www.w3.org/1999/xlink" x="0px" y="0px"
	 viewBox="0 0 300 341.4" style="enable-background:new 0 0 300 341.4;" xml:space="preserve">
<style type="text/css">
	.st0{fill:#4559A8;}
	.st1{fill:#FFFFFF;}
</style>
<g id="Layer_2">
</g>
<g id="Layer_1">
	<title>Asset 1</title>
	<g>
		<g id="Layer_1-2">
			<path class="st0" d="M38.2,10.5V4.8L44.4,0v10.5H38.2z M47.9,10.5V4.8L54.1,0v10.5H47.9z M234.2,112.2v-10.4h6.2v5.7L234.2,112.2
				z M243.8,112.2v-10.4h6.2v5.7L243.8,112.2z M117.6,232.5c0-1.5,0.1-3.1-0.6-4.5c-0.7-1.6-2.3-2.2-4-2.5c-1.4-0.2-2.8-0.3-4.3-0.2
				H104c-2,0-4.5,0.1-6,1.5c-1.8,1.7-1.4,4.6-1.4,6.8v7c0,0.9-0.2,2.1,0.4,2.9c0.7,0.8,1.9,0.9,2.7,0.3c0.1-0.1,0.3-0.2,0.4-0.4
				c0.3-0.4,0.4-0.9,0.3-1.4v-10.1c0-0.3,0-0.6,0.1-0.9c0.2-0.3,0.7-0.4,1-0.2c0.2,0.1,0.3,0.4,0.3,0.6v33.2c0,2.4,3.6,2.9,4.3,0.6
				c0.1-0.7,0.1-1.3,0.1-2v-16.7c0-0.8-0.1-2.2,1.2-1.8c0.9,0.3,0.7,1.3,0.7,2v16.8c0,0.8-0.1,1.6,0.3,2.3c0.6,1,2,1.3,3,0.7
				c0.6-0.4,1-1.1,1-1.8v-33.2c0-0.4,0.3-0.7,0.7-0.7c0.4,0,0.7,0.3,0.7,0.7l0,0c0,0.2,0,0.4,0,0.6v10.1c0,0.6,0.2,1.2,0.7,1.7
				c0.8,0.7,2,0.5,2.7-0.3c0.1-0.1,0.2-0.3,0.3-0.5c0.3-0.8,0.1-1.9,0.1-2.8v-6.8C117.6,233.1,117.6,232.8,117.6,232.5 M111.6,219.7
				c0,2.5-2,4.5-4.5,4.5c-2.5,0-4.5-2-4.5-4.5c0-2.5,2-4.5,4.5-4.5C109.6,215.2,111.6,217.2,111.6,219.7 M93.5,232.5
				c0-1.5,0.1-3.1-0.6-4.5c-0.7-1.6-2.3-2.2-4-2.5c-1.4-0.2-2.8-0.3-4.3-0.2h-4.8c-2,0-4.5,0.1-6,1.5c-1.8,1.7-1.4,4.6-1.4,6.8v7
				c0,0.9-0.2,2.1,0.4,2.9c0.7,0.8,1.9,0.9,2.7,0.3c0.1-0.1,0.3-0.2,0.4-0.4c0.3-0.4,0.4-0.9,0.3-1.4v-10.1c0-0.3,0-0.6,0.1-0.9
				c0.2-0.3,0.7-0.4,1-0.2c0.2,0.1,0.3,0.4,0.3,0.6v33.2c0,2.4,3.6,2.9,4.3,0.6c0.1-0.7,0.1-1.3,0.1-2v-16.7c0-0.8-0.1-2.2,1.2-1.8
				c0.9,0.3,0.7,1.3,0.7,2v16.8c0,0.8-0.1,1.6,0.3,2.3c0.6,1,2,1.3,3,0.7c0.6-0.4,1-1.1,1-1.8v-33.2c0-0.4,0.2-0.8,0.6-0.8
				c0.4,0,0.8,0.2,0.8,0.6c0,0,0,0.1,0,0.1c0,0.2,0,0.4,0,0.6v10.1c0,0.6,0.2,1.2,0.7,1.7c0.8,0.7,2,0.5,2.7-0.3
				c0.1-0.1,0.2-0.3,0.3-0.5c0.3-0.8,0.1-1.9,0.1-2.8v-6.8C93.5,233.1,93.5,232.8,93.5,232.5 M87.4,219.7c0,2.5-2,4.5-4.5,4.5
				s-4.5-2-4.5-4.5c0-2.5,2-4.5,4.5-4.5S87.4,217.2,87.4,219.7 M69.3,232.5c0-1.5,0.1-3.1-0.6-4.5c-0.7-1.6-2.3-2.2-4-2.5
				c-1.4-0.2-2.9-0.2-4.3-0.2h-4.8c-2,0-4.5,0.1-6,1.5c-1.8,1.7-1.4,4.6-1.4,6.8v7c0,0.9-0.2,2.1,0.4,2.9c0.7,0.8,1.9,0.9,2.7,0.3
				c0.1-0.1,0.3-0.2,0.4-0.4c0.3-0.4,0.4-0.9,0.3-1.4v-10.1c0-0.3,0-0.6,0.1-0.9c0.2-0.3,0.7-0.4,1-0.2c0.2,0.1,0.3,0.4,0.3,0.6
				v33.2c0,2.4,3.6,2.9,4.3,0.6c0.1-0.7,0.1-1.3,0.1-2v-16.7c0-0.8-0.1-2.2,1.2-1.8c0.9,0.3,0.7,1.3,0.7,2v16.8
				c0,0.8-0.1,1.6,0.3,2.3c0.6,1,2,1.3,3,0.7c0.6-0.4,1-1.1,1-1.8v-33.2c0-0.4,0.2-0.8,0.6-0.8c0.4,0,0.8,0.2,0.8,0.6
				c0,0,0,0.1,0,0.1c0,0.2,0,0.4,0,0.6v10.1c0,0.6,0.2,1.2,0.7,1.7c0.8,0.7,2,0.5,2.7-0.3c0.1-0.1,0.2-0.3,0.3-0.5
				c0.3-0.8,0.1-1.9,0.1-2.8v-6.8C69.3,233.1,69.3,232.8,69.3,232.5 M63.3,219.7c0,2.5-2,4.5-4.5,4.5s-4.5-2-4.5-4.5
				c0-2.5,2-4.5,4.5-4.5S63.3,217.2,63.3,219.7 M45.2,232.5c0-1.5,0.1-3.1-0.6-4.5c-0.7-1.6-2.3-2.2-4-2.5c-1.4-0.2-2.8-0.2-4.3-0.2
				h-4.8c-2,0-4.5,0.1-6,1.5c-1.8,1.7-1.4,4.6-1.4,6.8v7c0,0.9-0.2,2.1,0.4,2.9c0.7,0.8,1.9,0.9,2.7,0.3c0.1-0.1,0.3-0.2,0.4-0.4
				c0.3-0.4,0.4-0.9,0.3-1.4v-10.1c0-0.3,0-0.6,0.1-0.9c0.2-0.3,0.7-0.4,1-0.2c0.2,0.1,0.3,0.4,0.3,0.6v33.2c0,2.4,3.6,2.9,4.3,0.6
				c0.1-0.7,0.1-1.3,0.1-2v-16.7c0-0.8-0.1-2.2,1.2-1.8c0.9,0.3,0.6,1.3,0.6,2v16.8c-0.1,0.8,0,1.6,0.3,2.3c0.6,1,2,1.3,3,0.7
				c0.6-0.4,1-1.1,1-1.8v-33.2c0-0.4,0.2-0.8,0.6-0.8c0.4,0,0.8,0.2,0.8,0.6c0,0,0,0.1,0,0.1c0,0.2,0,0.4,0,0.6v10.1
				c0,0.6,0.2,1.2,0.7,1.7c0.8,0.7,2,0.5,2.7-0.3c0.1-0.1,0.2-0.3,0.3-0.5c0.3-0.8,0.1-1.9,0.1-2.8v-6.8
				C45.2,233.1,45.2,232.8,45.2,232.5 M39.1,219.7c0,2.5-2,4.5-4.5,4.5s-4.5-2-4.5-4.5c0-2.5,2-4.5,4.5-4.5S39.1,217.2,39.1,219.7"
				/>
			<path class="st1" d="M67.9,28v-6.8h-5.5V28h-3.2V11.6h3.2v6.7h5.5v-6.7h3.2V28H67.9z M82.9,26.6c-1,1-2.3,1.5-3.7,1.5
				c-1.4,0.1-2.7-0.5-3.7-1.5c-1.1-1.1-1.4-2.5-1.4-4.7s0.3-3.5,1.4-4.6c2.1-2,5.3-2,7.4,0c1.1,1.1,1.4,2.5,1.4,4.6
				S84,25.5,82.9,26.6z M80.6,19.1c-0.8-0.7-2-0.7-2.8,0c-0.6,0.6-0.7,1.7-0.7,2.9c0,1.2,0.1,2.3,0.7,2.9c0.8,0.7,2,0.7,2.8,0
				c0.6-0.6,0.7-1.7,0.7-2.9S81.2,19.7,80.6,19.1z M101,28v-7.2c0-1.6-1-2.2-2-2.2c-1.1-0.1-2,0.8-2,1.8c0,0.1,0,0.2,0,0.3V28h-3
				v-7.2c0-1.6-1-2.2-2-2.2s-2,0.6-2,2.2V28h-3V16H90v1.1c0.8-0.8,1.9-1.2,3-1.2c1.3-0.1,2.5,0.5,3.2,1.5c0.9-1,2.2-1.6,3.6-1.5
				c1.1,0,2.1,0.3,2.9,1.1c0.9,0.9,1.3,2.1,1.3,3.4V28L101,28z M109.5,22.9c-0.1,1.3,0.9,2.5,2.2,2.7c0.1,0,0.3,0,0.4,0
				c1,0.1,2-0.4,2.7-1.1l1.9,1.8c-1.2,1.3-2.8,2-4.6,1.9c-2.8,0-5.5-1.3-5.5-6.1c0-3.9,2.1-6.1,5.2-6.1c3.3,0,5.2,2.4,5.2,5.8v1.3
				L109.5,22.9z M113.8,19.6c-0.5-1.1-1.9-1.6-3-1c-0.4,0.2-0.8,0.6-1,1c-0.2,0.4-0.3,0.8-0.3,1.3h4.5C114.1,20.4,114,20,113.8,19.6
				L113.8,19.6z M123.1,28c-1.8,0.1-3.4-1.2-3.5-3c0-0.1,0-0.3,0-0.4V11.6h3v12.8c0,0.7,0.3,1.1,1.1,1.1h1.1V28L123.1,28z
				 M129.4,22.9c-0.1,1.3,0.9,2.5,2.2,2.7c0.1,0,0.3,0,0.4,0c1,0.1,2-0.4,2.7-1.1l1.8,1.8c-1.1,1.3-2.8,2-4.5,1.9
				c-2.8,0-5.5-1.3-5.5-6.1c0-3.9,2.1-6.1,5.2-6.1c3.3,0,5.2,2.4,5.2,5.8v1.3L129.4,22.9z M133.6,19.6c-0.5-1.1-1.9-1.6-3-1
				c-0.4,0.2-0.8,0.6-1,1c-0.2,0.4-0.3,0.8-0.3,1.3h4.6C133.9,20.4,133.8,20,133.6,19.6L133.6,19.6z M143.6,28.1
				c-1.9,0-3.6-0.2-5.1-1.7l2-2c0.9,0.8,2,1.2,3.2,1.1c1,0,2.1-0.3,2.1-1.2c0-0.6-0.3-1-1.3-1.1l-1.9-0.2c-2.1-0.2-3.4-1.1-3.4-3.4
				c0-2.5,2.2-3.8,4.6-3.8c1.9,0,3.4,0.3,4.6,1.4l-1.8,1.9c-0.8-0.6-1.8-0.9-2.8-0.8c-1.2,0-1.7,0.5-1.7,1.1c0,0.6,0.3,0.9,1.2,1
				l1.9,0.2c2.4,0.2,3.6,1.5,3.6,3.5C148.6,26.8,146.4,28.1,143.6,28.1z M155,28.1c-1.9,0-3.6-0.2-5.1-1.7l2-2
				c0.9,0.8,2,1.2,3.2,1.1c1,0,2.1-0.3,2.1-1.2c0-0.6-0.3-1-1.3-1.1l-1.9-0.2c-2.1-0.2-3.4-1.1-3.4-3.4c0-2.5,2.2-3.8,4.6-3.8
				c1.9,0,3.4,0.3,4.6,1.4l-1.8,1.9c-0.8-0.6-1.8-0.9-2.8-0.8c-1.2,0-1.7,0.5-1.7,1.1c0,0.6,0.3,0.9,1.2,1l1.9,0.2
				c2.4,0.2,3.6,1.5,3.6,3.5C160.1,26.8,157.8,28.1,155,28.1z M169.5,27.9v-7.2c0-1.6-1-2.2-2-2.2s-2,0.6-2,2.2V28h-3V16h2.9v1.1
				c0.8-0.8,1.9-1.2,3-1.2c1,0,2.1,0.3,2.8,1.1c0.9,0.9,1.3,2.1,1.2,3.4V28L169.5,27.9z M178,22.9c-0.1,1.3,0.9,2.5,2.2,2.7
				c0.1,0,0.3,0,0.4,0c1,0.1,2-0.4,2.7-1.1l1.8,1.8c-1.1,1.3-2.8,2-4.6,1.9c-2.8,0-5.5-1.3-5.5-6.1c0-3.9,2.1-6.1,5.2-6.1
				c3.3,0,5.2,2.4,5.2,5.8v1.3L178,22.9z M182.3,19.5c-0.5-1.1-1.9-1.6-3-1c-0.4,0.2-0.8,0.6-1,1c-0.2,0.4-0.3,0.8-0.3,1.3h4.5
				C182.6,20.4,182.5,20,182.3,19.5L182.3,19.5z M192.2,28.1c-1.9,0-3.6-0.2-5.1-1.7l2-2c0.9,0.8,2,1.2,3.2,1.1c1,0,2.1-0.3,2.1-1.2
				c0-0.6-0.3-1-1.3-1.1l-1.9-0.2c-2.1-0.2-3.4-1.1-3.4-3.4c0-2.5,2.2-3.8,4.6-3.8c1.9,0,3.4,0.3,4.6,1.4l-1.8,1.9
				c-0.8-0.6-1.8-0.9-2.8-0.8c-1.2,0-1.7,0.5-1.7,1.1c0,0.6,0.3,0.9,1.2,1l1.9,0.2c2.4,0.2,3.6,1.5,3.6,3.5
				C197.3,26.8,195,28.1,192.2,28.1z M203.6,28.1c-1.9,0-3.6-0.2-5.1-1.7l2-2c0.9,0.8,2,1.2,3.2,1.1c1,0,2.1-0.3,2.1-1.2
				c0-0.6-0.3-1-1.3-1.1l-1.9-0.2c-2.1-0.2-3.4-1.1-3.4-3.4c0-2.5,2.2-3.8,4.6-3.8c1.9,0,3.4,0.3,4.6,1.4l-1.8,1.9
				c-0.8-0.6-1.8-0.9-2.8-0.8c-1.2,0-1.7,0.5-1.7,1.1c0,0.6,0.3,0.9,1.2,1l1.9,0.2c2.4,0.2,3.6,1.5,3.6,3.5
				C208.7,26.8,206.4,28.1,203.6,28.1z M216.4,13.9v-2.4h3v2.4L216.4,13.9z M216.5,28V16.3h3V28L216.5,28z M226.7,28.1
				c-1.9,0-3.6-0.2-5.1-1.7l2-2c0.9,0.8,2,1.2,3.2,1.1c1,0,2.1-0.3,2.1-1.2c0-0.6-0.3-1-1.3-1.1l-1.9-0.2c-2.1-0.2-3.4-1.1-3.4-3.4
				c0-2.5,2.2-3.8,4.6-3.8c1.9,0,3.4,0.3,4.6,1.4l-1.8,1.9c-0.8-0.6-1.8-0.9-2.8-0.8c-1.2,0-1.7,0.5-1.7,1.1c0,0.6,0.3,0.9,1.2,1
				l1.9,0.2c2.4,0.2,3.6,1.5,3.6,3.5C231.8,26.8,229.6,28.1,226.7,28.1L226.7,28.1z M245.7,28v-1.1c-0.8,0.8-1.8,1.2-2.9,1.1
				c-1.1,0.1-2.2-0.3-3-1.1c-0.7-0.7-1-1.7-1-2.7c0-1.9,1.3-3.5,4.1-3.5h2.8v-0.6c0-1.3-0.6-1.9-2.2-1.9c-0.9-0.1-1.8,0.3-2.3,1
				l-1.9-1.9c1.2-1.3,2.3-1.7,4.3-1.7c3.4,0,5.1,1.4,5.1,4.2V28L245.7,28z M245.7,22.9h-2.2c-1.2,0-1.8,0.5-1.8,1.4
				c0,0.9,0.6,1.4,1.8,1.4c0.6,0.1,1.3-0.1,1.8-0.6c0.4-0.4,0.5-1,0.5-1.5L245.7,22.9z M45.5,51.2c-0.8,0.7-1.8,1.1-2.9,1.1
				c-1.1,0.1-2.2-0.4-3-1.3v1.1h-2.9V35.8h3v5.4c0.7-0.8,1.8-1.3,2.9-1.2c1.1,0,2.1,0.3,2.9,1.1c1.1,1.2,1.2,3,1.2,5
				S46.7,50.1,45.5,51.2z M41.8,42.8c-1.8,0-2,1.5-2,3.4s0.2,3.4,2,3.4s2-1.5,2-3.4S43.6,42.8,41.8,42.8z M49.6,38.2v-2.4h3.1v2.4
				L49.6,38.2z M49.6,52.2V40.6h3v11.6L49.6,52.2z M60.1,56.7c-1.8,0-3.1-0.4-4.3-1.6l1.9-1.9c0.6,0.7,1.5,1,2.3,1
				c1.8,0,2.4-1.3,2.4-2.5v-1.2c-0.7,0.8-1.8,1.2-2.9,1.1c-1.1,0-2.1-0.3-2.8-1.1c-1.1-1.1-1.2-2.7-1.2-4.8s0.1-3.6,1.2-4.7
				c0.8-0.7,1.8-1.1,2.9-1.1c1.1-0.1,2.2,0.4,2.9,1.3v-1.1h2.9v11.5C65.3,54.6,63.3,56.7,60.1,56.7z M60.4,42.8c-1.8,0-2,1.5-2,3.1
				c0,1.6,0.2,3.1,2,3.1s2-1.5,2-3.1C62.4,44.3,62.1,42.8,60.4,42.8z M78.8,52.3c-2.4,0-5.4-1.3-5.4-6.1s3-6.1,5.4-6.1
				c1.5-0.1,2.9,0.5,3.9,1.6l-2,2c-0.5-0.6-1.2-0.9-1.9-0.9c-0.7,0-1.3,0.3-1.7,0.8c-0.5,0.8-0.7,1.7-0.6,2.6
				c-0.1,0.9,0.1,1.9,0.6,2.7c0.4,0.5,1,0.8,1.7,0.8c0.7,0,1.5-0.3,1.9-0.9l2,2C81.7,51.8,80.3,52.4,78.8,52.3L78.8,52.3z M93,50.9
				c-1,1-2.3,1.5-3.7,1.5c-1.4,0.1-2.7-0.5-3.7-1.5c-1.1-1.1-1.4-2.5-1.4-4.7s0.3-3.5,1.4-4.6c2.1-2,5.3-2,7.4,0
				c1.1,1.1,1.4,2.5,1.4,4.6S94.1,49.7,93,50.9L93,50.9z M90.6,43.3c-0.4-0.4-0.9-0.6-1.4-0.5c-0.5,0-1,0.2-1.4,0.5
				c-0.6,0.6-0.7,1.7-0.7,2.9s0.1,2.3,0.7,2.9c0.4,0.4,0.9,0.5,1.4,0.5c0.5,0,1-0.2,1.4-0.5c0.6-0.6,0.7-1.7,0.7-2.9
				S91.3,43.9,90.6,43.3z M104.1,52.2V45c0-1.6-1-2.2-2-2.2s-2,0.6-2,2.2v7.2h-3v-12h2.9v1.1c0.8-0.8,1.9-1.2,3-1.2
				c1,0,2.1,0.3,2.8,1.1c0.9,0.9,1.3,2.1,1.2,3.4v7.7L104.1,52.2z M115.1,52.3c-2.4,0-5.3-1.3-5.3-6.1s3-6.1,5.3-6.1
				c1.5-0.1,2.9,0.5,3.9,1.6l-2,2c-0.5-0.6-1.2-0.9-1.9-0.9c-0.7,0-1.3,0.3-1.7,0.8c-0.5,0.8-0.7,1.7-0.6,2.6
				c-0.1,0.9,0.1,1.9,0.6,2.7c0.4,0.5,1,0.8,1.7,0.8c0.7,0,1.5-0.3,1.9-0.9l2,2C118,51.8,116.5,52.4,115.1,52.3L115.1,52.3z
				 M123.4,47.1c-0.1,1.3,0.9,2.5,2.2,2.7c0.1,0,0.3,0,0.4,0c1,0.1,2-0.4,2.7-1.1l1.8,1.8c-1.1,1.3-2.8,2-4.5,1.9
				c-2.8,0-5.5-1.3-5.5-6.1c0-3.9,2.1-6.1,5.2-6.1c3.3,0,5.2,2.4,5.2,5.8v1.3L123.4,47.1z M127.6,43.8c-0.5-1.1-1.9-1.6-3-1
				c-0.4,0.2-0.8,0.6-1,1c-0.2,0.4-0.3,0.8-0.3,1.3h4.5C127.9,44.6,127.8,44.2,127.6,43.8z M140.1,43.5c-0.7-0.8-2-1-2.8-0.2
				c-0.5,0.4-0.8,1.1-0.7,1.7v7.2h-3v-12h2.9v1.1c0.8-0.8,1.9-1.3,3-1.3c1.1-0.1,2.1,0.4,2.8,1.1L140.1,43.5z M151,52.2V45
				c0-1.6-1-2.2-2-2.2s-2,0.6-2,2.2v7.2h-3v-12h2.9v1.1c0.8-0.8,1.9-1.3,3-1.2c1,0,2.1,0.3,2.8,1.1c0.9,0.9,1.3,2.1,1.2,3.4v7.7
				L151,52.2z M162.5,38.2v-2.4h3.1v2.4L162.5,38.2z M162.5,52.2V40.6h3v11.6H162.5z M182.7,52.2V45c0-1.6-1-2.2-2-2.2
				c-1.1-0.1-2,0.8-2,1.8c0,0.1,0,0.2,0,0.3v7.3h-3V45c0-1.6-1-2.2-2-2.2s-2,0.6-2,2.2v7.2h-3v-12h2.9v1.1c0.8-0.8,1.9-1.2,3-1.2
				c1.3-0.1,2.5,0.5,3.2,1.5c0.9-1,2.2-1.6,3.6-1.5c1.1,0,2.1,0.3,2.9,1.1c0.9,0.9,1.4,2.1,1.3,3.4v7.7L182.7,52.2z M197.7,51.2
				c-0.8,0.7-1.8,1.1-2.9,1.1c-1.1,0.1-2.1-0.4-2.9-1.2v5.4h-3V40.2h2.9v1.1c0.7-0.9,1.8-1.3,3-1.3c1.1,0,2.1,0.4,2.8,1.1
				c1.1,1.2,1.2,3,1.2,5S198.9,50.1,197.7,51.2z M193.9,42.8c-1.8,0-2,1.5-2,3.4s0.2,3.4,2,3.4s2-1.5,2-3.4S195.7,42.8,193.9,42.8
				L193.9,42.8z M207.9,52.2v-1c-0.8,0.8-1.8,1.2-2.9,1.1c-1.1,0.1-2.2-0.3-3-1.1c-0.7-0.7-1-1.7-1-2.7c0-1.9,1.3-3.5,4.1-3.5h2.8
				v-0.6c0-1.3-0.6-1.9-2.2-1.9c-0.9-0.1-1.8,0.3-2.3,1l-1.9-1.9c1.2-1.3,2.3-1.7,4.3-1.7c3.4,0,5.1,1.4,5.1,4.2v7.9H207.9z
				 M207.8,47.1h-2.3c-1.2,0-1.8,0.5-1.8,1.4c0,0.9,0.6,1.4,1.8,1.4c0.6,0.1,1.3-0.1,1.8-0.6c0.4-0.4,0.5-1,0.5-1.5V47.1z
				 M218.8,52.3c-2.4,0-5.4-1.3-5.4-6.1s3-6.1,5.4-6.1c1.5-0.1,2.9,0.5,3.9,1.6l-2,2c-0.5-0.6-1.2-0.9-1.9-0.9
				c-0.7,0-1.3,0.3-1.7,0.8c-0.5,0.8-0.7,1.7-0.6,2.6c-0.1,0.9,0.1,1.9,0.6,2.7c0.4,0.5,1,0.8,1.7,0.8c0.7,0,1.5-0.3,1.9-0.9l2,2
				C221.7,51.8,220.3,52.4,218.8,52.3z M228.8,52.2c-1.8,0.1-3.3-1.2-3.5-3c0-0.1,0-0.3,0-0.4v-5.9h-1.3v-2.3h1.3V37h3v3.5h2.1v2.3
				h-2.1v5.7c0,0.7,0.3,1.1,1,1.1h1.1v2.6L228.8,52.2z M235.4,47.1c-0.1,1.3,0.9,2.5,2.2,2.7c0.1,0,0.3,0,0.4,0c1,0.1,2-0.4,2.7-1.1
				l1.8,1.8c-1.1,1.3-2.8,2-4.5,1.9c-2.8,0-5.5-1.3-5.5-6.1c0-3.9,2.1-6.1,5.2-6.1c3.3,0,5.2,2.4,5.2,5.8v1.3L235.4,47.1z
				 M239.7,43.8c-0.5-1.1-1.9-1.6-3-1c-0.4,0.2-0.8,0.6-1,1c-0.2,0.4-0.3,0.8-0.3,1.3h4.5C239.9,44.6,239.8,44.2,239.7,43.8
				L239.7,43.8z M252.2,52.2v-1.1c-0.7,0.9-1.8,1.3-3,1.3c-1.1,0-2.1-0.3-2.9-1.1c-1.1-1.2-1.2-3-1.2-5.1s0.1-3.8,1.2-5
				c0.8-0.7,1.8-1.1,2.9-1.1c1.1-0.1,2.2,0.4,2.9,1.2v-5.5h3v16.3L252.2,52.2z M250.1,42.7c-1.8,0-2,1.5-2,3.4c0,1.9,0.2,3.4,2,3.4
				c1.8,0,2-1.5,2-3.4S251.9,42.8,250.1,42.7L250.1,42.7z M45.5,75.5c-0.8,0.7-1.8,1.1-2.9,1.1c-1.1,0.1-2.2-0.4-3-1.3v1.1h-2.9
				V60.1h3v5.4c0.7-0.8,1.8-1.3,2.9-1.2c1.1,0,2.1,0.3,2.9,1.1c1.1,1.2,1.2,3,1.2,5S46.7,74.3,45.5,75.5z M41.8,67
				c-1.8,0-2,1.5-2,3.4c0,1.9,0.2,3.4,2,3.4s2-1.5,2-3.4S43.6,67,41.8,67z M54.1,78.3c-0.2,0.6-0.5,1.1-0.9,1.5
				c-0.7,0.6-1.6,1-2.6,0.9h-1.2v-2.7h0.7c0.7,0.1,1.4-0.3,1.5-1c0,0,0-0.1,0-0.1l0.5-1.5l-4.1-11.1h3.1l2.5,7.4l2.4-7.4h3.1
				L54.1,78.3z M70,76.4c-1.8,0.1-3.3-1.2-3.5-3c0-0.1,0-0.3,0-0.4v-5.9h-1.3v-2.3h1.3v-3.6h3v3.5h2.1v2.3h-2.1v5.7
				c0,0.7,0.3,1.1,1,1.1h1.1v2.6L70,76.4z M80.9,67.7c-0.4-0.5-1-0.7-1.6-0.7c-0.9,0-1.9,0.7-1.9,2.2v7.2h-3v-12h2.9v1.1
				c0.8-0.8,1.9-1.3,3-1.3c1.1-0.1,2.1,0.4,2.8,1.1L80.9,67.7z M90.7,76.4v-1c-0.8,0.8-1.8,1.2-2.9,1.1c-1.1,0.1-2.2-0.3-3.1-1.1
				c-0.7-0.7-1-1.7-1-2.7c0-1.9,1.3-3.5,4.1-3.5h2.8v-0.6c0-1.3-0.6-1.9-2.2-1.9c-0.9-0.1-1.8,0.3-2.3,1L84.3,66
				c1.2-1.3,2.3-1.7,4.3-1.7c3.4,0,5.1,1.4,5.1,4.2v7.9L90.7,76.4z M90.7,71.4h-2.3c-1.2,0-1.8,0.5-1.8,1.4c0,0.9,0.6,1.4,1.8,1.4
				c0.6,0.1,1.3-0.1,1.8-0.6c0.4-0.4,0.5-1,0.5-1.5V71.4z M100.2,67.1v9.3h-3v-9.4H96v-2.3h1.3v-1.5c-0.1-1.8,1.3-3.3,3.1-3.4
				c0.1,0,0.3,0,0.4,0h1.7v2.6h-1.2c-0.7,0-1,0.4-1,1.1v1.3h2.2v2.3L100.2,67.1z M108.1,67.1v9.3h-3v-9.4h-1.2v-2.3h1.2v-1.5
				c-0.1-1.8,1.3-3.3,3.1-3.4c0.1,0,0.3,0,0.4,0h1.7v2.6h-1.2c-0.7,0-1,0.4-1,1.1v1.3h2.2v2.3L108.1,67.1z M112.6,62.4V60h3.1v2.4
				L112.6,62.4z M112.6,76.5V64.8h3v11.6L112.6,76.5z M123.7,76.6c-2.4,0-5.4-1.3-5.4-6.1s3-6.1,5.4-6.1c1.5-0.1,2.9,0.5,3.9,1.6
				l-2,2c-0.5-0.6-1.2-0.9-1.9-0.9c-0.7,0-1.3,0.3-1.7,0.8c-0.5,0.8-0.7,1.7-0.6,2.6c-0.1,0.9,0.1,1.9,0.6,2.7
				c0.4,0.5,1,0.8,1.7,0.8c0.7,0,1.5-0.3,1.9-0.9l2,2C126.6,76,125.1,76.6,123.7,76.6L123.7,76.6z M137.1,76.5l-3-5l-1.3,1.4v3.6h-3
				V60.1h3v9.3l4-4.9h3.6l-4.3,4.8l4.6,7.1L137.1,76.5z M144.2,71.4c-0.1,1.3,0.9,2.5,2.2,2.7c0.1,0,0.3,0,0.4,0
				c1,0.1,2-0.4,2.7-1.1l1.8,1.8c-1.1,1.3-2.8,2-4.5,1.9c-2.8,0-5.5-1.3-5.5-6.1c0-3.9,2.1-6.1,5.2-6.1c3.3,0,5.2,2.4,5.2,5.8v1.3
				L144.2,71.4z M148.5,68.1c-0.5-1.1-1.9-1.6-3-1c-0.4,0.2-0.8,0.6-1,1c-0.2,0.4-0.3,0.8-0.3,1.3h4.5
				C148.7,68.9,148.6,68.4,148.5,68.1L148.5,68.1z M160.9,67.8c-0.7-0.8-2-1-2.8-0.2c-0.5,0.4-0.8,1.1-0.7,1.7v7.2h-3v-12h2.9v1.1
				c0.8-0.8,1.9-1.3,3-1.3c1.1-0.1,2.1,0.4,2.8,1.1L160.9,67.8z M168.6,76.6c-1.9,0-3.6-0.2-5.1-1.7l2-2c0.9,0.8,2,1.2,3.2,1.1
				c1,0,2.1-0.3,2.1-1.2c0-0.6-0.3-1-1.3-1.1l-1.9-0.2c-2.1-0.2-3.4-1.1-3.4-3.4c0-2.5,2.2-3.8,4.6-3.8c1.9,0,3.4,0.3,4.6,1.4
				l-1.8,1.9c-0.8-0.6-1.8-0.9-2.8-0.8c-1.2,0-1.7,0.5-1.7,1.1s0.3,0.9,1.2,1l1.9,0.2c2.4,0.2,3.6,1.5,3.6,3.5
				C173.7,75.3,171.4,76.5,168.6,76.6L168.6,76.6z M193.5,76.5H191l-2.5-7.5l-2.5,7.5h-2.5l-3.7-12h3.2l1.9,7.4l2.4-7.4h2.2l2.5,7.4
				l1.9-7.4h3.1L193.5,76.5z M205.9,76.5v-7.3c0-1.6-1-2.2-2-2.2s-2,0.6-2,2.2v7.2h-3V60.1h3v5.5c1.6-1.6,4.1-1.7,5.7-0.2
				c0.9,0.9,1.3,2.1,1.2,3.4v7.7L205.9,76.5z M220.3,75.1c-2.1,2-5.3,2-7.4,0c-1.1-1.1-1.4-2.5-1.4-4.7c0-2.2,0.3-3.5,1.4-4.6
				c2.1-2,5.3-2,7.4,0c1.1,1.1,1.4,2.5,1.4,4.6C221.7,72.6,221.4,74,220.3,75.1L220.3,75.1z M218,67.6c-0.8-0.7-2-0.7-2.8,0
				c-0.6,0.6-0.7,1.7-0.7,2.9c0,1.2,0.1,2.3,0.7,2.9c0.8,0.7,2,0.7,2.8,0c0.6-0.6,0.7-1.7,0.7-2.9S218.6,68.1,218,67.6L218,67.6z
				 M39.1,95.6C39,97,40,98.2,41.3,98.3c0.1,0,0.3,0,0.4,0c1,0.1,2-0.4,2.7-1.1l1.8,1.8c-1.2,1.3-2.8,1.9-4.5,1.8
				c-2.8,0-5.5-1.3-5.5-6.1c0-3.9,2.1-6.1,5.2-6.1c3.3,0,5.2,2.4,5.2,5.8v1.3L39.1,95.6z M43.4,92.3c-0.5-1.1-1.9-1.6-3-1
				c-0.4,0.2-0.8,0.6-1,1c-0.2,0.4-0.3,0.8-0.3,1.3h4.5C43.6,93.1,43.6,92.7,43.4,92.3z M55.5,100.7l-2.2-3.6l-2.2,3.6h-3.6l4.1-6.1
				l-4-5.8h3.6l2,3.4l2-3.4h3.6l-4,5.8l4.1,6.1H55.5z M69.8,99.7c-0.8,0.7-1.8,1.1-2.9,1.1c-1.1,0.1-2.2-0.4-2.9-1.2v5.4h-3V88.7
				h2.9v1.1c0.7-0.9,1.8-1.3,3-1.3c1.1,0,2.1,0.3,2.9,1.1c1.1,1.2,1.2,3,1.2,5C71,96.6,70.9,98.5,69.8,99.7z M66,91.2
				c-1.8,0-2,1.5-2,3.4c0,1.9,0.2,3.4,2,3.4s2-1.5,2-3.4S67.8,91.2,66,91.2z M77.2,100.7c-1.8,0.1-3.4-1.2-3.5-3c0-0.1,0-0.3,0-0.4
				V84.3h3v12.8c0,0.7,0.3,1.1,1.1,1.1h1.1v2.6L77.2,100.7z M89.4,99.3c-1,1-2.3,1.5-3.7,1.5c-1.4,0.1-2.7-0.5-3.7-1.5
				c-1.1-1.1-1.4-2.5-1.4-4.7c0-2.2,0.3-3.5,1.4-4.6c2.1-2,5.3-2,7.4,0c1.1,1.1,1.4,2.5,1.4,4.6S90.5,98.2,89.4,99.3L89.4,99.3z
				 M87.1,91.8c-0.4-0.4-0.9-0.6-1.4-0.5c-0.5,0-1,0.2-1.4,0.5c-0.6,0.6-0.7,1.7-0.7,2.9s0.1,2.3,0.7,2.9c0.4,0.4,0.9,0.5,1.4,0.5
				c0.5,0,1-0.2,1.4-0.5c0.6-0.6,0.7-1.7,0.7-2.9C87.7,93.4,87.7,92.4,87.1,91.8L87.1,91.8z M93.5,86.7v-2.4h3.1v2.4H93.5z
				 M93.6,100.7V89h3v11.6L93.6,100.7z M103.6,100.7c-1.8,0.1-3.3-1.2-3.5-3c0-0.1,0-0.3,0-0.4v-5.9h-1.3v-2.3h1.3v-3.5h3v3.5h2.1
				v2.3h-2.1v5.7c0,0.7,0.3,1.1,1,1.1h1.1v2.6L103.6,100.7z M118.5,100.7h-2.3l-4.4-12h3.1l2.5,7.3l2.4-7.4h3.1L118.5,100.7z
				 M131.5,100.7v-1.1c-0.8,0.8-1.9,1.3-3,1.2c-1,0-2.1-0.3-2.8-1.1c-0.9-0.9-1.3-2.1-1.2-3.4v-7.7h3v7.2c0,1.6,1,2.2,2,2.2
				c0.9,0,2-0.5,2-2.2v-7.2h3v12L131.5,100.7z M141.1,100.7c-1.8,0.1-3.4-1.2-3.5-3c0-0.1,0-0.3,0-0.4v-13h3v12.8
				c0,0.7,0.3,1.1,1.1,1.1h1.2v2.6L141.1,100.7z M152.2,100.7v-7.3c0-1.6-1-2.2-2-2.2s-2,0.6-2,2.2v7.2h-3v-12h2.9v1.1
				c0.8-0.8,1.9-1.2,3-1.2c1,0,2.1,0.3,2.8,1.1c0.9,0.9,1.3,2.1,1.2,3.4v7.7L152.2,100.7z M160.7,95.6c-0.1,1.3,0.9,2.5,2.2,2.7
				c0.1,0,0.3,0,0.4,0c1,0.1,2-0.4,2.7-1.1l1.8,1.8c-1.1,1.3-2.8,2-4.5,1.9c-2.8,0-5.5-1.3-5.5-6.1c0-3.9,2.1-6.1,5.2-6.1
				c3.3,0,5.2,2.4,5.2,5.8v1.3L160.7,95.6z M165,92.3c-0.5-1.1-1.9-1.6-3-1c-0.4,0.2-0.8,0.6-1,1c-0.2,0.4-0.3,0.8-0.3,1.3h4.5
				C165.3,93.1,165.2,92.7,165,92.3L165,92.3z M177.5,92c-0.4-0.5-1-0.7-1.6-0.7c-0.9,0-1.9,0.7-1.9,2.2v7.2h-3v-12h2.9v1.1
				c0.8-0.8,1.9-1.3,3-1.3c1.1-0.1,2.1,0.4,2.8,1.1L177.5,92z M187.3,100.7v-1c-0.8,0.8-1.8,1.2-2.9,1.1c-1.1,0.1-2.2-0.3-3.1-1.1
				c-0.7-0.7-1-1.7-1-2.7c0-1.9,1.3-3.5,4.1-3.5h2.8V93c0-1.3-0.6-1.9-2.2-1.9c-0.9-0.1-1.8,0.3-2.3,1l-1.9-1.9
				c1.2-1.3,2.3-1.7,4.3-1.7c3.4,0,5.1,1.4,5.1,4.2v7.9L187.3,100.7z M187.2,95.6H185c-1.2,0-1.8,0.5-1.8,1.4s0.6,1.4,1.8,1.4
				c0.6,0.1,1.3-0.1,1.8-0.6c0.4-0.4,0.5-1,0.5-1.5V95.6z M202.2,99.8c-0.8,0.7-1.8,1.1-2.9,1.1c-1.1,0.1-2.2-0.4-3-1.3v1.1h-2.9
				V84.3h3v5.4c0.7-0.8,1.8-1.3,2.9-1.2c1.1,0,2.1,0.3,2.9,1.1c1.1,1.2,1.2,3,1.2,5C203.5,96.7,203.4,98.5,202.2,99.8L202.2,99.8z
				 M198.4,91.3c-1.8,0-2,1.5-2,3.4c0,1.9,0.2,3.4,2,3.4c1.8,0,2-1.5,2-3.4S200.3,91.2,198.4,91.3L198.4,91.3z M209.7,100.7
				c-1.8,0.1-3.4-1.2-3.5-3c0-0.1,0-0.3,0-0.4v-13h3v12.8c0,0.7,0.3,1.1,1.1,1.1h1.1v2.6L209.7,100.7z M215.9,95.6
				c-0.1,1.3,0.9,2.5,2.2,2.7c0.1,0,0.3,0,0.4,0c1,0.1,2-0.4,2.7-1.1L223,99c-1.2,1.3-2.8,1.9-4.5,1.8c-2.8,0-5.5-1.3-5.5-6.1
				c0-3.9,2.1-6.1,5.2-6.1c3.3,0,5.2,2.4,5.2,5.8v1.3L215.9,95.6z M220.1,92.3c-0.5-1.1-1.9-1.6-3-1c-0.4,0.2-0.8,0.6-1,1
				c-0.2,0.4-0.3,0.8-0.3,1.3h4.5C220.4,93.1,220.3,92.7,220.1,92.3L220.1,92.3z M43.7,124.9v-7.2c0-1.6-1-2.2-2-2.2s-2,0.6-2,2.2
				v7.2h-3v-16.3h3v5.5c1.6-1.6,4.1-1.7,5.7-0.2c0.9,0.9,1.3,2.1,1.2,3.4v7.7L43.7,124.9z M58.2,123.6c-2.1,2-5.3,2-7.4,0
				c-1.1-1.1-1.4-2.5-1.4-4.7c0-2.2,0.3-3.5,1.4-4.6c2.1-2,5.3-2,7.4,0c1.1,1.1,1.4,2.5,1.4,4.6S59.3,122.4,58.2,123.6z M55.9,116
				c-0.4-0.4-0.9-0.6-1.4-0.5c-0.5,0-1,0.2-1.4,0.5c-0.6,0.6-0.7,1.7-0.7,2.9s0.1,2.3,0.7,2.9c0.4,0.4,0.9,0.5,1.4,0.5
				c0.5,0,1-0.2,1.4-0.5c0.6-0.6,0.7-1.7,0.7-2.9C56.6,117.7,56.5,116.6,55.9,116z M76.3,124.9v-7.2c0-1.6-1-2.2-2-2.2
				c-1.1-0.1-2,0.8-2,1.8c0,0.1,0,0.2,0,0.3v7.3h-3v-7.2c0-1.6-1-2.2-2-2.2c-0.9,0-2,0.6-2,2.2v7.2h-3v-12h2.9v1.1
				c0.8-0.8,1.9-1.2,3-1.2c1.3-0.1,2.5,0.5,3.2,1.5c0.9-1,2.2-1.6,3.6-1.5c1.1,0,2.1,0.3,2.9,1.1c0.9,0.9,1.3,2.1,1.3,3.4v7.7
				L76.3,124.9z M84.8,119.8c-0.1,1.3,0.9,2.5,2.2,2.7c0.1,0,0.3,0,0.4,0c1,0.1,2-0.4,2.7-1.1l1.8,1.8c-1.1,1.3-2.8,2-4.5,1.9
				c-2.8,0-5.5-1.3-5.5-6.1c0-3.9,2.1-6.1,5.2-6.1c3.3,0,5.2,2.4,5.2,5.8v1.3L84.8,119.8z M89.1,116.5c-0.5-1.1-1.9-1.6-3-1
				c-0.4,0.2-0.8,0.6-1,1c-0.2,0.4-0.3,0.8-0.3,1.3h4.5C89.4,117.3,89.3,116.9,89.1,116.5L89.1,116.5z M98.4,124.9
				c-1.8,0.1-3.4-1.2-3.5-3c0-0.1,0-0.3,0-0.4v-12.9h3v12.8c0,0.7,0.3,1.1,1.1,1.1h1.1v2.6L98.4,124.9z M104.6,119.8
				c-0.1,1.3,0.9,2.5,2.2,2.7c0.1,0,0.3,0,0.4,0c1,0.1,2-0.4,2.7-1.1l1.8,1.8c-1.1,1.3-2.8,2-4.5,1.9c-2.8,0-5.5-1.3-5.5-6.1
				c0-3.9,2.1-6.1,5.2-6.1c3.3,0,5.2,2.4,5.2,5.8v1.3L104.6,119.8z M108.9,116.5c-0.5-1.1-1.9-1.6-3-1c-0.4,0.2-0.8,0.6-1,1
				c-0.2,0.4-0.3,0.8-0.3,1.3h4.5C109.2,117.3,109.1,116.9,108.9,116.5L108.9,116.5z M118.8,125c-1.9,0-3.6-0.2-5.1-1.7l2-2
				c0.9,0.8,2,1.2,3.2,1.1c1,0,2.1-0.3,2.1-1.2c0-0.6-0.3-1-1.3-1.1l-1.9-0.2c-2.1-0.2-3.4-1.1-3.4-3.4c0-2.5,2.2-3.8,4.6-3.8
				c1.9,0,3.4,0.3,4.6,1.4l-1.8,1.9c-0.8-0.6-1.8-0.9-2.8-0.8c-1.2,0-1.7,0.5-1.7,1.1s0.3,0.9,1.2,1l1.9,0.2
				c2.4,0.2,3.6,1.5,3.6,3.5C123.9,123.8,121.6,125,118.8,125z M130.2,125c-1.9,0-3.6-0.2-5.1-1.7l2-2c0.9,0.8,2,1.2,3.2,1.1
				c1,0,2.1-0.3,2.1-1.2c0-0.6-0.3-1-1.3-1.1l-1.9-0.2c-2.1-0.2-3.4-1.1-3.4-3.4c0-2.5,2.2-3.8,4.6-3.8c1.9,0,3.4,0.3,4.6,1.4
				l-1.8,1.9c-0.8-0.6-1.8-0.9-2.8-0.8c-1.2,0-1.7,0.5-1.7,1.1s0.3,0.9,1.2,1l1.9,0.2c2.4,0.2,3.6,1.5,3.6,3.5
				C135.3,123.8,133.1,125,130.2,125z M151.9,123.9c-0.8,0.7-1.8,1.1-2.9,1.1c-1.1,0.1-2.2-0.4-2.9-1.2v5.4h-3v-16.3h2.9v1.1
				c0.7-0.9,1.8-1.3,3-1.3c1.1,0,2.1,0.3,2.9,1.1c1.1,1.2,1.2,3,1.2,5C153.2,120.9,153.1,122.8,151.9,123.9L151.9,123.9z
				 M148.2,115.5c-1.8,0-2,1.5-2,3.4s0.2,3.4,2,3.4s2-1.5,2-3.4S149.9,115.5,148.2,115.5L148.2,115.5z M158.4,119.8
				c-0.1,1.3,0.9,2.5,2.2,2.7c0.1,0,0.3,0,0.4,0c1,0.1,2-0.4,2.7-1.1l1.8,1.8c-1.1,1.3-2.8,2-4.5,1.9c-2.8,0-5.5-1.3-5.5-6.1
				c0-3.9,2.1-6.1,5.2-6.1c3.3,0,5.2,2.4,5.2,5.8v1.3L158.4,119.8z M162.6,116.5c-0.5-1.1-1.9-1.6-3-1c-0.4,0.2-0.8,0.6-1,1
				c-0.2,0.4-0.3,0.8-0.3,1.3h4.5C162.9,117.3,162.8,116.9,162.6,116.5L162.6,116.5z M175.1,116.2c-0.4-0.5-1-0.7-1.6-0.7
				c-0.9,0-1.9,0.7-1.9,2.2v7.2h-3v-11.9h2.9v1.1c0.8-0.8,1.9-1.3,3-1.3c1.1-0.1,2.1,0.4,2.8,1.1L175.1,116.2z M182.8,125
				c-1.9,0-3.6-0.2-5.1-1.7l2-2c0.9,0.8,2,1.2,3.2,1.1c1,0,2.1-0.3,2.1-1.2c0-0.6-0.3-1-1.3-1.1l-1.9-0.2c-2.1-0.2-3.4-1.1-3.4-3.4
				c0-2.5,2.2-3.8,4.6-3.8c1.9,0,3.4,0.3,4.6,1.4l-1.9,1.9c-0.8-0.6-1.8-0.9-2.8-0.8c-1.2,0-1.7,0.5-1.7,1.1s0.3,0.9,1.2,1l1.9,0.2
				c2.4,0.2,3.6,1.5,3.6,3.5C187.8,123.8,185.5,125,182.8,125L182.8,125z M198.6,123.5c-1,1-2.3,1.5-3.7,1.5
				c-1.4,0.1-2.7-0.5-3.7-1.5c-1.1-1.1-1.4-2.5-1.4-4.7c0-2.2,0.3-3.5,1.4-4.6c2.1-2,5.3-2,7.4,0c1.1,1.1,1.4,2.5,1.4,4.6
				S199.7,122.4,198.6,123.5L198.6,123.5z M196.3,116c-0.4-0.4-0.9-0.6-1.4-0.5c-0.5,0-1,0.2-1.4,0.5c-0.6,0.6-0.7,1.7-0.7,2.9
				s0.1,2.3,0.7,2.9c0.4,0.4,0.9,0.5,1.4,0.5c0.5,0,1-0.2,1.4-0.5c0.6-0.6,0.7-1.7,0.7-2.9S196.9,116.6,196.3,116L196.3,116z
				 M209.8,124.9v-7.2c0-1.6-1-2.2-2-2.2c-0.9,0-2,0.6-2,2.2v7.2h-3v-12h2.9v1.1c0.8-0.8,1.9-1.2,3-1.2c1,0,2.1,0.3,2.8,1.1
				c0.9,0.9,1.3,2.1,1.2,3.4v7.7L209.8,124.9z M219.9,125c-1.9,0-3.6-0.2-5.1-1.7l2-2c0.9,0.8,2,1.2,3.2,1.1c1,0,2.1-0.3,2.1-1.2
				c0-0.6-0.3-1-1.3-1.1l-1.9-0.2c-2.1-0.2-3.4-1.1-3.4-3.4c0-2.5,2.2-3.8,4.6-3.8c1.9,0,3.4,0.3,4.6,1.4l-1.9,1.9
				c-0.8-0.6-1.8-0.9-2.8-0.8c-1.2,0-1.7,0.5-1.7,1.1s0.3,0.9,1.2,1l1.9,0.2c2.4,0.2,3.6,1.5,3.6,3.5
				C224.9,123.8,222.7,125,219.9,125L219.9,125z M35.8,149.6v-0.6h6.8v0.6H35.8z M46.4,151.7v-6.4h0.7v5.7h3.2v0.6H46.4z
				 M53.9,151.7v-0.4c-0.7,0.6-1.8,0.6-2.5,0.1c-0.2-0.2-0.3-0.6-0.3-0.9c0-0.8,0.5-1.3,1.5-1.3h1.3v-0.4c0-0.6-0.3-1-1.1-1
				c-0.4,0-0.9,0.1-1.1,0.5l-0.4-0.4c0.4-0.5,1-0.7,1.6-0.6c1.2,0,1.8,0.5,1.8,1.5v3L53.9,151.7z M53.9,149.6h-1.2
				c-0.6,0-1,0.3-1,0.8s0.3,0.7,1,0.7c0.4,0,0.7-0.1,1-0.3c0.2-0.2,0.3-0.5,0.2-0.8L53.9,149.6z M58.9,151.7v-0.5
				c-0.3,0.4-0.8,0.6-1.2,0.5c-0.4,0-0.8-0.1-1.1-0.4c-0.3-0.3-0.5-0.8-0.4-1.2v-2.8h0.6v2.7c0,0.8,0.4,1.2,1.1,1.2
				c0.6,0,1.1-0.4,1.1-1c0-0.1,0-0.1,0-0.2v-2.7h0.6v4.4H58.9z M63.6,148.1c-0.2-0.2-0.5-0.3-0.8-0.3c-0.6,0-1.1,0.5-1.1,1.1
				c0,0,0,0.1,0,0.1v2.7h-0.6v-4.4h0.6v0.5c0.3-0.4,0.7-0.6,1.2-0.6c0.4,0,0.8,0.1,1.1,0.4L63.6,148.1z M65,149.6
				c0,1,0.4,1.5,1.3,1.5c0.4,0,0.9-0.2,1.2-0.5l0.4,0.4c-0.4,0.5-1,0.7-1.6,0.7c-1.2,0-1.9-0.7-1.9-2.3c0-1.4,0.7-2.3,1.8-2.3
				s1.8,0.8,1.8,2.1v0.3L65,149.6z M67.2,148.4c-0.3-0.6-0.9-0.8-1.5-0.6c-0.2,0.1-0.4,0.3-0.6,0.6c-0.1,0.2-0.1,0.5-0.1,0.7h2.3
				C67.3,148.9,67.3,148.7,67.2,148.4L67.2,148.4z M72.2,151.7V149c0-0.6-0.5-1.1-1.1-1.1c-0.6,0-1.1,0.5-1.1,1.1v2.7h-0.6v-4.4H70
				v0.5c0.3-0.4,0.8-0.5,1.2-0.5c0.4,0,0.8,0.1,1.1,0.4c0.3,0.3,0.5,0.8,0.5,1.2v2.8H72.2z M78.7,151.7c-0.6,0-1.2-0.2-1.6-0.6
				c-0.6-0.6-0.6-1.1-0.6-2.6c0-1.5,0-2,0.6-2.6c0.4-0.4,1-0.6,1.6-0.6c1.1,0,2.1,0.8,2.2,1.9h-0.7c-0.1-0.8-0.9-1.4-1.8-1.3
				c-0.3,0.1-0.6,0.2-0.8,0.4c-0.4,0.4-0.4,0.9-0.4,2.2s0,1.8,0.4,2.2c0.6,0.6,1.6,0.6,2.2,0c0.2-0.2,0.4-0.5,0.4-0.8h0.7
				C80.8,150.9,79.8,151.8,78.7,151.7L78.7,151.7z M84.8,151.7v-0.4c-0.7,0.6-1.8,0.6-2.5,0.1c-0.2-0.2-0.3-0.6-0.3-0.9
				c0-0.8,0.5-1.3,1.5-1.3h1.3v-0.4c0-0.6-0.3-1-1.1-1c-0.4,0-0.9,0.1-1.1,0.5l-0.4-0.4c0.4-0.5,1-0.7,1.6-0.6
				c1.2,0,1.8,0.5,1.8,1.5v3L84.8,151.7z M84.8,149.6h-1.2c-0.6,0-1,0.3-1,0.8s0.3,0.7,1,0.7c0.4,0,0.7-0.1,1-0.3
				c0.2-0.2,0.3-0.5,0.2-0.8L84.8,149.6z M92.6,151.7V149c0-0.6-0.5-1.1-1.1-1.1c-0.6,0-1.1,0.5-1.1,1.1v2.8h-0.6V149
				c0.1-0.6-0.3-1.1-0.9-1.2c-0.1,0-0.1,0-0.2,0c-0.6,0-1.1,0.4-1.1,1c0,0.1,0,0.1,0,0.2v2.7H87v-4.4h0.6v0.5
				c0.3-0.4,0.8-0.5,1.2-0.5c0.6,0,1.1,0.3,1.3,0.7c0.3-0.5,0.9-0.7,1.4-0.7c0.4,0,0.8,0.1,1.1,0.4c0.3,0.3,0.5,0.8,0.5,1.2v2.8
				H92.6z M97.8,151.3c-0.3,0.3-0.7,0.4-1.1,0.4c-0.5,0-0.9-0.2-1.2-0.6v2.5h-0.6v-6.4h0.6v0.5c0.3-0.4,0.8-0.6,1.2-0.6
				c0.4,0,0.8,0.1,1.1,0.4C98.5,148.7,98.5,150.2,97.8,151.3L97.8,151.3z M96.6,147.8c-1,0-1.1,0.8-1.1,1.7s0.1,1.7,1.1,1.7
				s1.1-0.8,1.1-1.7C97.7,148.6,97.5,147.8,96.6,147.8L96.6,147.8z M99.7,153v-2.1h0.8v1.4L99.7,153z M104.4,151.7v-6.4h3.9v0.6
				h-3.3v2.2h2.8v0.6h-2.8v2.3h3.3v0.6L104.4,151.7z M112.2,153.6v-2.5c-0.3,0.4-0.8,0.6-1.2,0.6c-0.4,0-0.8-0.1-1.1-0.4
				c-0.7-1.1-0.7-2.6,0-3.7c0.3-0.3,0.7-0.4,1.1-0.4c0.5,0,1,0.2,1.3,0.6v-0.5h0.6v6.4L112.2,153.6z M111.1,147.8
				c-1,0-1.1,0.8-1.1,1.7s0.1,1.7,1.1,1.7s1.1-0.8,1.1-1.7S112.1,147.8,111.1,147.8L111.1,147.8z M117.3,151.7v-0.5
				c-0.3,0.4-0.8,0.6-1.3,0.5c-0.4,0-0.8-0.1-1.1-0.4c-0.3-0.3-0.5-0.8-0.4-1.2v-2.8h0.6v2.7c0,0.8,0.4,1.2,1.1,1.2
				c0.6,0,1.1-0.4,1.1-1c0-0.1,0-0.1,0-0.2v-2.7h0.6v4.4H117.3z M122,151.7v-0.4c-0.7,0.6-1.8,0.6-2.5,0.1c-0.2-0.2-0.3-0.6-0.3-0.9
				c0-0.8,0.5-1.3,1.5-1.3h1.3v-0.4c0-0.6-0.3-1-1.1-1c-0.4,0-0.9,0.1-1.1,0.5l-0.4-0.4c0.4-0.5,1-0.7,1.6-0.6
				c1.2,0,1.8,0.5,1.8,1.5v3L122,151.7z M122,149.6h-1.2c-0.6,0-1,0.3-1,0.8s0.3,0.7,1,0.7c0.4,0,0.7-0.1,1-0.3
				c0.2-0.2,0.3-0.5,0.2-0.8L122,149.6z M125.3,151.7c-0.6,0-1.1-0.4-1.1-1c0-0.1,0-0.1,0-0.2v-5.2h0.6v5.2c0,0.4,0.1,0.6,0.6,0.6
				h0.3v0.6L125.3,151.7z M129.9,151.7c-0.5,0-1.1-0.2-1.5-0.6l0.5-0.5c0.2,0.3,0.6,0.4,1,0.4c0.8,0,1.3-0.5,1.3-1.5v-4.3h0.7v4.4
				c0.1,1-0.7,1.9-1.7,2C130.1,151.7,130,151.7,129.9,151.7L129.9,151.7z M136.3,151.7v-0.5c-0.3,0.4-0.8,0.6-1.2,0.5
				c-0.4,0-0.8-0.1-1.1-0.4c-0.3-0.3-0.5-0.8-0.4-1.2v-2.8h0.6v2.7c0,0.8,0.4,1.2,1.1,1.2c0.6,0,1.1-0.4,1.1-1c0-0.1,0-0.1,0-0.2
				v-2.7h0.6v4.4H136.3z M139.9,151.7c-0.7,0-1.3-0.2-1.8-0.6l0.4-0.4c0.4,0.4,0.9,0.5,1.4,0.5c0.7,0,1.2-0.3,1.2-0.8
				c0-0.4-0.2-0.6-0.7-0.6l-0.7-0.1c-0.9-0.1-1.3-0.4-1.3-1.2c0-0.7,0.7-1.3,1.6-1.3c0.6,0,1.1,0.1,1.6,0.5l-0.4,0.4
				c-0.3-0.2-0.8-0.4-1.2-0.3c-0.6,0-1,0.3-1,0.7c0,0.5,0.2,0.6,0.8,0.6l0.7,0.1c0.8,0.1,1.3,0.4,1.3,1.2
				C141.7,151.2,141,151.7,139.9,151.7z M144.1,151.7c-0.6,0-1.1-0.4-1.1-1c0,0,0-0.1,0-0.1v-2.7h-0.6v-0.5h0.6v-1.4h0.6v1.4h0.9
				v0.5h-0.9v2.7c0,0.4,0.2,0.6,0.6,0.6h0.3v0.6L144.1,151.7z M145.8,146v-0.7h0.7v0.7L145.8,146z M145.8,151.7v-4.4h0.6v4.4H145.8z
				 M149.8,151.7c-1.1,0-1.9-0.7-1.9-2.3s0.8-2.3,1.9-2.3c0.6,0,1.1,0.2,1.4,0.6l-0.4,0.4c-0.4-0.6-1.2-0.7-1.8-0.2
				c-0.1,0.1-0.2,0.1-0.2,0.2c-0.4,0.7-0.4,1.6,0,2.4c0.4,0.6,1.2,0.7,1.8,0.2c0.1-0.1,0.2-0.1,0.2-0.2l0.4,0.4
				C150.9,151.5,150.4,151.7,149.8,151.7L149.8,151.7z M152.7,149.6c0,1,0.4,1.5,1.3,1.5c0.4,0,0.9-0.2,1.2-0.5l0.4,0.4
				c-0.4,0.5-1,0.7-1.6,0.7c-1.2,0-1.9-0.7-1.9-2.3c0-1.4,0.7-2.3,1.8-2.3c1.1,0,1.8,0.8,1.8,2.1v0.3H152.7z M154.9,148.4
				c-0.3-0.6-0.9-0.8-1.5-0.6c-0.2,0.1-0.4,0.3-0.6,0.6c-0.1,0.2-0.1,0.5-0.1,0.7h2.3C155.1,148.9,155,148.7,154.9,148.4
				L154.9,148.4z M164.3,151.7h-0.6l-1.4-5.1l-1.4,5.1h-0.6l-1.6-6.4h0.7l1.2,5.1l1.4-5.1h0.6l1.4,5.1l1.2-5.1h0.7L164.3,151.7z
				 M169.4,151.2c-0.7,0.7-1.8,0.7-2.5,0c-0.4-0.5-0.6-1.1-0.5-1.8c-0.1-0.6,0.1-1.3,0.5-1.7c0.7-0.7,1.8-0.7,2.5,0
				c0.4,0.5,0.6,1.1,0.5,1.7C170,150.1,169.8,150.7,169.4,151.2z M168.9,148.1c-0.2-0.2-0.5-0.3-0.8-0.3c-0.3,0-0.6,0.1-0.8,0.3
				c-0.5,0.8-0.5,1.9,0,2.7c0.2,0.2,0.5,0.3,0.8,0.3c0.3,0,0.6-0.1,0.8-0.3C169.4,150,169.4,149,168.9,148.1z M173.8,148.1
				c-0.2-0.2-0.5-0.3-0.8-0.3c-0.6,0-1.1,0.5-1.1,1.1c0,0,0,0.1,0,0.1v2.7h-0.6v-4.4h0.6v0.5c0.3-0.4,0.8-0.6,1.2-0.6
				c0.4,0,0.8,0.1,1.1,0.4L173.8,148.1z M178,151.7l-1.4-2.3l-0.9,1v1.3h-0.6v-6.4h0.6v4.2l2-2.3h0.8l-1.5,1.7l1.7,2.7L178,151.7z
				 M181,151.7c-0.7,0-1.3-0.2-1.8-0.6l0.4-0.4c0.4,0.4,0.9,0.5,1.4,0.5c0.7,0,1.2-0.3,1.2-0.8c0-0.4-0.2-0.6-0.7-0.6l-0.7-0.1
				c-0.9-0.1-1.3-0.4-1.3-1.2c0-0.7,0.6-1.3,1.6-1.3c0.6,0,1.1,0.1,1.6,0.5l-0.4,0.4c-0.3-0.2-0.8-0.4-1.2-0.3c-0.6,0-1,0.3-1,0.7
				c0,0.5,0.2,0.6,0.8,0.6l0.7,0.1c0.8,0.1,1.3,0.4,1.3,1.2C182.7,151.2,182,151.7,181,151.7L181,151.7z M188.7,151.7v-0.4
				c-0.7,0.6-1.8,0.6-2.5,0.1c-0.2-0.2-0.3-0.6-0.3-0.9c0-0.8,0.5-1.3,1.5-1.3h1.3v-0.4c0-0.6-0.3-1-1.1-1c-0.4,0-0.9,0.1-1.1,0.5
				l-0.4-0.4c0.4-0.5,1-0.7,1.6-0.6c1.2,0,1.8,0.5,1.8,1.5v3L188.7,151.7z M188.7,149.6h-1.2c-0.6,0-1,0.3-1,0.8s0.3,0.7,1,0.7
				c0.4,0,0.7-0.1,1-0.3c0.2-0.2,0.3-0.5,0.2-0.8L188.7,149.6z M192.2,151.7c-0.6,0-1.1-0.4-1.1-1c0-0.1,0-0.1,0-0.2v-2.7h-0.5v-0.5
				h0.5v-1.4h0.6v1.4h0.9v0.5h-0.9v2.7c0,0.4,0.2,0.6,0.6,0.6h0.3v0.6L192.2,151.7z M196.2,151.7v-6.4h0.7v6.4H196.2z M201.4,151.2
				c-0.3,0.3-0.8,0.5-1.3,0.5c-0.5,0-0.9-0.2-1.3-0.5c-0.4-0.5-0.6-1.1-0.5-1.8c-0.1-0.6,0.1-1.3,0.5-1.7c0.3-0.3,0.8-0.5,1.3-0.5
				c0.5,0,0.9,0.2,1.3,0.5c0.4,0.5,0.6,1.1,0.5,1.7C202,150.1,201.9,150.7,201.4,151.2z M201,148.1c-0.2-0.2-0.5-0.3-0.8-0.3
				c-0.3,0-0.6,0.1-0.8,0.3c-0.3,0.4-0.4,0.9-0.4,1.4c-0.1,0.5,0.1,1,0.4,1.4c0.2,0.2,0.5,0.3,0.8,0.3c0.3,0,0.6-0.1,0.8-0.3
				C201.5,150,201.5,149,201,148.1L201,148.1z M207.5,151.7h-0.6l-1.1-3.4l-1.1,3.4H204l-1.4-4.4h0.7l1,3.5l1.1-3.5h0.6l1.2,3.5
				l1-3.5h0.7L207.5,151.7z M212.2,151.7v-0.4c-0.7,0.6-1.8,0.6-2.5,0.1c-0.2-0.2-0.3-0.6-0.3-0.9c0-0.8,0.5-1.3,1.5-1.3h1.3v-0.4
				c0-0.6-0.3-1-1.1-1c-0.4,0-0.9,0.1-1.1,0.5l-0.4-0.4c0.4-0.5,1-0.7,1.6-0.6c1.2,0,1.8,0.5,1.8,1.5v3L212.2,151.7z M212.2,149.6
				H211c-0.6,0-1,0.3-1,0.8s0.3,0.7,1,0.7c0.4,0,0.7-0.1,1-0.3c0.2-0.2,0.3-0.5,0.2-0.8V149.6z M216.7,151.7v-6.4h0.7v5.7h3.3v0.6
				H216.7z M222.1,149.6c0,1,0.4,1.5,1.3,1.5c0.4,0,0.9-0.2,1.1-0.5l0.4,0.4c-0.4,0.5-1,0.7-1.6,0.7c-1.2,0-1.9-0.7-1.9-2.3
				c0-1.4,0.7-2.3,1.8-2.3c1.1,0,1.8,0.8,1.8,2.1v0.3H222.1z M224.3,148.4c-0.2-0.4-0.6-0.6-1-0.6c-0.4,0-0.8,0.2-1,0.6
				c-0.1,0.2-0.1,0.5-0.1,0.7h2.4C224.5,148.9,224.4,148.7,224.3,148.4L224.3,148.4z M227.9,153.7c-0.6,0-1.1-0.2-1.5-0.6l0.4-0.4
				c0.3,0.3,0.7,0.5,1.1,0.4c0.8,0,1.2-0.6,1.2-1.3v-0.7c-0.3,0.4-0.8,0.6-1.2,0.6c-0.4,0-0.8-0.1-1.1-0.4c-0.7-1.1-0.7-2.5,0-3.7
				c0.3-0.3,0.7-0.4,1.1-0.4c0.5,0,1,0.2,1.2,0.6v-0.5h0.6v4.5c0.1,1-0.6,1.8-1.6,1.9C228.1,153.7,228,153.7,227.9,153.7
				L227.9,153.7z M228,147.8c-1,0-1.1,0.8-1.1,1.6s0.1,1.6,1.1,1.6c1,0,1.1-0.8,1.1-1.6S228.9,147.8,228,147.8L228,147.8z
				 M233.8,151.7v-0.4c-0.7,0.6-1.8,0.6-2.5,0.1c-0.2-0.2-0.3-0.6-0.3-0.9c0-0.8,0.5-1.3,1.5-1.3h1.3v-0.4c0-0.6-0.3-1-1.1-1
				c-0.4,0-0.9,0.1-1.1,0.5l-0.4-0.4c0.4-0.5,1-0.7,1.5-0.6c1.2,0,1.8,0.5,1.8,1.5v3L233.8,151.7z M233.8,149.6h-1.2
				c-0.6,0-1,0.3-1,0.8s0.3,0.7,1,0.7c0.3,0,0.7-0.1,1-0.3c0.2-0.2,0.3-0.5,0.2-0.8L233.8,149.6z M237.1,151.7c-0.6,0-1.1-0.4-1.1-1
				c0-0.1,0-0.1,0-0.2v-5.2h0.6v5.2c0,0.4,0.1,0.6,0.6,0.6h0.3v0.6L237.1,151.7z M244.7,151.7l-0.5-1.4h-2.8l-0.5,1.4h-0.7l2.3-6.4
				h0.6l2.3,6.4H244.7z M242.8,146.3l-1.2,3.4h2.4L242.8,146.3z M246.2,146v-0.7h0.7v0.7L246.2,146z M246.3,151.7v-4.4h0.6v4.4
				H246.3z M251.2,151.7v-0.5c-0.3,0.4-0.8,0.6-1.3,0.6c-0.4,0-0.8-0.1-1.1-0.4c-0.7-1.1-0.7-2.6,0-3.7c0.3-0.3,0.7-0.4,1.1-0.4
				c0.5,0,1,0.2,1.3,0.6v-2.5h0.6v6.4L251.2,151.7z M250.1,147.8c-1,0-1.1,0.8-1.1,1.7s0.1,1.7,1.1,1.7s1.1-0.8,1.1-1.7
				C251.1,148.6,251,147.8,250.1,147.8L250.1,147.8z M29.7,296.7v-17.5l-4.5,3.9v-4.3l4.5-3.9h4v21.8L29.7,296.7z M48,278v-3.2h4.1
				v3.2H48z M48.1,296.7v-15.5h4v15.5H48.1z M65.8,296.7V287c0-2.2-1.4-2.9-2.6-2.9c-1.3,0-2.7,0.7-2.7,2.9v9.6h-4v-15.9h3.9v1.5
				c1-1.1,2.5-1.7,4-1.7c1.4-0.1,2.7,0.5,3.8,1.4c1.3,1.3,1.6,2.8,1.6,4.5v10.2L65.8,296.7z M92.1,295.1c-1.3,1.2-3,1.9-4.8,1.8
				c-1.8,0.1-3.5-0.5-4.9-1.7c-1.3-1.3-1.7-2.9-1.8-4.5h4c0.2,1.7,1,2.7,2.7,2.7c0.7,0,1.4-0.2,1.9-0.7c0.7-0.7,0.9-1.9,0.9-3.2
				c0-2.5-0.7-3.9-2.7-3.9c-1.2-0.1-2.3,0.6-2.6,1.8h-3.6v-12.3h12.4v3.6h-8.8v4.7c0.9-0.7,2.1-1.1,3.3-1.1c1.5-0.1,3,0.5,4.1,1.5
				c1.7,1.7,2,3.8,2,5.8C94,291.8,93.7,293.5,92.1,295.1L92.1,295.1z M11.9,310.7v-3.9c0.1-0.7-0.4-1.3-1.1-1.4c-0.1,0-0.1,0-0.2,0
				c-0.7,0-1.3,0.5-1.3,1.2c0,0.1,0,0.2,0,0.2v3.9H8v-9.1h1.3v3.3c0.4-0.5,1.1-0.7,1.7-0.7c0.6,0,1.2,0.2,1.6,0.6
				c0.5,0.5,0.7,1.2,0.6,1.8v4.1L11.9,310.7z M19.6,310c-0.5,0.5-1.2,0.8-1.9,0.8c-0.7,0-1.4-0.3-1.9-0.8c-0.6-0.6-0.8-1.5-0.8-2.6
				c-0.1-0.9,0.2-1.8,0.8-2.6c0.5-0.5,1.2-0.8,1.9-0.8c0.7,0,1.4,0.3,1.9,0.8c0.6,0.7,0.9,1.6,0.8,2.6
				C20.3,308.5,20.1,309.4,19.6,310L19.6,310z M18.6,305.7c-0.3-0.2-0.6-0.4-1-0.4c-0.4,0-0.7,0.1-0.9,0.4c-0.6,1.1-0.6,2.4,0,3.5
				c0.2,0.3,0.6,0.4,0.9,0.4c0.4,0,0.7-0.1,1-0.4C19.2,308.1,19.2,306.8,18.6,305.7z M30,310.7v-3.9c0.1-0.7-0.4-1.3-1.1-1.4
				c-0.1,0-0.1,0-0.2,0c-0.7,0-1.3,0.5-1.3,1.2c0,0.1,0,0.1,0,0.2v4h-1.3v-3.9c0.1-0.7-0.4-1.3-1.1-1.4c-0.1,0-0.1,0-0.2,0
				c-0.7,0-1.3,0.5-1.3,1.2c0,0.1,0,0.2,0,0.2v3.9h-1.3v-6.5h1.3v0.6c0.4-0.5,1.1-0.7,1.7-0.7c0.7,0,1.4,0.3,1.8,0.9
				c0.5-0.6,1.2-1,2-0.9c0.6,0,1.2,0.2,1.6,0.6c0.4,0.5,0.7,1.2,0.6,1.9v4.1H30z M34.2,307.8c0,1.1,0.6,1.8,1.6,1.8
				c0.6,0,1.2-0.2,1.6-0.6l0.8,0.8c-0.6,0.7-1.5,1.1-2.4,1c-1.6,0-2.9-0.9-2.9-3.3c0-2.1,1.1-3.3,2.7-3.3c1.7,0,2.7,1.3,2.7,3.1v0.5
				L34.2,307.8z M37,306c-0.3-0.7-1.2-1-1.9-0.7c-0.3,0.1-0.5,0.4-0.7,0.7c-0.1,0.3-0.2,0.6-0.2,0.9h2.9
				C37.1,306.6,37.1,306.3,37,306L37,306z M41.9,310.7c-0.9,0.1-1.7-0.6-1.8-1.5c0-0.1,0-0.2,0-0.3v-7.3h1.3v7.2
				c0,0.5,0.2,0.8,0.7,0.8h0.6v1.1L41.9,310.7z M44.9,307.8c0,1.1,0.6,1.8,1.6,1.8c0.6,0,1.2-0.2,1.6-0.6l0.8,0.8
				c-0.6,0.7-1.5,1.1-2.4,1c-1.6,0-2.9-0.9-2.9-3.3c0-2.1,1.1-3.3,2.7-3.3s2.7,1.3,2.7,3.1v0.5L44.9,307.8z M47.7,306
				c-0.3-0.7-1.2-1-1.9-0.7c-0.3,0.1-0.5,0.4-0.7,0.7c-0.1,0.3-0.2,0.6-0.2,0.9h2.9C47.8,306.6,47.8,306.3,47.7,306L47.7,306z
				 M53,310.8c-1,0.1-2-0.3-2.7-0.9l0.9-0.9c0.5,0.5,1.2,0.7,1.8,0.7c0.8,0,1.4-0.3,1.4-0.9c0-0.4-0.2-0.7-0.9-0.8l-1-0.1
				c-1.2-0.1-1.9-0.6-1.9-1.8c0-1.3,1.1-2,2.4-2c0.9-0.1,1.7,0.2,2.4,0.7l-0.8,0.8c-0.5-0.3-1-0.5-1.6-0.5c-0.8,0-1.2,0.3-1.2,0.8
				s0.3,0.7,0.9,0.7l0.9,0.1c1.3,0.1,2,0.7,2,1.8C55.6,310.1,54.5,310.8,53,310.8L53,310.8z M59.3,310.8c-1,0.1-2-0.3-2.7-0.9
				l0.8-0.9c0.5,0.5,1.2,0.7,1.9,0.7c0.8,0,1.4-0.3,1.4-0.9c0-0.4-0.2-0.7-0.9-0.8l-1-0.1c-1.2-0.1-1.9-0.6-1.9-1.8
				c0-1.3,1.1-2,2.4-2c0.9-0.1,1.7,0.2,2.4,0.7l-0.8,0.8c-0.5-0.3-1-0.5-1.6-0.5c-0.8,0-1.2,0.3-1.2,0.8s0.3,0.7,0.9,0.7l0.9,0.1
				c1.3,0.1,2,0.7,2,1.8C61.9,310.1,60.8,310.8,59.3,310.8L59.3,310.8z M68.6,312c-0.1,0.3-0.3,0.6-0.5,0.8
				c-0.4,0.3-0.8,0.5-1.3,0.5h-0.5v-1.2h0.3c0.5,0,0.7-0.2,0.9-0.7l0.4-1l-2.3-6.2H67l1.5,4.6l1.5-4.6h1.4L68.6,312z M76.8,310
				c-0.5,0.5-1.2,0.8-1.9,0.8c-0.7,0-1.4-0.3-1.9-0.8c-0.6-0.6-0.8-1.5-0.8-2.6c-0.1-0.9,0.2-1.8,0.8-2.6c0.5-0.5,1.2-0.8,1.9-0.8
				c0.7,0,1.4,0.3,1.9,0.8c0.6,0.7,0.9,1.6,0.8,2.6C77.5,308.5,77.4,309.4,76.8,310L76.8,310z M75.8,305.7c-0.3-0.2-0.6-0.4-1-0.4
				c-0.4,0-0.7,0.1-0.9,0.4c-0.6,1.1-0.6,2.4,0,3.5c0.2,0.3,0.6,0.4,0.9,0.4c0.4,0,0.7-0.1,1-0.4C76.4,308.1,76.4,306.8,75.8,305.7z
				 M83.2,310.7v-0.6c-0.4,0.5-1.1,0.7-1.7,0.7c-0.6,0-1.2-0.2-1.6-0.6c-0.5-0.5-0.7-1.2-0.6-1.8v-4.2h1.3v3.9
				c-0.1,0.7,0.4,1.3,1.1,1.4c0.1,0,0.1,0,0.2,0c0.7,0,1.3-0.5,1.3-1.2c0-0.1,0-0.2,0-0.2v-3.9h1.3v6.5L83.2,310.7z M88.5,310.7
				c-0.9,0.1-1.7-0.7-1.8-1.6c0-0.1,0-0.1,0-0.2v-3.7H86v-1h0.7v-1.8H88v1.8h1.3v1H88v3.6c-0.1,0.3,0.2,0.7,0.5,0.7
				c0.1,0,0.1,0,0.2,0h0.5v1.1L88.5,310.7z M94.8,310.7v-3.9c0.1-0.7-0.4-1.3-1.1-1.4c-0.1,0-0.1,0-0.2,0c-0.7,0-1.3,0.5-1.3,1.2
				c0,0.1,0,0.2,0,0.2v3.9H91v-9.1h1.3v3.3c0.4-0.5,1.1-0.7,1.7-0.7c0.6,0,1.2,0.2,1.6,0.6c0.5,0.5,0.7,1.2,0.6,1.8v4.1H94.8z
				 M101.1,302.9v-1.4h1.4v1.4H101.1z M101.2,310.7v-6.5h1.3v6.5H101.2z M108.5,310.7v-3.9c0.1-0.7-0.4-1.3-1.1-1.4
				c-0.1,0-0.1,0-0.2,0c-0.7,0-1.3,0.5-1.4,1.2c0,0.1,0,0.2,0,0.3v3.9h-1.3v-6.5h1.3v0.6c0.4-0.5,1.1-0.7,1.7-0.7
				c0.6,0,1.2,0.2,1.6,0.6c0.5,0.5,0.7,1.2,0.6,1.8v4.1L108.5,310.7z M3,324.7c-0.9,0.1-1.7-0.7-1.8-1.6c0-0.1,0-0.1,0-0.2v-3.7H0.5
				v-1h0.7v-1.8h1.3v1.8h1.3v1H2.6v3.6c-0.1,0.3,0.2,0.7,0.5,0.7c0.1,0,0.1,0,0.2,0h0.5v1.1L3,324.7z M9.4,324.7v-3.9
				c0.1-0.7-0.4-1.3-1.1-1.4c-0.1,0-0.1,0-0.2,0c-0.7,0-1.3,0.5-1.3,1.2c0,0.1,0,0.2,0,0.2v3.9H5.5v-9.1h1.3v3.3
				c0.4-0.5,1.1-0.7,1.7-0.7c0.6,0,1.2,0.2,1.6,0.6c0.5,0.5,0.7,1.2,0.6,1.8v4.1H9.4z M13.6,321.9c0,1.1,0.6,1.8,1.6,1.8
				c0.6,0,1.2-0.2,1.6-0.6l0.8,0.8c-0.6,0.7-1.5,1.1-2.4,1c-1.6,0-2.9-0.9-2.9-3.3c0-2.1,1.1-3.3,2.7-3.3s2.7,1.3,2.7,3.1v0.5
				L13.6,321.9z M16.4,320.1c-0.3-0.7-1.2-1-1.9-0.7c-0.3,0.1-0.5,0.4-0.7,0.7c-0.1,0.3-0.2,0.6-0.2,0.9h2.9
				C16.6,320.7,16.5,320.4,16.4,320.1z M25.9,324.8c-1.7,0.1-3.2-1.2-3.2-2.9c0-0.1,0-0.2,0-0.2v-6H24v6c-0.2,1,0.5,2,1.5,2.2
				c1,0.2,2-0.5,2.2-1.5c0-0.2,0-0.5,0-0.7v-6h1.4v6c0,1.7-1.3,3.1-3,3.1C26,324.8,26,324.8,25.9,324.8z M33.8,324.8
				c-1.2,0.1-2.3-0.4-3.2-1.2l0.9-0.9c0.6,0.6,1.5,0.9,2.3,0.9c1.2,0,1.9-0.5,1.9-1.4c0-0.4-0.1-0.7-0.4-0.9c-0.3-0.2-0.6-0.4-1-0.4
				l-1.1-0.2c-0.6-0.1-1.2-0.3-1.7-0.7c-0.5-0.5-0.7-1.1-0.7-1.7c0-1.6,1.1-2.7,3-2.7c1-0.1,2.1,0.3,2.8,1l-0.9,0.9
				c-0.5-0.5-1.3-0.7-2-0.7c-1.1,0-1.6,0.6-1.6,1.4c0,0.3,0.1,0.6,0.3,0.8c0.3,0.2,0.6,0.4,1,0.4l1.1,0.2c0.6,0,1.2,0.3,1.7,0.7
				c0.5,0.5,0.8,1.2,0.7,1.9C37.1,323.8,35.7,324.8,33.8,324.8L33.8,324.8z M45.3,324.7v-0.6c-0.4,0.5-1.1,0.7-1.7,0.6
				c-0.6,0.1-1.3-0.2-1.7-0.6c-0.3-0.4-0.5-0.9-0.5-1.4c0-1.1,0.8-1.9,2.2-1.9h1.7v-0.5c0-0.8-0.4-1.2-1.4-1.2
				c-0.6-0.1-1.1,0.2-1.4,0.6l-0.8-0.8c0.6-0.7,1.4-1,2.3-0.9c1.8,0,2.7,0.8,2.7,2.2v4.3L45.3,324.7z M45.3,321.9h-1.5
				c-0.8,0-1.2,0.3-1.2,0.9c0,0.6,0.4,0.9,1.2,0.9c0.4,0,0.8-0.1,1.2-0.4c0.2-0.3,0.3-0.6,0.3-1L45.3,321.9z M52.1,319.8
				c-0.2-0.3-0.6-0.4-1-0.4c-0.7,0-1.3,0.6-1.3,1.4c0,0,0,0,0,0.1v3.9h-1.3v-6.5h1.3v0.7c0.4-0.5,1.1-0.8,1.7-0.8
				c0.6,0,1.1,0.2,1.5,0.6L52.1,319.8z M54.7,321.9c0,1.1,0.6,1.8,1.6,1.8c0.6,0,1.2-0.2,1.6-0.6l0.8,0.8c-0.6,0.7-1.5,1.1-2.4,1
				c-1.6,0-2.9-0.9-2.9-3.3c0-2.1,1.1-3.3,2.7-3.3c1.7,0,2.7,1.3,2.7,3.1v0.5L54.7,321.9z M57.5,320.1c-0.3-0.7-1.2-1-1.9-0.7
				c-0.3,0.1-0.5,0.4-0.7,0.7c-0.1,0.3-0.2,0.6-0.2,0.9h2.9C57.7,320.7,57.6,320.4,57.5,320.1z M66.2,324.7h-1.1l-2.4-6.5h1.4
				l1.5,4.6l1.5-4.6h1.4L66.2,324.7z M69.7,317v-1.4h1.4v1.4H69.7z M69.7,324.7v-6.5H71v6.5H69.7z M75.6,324.8
				c-1.5,0-2.9-0.9-2.9-3.3s1.4-3.3,2.9-3.3c0.8,0,1.6,0.3,2.1,0.9l-0.9,0.9c-0.3-0.4-0.7-0.6-1.2-0.6c-0.5,0-0.9,0.2-1.2,0.6
				c-0.3,0.5-0.4,1-0.4,1.6c-0.1,0.6,0.1,1.1,0.4,1.6c0.3,0.4,0.7,0.6,1.2,0.6c0.5,0,1-0.2,1.2-0.6l0.9,0.9
				C77.3,324.4,76.5,324.8,75.6,324.8L75.6,324.8z M81.2,324.7c-0.9,0.1-1.7-0.7-1.8-1.6c0-0.1,0-0.1,0-0.2v-3.7h-0.7v-1h0.7v-1.8
				h1.3v1.8H82v1h-1.3v3.6c-0.1,0.3,0.2,0.7,0.5,0.7c0.1,0,0.1,0,0.2,0H82v1.1H81.2z M83.6,317v-1.4H85v1.4H83.6z M83.6,324.7v-6.5
				h1.3v6.5H83.6z M94.9,324.7v-3.9c0.1-0.7-0.4-1.3-1.1-1.4c-0.1,0-0.1,0-0.2,0c-0.7,0-1.3,0.5-1.3,1.2c0,0.1,0,0.1,0,0.2v4H91
				v-3.9c0.1-0.7-0.4-1.3-1.1-1.4c-0.1,0-0.1,0-0.2,0c-0.7,0-1.3,0.5-1.3,1.2c0,0.1,0,0.2,0,0.2v3.9h-1.3v-6.5h1.3v0.6
				c0.4-0.5,1.1-0.7,1.7-0.7c0.7,0,1.4,0.3,1.8,0.9c0.5-0.6,1.2-1,2-0.9c0.6,0,1.2,0.2,1.6,0.6c0.5,0.5,0.7,1.1,0.7,1.8v4.1
				L94.9,324.7z M100.3,324.8c-1,0.1-2-0.3-2.7-0.9l0.9-0.9c0.5,0.5,1.2,0.7,1.9,0.7c0.8,0,1.4-0.3,1.4-0.9c0-0.4-0.2-0.7-0.9-0.8
				l-1-0.1c-1.2-0.1-1.9-0.6-1.9-1.8c0-1.3,1.1-2,2.4-2c0.9-0.1,1.7,0.2,2.4,0.7l-0.8,0.8c-0.5-0.3-1-0.5-1.6-0.5
				c-0.8,0-1.2,0.3-1.2,0.8s0.3,0.7,0.9,0.7l0.9,0.1c1.3,0.1,2,0.7,2,1.8C103,324.1,101.8,324.8,100.3,324.8L100.3,324.8z
				 M111.9,324c-0.5,0.5-1.2,0.8-1.9,0.8c-0.7,0-1.4-0.3-1.9-0.8c-0.6-0.6-0.8-1.5-0.8-2.6c-0.1-0.9,0.2-1.8,0.8-2.6
				c0.5-0.5,1.2-0.8,1.9-0.8c0.7,0,1.4,0.3,1.9,0.8c0.6,0.7,0.9,1.6,0.8,2.6C112.7,322.6,112.6,323.4,111.9,324L111.9,324z
				 M111,319.7c-0.3-0.2-0.6-0.4-1-0.4c-0.4,0-0.7,0.1-0.9,0.4c-0.6,1.1-0.6,2.4,0,3.5c0.2,0.3,0.6,0.4,0.9,0.4c0.4,0,0.7-0.1,1-0.4
				C111.6,322.1,111.6,320.8,111,319.7z M116,319.2v5.5h-1.3v-5.5H114v-1h0.7v-0.9c-0.1-0.9,0.6-1.7,1.6-1.8c0.1,0,0.1,0,0.2,0h0.8
				v1.1h-0.6c-0.3,0-0.7,0.2-0.7,0.5c0,0.1,0,0.1,0,0.2v0.8h1.3v1L116,319.2z M32.2,338.7c-0.9,0.1-1.7-0.7-1.8-1.6
				c0-0.1,0-0.1,0-0.2v-3.7h-0.7v-1h0.7v-1.8h1.3v1.8H33v1h-1.3v3.6c-0.1,0.3,0.2,0.7,0.5,0.7c0.1,0,0.1,0,0.2,0H33v1.1L32.2,338.7z
				 M38.2,333.8c-0.2-0.3-0.6-0.4-1-0.4c-0.7,0-1.3,0.6-1.3,1.4c0,0,0,0,0,0.1v3.9h-1.3v-6.5H36v0.7c0.4-0.5,1.1-0.8,1.7-0.8
				c0.6,0,1.1,0.2,1.5,0.6L38.2,333.8z M43.6,338.7v-0.6c-0.4,0.5-1.1,0.7-1.7,0.6c-0.6,0.1-1.3-0.2-1.7-0.6
				c-0.3-0.4-0.5-0.9-0.5-1.4c0-1.1,0.8-1.9,2.2-1.9h1.7v-0.5c0-0.8-0.4-1.2-1.4-1.2c-0.6-0.1-1.1,0.2-1.4,0.6l-0.8-0.8
				c0.6-0.7,1.4-1,2.3-0.9c1.8,0,2.7,0.8,2.7,2.2v4.3L43.6,338.7z M43.6,335.9h-1.5c-0.8,0-1.2,0.3-1.2,0.9s0.4,0.9,1.2,0.9
				c0.4,0,0.8-0.1,1.2-0.4c0.2-0.3,0.3-0.6,0.3-1L43.6,335.9z M48.4,333.3v5.5h-1.3v-5.5h-0.8v-1h0.7v-0.9c-0.1-0.9,0.6-1.7,1.6-1.8
				c0.1,0,0.1,0,0.2,0h0.8v1.1h-0.6c-0.3,0-0.7,0.2-0.7,0.5c0,0.1,0,0.1,0,0.2v0.8h1.3v1L48.4,333.3z M52.6,333.3v5.5h-1.3v-5.5
				h-0.8v-1h0.7v-0.9c-0.1-0.9,0.6-1.7,1.6-1.8c0.1,0,0.1,0,0.2,0h0.8v1.1h-0.6c-0.3,0-0.7,0.2-0.7,0.5c0,0.1,0,0.1,0,0.2v0.8h1.3v1
				L52.6,333.3z M55.2,331v-1.4h1.4v1.4H55.2z M55.3,338.7v-6.5h1.3v6.5H55.3z M61.2,338.8c-1.5,0-2.9-0.9-2.9-3.3
				c0-2.4,1.4-3.3,2.9-3.3c0.8,0,1.6,0.3,2.1,0.9l-0.9,0.9c-0.3-0.4-0.7-0.6-1.2-0.6c-0.5,0-0.9,0.2-1.2,0.6c-0.3,0.5-0.4,1-0.4,1.6
				c-0.1,0.6,0.1,1.1,0.4,1.6c0.3,0.4,0.7,0.6,1.2,0.6c0.5,0,1-0.2,1.2-0.6l0.9,0.9C62.8,338.5,62,338.8,61.2,338.8L61.2,338.8z
				 M68.9,338.7l-1.8-3l-1,1.1v1.9h-1.3v-9.1h1.3v5.6l2.5-3h1.6l-2.2,2.6l2.6,3.9L68.9,338.7z M71.8,331v-1.4h1.4v1.4H71.8z
				 M71.8,338.7v-6.5h1.3v6.5H71.8z M79.1,338.7v-3.9c0.1-0.7-0.4-1.3-1.1-1.4c-0.1,0-0.1,0-0.2,0c-0.7,0-1.3,0.5-1.3,1.2
				c0,0.1,0,0.2,0,0.2v3.9h-1.3v-6.5h1.3v0.6c0.4-0.5,1.1-0.7,1.7-0.7c0.6,0,1.2,0.2,1.6,0.6c0.5,0.5,0.7,1.2,0.6,1.8v4.1
				L79.1,338.7z M84.6,341.4c-0.8,0.1-1.7-0.3-2.3-0.9l0.8-0.8c0.4,0.4,0.9,0.6,1.4,0.6c0.8,0,1.5-0.6,1.5-1.4c0-0.1,0-0.2,0-0.3
				v-0.8c-0.4,0.5-1,0.8-1.7,0.7c-0.6,0-1.1-0.2-1.5-0.6c-0.6-0.6-0.7-1.5-0.7-2.6s0.1-2,0.7-2.6c0.4-0.4,1-0.6,1.6-0.6
				c0.7,0,1.3,0.2,1.7,0.8v-0.7h1.3v6.4c0.1,1.4-1,2.7-2.4,2.8C84.8,341.4,84.7,341.4,84.6,341.4L84.6,341.4z M84.7,333.3
				c-1.2,0-1.3,1-1.3,2s0.2,2,1.3,2c1.2,0,1.3-1,1.3-2S85.9,333.4,84.7,333.3L84.7,333.3z M21.1,232.5c0-1.5,0.1-3.1-0.6-4.5
				c-0.7-1.6-2.3-2.2-4-2.5c-1.4-0.2-2.8-0.2-4.3-0.2H7.5c-2,0-4.5,0.1-6,1.5c-1.8,1.7-1.4,4.6-1.4,6.8v7c0,0.9-0.2,2.1,0.4,2.9
				c0.7,0.8,1.9,0.9,2.7,0.3c0.1-0.1,0.3-0.2,0.4-0.4c0.3-0.4,0.4-0.9,0.3-1.4v-10.1c0-0.3,0-0.6,0.1-0.9c0.2-0.3,0.7-0.4,1-0.2
				c0.2,0.1,0.3,0.4,0.3,0.6v33.2c0,2.4,3.6,2.9,4.3,0.6c0.1-0.7,0.1-1.3,0.1-2v-16.7c0-0.8-0.1-2.2,1.2-1.8c0.9,0.3,0.7,1.3,0.7,2
				v16.8c0,0.8-0.1,1.6,0.3,2.3c0.6,1,2,1.3,3,0.7c0.6-0.4,1-1.1,1-1.8v-33.2c0-0.4,0.3-0.7,0.7-0.7c0.4,0,0.7,0.3,0.7,0.7
				c0,0.2,0,0.4,0,0.6v10.1c0,0.6,0.2,1.2,0.7,1.7c0.8,0.7,2,0.5,2.7-0.3c0.1-0.1,0.2-0.3,0.3-0.5c0.3-0.8,0.1-1.9,0.1-2.8v-6.8
				C21.1,233.2,21.1,232.9,21.1,232.5 M15,219.7c0,2.5-2,4.5-4.5,4.5s-4.5-2-4.5-4.5c0-2.5,2-4.5,4.5-4.5l0,0
				C13,215.2,15,217.2,15,219.7 M231.7,229.8l-4.2-6.4v6.4h-1.4v-9.1h1.3l4.2,6.4v-6.4h1.4v9.1L231.7,229.8z M236.1,226.9
				c0,1.1,0.6,1.8,1.6,1.8c0.6,0,1.2-0.2,1.6-0.6l0.8,0.8c-0.6,0.7-1.5,1.1-2.4,1c-1.6,0-2.9-0.9-2.9-3.3c0-2.1,1.1-3.3,2.7-3.3
				s2.7,1.3,2.7,3.1v0.5L236.1,226.9z M238.9,225.1c-0.3-0.7-1.2-1-1.9-0.7c-0.3,0.1-0.5,0.4-0.7,0.7c-0.1,0.3-0.2,0.6-0.2,0.9h2.9
				C239.1,225.7,239,225.4,238.9,225.1L238.9,225.1z M245.5,229.8v-0.6c-0.4,0.5-1.1,0.7-1.7,0.6c-0.6,0.1-1.3-0.2-1.7-0.6
				c-0.3-0.4-0.5-0.9-0.5-1.4c0-1.1,0.8-1.9,2.2-1.9h1.7v-0.5c0-0.8-0.4-1.2-1.4-1.2c-0.6-0.1-1.1,0.2-1.4,0.6l-0.8-0.8
				c0.6-0.7,1.4-1,2.3-0.9c1.8,0,2.7,0.8,2.7,2.2v4.3L245.5,229.8z M245.5,226.9H244c-0.8,0-1.2,0.3-1.2,0.9c0,0.6,0.4,0.9,1.2,0.9
				c0.4,0,0.9-0.1,1.2-0.4c0.2-0.3,0.3-0.6,0.3-1L245.5,226.9z M252.4,224.8c-0.2-0.3-0.6-0.4-1-0.4c-0.7,0-1.3,0.6-1.3,1.4
				c0,0,0,0,0,0.1v3.9h-1.3v-6.5h1.3v0.7c0.4-0.5,1.1-0.8,1.7-0.8c0.6,0,1.2,0.2,1.5,0.6L252.4,224.8z M256.2,229.8
				c-0.9,0.1-1.7-0.6-1.8-1.5c0-0.1,0-0.2,0-0.3v-7.3h1.3v7.2c0,0.5,0.2,0.8,0.7,0.8h0.6v1.1L256.2,229.8z M260.1,231
				c-0.1,0.3-0.3,0.6-0.5,0.8c-0.4,0.3-0.8,0.5-1.3,0.5h-0.5v-1.2h0.3c0.5,0,0.7-0.2,0.9-0.7l0.4-1l-2.3-6.2h1.4l1.5,4.6l1.5-4.6
				h1.4L260.1,231z M217.5,261.6v-9.1h-7.4v9.1h-4.3v-21.8h4.3v8.9h7.4v-8.9h4.3v21.8H217.5z M234.8,261.6v-1.4
				c-1,1.1-2.4,1.6-3.9,1.5c-1.5,0.1-3-0.4-4.1-1.4c-0.9-1-1.4-2.3-1.3-3.6c0-2.6,1.7-4.6,5.5-4.6h3.7v-0.8c0-1.7-0.9-2.5-3-2.5
				c-1.2-0.1-2.3,0.4-3.1,1.4l-2.5-2.5c1.6-1.7,3.1-2.3,5.7-2.3c4.5,0,6.8,1.9,6.8,5.6v10.5H234.8z M234.7,254.9h-3
				c-1.6,0-2.4,0.6-2.4,1.8c0,1.2,0.8,1.8,2.4,1.8c0.9,0.1,1.7-0.2,2.4-0.8c0.5-0.4,0.6-1,0.6-2L234.7,254.9z M247.4,261.6
				c-3.3,0-4.7-2.3-4.7-4.6v-17.2h4v17c0,1,0.4,1.4,1.4,1.4h1.5v3.4L247.4,261.6z M257.3,249.2v12.5h-4v-12.5h-1.7v-3h1.7v-2
				c0-2.3,1.4-4.6,4.7-4.6h2.3v3.4h-1.6c-1,0-1.4,0.5-1.4,1.4v1.7h2.9v3L257.3,249.2z M278.6,261.6v-1.4c-1,1.1-2.4,1.6-3.9,1.5
				c-1.8,0-3.2-0.5-4.1-1.4c-0.9-1-1.4-2.3-1.3-3.6c0-2.6,1.7-4.6,5.5-4.6h3.7v-0.8c0-1.7-0.9-2.5-3-2.5c-1.2-0.1-2.3,0.4-3.1,1.4
				l-2.5-2.5c1.6-1.7,3.1-2.3,5.7-2.3c4.5,0,6.8,1.9,6.8,5.6v10.5H278.6z M278.5,254.9h-3c-1.6,0-2.4,0.6-2.4,1.8
				c0,1.2,0.8,1.8,2.4,1.8c0.9,0.1,1.7-0.2,2.4-0.8c0.5-0.4,0.6-1,0.6-2L278.5,254.9z M214.1,293.5v-12.7l-4.2,8.3h-2.9l-4.2-8.3
				v12.7h-4.3v-21.8h4.2l5.7,11.8l5.7-11.8h4.2v21.8L214.1,293.5z M223.1,274.9v-3.3h4.1v3.3H223.1z M223.1,293.5v-15.5h4v15.5
				L223.1,293.5z M236.1,293.5c-3.3,0-4.6-2.3-4.6-4.6v-17.2h4v17c0,1,0.4,1.4,1.4,1.4h1.5v3.4L236.1,293.5z M246,293.5
				c-3.3,0-4.6-2.3-4.6-4.6v-17.2h4v17c0,1,0.4,1.4,1.4,1.4h1.5v3.4L246,293.5z M251.4,274.9v-3.3h4.1v3.3H251.4z M251.5,293.5
				v-15.5h4v15.5L251.5,293.5z M270.9,291.8c-1.3,1.3-3.1,2-5,2c-1.8,0.1-3.6-0.6-4.9-2c-1.4-1.5-1.8-3.3-1.8-6.2
				c0-2.9,0.4-4.7,1.8-6.2c2.8-2.6,7.1-2.6,9.9,0c1.4,1.5,1.8,3.3,1.8,6.2S272.4,290.3,270.9,291.8L270.9,291.8z M267.8,281.7
				c-1.1-0.9-2.7-0.9-3.7,0c-0.8,0.8-0.9,2.2-0.9,3.9c0,1.6,0.1,3.1,0.9,3.9c1.1,0.9,2.7,0.9,3.7,0c0.8-0.8,0.9-2.2,0.9-3.9
				C268.7,283.9,268.6,282.5,267.8,281.7L267.8,281.7z M285.8,293.5v-9.6c0-2.2-1.4-2.9-2.6-2.9s-2.7,0.7-2.7,2.9v9.6h-4v-15.9h3.9
				v1.5c1-1.1,2.5-1.7,4-1.7c1.4-0.1,2.8,0.5,3.8,1.4c1.3,1.3,1.6,2.8,1.6,4.5v10.2L285.8,293.5z M192,307.7
				c-1.7,0.1-3.2-1.2-3.2-2.9c0-0.1,0-0.2,0-0.2v-6h1.4v6c-0.2,1,0.5,2,1.5,2.2s2-0.5,2.2-1.5c0-0.2,0-0.5,0-0.7v-6h1.4v6
				c0,1.7-1.3,3.1-3,3.2C192.2,307.7,192.1,307.7,192,307.7L192,307.7z M199.9,307.7c-1.2,0.1-2.4-0.4-3.2-1.2l0.9-0.9
				c0.6,0.6,1.5,0.9,2.3,0.9c1.2,0,1.9-0.5,1.9-1.4c0-0.4-0.1-0.7-0.4-0.9c-0.3-0.2-0.6-0.4-1-0.4l-1.1-0.2
				c-0.6-0.1-1.2-0.3-1.7-0.7c-0.5-0.5-0.7-1.1-0.7-1.7c0-1.6,1.1-2.7,3-2.7c1-0.1,2.1,0.3,2.8,1l-0.9,0.9c-0.5-0.5-1.3-0.7-2-0.7
				c-1.1,0-1.6,0.6-1.6,1.4c0,0.3,0.1,0.6,0.3,0.8c0.3,0.2,0.6,0.4,1,0.4l1.1,0.2c0.6,0,1.2,0.3,1.7,0.7c0.5,0.5,0.8,1.2,0.7,1.9
				C203.2,306.6,201.8,307.6,199.9,307.7L199.9,307.7z M211.1,303.8v3.7h-1.4v-3.7l-2.7-5.4h1.5l1.9,4l1.9-4h1.5L211.1,303.8z
				 M218.4,306.9c-0.5,0.5-1.2,0.8-1.9,0.8c-0.7,0-1.4-0.3-1.9-0.8c-0.6-0.6-0.8-1.5-0.8-2.6s0.1-1.9,0.8-2.6
				c0.5-0.5,1.2-0.8,1.9-0.8c0.7,0,1.4,0.3,1.9,0.8c0.6,0.7,0.9,1.6,0.8,2.6C219.1,305.4,219,306.2,218.4,306.9L218.4,306.9z
				 M217.4,302.6c-0.3-0.2-0.6-0.4-1-0.4c-0.4,0-0.7,0.1-0.9,0.4c-0.6,1.1-0.6,2.4,0,3.5c0.2,0.3,0.6,0.4,0.9,0.4
				c0.4,0,0.7-0.1,1-0.4C218,305,218,303.7,217.4,302.6z M224.8,307.6v-0.6c-0.4,0.5-1.1,0.7-1.7,0.7c-0.6,0-1.2-0.2-1.6-0.6
				c-0.5-0.5-0.7-1.2-0.6-1.8v-4.1h1.3v3.9c-0.1,0.7,0.4,1.3,1.1,1.4c0.1,0,0.1,0,0.2,0c0.7,0,1.3-0.5,1.3-1.2c0-0.1,0-0.2,0-0.2
				v-3.9h1.3v6.5L224.8,307.6z M230.1,307.6c-0.9,0.1-1.7-0.7-1.8-1.6c0-0.1,0-0.1,0-0.2v-3.7h-0.7v-1h0.7v-1.8h1.3v1.8h1.3v1h-1.3
				v3.6c-0.1,0.3,0.2,0.7,0.5,0.7c0.1,0,0.1,0,0.2,0h0.6v1.1H230.1z M236.5,307.6v-3.9c0.1-0.7-0.4-1.3-1.1-1.4c-0.1,0-0.1,0-0.2,0
				c-0.7,0-1.3,0.5-1.3,1.2c0,0.1,0,0.2,0,0.2v3.9h-1.3v-9.1h1.3v3.3c0.4-0.5,1.1-0.7,1.7-0.7c0.6,0,1.2,0.2,1.6,0.6
				c0.5,0.5,0.7,1.2,0.6,1.8v4.1L236.5,307.6z M246.3,307.6V307c-0.4,0.5-1.1,0.7-1.7,0.6c-0.6,0.1-1.3-0.2-1.7-0.6
				c-0.3-0.4-0.5-0.9-0.5-1.4c0-1.1,0.8-1.9,2.3-1.9h1.7v-0.5c0-0.8-0.4-1.2-1.4-1.2c-0.6-0.1-1.1,0.2-1.4,0.6l-0.8-0.8
				c0.6-0.7,1.4-1,2.3-0.9c1.8,0,2.7,0.8,2.7,2.2v4.3L246.3,307.6z M246.3,304.7h-1.5c-0.8,0-1.2,0.3-1.2,0.9c0,0.6,0.4,0.9,1.2,0.9
				c0.4,0,0.8-0.1,1.2-0.4c0.2-0.3,0.3-0.6,0.3-1L246.3,304.7z M253.2,302.6c-0.2-0.3-0.6-0.4-1-0.4c-0.7,0-1.3,0.6-1.3,1.4
				c0,0,0,0.1,0,0.1v3.9h-1.3v-6.5h1.3v0.7c0.4-0.5,1-0.8,1.6-0.8c0.6,0,1.1,0.2,1.5,0.6L253.2,302.6z M255.8,304.7
				c0,1.1,0.6,1.8,1.6,1.8c0.6,0,1.2-0.2,1.6-0.6l0.8,0.8c-0.6,0.7-1.5,1.1-2.4,1c-1.6,0-2.9-0.9-2.9-3.3c0-2.1,1.1-3.3,2.7-3.3
				c1.7,0,2.7,1.3,2.7,3.1v0.5L255.8,304.7z M258.5,302.9c-0.3-0.7-1.2-1-1.9-0.7c-0.3,0.1-0.5,0.4-0.7,0.7
				c-0.1,0.3-0.2,0.6-0.2,0.9h2.9C258.7,303.5,258.6,303.2,258.5,302.9L258.5,302.9z M268.2,307.6V307c-0.4,0.5-1.1,0.7-1.7,0.6
				c-0.6,0.1-1.3-0.2-1.7-0.6c-0.3-0.4-0.5-0.9-0.5-1.4c0-1.1,0.8-1.9,2.2-1.9h1.7v-0.5c0-0.8-0.4-1.2-1.4-1.2
				c-0.6-0.1-1.1,0.2-1.4,0.6l-0.8-0.8c0.6-0.7,1.4-1,2.3-0.9c1.8,0,2.7,0.8,2.7,2.2v4.3L268.2,307.6z M268.2,304.7h-1.5
				c-0.8,0-1.2,0.3-1.2,0.9c0,0.6,0.4,0.9,1.2,0.9c0.4,0,0.9-0.1,1.2-0.4c0.2-0.3,0.3-0.6,0.3-1L268.2,304.7z M273.5,307.6
				c-0.9,0.1-1.7-0.7-1.8-1.6c0-0.1,0-0.1,0-0.2v-3.7H271v-1h0.7v-1.8h1.3v1.8h1.3v1H273v3.6c-0.1,0.3,0.2,0.7,0.5,0.7
				c0.1,0,0.1,0,0.2,0h0.5v1.1H273.5z M282.5,302.6c-0.2-0.3-0.6-0.4-1-0.4c-0.7,0-1.3,0.6-1.3,1.4c0,0,0,0,0,0.1v3.9H279v-6.5h1.3
				v0.7c0.4-0.5,1-0.8,1.6-0.8c0.6,0,1.1,0.2,1.5,0.6L282.5,302.6z M284.5,299.8v-1.4h1.4v1.4L284.5,299.8z M284.6,307.6v-6.5h1.3
				v6.5L284.6,307.6z M290,307.6c-1,0.1-2-0.3-2.7-0.9l0.9-0.9c0.5,0.5,1.2,0.7,1.9,0.7c0.8,0,1.4-0.3,1.4-0.9
				c0-0.4-0.2-0.7-0.9-0.8l-1-0.1c-1.2-0.1-1.9-0.6-1.9-1.8c0-1.3,1.1-2,2.4-2c0.9-0.1,1.7,0.2,2.4,0.7l-0.8,0.8
				c-0.5-0.3-1-0.5-1.6-0.5c-0.8,0-1.2,0.3-1.2,0.8s0.3,0.7,0.9,0.7l0.9,0.1c1.3,0.1,2,0.7,2,1.8C292.7,306.9,291.5,307.6,290,307.6
				L290,307.6z M298.4,307.6l-1.8-3l-1,1.1v1.9h-1.3v-9.1h1.3v5.6l2.5-3h1.6l-2.2,2.6l2.6,3.9L298.4,307.6z M212.7,320.9
				c-0.5,0.5-1.2,0.8-1.9,0.8c-0.7,0-1.4-0.3-1.9-0.8c-0.6-0.6-0.8-1.5-0.8-2.6s0.1-1.9,0.8-2.6c0.5-0.5,1.2-0.8,1.9-0.8
				c0.7,0,1.4,0.3,1.9,0.8c0.6,0.7,0.9,1.6,0.8,2.6C213.5,319.5,213.3,320.3,212.7,320.9z M211.7,316.6c-0.3-0.2-0.6-0.4-1-0.4
				c-0.4,0-0.7,0.1-0.9,0.4c-0.6,1.1-0.6,2.4,0,3.5c0.2,0.3,0.6,0.4,0.9,0.4c0.4,0,0.7-0.1,1-0.4C212.3,319,212.3,317.7,211.7,316.6
				z M216.7,316.1v5.5h-1.3v-5.5h-0.7v-1h0.7v-0.9c-0.1-0.9,0.6-1.7,1.6-1.8c0.1,0,0.1,0,0.2,0h0.8v1.1h-0.6
				c-0.3-0.1-0.7,0.2-0.7,0.5c0,0.1,0,0.1,0,0.2v0.8h1.3v1H216.7z M224.4,321.6c-0.9,0.1-1.7-0.7-1.8-1.6c0-0.1,0-0.1,0-0.2v-3.7
				h-0.7v-1h0.7v-1.8h1.3v1.8h1.3v1h-1.3v3.6c-0.1,0.3,0.2,0.7,0.5,0.7c0.1,0,0.1,0,0.2,0h0.5v1.1L224.4,321.6z M230.4,316.6
				c-0.2-0.3-0.6-0.4-1-0.4c-0.7,0-1.3,0.6-1.3,1.4c0,0,0,0,0,0.1v3.9h-1.3v-6.5h1.3v0.7c0.4-0.5,1.1-0.8,1.7-0.8
				c0.6,0,1.1,0.2,1.5,0.6L230.4,316.6z M235.8,321.6V321c-0.4,0.5-1.1,0.7-1.7,0.6c-0.6,0.1-1.3-0.2-1.7-0.6
				c-0.3-0.4-0.5-0.9-0.5-1.4c0-1.1,0.8-1.9,2.2-1.9h1.7v-0.5c0-0.8-0.4-1.2-1.4-1.2c-0.6-0.1-1.1,0.2-1.4,0.6l-0.8-0.8
				c0.6-0.7,1.4-1,2.3-0.9c1.8,0,2.7,0.8,2.7,2.2v4.3L235.8,321.6z M235.8,318.7h-1.5c-0.8,0-1.2,0.3-1.2,0.9s0.4,0.9,1.2,0.9
				c0.4,0,0.9-0.1,1.2-0.4c0.2-0.3,0.3-0.6,0.3-1L235.8,318.7z M240.6,316.1v5.5h-1.3v-5.5h-0.8v-1h0.7v-0.9
				c-0.1-0.9,0.6-1.7,1.6-1.8c0.1,0,0.1,0,0.2,0h0.8v1.1h-0.6c-0.3-0.1-0.7,0.2-0.7,0.5c0,0.1,0,0.1,0,0.2v0.8h1.3v1L240.6,316.1z
				 M244.8,316.1v5.5h-1.3v-5.5h-0.7v-1h0.7v-0.9c-0.1-0.9,0.6-1.7,1.6-1.8c0.1,0,0.1,0,0.2,0h0.8v1.1h-0.6c-0.3,0-0.7,0.2-0.7,0.5
				c0,0.1,0,0.1,0,0.2v0.8h1.3v1L244.8,316.1z M247.4,313.9v-1.4h1.4v1.4L247.4,313.9z M247.5,321.6v-6.5h1.3v6.5L247.5,321.6z
				 M253.4,321.7c-1.5,0-2.9-0.9-2.9-3.3c0-2.4,1.4-3.3,2.9-3.3c0.8,0,1.6,0.3,2.1,0.9l-0.9,0.9c-0.3-0.4-0.7-0.6-1.2-0.6
				c-0.5,0-0.9,0.2-1.2,0.6c-0.3,0.5-0.4,1-0.4,1.6c-0.1,0.6,0.1,1.1,0.4,1.6c0.3,0.4,0.7,0.6,1.2,0.6c0.5,0,1-0.2,1.2-0.6l0.9,0.9
				C254.9,321.3,254.2,321.7,253.4,321.7L253.4,321.7z M261.1,321.6l-1.8-3l-1,1.1v1.9H257v-9.1h1.3v5.6l2.5-3h1.6l-2.2,2.6l2.6,3.9
				L261.1,321.6z M264,313.9v-1.4h1.3v1.4L264,313.9z M264,321.6v-6.5h1.3v6.5L264,321.6z M271.3,321.6v-3.9
				c0.1-0.7-0.4-1.3-1.1-1.4c-0.1,0-0.1,0-0.2,0c-0.7,0-1.3,0.5-1.3,1.2c0,0.1,0,0.2,0,0.2v3.9h-1.3v-6.5h1.3v0.6
				c0.4-0.5,1.1-0.7,1.7-0.7c0.6,0,1.2,0.2,1.6,0.6c0.5,0.5,0.7,1.2,0.6,1.8v4.1L271.3,321.6z M276.8,324.3
				c-0.8,0.1-1.7-0.3-2.3-0.9l0.8-0.8c0.4,0.4,0.9,0.6,1.4,0.6c0.8,0,1.5-0.6,1.5-1.4c0-0.1,0-0.2,0-0.3v-0.8
				c-0.4,0.5-1,0.8-1.7,0.7c-0.6,0-1.1-0.2-1.5-0.6c-0.6-0.6-0.7-1.5-0.7-2.6s0.1-2,0.7-2.6c0.4-0.4,1-0.6,1.6-0.6
				c0.7,0,1.3,0.2,1.7,0.8v-0.7h1.3v6.4c0.1,1.4-1,2.7-2.4,2.7C277,324.3,276.9,324.3,276.8,324.3L276.8,324.3z M276.9,316.2
				c-1.2,0-1.3,1-1.3,2s0.2,2,1.3,2c1.2,0,1.3-1,1.3-2S278.1,316.2,276.9,316.2L276.9,316.2z"/>
		</g>
	</g>
</g>
</svg>
