<svg xmlns="http://www.w3.org/2000/svg" viewBox="0 0 470.28 519.33"><defs><style>.cls-1{fill:none;}.cls-2{fill:#4559a8;}.cls-3{fill:#fff;}</style></defs><title>you</title><g id="Layer_2" data-name="Layer 2"><g id="Layer_1-2" data-name="Layer 1"><g id="you"><rect class="cls-1" width="470.28" height="519.33"/><path class="cls-2" d="M59.79,18.58v-8a16.56,16.56,0,0,1,.47-4.06A10.27,10.27,0,0,1,61.7,3.17,7.41,7.41,0,0,1,64.18.86,7,7,0,0,1,67.71,0V3.6a3.26,3.26,0,0,0-2,.61A4.55,4.55,0,0,0,64.4,5.83a7.26,7.26,0,0,0-.69,2.27,17.56,17.56,0,0,0-.18,2.48h4.25v8Zm13.18,0v-8a17.06,17.06,0,0,1,.46-4.06,10.48,10.48,0,0,1,1.44-3.35A7.44,7.44,0,0,1,77.36.86,7,7,0,0,1,80.89,0V3.6a3.26,3.26,0,0,0-2,.61,4.68,4.68,0,0,0-1.3,1.62,7.53,7.53,0,0,0-.68,2.27,17.56,17.56,0,0,0-.18,2.48H81v8ZM375,152v8a17.14,17.14,0,0,1-.47,4.07,10.27,10.27,0,0,1-1.44,3.35,7.38,7.38,0,0,1-2.45,2.3,6.88,6.88,0,0,1-3.56.87V167a3.17,3.17,0,0,0,2-.62,4.5,4.5,0,0,0,1.3-1.62,7.19,7.19,0,0,0,.68-2.26,17.59,17.59,0,0,0,.18-2.49h-4.24v-8Zm13.17,0v8a17.15,17.15,0,0,1-.46,4.07,10.71,10.71,0,0,1-1.44,3.35,7.47,7.47,0,0,1-2.45,2.3,6.92,6.92,0,0,1-3.57.87V167a3.2,3.2,0,0,0,2-.62,4.5,4.5,0,0,0,1.3-1.62,7.46,7.46,0,0,0,.68-2.26,17.59,17.59,0,0,0,.18-2.49h-4.25v-8ZM184.43,348.49c0-2.32.1-4.86-.89-7-1.13-2.44-3.67-3.49-6.21-3.91a40.61,40.61,0,0,0-6.71-.31h-7.54c-3.13,0-7,.13-9.44,2.4-2.81,2.63-2.23,7.17-2.23,10.66v11c0,1.42-.31,3.35.65,4.53a3,3,0,0,0,4.78-.17,3.55,3.55,0,0,0,.52-2.15V347.63a2.35,2.35,0,0,1,.2-1.36,1.15,1.15,0,0,1,2.08.72v52.09c0,3.81,5.64,4.61,6.67.92a11.92,11.92,0,0,0,.12-3.1V370.64c0-1.2-.08-3.45,1.92-2.86,1.35.4,1.06,2.09,1.06,3.17v26.29c0,1.18-.16,2.51.46,3.56A3.43,3.43,0,0,0,176.2,399V347a1.13,1.13,0,0,1,2.26-.06c0,.33,0,.68,0,1v15.81a3.14,3.14,0,0,0,1.11,2.59,3,3,0,0,0,4.63-1.21c.51-1.25.21-3.05.21-4.36v-10.7c0-.52,0-1,0-1.56m-9.49-20.1a7,7,0,1,1-7-7,7,7,0,0,1,7,7m-28.35,20.1c0-2.32.1-4.86-.89-7-1.13-2.44-3.67-3.49-6.21-3.91a40.61,40.61,0,0,0-6.71-.31h-7.54c-3.13,0-7,.13-9.44,2.4-2.81,2.63-2.23,7.17-2.23,10.66v11c0,1.42-.31,3.35.65,4.53a3,3,0,0,0,4.78-.17,3.55,3.55,0,0,0,.52-2.15V347.63a2.43,2.43,0,0,1,.2-1.36,1.15,1.15,0,0,1,2.08.72v52.09c0,3.81,5.65,4.61,6.67.92a11.92,11.92,0,0,0,.12-3.1V370.64c0-1.2-.08-3.45,1.92-2.86,1.35.4,1.06,2.09,1.06,3.17v26.29c0,1.18-.16,2.51.47,3.56a3.43,3.43,0,0,0,6.33-1.76V347a1.13,1.13,0,0,1,2.25-.06c0,.33,0,.68,0,1v15.81a3.14,3.14,0,0,0,1.11,2.59,3,3,0,0,0,4.63-1.21c.51-1.25.22-3.05.22-4.36v-10.7c0-.52,0-1,0-1.56m-9.49-20.1a7,7,0,1,1-7-7,7,7,0,0,1,7,7m-28.35,20.1c0-2.32.1-4.86-.89-7-1.13-2.44-3.67-3.49-6.2-3.91a40.78,40.78,0,0,0-6.72-.31H87.4c-3.13,0-7,.13-9.44,2.4-2.81,2.63-2.23,7.17-2.23,10.66v11c0,1.42-.31,3.35.65,4.53a3,3,0,0,0,4.78-.17,3.55,3.55,0,0,0,.52-2.15V347.63a2.43,2.43,0,0,1,.2-1.36A1.15,1.15,0,0,1,84,347v52.09c0,3.81,5.65,4.61,6.67.92a11.92,11.92,0,0,0,.12-3.1V370.64c0-1.2-.08-3.45,1.92-2.86,1.35.4,1.06,2.09,1.06,3.17v26.29c0,1.18-.16,2.51.47,3.56a3.43,3.43,0,0,0,6.33-1.76V347a1.13,1.13,0,0,1,2.25-.06c0,.33,0,.68,0,1v15.81a3.16,3.16,0,0,0,1.11,2.59,3,3,0,0,0,4.63-1.21c.51-1.25.22-3.05.22-4.36v-10.7c0-.52,0-1,0-1.56m-9.49-20.1a7,7,0,1,1-7-7,7,7,0,0,1,7,7m-28.35,20.1c0-2.32.11-4.86-.89-7-1.13-2.44-3.67-3.49-6.2-3.91a40.66,40.66,0,0,0-6.71-.31H49.56c-3.13,0-7,.13-9.44,2.4-2.81,2.63-2.23,7.17-2.23,10.66v11c0,1.42-.31,3.35.65,4.53a3,3,0,0,0,4.78-.17,3.56,3.56,0,0,0,.53-2.15V347.63a2.43,2.43,0,0,1,.19-1.36,1.15,1.15,0,0,1,2.08.72v52.09c0,3.81,5.65,4.61,6.67.92a11.93,11.93,0,0,0,.13-3.1V370.64c0-1.2-.08-3.45,1.92-2.86,1.34.4,1,2.09,1,3.17v26.29a6.92,6.92,0,0,0,.47,3.56A3.43,3.43,0,0,0,62.69,399V347a1.13,1.13,0,0,1,2.25-.06c0,.33,0,.68,0,1v15.81a3.16,3.16,0,0,0,1.11,2.59,3,3,0,0,0,4.64-1.21c.5-1.25.21-3.05.21-4.36v-10.7c0-.52,0-1,0-1.56m-9.49-20.1a7,7,0,1,1-7-7,7,7,0,0,1,7,7"/><path class="cls-3" d="M102.37,36.41V25.68H93.7V36.41h-5V10.78h5V21.25h8.67V10.78h5V36.41ZM126,34.32a7.84,7.84,0,0,1-5.83,2.3,7.75,7.75,0,0,1-5.79-2.3c-1.69-1.8-2.13-3.92-2.13-7.31s.44-5.47,2.13-7.27a8.49,8.49,0,0,1,11.62,0c1.7,1.8,2.13,3.89,2.13,7.27S127.68,32.56,126,34.32Zm-3.63-11.84a3,3,0,0,0-2.2-.83,2.93,2.93,0,0,0-2.16.83c-1,.93-1.08,2.63-1.08,4.53s.11,3.64,1.08,4.57a2.93,2.93,0,0,0,2.16.83,3,3,0,0,0,2.2-.83c1-.93,1.08-2.62,1.08-4.57S123.29,23.41,122.32,22.48Zm32,13.93V25.07c0-2.56-1.62-3.42-3.1-3.42A3,3,0,0,0,148.13,25V36.41h-4.68V25.07c0-2.56-1.62-3.42-3.09-3.42s-3.14.86-3.14,3.42V36.41h-4.68V17.65h4.58v1.73a6.54,6.54,0,0,1,4.67-1.94,5.81,5.81,0,0,1,5,2.37,7.18,7.18,0,0,1,5.62-2.37A6.58,6.58,0,0,1,157,19.09a7.1,7.1,0,0,1,2,5.33v12Zm13.39-7.92a3.83,3.83,0,0,0,4.11,4.17,5.29,5.29,0,0,0,4.24-1.76L179,33.67a8.81,8.81,0,0,1-7.13,2.95c-4.43,0-8.68-2-8.68-9.61,0-6.12,3.32-9.57,8.17-9.57,5.22,0,8.18,3.74,8.18,9.07v2Zm6.7-5.22a3.5,3.5,0,0,0-6.27,0,4.71,4.71,0,0,0-.43,2h7.13A4.71,4.71,0,0,0,174.45,23.27ZM189.1,36.41A5.1,5.1,0,0,1,183.63,31V10.78h4.68v20c0,1.11.46,1.69,1.65,1.69h1.8v4Zm9.76-7.92a3.83,3.83,0,0,0,4.1,4.17,5.31,5.31,0,0,0,4.25-1.76l2.84,2.77a8.8,8.8,0,0,1-7.13,2.95c-4.42,0-8.67-2-8.67-9.61,0-6.12,3.31-9.57,8.17-9.57,5.22,0,8.17,3.74,8.17,9.07v2Zm6.69-5.22a3.49,3.49,0,0,0-6.26,0,4.44,4.44,0,0,0-.43,2H206A4.57,4.57,0,0,0,205.55,23.27Zm15.52,13.35c-3,0-5.58-.32-8-2.7l3-3.06a6.79,6.79,0,0,0,5,1.77c1.62,0,3.31-.54,3.31-1.94,0-.94-.47-1.59-2-1.73l-3-.29c-3.32-.32-5.4-1.8-5.4-5.26,0-3.92,3.42-6,7.23-6,2.95,0,5.37.54,7.17,2.19l-2.88,2.92a6.47,6.47,0,0,0-4.36-1.26c-1.87,0-2.66.86-2.66,1.8s.54,1.48,1.94,1.62l2.95.29c3.71.36,5.58,2.3,5.58,5.5C229,34.64,225.49,36.62,221.07,36.62Zm17.89,0c-3,0-5.58-.32-8-2.7L234,30.86a6.75,6.75,0,0,0,5,1.77c1.62,0,3.31-.54,3.31-1.94,0-.94-.47-1.59-2-1.73l-3-.29c-3.31-.32-5.4-1.8-5.4-5.26,0-3.92,3.42-6,7.23-6,3,0,5.37.54,7.17,2.19l-2.88,2.92a6.47,6.47,0,0,0-4.36-1.26c-1.87,0-2.66.86-2.66,1.8s.54,1.48,1.94,1.62l3,.29c3.71.36,5.58,2.3,5.58,5.5C246.91,34.64,243.38,36.62,239,36.62Zm22.79-.21V25.07c0-2.56-1.62-3.42-3.1-3.42s-3.13.86-3.13,3.42V36.41h-4.68V17.65h4.57v1.73a6.43,6.43,0,0,1,4.68-1.94,6.12,6.12,0,0,1,4.43,1.65,7,7,0,0,1,1.9,5.33v12Zm13.39-7.92a3.83,3.83,0,0,0,4.1,4.17,5.31,5.31,0,0,0,4.25-1.76l2.84,2.77a8.79,8.79,0,0,1-7.12,2.95c-4.43,0-8.68-2-8.68-9.61,0-6.12,3.31-9.57,8.17-9.57,5.22,0,8.17,3.74,8.17,9.07v2Zm6.69-5.22a3.49,3.49,0,0,0-6.26,0,4.57,4.57,0,0,0-.43,2h7.13A4.57,4.57,0,0,0,281.83,23.27Zm15.52,13.35c-3,0-5.58-.32-8-2.7l3.06-3.06a6.75,6.75,0,0,0,5,1.77c1.62,0,3.31-.54,3.31-1.94,0-.94-.47-1.59-2-1.73l-3-.29c-3.31-.32-5.4-1.8-5.4-5.26,0-3.92,3.42-6,7.24-6,2.95,0,5.36.54,7.16,2.19l-2.88,2.92a6.47,6.47,0,0,0-4.36-1.26c-1.87,0-2.66.86-2.66,1.8s.54,1.48,1.94,1.62l3,.29c3.71.36,5.58,2.3,5.58,5.5C305.3,34.64,301.78,36.62,297.35,36.62Zm17.86,0c-3,0-5.58-.32-8-2.7l3.06-3.06a6.79,6.79,0,0,0,5,1.77c1.62,0,3.31-.54,3.31-1.94,0-.94-.47-1.59-2-1.73l-3-.29c-3.32-.32-5.4-1.8-5.4-5.26,0-3.92,3.42-6,7.23-6,2.95,0,5.36.54,7.16,2.19l-2.88,2.92a6.46,6.46,0,0,0-4.35-1.26c-1.87,0-2.66.86-2.66,1.8s.53,1.48,1.94,1.62l2.95.29c3.71.36,5.58,2.3,5.58,5.5C323.16,34.64,319.63,36.62,315.21,36.62Zm20.16-22.17V10.64h4.78v3.81Zm.07,22V18.19h4.68V36.41Zm16.05.21c-2.95,0-5.58-.32-8-2.7l3.06-3.06a6.75,6.75,0,0,0,5,1.77c1.62,0,3.32-.54,3.32-1.94,0-.94-.47-1.59-2-1.73l-3-.29c-3.31-.32-5.4-1.8-5.4-5.26,0-3.92,3.42-6,7.24-6,3,0,5.36.54,7.16,2.19L356,22.55a6.46,6.46,0,0,0-4.35-1.26c-1.88,0-2.67.86-2.67,1.8s.54,1.48,1.95,1.62l2.95.29c3.71.36,5.58,2.3,5.58,5.5C359.45,34.64,355.92,36.62,351.49,36.62Zm29.85-.21V34.79a5.7,5.7,0,0,1-4.61,1.8,6.48,6.48,0,0,1-4.79-1.66,6,6,0,0,1-1.55-4.21c0-3,2.05-5.43,6.48-5.43h4.36v-.94c0-2.05-1-3-3.49-3a4.14,4.14,0,0,0-3.6,1.62l-3-2.92c1.84-2,3.6-2.66,6.74-2.66,5.29,0,8,2.23,8,6.62V36.41Zm-.11-7.92h-3.57c-1.87,0-2.77.76-2.77,2.16s.9,2.12,2.85,2.12a3.54,3.54,0,0,0,2.77-.9,2.89,2.89,0,0,0,.72-2.37ZM71.42,72.93a6.3,6.3,0,0,1-4.54,1.69,5.66,5.66,0,0,1-4.68-2v1.77H57.66V48.78h4.68v8.53a5.5,5.5,0,0,1,4.54-1.87,6.25,6.25,0,0,1,4.54,1.69C73.21,59,73.36,61.88,73.36,65S73.21,71.1,71.42,72.93ZM65.51,59.65c-2.81,0-3.17,2.34-3.17,5.36s.36,5.4,3.17,5.4S68.68,68,68.68,65,68.32,59.65,65.51,59.65Zm12.24-7.2V48.64h4.79v3.81Zm.07,22V56.19H82.5V74.41ZM94.2,81.5c-2.88,0-4.86-.58-6.8-2.45l2.92-3A4.75,4.75,0,0,0,94,77.54c2.81,0,3.78-2,3.78-3.89V71.74a5.51,5.51,0,0,1-4.47,1.88A6.25,6.25,0,0,1,88.84,72c-1.76-1.76-1.91-4.17-1.91-7.45s.15-5.65,1.91-7.42a6.33,6.33,0,0,1,4.5-1.65,5.48,5.48,0,0,1,4.57,2V55.65h4.54V73.72C102.45,78.22,99.24,81.5,94.2,81.5Zm.47-21.85c-2.77,0-3.06,2.38-3.06,4.86s.29,4.89,3.06,4.89,3.1-2.41,3.1-4.89S97.44,59.65,94.67,59.65Zm28.84,15c-3.75,0-8.39-2-8.39-9.61s4.64-9.57,8.39-9.57A8,8,0,0,1,129.7,58l-3.17,3.17a3.77,3.77,0,0,0-3-1.48,3.28,3.28,0,0,0-2.67,1.22,6.36,6.36,0,0,0-1,4.14,6.48,6.48,0,0,0,1,4.18,3.25,3.25,0,0,0,2.67,1.22,3.79,3.79,0,0,0,3-1.47l3.17,3.13A8,8,0,0,1,123.51,74.62Zm22.24-2.3a7.84,7.84,0,0,1-5.83,2.3,7.75,7.75,0,0,1-5.79-2.3C132.44,70.52,132,68.4,132,65s.44-5.47,2.13-7.27a8.49,8.49,0,0,1,11.62,0c1.7,1.8,2.13,3.89,2.13,7.27S147.48,70.56,145.75,72.32Zm-3.63-11.84a3,3,0,0,0-2.2-.83,2.93,2.93,0,0,0-2.16.83c-1,.93-1.08,2.63-1.08,4.53s.11,3.64,1.08,4.57a2.93,2.93,0,0,0,2.16.83,3,3,0,0,0,2.2-.83c1-.93,1.08-2.62,1.08-4.57S143.09,61.41,142.12,60.48Zm21.13,13.93V63.07c0-2.56-1.62-3.42-3.1-3.42s-3.13.86-3.13,3.42V74.41h-4.68V55.65h4.58v1.73a6.42,6.42,0,0,1,4.67-1.94A6.09,6.09,0,0,1,166,57.09a7,7,0,0,1,1.91,5.33v12Zm17.17.21c-3.74,0-8.38-2-8.38-9.61s4.64-9.57,8.38-9.57A8,8,0,0,1,186.61,58l-3.16,3.17a3.79,3.79,0,0,0-3-1.48,3.26,3.26,0,0,0-2.66,1.22,6.36,6.36,0,0,0-1,4.14,6.48,6.48,0,0,0,1,4.18,3.23,3.23,0,0,0,2.66,1.22,3.81,3.81,0,0,0,3-1.47l3.16,3.13A8,8,0,0,1,180.42,74.62Zm13-8.13a3.83,3.83,0,0,0,4.1,4.17,5.31,5.31,0,0,0,4.25-1.76l2.84,2.77a8.78,8.78,0,0,1-7.12,3c-4.43,0-8.68-2-8.68-9.61,0-6.12,3.31-9.57,8.17-9.57,5.22,0,8.17,3.74,8.17,9.07v2Zm6.69-5.22a3.49,3.49,0,0,0-6.26,0,4.71,4.71,0,0,0-.43,2h7.13A4.57,4.57,0,0,0,200.11,61.27Zm19.55-.5a3.13,3.13,0,0,0-5.51,2.34v11.3h-4.67V55.65h4.57v1.8a6.34,6.34,0,0,1,4.71-2,5.68,5.68,0,0,1,4.43,1.76Zm17.1,13.64V63.07c0-2.56-1.62-3.42-3.09-3.42s-3.14.86-3.14,3.42V74.41h-4.68V55.65h4.58v1.73a6.43,6.43,0,0,1,4.68-1.94,6.08,6.08,0,0,1,4.42,1.65,7,7,0,0,1,1.91,5.33v12Zm18-22V48.64h4.79v3.81Zm.08,22V56.19h4.67V74.41Zm31.71,0V63.07c0-2.56-1.62-3.42-3.1-3.42A3,3,0,0,0,280.32,63V74.41h-4.68V63.07c0-2.56-1.62-3.42-3.1-3.42s-3.13.86-3.13,3.42V74.41h-4.68V55.65h4.58v1.73A6.55,6.55,0,0,1,274,55.44a5.8,5.8,0,0,1,5,2.37,7.18,7.18,0,0,1,5.62-2.37,6.53,6.53,0,0,1,4.6,1.65,7.07,7.07,0,0,1,2.06,5.33v12ZM310,72.93a6.27,6.27,0,0,1-4.53,1.69A5.5,5.5,0,0,1,301,72.75v8.53h-4.68V55.65h4.54v1.77a5.64,5.64,0,0,1,4.68-2A6.27,6.27,0,0,1,310,57.13C311.82,59,312,61.88,312,65S311.82,71.1,310,72.93Zm-5.9-13.28C301.31,59.65,301,62,301,65s.36,5.4,3.17,5.4,3.17-2.37,3.17-5.4S306.92,59.65,304.12,59.65ZM326,74.41V72.79a5.7,5.7,0,0,1-4.61,1.8,6.47,6.47,0,0,1-4.78-1.66,6,6,0,0,1-1.55-4.21c0-3,2-5.43,6.48-5.43h4.35v-.94c0-2.05-1-3-3.49-3a4.16,4.16,0,0,0-3.6,1.62l-2.95-2.92c1.84-2,3.6-2.66,6.73-2.66,5.29,0,8,2.23,8,6.62V74.41Zm-.11-7.92h-3.56c-1.87,0-2.77.76-2.77,2.16s.9,2.12,2.84,2.12a3.54,3.54,0,0,0,2.77-.9,2.89,2.89,0,0,0,.72-2.37Zm17.18,8.13c-3.75,0-8.39-2-8.39-9.61s4.64-9.57,8.39-9.57A8,8,0,0,1,349.3,58l-3.17,3.17a3.77,3.77,0,0,0-3-1.48,3.28,3.28,0,0,0-2.67,1.22,6.36,6.36,0,0,0-1,4.14,6.48,6.48,0,0,0,1,4.18,3.25,3.25,0,0,0,2.67,1.22,3.79,3.79,0,0,0,3-1.47l3.17,3.13A8,8,0,0,1,343.11,74.62Zm15.69-.21A5.09,5.09,0,0,1,353.37,69V59.76h-2V56.19h2V50.65H358v5.54h3.32v3.57H358v9c0,1.08.51,1.69,1.62,1.69h1.7v4Zm10.3-7.92a3.83,3.83,0,0,0,4.1,4.17,5.31,5.31,0,0,0,4.25-1.76l2.84,2.77a8.8,8.8,0,0,1-7.13,3c-4.42,0-8.67-2-8.67-9.61,0-6.12,3.31-9.57,8.17-9.57,5.22,0,8.17,3.74,8.17,9.07v2Zm6.69-5.22a3.49,3.49,0,0,0-6.26,0,4.57,4.57,0,0,0-.43,2h7.12A4.44,4.44,0,0,0,375.79,61.27Zm19.73,13.14V72.64a5.63,5.63,0,0,1-4.64,2,6.33,6.33,0,0,1-4.58-1.69c-1.8-1.83-1.94-4.75-1.94-7.92s.14-6,1.94-7.88a6.25,6.25,0,0,1,4.54-1.69,5.6,5.6,0,0,1,4.57,1.87V48.78h4.68V74.41Zm-3.31-14.76C389.4,59.65,389,62,389,65s.36,5.4,3.17,5.4,3.2-2.37,3.2-5.4S395,59.65,392.21,59.65ZM71.42,110.93a6.3,6.3,0,0,1-4.54,1.69,5.66,5.66,0,0,1-4.68-2v1.77H57.66V86.78h4.68v8.53a5.5,5.5,0,0,1,4.54-1.87,6.25,6.25,0,0,1,4.54,1.69c1.79,1.84,1.94,4.75,1.94,7.88S73.21,109.1,71.42,110.93ZM65.51,97.65c-2.81,0-3.17,2.34-3.17,5.36s.36,5.4,3.17,5.4,3.17-2.37,3.17-5.4S68.32,97.65,65.51,97.65Zm19.3,17.78a6.56,6.56,0,0,1-1.41,2.41,5.41,5.41,0,0,1-4,1.44H77.54v-4.21h1.08A2,2,0,0,0,81,113.38l.79-2.3L75.34,93.65h4.93l3.89,11.6,3.74-11.6h4.94Zm25-3a5.09,5.09,0,0,1-5.44-5.37V97.76h-2V94.19h2V88.65h4.68v5.54h3.31v3.57h-3.31v9c0,1.08.51,1.69,1.62,1.69h1.69v4Zm17-13.64a3.12,3.12,0,0,0-2.49-1.12c-1.43,0-3,1.08-3,3.46v11.3h-4.68V93.65h4.57v1.8a6.35,6.35,0,0,1,4.72-2,5.69,5.69,0,0,1,4.43,1.76Zm15.48,13.64v-1.62a5.7,5.7,0,0,1-4.61,1.8,6.5,6.5,0,0,1-4.79-1.66,6,6,0,0,1-1.54-4.21c0-3,2-5.43,6.47-5.43h4.36v-.94c0-2-1-2.95-3.49-2.95A4.16,4.16,0,0,0,135.1,99l-2.95-2.92c1.83-2,3.6-2.66,6.73-2.66,5.29,0,8,2.23,8,6.62v12.35Zm-.11-7.92h-3.56c-1.88,0-2.77.76-2.77,2.16s.89,2.12,2.84,2.12a3.54,3.54,0,0,0,2.77-.9,2.89,2.89,0,0,0,.72-2.37Zm15-6.73v14.65h-4.68V97.76h-2V94.19h2V91.85A5.11,5.11,0,0,1,158,86.49h2.66v4h-1.83c-1.12,0-1.62.61-1.62,1.69v2h3.45v3.57Zm12.31,0v14.65H164.8V97.76h-1.94V94.19h1.94V91.85a5.11,5.11,0,0,1,5.47-5.36h2.66v4H171.1c-1.12,0-1.62.61-1.62,1.69v2h3.45v3.57Zm7-7.31V86.64h4.79v3.81Zm.07,22V94.19h4.68v18.22Zm17.36.21c-3.75,0-8.39-2-8.39-9.61s4.64-9.57,8.39-9.57A8,8,0,0,1,200.08,96l-3.17,3.17a3.77,3.77,0,0,0-3-1.48,3.28,3.28,0,0,0-2.67,1.22,6.36,6.36,0,0,0-1,4.14,6.48,6.48,0,0,0,1,4.18,3.25,3.25,0,0,0,2.67,1.22,3.79,3.79,0,0,0,3-1.47l3.17,3.13A8,8,0,0,1,193.89,112.62Zm21.09-.21-4.61-7.81-2,2.23v5.58h-4.68V86.78h4.68v14.54l6.23-7.67h5.65l-6.69,7.56,7.2,11.2Zm11.09-7.92a3.83,3.83,0,0,0,4.1,4.17,5.3,5.3,0,0,0,4.25-1.76l2.84,2.77a8.78,8.78,0,0,1-7.12,3c-4.43,0-8.68-2-8.68-9.61,0-6.12,3.31-9.57,8.17-9.57,5.22,0,8.17,3.74,8.17,9.07v2Zm6.69-5.22a3.49,3.49,0,0,0-6.26,0,4.71,4.71,0,0,0-.43,2h7.13A4.57,4.57,0,0,0,232.76,99.27Zm19.55-.5a3.13,3.13,0,0,0-5.51,2.34v11.3h-4.67V93.65h4.57v1.8a6.34,6.34,0,0,1,4.71-2,5.68,5.68,0,0,1,4.43,1.76Zm12,13.85c-3,0-5.58-.32-8-2.7l3.06-3.06a6.75,6.75,0,0,0,5,1.77c1.62,0,3.31-.54,3.31-1.94,0-.94-.47-1.59-2-1.73l-3-.29c-3.31-.32-5.4-1.8-5.4-5.26,0-3.92,3.42-6,7.23-6,2.95,0,5.37.54,7.17,2.19l-2.88,2.92a6.47,6.47,0,0,0-4.36-1.26c-1.87,0-2.66.86-2.66,1.8s.54,1.48,1.94,1.62l2.95.29c3.71.36,5.58,2.3,5.58,5.5C272.29,110.64,268.76,112.62,264.34,112.62Zm39.05-.21h-3.85l-3.92-11.77-3.92,11.77h-3.86l-5.75-18.76h5l3,11.6,3.81-11.6h3.42l3.85,11.6,3-11.6h4.93Zm19.41,0V101.07c0-2.56-1.62-3.42-3.1-3.42s-3.13.86-3.13,3.42v11.34h-4.68V86.78h4.68v8.6a6,6,0,0,1,4.57-1.94,6.11,6.11,0,0,1,4.43,1.65,7,7,0,0,1,1.91,5.33v12Zm22.68-2.09a8.5,8.5,0,0,1-11.63,0c-1.69-1.8-2.12-3.92-2.12-7.31s.43-5.47,2.12-7.27a8.5,8.5,0,0,1,11.63,0c1.69,1.8,2.12,3.89,2.12,7.27S347.21,108.56,345.48,110.32Zm-3.64-11.84a3.26,3.26,0,0,0-4.35,0c-1,.93-1.08,2.63-1.08,4.53s.11,3.64,1.08,4.57a3.26,3.26,0,0,0,4.35,0c1-.93,1.08-2.62,1.08-4.57S342.82,99.41,341.84,98.48Zm-280.5,44a3.83,3.83,0,0,0,4.1,4.17,5.31,5.31,0,0,0,4.25-1.76l2.84,2.77a8.8,8.8,0,0,1-7.13,3c-4.42,0-8.67-2-8.67-9.61,0-6.12,3.31-9.57,8.17-9.57,5.22,0,8.17,3.74,8.17,9.07v2ZM68,137.27a3.49,3.49,0,0,0-6.26,0,4.44,4.44,0,0,0-.43,2h7.12A4.44,4.44,0,0,0,68,137.27Zm19,13.14-3.45-5.62-3.42,5.62H74.51L81,140.83l-6.23-9.18h5.62L83.55,137l3.2-5.37h5.62l-6.23,9.18,6.48,9.58Zm22.43-1.48a6.28,6.28,0,0,1-4.54,1.69,5.49,5.49,0,0,1-4.53-1.87v8.53H95.68V131.65h4.54v1.77a5.64,5.64,0,0,1,4.67-2,6.28,6.28,0,0,1,4.54,1.69c1.8,1.84,1.94,4.75,1.94,7.88S111.23,147.1,109.43,148.93Zm-5.9-13.28c-2.81,0-3.17,2.34-3.17,5.36s.36,5.4,3.17,5.4,3.16-2.37,3.16-5.4S106.33,135.65,103.53,135.65Zm17.6,14.76a5.1,5.1,0,0,1-5.47-5.37V124.78h4.68v20c0,1.11.47,1.69,1.66,1.69h1.79v4Zm19-2.09a7.84,7.84,0,0,1-5.83,2.3,7.75,7.75,0,0,1-5.79-2.3c-1.69-1.8-2.13-3.92-2.13-7.31s.44-5.47,2.13-7.27a8.49,8.49,0,0,1,11.62,0c1.7,1.8,2.13,3.89,2.13,7.27S141.9,146.56,140.17,148.32Zm-3.63-11.84a3,3,0,0,0-2.2-.83,2.93,2.93,0,0,0-2.16.83c-1,.93-1.08,2.63-1.08,4.53s.11,3.64,1.08,4.57a2.93,2.93,0,0,0,2.16.83,3,3,0,0,0,2.2-.83c1-.93,1.08-2.62,1.08-4.57S137.51,137.41,136.54,136.48Zm10.15-8v-3.81h4.79v3.81Zm.07,22V132.19h4.68v18.22Zm15.77,0A5.09,5.09,0,0,1,157.1,145v-9.28h-2v-3.57h2v-5.54h4.68v5.54h3.31v3.57h-3.31v9c0,1.08.5,1.69,1.62,1.69h1.69v4Zm23.26,0h-3.68l-6.91-18.76h4.93l3.82,11.6,3.78-11.6h4.93Zm20.44,0v-1.73a6.39,6.39,0,0,1-4.68,1.94,6.08,6.08,0,0,1-4.42-1.65,6.93,6.93,0,0,1-1.91-5.33v-12h4.68V143c0,2.56,1.62,3.42,3.09,3.42s3.14-.86,3.14-3.42V131.65h4.67v18.76Zm15.12,0a5.1,5.1,0,0,1-5.47-5.37V124.78h4.68v20c0,1.11.47,1.69,1.66,1.69H224v4Zm17.32,0V139.07c0-2.56-1.62-3.42-3.1-3.42s-3.13.86-3.13,3.42v11.34h-4.68V131.65h4.57v1.73a6.46,6.46,0,0,1,4.68-1.94,6.09,6.09,0,0,1,4.43,1.65,7,7,0,0,1,1.91,5.33v12Zm13.39-7.92a3.83,3.83,0,0,0,4.11,4.17,5.29,5.29,0,0,0,4.24-1.76l2.85,2.77a8.81,8.81,0,0,1-7.13,3c-4.43,0-8.68-2-8.68-9.61,0-6.12,3.32-9.57,8.18-9.57,5.21,0,8.17,3.74,8.17,9.07v2Zm6.7-5.22a3.5,3.5,0,0,0-6.27,0,4.71,4.71,0,0,0-.43,2h7.13A4.71,4.71,0,0,0,258.76,137.27Zm19.54-.5a3.1,3.1,0,0,0-2.48-1.12c-1.44,0-3,1.08-3,3.46v11.3h-4.68V131.65h4.57v1.8a6.34,6.34,0,0,1,4.71-2,5.67,5.67,0,0,1,4.43,1.76Zm15.45,13.64v-1.62a5.7,5.7,0,0,1-4.61,1.8,6.5,6.5,0,0,1-4.79-1.66,6,6,0,0,1-1.54-4.21c0-3,2.05-5.43,6.48-5.43h4.35v-.94c0-2-1-2.95-3.49-2.95a4.16,4.16,0,0,0-3.6,1.62l-2.95-2.92c1.83-2,3.6-2.66,6.73-2.66,5.29,0,8,2.23,8,6.62v12.35Zm-.11-7.92h-3.56c-1.87,0-2.78.76-2.78,2.16s.91,2.12,2.85,2.12a3.54,3.54,0,0,0,2.77-.9,2.89,2.89,0,0,0,.72-2.37Zm23.47,6.44a6.27,6.27,0,0,1-4.53,1.69,5.64,5.64,0,0,1-4.68-2v1.77h-4.54V124.78H308v8.53a5.5,5.5,0,0,1,4.54-1.87,6.21,6.21,0,0,1,4.53,1.69c1.8,1.84,1.95,4.75,1.95,7.88S318.91,147.1,317.11,148.93Zm-5.9-13.28c-2.81,0-3.17,2.34-3.17,5.36s.36,5.4,3.17,5.4,3.17-2.37,3.17-5.4S314,135.65,311.21,135.65Zm17.6,14.76a5.1,5.1,0,0,1-5.47-5.37V124.78H328v20c0,1.11.47,1.69,1.66,1.69h1.8v4Zm9.72-7.92a3.83,3.83,0,0,0,4.11,4.17,5.28,5.28,0,0,0,4.24-1.76l2.85,2.77a8.81,8.81,0,0,1-7.13,3c-4.43,0-8.68-2-8.68-9.61,0-6.12,3.32-9.57,8.18-9.57,5.22,0,8.17,3.74,8.17,9.07v2Zm6.7-5.22a3.5,3.5,0,0,0-6.27,0,4.71,4.71,0,0,0-.43,2h7.13A4.71,4.71,0,0,0,345.23,137.27ZM68.57,188.41V177.07c0-2.56-1.62-3.42-3.09-3.42s-3.14.86-3.14,3.42v11.34H57.66V162.78h4.68v8.6a6.55,6.55,0,0,1,9-.29,6.94,6.94,0,0,1,1.91,5.33v12Zm22.68-2.09a8.5,8.5,0,0,1-11.63,0c-1.69-1.8-2.12-3.92-2.12-7.31s.43-5.47,2.12-7.27a8.5,8.5,0,0,1,11.63,0c1.69,1.8,2.13,3.89,2.13,7.27S93,184.56,91.25,186.32Zm-3.63-11.84a3,3,0,0,0-2.2-.83,2.93,2.93,0,0,0-2.16.83c-1,.93-1.08,2.63-1.08,4.53s.11,3.64,1.08,4.57a2.93,2.93,0,0,0,2.16.83,3,3,0,0,0,2.2-.83c1-.93,1.08-2.62,1.08-4.57S88.59,175.41,87.62,174.48Zm32,13.93V177.07c0-2.56-1.62-3.42-3.09-3.42a3,3,0,0,0-3.13,3.31v11.45h-4.68V177.07c0-2.56-1.62-3.42-3.1-3.42s-3.13.86-3.13,3.42v11.34H97.84V169.65h4.57v1.73a6.57,6.57,0,0,1,4.68-1.94,5.81,5.81,0,0,1,5,2.37,7.15,7.15,0,0,1,5.61-2.37,6.54,6.54,0,0,1,4.61,1.65,7.1,7.1,0,0,1,2,5.33v12Zm13.4-7.92a3.83,3.83,0,0,0,4.1,4.17,5.31,5.31,0,0,0,4.25-1.76l2.84,2.77a8.79,8.79,0,0,1-7.12,3c-4.43,0-8.68-2-8.68-9.61,0-6.12,3.31-9.57,8.17-9.57,5.22,0,8.17,3.74,8.17,9.07v2Zm6.69-5.22a3.49,3.49,0,0,0-6.26,0,4.57,4.57,0,0,0-.43,2h7.12A4.44,4.44,0,0,0,139.74,175.27Zm14.66,13.14a5.1,5.1,0,0,1-5.48-5.37V162.78h4.68v20c0,1.11.47,1.69,1.66,1.69h1.8v4Zm9.72-7.92a3.83,3.83,0,0,0,4.1,4.17,5.31,5.31,0,0,0,4.25-1.76l2.84,2.77a8.8,8.8,0,0,1-7.13,3c-4.42,0-8.67-2-8.67-9.61,0-6.12,3.31-9.57,8.17-9.57,5.22,0,8.17,3.74,8.17,9.07v2Zm6.69-5.22a3.49,3.49,0,0,0-6.26,0,4.44,4.44,0,0,0-.43,2h7.12A4.57,4.57,0,0,0,170.81,175.27Zm15.52,13.35c-3,0-5.58-.32-8-2.7l3.06-3.06a6.75,6.75,0,0,0,5,1.77c1.62,0,3.31-.54,3.31-1.94,0-.94-.47-1.59-2-1.73l-3-.29c-3.31-.32-5.4-1.8-5.4-5.26,0-3.92,3.42-6,7.23-6,3,0,5.37.54,7.17,2.19l-2.88,2.92a6.47,6.47,0,0,0-4.36-1.26c-1.87,0-2.66.86-2.66,1.8s.54,1.48,1.94,1.62l2.95.29c3.71.36,5.58,2.3,5.58,5.5C194.28,186.64,190.75,188.62,186.33,188.62Zm17.89,0c-2.95,0-5.58-.32-8-2.7l3.06-3.06a6.75,6.75,0,0,0,5,1.77c1.62,0,3.31-.54,3.31-1.94,0-.94-.47-1.59-2-1.73l-3-.29c-3.31-.32-5.4-1.8-5.4-5.26,0-3.92,3.42-6,7.23-6,3,0,5.37.54,7.17,2.19l-2.88,2.92a6.47,6.47,0,0,0-4.36-1.26c-1.87,0-2.66.86-2.66,1.8s.54,1.48,1.94,1.62l3,.29c3.71.36,5.58,2.3,5.58,5.5C212.17,186.64,208.65,188.62,204.22,188.62Zm34-1.69a6.27,6.27,0,0,1-4.53,1.69,5.5,5.5,0,0,1-4.54-1.87v8.53h-4.68V169.65H229v1.77a5.64,5.64,0,0,1,4.68-2,6.27,6.27,0,0,1,4.53,1.69c1.8,1.84,1.94,4.75,1.94,7.88S240,185.1,238.2,186.93Zm-5.9-13.28c-2.81,0-3.17,2.34-3.17,5.36s.36,5.4,3.17,5.4,3.17-2.37,3.17-5.4S235.11,173.65,232.3,173.65Zm16,6.84a3.83,3.83,0,0,0,4.11,4.17,5.28,5.28,0,0,0,4.24-1.76l2.85,2.77a8.81,8.81,0,0,1-7.13,3c-4.43,0-8.68-2-8.68-9.61,0-6.12,3.32-9.57,8.18-9.57,5.22,0,8.17,3.74,8.17,9.07v2Zm6.7-5.22a3.5,3.5,0,0,0-6.27,0,4.71,4.71,0,0,0-.43,2h7.13A4.71,4.71,0,0,0,255,175.27Zm19.55-.5a3.14,3.14,0,0,0-2.49-1.12c-1.44,0-3,1.08-3,3.46v11.3h-4.68V169.65h4.57v1.8a6.35,6.35,0,0,1,4.72-2,5.66,5.66,0,0,1,4.42,1.76Zm12,13.85c-2.95,0-5.58-.32-8-2.7l3.06-3.06a6.77,6.77,0,0,0,5,1.77c1.62,0,3.31-.54,3.31-1.94,0-.94-.47-1.59-2-1.73l-3-.29c-3.31-.32-5.4-1.8-5.4-5.26,0-3.92,3.42-6,7.24-6,2.95,0,5.36.54,7.16,2.19L291,174.55a6.46,6.46,0,0,0-4.35-1.26c-1.87,0-2.67.86-2.67,1.8s.54,1.48,1.95,1.62l2.95.29c3.71.36,5.58,2.3,5.58,5.5C294.47,186.64,290.94,188.62,286.51,188.62Zm24.84-2.3a7.85,7.85,0,0,1-5.83,2.3,7.74,7.74,0,0,1-5.79-2.3c-1.7-1.8-2.13-3.92-2.13-7.31s.43-5.47,2.13-7.27a8.49,8.49,0,0,1,11.62,0c1.69,1.8,2.13,3.89,2.13,7.27S313.08,184.56,311.35,186.32Zm-3.63-11.84a3,3,0,0,0-2.2-.83,2.93,2.93,0,0,0-2.16.83c-1,.93-1.08,2.63-1.08,4.53s.11,3.64,1.08,4.57a2.93,2.93,0,0,0,2.16.83,3,3,0,0,0,2.2-.83c1-.93,1.08-2.62,1.08-4.57S308.69,175.41,307.72,174.48Zm21.13,13.93V177.07c0-2.56-1.62-3.42-3.1-3.42s-3.13.86-3.13,3.42v11.34h-4.68V169.65h4.57v1.73a6.44,6.44,0,0,1,4.68-1.94,6.11,6.11,0,0,1,4.43,1.65,7,7,0,0,1,1.91,5.33v12Zm15.87.21c-3,0-5.58-.32-8-2.7l3.06-3.06a6.77,6.77,0,0,0,5,1.77c1.62,0,3.31-.54,3.31-1.94,0-.94-.47-1.59-2-1.73l-3-.29c-3.31-.32-5.39-1.8-5.39-5.26,0-3.92,3.42-6,7.23-6,2.95,0,5.36.54,7.16,2.19l-2.88,2.92a6.46,6.46,0,0,0-4.35-1.26c-1.87,0-2.66.86-2.66,1.8s.53,1.48,1.94,1.62l3,.29c3.71.36,5.58,2.3,5.58,5.5C352.68,186.64,349.15,188.62,344.72,188.62ZM56.1,227.1v-.95H66.78v.95Zm16.66,3.31v-10h1.07v9h5.09v.95Zm11.75,0v-.66a2.45,2.45,0,0,1-2,.74,2.49,2.49,0,0,1-2-.63,1.9,1.9,0,0,1-.51-1.4c0-1.22.85-2,2.39-2h2.06v-.66c0-1-.49-1.51-1.77-1.51a1.83,1.83,0,0,0-1.73.8l-.69-.63a2.65,2.65,0,0,1,2.44-1c1.86,0,2.76.82,2.76,2.3v4.68Zm0-3.18H82.59c-1,0-1.55.4-1.55,1.22s.49,1.17,1.59,1.17a2.06,2.06,0,0,0,1.53-.46,1.57,1.57,0,0,0,.35-1.19Zm7.81,3.18v-.77a2.51,2.51,0,0,1-1.95.85,2.43,2.43,0,0,1-1.77-.64,2.58,2.58,0,0,1-.7-1.93v-4.4h1v4.24c0,1.22.65,1.84,1.68,1.84a1.64,1.64,0,0,0,1.73-1.84v-4.24h1v6.89Zm7.37-5.58a1.47,1.47,0,0,0-1.19-.5,1.69,1.69,0,0,0-1.66,1.85v4.23h-1v-6.89h1v.84a2.31,2.31,0,0,1,1.93-.93,2.14,2.14,0,0,1,1.66.65Zm2.25,2.4c0,1.51.7,2.38,2,2.38a2.29,2.29,0,0,0,1.81-.78l.68.6a3.17,3.17,0,0,1-2.52,1.06c-1.83,0-3-1.09-3-3.53,0-2.24,1.08-3.53,2.83-3.53s2.83,1.28,2.83,3.35v.45Zm3.43-1.91a1.77,1.77,0,0,0-3.22,0,2.66,2.66,0,0,0-.21,1.15h3.65A2.8,2.8,0,0,0,105.37,225.32Zm7.77,5.09v-4.25a1.7,1.7,0,1,0-3.4,0v4.25h-1v-6.89h1v.75a2.48,2.48,0,0,1,1.93-.84,2.41,2.41,0,0,1,1.76.65,2.54,2.54,0,0,1,.72,1.92v4.41Zm10.23.08a3.41,3.41,0,0,1-2.49-1c-.94-.94-1-1.81-1-4.09s.06-3.15,1-4.09a3.41,3.41,0,0,1,2.49-1,3.38,3.38,0,0,1,3.46,3h-1.09a2.42,2.42,0,0,0-4.09-1.32c-.63.65-.7,1.38-.7,3.42s.07,2.77.7,3.42a2.44,2.44,0,0,0,4.12-1.32h1.06A3.37,3.37,0,0,1,123.37,230.49Zm9.54-.08v-.66a2.45,2.45,0,0,1-2,.74,2.49,2.49,0,0,1-1.95-.63,1.91,1.91,0,0,1-.52-1.4c0-1.22.86-2,2.4-2h2.06v-.66c0-1-.49-1.51-1.77-1.51a1.82,1.82,0,0,0-1.73.8l-.69-.63a2.65,2.65,0,0,1,2.44-1c1.86,0,2.76.82,2.76,2.3v4.68Zm0-3.18H131c-1,0-1.56.4-1.56,1.22s.49,1.17,1.6,1.17a2.07,2.07,0,0,0,1.53-.46,1.61,1.61,0,0,0,.35-1.19Zm12.31,3.18v-4.25a1.71,1.71,0,1,0-3.42-.11v4.36h-1v-4.25a1.61,1.61,0,0,0-1.7-1.83,1.63,1.63,0,0,0-1.72,1.83v4.25h-1v-6.89h1v.75a2.52,2.52,0,0,1,1.95-.84,2.26,2.26,0,0,1,2.11,1.15,2.65,2.65,0,0,1,2.27-1.15,2.49,2.49,0,0,1,1.78.65,2.55,2.55,0,0,1,.74,1.92v4.41Zm8.08-.52a2.37,2.37,0,0,1-1.68.6,2.24,2.24,0,0,1-1.94-.89v3.89h-1v-10h1v.81a2.2,2.2,0,0,1,1.94-.9,2.37,2.37,0,0,1,1.68.6,5.47,5.47,0,0,1,0,5.86Zm-1.89-5.56c-1.51,0-1.73,1.29-1.73,2.63s.22,2.64,1.73,2.64,1.73-1.29,1.73-2.64S152.91,224.33,151.41,224.33Zm4.86,8.1v-3.25h1.23v2.14Zm7.39-2v-10h6.19v1h-5.12v3.51h4.37v1h-4.37v3.6h5.12v.95ZM176,233.49V229.6a2.22,2.22,0,0,1-1.94.89,2.37,2.37,0,0,1-1.68-.6,5.53,5.53,0,0,1,0-5.86,2.37,2.37,0,0,1,1.68-.6,2.24,2.24,0,0,1,2,.9v-.81h1v10Zm-1.72-9.16c-1.51,0-1.74,1.29-1.74,2.63s.23,2.64,1.74,2.64S176,228.31,176,227,175.76,224.33,174.26,224.33Zm9.61,6.08v-.77a2.53,2.53,0,0,1-2,.85,2.45,2.45,0,0,1-1.78-.64,2.58,2.58,0,0,1-.7-1.93v-4.4h1v4.24c0,1.22.64,1.84,1.68,1.84a1.63,1.63,0,0,0,1.72-1.84v-4.24h1v6.89Zm7.42,0v-.66a2.45,2.45,0,0,1-2,.74,2.47,2.47,0,0,1-2-.63,1.91,1.91,0,0,1-.52-1.4c0-1.22.86-2,2.4-2h2.06v-.66c0-1-.49-1.51-1.77-1.51a1.84,1.84,0,0,0-1.74.8l-.68-.63a2.65,2.65,0,0,1,2.44-1c1.86,0,2.75.82,2.75,2.3v4.68Zm0-3.18h-1.92c-1,0-1.56.4-1.56,1.22s.49,1.17,1.6,1.17a2.07,2.07,0,0,0,1.53-.46,1.61,1.61,0,0,0,.35-1.19Zm5.17,3.18a1.65,1.65,0,0,1-1.75-1.84v-8.14h1v8.1c0,.67.23,1,.93,1h.54v.87Zm7.23.08a3,3,0,0,1-2.28-.89l.71-.72a1.92,1.92,0,0,0,1.57.66c1.3,0,2-.83,2-2.3v-6.81h1.07v6.95A2.93,2.93,0,0,1,203.69,230.49Zm10-.08v-.77a2.51,2.51,0,0,1-1.94.85,2.44,2.44,0,0,1-1.78-.64,2.58,2.58,0,0,1-.7-1.93v-4.4h1v4.24c0,1.22.64,1.84,1.68,1.84a1.63,1.63,0,0,0,1.72-1.84v-4.24h1v6.89Zm5.69.08a3.74,3.74,0,0,1-2.83-1l.67-.67a2.84,2.84,0,0,0,2.14.79c1.15,0,1.84-.4,1.84-1.21,0-.62-.34-.94-1.15-1l-1.14-.1c-1.34-.11-2.05-.7-2.05-1.85s1.05-2,2.53-2a3.91,3.91,0,0,1,2.48.74l-.66.66a3,3,0,0,0-1.83-.54c-1,0-1.54.42-1.54,1.13s.37.93,1.23,1l1.08.1c1.2.11,2,.56,2,1.86S221.08,230.49,219.4,230.49Zm6.56-.08a1.69,1.69,0,0,1-1.76-1.85v-4.27h-.87v-.77h.87V221.4h1v2.12h1.47v.77h-1.47v4.24c0,.63.29,1,.93,1h.54v.87Zm2.66-8.85v-1.14h1.14v1.14Zm.06,8.85v-6.89h1v6.89Zm6.2.08c-1.74,0-3-1.17-3-3.53s1.31-3.53,3-3.53a2.71,2.71,0,0,1,2.27,1l-.69.64a1.87,1.87,0,0,0-1.58-.77,1.9,1.9,0,0,0-1.6.78,4.11,4.11,0,0,0,0,3.7,2,2,0,0,0,3.18,0l.69.66A2.73,2.73,0,0,1,234.88,230.49Zm4.62-3.26c0,1.51.7,2.38,2,2.38a2.29,2.29,0,0,0,1.81-.78l.68.6a3.16,3.16,0,0,1-2.52,1.06c-1.83,0-3-1.09-3-3.53,0-2.24,1.08-3.53,2.83-3.53s2.83,1.28,2.83,3.35v.45Zm3.43-1.91a1.77,1.77,0,0,0-3.22,0,2.66,2.66,0,0,0-.21,1.15h3.66A3,3,0,0,0,242.93,225.32Zm14.77,5.09h-1l-2.21-8-2.22,8h-1l-2.55-10h1.13l1.95,8,2.2-8H255l2.2,8,1.95-8h1.13Zm7.91-.7a2.89,2.89,0,0,1-3.95,0,3.71,3.71,0,0,1-.84-2.75,3.67,3.67,0,0,1,.84-2.74,2.86,2.86,0,0,1,3.95,0,3.67,3.67,0,0,1,.84,2.74A3.71,3.71,0,0,1,265.61,229.71Zm-.71-4.88a1.76,1.76,0,0,0-1.26-.5,1.74,1.74,0,0,0-1.25.5,4.33,4.33,0,0,0,0,4.26,1.71,1.71,0,0,0,1.25.51,1.73,1.73,0,0,0,1.26-.51,4.47,4.47,0,0,0,0-4.26Zm7.56,0a1.47,1.47,0,0,0-1.19-.5,1.69,1.69,0,0,0-1.66,1.85v4.23h-1v-6.89h1v.84a2.32,2.32,0,0,1,1.94-.93,2.13,2.13,0,0,1,1.65.65Zm6.58,5.58-2.19-3.53-1.34,1.54v2h-1v-10h1v6.67l3.11-3.58h1.26l-2.34,2.63,2.74,4.26Zm4.71.08a3.77,3.77,0,0,1-2.83-1l.68-.67a2.84,2.84,0,0,0,2.14.79c1.15,0,1.84-.4,1.84-1.21,0-.62-.34-.94-1.15-1l-1.14-.1c-1.34-.11-2.06-.7-2.06-1.85s1-2,2.54-2a3.93,3.93,0,0,1,2.48.74l-.66.66a3,3,0,0,0-1.84-.54c-1,0-1.54.42-1.54,1.13s.38.93,1.24,1l1.07.1c1.21.11,2,.56,2,1.86S285.43,230.49,283.75,230.49Zm12.17-.08v-.66a2.43,2.43,0,0,1-2,.74,2.49,2.49,0,0,1-1.95-.63,1.9,1.9,0,0,1-.51-1.4c0-1.22.85-2,2.39-2h2.06v-.66c0-1-.49-1.51-1.76-1.51a1.84,1.84,0,0,0-1.74.8l-.69-.63a2.67,2.67,0,0,1,2.44-1c1.86,0,2.76.82,2.76,2.3v4.68Zm0-3.18H294c-1,0-1.55.4-1.55,1.22s.49,1.17,1.59,1.17a2.06,2.06,0,0,0,1.53-.46,1.57,1.57,0,0,0,.35-1.19Zm5.39,3.18a1.69,1.69,0,0,1-1.77-1.85v-4.27h-.86v-.77h.86V221.4h1v2.12H302v.77h-1.47v4.24c0,.63.3,1,.94,1H302v.87Zm6.38,0v-10h1.07v10Zm8.19-.7a2.63,2.63,0,0,1-2,.78,2.67,2.67,0,0,1-2-.78,3.71,3.71,0,0,1-.84-2.75,3.67,3.67,0,0,1,.84-2.74,2.68,2.68,0,0,1,2-.79,2.64,2.64,0,0,1,2,.79,3.63,3.63,0,0,1,.84,2.74A3.67,3.67,0,0,1,315.88,229.71Zm-.71-4.88a1.76,1.76,0,0,0-1.26-.5,1.74,1.74,0,0,0-1.25.5,3,3,0,0,0-.56,2.13,3,3,0,0,0,.56,2.13,1.71,1.71,0,0,0,1.25.51,1.73,1.73,0,0,0,1.26-.51,4.4,4.4,0,0,0,0-4.26Zm10.12,5.58h-.94l-1.8-5.35-1.8,5.35h-.93l-2.19-6.89h1.09l1.59,5.53,1.8-5.53H323l1.82,5.53,1.57-5.53h1.09Zm7.42,0v-.66a2.42,2.42,0,0,1-2,.74,2.45,2.45,0,0,1-1.94-.63,1.91,1.91,0,0,1-.52-1.4c0-1.22.85-2,2.39-2h2.06v-.66c0-1-.49-1.51-1.76-1.51a1.84,1.84,0,0,0-1.74.8l-.69-.63a2.67,2.67,0,0,1,2.44-1c1.86,0,2.76.82,2.76,2.3v4.68Zm0-3.18h-1.92c-1,0-1.55.4-1.55,1.22s.49,1.17,1.6,1.17a2,2,0,0,0,1.52-.46,1.57,1.57,0,0,0,.35-1.19Zm7.13,3.18v-10h1.06v9H346v.95Zm8.47-3.18c0,1.51.7,2.38,2,2.38a2.25,2.25,0,0,0,1.8-.78l.69.6a3.17,3.17,0,0,1-2.52,1.06c-1.84,0-3-1.09-3-3.53,0-2.24,1.08-3.53,2.83-3.53s2.83,1.28,2.83,3.35v.45Zm3.43-1.91a1.73,1.73,0,0,0-1.61-1,1.71,1.71,0,0,0-1.61,1,2.52,2.52,0,0,0-.21,1.15H352A2.8,2.8,0,0,0,351.74,225.32Zm5.57,8.25a3,3,0,0,1-2.34-.92l.66-.65a2.1,2.1,0,0,0,1.65.69c1.33,0,1.89-.94,1.89-2.11V229.5a2.22,2.22,0,0,1-1.93.89,2.41,2.41,0,0,1-1.67-.61,5.34,5.34,0,0,1,0-5.75,2.43,2.43,0,0,1,1.68-.6,2.18,2.18,0,0,1,1.94.9v-.81h1v7.1A2.73,2.73,0,0,1,357.31,233.57Zm.15-9.24c-1.5,0-1.72,1.29-1.72,2.58s.22,2.57,1.72,2.57,1.71-1.29,1.71-2.57S359,224.33,357.46,224.33Zm9.15,6.08v-.66a2.45,2.45,0,0,1-2,.74,2.47,2.47,0,0,1-1.95-.63,1.91,1.91,0,0,1-.52-1.4c0-1.22.86-2,2.4-2h2.06v-.66c0-1-.49-1.51-1.77-1.51a1.84,1.84,0,0,0-1.74.8l-.68-.63a2.64,2.64,0,0,1,2.43-1c1.87,0,2.76.82,2.76,2.3v4.68Zm0-3.18h-1.92c-1,0-1.56.4-1.56,1.22s.49,1.17,1.6,1.17a2,2,0,0,0,1.52-.46,1.57,1.57,0,0,0,.36-1.19Zm5.17,3.18a1.65,1.65,0,0,1-1.75-1.84v-8.14h1v8.1c0,.67.23,1,.93,1h.54v.87Zm11.88,0-.8-2.26H378.5l-.79,2.26h-1.14l3.67-10h.9l3.65,10Zm-3-8.45-1.87,5.27h3.72Zm5.46-.4v-1.14h1.13v1.14Zm.06,8.85v-6.89h1v6.89Zm7.64,0v-.83a2.2,2.2,0,0,1-2,.91,2.41,2.41,0,0,1-1.68-.6,5.53,5.53,0,0,1,0-5.86,2.41,2.41,0,0,1,1.68-.6,2.23,2.23,0,0,1,2,.88v-3.88h1v10Zm-1.73-6.08c-1.52,0-1.74,1.29-1.74,2.63s.22,2.64,1.74,2.64,1.72-1.29,1.72-2.64S393.63,224.33,392.13,224.33ZM46.6,449.11V421.65l-7,6.05V421l7-6.05h6.24v34.18Zm28.71-29.28v-5.09h6.38v5.09Zm.09,29.28V424.82h6.24v24.29Zm27.75,0V434c0-3.41-2.16-4.56-4.13-4.56s-4.18,1.15-4.18,4.56v15.12H88.6v-25h6.1v2.31a8.56,8.56,0,0,1,6.24-2.6,8.11,8.11,0,0,1,5.9,2.21c2,2,2.55,4.37,2.55,7.11v16Zm41.28-2.49a10.35,10.35,0,0,1-7.54,2.78,10.66,10.66,0,0,1-7.63-2.74c-2.11-2.11-2.59-4.61-2.79-7.1h6.24c.34,2.69,1.59,4.22,4.18,4.22a4,4,0,0,0,3-1.1c1.1-1.11,1.34-2.93,1.34-5.09,0-3.94-1.15-6.14-4.17-6.14a4,4,0,0,0-4.13,2.78h-5.72v-19.3h19.49v5.62H132.86v7.34a7.85,7.85,0,0,1,5.14-1.72,8.8,8.8,0,0,1,6.38,2.3c2.69,2.69,3.07,5.9,3.07,9.12C147.45,441.43,146.92,444.12,144.43,446.62ZM18.66,471.11v-6.18a2,2,0,0,0-2-2.26,2,2,0,0,0-2.1,2.26v6.18h-2V456.87h2V462a3.48,3.48,0,0,1,2.66-1.14,3.52,3.52,0,0,1,2.5.92,3.72,3.72,0,0,1,1,2.86v6.48Zm12-1.08a4.1,4.1,0,0,1-3,1.2,4.06,4.06,0,0,1-3-1.2c-1-1-1.2-2.28-1.2-4a5.32,5.32,0,0,1,1.2-4,4.06,4.06,0,0,1,3-1.2,4.1,4.1,0,0,1,3,1.2,5.32,5.32,0,0,1,1.2,4C31.82,467.75,31.58,469,30.62,470Zm-1.54-6.78a2.07,2.07,0,0,0-1.5-.58,2,2,0,0,0-1.48.58,5.87,5.87,0,0,0,0,5.56,2,2,0,0,0,1.48.6,2.08,2.08,0,0,0,1.5-.6,5.87,5.87,0,0,0,0-5.56Zm17.86,7.86v-6.18a2,2,0,0,0-2-2.26,2,2,0,0,0-2.1,2.16v6.28h-2v-6.18a2,2,0,0,0-2-2.26,2,2,0,0,0-2.1,2.26v6.18h-2V461h2v1a3.67,3.67,0,0,1,2.7-1.14,3.24,3.24,0,0,1,2.88,1.48,3.85,3.85,0,0,1,3.18-1.48,3.67,3.67,0,0,1,2.56.92A3.77,3.77,0,0,1,49,464.63v6.48Zm6.68-4.48c0,1.76.9,2.84,2.58,2.84a3,3,0,0,0,2.46-1l1.3,1.22a4.76,4.76,0,0,1-3.8,1.58c-2.54,0-4.56-1.34-4.56-5.2,0-3.3,1.7-5.18,4.3-5.18s4.3,2,4.3,4.92v.86Zm4.28-2.8a2.22,2.22,0,0,0-4,0,3.15,3.15,0,0,0-.26,1.38h4.56A3.45,3.45,0,0,0,57.9,463.83Zm7.72,7.28a2.58,2.58,0,0,1-2.78-2.8V456.87h2v11.32c0,.78.28,1.18,1.1,1.18h.9v1.74Zm4.82-4.48c0,1.76.9,2.84,2.58,2.84a3,3,0,0,0,2.46-1l1.3,1.22a4.76,4.76,0,0,1-3.8,1.58c-2.54,0-4.56-1.34-4.56-5.2,0-3.3,1.7-5.18,4.3-5.18s4.3,2,4.3,4.92v.86Zm4.28-2.8a2.22,2.22,0,0,0-4,0,3.15,3.15,0,0,0-.26,1.38H75A3.45,3.45,0,0,0,74.72,463.83Zm8.28,7.4a5.58,5.58,0,0,1-4.26-1.46l1.34-1.34A3.94,3.94,0,0,0,83,469.49c1.26,0,2.22-.44,2.22-1.4,0-.7-.38-1.1-1.36-1.2l-1.62-.14c-1.92-.18-3-1-3-2.8,0-2,1.7-3.1,3.82-3.1A5.53,5.53,0,0,1,86.82,462l-1.28,1.3a3.83,3.83,0,0,0-2.5-.74c-1.24,0-1.84.52-1.84,1.3s.4,1.06,1.4,1.16l1.42.12c2.1.18,3.2,1.1,3.2,2.88C87.22,470.13,85.42,471.23,83,471.23Zm9.9,0a5.58,5.58,0,0,1-4.26-1.46L90,468.43a3.94,3.94,0,0,0,2.92,1.06c1.26,0,2.22-.44,2.22-1.4,0-.7-.38-1.1-1.36-1.2l-1.62-.14c-1.92-.18-3-1-3-2.8,0-2,1.7-3.1,3.82-3.1A5.53,5.53,0,0,1,96.72,462l-1.28,1.3a3.83,3.83,0,0,0-2.5-.74c-1.24,0-1.84.52-1.84,1.3s.4,1.06,1.4,1.16l1.42.12c2.1.18,3.2,1.1,3.2,2.88C97.12,470.13,95.32,471.23,92.9,471.23Zm14.68,1.9a3.28,3.28,0,0,1-.74,1.26,2.81,2.81,0,0,1-2.08.74h-.82v-1.84h.52c.86,0,1.16-.26,1.46-1.08l.56-1.58L102.94,461h2.16l2.42,7.14,2.36-7.14h2.18Zm12.76-3.1a4.1,4.1,0,0,1-3,1.2,4.06,4.06,0,0,1-3-1.2c-1-1-1.2-2.28-1.2-4a5.32,5.32,0,0,1,1.2-4,4.06,4.06,0,0,1,3-1.2,4.1,4.1,0,0,1,3,1.2,5.32,5.32,0,0,1,1.2,4C121.54,467.75,121.3,469,120.34,470Zm-1.54-6.78a2.07,2.07,0,0,0-1.5-.58,2,2,0,0,0-1.48.58,5.87,5.87,0,0,0,0,5.56,2,2,0,0,0,1.48.6,2.08,2.08,0,0,0,1.5-.6,5.87,5.87,0,0,0,0-5.56Zm11.62,7.86v-1a3.63,3.63,0,0,1-2.7,1.14,3.52,3.52,0,0,1-2.5-.92,3.72,3.72,0,0,1-1-2.86V461h2v6.18a2,2,0,0,0,2,2.26,2,2,0,0,0,2.1-2.26V461h2v10.14Zm8.26,0a2.64,2.64,0,0,1-2.78-2.82v-5.76h-1.16V461h1.16v-2.9h2V461h2v1.56h-2v5.66a1,1,0,0,0,1.12,1.18h.84v1.74Zm10,0v-6.18a2,2,0,0,0-2-2.26,2,2,0,0,0-2.1,2.26v6.18h-2V456.87h2V462a3.48,3.48,0,0,1,2.66-1.14,3.52,3.52,0,0,1,2.5.92,3.72,3.72,0,0,1,1,2.86v6.48ZM158.6,459v-2.16h2.16V459Zm.06,12.14V461h2v10.14Zm11.46,0v-6.18a2,2,0,0,0-2-2.26,2,2,0,0,0-2.1,2.26v6.18h-2V461h2v1a3.63,3.63,0,0,1,2.7-1.14,3.52,3.52,0,0,1,2.5.92,3.72,3.72,0,0,1,1,2.86v6.48ZM4.7,493.11a2.64,2.64,0,0,1-2.78-2.82v-5.76H.76V483H1.92v-2.9H4V483h2v1.56H4v5.66a1,1,0,0,0,1.12,1.18h.84v1.74Zm10,0v-6.18a2,2,0,0,0-2-2.26,2,2,0,0,0-2.1,2.26v6.18h-2V478.87h2V484a3.48,3.48,0,0,1,2.66-1.14,3.52,3.52,0,0,1,2.5.92,3.72,3.72,0,0,1,1,2.86v6.48Zm6.68-4.48c0,1.76.9,2.84,2.58,2.84a3,3,0,0,0,2.46-1l1.3,1.22a4.76,4.76,0,0,1-3.8,1.58c-2.54,0-4.56-1.34-4.56-5.2,0-3.3,1.7-5.18,4.3-5.18s4.3,2,4.3,4.92v.86Zm4.28-2.8a2.22,2.22,0,0,0-4,0,3.15,3.15,0,0,0-.26,1.38h4.56A3.45,3.45,0,0,0,25.66,485.83Zm14.92,7.4a4.83,4.83,0,0,1-5.1-4.92v-9.44h2.16v9.34a3,3,0,1,0,5.9,0v-9.34H45.7v9.44A4.84,4.84,0,0,1,40.58,493.23Zm12.4,0a6.47,6.47,0,0,1-5-1.88l1.42-1.42A4.79,4.79,0,0,0,53,491.31c1.88,0,2.94-.8,2.94-2.2a1.82,1.82,0,0,0-.56-1.48,2.81,2.81,0,0,0-1.56-.6l-1.68-.24a4.81,4.81,0,0,1-2.68-1.14,3.54,3.54,0,0,1-1.06-2.74c0-2.48,1.8-4.16,4.76-4.16a5.9,5.9,0,0,1,4.42,1.62l-1.36,1.36a4.25,4.25,0,0,0-3.14-1.1c-1.68,0-2.58.92-2.58,2.22a1.65,1.65,0,0,0,.52,1.32,2.77,2.77,0,0,0,1.56.64l1.7.26a4.63,4.63,0,0,1,2.64,1.06,3.79,3.79,0,0,1,1.16,2.92C58.1,491.67,56,493.23,53,493.23Zm18-.12v-.92a3.34,3.34,0,0,1-2.7,1,3.58,3.58,0,0,1-2.72-.92,3.11,3.11,0,0,1-.8-2.18c0-1.7,1.18-2.92,3.52-2.92H71v-.72c0-1.3-.62-1.9-2.22-1.9a2.45,2.45,0,0,0-2.22,1l-1.32-1.26a4.09,4.09,0,0,1,3.62-1.48c2.8,0,4.18,1.2,4.18,3.48v6.78Zm0-4.48H68.64c-1.24,0-1.86.52-1.86,1.46s.58,1.44,1.92,1.44a2.44,2.44,0,0,0,1.84-.58,2,2,0,0,0,.44-1.5Zm10.76-3.28a1.88,1.88,0,0,0-1.52-.68,2.09,2.09,0,0,0-2,2.28v6.16h-2V483h2v1.1a3.37,3.37,0,0,1,2.7-1.22,3.14,3.14,0,0,1,2.42,1Zm4.1,3.28c0,1.76.9,2.84,2.58,2.84a3,3,0,0,0,2.46-1l1.3,1.22a4.76,4.76,0,0,1-3.8,1.58c-2.54,0-4.56-1.34-4.56-5.2,0-3.3,1.7-5.18,4.3-5.18s4.3,2,4.3,4.92v.86Zm4.28-2.8a2.22,2.22,0,0,0-4,0,3.15,3.15,0,0,0-.26,1.38H90.4A3.45,3.45,0,0,0,90.12,485.83Zm13.72,7.28h-1.66L98.46,483h2.16l2.4,7.14L105.4,483h2.16ZM109.28,481v-2.16h2.16V481Zm.06,12.14V483h2v10.14Zm9.28.12c-2.28,0-4.52-1.4-4.52-5.2s2.24-5.18,4.52-5.18a4.16,4.16,0,0,1,3.34,1.42l-1.4,1.36a2.36,2.36,0,0,0-1.94-1,2.29,2.29,0,0,0-1.88.9,3.75,3.75,0,0,0-.6,2.46,3.81,3.81,0,0,0,.6,2.48,2.29,2.29,0,0,0,1.88.9,2.36,2.36,0,0,0,1.94-1l1.4,1.34A4.18,4.18,0,0,1,118.62,493.23Zm8.72-.12a2.64,2.64,0,0,1-2.78-2.82v-5.76H123.4V483h1.16v-2.9h2V483h2v1.56h-2v5.66a1,1,0,0,0,1.12,1.18h.84v1.74ZM131.1,481v-2.16h2.16V481Zm.06,12.14V483h2v10.14Zm17.64,0v-6.18a2,2,0,0,0-2-2.26,2,2,0,0,0-2.1,2.16v6.28h-2v-6.18a2,2,0,0,0-2-2.26,2,2,0,0,0-2.1,2.26v6.18h-2V483h2v1a3.67,3.67,0,0,1,2.7-1.14,3.24,3.24,0,0,1,2.88,1.48,3.85,3.85,0,0,1,3.18-1.48,3.67,3.67,0,0,1,2.56.92,3.77,3.77,0,0,1,1.08,2.86v6.48Zm8.46.12a5.58,5.58,0,0,1-4.26-1.46l1.34-1.34a3.94,3.94,0,0,0,2.92,1.06c1.26,0,2.22-.44,2.22-1.4,0-.7-.38-1.1-1.36-1.2l-1.62-.14c-1.92-.18-3-1-3-2.8,0-2,1.7-3.1,3.82-3.1a5.53,5.53,0,0,1,3.76,1.14l-1.28,1.3a3.83,3.83,0,0,0-2.5-.74c-1.24,0-1.84.52-1.84,1.3s.4,1.06,1.4,1.16l1.42.12c2.1.18,3.2,1.1,3.2,2.88C161.48,492.13,159.68,493.23,157.26,493.23Zm18.28-1.2a4.1,4.1,0,0,1-3,1.2,4.06,4.06,0,0,1-3-1.2c-1-1-1.2-2.28-1.2-4a5.32,5.32,0,0,1,1.2-4,4.06,4.06,0,0,1,3-1.2,4.1,4.1,0,0,1,3,1.2,5.32,5.32,0,0,1,1.2,4C176.74,489.75,176.5,491,175.54,492ZM174,485.25a2.07,2.07,0,0,0-1.5-.58,2,2,0,0,0-1.48.58,5.87,5.87,0,0,0,0,5.56,2,2,0,0,0,1.48.6,2.08,2.08,0,0,0,1.5-.6,5.87,5.87,0,0,0,0-5.56Zm7.86-.72v8.58h-2v-8.58h-1.16V483h1.16v-1.38a2.64,2.64,0,0,1,2.78-2.82h1.28v1.74H183a1,1,0,0,0-1.12,1.18V483h2v1.56ZM50.54,515.11a2.64,2.64,0,0,1-2.78-2.82v-5.76H46.6V505h1.16v-2.9h2V505h2v1.56h-2v5.66a1,1,0,0,0,1.12,1.18h.84v1.74Zm9.4-7.76a1.88,1.88,0,0,0-1.52-.68,2.09,2.09,0,0,0-2,2.28v6.16h-2V505h2v1.1a3.37,3.37,0,0,1,2.7-1.22,3.14,3.14,0,0,1,2.42,1Zm8.46,7.76v-.92a3.34,3.34,0,0,1-2.7,1,3.58,3.58,0,0,1-2.72-.92,3.11,3.11,0,0,1-.8-2.18c0-1.7,1.18-2.92,3.52-2.92h2.66v-.72c0-1.3-.62-1.9-2.22-1.9a2.45,2.45,0,0,0-2.22,1l-1.32-1.26a4.09,4.09,0,0,1,3.62-1.48c2.8,0,4.18,1.2,4.18,3.48v6.78Zm0-4.48H66c-1.24,0-1.86.52-1.86,1.46s.58,1.44,1.92,1.44a2.44,2.44,0,0,0,1.84-.58,2,2,0,0,0,.44-1.5Zm7.54-4.1v8.58h-2v-8.58H72.7V505h1.16v-1.38a2.64,2.64,0,0,1,2.78-2.82h1.28v1.74H77a1,1,0,0,0-1.12,1.18V505h2v1.56Zm6.56,0v8.58h-2v-8.58H79.26V505h1.16v-1.38a2.64,2.64,0,0,1,2.78-2.82h1.28v1.74h-.9a1,1,0,0,0-1.12,1.18V505h2v1.56ZM86.6,503v-2.16h2.16V503Zm.06,12.14V505h2v10.14Zm9.28.12c-2.28,0-4.52-1.4-4.52-5.2s2.24-5.18,4.52-5.18a4.16,4.16,0,0,1,3.34,1.42l-1.4,1.36a2.36,2.36,0,0,0-1.94-1,2.29,2.29,0,0,0-1.88.9,3.75,3.75,0,0,0-.6,2.46,3.81,3.81,0,0,0,.6,2.48,2.29,2.29,0,0,0,1.88.9,2.36,2.36,0,0,0,1.94-1l1.4,1.34A4.18,4.18,0,0,1,95.94,515.23Zm12.08-.12-2.84-4.68-1.5,1.7v3h-2V500.87h2v8.78l3.94-4.68h2.48l-3.52,4,4,6.16ZM112.54,503v-2.16h2.16V503Zm.06,12.14V505h2v10.14Zm11.46,0v-6.18a2,2,0,0,0-2-2.26,2,2,0,0,0-2.1,2.26v6.18h-2V505h2v1a3.63,3.63,0,0,1,2.7-1.14,3.52,3.52,0,0,1,2.5.92,3.72,3.72,0,0,1,1,2.86v6.48Zm8.58,4.22a4.69,4.69,0,0,1-3.58-1.34l1.3-1.3a2.85,2.85,0,0,0,2.2.9,2.29,2.29,0,0,0,2.38-2.58v-1.3a3.13,3.13,0,0,1-2.62,1.16,3.36,3.36,0,0,1-2.42-.9c-1-1-1.14-2.4-1.14-4.12s.16-3.14,1.14-4.12a3.4,3.4,0,0,1,2.44-.88,3.11,3.11,0,0,1,2.66,1.2V505h2v10.08A4.07,4.07,0,0,1,132.64,519.33Zm.24-12.66c-1.84,0-2.08,1.58-2.08,3.18S131,513,132.88,513s2.06-1.58,2.06-3.18S134.72,506.67,132.88,506.67ZM33.07,348.49c0-2.32.11-4.86-.89-7C31.05,339,28.52,338,26,337.56a40.66,40.66,0,0,0-6.71-.31H11.72c-3.13,0-7,.13-9.44,2.4C-.53,342.28.05,346.82.05,350.31v11c0,1.42-.31,3.35.65,4.53a3,3,0,0,0,4.78-.17A3.56,3.56,0,0,0,6,363.54V347.63a2.43,2.43,0,0,1,.19-1.36,1.15,1.15,0,0,1,2.08.72v52.09c0,3.81,5.65,4.61,6.67.92a11.93,11.93,0,0,0,.13-3.1V370.64c0-1.2-.08-3.45,1.92-2.86,1.34.4,1.06,2.09,1.06,3.17v26.29c0,1.18-.16,2.51.46,3.56A3.43,3.43,0,0,0,24.85,399V347a1.13,1.13,0,0,1,2.25-.06c0,.33,0,.68,0,1v15.81a3.14,3.14,0,0,0,1.12,2.59,3,3,0,0,0,4.63-1.21c.5-1.25.21-3.05.21-4.36v-10.7c0-.52,0-1,0-1.56m-9.49-20.1a7,7,0,1,1-7-7,7,7,0,0,1,7,7m339.74,15.82-6.59-10v10h-2.16V330h2l6.59,10V330h2.16v14.24Zm6.95-4.48c0,1.76.9,2.84,2.58,2.84a3,3,0,0,0,2.47-1l1.3,1.22a4.78,4.78,0,0,1-3.81,1.58c-2.54,0-4.56-1.34-4.56-5.2,0-3.3,1.7-5.18,4.3-5.18s4.31,2,4.31,4.92v.86Zm4.28-2.8a2.22,2.22,0,0,0-4,0,3.15,3.15,0,0,0-.26,1.38h4.57A3.62,3.62,0,0,0,374.55,336.93ZM385,344.21v-.92a3.31,3.31,0,0,1-2.7,1,3.58,3.58,0,0,1-2.72-.92,3.11,3.11,0,0,1-.8-2.18c0-1.7,1.18-2.92,3.52-2.92H385v-.72c0-1.3-.62-1.9-2.22-1.9a2.45,2.45,0,0,0-2.22,1l-1.32-1.26a4.1,4.1,0,0,1,3.63-1.48c2.79,0,4.18,1.2,4.18,3.48v6.78Zm0-4.48h-2.34c-1.24,0-1.86.52-1.86,1.46s.58,1.44,1.92,1.44a2.45,2.45,0,0,0,1.85-.58,2,2,0,0,0,.43-1.5Zm10.76-3.28a1.87,1.87,0,0,0-1.52-.68,2.09,2.09,0,0,0-2,2.28v6.16h-2V334.07h2v1.1a3.37,3.37,0,0,1,2.7-1.22,3.15,3.15,0,0,1,2.43,1Zm5.92,7.76a2.58,2.58,0,0,1-2.78-2.8V330h2v11.32c0,.78.28,1.18,1.1,1.18h.91v1.74Zm6.1,2a3.28,3.28,0,0,1-.74,1.26,2.81,2.81,0,0,1-2.08.74h-.82v-1.84h.52c.86,0,1.16-.26,1.46-1.08l.56-1.58-3.54-9.66h2.16l2.42,7.14,2.36-7.14h2.19Zm-66.67,48v-14.3H329.51v14.3h-6.67V360h6.67v14h11.57V360h6.67v34.17Zm27,0v-2.16a7.61,7.61,0,0,1-6.15,2.4c-2.83,0-4.94-.76-6.38-2.2a8,8,0,0,1-2.07-5.62c0-4,2.74-7.25,8.65-7.25h5.8v-1.25c0-2.73-1.34-3.93-4.65-3.93a5.51,5.51,0,0,0-4.8,2.16l-3.94-3.89c2.45-2.69,4.8-3.55,9-3.55,7.05,0,10.65,3,10.65,8.83v16.46Zm-.15-10.56h-4.75c-2.49,0-3.7,1-3.7,2.88s1.21,2.84,3.8,2.84a4.77,4.77,0,0,0,3.69-1.2c.72-.63,1-1.59,1-3.17Zm20,10.56c-5.14,0-7.3-3.6-7.3-7.15V360h6.24v26.64c0,1.49.63,2.25,2.21,2.25h2.4v5.28Zm15.55-19.53v19.53h-6.24V374.68h-2.59v-4.76h2.59V366.8c0-3.55,2.21-7.15,7.3-7.15h3.55v5.28h-2.45c-1.49,0-2.16.82-2.16,2.26v2.73h4.61v4.76Zm33.36,19.53v-2.16a7.59,7.59,0,0,1-6.14,2.4c-2.84,0-4.95-.76-6.39-2.2a8,8,0,0,1-2.06-5.62c0-4,2.73-7.25,8.64-7.25h5.81v-1.25c0-2.73-1.35-3.93-4.66-3.93a5.51,5.51,0,0,0-4.8,2.16l-3.94-3.89c2.45-2.69,4.8-3.55,9-3.55,7.06,0,10.66,3,10.66,8.83v16.46Zm-.14-10.56h-4.76c-2.49,0-3.69,1-3.69,2.88s1.2,2.84,3.79,2.84a4.79,4.79,0,0,0,3.7-1.2c.72-.63,1-1.59,1-3.17Zm-101,60.56V424.29l-6.53,13h-4.51l-6.58-13v19.92h-6.67V410H318L327,428.52,335.83,410h6.57v34.17Zm14.06-29.28v-5.09h6.39v5.09Zm.1,29.28V419.92h6.24v24.29Zm20.25,0c-5.13,0-7.29-3.6-7.29-7.15V410h6.24v26.64c0,1.49.62,2.25,2.21,2.25h2.4v5.28Zm15.6,0c-5.13,0-7.29-3.6-7.29-7.15V410h6.24v26.64c0,1.49.62,2.25,2.21,2.25h2.4v5.28Zm8.45-29.28v-5.09h6.39v5.09Zm.1,29.28V419.92h6.24v24.29Zm30.48-2.78A10.47,10.47,0,0,1,417,444.5a10.34,10.34,0,0,1-7.73-3.07c-2.25-2.4-2.83-5.23-2.83-9.75s.58-7.29,2.83-9.69a11.33,11.33,0,0,1,15.51,0c2.25,2.4,2.83,5.18,2.83,9.69S427.07,439.08,424.77,441.43Zm-4.85-15.79a4.36,4.36,0,0,0-5.81,0c-1.29,1.24-1.44,3.5-1.44,6s.15,4.85,1.44,6.1a4.36,4.36,0,0,0,5.81,0c1.3-1.25,1.44-3.5,1.44-6.1S421.22,426.88,419.92,425.64Zm28.18,18.57V429.09c0-3.41-2.16-4.56-4.13-4.56s-4.18,1.15-4.18,4.56v15.12h-6.24v-25h6.1v2.31a8.54,8.54,0,0,1,6.24-2.59,8.12,8.12,0,0,1,5.9,2.2c2,2,2.55,4.37,2.55,7.11v16Zm-147,22.12a4.83,4.83,0,0,1-5.1-4.92V452h2.16v9.34a3,3,0,1,0,5.9,0V452h2.16v9.44A4.84,4.84,0,0,1,301.06,466.33Zm12.4,0a6.47,6.47,0,0,1-5-1.88l1.42-1.42a4.79,4.79,0,0,0,3.66,1.38c1.88,0,2.94-.8,2.94-2.2a1.82,1.82,0,0,0-.56-1.48,2.81,2.81,0,0,0-1.56-.6l-1.68-.24a4.81,4.81,0,0,1-2.68-1.14A3.54,3.54,0,0,1,308.9,456c0-2.48,1.8-4.16,4.76-4.16a5.9,5.9,0,0,1,4.42,1.62l-1.36,1.36a4.25,4.25,0,0,0-3.14-1.1c-1.68,0-2.58.92-2.58,2.22a1.65,1.65,0,0,0,.52,1.32,2.77,2.77,0,0,0,1.56.64l1.7.26a4.63,4.63,0,0,1,2.64,1.06,3.79,3.79,0,0,1,1.16,2.92C318.58,464.77,316.46,466.33,313.46,466.33Zm17.48-6v5.86h-2.16v-5.86L324.51,452h2.37l3,6.26,3-6.26h2.36Zm11.48,4.78a4.1,4.1,0,0,1-3,1.2,4.06,4.06,0,0,1-3-1.2c-1-1-1.2-2.28-1.2-4s.23-3,1.2-4a4.06,4.06,0,0,1,3-1.2,4.1,4.1,0,0,1,3,1.2,5.32,5.32,0,0,1,1.2,4C343.62,462.85,343.38,464.13,342.42,465.13Zm-1.54-6.78a2.07,2.07,0,0,0-1.5-.58,2,2,0,0,0-1.48.58,5.87,5.87,0,0,0,0,5.56,2,2,0,0,0,1.48.6,2.08,2.08,0,0,0,1.5-.6,5.87,5.87,0,0,0,0-5.56Zm11.62,7.86v-1a3.63,3.63,0,0,1-2.7,1.14,3.52,3.52,0,0,1-2.5-.92,3.72,3.72,0,0,1-1-2.86v-6.48h2v6.18a2,2,0,0,0,2,2.26,2,2,0,0,0,2.1-2.26v-6.18h2v10.14Zm8.25,0a2.64,2.64,0,0,1-2.78-2.82v-5.76h-1.16v-1.56H358v-2.9h2v2.9h2v1.56h-2v5.66a1,1,0,0,0,1.13,1.18H362v1.74Zm10,0V460a2,2,0,0,0-2.05-2.26,2,2,0,0,0-2.09,2.26v6.18h-2.05V452h2.05v5.12a3.46,3.46,0,0,1,2.66-1.14,3.52,3.52,0,0,1,2.5.92,3.72,3.72,0,0,1,1,2.86v6.48Zm15.44,0v-.92a3.34,3.34,0,0,1-2.7,1,3.61,3.61,0,0,1-2.73-.92,3.11,3.11,0,0,1-.8-2.18c0-1.7,1.18-2.92,3.53-2.92h2.66v-.72c0-1.3-.62-1.9-2.22-1.9a2.47,2.47,0,0,0-2.23,1l-1.32-1.26A4.11,4.11,0,0,1,384,456c2.8,0,4.18,1.2,4.18,3.48v6.78Zm0-4.48h-2.34c-1.24,0-1.86.52-1.86,1.46s.58,1.44,1.92,1.44a2.44,2.44,0,0,0,1.84-.58,2,2,0,0,0,.44-1.5Zm10.76-3.28a1.88,1.88,0,0,0-1.52-.68,2.08,2.08,0,0,0-2,2.28v6.16h-2.05V456.07h2v1.1A3.34,3.34,0,0,1,396,456a3.14,3.14,0,0,1,2.42,1Zm4.09,3.28c0,1.76.9,2.84,2.58,2.84a3,3,0,0,0,2.47-1l1.3,1.22a4.77,4.77,0,0,1-3.81,1.58c-2.54,0-4.56-1.34-4.56-5.2,0-3.3,1.7-5.18,4.3-5.18s4.31,2,4.31,4.92v.86Zm4.28-2.8a2.22,2.22,0,0,0-4,0,3.15,3.15,0,0,0-.26,1.38h4.57A3.28,3.28,0,0,0,405.29,458.93Zm15.26,7.28v-.92a3.31,3.31,0,0,1-2.7,1,3.58,3.58,0,0,1-2.72-.92,3.11,3.11,0,0,1-.8-2.18c0-1.7,1.18-2.92,3.52-2.92h2.67v-.72c0-1.3-.63-1.9-2.23-1.9a2.45,2.45,0,0,0-2.22,1l-1.32-1.26a4.1,4.1,0,0,1,3.63-1.48c2.79,0,4.18,1.2,4.18,3.48v6.78Zm0-4.48h-2.35c-1.24,0-1.86.52-1.86,1.46s.58,1.44,1.92,1.44a2.45,2.45,0,0,0,1.85-.58,2,2,0,0,0,.44-1.5Zm8.19,4.48a2.64,2.64,0,0,1-2.78-2.82v-5.76h-1.16v-1.56h1.16v-2.9h2v2.9h2v1.56h-2v5.66a1,1,0,0,0,1.12,1.18h.84v1.74Zm14.2-7.76a1.88,1.88,0,0,0-1.52-.68,2.09,2.09,0,0,0-2,2.28v6.16h-2V456.07h2v1.1A3.37,3.37,0,0,1,442,456a3.17,3.17,0,0,1,2.43,1Zm3.14-4.38v-2.16h2.16v2.16Zm.06,12.14V456.07h2v10.14Zm8.56.12a5.58,5.58,0,0,1-4.26-1.46l1.34-1.34a3.94,3.94,0,0,0,2.92,1.06c1.26,0,2.22-.44,2.22-1.4,0-.7-.38-1.1-1.36-1.2l-1.62-.14c-1.92-.18-3-1-3-2.8,0-2,1.7-3.1,3.82-3.1a5.53,5.53,0,0,1,3.76,1.14l-1.28,1.3a3.83,3.83,0,0,0-2.5-.74c-1.24,0-1.84.52-1.84,1.3s.4,1.06,1.4,1.16l1.42.12c2.1.18,3.2,1.1,3.2,2.88C458.89,465.23,457.09,466.33,454.67,466.33Zm13.08-.12-2.84-4.68-1.5,1.7v3h-2V452h2v8.78l3.94-4.68h2.49l-3.53,4,4,6.16ZM333.51,487.13a4.1,4.1,0,0,1-3,1.2,4.06,4.06,0,0,1-3-1.2c-1-1-1.2-2.28-1.2-4s.23-3,1.2-4a4.06,4.06,0,0,1,3-1.2,4.1,4.1,0,0,1,3,1.2,5.32,5.32,0,0,1,1.2,4C334.71,484.85,334.47,486.13,333.51,487.13ZM332,480.35a2.07,2.07,0,0,0-1.5-.58,2,2,0,0,0-1.48.58,5.87,5.87,0,0,0,0,5.56,2,2,0,0,0,1.48.6,2.08,2.08,0,0,0,1.5-.6,5.87,5.87,0,0,0,0-5.56Zm7.85-.72v8.58h-2v-8.58h-1.16v-1.56h1.16v-1.38a2.64,2.64,0,0,1,2.78-2.82h1.28v1.74H341a1,1,0,0,0-1.13,1.18v1.28h2v1.56Zm12,8.58a2.64,2.64,0,0,1-2.78-2.82v-5.76H347.9v-1.56h1.16v-2.9h2v2.9h2v1.56h-2v5.66a1,1,0,0,0,1.13,1.18h.84v1.74Zm9.41-7.76a1.88,1.88,0,0,0-1.52-.68,2.09,2.09,0,0,0-2,2.28v6.16h-2V478.07h2v1.1a3.34,3.34,0,0,1,2.7-1.22,3.14,3.14,0,0,1,2.42,1Zm8.46,7.76v-.92a3.34,3.34,0,0,1-2.71,1,3.6,3.6,0,0,1-2.72-.92,3.11,3.11,0,0,1-.8-2.18c0-1.7,1.18-2.92,3.52-2.92h2.67v-.72c0-1.3-.63-1.9-2.22-1.9a2.47,2.47,0,0,0-2.23,1l-1.32-1.26a4.1,4.1,0,0,1,3.63-1.48c2.8,0,4.18,1.2,4.18,3.48v6.78Zm0-4.48h-2.34c-1.24,0-1.87.52-1.87,1.46s.58,1.44,1.92,1.44a2.45,2.45,0,0,0,1.85-.58,2,2,0,0,0,.44-1.5Zm7.53-4.1v8.58h-2v-8.58H374v-1.56h1.16v-1.38a2.64,2.64,0,0,1,2.78-2.82h1.28v1.74h-.89a1,1,0,0,0-1.13,1.18v1.28h2v1.56Zm6.56,0v8.58h-2v-8.58h-1.16v-1.56h1.16v-1.38a2.64,2.64,0,0,1,2.78-2.82h1.28v1.74h-.9a1,1,0,0,0-1.12,1.18v1.28h2v1.56Zm4.14-3.56v-2.16h2.16v2.16Zm.06,12.14V478.07h2v10.14Zm9.28.12c-2.28,0-4.52-1.4-4.52-5.2S395,478,397.24,478a4.18,4.18,0,0,1,3.35,1.42l-1.41,1.36a2.36,2.36,0,0,0-1.94-1,2.29,2.29,0,0,0-1.88.9,3.75,3.75,0,0,0-.6,2.46,3.81,3.81,0,0,0,.6,2.48,2.29,2.29,0,0,0,1.88.9,2.36,2.36,0,0,0,1.94-1l1.41,1.34A4.2,4.2,0,0,1,397.24,488.33Zm12.08-.12-2.84-4.68-1.5,1.7v3h-2V474h2v8.78l3.94-4.68h2.48l-3.52,4,4,6.16Zm4.52-12.14v-2.16H416v2.16Zm.06,12.14V478.07h2v10.14Zm11.46,0V482a2,2,0,0,0-2-2.26,2,2,0,0,0-2.1,2.26v6.18h-2V478.07h2v1a3.63,3.63,0,0,1,2.7-1.14,3.52,3.52,0,0,1,2.5.92,3.72,3.72,0,0,1,1,2.86v6.48Zm8.58,4.22a4.69,4.69,0,0,1-3.58-1.34l1.3-1.3a2.85,2.85,0,0,0,2.2.9,2.29,2.29,0,0,0,2.38-2.58v-1.3a3.13,3.13,0,0,1-2.62,1.16,3.36,3.36,0,0,1-2.42-.9c-1-1-1.14-2.4-1.14-4.12s.16-3.14,1.14-4.12a3.4,3.4,0,0,1,2.44-.88,3.11,3.11,0,0,1,2.66,1.2v-1.08h2v10.08A4.07,4.07,0,0,1,433.94,492.43Zm.24-12.66c-1.84,0-2.08,1.58-2.08,3.18s.24,3.18,2.08,3.18,2.06-1.58,2.06-3.18S436,479.77,434.18,479.77Z"/></g></g></g></svg>
