<svg xmlns="http://www.w3.org/2000/svg" viewBox="0 0 495.806 528.187"><g data-name="Layer 2"><path d="M196.975 341.038c0-2.317.105-4.854-.892-7.012-1.13-2.442-3.664-3.495-6.201-3.92a40.542 40.542 0 0 0-6.711-.304q-3.772.003-7.544-.002c-3.134 0-7.016.129-9.444 2.404-2.807 2.627-2.23 7.169-2.23 10.658v11.016c0 1.42-.305 3.35.653 4.534a3.028 3.028 0 0 0 4.78-.174 3.55 3.55 0 0 0 .524-2.147v-15.91a2.381 2.381 0 0 1 .195-1.357 1.15 1.15 0 0 1 2.081.717v52.09c0 3.813 5.646 4.61 6.673.917a12.136 12.136 0 0 0 .121-3.101v-26.252c0-1.207-.078-3.457 1.922-2.861 1.345.402 1.058 2.092 1.058 3.169v26.29a6.907 6.907 0 0 0 .462 3.558 3.426 3.426 0 0 0 6.33-1.76v-52.056a1.126 1.126 0 1 1 2.252-.06c.03.328 0 .672 0 .999v15.81a3.135 3.135 0 0 0 1.117 2.584 3.024 3.024 0 0 0 4.63-1.204c.506-1.251.211-3.056.211-4.36V342.6c0-.521.014-1.041.014-1.562m-9.487-20.101a7.03 7.03 0 1 1-7.031-6.961 6.996 6.996 0 0 1 7.03 6.961m-28.351 20.101c0-2.317.105-4.854-.893-7.012-1.13-2.442-3.663-3.495-6.201-3.919a40.552 40.552 0 0 0-6.711-.305q-3.771.003-7.543-.002c-3.134 0-7.016.129-9.444 2.404-2.807 2.627-2.23 7.169-2.23 10.658v11.016c0 1.42-.306 3.351.652 4.534a3.028 3.028 0 0 0 4.78-.174 3.549 3.549 0 0 0 .525-2.147v-15.91a2.389 2.389 0 0 1 .194-1.357 1.15 1.15 0 0 1 2.082.717v52.09c0 3.813 5.646 4.611 6.672.917a12.095 12.095 0 0 0 .121-3.101v-26.252c0-1.207-.078-3.457 1.92-2.861 1.347.402 1.06 2.092 1.06 3.169v26.291a6.907 6.907 0 0 0 .463 3.557 3.426 3.426 0 0 0 6.33-1.76v-52.056a1.126 1.126 0 1 1 2.25-.059c.032.327 0 .671 0 .998v15.81a3.133 3.133 0 0 0 1.118 2.584 3.024 3.024 0 0 0 4.63-1.204c.506-1.251.212-3.056.212-4.36V342.6c0-.521.013-1.041.013-1.562m-9.487-20.101a7.031 7.031 0 1 1-7.031-6.961 6.996 6.996 0 0 1 7.03 6.961m-28.351 20.101c0-2.317.105-4.854-.893-7.012-1.13-2.442-3.663-3.495-6.201-3.919a40.55 40.55 0 0 0-6.711-.305q-3.771.003-7.543-.002c-3.134 0-7.016.129-9.444 2.404-2.807 2.627-2.231 7.169-2.231 10.658v11.016c0 1.42-.304 3.351.654 4.534a3.028 3.028 0 0 0 4.78-.174 3.55 3.55 0 0 0 .524-2.147v-15.91a2.39 2.39 0 0 1 .193-1.357 1.15 1.15 0 0 1 2.083.717v52.09c0 3.813 5.645 4.611 6.671.917a12.086 12.086 0 0 0 .122-3.101v-26.252c0-1.207-.08-3.457 1.92-2.861 1.347.402 1.06 2.092 1.06 3.169v26.291a6.898 6.898 0 0 0 .462 3.557 3.426 3.426 0 0 0 6.33-1.76v-52.056a1.126 1.126 0 1 1 2.251-.059c.031.327 0 .671 0 .998v15.81a3.133 3.133 0 0 0 1.117 2.584 3.024 3.024 0 0 0 4.63-1.204c.506-1.251.212-3.056.212-4.36V342.6c0-.521.013-1.041.013-1.562m-9.487-20.101a7.031 7.031 0 1 1-7.03-6.961 6.996 6.996 0 0 1 7.03 6.961M83.46 341.038c0-2.317.104-4.854-.894-7.012-1.129-2.442-3.662-3.495-6.202-3.919a40.533 40.533 0 0 0-6.71-.305q-3.77.003-7.543-.002c-3.134 0-7.016.129-9.445 2.404-2.806 2.627-2.23 7.169-2.23 10.658v11.016c0 1.42-.303 3.351.654 4.534a3.027 3.027 0 0 0 4.78-.174 3.544 3.544 0 0 0 .525-2.147v-15.91a2.39 2.39 0 0 1 .194-1.357 1.15 1.15 0 0 1 2.082.717v52.09c0 3.813 5.645 4.611 6.672.917a12.09 12.09 0 0 0 .122-3.101v-26.252c0-1.207-.08-3.457 1.92-2.861 1.347.402 1.059 2.092 1.059 3.169v26.291a6.897 6.897 0 0 0 .463 3.557 3.425 3.425 0 0 0 6.329-1.76v-52.056a1.126 1.126 0 1 1 2.252-.059c.03.327 0 .671 0 .998v15.81a3.135 3.135 0 0 0 1.116 2.584 3.025 3.025 0 0 0 4.63-1.204c.507-1.251.213-3.056.213-4.36V342.6c0-.521.013-1.041.013-1.562m-9.487-20.101a7.031 7.031 0 1 1-7.032-6.961 6.996 6.996 0 0 1 7.032 6.961M54.802 51.292V40.276a11.93 11.93 0 0 1 .684-4.464 11.671 11.671 0 0 1 9.54-7.633v4.753a6.36 6.36 0 0 0-3.744 2.772 9.231 9.231 0 0 0-1.008 4.5h4.752v11.088zm15.337 0V40.276a11.92 11.92 0 0 1 .684-4.464 11.67 11.67 0 0 1 9.54-7.633v4.753a6.36 6.36 0 0 0-3.745 2.772 9.231 9.231 0 0 0-1.008 4.5h4.753v11.088zm135.394 158.887v11.017a11.945 11.945 0 0 1-.684 4.463 11.67 11.67 0 0 1-9.54 7.633v-4.752a6.367 6.367 0 0 0 3.744-2.772 9.24 9.24 0 0 0 1.008-4.5h-4.752v-11.089zm15.336 0v11.017a11.956 11.956 0 0 1-.684 4.463 11.67 11.67 0 0 1-9.54 7.633v-4.752a6.366 6.366 0 0 0 3.744-2.772 9.241 9.241 0 0 0 1.008-4.5h-4.752v-11.089z" fill="#4559a8"/><path d="M59.15 441.663v-27.458l-6.96 6.048v-6.721l6.96-6.048h6.241v34.179zm28.704-29.282v-5.09h6.385v5.09zm.096 29.282v-24.29h6.24v24.29zm27.745 0v-15.121c0-3.408-2.16-4.56-4.128-4.56s-4.177 1.152-4.177 4.56v15.12h-6.24v-25.01h6.097v2.305a8.555 8.555 0 0 1 6.24-2.592 8.12 8.12 0 0 1 5.904 2.208c2.016 2.015 2.544 4.368 2.544 7.104v15.986zm41.28-2.496a10.308 10.308 0 0 1-7.537 2.784 10.67 10.67 0 0 1-7.633-2.736c-2.112-2.113-2.592-4.609-2.784-7.105h6.24c.336 2.689 1.585 4.225 4.177 4.225a4.017 4.017 0 0 0 2.976-1.105c1.104-1.104 1.344-2.927 1.344-5.088 0-3.936-1.152-6.144-4.176-6.144a3.967 3.967 0 0 0-4.129 2.784h-5.712v-19.298h19.49v5.616h-13.825v7.345a7.836 7.836 0 0 1 5.136-1.729 8.8 8.8 0 0 1 6.385 2.305c2.688 2.688 3.072 5.904 3.072 9.121 0 3.84-.528 6.529-3.024 9.025zM31.19 463.663v-6.182a1.969 1.969 0 0 0-2.04-2.26 2.02 2.02 0 0 0-2.1 2.26v6.182h-2.042V449.42h2.041v5.121a3.481 3.481 0 0 1 2.66-1.14 3.517 3.517 0 0 1 2.501.92 3.723 3.723 0 0 1 1.02 2.86v6.482zm11.96-1.08a4.108 4.108 0 0 1-3.04 1.2 4.06 4.06 0 0 1-3.022-1.2c-.96-1-1.2-2.28-1.2-4.001a5.325 5.325 0 0 1 1.2-3.98 4.055 4.055 0 0 1 3.021-1.2 4.104 4.104 0 0 1 3.04 1.2 5.325 5.325 0 0 1 1.2 3.98c0 1.72-.24 3-1.2 4zM41.61 455.8a2.063 2.063 0 0 0-1.5-.58 2.018 2.018 0 0 0-1.48.58 5.87 5.87 0 0 0 0 5.561 2.037 2.037 0 0 0 1.48.6 2.083 2.083 0 0 0 1.5-.6 5.87 5.87 0 0 0 0-5.56zm17.861 7.862v-6.182a1.968 1.968 0 0 0-2.04-2.26 2.008 2.008 0 0 0-2.1 2.16v6.281H53.29v-6.181a1.969 1.969 0 0 0-2.04-2.26 2.02 2.02 0 0 0-2.101 2.26v6.181h-2.04V453.52h2v1.02a3.67 3.67 0 0 1 2.7-1.14 3.243 3.243 0 0 1 2.882 1.48 3.853 3.853 0 0 1 3.18-1.48 3.67 3.67 0 0 1 2.56.92 3.767 3.767 0 0 1 1.08 2.86v6.481zm6.678-4.482c0 1.761.9 2.841 2.58 2.841a3.028 3.028 0 0 0 2.46-1.04l1.3 1.22a4.76 4.76 0 0 1-3.8 1.58c-2.54 0-4.561-1.34-4.561-5.2 0-3.301 1.7-5.181 4.301-5.181 2.72 0 4.301 1.96 4.301 4.92v.86zm4.28-2.8a2.218 2.218 0 0 0-4.02 0 3.143 3.143 0 0 0-.26 1.38h4.561a3.441 3.441 0 0 0-.28-1.38zm7.72 7.282a2.584 2.584 0 0 1-2.78-2.801V449.42h2.04v11.322c0 .78.28 1.18 1.1 1.18h.9v1.74zm4.82-4.482c0 1.76.9 2.841 2.58 2.841a3.028 3.028 0 0 0 2.46-1.04l1.3 1.22a4.76 4.76 0 0 1-3.8 1.58c-2.54 0-4.561-1.34-4.561-5.2 0-3.301 1.7-5.181 4.3-5.181 2.72 0 4.302 1.96 4.302 4.92v.86zm4.28-2.8a2.218 2.218 0 0 0-4.02 0 3.144 3.144 0 0 0-.26 1.38h4.561a3.443 3.443 0 0 0-.28-1.38zm8.28 7.402a5.582 5.582 0 0 1-4.261-1.46l1.34-1.341a3.94 3.94 0 0 0 2.92 1.06c1.26 0 2.22-.44 2.22-1.4 0-.7-.38-1.1-1.36-1.2l-1.62-.14c-1.92-.18-3-1.02-3-2.8 0-2.001 1.7-3.1 3.82-3.1a5.525 5.525 0 0 1 3.761 1.14l-1.28 1.3a3.831 3.831 0 0 0-2.5-.74c-1.24 0-1.84.52-1.84 1.3 0 .7.4 1.06 1.4 1.16l1.42.12c2.1.18 3.2 1.1 3.2 2.88.001 2.12-1.799 3.221-4.22 3.221zm9.9 0a5.582 5.582 0 0 1-4.261-1.46l1.34-1.341a3.94 3.94 0 0 0 2.92 1.06c1.26 0 2.22-.44 2.22-1.4 0-.7-.38-1.1-1.36-1.2l-1.62-.14c-1.92-.18-3-1.02-3-2.8 0-2.001 1.7-3.1 3.82-3.1a5.525 5.525 0 0 1 3.761 1.14l-1.28 1.3a3.831 3.831 0 0 0-2.5-.74c-1.24 0-1.84.52-1.84 1.3 0 .7.4 1.06 1.4 1.16l1.42.12c2.1.18 3.2 1.1 3.2 2.88.001 2.12-1.8 3.221-4.22 3.221zm14.68 1.9a3.28 3.28 0 0 1-.74 1.26 2.813 2.813 0 0 1-2.081.74h-.82v-1.84h.52c.86 0 1.16-.26 1.46-1.08l.56-1.581-3.54-9.663h2.16l2.42 7.142 2.36-7.142h2.182zm12.76-3.1a4.107 4.107 0 0 1-3.04 1.2 4.06 4.06 0 0 1-3.021-1.2c-.96-1-1.2-2.28-1.2-4.001a5.325 5.325 0 0 1 1.2-3.98 4.056 4.056 0 0 1 3.02-1.2 4.104 4.104 0 0 1 3.041 1.2 5.325 5.325 0 0 1 1.2 3.98c0 1.72-.24 3-1.2 4zm-1.54-6.782a2.063 2.063 0 0 0-1.5-.58 2.018 2.018 0 0 0-1.48.58 5.87 5.87 0 0 0 0 5.56 2.037 2.037 0 0 0 1.48.601 2.083 2.083 0 0 0 1.5-.6 5.87 5.87 0 0 0 0-5.56zm11.62 7.862v-1.02a3.625 3.625 0 0 1-2.701 1.14 3.517 3.517 0 0 1-2.5-.92 3.726 3.726 0 0 1-1.02-2.862v-6.481h2.04v6.182a1.97 1.97 0 0 0 2.04 2.26 2.02 2.02 0 0 0 2.1-2.26v-6.182h2.041v10.143zm8.259 0a2.64 2.64 0 0 1-2.78-2.82v-5.762h-1.16v-1.56h1.16v-2.9h2.04v2.9h1.96v1.56h-1.96v5.661a1.031 1.031 0 0 0 1.12 1.18h.84v1.74zm10 0v-6.182a1.969 1.969 0 0 0-2.04-2.26 2.02 2.02 0 0 0-2.1 2.26v6.182h-2.041V449.42h2.04v5.121a3.481 3.481 0 0 1 2.661-1.14 3.517 3.517 0 0 1 2.5.92 3.723 3.723 0 0 1 1.02 2.86v6.482zm9.919-12.143v-2.16h2.16v2.16zm.06 12.143V453.52h2.04v10.143zm11.461 0v-6.182a1.969 1.969 0 0 0-2.04-2.26 2.02 2.02 0 0 0-2.1 2.26v6.182h-2.04V453.52h2v1.02a3.63 3.63 0 0 1 2.7-1.14 3.517 3.517 0 0 1 2.5.92 3.723 3.723 0 0 1 1.02 2.86v6.481zm-165.397 21a2.64 2.64 0 0 1-2.78-2.82v-5.762h-1.16v-1.56h1.16v-2.9h2.039v2.9h1.96v1.56h-1.96v5.661a1.031 1.031 0 0 0 1.12 1.18h.84v1.74zm10 0v-6.182a1.969 1.969 0 0 0-2.04-2.26 2.02 2.02 0 0 0-2.1 2.26v6.182h-2.042V470.42h2.041v5.121a3.481 3.481 0 0 1 2.66-1.14 3.518 3.518 0 0 1 2.501.92 3.723 3.723 0 0 1 1.02 2.86v6.482zm6.68-4.482c0 1.76.9 2.841 2.58 2.841a3.028 3.028 0 0 0 2.46-1.04l1.3 1.22a4.76 4.76 0 0 1-3.8 1.58c-2.541 0-4.562-1.34-4.562-5.2 0-3.301 1.701-5.181 4.302-5.181 2.72 0 4.3 1.96 4.3 4.92v.86zm4.28-2.8a2.218 2.218 0 0 0-4.02 0 3.143 3.143 0 0 0-.26 1.38h4.56a3.441 3.441 0 0 0-.281-1.38zm14.92 7.402a4.829 4.829 0 0 1-5.101-4.921v-9.442h2.16v9.342a2.954 2.954 0 1 0 5.902 0v-9.342h2.16v9.442a4.845 4.845 0 0 1-5.122 4.921zm12.4 0a6.475 6.475 0 0 1-5.041-1.881l1.42-1.42a4.787 4.787 0 0 0 3.66 1.38c1.88 0 2.941-.8 2.941-2.2a1.823 1.823 0 0 0-.56-1.48 2.812 2.812 0 0 0-1.56-.6l-1.68-.24a4.802 4.802 0 0 1-2.68-1.141 3.539 3.539 0 0 1-1.06-2.74c0-2.48 1.8-4.162 4.76-4.162a5.903 5.903 0 0 1 4.421 1.62l-1.36 1.36a4.248 4.248 0 0 0-3.14-1.1c-1.68 0-2.58.92-2.58 2.221a1.65 1.65 0 0 0 .52 1.32 2.766 2.766 0 0 0 1.56.64l1.7.26a4.626 4.626 0 0 1 2.64 1.06 3.795 3.795 0 0 1 1.16 2.922c-.001 2.62-2.122 4.181-5.122 4.181zm18.04-.12v-.92a3.336 3.336 0 0 1-2.7 1.04 3.582 3.582 0 0 1-2.722-.92 3.112 3.112 0 0 1-.8-2.181c0-1.7 1.18-2.92 3.52-2.92h2.661v-.72c0-1.302-.62-1.9-2.22-1.9a2.448 2.448 0 0 0-2.22 1l-1.32-1.262a4.09 4.09 0 0 1 3.62-1.48c2.8 0 4.181 1.2 4.181 3.48v6.782zm-.04-4.482h-2.34c-1.24 0-1.86.52-1.86 1.461s.58 1.44 1.92 1.44a2.437 2.437 0 0 0 1.84-.58 1.958 1.958 0 0 0 .44-1.5zm10.76-3.28a1.883 1.883 0 0 0-1.52-.68 2.087 2.087 0 0 0-2.02 2.28v6.161h-2.04V474.52h2v1.1a3.37 3.37 0 0 1 2.7-1.22 3.138 3.138 0 0 1 2.42.96zm4.099 3.28c0 1.76.9 2.841 2.58 2.841a3.028 3.028 0 0 0 2.461-1.04l1.3 1.22a4.76 4.76 0 0 1-3.8 1.58c-2.541 0-4.562-1.34-4.562-5.2 0-3.301 1.7-5.181 4.301-5.181 2.72 0 4.301 1.96 4.301 4.92v.86zm4.28-2.8a2.218 2.218 0 0 0-4.02 0 3.143 3.143 0 0 0-.26 1.38h4.562a3.441 3.441 0 0 0-.283-1.38zm13.72 7.281h-1.66l-3.722-10.142h2.16l2.4 7.142 2.38-7.142h2.162zm5.44-12.142v-2.16h2.16v2.16zm.06 12.142V474.52h2.04v10.143zm9.28.12c-2.28 0-4.52-1.4-4.52-5.2s2.24-5.182 4.52-5.182a4.161 4.161 0 0 1 3.341 1.42l-1.4 1.36a2.36 2.36 0 0 0-1.94-.96 2.286 2.286 0 0 0-1.88.9 3.755 3.755 0 0 0-.6 2.46 3.817 3.817 0 0 0 .6 2.481 2.287 2.287 0 0 0 1.88.9 2.36 2.36 0 0 0 1.94-.96l1.4 1.34a4.179 4.179 0 0 1-3.343 1.442zm8.72-.12a2.64 2.64 0 0 1-2.78-2.82v-5.761h-1.16v-1.56h1.16v-2.9h2.04v2.9h1.96v1.56h-1.96v5.66a1.031 1.031 0 0 0 1.12 1.181h.84v1.74zm3.76-12.142v-2.16h2.16v2.16zm.059 12.142V474.52h2.04v10.143zm17.643 0v-6.181a1.968 1.968 0 0 0-2.04-2.26 2.008 2.008 0 0 0-2.1 2.16v6.281h-2.041v-6.182a1.969 1.969 0 0 0-2.041-2.26 2.02 2.02 0 0 0-2.1 2.26v6.182h-2.04V474.52h2v1.02a3.67 3.67 0 0 1 2.7-1.14 3.243 3.243 0 0 1 2.88 1.48 3.853 3.853 0 0 1 3.182-1.48 3.671 3.671 0 0 1 2.56.92 3.768 3.768 0 0 1 1.08 2.86v6.481zm8.458.12a5.582 5.582 0 0 1-4.261-1.46l1.34-1.34a3.94 3.94 0 0 0 2.92 1.06c1.26 0 2.22-.44 2.22-1.4 0-.7-.38-1.1-1.36-1.2l-1.62-.14c-1.92-.18-3-1.02-3-2.8 0-2.002 1.7-3.101 3.82-3.101a5.525 5.525 0 0 1 3.761 1.14l-1.28 1.3a3.831 3.831 0 0 0-2.5-.74c-1.24 0-1.84.52-1.84 1.3 0 .7.4 1.061 1.4 1.16l1.42.12c2.1.181 3.2 1.101 3.2 2.881-.001 2.12-1.802 3.221-4.223 3.221zm18.28-1.2a4.108 4.108 0 0 1-3.04 1.2 4.06 4.06 0 0 1-3.021-1.2c-.96-1-1.2-2.28-1.2-4a5.325 5.325 0 0 1 1.2-3.981 4.055 4.055 0 0 1 3.02-1.2 4.104 4.104 0 0 1 3.041 1.2 5.325 5.325 0 0 1 1.2 3.98c-.002 1.721-.242 3.002-1.202 4.002zm-1.54-6.78a2.063 2.063 0 0 0-1.5-.58 2.018 2.018 0 0 0-1.48.58 5.87 5.87 0 0 0 0 5.56 2.037 2.037 0 0 0 1.48.6 2.083 2.083 0 0 0 1.5-.6 5.87 5.87 0 0 0 0-5.56zm7.86-.722v8.582h-2.041v-8.582h-1.16v-1.56h1.16v-1.38a2.64 2.64 0 0 1 2.78-2.82h1.28v1.74h-.9a1.03 1.03 0 0 0-1.12 1.18v1.28h2.02v1.56zM58.29 505.663a2.64 2.64 0 0 1-2.78-2.82v-5.762h-1.16v-1.56h1.16v-2.9h2.04v2.9h1.96v1.56h-1.96v5.661a1.031 1.031 0 0 0 1.12 1.18h.84v1.74zm9.4-7.762a1.883 1.883 0 0 0-1.52-.68 2.087 2.087 0 0 0-2.02 2.28v6.161h-2.04V495.52h2v1.1a3.37 3.37 0 0 1 2.7-1.22 3.138 3.138 0 0 1 2.42.96zm8.46 7.762v-.92a3.336 3.336 0 0 1-2.7 1.04 3.582 3.582 0 0 1-2.721-.92 3.112 3.112 0 0 1-.8-2.18c0-1.7 1.18-2.922 3.52-2.922h2.661v-.72c0-1.3-.62-1.9-2.22-1.9a2.449 2.449 0 0 0-2.22 1l-1.32-1.26a4.09 4.09 0 0 1 3.62-1.48c2.8 0 4.181 1.2 4.181 3.48v6.781zm-.04-4.482h-2.34c-1.24 0-1.86.52-1.86 1.461s.58 1.44 1.92 1.44a2.437 2.437 0 0 0 1.84-.58 1.959 1.959 0 0 0 .44-1.5zm7.54-4.1v8.582h-2.04v-8.582h-1.16v-1.56h1.16v-1.38a2.64 2.64 0 0 1 2.78-2.82h1.28v1.74h-.9a1.03 1.03 0 0 0-1.12 1.18v1.28h2.02v1.56zm6.56 0v8.582h-2.041v-8.582h-1.16v-1.56h1.16v-1.38a2.64 2.64 0 0 1 2.78-2.82h1.28v1.74h-.9a1.03 1.03 0 0 0-1.12 1.18v1.28h2.02v1.56zm4.14-3.56v-2.16h2.16v2.16zm.06 12.142V495.52h2.04v10.143zm9.28.12c-2.28 0-4.521-1.4-4.521-5.2s2.24-5.182 4.52-5.182a4.16 4.16 0 0 1 3.342 1.42l-1.4 1.36a2.36 2.36 0 0 0-1.94-.96 2.286 2.286 0 0 0-1.88.9 3.755 3.755 0 0 0-.6 2.46 3.817 3.817 0 0 0 .6 2.481 2.287 2.287 0 0 0 1.88.9 2.36 2.36 0 0 0 1.94-.96l1.4 1.34a4.179 4.179 0 0 1-3.342 1.441zm12.08-.12l-2.84-4.68-1.5 1.7v2.98h-2.04V491.42h2.04v8.782l3.94-4.681h2.48l-3.52 3.981 3.961 6.161zm4.519-12.142v-2.16h2.16v2.16zm.06 12.142V495.52h2.04v10.143zm11.461 0v-6.181a1.969 1.969 0 0 0-2.04-2.26 2.02 2.02 0 0 0-2.1 2.26v6.181h-2.04V495.52h2v1.02a3.63 3.63 0 0 1 2.7-1.14 3.517 3.517 0 0 1 2.5.92 3.723 3.723 0 0 1 1.02 2.86v6.481zm8.58 4.221a4.69 4.69 0 0 1-3.581-1.34l1.3-1.3a2.849 2.849 0 0 0 2.2.9 2.287 2.287 0 0 0 2.38-2.58v-1.302a3.13 3.13 0 0 1-2.62 1.16 3.357 3.357 0 0 1-2.42-.9c-.98-.98-1.14-2.4-1.14-4.12s.16-3.14 1.14-4.12a3.397 3.397 0 0 1 2.44-.88 3.104 3.104 0 0 1 2.66 1.2v-1.082h1.98v10.083a4.068 4.068 0 0 1-4.341 4.28zm.24-12.662c-1.84 0-2.081 1.58-2.081 3.18s.24 3.181 2.08 3.181 2.061-1.58 2.061-3.18-.221-3.182-2.062-3.182zM45.62 341.038c0-2.317.104-4.854-.894-7.012-1.129-2.442-3.663-3.495-6.202-3.92a40.533 40.533 0 0 0-6.71-.304q-3.77.003-7.543-.002c-3.134 0-7.016.129-9.445 2.404-2.806 2.627-2.23 7.169-2.23 10.658v11.016c0 1.42-.304 3.35.654 4.534a3.027 3.027 0 0 0 4.78-.174 3.543 3.543 0 0 0 .524-2.147v-15.91a2.39 2.39 0 0 1 .194-1.357 1.15 1.15 0 0 1 2.082.717v52.09c0 3.813 5.645 4.61 6.672.917a12.086 12.086 0 0 0 .122-3.101v-26.252c0-1.207-.08-3.457 1.92-2.861 1.347.402 1.06 2.092 1.06 3.169v26.29a6.897 6.897 0 0 0 .462 3.558 3.425 3.425 0 0 0 6.33-1.76v-52.056a1.126 1.126 0 1 1 2.251-.06c.031.328 0 .672 0 .999v15.81a3.135 3.135 0 0 0 1.116 2.584 3.025 3.025 0 0 0 4.631-1.204c.506-1.251.212-3.056.212-4.36V342.6c0-.521.013-1.041.013-1.562m-9.487-20.101a7.031 7.031 0 1 1-7.032-6.961 6.996 6.996 0 0 1 7.032 6.961m339.732 15.828l-6.582-10.023v10.023h-2.16V322.52h1.98l6.58 10.002v-10.002h2.162v14.243zm6.958-4.482c0 1.761.9 2.841 2.58 2.841a3.029 3.029 0 0 0 2.46-1.04l1.3 1.22a4.76 4.76 0 0 1-3.8 1.58c-2.54 0-4.56-1.34-4.56-5.2 0-3.301 1.7-5.18 4.3-5.18 2.722 0 4.302 1.96 4.302 4.92v.86zm4.28-2.8a2.218 2.218 0 0 0-4.02 0 3.136 3.136 0 0 0-.26 1.38h4.56a3.44 3.44 0 0 0-.28-1.38zm10.46 7.282v-.92a3.333 3.333 0 0 1-2.7 1.04 3.583 3.583 0 0 1-2.72-.92 3.115 3.115 0 0 1-.8-2.181c0-1.7 1.18-2.921 3.52-2.921h2.66v-.72c0-1.3-.62-1.9-2.22-1.9a2.45 2.45 0 0 0-2.222 1l-1.32-1.26a4.09 4.09 0 0 1 3.622-1.48c2.8 0 4.18 1.2 4.18 3.48v6.782zm-.04-4.482h-2.34c-1.24 0-1.86.52-1.86 1.461s.58 1.44 1.92 1.44a2.437 2.437 0 0 0 1.84-.58 1.956 1.956 0 0 0 .44-1.5zm10.76-3.28a1.88 1.88 0 0 0-1.52-.68 2.087 2.087 0 0 0-2.02 2.28v6.161h-2.04v-10.142h2v1.1a3.368 3.368 0 0 1 2.7-1.22 3.139 3.139 0 0 1 2.421.96zm5.92 7.762a2.584 2.584 0 0 1-2.78-2.8V322.52h2.04v11.323c0 .78.28 1.18 1.1 1.18h.9v1.74zm6.1 2.02a3.275 3.275 0 0 1-.74 1.26 2.812 2.812 0 0 1-2.08.74h-.82v-1.84h.52c.86 0 1.16-.26 1.46-1.08l.56-1.581-3.54-9.662h2.16l2.42 7.141 2.36-7.141h2.181zm-66.663 47.98v-14.306H342.07v14.305h-6.673v-34.178h6.673v13.968h11.568v-13.968h6.673v34.178zm26.975 0v-2.16a7.6 7.6 0 0 1-6.144 2.4c-2.832 0-4.945-.769-6.385-2.208a8.016 8.016 0 0 1-2.063-5.617c0-3.985 2.736-7.248 8.64-7.248h5.809v-1.248c0-2.737-1.345-3.937-4.657-3.937a5.531 5.531 0 0 0-4.8 2.16l-3.937-3.889c2.448-2.688 4.8-3.551 8.977-3.551 7.056 0 10.657 2.975 10.657 8.832v16.465zm-.143-10.56h-4.753c-2.496 0-3.696 1.007-3.696 2.88 0 1.728 1.2 2.832 3.792 2.832a4.75 4.75 0 0 0 3.697-1.2c.72-.625.96-1.584.96-3.168zm20.014 10.56c-5.135 0-7.295-3.6-7.295-7.152v-27.027h6.24v26.641c0 1.489.624 2.257 2.208 2.257h2.4v5.28zm15.552-19.538v19.538h-6.24v-19.539h-2.593v-4.752h2.593v-3.12c0-3.552 2.208-7.153 7.297-7.153h3.552v5.281h-2.448c-1.489 0-2.16.816-2.16 2.256v2.737h4.608v4.751zm33.36 19.538v-2.16a7.6 7.6 0 0 1-6.144 2.4c-2.832 0-4.945-.769-6.385-2.208a8.016 8.016 0 0 1-2.064-5.617c0-3.985 2.737-7.248 8.641-7.248h5.809v-1.248c0-2.737-1.345-3.937-4.658-3.937a5.531 5.531 0 0 0-4.8 2.16l-3.936-3.889c2.448-2.688 4.8-3.551 8.976-3.551 7.057 0 10.658 2.975 10.658 8.832v16.465zm-.143-10.56H444.5c-2.496 0-3.697 1.007-3.697 2.88 0 1.728 1.2 2.832 3.792 2.832a4.75 4.75 0 0 0 3.698-1.2c.72-.625.96-1.584.96-3.168zm-100.966 61.56v-19.923l-6.528 12.961h-4.513l-6.576-12.96v19.921h-6.673v-34.178h6.576l8.929 18.481 8.88-18.481h6.578v34.178zm14.061-29.283v-5.089h6.385v5.09zm.096 29.282v-24.29h6.241v24.29zm20.256 0c-5.136 0-7.296-3.6-7.296-7.152v-27.026h6.24v26.641c0 1.489.624 2.257 2.208 2.257h2.4v5.28zm15.6 0c-5.135 0-7.295-3.6-7.295-7.152v-27.026h6.24v26.641c0 1.489.624 2.257 2.208 2.257h2.4v5.28zm8.448-29.282v-5.089h6.385v5.09zm.095 29.282v-24.29h6.242v24.29zm30.482-2.784a10.454 10.454 0 0 1-7.777 3.072 10.33 10.33 0 0 1-7.729-3.072c-2.256-2.4-2.832-5.232-2.832-9.745s.576-7.297 2.832-9.696a11.318 11.318 0 0 1 15.506 0c2.256 2.399 2.832 5.184 2.832 9.696s-.528 7.393-2.832 9.745zm-4.849-15.793a3.943 3.943 0 0 0-2.928-1.104 3.904 3.904 0 0 0-2.88 1.104c-1.296 1.248-1.44 3.504-1.44 6.048 0 2.593.144 4.849 1.44 6.097a3.908 3.908 0 0 0 2.88 1.104 3.948 3.948 0 0 0 2.928-1.104c1.296-1.248 1.44-3.504 1.44-6.097 0-2.544-.144-4.8-1.44-6.048zm28.177 18.577v-15.12c0-3.409-2.16-4.56-4.129-4.56s-4.176 1.152-4.176 4.56v15.12h-6.24v-25.01h6.096v2.304a8.559 8.559 0 0 1 6.241-2.592 8.12 8.12 0 0 1 5.904 2.208c2.016 2.016 2.544 4.369 2.544 7.105v15.985zm-147.05 21.12a4.829 4.829 0 0 1-5.101-4.92v-9.443h2.16v9.342a2.953 2.953 0 1 0 5.901 0v-9.342h2.16v9.442a4.845 4.845 0 0 1-5.12 4.921zm12.4 0a6.474 6.474 0 0 1-5.042-1.88l1.42-1.42a4.787 4.787 0 0 0 3.661 1.38c1.88 0 2.94-.8 2.94-2.2a1.823 1.823 0 0 0-.56-1.48 2.81 2.81 0 0 0-1.56-.6l-1.68-.24a4.804 4.804 0 0 1-2.682-1.141 3.539 3.539 0 0 1-1.06-2.74c0-2.48 1.801-4.161 4.762-4.161a5.904 5.904 0 0 1 4.421 1.62l-1.36 1.36a4.249 4.249 0 0 0-3.14-1.1c-1.681 0-2.582.92-2.582 2.22a1.65 1.65 0 0 0 .52 1.32 2.766 2.766 0 0 0 1.56.64l1.7.26a4.628 4.628 0 0 1 2.641 1.06 3.797 3.797 0 0 1 1.16 2.922c.002 2.62-2.12 4.18-5.12 4.18zm17.48-5.981v5.861h-2.16v-5.861l-4.261-8.382h2.36l2.98 6.262 2.98-6.262h2.36zm11.479 4.781a4.106 4.106 0 0 1-3.04 1.2 4.057 4.057 0 0 1-3.02-1.2c-.961-1-1.2-2.28-1.2-4.001a5.321 5.321 0 0 1 1.2-3.98 4.053 4.053 0 0 1 3.02-1.2 4.102 4.102 0 0 1 3.04 1.2 5.321 5.321 0 0 1 1.2 3.98c0 1.721-.24 3.001-1.2 4.001zm-1.54-6.781a2.064 2.064 0 0 0-1.5-.58 2.017 2.017 0 0 0-1.48.58 5.87 5.87 0 0 0 0 5.56 2.036 2.036 0 0 0 1.48.6 2.083 2.083 0 0 0 1.5-.6 5.87 5.87 0 0 0 0-5.56zm11.62 7.861v-1.02a3.625 3.625 0 0 1-2.7 1.14 3.515 3.515 0 0 1-2.5-.92 3.726 3.726 0 0 1-1.02-2.861v-6.482h2.04v6.182a1.97 1.97 0 0 0 2.04 2.26 2.02 2.02 0 0 0 2.1-2.26v-6.182h2.041v10.143zm8.259 0a2.64 2.64 0 0 1-2.78-2.82v-5.762h-1.16v-1.56h1.16v-2.9h2.04v2.9h1.96v1.56h-1.96v5.662a1.032 1.032 0 0 0 1.12 1.18h.84v1.74zm10 0v-6.181a1.969 1.969 0 0 0-2.04-2.26 2.02 2.02 0 0 0-2.1 2.26v6.181h-2.041v-14.243h2.04v5.121a3.48 3.48 0 0 1 2.66-1.14 3.52 3.52 0 0 1 2.502.92 3.726 3.726 0 0 1 1.02 2.86v6.482zm15.44 0v-.92a3.333 3.333 0 0 1-2.7 1.04 3.583 3.583 0 0 1-2.72-.92 3.115 3.115 0 0 1-.8-2.18c0-1.7 1.18-2.921 3.52-2.921h2.66v-.72c0-1.301-.62-1.9-2.22-1.9a2.45 2.45 0 0 0-2.22 1l-1.32-1.261a4.09 4.09 0 0 1 3.62-1.48c2.8 0 4.181 1.2 4.181 3.48v6.782zm-.04-4.481h-2.34c-1.24 0-1.86.52-1.86 1.46s.58 1.44 1.92 1.44a2.437 2.437 0 0 0 1.841-.58 1.956 1.956 0 0 0 .44-1.5zm10.76-3.28a1.88 1.88 0 0 0-1.519-.68 2.087 2.087 0 0 0-2.02 2.28v6.16h-2.042v-10.141h2.001v1.1a3.368 3.368 0 0 1 2.7-1.22 3.139 3.139 0 0 1 2.421.96zm4.1 3.28c0 1.76.9 2.84 2.58 2.84a3.029 3.029 0 0 0 2.461-1.04l1.3 1.221a4.76 4.76 0 0 1-3.8 1.58c-2.54 0-4.56-1.34-4.56-5.201 0-3.3 1.7-5.18 4.3-5.18 2.72 0 4.3 1.96 4.3 4.92v.86zm4.28-2.8a2.218 2.218 0 0 0-4.02 0 3.137 3.137 0 0 0-.26 1.38h4.56a3.442 3.442 0 0 0-.28-1.38zm15.26 7.28v-.92a3.333 3.333 0 0 1-2.7 1.04 3.583 3.583 0 0 1-2.72-.92 3.114 3.114 0 0 1-.8-2.18c0-1.7 1.18-2.92 3.52-2.92h2.66v-.72c0-1.301-.62-1.9-2.22-1.9a2.45 2.45 0 0 0-2.22 1l-1.32-1.261a4.09 4.09 0 0 1 3.62-1.48c2.8 0 4.181 1.2 4.181 3.48v6.782zm-.04-4.48h-2.34c-1.24 0-1.86.52-1.86 1.46s.58 1.44 1.92 1.44a2.437 2.437 0 0 0 1.841-.58 1.956 1.956 0 0 0 .44-1.5zm8.2 4.48a2.64 2.64 0 0 1-2.78-2.82v-5.76h-1.16v-1.561h1.16v-2.9h2.04v2.9h1.96v1.56h-1.962v5.661a1.032 1.032 0 0 0 1.121 1.181h.84v1.74zm14.2-7.76a1.88 1.88 0 0 0-1.52-.68 2.087 2.087 0 0 0-2.02 2.28v6.16h-2.042v-10.141h2.001v1.1a3.367 3.367 0 0 1 2.7-1.22 3.139 3.139 0 0 1 2.42.96zm3.14-4.382v-2.16h2.16v2.16zm.06 12.143v-10.142h2.04v10.142zm8.56.12a5.58 5.58 0 0 1-4.261-1.46l1.34-1.341a3.939 3.939 0 0 0 2.92 1.06c1.26 0 2.22-.44 2.22-1.4 0-.7-.38-1.1-1.358-1.2l-1.622-.14c-1.92-.18-3-1.02-3-2.8 0-2.001 1.7-3.1 3.82-3.1a5.527 5.527 0 0 1 3.761 1.14l-1.28 1.3a3.83 3.83 0 0 0-2.5-.74c-1.24 0-1.84.52-1.84 1.3 0 .7.4 1.06 1.4 1.16l1.42.12c2.1.18 3.2 1.1 3.2 2.881 0 2.12-1.802 3.22-4.221 3.22zm13.08-.12l-2.84-4.68-1.5 1.7v2.98h-2.042V444.52h2.041v8.783l3.94-4.682h2.48l-3.52 3.981 3.962 6.161zm-136.638 19.92a4.106 4.106 0 0 1-3.04 1.2 4.057 4.057 0 0 1-3.02-1.2c-.96-1-1.2-2.28-1.2-4.001a5.325 5.325 0 0 1 1.2-3.98 4.053 4.053 0 0 1 3.02-1.2 4.102 4.102 0 0 1 3.04 1.2 5.321 5.321 0 0 1 1.201 3.98c0 1.721-.241 3.001-1.202 4.001zm-1.54-6.781a2.064 2.064 0 0 0-1.5-.58 2.017 2.017 0 0 0-1.48.58 5.87 5.87 0 0 0 0 5.56 2.036 2.036 0 0 0 1.48.6 2.083 2.083 0 0 0 1.5-.6 5.87 5.87 0 0 0 0-5.56zm7.858-.721v8.582h-2.04v-8.582h-1.16v-1.56h1.16v-1.38a2.64 2.64 0 0 1 2.78-2.82h1.28v1.74h-.899a1.03 1.03 0 0 0-1.121 1.18v1.28h2.02v1.56zm12.021 8.582a2.64 2.64 0 0 1-2.78-2.82v-5.762h-1.16v-1.56h1.16v-2.9h2.04v2.9h1.961v1.56h-1.961v5.661a1.032 1.032 0 0 0 1.121 1.181h.84v1.74zm9.4-7.762a1.88 1.88 0 0 0-1.52-.68 2.087 2.087 0 0 0-2.02 2.28v6.161h-2.041v-10.141h2.001v1.1a3.367 3.367 0 0 1 2.7-1.22 3.139 3.139 0 0 1 2.42.96zm8.46 7.762v-.92a3.333 3.333 0 0 1-2.7 1.04 3.583 3.583 0 0 1-2.72-.92 3.115 3.115 0 0 1-.8-2.18c0-1.7 1.18-2.922 3.52-2.922h2.66v-.72c0-1.3-.62-1.9-2.22-1.9a2.45 2.45 0 0 0-2.22 1l-1.32-1.26a4.089 4.089 0 0 1 3.62-1.48c2.8 0 4.181 1.2 4.181 3.48v6.782zm-.04-4.481h-2.34c-1.24 0-1.86.52-1.86 1.46s.58 1.44 1.92 1.44a2.437 2.437 0 0 0 1.84-.58 1.956 1.956 0 0 0 .44-1.5zm7.539-4.101v8.582h-2.04v-8.582h-1.16v-1.56h1.16v-1.38a2.64 2.64 0 0 1 2.78-2.82h1.28v1.74h-.9a1.03 1.03 0 0 0-1.12 1.18v1.28h2.02v1.56zm6.56 0v8.582h-2.04v-8.582h-1.16v-1.56h1.16v-1.38a2.64 2.64 0 0 1 2.78-2.82h1.28v1.74h-.9a1.03 1.03 0 0 0-1.12 1.18v1.28h2.02v1.56zm4.14-3.56v-2.16h2.16v2.16zm.06 12.142v-10.142h2.041v10.142zm9.281.12c-2.28 0-4.52-1.4-4.52-5.201s2.24-5.18 4.52-5.18a4.16 4.16 0 0 1 3.341 1.42l-1.4 1.36a2.36 2.36 0 0 0-1.94-.96 2.284 2.284 0 0 0-1.88.899 3.752 3.752 0 0 0-.6 2.46 3.813 3.813 0 0 0 .6 2.481 2.285 2.285 0 0 0 1.88.9 2.36 2.36 0 0 0 1.94-.96l1.4 1.34a4.178 4.178 0 0 1-3.343 1.442zm12.08-.12l-2.84-4.68-1.5 1.7v2.98H413.1V465.52h2.041v8.783l3.94-4.682h2.48l-3.52 3.981 3.96 6.161zM424 467.622v-2.16h2.16v2.16zm.06 12.142v-10.142h2.04v10.142zm11.462 0v-6.181a1.969 1.969 0 0 0-2.04-2.26 2.02 2.02 0 0 0-2.1 2.26v6.181h-2.042v-10.142h2.001v1.02a3.627 3.627 0 0 1 2.7-1.14 3.52 3.52 0 0 1 2.501.92 3.726 3.726 0 0 1 1.02 2.86v6.481zm8.579 4.221a4.69 4.69 0 0 1-3.581-1.34l1.3-1.3a2.85 2.85 0 0 0 2.201.9 2.287 2.287 0 0 0 2.38-2.58v-1.301a3.128 3.128 0 0 1-2.62 1.16 3.358 3.358 0 0 1-2.42-.9c-.981-.98-1.14-2.4-1.14-4.12s.158-3.14 1.14-4.121a3.397 3.397 0 0 1 2.44-.88 3.107 3.107 0 0 1 2.66 1.2v-1.081h1.98v10.083a4.068 4.068 0 0 1-4.341 4.28zm.24-12.662c-1.84 0-2.08 1.58-2.08 3.18s.24 3.181 2.08 3.181 2.06-1.58 2.06-3.18-.22-3.181-2.061-3.181zm-335-406.735V53.86h-8.676v10.727h-5.004v-25.63h5.003v10.475h8.675V38.96h5.004v25.629zm23.58-2.088a7.833 7.833 0 0 1-5.832 2.304 7.745 7.745 0 0 1-5.796-2.304c-1.692-1.8-2.124-3.923-2.124-7.307s.432-5.471 2.124-7.271a8.486 8.486 0 0 1 11.626 0c1.692 1.8 2.124 3.888 2.124 7.27s-.396 5.544-2.124 7.308zm-3.637-11.843a2.959 2.959 0 0 0-2.196-.828 2.93 2.93 0 0 0-2.16.828c-.972.937-1.08 2.628-1.08 4.536 0 1.944.108 3.635 1.08 4.571a2.93 2.93 0 0 0 2.16.828 2.96 2.96 0 0 0 2.196-.828c.972-.936 1.08-2.628 1.08-4.571 0-1.908-.108-3.6-1.08-4.535zm32.038 13.93V53.25c0-2.555-1.62-3.42-3.096-3.42a3.022 3.022 0 0 0-3.131 3.312v11.447h-4.68V53.249c0-2.555-1.62-3.42-3.096-3.42s-3.131.865-3.131 3.42v11.339h-4.68V45.834h4.572v1.728a6.562 6.562 0 0 1 4.68-1.944 5.808 5.808 0 0 1 4.966 2.376 7.153 7.153 0 0 1 5.616-2.376 6.54 6.54 0 0 1 4.607 1.656 7.069 7.069 0 0 1 2.052 5.327v11.987zm13.394-7.918a3.837 3.837 0 0 0 4.104 4.175 5.3 5.3 0 0 0 4.248-1.764l2.843 2.772a8.817 8.817 0 0 1-7.127 2.952c-4.427 0-8.675-2.016-8.675-9.611 0-6.12 3.312-9.575 8.171-9.575 5.22 0 8.17 3.744 8.17 9.07v1.98zm6.695-5.22a3.494 3.494 0 0 0-6.263 0 4.602 4.602 0 0 0-.432 2.016h7.127a4.596 4.596 0 0 0-.432-2.015zm14.653 13.139a5.096 5.096 0 0 1-5.471-5.364V38.96h4.679v19.977c0 1.116.468 1.692 1.655 1.692h1.8v3.96zm9.72-7.92a3.837 3.837 0 0 0 4.103 4.176 5.3 5.3 0 0 0 4.248-1.764l2.843 2.772a8.817 8.817 0 0 1-7.127 2.951c-4.427 0-8.674-2.015-8.674-9.61 0-6.12 3.311-9.575 8.17-9.575 5.22 0 8.171 3.743 8.171 9.07v1.98zm6.695-5.219a3.494 3.494 0 0 0-6.264 0 4.595 4.595 0 0 0-.431 2.016h7.127a4.595 4.595 0 0 0-.432-2.015zm15.516 13.354c-2.952 0-5.58-.323-7.991-2.7l3.06-3.06a6.762 6.762 0 0 0 5.003 1.765c1.62 0 3.312-.54 3.312-1.944 0-.936-.468-1.584-1.98-1.728l-3.024-.288c-3.311-.324-5.399-1.8-5.399-5.255 0-3.924 3.42-5.976 7.235-5.976 2.952 0 5.364.54 7.163 2.196l-2.88 2.915a6.459 6.459 0 0 0-4.355-1.26c-1.872 0-2.664.864-2.664 1.8s.54 1.476 1.944 1.62l2.952.288c3.707.36 5.58 2.304 5.58 5.508-.001 4.14-3.528 6.12-7.956 6.12zm17.891 0c-2.951 0-5.579-.323-7.99-2.7l3.06-3.06a6.762 6.762 0 0 0 5.003 1.765c1.62 0 3.311-.54 3.311-1.944 0-.936-.467-1.584-1.98-1.728l-3.023-.288c-3.311-.324-5.4-1.8-5.4-5.255 0-3.924 3.42-5.976 7.236-5.976 2.952 0 5.363.54 7.163 2.196l-2.88 2.915a6.457 6.457 0 0 0-4.355-1.26c-1.872 0-2.664.864-2.664 1.8s.54 1.476 1.944 1.62l2.952.288c3.707.36 5.579 2.304 5.579 5.508 0 4.14-3.528 6.12-7.956 6.12zm22.787-.215V53.249c0-2.555-1.62-3.42-3.095-3.42s-3.132.865-3.132 3.42v11.339h-4.679V45.834h4.571v1.728a6.416 6.416 0 0 1 4.68-1.944 6.089 6.089 0 0 1 4.427 1.656 6.95 6.95 0 0 1 1.908 5.327v11.987zm13.393-7.92a3.837 3.837 0 0 0 4.104 4.176 5.302 5.302 0 0 0 4.248-1.764l2.844 2.772a8.82 8.82 0 0 1-7.127 2.952c-4.428 0-8.676-2.016-8.676-9.611 0-6.12 3.312-9.575 8.171-9.575 5.22 0 8.172 3.744 8.172 9.07v1.98zm6.695-5.219a3.494 3.494 0 0 0-6.262 0 4.595 4.595 0 0 0-.433 2.016h7.128a4.595 4.595 0 0 0-.433-2.015zm15.517 13.354c-2.952 0-5.58-.323-7.991-2.7l3.06-3.06a6.762 6.762 0 0 0 5.003 1.765c1.62 0 3.311-.54 3.311-1.944 0-.936-.468-1.584-1.98-1.728l-3.023-.288c-3.312-.324-5.4-1.8-5.4-5.255 0-3.924 3.42-5.976 7.236-5.976 2.95 0 5.363.54 7.163 2.196l-2.88 2.915a6.459 6.459 0 0 0-4.356-1.26c-1.872 0-2.663.864-2.663 1.8s.54 1.476 1.944 1.62l2.95.288c3.709.36 5.58 2.304 5.58 5.508.001 4.14-3.527 6.12-7.954 6.12zm17.855 0c-2.952 0-5.58-.323-7.99-2.7l3.06-3.06a6.762 6.762 0 0 0 5.002 1.765c1.62 0 3.312-.54 3.312-1.944 0-.936-.468-1.584-1.98-1.728l-3.023-.288c-3.312-.324-5.4-1.8-5.4-5.255 0-3.924 3.42-5.976 7.236-5.976 2.95 0 5.363.54 7.163 2.196l-2.88 2.915a6.459 6.459 0 0 0-4.356-1.26c-1.872 0-2.663.864-2.663 1.8s.54 1.476 1.944 1.62l2.95.288c3.709.36 5.58 2.304 5.58 5.508 0 4.14-3.528 6.12-7.954 6.12zm20.16-22.172v-3.816h4.788v3.816zm.073 21.957V46.374h4.678v18.214zm16.054.215c-2.952 0-5.58-.323-7.99-2.7l3.06-3.06a6.762 6.762 0 0 0 5.002 1.765c1.62 0 3.312-.54 3.312-1.944 0-.936-.468-1.584-1.98-1.728l-3.023-.288c-3.312-.324-5.4-1.8-5.4-5.255 0-3.924 3.42-5.976 7.236-5.976 2.95 0 5.363.54 7.163 2.196l-2.88 2.915a6.459 6.459 0 0 0-4.356-1.26c-1.872 0-2.663.864-2.663 1.8s.54 1.476 1.944 1.62l2.95.288c3.709.36 5.58 2.304 5.58 5.508 0 4.14-3.527 6.12-7.954 6.12zm29.843-.215v-1.62a5.699 5.699 0 0 1-4.607 1.8 6.486 6.486 0 0 1-4.787-1.656 6.01 6.01 0 0 1-1.548-4.212c0-2.987 2.051-5.435 6.48-5.435h4.355v-.936c0-2.052-1.008-2.952-3.492-2.952a4.15 4.15 0 0 0-3.6 1.62l-2.952-2.916c1.836-2.015 3.6-2.663 6.732-2.663 5.29 0 7.99 2.232 7.99 6.623v12.347zm-.107-7.92h-3.564c-1.872 0-2.772.757-2.772 2.16 0 1.297.9 2.124 2.844 2.124a3.56 3.56 0 0 0 2.771-.9 2.9 2.9 0 0 0 .72-2.375zM67.292 102.113a6.287 6.287 0 0 1-4.535 1.692 5.656 5.656 0 0 1-4.68-1.98v1.763h-4.535V77.96h4.68v8.531a5.5 5.5 0 0 1 4.535-1.872 6.226 6.226 0 0 1 4.535 1.692c1.8 1.836 1.944 4.752 1.944 7.883 0 3.168-.144 6.083-1.944 7.92zM61.39 88.83c-2.808 0-3.167 2.34-3.167 5.364s.36 5.399 3.167 5.399 3.167-2.376 3.167-5.4-.36-5.363-3.167-5.363zm12.241-7.198v-3.816h4.788v3.816zm.072 21.957V85.374h4.68v18.214zm16.379 7.091c-2.88 0-4.86-.576-6.804-2.448l2.916-2.951a4.777 4.777 0 0 0 3.672 1.44c2.807 0 3.78-1.98 3.78-3.888v-1.908a5.493 5.493 0 0 1-4.464 1.872 6.238 6.238 0 0 1-4.464-1.656c-1.763-1.764-1.907-4.175-1.907-7.451s.144-5.652 1.907-7.415a6.328 6.328 0 0 1 4.5-1.656 5.491 5.491 0 0 1 4.571 1.98v-1.764h4.535v18.07c0 4.5-3.203 7.775-8.242 7.775zm.467-21.85c-2.771 0-3.06 2.376-3.06 4.86s.289 4.895 3.06 4.895 3.097-2.412 3.097-4.896-.324-4.859-3.096-4.859zm28.836 14.974c-3.743 0-8.387-2.015-8.387-9.61s4.644-9.575 8.387-9.575a7.987 7.987 0 0 1 6.191 2.52l-3.167 3.167a3.787 3.787 0 0 0-3.024-1.476 3.245 3.245 0 0 0-2.664 1.224 6.356 6.356 0 0 0-1.044 4.14 6.471 6.471 0 0 0 1.044 4.175 3.247 3.247 0 0 0 2.664 1.224 3.787 3.787 0 0 0 3.024-1.476l3.167 3.132a8.015 8.015 0 0 1-6.19 2.555zm22.247-2.303a7.833 7.833 0 0 1-5.831 2.303 7.745 7.745 0 0 1-5.796-2.303c-1.691-1.8-2.123-3.924-2.123-7.308s.432-5.47 2.124-7.27a8.486 8.486 0 0 1 11.626 0c1.692 1.8 2.124 3.887 2.124 7.27s-.396 5.544-2.124 7.308zm-3.635-11.843a2.959 2.959 0 0 0-2.196-.828 2.93 2.93 0 0 0-2.16.828c-.972.936-1.08 2.628-1.08 4.535 0 1.944.108 3.636 1.08 4.572a2.93 2.93 0 0 0 2.16.828 2.96 2.96 0 0 0 2.196-.828c.971-.936 1.08-2.628 1.08-4.572 0-1.907-.108-3.598-1.08-4.534zm21.131 13.93V92.25c0-2.555-1.62-3.42-3.095-3.42s-3.132.865-3.132 3.42v11.339h-4.68V84.834h4.572v1.728a6.417 6.417 0 0 1 4.68-1.944 6.09 6.09 0 0 1 4.428 1.656 6.95 6.95 0 0 1 1.908 5.327v11.987zm17.173.216c-3.743 0-8.387-2.016-8.387-9.61s4.644-9.575 8.387-9.575a7.987 7.987 0 0 1 6.191 2.52l-3.167 3.167a3.787 3.787 0 0 0-3.024-1.476 3.245 3.245 0 0 0-2.664 1.225 6.356 6.356 0 0 0-1.043 4.139 6.471 6.471 0 0 0 1.043 4.175 3.247 3.247 0 0 0 2.664 1.224 3.787 3.787 0 0 0 3.024-1.476l3.167 3.132a8.015 8.015 0 0 1-6.191 2.555zm12.996-8.135a3.837 3.837 0 0 0 4.104 4.176 5.3 5.3 0 0 0 4.247-1.764l2.844 2.772a8.817 8.817 0 0 1-7.127 2.951c-4.427 0-8.675-2.015-8.675-9.61 0-6.12 3.312-9.575 8.17-9.575 5.22 0 8.172 3.744 8.172 9.07v1.98zm6.695-5.219a3.494 3.494 0 0 0-6.263 0 4.595 4.595 0 0 0-.432 2.016h7.127a4.595 4.595 0 0 0-.431-2.015zm19.548-.504a3.128 3.128 0 0 0-5.507 2.34v11.302h-4.68V84.834h4.572v1.8a6.35 6.35 0 0 1 4.715-2.016 5.658 5.658 0 0 1 4.427 1.764zm17.1 13.642V92.25c0-2.555-1.62-3.42-3.096-3.42s-3.132.865-3.132 3.42v11.339h-4.68V84.834h4.572v1.728a6.417 6.417 0 0 1 4.68-1.944 6.09 6.09 0 0 1 4.427 1.656 6.95 6.95 0 0 1 1.908 5.327v11.987zm18-21.957v-3.815h4.787v3.816zm.072 21.957V85.374h4.679v18.214zm31.713 0V92.25c0-2.555-1.62-3.42-3.095-3.42a3.022 3.022 0 0 0-3.132 3.312v11.447h-4.68V92.249c0-2.555-1.62-3.42-3.096-3.42s-3.132.865-3.132 3.42v11.339h-4.678V84.834h4.57v1.728a6.562 6.562 0 0 1 4.68-1.944 5.809 5.809 0 0 1 4.968 2.376 7.152 7.152 0 0 1 5.615-2.376 6.54 6.54 0 0 1 4.607 1.656 7.07 7.07 0 0 1 2.052 5.327v11.987zm23.473-1.475a6.286 6.286 0 0 1-4.535 1.691 5.502 5.502 0 0 1-4.536-1.871v8.53h-4.679V84.834h4.535v1.764a5.657 5.657 0 0 1 4.68-1.98 6.284 6.284 0 0 1 4.535 1.692c1.8 1.836 1.944 4.751 1.944 7.883s-.144 6.083-1.944 7.92zm-5.903-13.283c-2.808 0-3.168 2.34-3.168 5.363s.36 5.4 3.168 5.4 3.168-2.376 3.168-5.4-.36-5.363-3.168-5.363zm21.923 14.758v-1.62a5.699 5.699 0 0 1-4.608 1.8 6.486 6.486 0 0 1-4.787-1.655 6.01 6.01 0 0 1-1.548-4.212c0-2.988 2.052-5.436 6.48-5.436h4.355v-.935c0-2.052-1.008-2.952-3.492-2.952a4.15 4.15 0 0 0-3.6 1.62l-2.951-2.916c1.836-2.015 3.6-2.663 6.731-2.663 5.291 0 7.99 2.232 7.99 6.623v12.346zm-.108-7.919h-3.563c-1.872 0-2.773.756-2.773 2.16 0 1.296.9 2.124 2.844 2.124a3.56 3.56 0 0 0 2.772-.9 2.9 2.9 0 0 0 .72-2.376zm17.173 8.135c-3.744 0-8.388-2.016-8.388-9.61s4.644-9.575 8.388-9.575a7.984 7.984 0 0 1 6.19 2.52l-3.167 3.167a3.787 3.787 0 0 0-3.023-1.476 3.245 3.245 0 0 0-2.664 1.224 6.355 6.355 0 0 0-1.044 4.14 6.47 6.47 0 0 0 1.044 4.175 3.246 3.246 0 0 0 2.664 1.224 3.786 3.786 0 0 0 3.023-1.476l3.167 3.131a8.012 8.012 0 0 1-6.19 2.556zm15.695-.216a5.086 5.086 0 0 1-5.435-5.363v-9.287h-1.98v-3.563h1.98V79.83h4.68v5.543h3.311v3.563h-3.311v9c0 1.08.504 1.691 1.619 1.691h1.692v3.96zm10.296-7.919a3.837 3.837 0 0 0 4.104 4.176 5.302 5.302 0 0 0 4.248-1.764l2.844 2.772a8.82 8.82 0 0 1-7.128 2.951c-4.427 0-8.675-2.015-8.675-9.61 0-6.12 3.312-9.575 8.17-9.575 5.22 0 8.173 3.743 8.173 9.07v1.98zm6.696-5.219a3.494 3.494 0 0 0-6.263 0 4.596 4.596 0 0 0-.433 2.016h7.128a4.595 4.595 0 0 0-.432-2.015zm19.727 13.138v-1.763a5.63 5.63 0 0 1-4.644 1.98 6.317 6.317 0 0 1-4.57-1.691c-1.8-1.836-1.944-4.752-1.944-7.92 0-3.131.143-6.047 1.943-7.883a6.227 6.227 0 0 1 4.536-1.692 5.619 5.619 0 0 1 4.572 1.872V77.96h4.678v25.629zm-3.311-14.758c-2.808 0-3.167 2.34-3.167 5.363s.359 5.4 3.167 5.4 3.204-2.376 3.204-5.4-.397-5.363-3.204-5.363zm35.242 13.283a6.286 6.286 0 0 1-4.535 1.691 5.657 5.657 0 0 1-4.68-1.98v1.764h-4.536V77.959h4.68v8.531a5.501 5.501 0 0 1 4.535-1.872 6.226 6.226 0 0 1 4.535 1.692c1.8 1.836 1.944 4.751 1.944 7.883 0 3.168-.143 6.083-1.943 7.92zm-5.904-13.283c-2.807 0-3.168 2.34-3.168 5.363s.36 5.4 3.168 5.4 3.168-2.376 3.168-5.4-.36-5.363-3.167-5.363zm19.297 17.782a6.66 6.66 0 0 1-1.403 2.412 5.421 5.421 0 0 1-4.031 1.44h-1.836v-4.212h1.08a2.024 2.024 0 0 0 2.34-1.692l.79-2.303-6.407-17.422h4.932l3.888 11.59 3.743-11.59h4.931zM59.41 142.588a5.086 5.086 0 0 1-5.436-5.364v-9.287h-1.98v-3.563h1.98v-5.543h4.68v5.543h3.312v3.563h-3.312v9c0 1.08.503 1.691 1.62 1.691h1.691v3.96zm16.991-13.642a3.128 3.128 0 0 0-5.507 2.339v11.303h-4.68v-18.754h4.572v1.8a6.35 6.35 0 0 1 4.715-2.016 5.658 5.658 0 0 1 4.427 1.764zm15.48 13.642v-1.62a5.7 5.7 0 0 1-4.608 1.8 6.487 6.487 0 0 1-4.787-1.656 6.01 6.01 0 0 1-1.548-4.212c0-2.987 2.052-5.435 6.479-5.435h4.355v-.936c0-2.052-1.008-2.952-3.49-2.952a4.15 4.15 0 0 0-3.6 1.62l-2.953-2.916c1.836-2.015 3.6-2.663 6.731-2.663 5.292 0 7.992 2.232 7.992 6.623v12.346zm-.109-7.92h-3.564c-1.871 0-2.771.757-2.771 2.16 0 1.297.9 2.124 2.844 2.124a3.562 3.562 0 0 0 2.771-.9 2.9 2.9 0 0 0 .72-2.375zm14.977-6.73v14.65h-4.68v-14.65h-1.943v-3.564h1.944v-2.34a5.116 5.116 0 0 1 5.47-5.363h2.664v3.96h-1.835c-1.116 0-1.62.612-1.62 1.691v2.052h3.455v3.564zm12.311 0v14.65h-4.679v-14.65h-1.944v-3.564h1.944v-2.34a5.116 5.116 0 0 1 5.471-5.363h2.664v3.96h-1.836c-1.116 0-1.62.612-1.62 1.691v2.052h3.455v3.564zm6.985-7.307v-3.816h4.788v3.816zm.072 21.957v-18.214h4.68v18.214zm17.351.216c-3.744 0-8.387-2.016-8.387-9.611s4.643-9.575 8.387-9.575a7.987 7.987 0 0 1 6.191 2.52l-3.167 3.167a3.787 3.787 0 0 0-3.024-1.476 3.245 3.245 0 0 0-2.664 1.225 6.356 6.356 0 0 0-1.044 4.139 6.471 6.471 0 0 0 1.044 4.175 3.247 3.247 0 0 0 2.664 1.224 3.787 3.787 0 0 0 3.024-1.475l3.167 3.13a8.015 8.015 0 0 1-6.191 2.556zm21.095-.216l-4.607-7.811-1.98 2.232v5.579h-4.68v-25.63h4.68v14.543l6.227-7.667h5.651l-6.695 7.559 7.2 11.195zm11.125-7.92a3.837 3.837 0 0 0 4.104 4.176 5.3 5.3 0 0 0 4.247-1.764l2.844 2.772a8.817 8.817 0 0 1-7.127 2.951c-4.428 0-8.675-2.015-8.675-9.61 0-6.12 3.311-9.575 8.17-9.575 5.22 0 8.172 3.744 8.172 9.07v1.98zm6.695-5.219a3.494 3.494 0 0 0-6.263 0 4.602 4.602 0 0 0-.432 2.016h7.127a4.595 4.595 0 0 0-.432-2.015zm19.548-.503a3.128 3.128 0 0 0-5.507 2.339v11.303h-4.68v-18.754h4.571v1.8a6.35 6.35 0 0 1 4.716-2.016 5.658 5.658 0 0 1 4.427 1.764zm11.988 13.858c-2.952 0-5.58-.324-7.991-2.7l3.06-3.06a6.763 6.763 0 0 0 5.003 1.764c1.62 0 3.312-.54 3.312-1.944 0-.936-.468-1.584-1.98-1.728l-3.024-.288c-3.311-.324-5.399-1.8-5.399-5.255 0-3.924 3.42-5.976 7.235-5.976 2.952 0 5.364.54 7.163 2.196l-2.88 2.916a6.459 6.459 0 0 0-4.355-1.26c-1.872 0-2.664.863-2.664 1.8s.54 1.476 1.944 1.62l2.952.288c3.707.36 5.579 2.303 5.579 5.507 0 4.14-3.528 6.12-7.956 6.12zm39.057-.216h-3.852l-3.923-11.77-3.923 11.77h-3.851l-5.76-18.754h4.968l3.023 11.59 3.816-11.59h3.42l3.85 11.59 3.024-11.59h4.931zm19.405 0v-11.339c0-2.555-1.62-3.42-3.096-3.42s-3.131.865-3.131 3.42v11.339h-4.68v-25.63h4.68v8.604a6.015 6.015 0 0 1 4.572-1.944 6.089 6.089 0 0 1 4.427 1.656 6.95 6.95 0 0 1 1.908 5.327v11.987zm22.679-2.088a7.833 7.833 0 0 1-5.831 2.304 7.744 7.744 0 0 1-5.795-2.304c-1.692-1.8-2.124-3.923-2.124-7.307s.432-5.471 2.124-7.271a8.486 8.486 0 0 1 11.626 0c1.691 1.8 2.124 3.888 2.124 7.27s-.396 5.544-2.124 7.308zm-3.636-11.842a3.277 3.277 0 0 0-4.355 0c-.972.936-1.08 2.627-1.08 4.535 0 1.944.108 3.636 1.08 4.572a3.279 3.279 0 0 0 4.355 0c.973-.936 1.08-2.628 1.08-4.572 0-1.908-.107-3.6-1.08-4.536zm22.248 6.01a3.837 3.837 0 0 0 4.104 4.176 5.302 5.302 0 0 0 4.248-1.763l2.844 2.771a8.82 8.82 0 0 1-7.128 2.952c-4.427 0-8.675-2.016-8.675-9.611 0-6.12 3.311-9.575 8.17-9.575 5.22 0 8.173 3.744 8.173 9.07v1.98zm6.696-5.218a3.494 3.494 0 0 0-6.263 0 4.595 4.595 0 0 0-.433 2.015h7.128a4.596 4.596 0 0 0-.432-2.015zm18.972 13.138l-3.456-5.615-3.42 5.615h-5.615l6.48-9.575-6.228-9.179h5.615l3.168 5.364 3.203-5.364h5.617l-6.228 9.18 6.48 9.574zm22.427-1.476a6.286 6.286 0 0 1-4.535 1.692 5.502 5.502 0 0 1-4.536-1.872v8.53h-4.679v-25.628h4.535v1.764a5.657 5.657 0 0 1 4.68-1.98 6.284 6.284 0 0 1 4.535 1.692c1.8 1.836 1.944 4.751 1.944 7.883s-.144 6.083-1.944 7.92zm-5.903-13.282c-2.808 0-3.168 2.34-3.168 5.363s.36 5.4 3.168 5.4 3.168-2.376 3.168-5.4-.36-5.364-3.168-5.364zm17.603 14.758a5.096 5.096 0 0 1-5.471-5.363v-20.266h4.68v19.977c0 1.116.467 1.692 1.656 1.692h1.8v3.96zm19.007-2.088a7.834 7.834 0 0 1-5.83 2.304 7.744 7.744 0 0 1-5.796-2.304c-1.692-1.8-2.124-3.923-2.124-7.307s.432-5.471 2.124-7.271a8.486 8.486 0 0 1 11.626 0c1.692 1.8 2.124 3.888 2.124 7.27s-.396 5.544-2.124 7.308zm-3.635-11.842a3.277 3.277 0 0 0-4.356 0c-.971.936-1.079 2.627-1.079 4.535 0 1.944.108 3.636 1.08 4.572a3.279 3.279 0 0 0 4.355 0c.972-.936 1.08-2.628 1.08-4.572 0-1.908-.108-3.6-1.08-4.536zm10.154-8.027v-3.816h4.787v3.816zm.072 21.957v-18.214h4.679v18.214zm15.767 0a5.086 5.086 0 0 1-5.436-5.363v-9.287h-1.98v-3.564h1.98v-5.543h4.68v5.543h3.312v3.564h-3.312v8.999c0 1.08.504 1.691 1.62 1.691h1.691v3.96zm-353.191 39H57.97l-6.911-18.754h4.931l3.816 11.59 3.78-11.59h4.93zm20.448 0v-1.728a6.417 6.417 0 0 1-4.68 1.944 6.09 6.09 0 0 1-4.427-1.656 6.95 6.95 0 0 1-1.908-5.327v-11.987h4.68v11.339c0 2.555 1.62 3.419 3.095 3.419s3.132-.864 3.132-3.42v-11.338h4.679v18.754zm15.12 0a5.096 5.096 0 0 1-5.47-5.363v-20.266h4.678v19.977c0 1.116.468 1.692 1.656 1.692h1.8v3.96zm17.315 0v-11.339c0-2.555-1.62-3.42-3.096-3.42s-3.13.865-3.13 3.42v11.339h-4.68v-18.754h4.57v1.728a6.417 6.417 0 0 1 4.68-1.944 6.09 6.09 0 0 1 4.428 1.656 6.95 6.95 0 0 1 1.908 5.327v11.987zm13.393-7.92a3.837 3.837 0 0 0 4.104 4.176 5.3 5.3 0 0 0 4.247-1.763l2.844 2.771a8.817 8.817 0 0 1-7.127 2.952c-4.428 0-8.675-2.016-8.675-9.611 0-6.12 3.311-9.575 8.17-9.575 5.22 0 8.172 3.744 8.172 9.07v1.98zm6.695-5.218a3.494 3.494 0 0 0-6.263 0 4.602 4.602 0 0 0-.432 2.015h7.127a4.595 4.595 0 0 0-.432-2.015zm19.548-.504a3.128 3.128 0 0 0-5.507 2.34v11.302h-4.68v-18.754h4.571v1.8a6.35 6.35 0 0 1 4.716-2.016 5.658 5.658 0 0 1 4.427 1.764zm15.48 13.642v-1.62a5.699 5.699 0 0 1-4.608 1.8 6.486 6.486 0 0 1-4.787-1.656 6.01 6.01 0 0 1-1.548-4.212c0-2.987 2.052-5.435 6.48-5.435h4.354v-.936c0-2.052-1.007-2.952-3.49-2.952a4.149 4.149 0 0 0-3.6 1.62l-2.952-2.916c1.835-2.015 3.6-2.663 6.73-2.663 5.292 0 7.992 2.232 7.992 6.623v12.346zm-.109-7.92h-3.563c-1.872 0-2.771.757-2.771 2.16 0 1.297.9 2.124 2.843 2.124a3.562 3.562 0 0 0 2.772-.9 2.9 2.9 0 0 0 .72-2.375zm23.472 6.444a6.287 6.287 0 0 1-4.536 1.692 5.656 5.656 0 0 1-4.68-1.98v1.763h-4.535V155.96h4.68v8.531a5.5 5.5 0 0 1 4.535-1.872 6.225 6.225 0 0 1 4.536 1.692c1.8 1.836 1.944 4.751 1.944 7.883 0 3.168-.144 6.083-1.944 7.92zm-5.904-13.282c-2.807 0-3.167 2.34-3.167 5.363s.36 5.4 3.167 5.4 3.168-2.376 3.168-5.4-.36-5.364-3.168-5.364zm17.605 14.758a5.096 5.096 0 0 1-5.471-5.363v-20.266h4.679v19.977c0 1.116.468 1.692 1.656 1.692h1.8v3.96zm9.756-7.92a3.837 3.837 0 0 0 4.104 4.176 5.3 5.3 0 0 0 4.247-1.764l2.844 2.772a8.817 8.817 0 0 1-7.127 2.952c-4.428 0-8.675-2.016-8.675-9.611 0-6.12 3.311-9.575 8.17-9.575 5.22 0 8.172 3.744 8.172 9.07v1.98zm6.695-5.218a3.494 3.494 0 0 0-6.263 0 4.603 4.603 0 0 0-.432 2.015h7.127a4.595 4.595 0 0 0-.432-2.015zm28.62 13.138v-11.339c0-2.555-1.62-3.42-3.097-3.42s-3.13.865-3.13 3.42v11.339h-4.68v-25.63h4.68v8.604a6.011 6.011 0 0 1 4.57-1.944 6.09 6.09 0 0 1 4.428 1.656 6.95 6.95 0 0 1 1.908 5.327v11.987zm22.68-2.088a7.834 7.834 0 0 1-5.832 2.304 7.744 7.744 0 0 1-5.795-2.304c-1.692-1.8-2.124-3.923-2.124-7.307s.432-5.471 2.124-7.271a8.486 8.486 0 0 1 11.626 0c1.693 1.8 2.124 3.888 2.124 7.27s-.397 5.544-2.124 7.308zm-3.637-11.842a3.277 3.277 0 0 0-4.355 0c-.972.936-1.08 2.627-1.08 4.535 0 1.944.108 3.636 1.08 4.572a3.279 3.279 0 0 0 4.355 0c.973-.936 1.08-2.628 1.08-4.572 0-1.908-.107-3.6-1.08-4.536zm32.04 13.93v-11.339c0-2.555-1.62-3.42-3.096-3.42a3.022 3.022 0 0 0-3.132 3.312v11.447h-4.68v-11.339c0-2.555-1.62-3.42-3.096-3.42s-3.132.865-3.132 3.42v11.339h-4.678v-18.754h4.571v1.728a6.562 6.562 0 0 1 4.68-1.944 5.809 5.809 0 0 1 4.967 2.376 7.152 7.152 0 0 1 5.615-2.376 6.54 6.54 0 0 1 4.607 1.656 7.07 7.07 0 0 1 2.052 5.327v11.987zm13.392-7.92a3.837 3.837 0 0 0 4.104 4.176 5.302 5.302 0 0 0 4.248-1.764l2.843 2.772a8.82 8.82 0 0 1-7.126 2.952c-4.428 0-8.676-2.016-8.676-9.611 0-6.12 3.311-9.575 8.17-9.575 5.22 0 8.172 3.744 8.172 9.07v1.98zm6.695-5.218a3.494 3.494 0 0 0-6.262 0 4.595 4.595 0 0 0-.433 2.015h7.128a4.595 4.595 0 0 0-.433-2.015zm14.653 13.138a5.096 5.096 0 0 1-5.472-5.363v-20.266h4.68v19.977c0 1.116.468 1.692 1.656 1.692h1.8v3.96zm9.72-7.92a3.837 3.837 0 0 0 4.103 4.176 5.302 5.302 0 0 0 4.248-1.764l2.844 2.772a8.82 8.82 0 0 1-7.128 2.952c-4.427 0-8.675-2.016-8.675-9.611 0-6.12 3.312-9.575 8.171-9.575 5.22 0 8.172 3.744 8.172 9.07v1.98zm6.695-5.218a3.494 3.494 0 0 0-6.263 0 4.595 4.595 0 0 0-.432 2.015h7.128a4.595 4.595 0 0 0-.434-2.015zm15.517 13.354c-2.953 0-5.58-.324-7.992-2.7l3.06-3.06a6.762 6.762 0 0 0 5.003 1.764c1.62 0 3.312-.54 3.312-1.944 0-.936-.468-1.584-1.98-1.728l-3.024-.288c-3.311-.324-5.399-1.8-5.399-5.255 0-3.924 3.42-5.976 7.235-5.976 2.952 0 5.364.54 7.163 2.196l-2.88 2.916a6.459 6.459 0 0 0-4.355-1.26c-1.872 0-2.663.863-2.663 1.8s.539 1.476 1.943 1.62l2.951.288c3.708.36 5.58 2.303 5.58 5.507 0 4.14-3.528 6.12-7.955 6.12zm17.892 0c-2.952 0-5.58-.324-7.99-2.7l3.06-3.06a6.762 6.762 0 0 0 5.002 1.764c1.62 0 3.312-.54 3.312-1.944 0-.936-.468-1.584-1.98-1.728l-3.024-.288c-3.311-.324-5.4-1.8-5.4-5.255 0-3.924 3.42-5.976 7.236-5.976 2.951 0 5.363.54 7.163 2.196l-2.88 2.916a6.459 6.459 0 0 0-4.355-1.26c-1.872 0-2.663.863-2.663 1.8s.539 1.476 1.943 1.62l2.951.288c3.708.36 5.58 2.303 5.58 5.507 0 4.14-3.529 6.12-7.955 6.12zm-318.13 37.308a6.287 6.287 0 0 1-4.535 1.692 5.5 5.5 0 0 1-4.535-1.872v8.53h-4.68v-25.628h4.535v1.764a5.657 5.657 0 0 1 4.68-1.98 6.285 6.285 0 0 1 4.535 1.692c1.8 1.836 1.944 4.751 1.944 7.883s-.144 6.083-1.944 7.92zM61.39 205.83c-2.808 0-3.167 2.34-3.167 5.364s.36 5.399 3.167 5.399 3.167-2.376 3.167-5.4-.36-5.363-3.167-5.363zm15.985 6.84a3.837 3.837 0 0 0 4.103 4.175 5.3 5.3 0 0 0 4.248-1.764l2.843 2.772a8.817 8.817 0 0 1-7.127 2.951c-4.427 0-8.675-2.015-8.675-9.61 0-6.12 3.312-9.575 8.171-9.575 5.22 0 8.171 3.744 8.171 9.07v1.98zm6.695-5.22a3.494 3.494 0 0 0-6.263 0 4.595 4.595 0 0 0-.432 2.016H84.5a4.595 4.595 0 0 0-.432-2.015zm19.547-.503a3.128 3.128 0 0 0-5.507 2.339v11.303H93.43v-18.754h4.572v1.8a6.35 6.35 0 0 1 4.715-2.016 5.658 5.658 0 0 1 4.427 1.764zm12.024 13.858c-2.952 0-5.58-.324-7.99-2.7l3.06-3.06a6.763 6.763 0 0 0 5.003 1.764c1.62 0 3.311-.54 3.311-1.944 0-.936-.468-1.584-1.98-1.728l-3.023-.288c-3.312-.324-5.4-1.8-5.4-5.255 0-3.924 3.42-5.976 7.236-5.976 2.951 0 5.363.54 7.163 2.196l-2.88 2.916a6.459 6.459 0 0 0-4.356-1.26c-1.871 0-2.663.863-2.663 1.8s.54 1.476 1.944 1.62l2.951.288c3.708.36 5.58 2.303 5.58 5.507-.001 4.14-3.528 6.12-7.956 6.12zm24.839-2.304a7.834 7.834 0 0 1-5.831 2.304 7.745 7.745 0 0 1-5.796-2.304c-1.692-1.8-2.123-3.923-2.123-7.307s.431-5.471 2.123-7.271a8.486 8.486 0 0 1 11.627 0c1.692 1.8 2.124 3.888 2.124 7.27s-.396 5.544-2.124 7.308zm-3.636-11.842a2.959 2.959 0 0 0-2.195-.828 2.929 2.929 0 0 0-2.16.828c-.972.936-1.08 2.627-1.08 4.535 0 1.944.108 3.636 1.08 4.572a2.93 2.93 0 0 0 2.16.827 2.96 2.96 0 0 0 2.196-.827c.971-.936 1.08-2.628 1.08-4.572 0-1.908-.109-3.6-1.08-4.536zm21.132 13.93v-11.339c0-2.555-1.62-3.42-3.095-3.42s-3.132.865-3.132 3.42v11.339h-4.68v-18.754h4.572v1.728a6.417 6.417 0 0 1 4.68-1.944 6.09 6.09 0 0 1 4.427 1.656 6.95 6.95 0 0 1 1.908 5.327v11.987zm15.877.216c-2.952 0-5.58-.324-7.99-2.7l3.06-3.06a6.763 6.763 0 0 0 5.002 1.764c1.62 0 3.312-.54 3.312-1.944 0-.936-.468-1.584-1.98-1.728l-3.023-.288c-3.312-.324-5.4-1.8-5.4-5.255 0-3.924 3.42-5.976 7.236-5.976 2.951 0 5.363.54 7.163 2.196l-2.88 2.916a6.459 6.459 0 0 0-4.356-1.26c-1.872 0-2.664.863-2.664 1.8s.54 1.476 1.944 1.62l2.952.288c3.707.36 5.579 2.303 5.579 5.507 0 4.14-3.527 6.12-7.955 6.12zM51.979 255.282v-.953h10.674v.953zm16.66 3.306v-9.974h1.064v9.02h5.099v.953zm11.748 0v-.659a3.17 3.17 0 0 1-3.937.112 1.926 1.926 0 0 1-.518-1.4c0-1.219.855-1.99 2.396-1.99h2.059v-.658c0-.994-.49-1.513-1.765-1.513a1.844 1.844 0 0 0-1.737.799l-.687-.63a2.65 2.65 0 0 1 2.438-1.037c1.863 0 2.76.812 2.76 2.297v4.678zm0-3.18h-1.919q-1.555 0-1.555 1.218c0 .799.49 1.177 1.597 1.177a2.073 2.073 0 0 0 1.526-.462 1.592 1.592 0 0 0 .351-1.191zm7.812 3.18v-.77a2.525 2.525 0 0 1-1.947.854 2.45 2.45 0 0 1-1.78-.644 2.572 2.572 0 0 1-.7-1.934v-4.398h1.009v4.244c0 1.219.645 1.835 1.68 1.835a1.63 1.63 0 0 0 1.724-1.835v-4.244h1.009v6.892zm7.364-5.576a1.442 1.442 0 0 0-1.19-.503 1.683 1.683 0 0 0-1.654 1.848v4.23h-1.008v-6.891h1.008v.84a2.316 2.316 0 0 1 1.933-.924 2.122 2.122 0 0 1 1.653.644zm2.252 2.396c0 1.513.7 2.381 2.03 2.381a2.263 2.263 0 0 0 1.807-.784l.687.602a3.177 3.177 0 0 1-2.521 1.065c-1.835 0-3.012-1.093-3.012-3.53 0-2.242 1.078-3.53 2.83-3.53 1.793 0 2.83 1.274 2.83 3.347v.449zm3.431-1.905a1.77 1.77 0 0 0-3.221 0 2.63 2.63 0 0 0-.21 1.149h3.655a2.832 2.832 0 0 0-.224-1.15zm7.77 5.085v-4.245a1.605 1.605 0 0 0-1.695-1.834 1.62 1.62 0 0 0-1.709 1.835v4.244h-1.008v-6.892h1.008v.756a2.483 2.483 0 0 1 1.934-.84 2.417 2.417 0 0 1 1.765.644 2.546 2.546 0 0 1 .714 1.92v4.412zm10.234.084a3.42 3.42 0 0 1-2.494-.98c-.938-.939-.994-1.808-.994-4.09s.056-3.152.994-4.09a3.418 3.418 0 0 1 2.494-.981 3.376 3.376 0 0 1 3.46 2.97h-1.093a2.343 2.343 0 0 0-2.367-2.018 2.368 2.368 0 0 0-1.723.7c-.63.645-.7 1.373-.7 3.418s.07 2.774.7 3.418a2.443 2.443 0 0 0 4.118-1.317h1.065a3.385 3.385 0 0 1-3.46 2.97zm9.534-.084v-.659a3.17 3.17 0 0 1-3.936.112 1.926 1.926 0 0 1-.518-1.4c0-1.219.854-1.99 2.395-1.99h2.06v-.658c0-.994-.49-1.513-1.766-1.513a1.844 1.844 0 0 0-1.737.799l-.686-.63a2.65 2.65 0 0 1 2.437-1.037c1.863 0 2.76.812 2.76 2.297v4.678zm0-3.18h-1.919q-1.555 0-1.555 1.218c0 .799.49 1.177 1.597 1.177a2.073 2.073 0 0 0 1.527-.462 1.592 1.592 0 0 0 .35-1.191zm12.308 3.18v-4.245a1.711 1.711 0 1 0-3.417-.112v4.357h-1.009v-4.245a1.605 1.605 0 0 0-1.695-1.834 1.63 1.63 0 0 0-1.723 1.835v4.244h-1.008v-6.892h1.008v.756a2.513 2.513 0 0 1 1.948-.84 2.272 2.272 0 0 1 2.115 1.149 2.638 2.638 0 0 1 2.269-1.149 2.508 2.508 0 0 1 1.779.644 2.565 2.565 0 0 1 .742 1.92v4.412zm8.09-.518a2.376 2.376 0 0 1-1.68.602 2.245 2.245 0 0 1-1.948-.897v3.894h-1.008v-9.973h1.008v.813a2.23 2.23 0 0 1 1.947-.897 2.374 2.374 0 0 1 1.68.602 5.518 5.518 0 0 1 0 5.856zm-1.89-5.561c-1.514 0-1.738 1.288-1.738 2.633s.224 2.633 1.737 2.633c1.499 0 1.723-1.288 1.723-2.633s-.224-2.633-1.723-2.633zm4.856 8.096v-3.25h1.233v2.143zm7.392-2.017v-9.974h6.191v.953h-5.127v3.516h4.37v.952h-4.37v3.6h5.127v.953zm12.321 3.081v-3.894a2.228 2.228 0 0 1-1.946.897 2.378 2.378 0 0 1-1.681-.602 5.52 5.52 0 0 1 0-5.856 2.376 2.376 0 0 1 1.68-.602 2.239 2.239 0 0 1 1.962.897v-.813h.994v9.973zm-1.722-9.16c-1.513 0-1.737 1.288-1.737 2.633s.224 2.633 1.737 2.633c1.498 0 1.722-1.288 1.722-2.633s-.224-2.633-1.722-2.633zm9.605 6.079v-.77a2.525 2.525 0 0 1-1.947.854 2.45 2.45 0 0 1-1.78-.644 2.571 2.571 0 0 1-.7-1.934v-4.398h1.009v4.244c0 1.219.644 1.835 1.68 1.835a1.63 1.63 0 0 0 1.724-1.835v-4.244h1.009v6.892zm7.42 0v-.659a3.17 3.17 0 0 1-3.936.112 1.924 1.924 0 0 1-.519-1.4c0-1.219.855-1.99 2.396-1.99h2.059v-.658c0-.994-.49-1.513-1.765-1.513a1.844 1.844 0 0 0-1.737.799l-.687-.63a2.65 2.65 0 0 1 2.438-1.037c1.863 0 2.759.812 2.759 2.297v4.678zm0-3.18h-1.92q-1.554 0-1.554 1.218c0 .799.49 1.177 1.597 1.177a2.074 2.074 0 0 0 1.527-.462 1.594 1.594 0 0 0 .35-1.191zm5.178 3.18a1.642 1.642 0 0 1-1.751-1.835v-8.138h1.009v8.096c0 .672.224 1.008.924 1.008h.547v.869zm7.224.084a3.008 3.008 0 0 1-2.284-.897l.715-.714a1.944 1.944 0 0 0 1.569.658c1.302 0 2.044-.826 2.044-2.297v-6.807h1.065v6.947a2.933 2.933 0 0 1-3.11 3.11zm10.025-.084v-.77a2.525 2.525 0 0 1-1.947.854 2.45 2.45 0 0 1-1.779-.644 2.572 2.572 0 0 1-.7-1.934v-4.398h1.008v4.244c0 1.219.645 1.835 1.681 1.835a1.63 1.63 0 0 0 1.723-1.835v-4.244h1.009v6.892zm5.683.084a3.756 3.756 0 0 1-2.83-.995l.673-.672a2.85 2.85 0 0 0 2.143.798c1.148 0 1.835-.406 1.835-1.218 0-.617-.337-.939-1.15-1.01l-1.133-.097c-1.345-.112-2.06-.7-2.06-1.849 0-1.26 1.05-2.017 2.536-2.017a3.897 3.897 0 0 1 2.48.742l-.659.658a2.941 2.941 0 0 0-1.835-.545c-1.008 0-1.54.42-1.54 1.134 0 .616.378.925 1.232 1.009l1.079.098c1.205.112 2.031.56 2.031 1.863 0 1.33-1.121 2.1-2.802 2.1zm6.565-.084a1.69 1.69 0 0 1-1.765-1.85v-4.272h-.868v-.77h.868v-2.115h1.01v2.116h1.47v.77h-1.47v4.244c0 .63.293 1.008.938 1.008h.532v.869zm2.66-8.853V248.6h1.134v1.134zm.055 8.853v-6.892h1.009v6.892zm6.203.084c-1.736 0-3.053-1.177-3.053-3.53s1.317-3.53 3.053-3.53a2.728 2.728 0 0 1 2.27 1.022l-.687.644a1.892 1.892 0 0 0-1.583-.77 1.868 1.868 0 0 0-1.596.784 4.039 4.039 0 0 0 0 3.699 1.868 1.868 0 0 0 1.596.784 1.907 1.907 0 0 0 1.583-.784l.687.658a2.728 2.728 0 0 1-2.27 1.023zm4.62-3.264c0 1.513.7 2.381 2.03 2.381a2.263 2.263 0 0 0 1.807-.784l.687.602a3.178 3.178 0 0 1-2.521 1.065c-1.835 0-3.012-1.093-3.012-3.53 0-2.242 1.078-3.53 2.83-3.53 1.792 0 2.83 1.274 2.83 3.347v.449zm3.431-1.905a1.77 1.77 0 0 0-3.221 0 2.63 2.63 0 0 0-.21 1.149h3.655a2.824 2.824 0 0 0-.224-1.15zm14.772 5.085h-.994l-2.213-7.985-2.214 7.985h-.994l-2.55-9.974h1.135l1.947 8.04 2.199-8.04h.952l2.2 8.04 1.947-8.04h1.135zm7.908-.7a2.88 2.88 0 0 1-3.95 0 4.903 4.903 0 0 1 0-5.492 2.88 2.88 0 0 1 3.95 0 4.908 4.908 0 0 1 0 5.492zm-.715-4.875a1.733 1.733 0 0 0-1.26-.504 1.7 1.7 0 0 0-1.247.504 4.324 4.324 0 0 0 0 4.258 1.698 1.698 0 0 0 1.246.504 1.731 1.731 0 0 0 1.261-.504 3.017 3.017 0 0 0 .547-2.129 2.982 2.982 0 0 0-.547-2.13zm7.56 0a1.441 1.441 0 0 0-1.19-.504 1.683 1.683 0 0 0-1.653 1.848v4.23h-1.008v-6.891h1.008v.84a2.317 2.317 0 0 1 1.934-.924 2.122 2.122 0 0 1 1.652.644zm6.58 5.575l-2.185-3.53-1.345 1.54v1.99h-1.007v-9.974h1.007v6.668l3.11-3.586h1.261l-2.34 2.633 2.746 4.258zm4.717.084a3.755 3.755 0 0 1-2.829-.995l.672-.672a2.851 2.851 0 0 0 2.144.798c1.148 0 1.835-.406 1.835-1.218 0-.617-.337-.939-1.15-1.009l-1.134-.098c-1.344-.112-2.06-.7-2.06-1.849 0-1.26 1.051-2.017 2.536-2.017a3.895 3.895 0 0 1 2.48.742l-.659.659a2.943 2.943 0 0 0-1.835-.546c-1.008 0-1.54.42-1.54 1.134 0 .616.377.925 1.232 1.009l1.079.098c1.204.112 2.031.56 2.031 1.863 0 1.33-1.12 2.1-2.801 2.1zm12.166-.084v-.658a3.169 3.169 0 0 1-3.935.111 1.924 1.924 0 0 1-.519-1.4c0-1.219.855-1.99 2.396-1.99h2.058v-.657c0-.995-.49-1.514-1.764-1.514a1.846 1.846 0 0 0-1.738.799l-.685-.63a2.65 2.65 0 0 1 2.436-1.037c1.864 0 2.76.812 2.76 2.297v4.679zm0-3.18h-1.919q-1.554 0-1.554 1.219c0 .798.49 1.176 1.596 1.176a2.076 2.076 0 0 0 1.528-.462 1.592 1.592 0 0 0 .35-1.191zm5.389 3.18a1.69 1.69 0 0 1-1.765-1.85v-4.271h-.868v-.77h.868v-2.116h1.01v2.116h1.47v.77h-1.47v4.244c0 .63.294 1.008.939 1.008h.531v.869zm6.383 0v-9.973h1.065v9.973zm8.193-.7a2.88 2.88 0 0 1-3.95 0 4.903 4.903 0 0 1 0-5.491 2.88 2.88 0 0 1 3.95 0 4.908 4.908 0 0 1 0 5.49zm-.715-4.875a1.734 1.734 0 0 0-1.26-.504 1.704 1.704 0 0 0-1.247.504 4.33 4.33 0 0 0 0 4.258 1.702 1.702 0 0 0 1.247.505 1.732 1.732 0 0 0 1.26-.505 3.022 3.022 0 0 0 .546-2.129 2.986 2.986 0 0 0-.545-2.13zm10.123 5.575h-.938l-1.808-5.351-1.793 5.351h-.938l-2.185-6.892h1.093l1.582 5.533 1.808-5.533h.868l1.821 5.533 1.568-5.533h1.093zm7.433 0v-.658a3.17 3.17 0 0 1-3.936.112 1.927 1.927 0 0 1-.518-1.401c0-1.219.853-1.989 2.394-1.989h2.06v-.658c0-.995-.49-1.513-1.764-1.513a1.844 1.844 0 0 0-1.737.798l-.687-.63a2.65 2.65 0 0 1 2.438-1.037c1.863 0 2.76.812 2.76 2.297v4.679zm0-3.18h-1.919q-1.556 0-1.555 1.219c0 .798.49 1.176 1.597 1.176a2.073 2.073 0 0 0 1.526-.462 1.592 1.592 0 0 0 .351-1.19zm7.123 3.18v-9.973h1.066v9.02h5.098v.953zm8.47-3.18c0 1.513.702 2.381 2.032 2.381a2.265 2.265 0 0 0 1.808-.784l.685.602a3.175 3.175 0 0 1-2.52 1.065c-1.835 0-3.012-1.093-3.012-3.53 0-2.242 1.078-3.53 2.83-3.53 1.792 0 2.83 1.274 2.83 3.347v.449zm3.433-1.905a1.77 1.77 0 0 0-3.221 0 2.62 2.62 0 0 0-.211 1.149h3.656a2.831 2.831 0 0 0-.223-1.15zm5.57 8.25a3.043 3.043 0 0 1-2.338-.925l.658-.644a2.122 2.122 0 0 0 1.653.686c1.33 0 1.89-.938 1.89-2.115v-1.078a2.22 2.22 0 0 1-1.932.896 2.369 2.369 0 0 1-1.667-.616 5.324 5.324 0 0 1 0-5.743 2.4 2.4 0 0 1 1.68-.602 2.17 2.17 0 0 1 1.933.897v-.813h.996v7.102a2.742 2.742 0 0 1-2.872 2.955zm.155-9.245c-1.5 0-1.723 1.289-1.723 2.577s.224 2.578 1.723 2.578 1.709-1.29 1.709-2.578-.21-2.577-1.709-2.577zm9.142 6.08v-.66a3.17 3.17 0 0 1-3.936.113 1.927 1.927 0 0 1-.518-1.401c0-1.218.855-1.989 2.395-1.989h2.06v-.658c0-.995-.49-1.513-1.765-1.513a1.844 1.844 0 0 0-1.737.798l-.687-.63a2.65 2.65 0 0 1 2.438-1.036c1.863 0 2.76.812 2.76 2.296v4.679zm0-3.18h-1.919q-1.555 0-1.554 1.218c0 .798.49 1.176 1.596 1.176a2.073 2.073 0 0 0 1.527-.462 1.592 1.592 0 0 0 .35-1.19zm5.179 3.18a1.642 1.642 0 0 1-1.751-1.836v-8.138h1.009v8.096c0 .673.223 1.009.925 1.009h.546v.868zm11.874 0l-.799-2.256h-4.355l-.8 2.255h-1.134l3.67-9.973h.897l3.656 9.973zm-2.955-8.448l-1.878 5.268h3.727zm5.458-.406V248.6h1.134v1.134zm.056 8.853v-6.891h1.008v6.892zm7.646 0v-.826a2.217 2.217 0 0 1-1.96.91 2.377 2.377 0 0 1-1.681-.602 5.518 5.518 0 0 1 0-5.855 2.374 2.374 0 0 1 1.68-.602 2.216 2.216 0 0 1 1.947.882v-3.88h1.008v9.973zm-1.737-6.079c-1.513 0-1.736 1.289-1.736 2.633s.223 2.634 1.736 2.634c1.499 0 1.723-1.289 1.723-2.634s-.224-2.632-1.723-2.632z" fill="#fff"/><path fill="none" d="M0 0h495.806v528.187H0z"/></g></svg>
