<?xml version="1.0" standalone="no"?>
<!DOCTYPE svg PUBLIC "-//W3C//DTD SVG 20010904//EN"
 "http://www.w3.org/TR/2001/REC-SVG-20010904/DTD/svg10.dtd">
<svg version="1.0" xmlns="http://www.w3.org/2000/svg"
 width="700.000000pt" height="700.000000pt" viewBox="0 0 700.000000 700.000000"
 preserveAspectRatio="xMidYMid meet">
<metadata>
Created by potrace 1.11, written by Peter Selinger 2001-2013
</metadata>
<g transform="translate(0.000000,700.000000) scale(0.100000,-0.100000)"
fill="#000000" stroke="none">
<path d="M6805 6359 c-128 -33 -499 -119 -573 -134 -13 -2 -31 -6 -40 -9 -9
-3 -29 -7 -45 -10 -15 -3 -35 -7 -45 -10 -9 -3 -28 -7 -42 -10 -14 -2 -122
-25 -240 -51 -118 -26 -228 -49 -245 -52 -16 -2 -46 -8 -65 -13 -28 -7 -291
-61 -420 -86 -14 -3 -65 -14 -115 -25 -49 -11 -106 -22 -125 -25 -19 -3 -89
-17 -155 -31 -66 -14 -131 -27 -145 -30 -14 -2 -90 -17 -170 -34 -80 -16 -154
-31 -165 -33 -16 -4 -107 -22 -241 -50 -10 -3 -77 -16 -149 -31 -71 -14 -146
-30 -165 -35 -19 -5 -48 -12 -65 -14 -35 -7 -70 -14 -105 -21 -14 -3 -34 -7
-45 -9 -72 -15 -173 -40 -187 -47 -17 -9 -26 -36 -72 -209 -61 -227 -170 -626
-216 -790 -11 -41 -23 -84 -25 -95 -3 -11 -26 -94 -51 -185 -48 -172 -63 -229
-70 -269 -3 -14 -7 -28 -10 -33 -3 -5 -7 -19 -10 -33 -2 -13 -19 -77 -38 -142
-19 -65 -55 -199 -81 -298 -26 -99 -56 -211 -67 -248 -15 -54 -65 -240 -92
-347 -8 -30 -48 -178 -91 -335 -79 -289 -156 -578 -186 -695 -16 -63 -38 -144
-48 -180 -11 -36 -31 -111 -46 -167 -15 -57 -30 -103 -34 -103 -4 0 -20 48
-35 108 -16 59 -35 125 -41 147 -7 22 -26 94 -44 160 -17 66 -54 206 -82 310
-27 105 -61 233 -75 285 -13 52 -31 115 -39 140 -8 25 -40 144 -71 265 -31
121 -70 270 -86 330 -16 61 -31 117 -33 125 -2 8 -20 78 -40 155 -72 276 -97
374 -171 660 -41 160 -85 333 -99 385 -14 52 -27 104 -30 115 -2 11 -12 47
-21 80 -9 33 -18 68 -19 77 -2 10 -15 59 -29 110 -14 51 -64 246 -112 433 -48
187 -99 385 -113 440 l-26 100 -478 1 -477 2 0 -2653 0 -2653 309 2 c170 1
313 5 317 9 5 4 9 940 10 2078 1 1139 4 2072 6 2075 3 2 15 -31 27 -73 12 -43
23 -82 25 -88 2 -5 6 -23 10 -40 4 -16 10 -37 13 -45 3 -8 7 -20 8 -27 2 -6
14 -51 29 -100 14 -48 89 -308 167 -578 77 -269 186 -645 241 -835 55 -190
111 -385 124 -435 14 -49 29 -103 34 -120 6 -16 26 -86 46 -155 59 -208 219
-763 279 -970 31 -107 76 -265 100 -350 25 -85 49 -168 54 -185 5 -16 17 -58
27 -92 9 -35 22 -63 28 -64 6 0 129 -2 274 -3 232 -3 264 -1 271 13 5 9 18 54
30 101 13 47 29 104 37 127 7 23 16 52 18 65 3 13 30 109 60 213 92 321 293
1034 300 1065 9 36 69 249 82 285 7 22 34 117 60 210 41 150 272 970 370 1315
20 69 37 133 39 143 2 10 9 32 15 50 10 32 138 482 160 566 13 49 21 48 27 -6
2 -21 6 -882 8 -1913 2 -1031 4 -1955 4 -2054 l1 -179 38 7 c20 4 46 9 57 11
11 1 90 17 175 35 85 18 169 34 185 37 17 2 80 15 140 28 89 20 432 91 520
109 49 10 230 48 345 72 69 14 134 27 145 30 11 2 31 6 45 9 14 2 36 7 50 9
14 3 70 14 125 26 55 12 114 24 130 26 17 3 46 9 65 14 19 5 114 25 210 44 96
19 251 51 344 70 93 20 181 38 195 41 47 9 75 14 166 34 50 11 115 25 145 31
30 5 66 13 80 15 55 12 127 26 155 31 54 9 63 14 68 43 3 16 6 163 7 328 l0
300 -37 -7 c-21 -4 -162 -38 -313 -75 -328 -81 -577 -140 -780 -185 -19 -4
-109 -24 -200 -45 -91 -20 -176 -39 -190 -41 -14 -3 -67 -14 -119 -25 -51 -12
-102 -22 -113 -24 -11 -2 -27 -6 -36 -9 -9 -3 -28 -7 -42 -10 -14 -2 -56 -12
-95 -21 -59 -14 -186 -40 -285 -58 -74 -14 -343 -70 -395 -82 -112 -26 -142
-28 -147 -8 -9 40 -2 1683 7 1692 6 5 21 12 35 15 14 2 61 12 105 21 44 9 89
18 100 20 11 2 34 6 50 10 79 16 224 46 246 50 39 8 172 35 194 40 11 2 49 11
85 19 36 8 151 33 255 56 105 22 208 45 230 50 22 6 51 13 65 15 57 11 177 37
205 46 17 5 44 11 60 13 17 3 71 14 120 26 50 12 140 32 200 45 276 60 570
127 575 131 8 9 11 582 3 587 -8 4 -54 -4 -353 -67 -91 -19 -176 -37 -190 -40
-14 -2 -47 -10 -75 -16 -27 -6 -57 -13 -65 -15 -8 -2 -73 -15 -145 -30 -71
-14 -148 -31 -170 -37 -22 -6 -51 -12 -65 -15 -25 -4 -153 -31 -180 -38 -36
-8 -107 -24 -130 -29 -14 -2 -88 -19 -165 -36 -77 -18 -153 -34 -170 -36 -16
-3 -55 -12 -85 -21 -30 -8 -62 -16 -70 -18 -8 -1 -35 -6 -60 -11 -25 -4 -47
-8 -50 -9 -3 -1 -18 -5 -35 -9 -16 -4 -57 -13 -90 -21 -33 -8 -73 -17 -90 -20
-16 -3 -99 -21 -184 -40 -85 -19 -157 -32 -160 -29 -9 8 -9 1534 -1 1539 4 3
45 11 91 19 46 9 98 18 114 21 17 3 66 13 110 21 44 8 103 20 130 26 28 7 57
12 65 14 16 1 99 19 410 84 243 51 358 76 545 121 50 11 97 22 106 24 9 2 33
8 55 14 21 6 137 34 257 62 121 28 224 52 230 54 7 3 23 7 37 9 14 3 144 34
290 71 146 36 274 67 285 70 20 4 21 11 21 300 1 294 1 295 -20 294 -12 0 -88
-18 -171 -40z"/>
</g>
</svg>
