<?xml version="1.0" encoding="utf-8"?>
<!-- Generator: Adobe Illustrator 28.0.0, SVG Export Plug-In . SVG Version: 6.00 Build 0)  -->
<svg version="1.1" id="Layer_2_00000111901343141366936740000006611047873215470503_"
	 xmlns="http://www.w3.org/2000/svg" xmlns:xlink="http://www.w3.org/1999/xlink" x="0px" y="0px" viewBox="0 0 495.8 528.2"
	 style="enable-background:new 0 0 495.8 528.2;" xml:space="preserve">
<style type="text/css">
	.st0{fill:none;}
	.st1{fill:#FFFFFF;}
</style>
<g id="outlines">
	<rect class="st0" width="495.8" height="528.2"/>
	<path class="st1" d="M136.5,220.2h-2.9l-3.3-10.8l-3.3,10.8h-2.9l-4.7-17.8h3.6l2.7,11.2l3.2-11.2h2.6l3.2,11.2l2.8-11.2h3.6
		L136.5,220.2z M150.8,220.2v-7.9c0-1.8-1.1-2.4-2.1-2.4c-1,0-2.2,0.6-2.2,2.4v7.9h-3.2v-17.8h3.2v6c0.8-0.9,1.9-1.3,3.2-1.3
		c1.3,0,2.3,0.4,3.1,1.1c1,1,1.3,2.3,1.3,3.7v8.3H150.8z M160.1,214.7c0,1.7,1,2.9,2.8,2.9c1.4,0,2.1-0.4,2.9-1.2l2,1.9
		c-1.3,1.3-2.6,2-4.9,2c-3.1,0-6-1.4-6-6.7c0-4.2,2.3-6.6,5.7-6.6c3.6,0,5.7,2.6,5.7,6.3v1.4H160.1z M164.8,211
		c-0.3-0.8-1.1-1.4-2.2-1.4s-1.8,0.6-2.2,1.4c-0.2,0.5-0.3,0.8-0.3,1.4h4.9C165,211.9,165,211.5,164.8,211z M178.8,220.2v-7.9
		c0-1.8-1.1-2.4-2.1-2.4c-1,0-2.2,0.6-2.2,2.4v7.9h-3.2v-13h3.2v1.2c0.8-0.9,2-1.3,3.2-1.3c1.3,0,2.3,0.4,3.1,1.1
		c1,1,1.3,2.3,1.3,3.7v8.3H178.8z M195.5,220.2c-2.6,0-3.8-1.9-3.8-3.7V210h-1.4v-2.5h1.4v-3.8h3.2v3.8h2.3v2.5h-2.3v6.2
		c0,0.7,0.3,1.2,1.1,1.2h1.2v2.7H195.5z M207.3,210.7c-0.5-0.5-0.9-0.8-1.7-0.8c-1,0-2.1,0.8-2.1,2.4v7.8h-3.2v-13h3.2v1.2
		c0.6-0.8,1.9-1.4,3.3-1.4c1.3,0,2.2,0.3,3.1,1.2L207.3,210.7z M219.8,218.7c-0.8,0.9-2.1,1.6-4,1.6s-3.2-0.7-4-1.6
		c-1.2-1.2-1.5-2.7-1.5-5.1s0.3-3.8,1.5-5c0.8-0.8,2.1-1.6,4-1.6s3.2,0.7,4,1.6c1.2,1.2,1.5,2.7,1.5,5S221,217.5,219.8,218.7z
		 M217.3,210.5c-0.4-0.4-0.9-0.6-1.5-0.6c-0.6,0-1.1,0.2-1.5,0.6c-0.7,0.6-0.8,1.8-0.8,3.1c0,1.3,0.1,2.5,0.8,3.2
		c0.4,0.4,0.9,0.6,1.5,0.6c0.6,0,1.1-0.2,1.5-0.6c0.7-0.6,0.8-1.8,0.8-3.2C218,212.3,218,211.1,217.3,210.5z M231.9,220.2V219
		c-0.8,0.9-2,1.3-3.2,1.3c-1.3,0-2.3-0.4-3.1-1.1c-1-1-1.3-2.3-1.3-3.7v-8.3h3.2v7.9c0,1.8,1.1,2.4,2.1,2.4s2.2-0.6,2.2-2.4v-7.9
		h3.2v13H231.9z M248.3,219.1c-0.7,0.8-1.9,1.2-3.1,1.2c-1.4,0-2.3-0.4-3.2-1.4v1.2h-3.1v-17.8h3.2v5.9c0.8-0.9,1.8-1.3,3.1-1.3
		c1.3,0,2.4,0.4,3.1,1.2c1.2,1.3,1.3,3.3,1.3,5.5C249.6,215.8,249.5,217.9,248.3,219.1z M244.2,209.9c-2,0-2.2,1.6-2.2,3.7
		s0.2,3.7,2.2,3.7c1.9,0,2.2-1.6,2.2-3.7S246.1,209.9,244.2,209.9z M256.4,220.2c-2.7,0-3.8-1.9-3.8-3.7v-14.1h3.2v13.9
		c0,0.8,0.3,1.2,1.1,1.2h1.2v2.7H256.4z M263.1,214.7c0,1.7,1,2.9,2.8,2.9c1.4,0,2.1-0.4,2.9-1.2l2,1.9c-1.3,1.3-2.6,2-4.9,2
		c-3.1,0-6-1.4-6-6.7c0-4.2,2.3-6.6,5.7-6.6c3.6,0,5.7,2.6,5.7,6.3v1.4H263.1z M267.8,211c-0.3-0.8-1.1-1.4-2.2-1.4
		s-1.8,0.6-2.2,1.4c-0.2,0.5-0.3,0.8-0.3,1.4h4.9C268.1,211.9,268,211.5,267.8,211z M278.6,220.3c-2,0-3.9-0.2-5.5-1.9l2.1-2.1
		c1,1.1,2.5,1.2,3.5,1.2c1.1,0,2.3-0.4,2.3-1.3c0-0.6-0.3-1.1-1.4-1.2l-2.1-0.2c-2.3-0.2-3.7-1.2-3.7-3.6c0-2.7,2.4-4.1,5-4.1
		c2,0,3.7,0.4,5,1.5l-2,2c-0.8-0.7-1.9-0.9-3-0.9c-1.3,0-1.8,0.6-1.8,1.2s0.4,1,1.3,1.1l2,0.2c2.6,0.2,3.9,1.6,3.9,3.8
		C284.1,218.9,281.6,220.3,278.6,220.3z M294.4,220.2v-7.9c0-1.8-1.1-2.4-2.1-2.4c-1,0-2.2,0.6-2.2,2.4v7.9h-3.2v-17.8h3.2v6
		c0.8-0.9,1.9-1.3,3.2-1.3c1.3,0,2.3,0.4,3.1,1.1c1,1,1.3,2.3,1.3,3.7v8.3H294.4z M310.1,218.7c-0.8,0.9-2.1,1.6-4,1.6
		s-3.2-0.7-4-1.6c-1.2-1.2-1.5-2.7-1.5-5.1s0.3-3.8,1.5-5c0.8-0.8,2.1-1.6,4-1.6s3.2,0.7,4,1.6c1.2,1.2,1.5,2.7,1.5,5
		S311.3,217.5,310.1,218.7z M307.6,210.5c-0.4-0.4-0.9-0.6-1.5-0.6c-0.6,0-1.1,0.2-1.5,0.6c-0.7,0.6-0.8,1.8-0.8,3.1
		c0,1.3,0.1,2.5,0.8,3.2c0.4,0.4,0.9,0.6,1.5,0.6c0.6,0,1.1-0.2,1.5-0.6c0.7-0.6,0.8-1.8,0.8-3.2
		C308.4,212.3,308.3,211.1,307.6,210.5z M323.7,218.7c-0.8,0.9-2.1,1.6-4,1.6s-3.2-0.7-4-1.6c-1.2-1.2-1.5-2.7-1.5-5.1
		s0.3-3.8,1.5-5c0.8-0.8,2.1-1.6,4-1.6s3.2,0.7,4,1.6c1.2,1.2,1.5,2.7,1.5,5S324.9,217.5,323.7,218.7z M321.2,210.5
		c-0.4-0.4-0.9-0.6-1.5-0.6c-0.6,0-1.1,0.2-1.5,0.6c-0.7,0.6-0.8,1.8-0.8,3.1c0,1.3,0.1,2.5,0.8,3.2c0.4,0.4,0.9,0.6,1.5,0.6
		c0.6,0,1.1-0.2,1.5-0.6c0.7-0.6,0.8-1.8,0.8-3.2C321.9,212.3,321.9,211.1,321.2,210.5z M332.4,220.2c-2.6,0-3.8-1.9-3.8-3.7V210
		h-1.4v-2.5h1.4v-3.8h3.2v3.8h2.3v2.5h-2.3v6.2c0,0.7,0.3,1.2,1.1,1.2h1.2v2.7H332.4z M337,204.9v-2.6h3.3v2.6H337z M337.1,220.2
		v-12.6h3.2v12.6H337.1z M351.5,220.2v-7.9c0-1.8-1.1-2.4-2.1-2.4c-1,0-2.2,0.6-2.2,2.4v7.9H344v-13h3.2v1.2c0.8-0.9,2-1.3,3.2-1.3
		c1.3,0,2.3,0.4,3.1,1.1c1,1,1.3,2.3,1.3,3.7v8.3H351.5z M362.8,225.1c-2,0-3.4-0.4-4.7-1.7l2-2c0.7,0.7,1.5,1,2.5,1
		c1.9,0,2.6-1.4,2.6-2.7v-1.3c-0.8,0.9-1.8,1.3-3.1,1.3c-1.3,0-2.4-0.4-3.1-1.1c-1.2-1.2-1.3-2.9-1.3-5.2c0-2.3,0.1-3.9,1.3-5.1
		c0.7-0.7,1.8-1.1,3.1-1.1c1.4,0,2.3,0.4,3.2,1.4v-1.2h3.1v12.5C368.5,222.8,366.3,225.1,362.8,225.1z M363.1,209.9
		c-1.9,0-2.1,1.6-2.1,3.4c0,1.7,0.2,3.4,2.1,3.4s2.1-1.7,2.1-3.4C365.3,211.6,365,209.9,363.1,209.9z M372,224.3v-7.7h3.6v4.9
		L372,224.3z M124.3,250.2c-2.6,0-3.8-1.9-3.8-3.7V240h-1.4v-2.5h1.4v-3.8h3.2v3.8h2.3v2.5h-2.3v6.2c0,0.7,0.3,1.2,1.1,1.2h1.2v2.7
		H124.3z M131.4,244.7c0,1.7,1,2.9,2.8,2.9c1.4,0,2.1-0.4,2.9-1.2l2,1.9c-1.3,1.3-2.6,2-4.9,2c-3.1,0-6-1.4-6-6.7
		c0-4.2,2.3-6.6,5.7-6.6c3.6,0,5.7,2.6,5.7,6.3v1.4H131.4z M136.1,241c-0.3-0.8-1.1-1.4-2.2-1.4s-1.8,0.6-2.2,1.4
		c-0.2,0.5-0.3,0.8-0.3,1.4h4.9C136.3,241.9,136.3,241.5,136.1,241z M147.7,250.3c-2.6,0-5.8-1.4-5.8-6.7c0-5.3,3.2-6.6,5.8-6.6
		c1.8,0,3.1,0.5,4.3,1.7l-2.2,2.2c-0.7-0.7-1.2-1-2.1-1c-0.8,0-1.4,0.3-1.8,0.9c-0.5,0.6-0.7,1.5-0.7,2.9s0.2,2.3,0.7,2.9
		c0.5,0.6,1.1,0.8,1.8,0.8c0.8,0,1.4-0.3,2.1-1l2.2,2.2C150.9,249.7,149.5,250.3,147.7,250.3z M162.1,250.2v-7.9
		c0-1.8-1.1-2.4-2.1-2.4c-1,0-2.2,0.6-2.2,2.4v7.9h-3.2v-17.8h3.2v6c0.8-0.9,1.9-1.3,3.2-1.3c1.3,0,2.3,0.4,3.1,1.1
		c1,1,1.3,2.3,1.3,3.7v8.3H162.1z M176.5,250.2v-7.9c0-1.8-1.1-2.4-2.1-2.4c-1,0-2.2,0.6-2.2,2.4v7.9h-3.2v-13h3.2v1.2
		c0.8-0.9,2-1.3,3.2-1.3c1.3,0,2.3,0.4,3.1,1.1c1,1,1.3,2.3,1.3,3.7v8.3H176.5z M183.2,234.9v-2.6h3.3v2.6H183.2z M183.2,250.2
		v-12.6h3.2v12.6H183.2z M195.3,250.3c-2.6,0-5.8-1.4-5.8-6.7c0-5.3,3.2-6.6,5.8-6.6c1.8,0,3.1,0.5,4.3,1.7l-2.2,2.2
		c-0.7-0.7-1.2-1-2.1-1c-0.8,0-1.4,0.3-1.8,0.9c-0.5,0.6-0.7,1.5-0.7,2.9s0.2,2.3,0.7,2.9c0.5,0.6,1.1,0.8,1.8,0.8
		c0.8,0,1.4-0.3,2.1-1l2.2,2.2C198.4,249.7,197.1,250.3,195.3,250.3z M202,234.9v-2.6h3.3v2.6H202z M202.1,250.2v-12.6h3.2v12.6
		H202.1z M215.6,250.2V249c-0.9,0.9-1.7,1.2-3.2,1.2c-1.5,0-2.6-0.4-3.3-1.1c-0.7-0.7-1.1-1.8-1.1-2.9c0-2.1,1.4-3.8,4.5-3.8h3v-0.6
		c0-1.4-0.7-2-2.4-2c-1.2,0-1.8,0.3-2.5,1.1l-2-2c1.3-1.4,2.5-1.8,4.7-1.8c3.7,0,5.5,1.5,5.5,4.6v8.6H215.6z M215.6,244.7h-2.5
		c-1.3,0-1.9,0.5-1.9,1.5c0,0.9,0.6,1.5,2,1.5c0.8,0,1.4-0.1,1.9-0.6c0.4-0.3,0.5-0.8,0.5-1.6V244.7z M229.9,250.2v-7.9
		c0-1.8-1.1-2.4-2.1-2.4c-1,0-2.2,0.6-2.2,2.4v7.9h-3.2v-13h3.2v1.2c0.8-0.9,2-1.3,3.2-1.3c1.3,0,2.3,0.4,3.1,1.1
		c1,1,1.3,2.3,1.3,3.7v8.3H229.9z M240.9,250.3c-2,0-3.9-0.2-5.5-1.9l2.1-2.1c1,1.1,2.5,1.2,3.5,1.2c1.1,0,2.3-0.4,2.3-1.3
		c0-0.6-0.3-1.1-1.4-1.2l-2.1-0.2c-2.3-0.2-3.7-1.2-3.7-3.6c0-2.7,2.4-4.1,5-4.1c2,0,3.7,0.4,5,1.5l-2,2c-0.8-0.7-1.9-0.9-3-0.9
		c-1.3,0-1.8,0.6-1.8,1.2s0.4,1,1.3,1.1l2,0.2c2.6,0.2,3.9,1.6,3.9,3.8C246.4,248.9,244,250.3,240.9,250.3z M259.2,250.3
		c-2,0-3.9-0.2-5.5-1.9l2.1-2.1c1,1.1,2.5,1.2,3.5,1.2c1.1,0,2.3-0.4,2.3-1.3c0-0.6-0.3-1.1-1.4-1.2l-2.1-0.2
		c-2.3-0.2-3.7-1.2-3.7-3.6c0-2.7,2.4-4.1,5-4.1c2,0,3.7,0.4,5,1.5l-2,2c-0.8-0.7-1.9-0.9-3-0.9c-1.3,0-1.8,0.6-1.8,1.2
		s0.4,1,1.3,1.1l2,0.2c2.6,0.2,3.9,1.6,3.9,3.8C264.8,248.9,262.3,250.3,259.2,250.3z M271.3,250.2c-2.6,0-3.8-1.9-3.8-3.7V240h-1.4
		v-2.5h1.4v-3.8h3.2v3.8h2.3v2.5h-2.3v6.2c0,0.7,0.3,1.2,1.1,1.2h1.2v2.7H271.3z M282.6,250.2V249c-0.9,0.9-1.7,1.2-3.2,1.2
		c-1.5,0-2.6-0.4-3.3-1.1c-0.7-0.7-1.1-1.8-1.1-2.9c0-2.1,1.4-3.8,4.5-3.8h3v-0.6c0-1.4-0.7-2-2.4-2c-1.2,0-1.8,0.3-2.5,1.1l-2-2
		c1.3-1.4,2.5-1.8,4.7-1.8c3.7,0,5.5,1.5,5.5,4.6v8.6H282.6z M282.5,244.7H280c-1.3,0-1.9,0.5-1.9,1.5c0,0.9,0.6,1.5,2,1.5
		c0.8,0,1.4-0.1,1.9-0.6c0.4-0.3,0.5-0.8,0.5-1.6V244.7z M296.3,240.7c-0.5-0.5-0.9-0.8-1.7-0.8c-1,0-2.1,0.8-2.1,2.4v7.8h-3.2v-13
		h3.2v1.2c0.6-0.8,1.9-1.4,3.3-1.4c1.3,0,2.2,0.3,3.1,1.2L296.3,240.7z M304.7,250.2c-2.6,0-3.8-1.9-3.8-3.7V240h-1.4v-2.5h1.4v-3.8
		h3.2v3.8h2.3v2.5h-2.3v6.2c0,0.7,0.3,1.2,1.1,1.2h1.2v2.7H304.7z M321.9,250.2V249c-0.9,0.9-1.7,1.2-3.2,1.2
		c-1.5,0-2.6-0.4-3.3-1.1c-0.7-0.7-1.1-1.8-1.1-2.9c0-2.1,1.4-3.8,4.5-3.8h3v-0.6c0-1.4-0.7-2-2.4-2c-1.2,0-1.8,0.3-2.5,1.1l-2-2
		c1.3-1.4,2.5-1.8,4.7-1.8c3.7,0,5.5,1.5,5.5,4.6v8.6H321.9z M321.8,244.7h-2.5c-1.3,0-1.9,0.5-1.9,1.5c0,0.9,0.6,1.5,2,1.5
		c0.8,0,1.4-0.1,1.9-0.6c0.4-0.3,0.5-0.8,0.5-1.6V244.7z M332.7,250.2c-2.6,0-3.8-1.9-3.8-3.7V240h-1.4v-2.5h1.4v-3.8h3.2v3.8h2.3
		v2.5h-2.3v6.2c0,0.7,0.3,1.2,1.1,1.2h1.2v2.7H332.7z M347.3,250.2c-2.6,0-3.8-1.9-3.8-3.7V240h-1.4v-2.5h1.4v-3.8h3.2v3.8h2.3v2.5
		h-2.3v6.2c0,0.7,0.3,1.2,1.1,1.2h1.2v2.7H347.3z M359.6,250.2v-7.9c0-1.8-1.1-2.4-2.1-2.4c-1,0-2.2,0.6-2.2,2.4v7.9H352v-17.8h3.2
		v6c0.8-0.9,1.9-1.3,3.2-1.3c1.3,0,2.3,0.4,3.1,1.1c1,1,1.3,2.3,1.3,3.7v8.3H359.6z M368.9,244.7c0,1.7,1,2.9,2.8,2.9
		c1.4,0,2.1-0.4,2.9-1.2l2,1.9c-1.3,1.3-2.6,2-4.9,2c-3.1,0-6-1.4-6-6.7c0-4.2,2.3-6.6,5.7-6.6c3.6,0,5.7,2.6,5.7,6.3v1.4H368.9z
		 M373.5,241c-0.3-0.8-1.1-1.4-2.2-1.4s-1.8,0.6-2.2,1.4c-0.2,0.5-0.3,0.8-0.3,1.4h4.9C373.8,241.9,373.7,241.5,373.5,241z
		 M133.3,291.4c-5,0-11.2-2.7-11.2-12.8s6.2-12.8,11.2-12.8c3.5,0,6,1.1,8.3,3.4l-4.2,4.2c-1.3-1.4-2.4-2-4-2
		c-1.5,0-2.6,0.5-3.6,1.6c-1,1.2-1.4,2.9-1.4,5.5c0,2.6,0.4,4.4,1.4,5.6c0.9,1.1,2.1,1.6,3.6,1.6c1.6,0,2.7-0.6,4-2l4.2,4.2
		C139.3,290.3,136.7,291.4,133.3,291.4z M162.9,288.4c-1.6,1.6-4.1,3.1-7.8,3.1s-6.1-1.4-7.7-3.1c-2.3-2.4-2.8-5.2-2.8-9.7
		c0-4.5,0.6-7.3,2.8-9.7c1.6-1.6,4-3.1,7.7-3.1s6.2,1.4,7.8,3.1c2.3,2.4,2.8,5.2,2.8,9.7C165.7,283.1,165.2,286,162.9,288.4z
		 M158.1,272.6c-0.7-0.7-1.7-1.1-2.9-1.1c-1.2,0-2.2,0.4-2.9,1.1c-1.3,1.2-1.4,3.5-1.4,6c0,2.6,0.1,4.8,1.4,6.1
		c0.7,0.7,1.7,1.1,2.9,1.1c1.2,0,2.2-0.4,2.9-1.1c1.3-1.2,1.4-3.5,1.4-6.1C159.5,276.1,159.4,273.8,158.1,272.6z M186.2,291.2V276
		c0-3.4-2.2-4.6-4.1-4.6c-2,0-4.2,1.2-4.2,4.6v15.1h-6.2v-25h6.1v2.3c1.6-1.7,3.9-2.6,6.2-2.6c2.5,0,4.5,0.8,5.9,2.2
		c2,2,2.5,4.4,2.5,7.1v16H186.2z M207,291.2c-5.1,0-7.2-3.6-7.2-7.2v-12.4h-2.6v-4.8h2.6v-7.4h6.2v7.4h4.4v4.8H206v12
		c0,1.4,0.7,2.3,2.2,2.3h2.3v5.3H207z M229.7,273c-1-1-1.8-1.5-3.3-1.5c-1.9,0-4,1.4-4,4.6v15.1h-6.2v-25h6.1v2.4
		c1.2-1.4,3.6-2.7,6.3-2.7c2.4,0,4.2,0.6,5.9,2.4L229.7,273z M253.8,288.4c-1.6,1.6-4.1,3.1-7.8,3.1s-6.1-1.4-7.7-3.1
		c-2.3-2.4-2.8-5.2-2.8-9.7c0-4.5,0.6-7.3,2.8-9.7c1.6-1.6,4-3.1,7.7-3.1s6.2,1.4,7.8,3.1c2.3,2.4,2.8,5.2,2.8,9.7
		C256.6,283.1,256.1,286,253.8,288.4z M248.9,272.6c-0.7-0.7-1.7-1.1-2.9-1.1c-1.2,0-2.2,0.4-2.9,1.1c-1.3,1.2-1.4,3.5-1.4,6
		c0,2.6,0.1,4.8,1.4,6.1c0.7,0.7,1.7,1.1,2.9,1.1c1.2,0,2.2-0.4,2.9-1.1c1.3-1.2,1.4-3.5,1.4-6.1
		C250.4,276.1,250.2,273.8,248.9,272.6z M269.6,291.2c-5.1,0-7.3-3.6-7.3-7.2v-27h6.2v26.6c0,1.5,0.6,2.3,2.2,2.3h2.4v5.3H269.6z
		 M307.6,289.2c-1.4,1.4-3.6,2.3-6,2.3c-2.7,0-4.5-0.7-6.2-2.6v2.4h-6V257h6.2v11.4c1.6-1.8,3.5-2.5,6-2.5c2.5,0,4.7,0.8,6,2.3
		c2.4,2.4,2.6,6.3,2.6,10.5C310.2,282.9,310,286.7,307.6,289.2z M299.8,271.5c-3.7,0-4.2,3.1-4.2,7.2c0,4,0.5,7.2,4.2,7.2
		c3.7,0,4.2-3.2,4.2-7.2C304,274.6,303.5,271.5,299.8,271.5z M333.5,288.4c-1.6,1.6-4.1,3.1-7.8,3.1s-6.1-1.4-7.7-3.1
		c-2.3-2.4-2.8-5.2-2.8-9.7c0-4.5,0.6-7.3,2.8-9.7c1.6-1.6,4-3.1,7.7-3.1s6.2,1.4,7.8,3.1c2.3,2.4,2.8,5.2,2.8,9.7
		C336.3,283.1,335.8,286,333.5,288.4z M328.6,272.6c-0.7-0.7-1.7-1.1-2.9-1.1c-1.2,0-2.2,0.4-2.9,1.1c-1.3,1.2-1.4,3.5-1.4,6
		c0,2.6,0.1,4.8,1.4,6.1c0.7,0.7,1.7,1.1,2.9,1.1c1.2,0,2.2-0.4,2.9-1.1c1.3-1.2,1.4-3.5,1.4-6.1
		C330.1,276.1,329.9,273.8,328.6,272.6z M355,291.2l-4.6-7.5l-4.6,7.5h-7.5l8.6-12.8l-8.3-12.2h7.5l4.2,7.2l4.3-7.2h7.5l-8.3,12.2
		l8.6,12.8H355z M366.3,291.2v-7.1h7.2v7.1H366.3z M64.8,321.2h-2.9l-3.3-10.8l-3.3,10.8h-2.9l-4.7-17.8h3.6l2.7,11.2l3.2-11.2h2.6
		l3.2,11.2l2.8-11.2h3.6L64.8,321.2z M79.1,321.2v-7.9c0-1.8-1.1-2.4-2.1-2.4c-1,0-2.2,0.6-2.2,2.4v7.9h-3.2v-17.8h3.2v6
		c0.8-0.9,1.9-1.3,3.2-1.3c1.3,0,2.3,0.4,3.1,1.1c1,1,1.3,2.3,1.3,3.7v8.3H79.1z M90.6,323.3c-0.3,0.7-0.6,1.3-1,1.7
		c-0.7,0.7-1.7,1-2.8,1h-1.3V323h0.7c0.9,0,1.3-0.2,1.6-1.2l0.5-1.6L84,308.1h3.4l2.7,8l2.6-8h3.4L90.6,323.3z M103.9,305.9v-2.6
		h3.3v2.6H103.9z M103.9,321.2v-12.6h3.2v12.6H103.9z M115.1,321.3c-2,0-3.9-0.2-5.5-1.9l2.1-2.1c1,1.1,2.5,1.2,3.5,1.2
		c1.1,0,2.3-0.4,2.3-1.3c0-0.6-0.3-1.1-1.4-1.2l-2.1-0.2c-2.3-0.2-3.7-1.2-3.7-3.6c0-2.7,2.4-4.1,5-4.1c2,0,3.7,0.4,5,1.5l-2,2
		c-0.8-0.7-1.9-0.9-3-0.9c-1.3,0-1.8,0.6-1.8,1.2s0.4,1,1.3,1.1l2,0.2c2.6,0.2,3.9,1.6,3.9,3.8C120.6,319.9,118.1,321.3,115.1,321.3
		z M129.1,305.9v-2.6h3.3v2.6H129.1z M129.1,321.2v-12.6h3.2v12.6H129.1z M140.1,321.2c-2.6,0-3.8-1.9-3.8-3.7V311h-1.4v-2.5h1.4
		v-3.8h3.2v3.8h2.3v2.5h-2.3v6.2c0,0.7,0.3,1.2,1.1,1.2h1.2v2.7H140.1z M154.9,321.3c-2,0-3.9-0.2-5.5-1.9l2.1-2.1
		c1,1.1,2.5,1.2,3.5,1.2c1.1,0,2.3-0.4,2.3-1.3c0-0.6-0.3-1.1-1.4-1.2l-2.1-0.2c-2.3-0.2-3.7-1.2-3.7-3.6c0-2.7,2.4-4.1,5-4.1
		c2,0,3.7,0.4,5,1.5l-2,2c-0.8-0.7-1.9-0.9-3-0.9c-1.3,0-1.8,0.6-1.8,1.2s0.4,1,1.3,1.1l2,0.2c2.6,0.2,3.9,1.6,3.9,3.8
		C160.4,319.9,157.9,321.3,154.9,321.3z M172.1,319.7c-0.8,0.9-2.1,1.6-4,1.6s-3.2-0.8-4-1.6c-1.2-1.2-1.5-2.7-1.5-5.1
		s0.3-3.8,1.5-5c0.8-0.8,2.1-1.6,4-1.6s3.2,0.7,4,1.6c1.2,1.2,1.5,2.7,1.5,5S173.3,318.5,172.1,319.7z M169.6,311.5
		c-0.4-0.4-0.9-0.6-1.5-0.6c-0.6,0-1.1,0.2-1.5,0.6c-0.7,0.6-0.8,1.8-0.8,3.1c0,1.3,0.1,2.5,0.8,3.2c0.4,0.4,0.9,0.6,1.5,0.6
		c0.6,0,1.1-0.2,1.5-0.6c0.7-0.6,0.8-1.8,0.8-3.2C170.3,313.3,170.3,312.1,169.6,311.5z M190.1,321.2v-7.9c0-1.8-1.1-2.4-2.1-2.4
		c-1,0-2.2,0.6-2.2,2.4v7.9h-3.2v-17.8h3.2v6c0.8-0.9,1.9-1.3,3.2-1.3c1.3,0,2.3,0.4,3.1,1.1c1,1,1.3,2.3,1.3,3.7v8.3H190.1z
		 M203.5,321.2V320c-0.9,0.9-1.7,1.2-3.2,1.2c-1.5,0-2.6-0.4-3.3-1.1c-0.7-0.7-1.1-1.8-1.1-2.9c0-2.1,1.4-3.8,4.5-3.8h3v-0.6
		c0-1.4-0.7-2-2.4-2c-1.2,0-1.8,0.3-2.5,1.1l-2-2c1.3-1.4,2.5-1.8,4.7-1.8c3.7,0,5.5,1.5,5.5,4.6v8.6H203.5z M203.4,315.7h-2.5
		c-1.3,0-1.9,0.5-1.9,1.5c0,0.9,0.6,1.5,2,1.5c0.8,0,1.4-0.1,1.9-0.6c0.4-0.3,0.5-0.8,0.5-1.6V315.7z M217.2,311.7
		c-0.5-0.5-0.9-0.8-1.7-0.8c-1,0-2.1,0.8-2.1,2.4v7.8h-3.2v-13h3.2v1.2c0.6-0.8,1.9-1.4,3.3-1.4c1.3,0,2.2,0.3,3.1,1.2L217.2,311.7z
		 M228,321.2v-1.2c-0.9,1-1.8,1.4-3.2,1.4c-1.3,0-2.4-0.4-3.2-1.2c-1.2-1.3-1.3-3.3-1.3-5.5c0-2.2,0.1-4.2,1.3-5.5
		c0.7-0.8,1.8-1.2,3.1-1.2c1.3,0,2.3,0.4,3.2,1.3v-5.9h3.2v17.8H228z M225.7,310.9c-2,0-2.2,1.6-2.2,3.7s0.2,3.7,2.2,3.7
		c1.9,0,2.2-1.6,2.2-3.7S227.6,310.9,225.7,310.9z M244.7,321.2c-2.6,0-3.8-1.9-3.8-3.7V311h-1.4v-2.5h1.4v-3.8h3.2v3.8h2.3v2.5
		h-2.3v6.2c0,0.7,0.3,1.2,1.1,1.2h1.2v2.7H244.7z M258.3,319.7c-0.8,0.9-2.1,1.6-4,1.6s-3.2-0.8-4-1.6c-1.2-1.2-1.5-2.7-1.5-5.1
		s0.3-3.8,1.5-5c0.8-0.8,2.1-1.6,4-1.6s3.2,0.7,4,1.6c1.2,1.2,1.5,2.7,1.5,5S259.5,318.5,258.3,319.7z M255.8,311.5
		c-0.4-0.4-0.9-0.6-1.5-0.6c-0.6,0-1.1,0.2-1.5,0.6c-0.7,0.6-0.8,1.8-0.8,3.1c0,1.3,0.1,2.5,0.8,3.2c0.4,0.4,0.9,0.6,1.5,0.6
		c0.6,0,1.1-0.2,1.5-0.6c0.7-0.6,0.8-1.8,0.8-3.2C256.5,313.3,256.4,312.1,255.8,311.5z M275.3,321.2V320c-0.9,0.9-1.7,1.2-3.2,1.2
		c-1.5,0-2.6-0.4-3.3-1.1c-0.7-0.7-1.1-1.8-1.1-2.9c0-2.1,1.4-3.8,4.5-3.8h3v-0.6c0-1.4-0.7-2-2.4-2c-1.2,0-1.8,0.3-2.5,1.1l-2-2
		c1.3-1.4,2.5-1.8,4.7-1.8c3.7,0,5.5,1.5,5.5,4.6v8.6H275.3z M275.3,315.7h-2.5c-1.3,0-1.9,0.5-1.9,1.5c0,0.9,0.6,1.5,2,1.5
		c0.8,0,1.4-0.1,1.9-0.6c0.4-0.3,0.5-0.8,0.5-1.6V315.7z M287.2,321.3c-2.6,0-5.8-1.4-5.8-6.7c0-5.3,3.2-6.6,5.8-6.6
		c1.8,0,3.1,0.5,4.3,1.7l-2.2,2.2c-0.7-0.7-1.2-1-2.1-1c-0.8,0-1.4,0.3-1.8,0.9c-0.5,0.6-0.7,1.5-0.7,2.9s0.2,2.3,0.7,2.9
		c0.5,0.6,1.1,0.8,1.8,0.8c0.8,0,1.4-0.3,2.1-1l2.2,2.2C290.3,320.7,289,321.3,287.2,321.3z M298.8,321.3c-2.6,0-5.8-1.4-5.8-6.7
		c0-5.3,3.2-6.6,5.8-6.6c1.8,0,3.1,0.5,4.3,1.7l-2.2,2.2c-0.7-0.7-1.2-1-2.1-1c-0.8,0-1.4,0.3-1.8,0.9c-0.5,0.6-0.7,1.5-0.7,2.9
		s0.2,2.3,0.7,2.9c0.5,0.6,1.1,0.8,1.8,0.8c0.8,0,1.4-0.3,2.1-1l2.2,2.2C302,320.7,300.6,321.3,298.8,321.3z M307.8,315.7
		c0,1.7,1,2.9,2.8,2.9c1.4,0,2.1-0.4,2.9-1.2l2,1.9c-1.3,1.3-2.6,2-4.9,2c-3.1,0-6-1.4-6-6.7c0-4.2,2.3-6.6,5.7-6.6
		c3.6,0,5.7,2.6,5.7,6.3v1.4H307.8z M312.5,312c-0.3-0.8-1.1-1.4-2.2-1.4s-1.8,0.6-2.2,1.4c-0.2,0.5-0.3,0.8-0.3,1.4h4.9
		C312.7,312.9,312.7,312.5,312.5,312z M323.2,321.3c-2,0-3.9-0.2-5.5-1.9l2.1-2.1c1,1.1,2.5,1.2,3.5,1.2c1.1,0,2.3-0.4,2.3-1.3
		c0-0.6-0.3-1.1-1.4-1.2l-2.1-0.2c-2.3-0.2-3.7-1.2-3.7-3.6c0-2.7,2.4-4.1,5-4.1c2,0,3.7,0.4,5,1.5l-2,2c-0.8-0.7-1.9-0.9-3-0.9
		c-1.3,0-1.8,0.6-1.8,1.2s0.4,1,1.3,1.1l2,0.2c2.6,0.2,3.9,1.6,3.9,3.8C328.8,319.9,326.3,321.3,323.2,321.3z M335.6,321.3
		c-2,0-3.9-0.2-5.5-1.9l2.1-2.1c1,1.1,2.5,1.2,3.5,1.2c1.1,0,2.3-0.4,2.3-1.3c0-0.6-0.3-1.1-1.4-1.2l-2.1-0.2
		c-2.3-0.2-3.7-1.2-3.7-3.6c0-2.7,2.4-4.1,5-4.1c2,0,3.7,0.4,5,1.5l-2,2c-0.8-0.7-1.9-0.9-3-0.9c-1.3,0-1.8,0.6-1.8,1.2
		s0.4,1,1.3,1.1l2,0.2c2.6,0.2,3.9,1.6,3.9,3.8C341.2,319.9,338.7,321.3,335.6,321.3z M356.4,321.2V320c-0.9,0.9-1.7,1.2-3.2,1.2
		c-1.5,0-2.6-0.4-3.3-1.1c-0.7-0.7-1.1-1.8-1.1-2.9c0-2.1,1.4-3.8,4.5-3.8h3v-0.6c0-1.4-0.7-2-2.4-2c-1.2,0-1.8,0.3-2.5,1.1l-2-2
		c1.3-1.4,2.5-1.8,4.7-1.8c3.7,0,5.5,1.5,5.5,4.6v8.6H356.4z M356.3,315.7h-2.5c-1.3,0-1.9,0.5-1.9,1.5c0,0.9,0.6,1.5,2,1.5
		c0.8,0,1.4-0.1,1.9-0.6c0.4-0.3,0.5-0.8,0.5-1.6V315.7z M370.6,321.2v-7.9c0-1.8-1.1-2.4-2.1-2.4c-1,0-2.2,0.6-2.2,2.4v7.9H363v-13
		h3.2v1.2c0.8-0.9,2-1.3,3.2-1.3c1.3,0,2.3,0.4,3.1,1.1c1,1,1.3,2.3,1.3,3.7v8.3H370.6z M384.6,321.2v-1.2c-0.9,1-1.8,1.4-3.2,1.4
		c-1.3,0-2.4-0.4-3.2-1.2c-1.2-1.3-1.3-3.3-1.3-5.5c0-2.2,0.1-4.2,1.3-5.5c0.7-0.8,1.8-1.2,3.1-1.2c1.3,0,2.3,0.4,3.2,1.3v-5.9h3.2
		v17.8H384.6z M382.3,310.9c-2,0-2.2,1.6-2.2,3.7s0.2,3.7,2.2,3.7c1.9,0,2.2-1.6,2.2-3.7S384.2,310.9,382.3,310.9z M404.7,321.2V320
		c-0.8,0.9-2,1.4-3.2,1.4c-1.3,0-2.3-0.4-3.1-1.2c-1-1-1.3-2.3-1.3-3.7v-8.3h3.2v7.9c0,1.8,1.1,2.4,2.1,2.4s2.2-0.6,2.2-2.4v-7.9
		h3.2v13H404.7z M415.8,321.3c-2,0-3.9-0.2-5.5-1.9l2.1-2.1c1,1.1,2.5,1.2,3.5,1.2c1.1,0,2.3-0.4,2.3-1.3c0-0.6-0.3-1.1-1.4-1.2
		l-2.1-0.2c-2.3-0.2-3.7-1.2-3.7-3.6c0-2.7,2.4-4.1,5-4.1c2,0,3.7,0.4,5,1.5l-2,2c-0.8-0.7-1.9-0.9-3-0.9c-1.3,0-1.8,0.6-1.8,1.2
		s0.4,1,1.3,1.1l2,0.2c2.6,0.2,3.9,1.6,3.9,3.8C421.3,319.9,418.9,321.3,415.8,321.3z M426.6,315.7c0,1.7,1,2.9,2.8,2.9
		c1.4,0,2.1-0.4,2.9-1.2l2,1.9c-1.3,1.3-2.6,2-4.9,2c-3.1,0-6-1.4-6-6.7c0-4.2,2.3-6.6,5.7-6.6c3.6,0,5.7,2.6,5.7,6.3v1.4H426.6z
		 M431.2,312c-0.3-0.8-1.1-1.4-2.2-1.4s-1.8,0.6-2.2,1.4c-0.2,0.5-0.3,0.8-0.3,1.4h4.9C431.5,312.9,431.5,312.5,431.2,312z
		 M446.9,311.3l-1.8,2.4c-0.2,0.3-0.5,0.8-0.5,1.3v0.5h-3.2v-0.7c0-1.1,0.3-1.8,1-2.6l1.8-2.4c0.4-0.5,0.7-1.1,0.7-1.7
		c0-1.2-0.8-2-2-2c-1.3,0-2,0.9-2,2.1h-3.2c0-3.1,2.3-5,5.2-5c2.8,0,5.3,1.8,5.3,5C448.1,309.5,447.6,310.4,446.9,311.3z
		 M441.2,321.2v-3.3h3.4v3.3H441.2z"/>
</g>
</svg>
