<svg xmlns="http://www.w3.org/2000/svg" viewBox="0 0 495.806 528.187"><g data-name="Layer 2"><path d="M23.68 82.333V71.317a11.93 11.93 0 0 1 .685-4.464 11.671 11.671 0 0 1 9.54-7.632v4.752a6.36 6.36 0 0 0-3.744 2.772 9.231 9.231 0 0 0-1.009 4.5h4.752v11.088zm15.337 0V71.317a11.918 11.918 0 0 1 .684-4.464 11.599 11.599 0 0 1 2.124-3.672 11.783 11.783 0 0 1 7.416-3.96v4.752a6.36 6.36 0 0 0-3.744 2.772 9.23 9.23 0 0 0-1.008 4.5h4.752v11.088zm154.15 310.888v11.017a11.948 11.948 0 0 1-.684 4.464 11.671 11.671 0 0 1-9.54 7.632v-4.752a6.363 6.363 0 0 0 3.744-2.773 9.239 9.239 0 0 0 1.008-4.5h-4.752v-11.088zm15.336 0v11.017a11.956 11.956 0 0 1-.684 4.464 11.671 11.671 0 0 1-9.54 7.632v-4.752a6.361 6.361 0 0 0 3.744-2.773 9.239 9.239 0 0 0 1.008-4.5h-4.751v-11.088z" fill="#4559a8"/><path d="M64.54 95.63V70h5.003v25.63zm29.77 0v-1.728a6.419 6.419 0 0 1-4.68 1.943 6.09 6.09 0 0 1-4.427-1.656 6.95 6.95 0 0 1-1.908-5.327V76.876h4.68v11.338c0 2.556 1.62 3.42 3.095 3.42s3.132-.864 3.132-3.42V76.876h4.68v18.753zm15.984.215c-2.951 0-5.579-.324-7.99-2.7l3.06-3.06a6.763 6.763 0 0 0 5.003 1.764c1.62 0 3.311-.54 3.311-1.944 0-.936-.467-1.584-1.98-1.728l-3.023-.288c-3.312-.323-5.4-1.8-5.4-5.255 0-3.924 3.42-5.975 7.236-5.975 2.952 0 5.363.54 7.163 2.195l-2.88 2.916a6.459 6.459 0 0 0-4.355-1.26c-1.872 0-2.664.864-2.664 1.8s.54 1.476 1.944 1.62l2.951.288c3.708.36 5.58 2.304 5.58 5.507 0 4.14-3.528 6.12-7.956 6.12zm15.553-8.135a3.837 3.837 0 0 0 4.103 4.175 5.3 5.3 0 0 0 4.248-1.763l2.843 2.771a8.817 8.817 0 0 1-7.127 2.952c-4.427 0-8.675-2.016-8.675-9.611 0-6.12 3.312-9.575 8.171-9.575 5.22 0 8.17 3.744 8.17 9.071v1.98zm6.694-5.22a3.494 3.494 0 0 0-6.263 0 4.602 4.602 0 0 0-.431 2.016h7.126a4.595 4.595 0 0 0-.432-2.015zm39.526 13.139V84.29c0-2.556-1.62-3.42-3.095-3.42a3.022 3.022 0 0 0-3.132 3.311V95.63h-4.68V84.291c0-2.556-1.62-3.42-3.096-3.42s-3.13.864-3.13 3.42v11.338h-4.68V76.876h4.57v1.727a6.562 6.562 0 0 1 4.68-1.944 5.809 5.809 0 0 1 4.967 2.376 7.153 7.153 0 0 1 5.616-2.376 6.54 6.54 0 0 1 4.608 1.656 7.07 7.07 0 0 1 2.05 5.328v11.986zm16.706 3.023a6.675 6.675 0 0 1-1.404 2.412 5.423 5.423 0 0 1-4.032 1.44h-1.835v-4.211h1.08a2.023 2.023 0 0 0 2.34-1.692l.792-2.304-6.408-17.421h4.932l3.887 11.59 3.744-11.59h4.931zm32.903-4.499a6.286 6.286 0 0 1-4.536 1.692 5.657 5.657 0 0 1-4.68-1.98v1.764h-4.536V70h4.68v8.531a5.501 5.501 0 0 1 4.536-1.872 6.226 6.226 0 0 1 4.535 1.692c1.8 1.836 1.943 4.752 1.943 7.883 0 3.168-.143 6.084-1.942 7.92zm-5.904-13.282c-2.807 0-3.168 2.34-3.168 5.363s.36 5.4 3.168 5.4 3.168-2.376 3.168-5.4-.36-5.363-3.168-5.363zm21.924 14.758V94.01a5.699 5.699 0 0 1-4.607 1.8 6.486 6.486 0 0 1-4.787-1.656 6.01 6.01 0 0 1-1.548-4.212c0-2.987 2.052-5.435 6.48-5.435h4.355v-.936c0-2.052-1.008-2.951-3.492-2.951a4.15 4.15 0 0 0-3.6 1.62l-2.951-2.916c1.836-2.016 3.6-2.664 6.731-2.664 5.291 0 7.99 2.232 7.99 6.623V95.63zm-.107-7.919h-3.564c-1.872 0-2.772.756-2.772 2.16 0 1.296.9 2.123 2.844 2.123a3.56 3.56 0 0 0 2.771-.9 2.9 2.9 0 0 0 .72-2.375zm19.907-5.723a3.128 3.128 0 0 0-5.508 2.34v11.302h-4.679V76.876h4.572v1.799a6.348 6.348 0 0 1 4.715-2.016 5.659 5.659 0 0 1 4.427 1.764zm19.942 12.166a6.286 6.286 0 0 1-4.535 1.692 5.657 5.657 0 0 1-4.68-1.98v1.763h-4.535V70h4.679v8.531a5.501 5.501 0 0 1 4.536-1.872 6.226 6.226 0 0 1 4.535 1.692c1.8 1.836 1.943 4.752 1.943 7.883 0 3.168-.143 6.084-1.943 7.92zm-5.903-13.282c-2.808 0-3.168 2.34-3.168 5.363s.36 5.4 3.168 5.4 3.168-2.376 3.168-5.4-.36-5.363-3.168-5.363zm15.984 6.839a3.837 3.837 0 0 0 4.104 4.175 5.302 5.302 0 0 0 4.248-1.763l2.844 2.771a8.82 8.82 0 0 1-7.127 2.952c-4.428 0-8.676-2.016-8.676-9.611 0-6.12 3.311-9.575 8.17-9.575 5.22 0 8.173 3.744 8.173 9.071v1.98zm6.696-5.22a3.494 3.494 0 0 0-6.263 0 4.596 4.596 0 0 0-.433 2.016h7.128a4.595 4.595 0 0 0-.432-2.015zm16.812 13.355c-3.744 0-8.388-2.016-8.388-9.611s4.644-9.575 8.388-9.575a7.985 7.985 0 0 1 6.19 2.52l-3.167 3.168a3.787 3.787 0 0 0-3.023-1.476 3.245 3.245 0 0 0-2.664 1.224 6.356 6.356 0 0 0-1.044 4.139 6.471 6.471 0 0 0 1.044 4.176 3.246 3.246 0 0 0 2.664 1.223 3.786 3.786 0 0 0 3.023-1.475l3.167 3.131a8.012 8.012 0 0 1-6.19 2.556zm20.628-.216v-1.727a6.421 6.421 0 0 1-4.68 1.943 6.09 6.09 0 0 1-4.428-1.656 6.949 6.949 0 0 1-1.907-5.327V76.876h4.679v11.338c0 2.556 1.62 3.42 3.095 3.42s3.132-.864 3.132-3.42V76.876h4.68v18.753zm13.5-7.919a3.837 3.837 0 0 0 4.104 4.175 5.302 5.302 0 0 0 4.248-1.763l2.843 2.771a8.82 8.82 0 0 1-7.128 2.952c-4.426 0-8.674-2.016-8.674-9.611 0-6.12 3.311-9.575 8.17-9.575 5.22 0 8.172 3.744 8.172 9.071v1.98zm6.695-5.219a3.494 3.494 0 0 0-6.263 0 4.595 4.595 0 0 0-.432 2.016h7.128a4.595 4.595 0 0 0-.433-2.016zm22.968-1.512v14.65h-4.68v-14.65h-1.944v-3.564h1.944v-2.34a5.116 5.116 0 0 1 5.471-5.363h2.665v3.96h-1.836c-1.117 0-1.62.612-1.62 1.692v2.051h3.456v3.564zm19.474 12.562a7.834 7.834 0 0 1-5.83 2.304 7.744 7.744 0 0 1-5.796-2.304c-1.692-1.8-2.124-3.923-2.124-7.307s.432-5.471 2.124-7.27a8.486 8.486 0 0 1 11.626 0c1.692 1.8 2.124 3.887 2.124 7.27s-.396 5.544-2.123 7.307zM390.657 81.7a3.277 3.277 0 0 0-4.355 0c-.972.936-1.08 2.627-1.08 4.535 0 1.944.108 3.636 1.08 4.572a3.279 3.279 0 0 0 4.355 0c.973-.936 1.08-2.628 1.08-4.572 0-1.908-.107-3.599-1.08-4.535zm20.413.288a3.128 3.128 0 0 0-5.508 2.34v11.302h-4.678V76.876h4.57v1.799a6.348 6.348 0 0 1 4.716-2.016 5.659 5.659 0 0 1 4.428 1.764zm20.411 13.642a5.086 5.086 0 0 1-5.435-5.363v-9.287h-1.98v-3.564h1.98v-5.543h4.68v5.543h3.311v3.564h-3.311v8.999c0 1.08.504 1.692 1.619 1.692h1.692v3.96zm17.711 0V84.291c0-2.556-1.62-3.42-3.096-3.42s-3.131.864-3.131 3.42v11.338h-4.68V70h4.68v8.603a6.015 6.015 0 0 1 4.572-1.944 6.089 6.089 0 0 1 4.427 1.656 6.95 6.95 0 0 1 1.908 5.328v11.986zm13.393-7.919a3.837 3.837 0 0 0 4.103 4.175 5.302 5.302 0 0 0 4.248-1.763l2.844 2.771a8.82 8.82 0 0 1-7.128 2.952c-4.427 0-8.675-2.016-8.675-9.611 0-6.12 3.312-9.575 8.171-9.575 5.22 0 8.172 3.744 8.172 9.071v1.98zm6.695-5.219a3.494 3.494 0 0 0-6.263 0 4.595 4.595 0 0 0-.432 2.016h7.128a4.595 4.595 0 0 0-.433-2.016zM29.871 134.845c-3.743 0-8.386-2.016-8.386-9.61s4.643-9.576 8.386-9.576a7.987 7.987 0 0 1 6.192 2.52l-3.168 3.168a3.787 3.787 0 0 0-3.024-1.476 3.245 3.245 0 0 0-2.663 1.224 6.356 6.356 0 0 0-1.044 4.14 6.471 6.471 0 0 0 1.044 4.175 3.247 3.247 0 0 0 2.663 1.223 3.787 3.787 0 0 0 3.024-1.475l3.168 3.131a8.015 8.015 0 0 1-6.192 2.556zm22.247-2.304a7.834 7.834 0 0 1-5.83 2.304 7.745 7.745 0 0 1-5.796-2.304c-1.692-1.8-2.124-3.923-2.124-7.307s.432-5.471 2.124-7.27a7.747 7.747 0 0 1 5.795-2.305 7.701 7.701 0 0 1 5.831 2.304c1.692 1.8 2.124 3.888 2.124 7.271s-.395 5.544-2.124 7.307zM48.483 120.7a2.959 2.959 0 0 0-2.196-.828 2.93 2.93 0 0 0-2.16.828c-.972.936-1.08 2.627-1.08 4.535 0 1.944.108 3.636 1.08 4.572a2.93 2.93 0 0 0 2.16.827 2.96 2.96 0 0 0 2.196-.827c.972-.936 1.08-2.628 1.08-4.572 0-1.908-.108-3.599-1.08-4.535zm32.038 13.93v-11.338c0-2.556-1.62-3.42-3.095-3.42a3.022 3.022 0 0 0-3.132 3.311v11.447h-4.68v-11.338c0-2.556-1.62-3.42-3.095-3.42s-3.132.864-3.132 3.42v11.338h-4.68v-18.753h4.573v1.727a6.562 6.562 0 0 1 4.68-1.944 5.809 5.809 0 0 1 4.967 2.376 7.153 7.153 0 0 1 5.615-2.376 6.54 6.54 0 0 1 4.608 1.656 7.07 7.07 0 0 1 2.05 5.328v11.986zm31.536 0v-11.338c0-2.556-1.62-3.42-3.095-3.42a3.022 3.022 0 0 0-3.132 3.311v11.447h-4.68v-11.338c0-2.556-1.62-3.42-3.095-3.42s-3.132.864-3.132 3.42v11.338h-4.68v-18.753h4.572v1.727a6.562 6.562 0 0 1 4.68-1.944 5.809 5.809 0 0 1 4.967 2.376 7.153 7.153 0 0 1 5.615-2.376 6.54 6.54 0 0 1 4.608 1.656 7.07 7.07 0 0 1 2.051 5.328v11.986zm20.521 0v-1.728a6.418 6.418 0 0 1-4.679 1.944 6.09 6.09 0 0 1-4.428-1.656 6.95 6.95 0 0 1-1.907-5.327v-11.986h4.68v11.338c0 2.556 1.62 3.42 3.095 3.42s3.132-.864 3.132-3.42v-11.338h4.679v18.753zm20.736 0v-11.338c0-2.556-1.62-3.42-3.095-3.42s-3.132.864-3.132 3.42v11.338h-4.68v-18.753h4.572v1.727a6.417 6.417 0 0 1 4.68-1.944 6.09 6.09 0 0 1 4.427 1.656 6.95 6.95 0 0 1 1.908 5.328v11.986zm19.332 0v-1.62a5.699 5.699 0 0 1-4.607 1.8 6.486 6.486 0 0 1-4.787-1.656 6.01 6.01 0 0 1-1.548-4.212c0-2.987 2.052-5.435 6.479-5.435h4.355v-.936c0-2.051-1.007-2.951-3.491-2.951a4.149 4.149 0 0 0-3.6 1.62l-2.951-2.916c1.835-2.016 3.6-2.664 6.73-2.664 5.292 0 7.992 2.232 7.992 6.623v12.347zm-.108-7.919h-3.563c-1.872 0-2.772.756-2.772 2.16 0 1.296.9 2.124 2.844 2.124a3.562 3.562 0 0 0 2.772-.9 2.9 2.9 0 0 0 .72-2.376zm15.013 7.919a5.096 5.096 0 0 1-5.472-5.363V109h4.68v19.978c0 1.115.468 1.691 1.655 1.691h1.8v3.96zm6.229 5.94v-11.051h5.147v7.091zm24.73-5.724c-2.952 0-5.58-.323-7.99-2.7l3.06-3.06a6.762 6.762 0 0 0 5.002 1.764c1.62 0 3.312-.54 3.312-1.943 0-.936-.468-1.584-1.98-1.728l-3.024-.288c-3.312-.324-5.4-1.8-5.4-5.255 0-3.924 3.42-5.976 7.236-5.976 2.951 0 5.363.54 7.163 2.196l-2.88 2.916a6.46 6.46 0 0 0-4.356-1.26c-1.872 0-2.663.864-2.663 1.8s.54 1.476 1.944 1.62l2.95.288c3.709.36 5.58 2.304 5.58 5.507.002 4.14-3.527 6.119-7.953 6.119zm24.838-2.303a7.833 7.833 0 0 1-5.83 2.303 7.744 7.744 0 0 1-5.795-2.303c-1.693-1.8-2.125-3.924-2.125-7.308s.432-5.47 2.124-7.27a8.486 8.486 0 0 1 11.626 0c1.693 1.8 2.124 3.887 2.124 7.27s-.396 5.544-2.124 7.307zm-3.635-11.843a3.277 3.277 0 0 0-4.356 0c-.972.936-1.079 2.628-1.079 4.535 0 1.944.107 3.636 1.08 4.572a3.279 3.279 0 0 0 4.355 0c.972-.936 1.08-2.628 1.08-4.572 0-1.908-.108-3.599-1.08-4.535zm17.676 14.146c-3.744 0-8.387-2.015-8.387-9.61s4.643-9.575 8.387-9.575a7.986 7.986 0 0 1 6.19 2.52l-3.167 3.167a3.787 3.787 0 0 0-3.023-1.476 3.245 3.245 0 0 0-2.664 1.224 6.356 6.356 0 0 0-1.044 4.14 6.471 6.471 0 0 0 1.044 4.175 3.246 3.246 0 0 0 2.664 1.224 3.786 3.786 0 0 0 3.023-1.476l3.167 3.132a8.013 8.013 0 0 1-6.19 2.555zm9.757-22.173v-3.815h4.787v3.815zm.072 21.957v-18.214h4.68v18.214zm19.51 0v-1.62a5.699 5.699 0 0 1-4.607 1.8 6.486 6.486 0 0 1-4.787-1.655 6.01 6.01 0 0 1-1.548-4.212c0-2.988 2.052-5.435 6.48-5.435h4.355v-.936c0-2.052-1.008-2.952-3.492-2.952a4.15 4.15 0 0 0-3.6 1.62l-2.951-2.916c1.836-2.015 3.6-2.663 6.731-2.663 5.291 0 7.99 2.231 7.99 6.623v12.346zm-.107-7.918h-3.563c-1.873 0-2.773.755-2.773 2.16 0 1.295.9 2.123 2.844 2.123a3.56 3.56 0 0 0 2.771-.9 2.9 2.9 0 0 0 .721-2.375zm15.013 7.918a5.096 5.096 0 0 1-5.472-5.363V109h4.68v19.978c0 1.115.468 1.691 1.656 1.691h1.8v3.96zm24.37 0v-1.62a5.699 5.699 0 0 1-4.607 1.8 6.486 6.486 0 0 1-4.787-1.655 6.01 6.01 0 0 1-1.548-4.212c0-2.988 2.052-5.435 6.48-5.435h4.356v-.936c0-2.052-1.008-2.952-3.492-2.952a4.15 4.15 0 0 0-3.6 1.62l-2.951-2.916c1.835-2.015 3.6-2.663 6.731-2.663 5.291 0 7.99 2.231 7.99 6.623v12.346zm-.107-7.918h-3.563c-1.872 0-2.772.755-2.772 2.16 0 1.295.9 2.123 2.843 2.123a3.56 3.56 0 0 0 2.772-.9 2.9 2.9 0 0 0 .72-2.375zm15.876 8.134c-2.952 0-5.58-.323-7.99-2.7l3.06-3.06a6.762 6.762 0 0 0 5.002 1.764c1.62 0 3.312-.54 3.312-1.943 0-.936-.468-1.584-1.98-1.728l-3.023-.288c-3.312-.324-5.4-1.8-5.4-5.255 0-3.924 3.42-5.976 7.236-5.976 2.95 0 5.363.54 7.163 2.196l-2.88 2.915a6.46 6.46 0 0 0-4.356-1.26c-1.872 0-2.663.864-2.663 1.8s.54 1.476 1.944 1.62l2.95.288c3.709.36 5.58 2.304 5.58 5.508 0 4.14-3.528 6.119-7.955 6.119zm25.63-1.691a6.285 6.285 0 0 1-4.535 1.691 5.502 5.502 0 0 1-4.536-1.871v8.53h-4.679v-25.628h4.536v1.763a5.657 5.657 0 0 1 4.68-1.98 6.284 6.284 0 0 1 4.535 1.692c1.8 1.836 1.943 4.752 1.943 7.883s-.144 6.084-1.944 7.92zm-5.903-13.283c-2.808 0-3.168 2.34-3.168 5.363s.36 5.4 3.168 5.4 3.168-2.376 3.168-5.4-.36-5.363-3.168-5.363zm15.984 6.84a3.837 3.837 0 0 0 4.104 4.175 5.302 5.302 0 0 0 4.248-1.764l2.844 2.771a8.82 8.82 0 0 1-7.127 2.952c-4.428 0-8.676-2.016-8.676-9.61 0-6.12 3.311-9.576 8.17-9.576 5.22 0 8.173 3.744 8.173 9.071v1.98zm6.696-5.22a3.494 3.494 0 0 0-6.263 0 4.595 4.595 0 0 0-.433 2.016h7.128a4.595 4.595 0 0 0-.432-2.016zm16.812 13.354c-3.744 0-8.388-2.016-8.388-9.61s4.644-9.576 8.388-9.576a7.984 7.984 0 0 1 6.19 2.52l-3.167 3.168a3.787 3.787 0 0 0-3.023-1.476 3.245 3.245 0 0 0-2.664 1.224 6.356 6.356 0 0 0-1.044 4.14 6.471 6.471 0 0 0 1.044 4.175 3.246 3.246 0 0 0 2.664 1.223 3.786 3.786 0 0 0 3.023-1.475l3.167 3.131a8.012 8.012 0 0 1-6.19 2.556zm15.696-.216a5.086 5.086 0 0 1-5.435-5.363v-9.287h-1.98v-3.564h1.98v-5.543h4.68v5.543h3.311v3.564h-3.311v8.999c0 1.08.504 1.692 1.62 1.692h1.691v3.96zm12.78.216c-2.952 0-5.58-.324-7.991-2.7l3.06-3.06a6.762 6.762 0 0 0 5.003 1.764c1.62 0 3.311-.54 3.311-1.944 0-.936-.468-1.584-1.98-1.728l-3.023-.288c-3.311-.323-5.4-1.8-5.4-5.255 0-3.923 3.42-5.975 7.236-5.975 2.95 0 5.363.54 7.163 2.196l-2.88 2.915a6.459 6.459 0 0 0-4.356-1.26c-1.872 0-2.663.864-2.663 1.8s.54 1.476 1.944 1.62l2.95.288c3.709.36 5.58 2.304 5.58 5.507 0 4.14-3.528 6.12-7.954 6.12zm-394.09 36.696a7.834 7.834 0 0 1-5.83 2.304 7.745 7.745 0 0 1-5.796-2.304c-1.692-1.8-2.123-3.923-2.123-7.307s.431-5.471 2.123-7.27a7.747 7.747 0 0 1 5.796-2.305 7.701 7.701 0 0 1 5.83 2.304c1.693 1.8 2.125 3.888 2.125 7.271s-.396 5.544-2.124 7.307zM31.744 159.7a2.959 2.959 0 0 0-2.195-.828 2.929 2.929 0 0 0-2.16.828c-.973.936-1.08 2.627-1.08 4.535 0 1.944.108 3.636 1.08 4.572a2.93 2.93 0 0 0 2.16.827 2.96 2.96 0 0 0 2.195-.827c.972-.936 1.08-2.628 1.08-4.572 0-1.908-.108-3.599-1.08-4.535zm15.48-.72v14.65h-4.679v-14.65H40.6v-3.563h1.944v-2.34a5.116 5.116 0 0 1 5.471-5.364h2.664v3.96h-1.836c-1.116 0-1.62.612-1.62 1.692v2.052h3.456v3.563zm22.86 14.866c-3.743 0-8.387-2.016-8.387-9.61s4.644-9.576 8.387-9.576a7.987 7.987 0 0 1 6.191 2.52l-3.167 3.168a3.787 3.787 0 0 0-3.024-1.476 3.245 3.245 0 0 0-2.664 1.224 6.356 6.356 0 0 0-1.044 4.14 6.471 6.471 0 0 0 1.044 4.175 3.247 3.247 0 0 0 2.664 1.224 3.787 3.787 0 0 0 3.024-1.476l3.167 3.131a8.015 8.015 0 0 1-6.191 2.556zm22.247-2.304a7.835 7.835 0 0 1-5.831 2.304 7.745 7.745 0 0 1-5.796-2.304c-1.691-1.8-2.123-3.923-2.123-7.307s.432-5.471 2.123-7.27a8.486 8.486 0 0 1 11.627 0c1.692 1.8 2.124 3.887 2.124 7.27s-.396 5.544-2.124 7.307zM88.695 159.7a2.959 2.959 0 0 0-2.196-.828 2.93 2.93 0 0 0-2.16.828c-.972.936-1.08 2.627-1.08 4.535 0 1.944.108 3.636 1.08 4.572a2.93 2.93 0 0 0 2.16.827 2.96 2.96 0 0 0 2.196-.827c.972-.936 1.08-2.628 1.08-4.572 0-1.908-.108-3.599-1.08-4.535zm23.183 11.842a7.834 7.834 0 0 1-5.83 2.304 7.745 7.745 0 0 1-5.796-2.304c-1.692-1.8-2.124-3.923-2.124-7.307s.432-5.471 2.124-7.27a8.486 8.486 0 0 1 11.626 0c1.692 1.8 2.124 3.887 2.124 7.27s-.396 5.544-2.124 7.307zm-3.635-11.842a2.959 2.959 0 0 0-2.196-.828 2.93 2.93 0 0 0-2.16.828c-.972.936-1.08 2.627-1.08 4.535 0 1.944.108 3.636 1.08 4.572a2.93 2.93 0 0 0 2.16.827 2.96 2.96 0 0 0 2.196-.827c.972-.936 1.08-2.628 1.08-4.572 0-1.908-.108-3.599-1.08-4.535zm21.491 13.93l-4.607-7.811-1.98 2.232v5.579h-4.68V148h4.68v14.543l6.227-7.668h5.652l-6.696 7.56 7.2 11.194zm8.785-21.957v-3.816h4.788v3.816zm.072 21.957v-18.214h4.68v18.214zm20.807 0v-11.338c0-2.556-1.62-3.42-3.096-3.42s-3.131.864-3.131 3.42v11.338h-4.68v-18.753h4.571v1.727a6.417 6.417 0 0 1 4.68-1.944 6.09 6.09 0 0 1 4.427 1.656 6.95 6.95 0 0 1 1.908 5.328v11.986zm16.2 7.091c-2.88 0-4.859-.576-6.803-2.447l2.916-2.952a4.777 4.777 0 0 0 3.672 1.44c2.807 0 3.779-1.98 3.779-3.888v-1.907a5.493 5.493 0 0 1-4.464 1.871 6.239 6.239 0 0 1-4.463-1.656c-1.764-1.763-1.908-4.175-1.908-7.45s.144-5.652 1.908-7.416a6.329 6.329 0 0 1 4.5-1.656 5.491 5.491 0 0 1 4.571 1.98v-1.763h4.535v18.069c0 4.5-3.204 7.775-8.243 7.775zm.468-21.85c-2.771 0-3.06 2.376-3.06 4.86s.288 4.895 3.06 4.895 3.096-2.411 3.096-4.895-.324-4.86-3.096-4.86zm30.995 14.759v-1.62a5.698 5.698 0 0 1-4.607 1.8 6.486 6.486 0 0 1-4.787-1.656 6.01 6.01 0 0 1-1.548-4.212c0-2.987 2.052-5.435 6.479-5.435h4.355v-.936c0-2.052-1.007-2.952-3.491-2.952a4.148 4.148 0 0 0-3.6 1.62l-2.951-2.916c1.835-2.015 3.6-2.663 6.73-2.663 5.292 0 7.992 2.232 7.992 6.623v12.346zm-.108-7.92h-3.563c-1.871 0-2.772.757-2.772 2.16 0 1.297.9 2.124 2.844 2.124a3.562 3.562 0 0 0 2.772-.9 2.9 2.9 0 0 0 .72-2.375zm19.908-5.722a3.128 3.128 0 0 0-5.508 2.339v11.303h-4.678v-18.753h4.57v1.799a6.348 6.348 0 0 1 4.716-2.016 5.659 5.659 0 0 1 4.428 1.764zm18.071 11.554a7.834 7.834 0 0 1-5.83 2.304 7.744 7.744 0 0 1-5.796-2.304c-1.692-1.8-2.124-3.923-2.124-7.307s.432-5.471 2.124-7.271a8.486 8.486 0 0 1 11.626 0c1.693 1.8 2.124 3.887 2.124 7.27s-.396 5.545-2.124 7.308zm-3.635-11.842a3.277 3.277 0 0 0-4.356 0c-.971.936-1.079 2.627-1.079 4.535 0 1.944.108 3.636 1.08 4.572a3.279 3.279 0 0 0 4.355 0c.972-.936 1.08-2.628 1.08-4.572 0-1.908-.108-3.599-1.08-4.535zm21.024 13.93V171.9a6.421 6.421 0 0 1-4.68 1.944 6.09 6.09 0 0 1-4.428-1.656 6.949 6.949 0 0 1-1.907-5.327v-11.986h4.679v11.338c0 2.556 1.62 3.42 3.096 3.42s3.131-.864 3.131-3.42v-11.338h4.68v18.753zm20.735 0V162.29c0-2.556-1.62-3.42-3.095-3.42s-3.132.864-3.132 3.42v11.338h-4.679v-18.753h4.571v1.727a6.416 6.416 0 0 1 4.68-1.944 6.089 6.089 0 0 1 4.427 1.656 6.95 6.95 0 0 1 1.908 5.328v11.986zm20.088 0v-1.764a5.63 5.63 0 0 1-4.643 1.98 6.316 6.316 0 0 1-4.571-1.691c-1.8-1.836-1.944-4.752-1.944-7.92 0-3.131.144-6.047 1.944-7.883a6.226 6.226 0 0 1 4.536-1.692 5.619 5.619 0 0 1 4.57 1.873V148h4.68v25.629zm-3.311-14.759c-2.808 0-3.167 2.34-3.167 5.364s.36 5.399 3.167 5.399 3.204-2.375 3.204-5.4-.397-5.362-3.204-5.362zm31.103 14.759v-1.62a5.698 5.698 0 0 1-4.607 1.8 6.486 6.486 0 0 1-4.787-1.656 6.01 6.01 0 0 1-1.548-4.212c0-2.987 2.052-5.435 6.48-5.435h4.355v-.936c0-2.052-1.007-2.952-3.492-2.952a4.15 4.15 0 0 0-3.6 1.62l-2.951-2.916c1.836-2.015 3.6-2.663 6.731-2.663 5.291 0 7.99 2.232 7.99 6.623v12.346zm-.107-7.92h-3.564c-1.872 0-2.772.757-2.772 2.16 0 1.297.9 2.124 2.844 2.124a3.56 3.56 0 0 0 2.771-.9 2.9 2.9 0 0 0 .72-2.375zM36.17 211.155a6.287 6.287 0 0 1-4.536 1.691 5.656 5.656 0 0 1-4.68-1.98v1.764H22.42V187h4.68v8.531a5.5 5.5 0 0 1 4.535-1.872 6.226 6.226 0 0 1 4.536 1.692c1.8 1.836 1.944 4.752 1.944 7.883 0 3.168-.145 6.084-1.944 7.92zm-5.904-13.283c-2.807 0-3.167 2.34-3.167 5.363s.36 5.4 3.167 5.4 3.168-2.376 3.168-5.4-.36-5.363-3.168-5.363zm21.924 14.758v-1.62a5.699 5.699 0 0 1-4.607 1.8 6.486 6.486 0 0 1-4.787-1.656 6.01 6.01 0 0 1-1.548-4.212c0-2.987 2.052-5.435 6.479-5.435h4.355v-.936c0-2.051-1.007-2.951-3.491-2.951a4.148 4.148 0 0 0-3.6 1.62l-2.951-2.916c1.835-2.016 3.6-2.664 6.73-2.664 5.292 0 7.992 2.232 7.992 6.623v12.347zm-.108-7.919H48.52c-1.872 0-2.772.756-2.772 2.16 0 1.296.9 2.124 2.844 2.124a3.562 3.562 0 0 0 2.772-.9 2.9 2.9 0 0 0 .72-2.376zm19.908-5.723a3.128 3.128 0 0 0-5.507 2.34v11.302h-4.68v-18.753h4.572v1.799a6.35 6.35 0 0 1 4.715-2.016 5.658 5.658 0 0 1 4.427 1.764zm19.943 12.167a6.287 6.287 0 0 1-4.536 1.691 5.656 5.656 0 0 1-4.679-1.98v1.764h-4.536V187h4.68v8.531a5.5 5.5 0 0 1 4.536-1.872 6.226 6.226 0 0 1 4.535 1.692c1.8 1.836 1.944 4.752 1.944 7.883 0 3.168-.144 6.084-1.944 7.92zM86.03 197.87c-2.808 0-3.168 2.34-3.168 5.363s.36 5.4 3.168 5.4 3.167-2.376 3.167-5.4-.36-5.363-3.167-5.363zm15.984 6.84a3.837 3.837 0 0 0 4.104 4.174 5.3 5.3 0 0 0 4.248-1.763l2.843 2.771a8.817 8.817 0 0 1-7.127 2.952c-4.427 0-8.675-2.016-8.675-9.61 0-6.12 3.312-9.576 8.17-9.576 5.22 0 8.172 3.744 8.172 9.071v1.98zm6.695-5.22a3.494 3.494 0 0 0-6.263 0 4.602 4.602 0 0 0-.432 2.016h7.127a4.595 4.595 0 0 0-.432-2.016zm16.812 13.354c-3.743 0-8.386-2.016-8.386-9.61s4.643-9.576 8.386-9.576a7.987 7.987 0 0 1 6.192 2.52l-3.168 3.168a3.787 3.787 0 0 0-3.024-1.476 3.245 3.245 0 0 0-2.663 1.224 6.356 6.356 0 0 0-1.044 4.14 6.471 6.471 0 0 0 1.044 4.175 3.247 3.247 0 0 0 2.663 1.223 3.787 3.787 0 0 0 3.024-1.475l3.168 3.131a8.015 8.015 0 0 1-6.192 2.556zm20.628-.216v-1.727a6.418 6.418 0 0 1-4.68 1.943 6.09 6.09 0 0 1-4.427-1.656 6.95 6.95 0 0 1-1.908-5.327v-11.986h4.68v11.338c0 2.556 1.62 3.42 3.095 3.42s3.132-.864 3.132-3.42v-11.338h4.68v18.753zm13.5-7.919a3.837 3.837 0 0 0 4.104 4.175 5.3 5.3 0 0 0 4.248-1.763l2.843 2.771a8.817 8.817 0 0 1-7.127 2.952c-4.427 0-8.675-2.016-8.675-9.61 0-6.12 3.312-9.576 8.171-9.576 5.22 0 8.171 3.744 8.171 9.071v1.98zm6.696-5.219a3.494 3.494 0 0 0-6.264 0 4.595 4.595 0 0 0-.431 2.016h7.127a4.595 4.595 0 0 0-.433-2.016zm9.18 13.138v-5.075h5.112v5.075zm10.223 0v-5.075h5.076v5.075zm10.26 0v-5.075h5.074v5.075zm32.04-1.475a6.285 6.285 0 0 1-4.536 1.691 5.657 5.657 0 0 1-4.68-1.98v1.764h-4.535V187h4.678v8.531a5.501 5.501 0 0 1 4.537-1.872 6.226 6.226 0 0 1 4.535 1.692c1.8 1.836 1.943 4.752 1.943 7.883.001 3.168-.143 6.084-1.942 7.92zm-5.904-13.283c-2.808 0-3.168 2.34-3.168 5.363s.36 5.4 3.168 5.4 3.168-2.376 3.168-5.4-.36-5.363-3.168-5.363zm15.985 6.839a3.837 3.837 0 0 0 4.104 4.175 5.302 5.302 0 0 0 4.247-1.763l2.844 2.771a8.82 8.82 0 0 1-7.128 2.952c-4.426 0-8.674-2.016-8.674-9.611 0-6.12 3.311-9.575 8.17-9.575 5.22 0 8.172 3.744 8.172 9.071v1.98zm6.695-5.22a3.494 3.494 0 0 0-6.262 0 4.595 4.595 0 0 0-.433 2.016h7.128a4.595 4.595 0 0 0-.433-2.015zm16.813 13.355c-3.744 0-8.388-2.016-8.388-9.611s4.644-9.575 8.388-9.575a7.986 7.986 0 0 1 6.19 2.52l-3.167 3.168a3.787 3.787 0 0 0-3.024-1.476 3.245 3.245 0 0 0-2.664 1.224 6.356 6.356 0 0 0-1.044 4.139 6.471 6.471 0 0 0 1.044 4.176 3.246 3.246 0 0 0 2.664 1.223 3.786 3.786 0 0 0 3.024-1.475l3.167 3.131a8.013 8.013 0 0 1-6.19 2.556zm19.295-.216v-1.62a5.699 5.699 0 0 1-4.608 1.8 6.486 6.486 0 0 1-4.787-1.656 6.01 6.01 0 0 1-1.548-4.212c0-2.987 2.052-5.435 6.48-5.435h4.355v-.936c0-2.052-1.008-2.951-3.492-2.951a4.15 4.15 0 0 0-3.6 1.62l-2.951-2.916c1.836-2.016 3.6-2.664 6.731-2.664 5.291 0 7.99 2.232 7.99 6.623v12.347zm-.108-7.919h-3.563c-1.872 0-2.773.756-2.773 2.16 0 1.296.9 2.123 2.844 2.123a3.56 3.56 0 0 0 2.772-.9 2.9 2.9 0 0 0 .72-2.375zm20.52 7.919V210.9a6.421 6.421 0 0 1-4.68 1.944 6.09 6.09 0 0 1-4.428-1.656 6.949 6.949 0 0 1-1.907-5.327v-11.986h4.679v11.338c0 2.556 1.62 3.42 3.095 3.42s3.132-.864 3.132-3.42v-11.338h4.68v18.753zm15.984.216c-2.952 0-5.58-.324-7.991-2.7l3.06-3.06a6.762 6.762 0 0 0 5.002 1.765c1.62 0 3.312-.54 3.312-1.944 0-.936-.468-1.584-1.98-1.728l-3.024-.288c-3.311-.324-5.4-1.8-5.4-5.255 0-3.924 3.42-5.975 7.236-5.975 2.951 0 5.363.54 7.163 2.195l-2.88 2.916a6.459 6.459 0 0 0-4.355-1.26c-1.872 0-2.663.864-2.663 1.8s.539 1.476 1.943 1.62l2.951.288c3.708.36 5.58 2.304 5.58 5.507.001 4.14-3.527 6.119-7.954 6.119zm15.552-8.135a3.837 3.837 0 0 0 4.104 4.175 5.302 5.302 0 0 0 4.247-1.763l2.844 2.771a8.82 8.82 0 0 1-7.127 2.952c-4.427 0-8.676-2.016-8.676-9.611 0-6.12 3.312-9.575 8.171-9.575 5.22 0 8.172 3.744 8.172 9.071v1.98zm6.695-5.22a3.494 3.494 0 0 0-6.262 0 4.595 4.595 0 0 0-.433 2.016h7.128a4.595 4.595 0 0 0-.433-2.015zm23.364 13.14a5.086 5.086 0 0 1-5.436-5.364v-9.287h-1.98v-3.564h1.98v-5.543h4.68v5.543h3.312v3.564h-3.311v8.999c0 1.08.503 1.692 1.619 1.692h1.692v3.96zm17.71 0v-11.34c0-2.555-1.62-3.42-3.096-3.42s-3.132.865-3.132 3.42v11.34h-4.678V187h4.678v8.603a6.015 6.015 0 0 1 4.573-1.944 6.089 6.089 0 0 1 4.426 1.656 6.95 6.95 0 0 1 1.909 5.328v11.986zm13.393-7.92a3.837 3.837 0 0 0 4.103 4.175 5.302 5.302 0 0 0 4.248-1.763l2.844 2.771a8.82 8.82 0 0 1-7.127 2.952c-4.428 0-8.676-2.016-8.676-9.61 0-6.12 3.312-9.576 8.171-9.576 5.22 0 8.172 3.744 8.172 9.071v1.98zm6.695-5.219a3.494 3.494 0 0 0-6.263 0 4.595 4.595 0 0 0-.432 2.016h7.127a4.595 4.595 0 0 0-.432-2.016zm19.549-.504a3.128 3.128 0 0 0-5.508 2.34v11.302H410.1v-18.753h4.571v1.799a6.348 6.348 0 0 1 4.715-2.016 5.659 5.659 0 0 1 4.428 1.764zm8.783 5.723a3.837 3.837 0 0 0 4.104 4.175 5.302 5.302 0 0 0 4.248-1.763l2.843 2.771a8.82 8.82 0 0 1-7.127 2.952c-4.427 0-8.675-2.016-8.675-9.611 0-6.12 3.311-9.575 8.17-9.575 5.22 0 8.172 3.744 8.172 9.071v1.98zm6.695-5.22a3.494 3.494 0 0 0-6.262 0 4.595 4.595 0 0 0-.433 2.016h7.128a4.595 4.595 0 0 0-.433-2.015zm9.181-4.895V187h4.428v7.595zm15.66 18.25c-2.952 0-5.58-.323-7.991-2.7l3.06-3.06a6.762 6.762 0 0 0 5.003 1.764c1.62 0 3.311-.54 3.311-1.943 0-.936-.467-1.584-1.98-1.728l-3.023-.288c-3.312-.324-5.4-1.8-5.4-5.255 0-3.924 3.42-5.976 7.236-5.976 2.95 0 5.363.54 7.163 2.196l-2.88 2.915a6.46 6.46 0 0 0-4.356-1.26c-1.872 0-2.663.864-2.663 1.8s.54 1.476 1.944 1.62l2.95.288c3.709.36 5.58 2.304 5.58 5.508.001 4.14-3.527 6.119-7.954 6.119zm-432.03 39c-2.952 0-5.58-.324-7.991-2.7l3.06-3.06a6.763 6.763 0 0 0 5.003 1.764c1.62 0 3.312-.54 3.312-1.943 0-.936-.468-1.584-1.98-1.728l-3.024-.288c-3.311-.324-5.4-1.8-5.4-5.255 0-3.924 3.42-5.976 7.236-5.976 2.952 0 5.363.54 7.163 2.196l-2.88 2.915a6.459 6.459 0 0 0-4.355-1.26c-1.872 0-2.664.864-2.664 1.8s.54 1.476 1.944 1.62l2.952.288c3.707.36 5.579 2.304 5.579 5.508 0 4.14-3.528 6.119-7.955 6.119zm24.838-2.303a7.834 7.834 0 0 1-5.83 2.303 7.745 7.745 0 0 1-5.796-2.303c-1.692-1.8-2.124-3.924-2.124-7.308s.432-5.47 2.124-7.27a7.747 7.747 0 0 1 5.795-2.304 7.701 7.701 0 0 1 5.831 2.303c1.692 1.8 2.124 3.888 2.124 7.271s-.396 5.544-2.124 7.307zm-3.635-11.843a2.959 2.959 0 0 0-2.196-.828 2.93 2.93 0 0 0-2.16.828c-.972.936-1.08 2.627-1.08 4.535 0 1.944.108 3.636 1.08 4.572a2.93 2.93 0 0 0 2.16.827 2.96 2.96 0 0 0 2.196-.827c.972-.936 1.08-2.628 1.08-4.572 0-1.908-.108-3.599-1.08-4.535zm32.038 13.93v-11.338c0-2.556-1.62-3.42-3.095-3.42a3.022 3.022 0 0 0-3.132 3.311v11.447h-4.68v-11.338c0-2.556-1.62-3.42-3.096-3.42s-3.131.864-3.131 3.42v11.338h-4.68v-18.753h4.572v1.727a6.562 6.562 0 0 1 4.679-1.944 5.809 5.809 0 0 1 4.967 2.376 7.153 7.153 0 0 1 5.616-2.376 6.54 6.54 0 0 1 4.607 1.656 7.07 7.07 0 0 1 2.052 5.328v11.986zm13.394-7.919a3.837 3.837 0 0 0 4.104 4.175 5.3 5.3 0 0 0 4.247-1.763l2.844 2.771a8.817 8.817 0 0 1-7.127 2.952c-4.428 0-8.675-2.016-8.675-9.611 0-6.12 3.311-9.575 8.17-9.575 5.22 0 8.172 3.744 8.172 9.071v1.98zm6.695-5.22a3.494 3.494 0 0 0-6.263 0 4.595 4.595 0 0 0-.432 2.017h7.127a4.595 4.595 0 0 0-.432-2.016zm15.229 13.139a5.086 5.086 0 0 1-5.436-5.363v-9.287h-1.98v-3.564h1.98v-5.543h4.68v5.543h3.312v3.564h-3.312v8.999c0 1.08.504 1.692 1.62 1.692h1.692v3.959zm17.71 0v-11.338c0-2.556-1.62-3.42-3.096-3.42s-3.131.864-3.131 3.42v11.338h-4.68V226h4.68v8.603a6.012 6.012 0 0 1 4.571-1.944 6.09 6.09 0 0 1 4.428 1.656 6.95 6.95 0 0 1 1.908 5.328v11.986zm9.65-21.957v-3.816h4.787v3.816zm.071 21.957v-18.214h4.68v18.214zm20.807 0v-11.338c0-2.556-1.62-3.42-3.096-3.42s-3.131.864-3.131 3.42v11.338h-4.68v-18.753h4.572v1.727a6.417 6.417 0 0 1 4.679-1.944 6.09 6.09 0 0 1 4.427 1.656 6.95 6.95 0 0 1 1.908 5.328v11.986zm16.201 7.091c-2.88 0-4.86-.575-6.803-2.447l2.915-2.952a4.778 4.778 0 0 0 3.672 1.44c2.808 0 3.78-1.98 3.78-3.888v-1.908a5.493 5.493 0 0 1-4.464 1.872 6.239 6.239 0 0 1-4.463-1.656c-1.764-1.764-1.908-4.175-1.908-7.451s.144-5.651 1.908-7.415a6.329 6.329 0 0 1 4.5-1.656 5.491 5.491 0 0 1 4.57 1.98v-1.764h4.536v18.07c0 4.5-3.204 7.775-8.243 7.775zm.468-21.85c-2.772 0-3.06 2.377-3.06 4.86s.288 4.896 3.06 4.896 3.096-2.412 3.096-4.896-.324-4.86-3.096-4.86zm27.54 14.975c-2.952 0-5.58-.324-7.99-2.7l3.06-3.06a6.763 6.763 0 0 0 5.003 1.764c1.62 0 3.31-.54 3.31-1.944 0-.936-.467-1.584-1.98-1.728l-3.023-.288c-3.311-.323-5.4-1.8-5.4-5.255 0-3.923 3.42-5.975 7.236-5.975 2.951 0 5.363.54 7.163 2.196l-2.88 2.915a6.46 6.46 0 0 0-4.355-1.26c-1.872 0-2.664.864-2.664 1.8s.54 1.476 1.944 1.62l2.951.288c3.708.36 5.58 2.304 5.58 5.507 0 4.14-3.528 6.12-7.956 6.12zm25.63-1.691a6.284 6.284 0 0 1-4.535 1.691 5.502 5.502 0 0 1-4.536-1.872v8.531h-4.68v-25.628h4.536v1.763a5.657 5.657 0 0 1 4.68-1.98 6.284 6.284 0 0 1 4.535 1.692c1.8 1.836 1.944 4.752 1.944 7.883s-.144 6.084-1.944 7.92zm-5.903-13.283c-2.808 0-3.168 2.34-3.168 5.363s.36 5.4 3.168 5.4 3.168-2.376 3.168-5.4-.361-5.363-3.169-5.363zm15.984 6.84a3.837 3.837 0 0 0 4.103 4.175 5.302 5.302 0 0 0 4.248-1.764l2.844 2.771a8.82 8.82 0 0 1-7.127 2.952c-4.427 0-8.676-2.016-8.676-9.61 0-6.12 3.312-9.576 8.171-9.576 5.22 0 8.172 3.744 8.172 9.071v1.98zm6.695-5.22a3.494 3.494 0 0 0-6.262 0 4.595 4.595 0 0 0-.433 2.016h7.128a4.595 4.595 0 0 0-.433-2.016zm16.813 13.354c-3.744 0-8.388-2.016-8.388-9.61s4.644-9.576 8.388-9.576a7.984 7.984 0 0 1 6.19 2.52l-3.167 3.168a3.787 3.787 0 0 0-3.024-1.476 3.245 3.245 0 0 0-2.664 1.224 6.356 6.356 0 0 0-1.044 4.14 6.471 6.471 0 0 0 1.044 4.175 3.246 3.246 0 0 0 2.664 1.224 3.786 3.786 0 0 0 3.024-1.476l3.167 3.131a8.012 8.012 0 0 1-6.19 2.556zm9.757-22.173v-3.816h4.787v3.816zm.072 21.957v-18.214h4.678v18.214zm19.51 0v-1.62a5.7 5.7 0 0 1-4.608 1.8 6.484 6.484 0 0 1-4.787-1.656 6.01 6.01 0 0 1-1.548-4.212c0-2.987 2.052-5.435 6.48-5.435h4.356v-.936c0-2.052-1.008-2.951-3.492-2.951a4.15 4.15 0 0 0-3.6 1.62l-2.951-2.916c1.835-2.016 3.6-2.664 6.731-2.664 5.291 0 7.99 2.232 7.99 6.623v12.347zm-.108-7.919h-3.563c-1.872 0-2.772.756-2.772 2.16 0 1.296.9 2.124 2.843 2.124a3.56 3.56 0 0 0 2.772-.9 2.9 2.9 0 0 0 .72-2.376zm15.012 7.92a5.096 5.096 0 0 1-5.471-5.364V226h4.68v19.978c0 1.115.467 1.691 1.656 1.691h1.8v3.96zm24.371 0v-1.62a5.7 5.7 0 0 1-4.607 1.798 6.484 6.484 0 0 1-4.787-1.655 6.01 6.01 0 0 1-1.548-4.212c0-2.987 2.052-5.435 6.48-5.435h4.355v-.936c0-2.052-1.008-2.951-3.492-2.951a4.15 4.15 0 0 0-3.6 1.62l-2.952-2.916c1.836-2.016 3.6-2.664 6.732-2.664 5.29 0 7.99 2.232 7.99 6.623v12.347zm-.107-7.92h-3.564c-1.872 0-2.772.756-2.772 2.16 0 1.296.9 2.124 2.844 2.124a3.56 3.56 0 0 0 2.771-.9 2.9 2.9 0 0 0 .72-2.376zm23.472 6.444a6.284 6.284 0 0 1-4.536 1.691 5.659 5.659 0 0 1-4.68-1.98v1.764h-4.535V226h4.679v8.531a5.501 5.501 0 0 1 4.536-1.872 6.226 6.226 0 0 1 4.535 1.692c1.8 1.836 1.944 4.752 1.944 7.883 0 3.168-.144 6.084-1.944 7.92zm-5.904-13.283c-2.807 0-3.168 2.34-3.168 5.363s.36 5.4 3.168 5.4 3.168-2.376 3.168-5.4-.36-5.363-3.168-5.363zm25.27 12.67a7.834 7.834 0 0 1-5.83 2.304 7.744 7.744 0 0 1-5.796-2.304c-1.692-1.8-2.124-3.923-2.124-7.307s.432-5.471 2.124-7.27a8.486 8.486 0 0 1 11.626 0c1.692 1.8 2.124 3.887 2.124 7.27s-.396 5.544-2.124 7.307zM376.51 237.7a3.277 3.277 0 0 0-4.355 0c-.972.936-1.08 2.627-1.08 4.535 0 1.944.108 3.636 1.08 4.572a3.279 3.279 0 0 0 4.355 0c.973-.936 1.08-2.628 1.08-4.572 0-1.908-.107-3.599-1.08-4.535zm21.026 13.93v-1.727a6.42 6.42 0 0 1-4.68 1.943 6.088 6.088 0 0 1-4.428-1.656 6.949 6.949 0 0 1-1.907-5.327v-11.986h4.679v11.338c0 2.556 1.62 3.42 3.096 3.42s3.132-.864 3.132-3.42v-11.338h4.68v18.753zm15.696 0a5.086 5.086 0 0 1-5.435-5.363v-9.287h-1.98v-3.564h1.98v-5.543h4.68v5.543h3.311v3.564h-3.311v8.999c0 1.08.504 1.692 1.619 1.692h1.692v3.959zM28.9 297.721c-2.88 0-4.86-.576-6.803-2.448l2.915-2.952a4.777 4.777 0 0 0 3.672 1.44c2.808 0 3.78-1.98 3.78-3.888v-1.908A5.492 5.492 0 0 1 28 289.838a6.243 6.243 0 0 1-4.463-1.656c-1.764-1.764-1.908-4.175-1.908-7.45s.144-5.652 1.908-7.416a6.329 6.329 0 0 1 4.5-1.656 5.492 5.492 0 0 1 4.57 1.98v-1.764h4.536v18.07c0 4.5-3.204 7.774-8.243 7.774zm.468-21.85c-2.772 0-3.06 2.376-3.06 4.86s.288 4.896 3.06 4.896 3.095-2.412 3.095-4.896-.324-4.86-3.096-4.86zm23.219 1.116a3.129 3.129 0 0 0-5.507 2.34v11.303H42.4v-18.754h4.572v1.8a6.348 6.348 0 0 1 4.715-2.016 5.656 5.656 0 0 1 4.427 1.764zm6.121-8.314v-3.816h4.788v3.816zm.072 21.957v-18.214h4.68v18.214zm15.19 0a5.096 5.096 0 0 1-5.47-5.363V265h4.679v19.977c0 1.116.468 1.692 1.656 1.692h1.8v3.96zm11.7 0a5.096 5.096 0 0 1-5.47-5.364v-20.265h4.68v19.977c0 1.116.468 1.692 1.655 1.692h1.8v3.96zm6.337-21.957v-3.815h4.788v3.815zm.072 21.957v-18.214h4.68v18.214zm20.807 0v-11.34c0-2.555-1.62-3.418-3.096-3.418s-3.131.863-3.131 3.419v11.339h-4.68v-18.754h4.572v1.728a6.417 6.417 0 0 1 4.679-1.944 6.09 6.09 0 0 1 4.428 1.656 6.95 6.95 0 0 1 1.907 5.327v11.987zm16.2 7.09c-2.88 0-4.859-.574-6.803-2.446l2.916-2.953a4.777 4.777 0 0 0 3.672 1.44c2.807 0 3.779-1.98 3.779-3.887v-1.909a5.492 5.492 0 0 1-4.464 1.872 6.243 6.243 0 0 1-4.463-1.655c-1.764-1.764-1.908-4.176-1.908-7.45s.144-5.652 1.908-7.416a6.33 6.33 0 0 1 4.5-1.656 5.492 5.492 0 0 1 4.571 1.98v-1.764h4.535v18.07c0 4.5-3.204 7.774-8.243 7.774zm.468-21.848c-2.771 0-3.06 2.375-3.06 4.86s.288 4.895 3.06 4.895 3.096-2.412 3.096-4.895-.324-4.86-3.096-4.86zm34.343 12.67a7.836 7.836 0 0 1-5.831 2.304 7.747 7.747 0 0 1-5.796-2.304c-1.691-1.8-2.123-3.924-2.123-7.306s.432-5.472 2.123-7.272a8.486 8.486 0 0 1 11.627 0c1.692 1.8 2.124 3.888 2.124 7.272s-.396 5.542-2.124 7.306zm-3.635-11.842a2.962 2.962 0 0 0-2.196-.828 2.933 2.933 0 0 0-2.16.827c-.972.937-1.08 2.628-1.08 4.537 0 1.943.108 3.635 1.08 4.57a2.93 2.93 0 0 0 2.16.829 2.96 2.96 0 0 0 2.196-.828c.971-.936 1.08-2.628 1.08-4.571 0-1.91-.109-3.6-1.08-4.537zm21.023 13.93v-1.728a6.417 6.417 0 0 1-4.68 1.944 6.09 6.09 0 0 1-4.427-1.655 6.952 6.952 0 0 1-1.908-5.329v-11.986h4.68v11.339c0 2.555 1.62 3.42 3.096 3.42s3.131-.865 3.131-3.42v-11.34h4.68v18.755zm15.697 0a5.086 5.086 0 0 1-5.436-5.363v-9.287h-1.98v-3.564h1.98v-5.543h4.68v5.543h3.312v3.564h-3.312v8.999c0 1.08.504 1.691 1.62 1.691h1.692v3.96zm15.084-21.957v-3.815h4.787v3.815zm.071 21.957v-18.214h4.68v18.214zm20.807 0v-11.34c0-2.555-1.62-3.418-3.096-3.418s-3.131.863-3.131 3.419v11.339h-4.68v-18.754h4.572v1.728a6.417 6.417 0 0 1 4.68-1.944 6.089 6.089 0 0 1 4.427 1.656 6.95 6.95 0 0 1 1.908 5.327v11.987zm23.94 0a5.086 5.086 0 0 1-5.436-5.363v-9.287h-1.98v-3.564h1.98v-5.543h4.68v5.543h3.312v3.564h-3.312v8.999c0 1.08.504 1.691 1.62 1.691h1.692v3.96zm17.711 0v-11.34c0-2.555-1.62-3.418-3.096-3.418s-3.132.863-3.132 3.419v11.339h-4.678V265h4.678v8.604a6.015 6.015 0 0 1 4.573-1.944 6.09 6.09 0 0 1 4.427 1.656 6.95 6.95 0 0 1 1.908 5.327v11.987zm13.393-7.919a3.838 3.838 0 0 0 4.103 4.176 5.303 5.303 0 0 0 4.248-1.764l2.844 2.772a8.82 8.82 0 0 1-7.127 2.95c-4.428 0-8.676-2.015-8.676-9.61 0-6.118 3.312-9.574 8.171-9.574 5.22 0 8.172 3.743 8.172 9.071v1.98zm6.695-5.22a3.494 3.494 0 0 0-6.263 0 4.6 4.6 0 0 0-.432 2.016h7.127a4.6 4.6 0 0 0-.432-2.016zm23.868 13.355c-2.952 0-5.58-.325-7.991-2.7l3.06-3.06a6.761 6.761 0 0 0 5.003 1.764c1.62 0 3.311-.54 3.311-1.944 0-.936-.468-1.583-1.98-1.728l-3.023-.288c-3.311-.324-5.4-1.8-5.4-5.255 0-3.924 3.42-5.976 7.236-5.976 2.951 0 5.364.54 7.163 2.197l-2.88 2.915a6.459 6.459 0 0 0-4.355-1.26c-1.872 0-2.663.864-2.663 1.8s.539 1.475 1.943 1.62l2.951.288c3.708.36 5.58 2.304 5.58 5.507 0 4.14-3.528 6.12-7.954 6.12zm22.68-.216v-1.728a6.419 6.419 0 0 1-4.68 1.944 6.09 6.09 0 0 1-4.428-1.656 6.951 6.951 0 0 1-1.907-5.328v-11.986h4.679v11.339c0 2.555 1.62 3.42 3.095 3.42s3.132-.865 3.132-3.42v-11.34h4.68v18.755zm31.643 0v-11.34c0-2.555-1.62-3.418-3.096-3.418a3.021 3.021 0 0 0-3.132 3.311v11.447h-4.68v-11.34c0-2.555-1.62-3.418-3.096-3.418s-3.131.863-3.131 3.419v11.339h-4.679v-18.754h4.571v1.728a6.558 6.558 0 0 1 4.68-1.944 5.809 5.809 0 0 1 4.967 2.376 7.15 7.15 0 0 1 5.615-2.376 6.54 6.54 0 0 1 4.608 1.656 7.07 7.07 0 0 1 2.051 5.327v11.987zm31.535 0v-11.34c0-2.555-1.62-3.418-3.096-3.418a3.021 3.021 0 0 0-3.132 3.311v11.447h-4.68v-11.34c0-2.555-1.62-3.418-3.095-3.418s-3.132.863-3.132 3.419v11.339h-4.679v-18.754h4.571v1.728a6.558 6.558 0 0 1 4.68-1.944 5.809 5.809 0 0 1 4.967 2.376 7.15 7.15 0 0 1 5.615-2.376 6.54 6.54 0 0 1 4.608 1.656 7.07 7.07 0 0 1 2.052 5.327v11.987zm13.393-7.92a3.838 3.838 0 0 0 4.104 4.177 5.304 5.304 0 0 0 4.248-1.764l2.844 2.771a8.82 8.82 0 0 1-7.127 2.952c-4.428 0-8.676-2.016-8.676-9.61 0-6.12 3.312-9.576 8.17-9.576 5.22 0 8.173 3.744 8.173 9.072v1.98zm6.696-5.22a3.494 3.494 0 0 0-6.263 0 4.602 4.602 0 0 0-.433 2.016h7.128a4.6 4.6 0 0 0-.432-2.015zm19.548-.503a3.129 3.129 0 0 0-5.508 2.34v11.303h-4.679v-18.754h4.571v1.8a6.346 6.346 0 0 1 4.715-2.016 5.657 5.657 0 0 1 4.428 1.764zm3.132 13.642v-5.327h5.364v5.328zm-424.398 39v-25.628h5.004v25.629zm16.487 0a5.086 5.086 0 0 1-5.435-5.363v-9.287h-1.98v-3.563h1.98v-5.543h4.68v5.543h3.311v3.563h-3.312v9c0 1.08.504 1.69 1.62 1.69h1.692v3.96zm21.635 7.091c-2.88 0-4.859-.575-6.803-2.447l2.916-2.952a4.777 4.777 0 0 0 3.672 1.44c2.807 0 3.779-1.98 3.779-3.888v-1.908a5.492 5.492 0 0 1-4.463 1.872 6.243 6.243 0 0 1-4.464-1.655c-1.763-1.765-1.908-4.176-1.908-7.452s.145-5.65 1.908-7.415a6.33 6.33 0 0 1 4.5-1.656 5.492 5.492 0 0 1 4.571 1.98v-1.764h4.536v18.07c0 4.5-3.204 7.776-8.243 7.776zm.468-21.848c-2.771 0-3.06 2.375-3.06 4.859s.288 4.895 3.06 4.895 3.096-2.412 3.096-4.895-.324-4.86-3.096-4.86zm12.961-7.2v-3.815h4.788v3.815zm.072 21.957v-18.213h4.68v18.214zm17.999 0h-3.671l-6.911-18.753h4.931l3.816 11.59 3.78-11.59h4.93zm12.997-7.919a3.838 3.838 0 0 0 4.103 4.176 5.302 5.302 0 0 0 4.248-1.763l2.843 2.771a8.819 8.819 0 0 1-7.127 2.951c-4.427 0-8.675-2.015-8.675-9.61 0-6.119 3.312-9.575 8.171-9.575 5.22 0 8.171 3.743 8.171 9.071v1.98zm6.694-5.22a3.495 3.495 0 0 0-6.263 0 4.6 4.6 0 0 0-.431 2.016h7.127a4.6 4.6 0 0 0-.432-2.015zm15.517 13.356c-2.952 0-5.58-.325-7.99-2.7l3.06-3.06a6.762 6.762 0 0 0 5.003 1.764c1.62 0 3.311-.54 3.311-1.945 0-.935-.468-1.582-1.98-1.727l-3.024-.288c-3.312-.324-5.4-1.8-5.4-5.255 0-3.924 3.42-5.976 7.236-5.976 2.952 0 5.363.54 7.163 2.197l-2.88 2.915a6.459 6.459 0 0 0-4.355-1.26c-1.872 0-2.664.864-2.664 1.8s.54 1.475 1.944 1.62l2.951.288c3.708.36 5.58 2.304 5.58 5.507 0 4.14-3.528 6.12-7.955 6.12zm26.1-.216a5.086 5.086 0 0 1-5.436-5.364v-9.287h-1.98v-3.563h1.98v-5.543h4.68v5.543h3.312v3.563h-3.312v9c0 1.08.504 1.69 1.62 1.69h1.692v3.96zm17.71 0v-11.34c0-2.555-1.62-3.418-3.096-3.418s-3.131.863-3.131 3.419v11.339h-4.68V304h4.68v8.604a6.012 6.012 0 0 1 4.571-1.944 6.09 6.09 0 0 1 4.428 1.656 6.95 6.95 0 0 1 1.908 5.327v11.987zm13.393-7.92a3.838 3.838 0 0 0 4.104 4.177 5.302 5.302 0 0 0 4.247-1.764l2.843 2.771a8.819 8.819 0 0 1-7.126 2.951c-4.428 0-8.675-2.015-8.675-9.61 0-6.119 3.311-9.575 8.17-9.575 5.22 0 8.171 3.743 8.171 9.072v1.98zm6.695-5.22a3.495 3.495 0 0 0-6.263 0 4.607 4.607 0 0 0-.432 2.016h7.127a4.6 4.6 0 0 0-.432-2.015zm22.968-1.511v14.65h-4.679v-14.65h-1.944v-3.563h1.944v-2.34a5.116 5.116 0 0 1 5.471-5.364h2.664v3.96h-1.836c-1.116 0-1.62.612-1.62 1.692v2.051h3.456v3.564zm19.475 12.562a7.835 7.835 0 0 1-5.831 2.304 7.745 7.745 0 0 1-5.795-2.304c-1.693-1.8-2.124-3.923-2.124-7.306s.431-5.472 2.124-7.272a8.486 8.486 0 0 1 11.626 0c1.691 1.8 2.124 3.888 2.124 7.272s-.396 5.543-2.124 7.307zm-3.636-11.842a3.28 3.28 0 0 0-4.355 0c-.972.936-1.08 2.628-1.08 4.536 0 1.943.108 3.635 1.08 4.571a3.277 3.277 0 0 0 4.355 0c.973-.935 1.08-2.628 1.08-4.571 0-1.908-.107-3.6-1.08-4.536zm23.184 11.842a7.835 7.835 0 0 1-5.831 2.304 7.746 7.746 0 0 1-5.795-2.304c-1.693-1.8-2.124-3.923-2.124-7.306s.431-5.472 2.124-7.272a8.486 8.486 0 0 1 11.626 0c1.692 1.8 2.124 3.888 2.124 7.272s-.397 5.543-2.124 7.307zm-3.636-11.842a3.28 3.28 0 0 0-4.356 0c-.971.936-1.079 2.628-1.079 4.536 0 1.943.108 3.635 1.08 4.571a3.277 3.277 0 0 0 4.355 0c.973-.935 1.08-2.628 1.08-4.571 0-1.908-.107-3.6-1.08-4.536zm20.592 13.931v-1.764a5.632 5.632 0 0 1-4.644 1.98 6.314 6.314 0 0 1-4.571-1.692c-1.8-1.835-1.943-4.751-1.943-7.918 0-3.132.143-6.048 1.943-7.884a6.23 6.23 0 0 1 4.536-1.692 5.619 5.619 0 0 1 4.572 1.872v-8.53h4.678v25.628zm-3.312-14.758c-2.807 0-3.167 2.34-3.167 5.364s.36 5.399 3.167 5.399 3.205-2.376 3.205-5.4-.397-5.363-3.205-5.363zm31.104 14.758v-1.62a5.699 5.699 0 0 1-4.608 1.8 6.484 6.484 0 0 1-4.787-1.655 6.01 6.01 0 0 1-1.548-4.212c0-2.988 2.052-5.436 6.48-5.436h4.355v-.935c0-2.052-1.007-2.951-3.492-2.951a4.15 4.15 0 0 0-3.6 1.619l-2.95-2.915c1.835-2.016 3.6-2.664 6.73-2.664 5.292 0 7.99 2.231 7.99 6.623v12.346zm-.108-7.919h-3.563c-1.872 0-2.772.756-2.772 2.16 0 1.295.9 2.123 2.843 2.123a3.56 3.56 0 0 0 2.772-.9 2.901 2.901 0 0 0 .72-2.375zm28.439 7.919v-1.764a5.631 5.631 0 0 1-4.644 1.98 6.314 6.314 0 0 1-4.57-1.692c-1.8-1.835-1.944-4.751-1.944-7.918 0-3.132.143-6.048 1.943-7.884a6.23 6.23 0 0 1 4.536-1.692 5.619 5.619 0 0 1 4.571 1.872v-8.53h4.68v25.628zm-3.312-14.758c-2.807 0-3.167 2.34-3.167 5.364s.36 5.399 3.167 5.399 3.204-2.376 3.204-5.4-.396-5.363-3.204-5.363zm13.07-7.199v-3.815h4.787v3.815zm.072 21.957v-18.214h4.679v18.214zm15.154-14.65v14.65h-4.68v-14.65h-1.943v-3.563h1.943v-2.34a5.117 5.117 0 0 1 5.472-5.364h2.664v3.96h-1.836c-1.116 0-1.62.612-1.62 1.692v2.052h3.456v3.563zm12.313 0v14.65h-4.68v-14.65h-1.944v-3.563h1.944v-2.34a5.117 5.117 0 0 1 5.471-5.364h2.665v3.96h-1.836c-1.117 0-1.62.612-1.62 1.692v2.052h3.456v3.563zm10.223 6.731a3.838 3.838 0 0 0 4.104 4.176 5.304 5.304 0 0 0 4.248-1.763l2.844 2.771a8.821 8.821 0 0 1-7.128 2.951c-4.427 0-8.675-2.015-8.675-9.61 0-6.119 3.311-9.575 8.17-9.575 5.22 0 8.173 3.743 8.173 9.071v1.98zm6.696-5.22a3.494 3.494 0 0 0-6.263 0 4.602 4.602 0 0 0-.433 2.016h7.128a4.6 4.6 0 0 0-.432-2.016zm19.548-.503a3.129 3.129 0 0 0-5.508 2.34v11.302h-4.679v-18.754h4.571v1.8a6.346 6.346 0 0 1 4.715-2.016 5.657 5.657 0 0 1 4.428 1.764zm8.783 5.723a3.838 3.838 0 0 0 4.103 4.176 5.304 5.304 0 0 0 4.248-1.764l2.844 2.772a8.82 8.82 0 0 1-7.127 2.951c-4.428 0-8.676-2.016-8.676-9.61 0-6.12 3.312-9.575 8.171-9.575 5.22 0 8.172 3.743 8.172 9.071v1.98zm6.695-5.22a3.494 3.494 0 0 0-6.263 0 4.6 4.6 0 0 0-.432 2.016h7.128a4.6 4.6 0 0 0-.433-2.016zm20.269 13.139v-11.34c0-2.555-1.62-3.418-3.096-3.418s-3.132.863-3.132 3.419v11.339h-4.679v-18.754h4.572v1.728a6.417 6.417 0 0 1 4.68-1.944 6.089 6.089 0 0 1 4.426 1.656 6.95 6.95 0 0 1 1.909 5.327v11.987zm15.589 0a5.086 5.086 0 0 1-5.436-5.363v-9.287h-1.98v-3.564h1.98v-5.543h4.68v5.543h3.312v3.564h-3.312v8.999c0 1.08.504 1.691 1.62 1.691h1.692v3.96zm-423.39 39a5.086 5.086 0 0 1-5.436-5.363v-9.287h-1.98v-3.564h1.98v-5.543h4.68v5.543h3.312v3.564h-3.312v8.999c0 1.08.504 1.691 1.62 1.691h1.692v3.96zm16.27 0v-1.62a5.7 5.7 0 0 1-4.607 1.8 6.484 6.484 0 0 1-4.787-1.655 6.01 6.01 0 0 1-1.548-4.212c0-2.988 2.052-5.436 6.48-5.436h4.355v-.935c0-2.052-1.008-2.951-3.491-2.951a4.15 4.15 0 0 0-3.6 1.619l-2.952-2.915c1.836-2.016 3.6-2.664 6.731-2.664 5.292 0 7.991 2.231 7.991 6.623v12.346zm-.107-7.919h-3.563c-1.872 0-2.772.756-2.772 2.16 0 1.295.9 2.123 2.844 2.123a3.563 3.563 0 0 0 2.771-.9 2.901 2.901 0 0 0 .72-2.375zm15.876 8.135c-2.952 0-5.58-.324-7.991-2.7l3.06-3.06a6.762 6.762 0 0 0 5.003 1.764c1.62 0 3.312-.54 3.312-1.944 0-.936-.468-1.583-1.98-1.728l-3.024-.288c-3.311-.324-5.4-1.8-5.4-5.255 0-3.923 3.42-5.975 7.236-5.975 2.952 0 5.363.54 7.163 2.196l-2.88 2.915a6.46 6.46 0 0 0-4.355-1.26c-1.872 0-2.664.864-2.664 1.8s.54 1.476 1.944 1.62l2.952.288c3.707.36 5.579 2.304 5.579 5.507 0 4.14-3.527 6.12-7.955 6.12zm17.424-.216a5.086 5.086 0 0 1-5.436-5.363v-9.287h-1.98v-3.564h1.98v-5.543h4.68v5.543h3.312v3.564h-3.312v8.999c0 1.08.504 1.691 1.62 1.691h1.692v3.96zm10.331-7.919a3.838 3.838 0 0 0 4.104 4.176 5.302 5.302 0 0 0 4.248-1.764l2.843 2.772a8.819 8.819 0 0 1-7.127 2.95c-4.427 0-8.675-2.015-8.675-9.61 0-6.118 3.312-9.574 8.17-9.574 5.22 0 8.172 3.743 8.172 9.071v1.98zm6.695-5.22a3.495 3.495 0 0 0-6.263 0 4.607 4.607 0 0 0-.432 2.016h7.128a4.602 4.602 0 0 0-.432-2.016zm27.324 13.139v-1.62a5.699 5.699 0 0 1-4.607 1.8 6.484 6.484 0 0 1-4.787-1.655 6.01 6.01 0 0 1-1.548-4.212c0-2.988 2.052-5.436 6.479-5.436h4.355v-.935c0-2.052-1.007-2.951-3.491-2.951a4.149 4.149 0 0 0-3.6 1.619l-2.951-2.915c1.835-2.016 3.6-2.664 6.73-2.664 5.292 0 7.992 2.231 7.992 6.623v12.346zm-.108-7.919h-3.563c-1.872 0-2.772.756-2.772 2.16 0 1.295.9 2.123 2.844 2.123a3.563 3.563 0 0 0 2.772-.9 2.901 2.901 0 0 0 .72-2.375zm20.628 7.919v-11.34c0-2.555-1.62-3.418-3.096-3.418s-3.131.863-3.131 3.419v11.339h-4.68v-18.754h4.571v1.728a6.418 6.418 0 0 1 4.68-1.944 6.09 6.09 0 0 1 4.427 1.656 6.95 6.95 0 0 1 1.908 5.327v11.987zm20.088 0v-1.764a5.631 5.631 0 0 1-4.643 1.98 6.314 6.314 0 0 1-4.572-1.692c-1.8-1.835-1.943-4.751-1.943-7.918 0-3.132.144-6.048 1.943-7.884a6.23 6.23 0 0 1 4.536-1.692 5.617 5.617 0 0 1 4.571 1.872v-8.531h4.68v25.629zm-3.312-14.758c-2.807 0-3.167 2.34-3.167 5.364s.36 5.399 3.167 5.399 3.204-2.376 3.204-5.4-.396-5.363-3.204-5.363zm31.68 1.116a3.129 3.129 0 0 0-5.507 2.34v11.302h-4.68v-18.754h4.572v1.8a6.348 6.348 0 0 1 4.715-2.016 5.656 5.656 0 0 1 4.427 1.764zm8.785 5.723a3.838 3.838 0 0 0 4.103 4.176 5.302 5.302 0 0 0 4.248-1.764l2.843 2.772a8.819 8.819 0 0 1-7.127 2.95c-4.427 0-8.675-2.015-8.675-9.61 0-6.118 3.312-9.574 8.171-9.574 5.22 0 8.17 3.743 8.17 9.071v1.98zm6.694-5.22a3.495 3.495 0 0 0-6.263 0 4.607 4.607 0 0 0-.432 2.016h7.127a4.6 4.6 0 0 0-.432-2.016zm31.175 13.139v-11.34c0-2.555-1.62-3.418-3.095-3.418a3.021 3.021 0 0 0-3.132 3.311v11.447h-4.68v-11.34c0-2.555-1.62-3.418-3.096-3.418s-3.132.863-3.132 3.419v11.339h-4.678v-18.754h4.57v1.728a6.558 6.558 0 0 1 4.68-1.944 5.809 5.809 0 0 1 4.968 2.376 7.15 7.15 0 0 1 5.615-2.376 6.54 6.54 0 0 1 4.607 1.656 7.07 7.07 0 0 1 2.052 5.327v11.987zm9.65-21.957v-3.815h4.787v3.815zm.072 21.957v-18.214h4.679v18.214zm20.806 0v-11.34c0-2.555-1.62-3.418-3.096-3.418s-3.132.863-3.132 3.419v11.339h-4.679v-18.754h4.572v1.728a6.417 6.417 0 0 1 4.68-1.944 6.09 6.09 0 0 1 4.426 1.656 6.95 6.95 0 0 1 1.909 5.327v11.987zm20.087 0v-1.764a5.632 5.632 0 0 1-4.643 1.98 6.314 6.314 0 0 1-4.571-1.692c-1.8-1.835-1.944-4.751-1.944-7.918 0-3.132.144-6.048 1.944-7.884a6.23 6.23 0 0 1 4.536-1.692 5.619 5.619 0 0 1 4.571 1.872v-8.53h4.679v25.628zm-3.311-14.758c-2.808 0-3.167 2.34-3.167 5.364s.36 5.399 3.167 5.399 3.204-2.376 3.204-5.4-.396-5.363-3.204-5.363zm19.297 14.974c-2.952 0-5.58-.324-7.991-2.7l3.06-3.06a6.761 6.761 0 0 0 5.002 1.764c1.62 0 3.312-.54 3.312-1.944 0-.936-.468-1.583-1.98-1.728l-3.023-.288c-3.312-.324-5.4-1.8-5.4-5.255 0-3.923 3.42-5.975 7.236-5.975 2.95 0 5.363.54 7.163 2.196l-2.88 2.915a6.46 6.46 0 0 0-4.356-1.26c-1.872 0-2.663.864-2.663 1.8s.54 1.476 1.943 1.62l2.952.288c3.708.36 5.58 2.304 5.58 5.507 0 4.14-3.528 6.12-7.955 6.12zm42.046-.216v-11.34c0-2.555-1.62-3.418-3.096-3.418a3.021 3.021 0 0 0-3.132 3.311v11.447h-4.68v-11.34c0-2.555-1.62-3.418-3.096-3.418s-3.131.863-3.131 3.419v11.339h-4.68v-18.754h4.572v1.728a6.558 6.558 0 0 1 4.68-1.944 5.809 5.809 0 0 1 4.967 2.376 7.15 7.15 0 0 1 5.615-2.376 6.54 6.54 0 0 1 4.608 1.656 7.07 7.07 0 0 1 2.051 5.327v11.987zm13.392-7.919a3.838 3.838 0 0 0 4.104 4.176 5.304 5.304 0 0 0 4.248-1.764l2.844 2.772a8.821 8.821 0 0 1-7.128 2.95c-4.427 0-8.675-2.015-8.675-9.61 0-6.118 3.311-9.574 8.17-9.574 5.22 0 8.173 3.743 8.173 9.071v1.98zm6.696-5.22a3.494 3.494 0 0 0-6.263 0 4.6 4.6 0 0 0-.433 2.016h7.128a4.6 4.6 0 0 0-.432-2.016zm30.67 11.05a7.835 7.835 0 0 1-5.83 2.305 7.746 7.746 0 0 1-5.795-2.304c-1.693-1.8-2.125-3.924-2.125-7.307s.432-5.471 2.124-7.271a8.486 8.486 0 0 1 11.626 0c1.692 1.8 2.124 3.887 2.124 7.271s-.396 5.543-2.123 7.307zm-3.635-11.842a3.28 3.28 0 0 0-4.356 0c-.971.937-1.079 2.628-1.079 4.536 0 1.944.108 3.636 1.08 4.572a3.277 3.277 0 0 0 4.355 0c.972-.936 1.08-2.628 1.08-4.572 0-1.908-.108-3.6-1.08-4.536zm15.481-.72v14.65h-4.68v-14.65h-1.943v-3.563h1.943v-2.34a5.117 5.117 0 0 1 5.472-5.364h2.664v3.96h-1.836c-1.116 0-1.62.612-1.62 1.692v2.052h3.456v3.563zm-379.11 53.867c-3.744 0-8.387-2.016-8.387-9.61s4.643-9.576 8.386-9.576a7.989 7.989 0 0 1 6.192 2.52l-3.168 3.168a3.787 3.787 0 0 0-3.024-1.476 3.245 3.245 0 0 0-2.663 1.224 6.355 6.355 0 0 0-1.044 4.14 6.468 6.468 0 0 0 1.044 4.175 3.246 3.246 0 0 0 2.663 1.224 3.788 3.788 0 0 0 3.024-1.476l3.168 3.132a8.016 8.016 0 0 1-6.192 2.555zm20.735-.216v-11.34c0-2.555-1.62-3.418-3.096-3.418s-3.131.863-3.131 3.419v11.339H39.7V382h4.68v8.604a6.012 6.012 0 0 1 4.571-1.944 6.09 6.09 0 0 1 4.428 1.656 6.95 6.95 0 0 1 1.907 5.327v11.987zm9.65-21.957v-3.816h4.787v3.816zm.07 21.957v-18.214h4.68v18.214zm15.192 0a5.096 5.096 0 0 1-5.47-5.364v-20.265h4.678v19.977c0 1.116.469 1.692 1.656 1.692h1.8v3.96zm16.451 0v-1.764a5.631 5.631 0 0 1-4.643 1.98 6.314 6.314 0 0 1-4.571-1.692c-1.8-1.835-1.944-4.751-1.944-7.918 0-3.132.144-6.048 1.944-7.884a6.23 6.23 0 0 1 4.535-1.692 5.617 5.617 0 0 1 4.572 1.872v-8.53h4.68v25.628zm-3.311-14.758c-2.808 0-3.167 2.34-3.167 5.363s.36 5.4 3.167 5.4 3.204-2.376 3.204-5.4-.396-5.363-3.204-5.363zm24.047 14.758v-11.34c0-2.555-1.62-3.418-3.096-3.418s-3.131.863-3.131 3.419v11.339h-4.68V382h4.68v8.604a6.012 6.012 0 0 1 4.571-1.944 6.09 6.09 0 0 1 4.428 1.656 6.95 6.95 0 0 1 1.907 5.327v11.987zm22.68-2.088a7.835 7.835 0 0 1-5.831 2.304 7.747 7.747 0 0 1-5.796-2.304c-1.691-1.8-2.123-3.924-2.123-7.306s.432-5.472 2.124-7.272a8.486 8.486 0 0 1 11.626 0c1.692 1.8 2.124 3.888 2.124 7.271s-.396 5.543-2.124 7.307zM131.75 393.7a2.962 2.962 0 0 0-2.196-.827 2.933 2.933 0 0 0-2.16.827c-.972.936-1.08 2.628-1.08 4.536 0 1.943.108 3.636 1.08 4.571a2.93 2.93 0 0 0 2.16.829 2.96 2.96 0 0 0 2.196-.829c.972-.935 1.08-2.627 1.08-4.57 0-1.91-.108-3.6-1.08-4.537zm23.184 11.843a7.836 7.836 0 0 1-5.831 2.304 7.747 7.747 0 0 1-5.796-2.304c-1.692-1.8-2.123-3.924-2.123-7.307s.431-5.472 2.123-7.271a8.486 8.486 0 0 1 11.627 0c1.692 1.8 2.124 3.887 2.124 7.271s-.396 5.543-2.124 7.307zm-3.636-11.843a2.962 2.962 0 0 0-2.195-.827 2.932 2.932 0 0 0-2.16.827c-.973.936-1.08 2.628-1.08 4.536 0 1.943.107 3.636 1.08 4.571a2.93 2.93 0 0 0 2.16.829 2.96 2.96 0 0 0 2.195-.829c.972-.935 1.08-2.627 1.08-4.57 0-1.91-.108-3.6-1.08-4.537zm20.592 13.931v-1.764a5.631 5.631 0 0 1-4.643 1.98 6.314 6.314 0 0 1-4.572-1.692c-1.8-1.835-1.943-4.751-1.943-7.918 0-3.132.144-6.048 1.943-7.884a6.23 6.23 0 0 1 4.536-1.692 5.617 5.617 0 0 1 4.571 1.872v-8.53h4.68v25.628zm-3.312-14.758c-2.807 0-3.167 2.34-3.167 5.364s.36 5.399 3.167 5.399 3.204-2.376 3.204-5.4-.396-5.363-3.204-5.363zm-147.72 45.452v-.953H31.53v.953zm22.472 3.306l-.798-2.255h-4.356l-.799 2.255h-1.135l3.67-9.974h.897l3.656 9.974zm-2.956-8.446l-1.877 5.266h3.726zm9.927 8.446v-4.244a1.707 1.707 0 1 0-3.404 0v4.244h-1.008v-6.892h1.008v.756a2.486 2.486 0 0 1 1.933-.84 2.413 2.413 0 0 1 1.766.645 2.545 2.545 0 0 1 .714 1.918v4.413zm7.882-.7a2.88 2.88 0 0 1-3.95 0 4.906 4.906 0 0 1 0-5.491 2.88 2.88 0 0 1 3.95 0 4.906 4.906 0 0 1 0 5.491zm-.714-4.875a1.733 1.733 0 0 0-1.261-.504 1.701 1.701 0 0 0-1.247.504 4.325 4.325 0 0 0 0 4.259 1.7 1.7 0 0 0 1.247.504 1.733 1.733 0 0 0 1.26-.504 3.023 3.023 0 0 0 .547-2.13 2.984 2.984 0 0 0-.546-2.13zm8.12 5.575v-4.244a1.707 1.707 0 1 0-3.404 0v4.244h-1.008v-6.892h1.008v.756a2.486 2.486 0 0 1 1.933-.84 2.413 2.413 0 0 1 1.766.645 2.545 2.545 0 0 1 .714 1.918v4.413zm5.165 1.667a2.024 2.024 0 0 1-.49.813 1.896 1.896 0 0 1-1.345.476h-.435v-.896h.308c.701 0 .911-.225 1.135-.855l.49-1.344-2.479-6.752h1.093l1.891 5.533 1.877-5.533h1.093zm13.401-1.667v-4.244a1.711 1.711 0 1 0-3.417-.112v4.356h-1.009v-4.244a1.605 1.605 0 0 0-1.695-1.835 1.63 1.63 0 0 0-1.723 1.835v4.244h-1.008v-6.892h1.008v.756a2.516 2.516 0 0 1 1.948-.84 2.272 2.272 0 0 1 2.115 1.148 2.638 2.638 0 0 1 2.269-1.148 2.508 2.508 0 0 1 1.779.645 2.562 2.562 0 0 1 .742 1.918v4.413zm7.88-.7a2.88 2.88 0 0 1-3.95 0 4.905 4.905 0 0 1 0-5.491 2.88 2.88 0 0 1 3.95 0 4.906 4.906 0 0 1 0 5.491zm-.715-4.875a1.733 1.733 0 0 0-1.26-.504 1.701 1.701 0 0 0-1.247.504 4.324 4.324 0 0 0 0 4.259 1.7 1.7 0 0 0 1.246.504 1.733 1.733 0 0 0 1.261-.504 3.023 3.023 0 0 0 .546-2.13 2.984 2.984 0 0 0-.545-2.13zm8.065 5.575v-.77a2.525 2.525 0 0 1-1.947.855 2.446 2.446 0 0 1-1.779-.645 2.57 2.57 0 0 1-.7-1.933v-4.399h1.008v4.244c0 1.219.645 1.835 1.68 1.835a1.63 1.63 0 0 0 1.724-1.835v-4.244h1.009v6.892zm5.683.084a3.756 3.756 0 0 1-2.83-.994l.673-.673a2.85 2.85 0 0 0 2.143.799c1.148 0 1.835-.406 1.835-1.219 0-.616-.336-.938-1.149-1.009l-1.134-.097c-1.345-.113-2.06-.7-2.06-1.85 0-1.261 1.05-2.017 2.536-2.017a3.9 3.9 0 0 1 2.48.742l-.658.658a2.945 2.945 0 0 0-1.836-.545c-1.008 0-1.54.42-1.54 1.134 0 .616.378.924 1.232 1.008l1.079.099c1.204.112 2.03.56 2.03 1.863 0 1.33-1.12 2.1-2.801 2.1zm12.11-5.66a1.442 1.442 0 0 0-1.19-.503 1.683 1.683 0 0 0-1.653 1.849v4.23h-1.008v-6.892h1.008v.84a2.316 2.316 0 0 1 1.933-.924 2.122 2.122 0 0 1 1.653.645zm2.253 2.396c0 1.513.7 2.381 2.03 2.381a2.26 2.26 0 0 0 1.808-.784l.686.603a3.178 3.178 0 0 1-2.521 1.064c-1.835 0-3.012-1.093-3.012-3.53 0-2.241 1.079-3.53 2.83-3.53 1.793 0 2.83 1.275 2.83 3.348v.449zm3.432-1.905a1.77 1.77 0 0 0-3.222 0 2.63 2.63 0 0 0-.21 1.149h3.656a2.824 2.824 0 0 0-.224-1.15zm5.528 5.169a3.756 3.756 0 0 1-2.829-.994l.673-.673a2.85 2.85 0 0 0 2.143.799c1.148 0 1.835-.406 1.835-1.219 0-.616-.337-.938-1.15-1.009l-1.133-.098c-1.345-.112-2.06-.7-2.06-1.85 0-1.26 1.05-2.017 2.536-2.017a3.9 3.9 0 0 1 2.48.742l-.66.659a2.942 2.942 0 0 0-1.834-.546c-1.008 0-1.54.42-1.54 1.135 0 .616.377.923 1.232 1.007l1.078.1c1.205.111 2.032.56 2.032 1.862 0 1.331-1.121 2.102-2.803 2.102zm9.41-.602a2.374 2.374 0 0 1-1.681.602 2.244 2.244 0 0 1-1.947-.896v3.894h-1.009v-9.974h1.009v.813a2.229 2.229 0 0 1 1.947-.897 2.374 2.374 0 0 1 1.68.603 5.516 5.516 0 0 1 0 5.854zm-1.891-5.561c-1.513 0-1.737 1.288-1.737 2.633s.224 2.633 1.737 2.633c1.498 0 1.723-1.289 1.723-2.633s-.225-2.634-1.723-2.634zm9.31 5.379a2.88 2.88 0 0 1-3.95 0 4.906 4.906 0 0 1 0-5.491 2.88 2.88 0 0 1 3.95 0 4.906 4.906 0 0 1 0 5.49zm-.714-4.875a1.733 1.733 0 0 0-1.261-.504 1.701 1.701 0 0 0-1.247.504 4.325 4.325 0 0 0 0 4.259 1.701 1.701 0 0 0 1.247.503 1.733 1.733 0 0 0 1.26-.503 3.023 3.023 0 0 0 .547-2.13 2.984 2.984 0 0 0-.546-2.13zm8.12 5.575v-4.244a1.707 1.707 0 1 0-3.404 0v4.244h-1.009v-6.892h1.009v.756a2.486 2.486 0 0 1 1.933-.84 2.413 2.413 0 0 1 1.765.645 2.545 2.545 0 0 1 .714 1.918v4.413zm5.626.084a3.756 3.756 0 0 1-2.83-.994l.673-.673a2.85 2.85 0 0 0 2.143.799c1.149 0 1.835-.406 1.835-1.219 0-.616-.336-.938-1.149-1.009l-1.134-.097c-1.345-.113-2.059-.7-2.059-1.85 0-1.261 1.05-2.017 2.535-2.017a3.9 3.9 0 0 1 2.48.742l-.659.658a2.941 2.941 0 0 0-1.835-.545c-1.008 0-1.54.42-1.54 1.134 0 .616.378.924 1.232 1.008l1.079.099c1.205.112 2.031.56 2.031 1.863 0 1.33-1.12 2.1-2.801 2.1zm5.403-3.264c0 1.513.7 2.381 2.032 2.381a2.26 2.26 0 0 0 1.806-.784l.687.603a3.177 3.177 0 0 1-2.522 1.064c-1.835 0-3.011-1.093-3.011-3.53 0-2.241 1.078-3.53 2.83-3.53 1.792 0 2.83 1.275 2.83 3.348v.449zm3.432-1.905a1.77 1.77 0 0 0-3.222 0 2.63 2.63 0 0 0-.21 1.148h3.656a2.831 2.831 0 0 0-.223-1.148zm6.788-3.768v-1.134h1.135v1.135zm.056 8.853v-6.892h1.009v6.892zm7.94 0v-4.244a1.707 1.707 0 1 0-3.404 0v4.244h-1.007v-6.892h1.008v.756a2.486 2.486 0 0 1 1.933-.84 2.413 2.413 0 0 1 1.765.645 2.545 2.545 0 0 1 .715 1.918v4.413zm11.578-.518a2.374 2.374 0 0 1-1.68.602 2.244 2.244 0 0 1-1.948-.896v3.894h-1.008v-9.974h1.008v.813a2.229 2.229 0 0 1 1.948-.897 2.374 2.374 0 0 1 1.68.603 5.516 5.516 0 0 1 0 5.854zm-1.89-5.561c-1.514 0-1.738 1.288-1.738 2.633s.224 2.633 1.738 2.633c1.498 0 1.722-1.289 1.722-2.633s-.223-2.634-1.722-2.634zm8.736.504a1.442 1.442 0 0 0-1.19-.504 1.683 1.683 0 0 0-1.653 1.849v4.23h-1.009v-6.892h1.009v.84a2.316 2.316 0 0 1 1.933-.924 2.123 2.123 0 0 1 1.653.645zm6.062 4.875a2.88 2.88 0 0 1-3.95 0 4.906 4.906 0 0 1 0-5.491 2.88 2.88 0 0 1 3.95 0 4.906 4.906 0 0 1 0 5.49zm-.714-4.875a1.734 1.734 0 0 0-1.261-.504 1.702 1.702 0 0 0-1.247.504 4.329 4.329 0 0 0 0 4.259 1.702 1.702 0 0 0 1.247.503 1.733 1.733 0 0 0 1.26-.503 3.023 3.023 0 0 0 .547-2.13 2.984 2.984 0 0 0-.546-2.13zm2.965 8.67h-.728v-.882h.546c.7 0 .925-.336.925-1.008v-8.097h1.009v8.139a1.652 1.652 0 0 1-1.751 1.848zm.686-11.948v-1.134h1.136v1.135zm4.229 5.673c0 1.513.7 2.381 2.03 2.381a2.26 2.26 0 0 0 1.808-.784l.686.603a3.177 3.177 0 0 1-2.521 1.064c-1.835 0-3.012-1.093-3.012-3.53 0-2.241 1.079-3.53 2.83-3.53 1.793 0 2.83 1.275 2.83 3.348v.449zm3.432-1.905a1.77 1.77 0 0 0-3.222 0 2.63 2.63 0 0 0-.21 1.148h3.657a2.824 2.824 0 0 0-.225-1.148zm6.033 5.169c-1.737 0-3.054-1.177-3.054-3.53s1.317-3.53 3.054-3.53a2.729 2.729 0 0 1 2.27 1.023l-.687.645a1.893 1.893 0 0 0-1.583-.77 1.866 1.866 0 0 0-1.596.783 4.038 4.038 0 0 0 0 3.699 1.866 1.866 0 0 0 1.596.784 1.907 1.907 0 0 0 1.583-.784l.687.658a2.728 2.728 0 0 1-2.27 1.022zm6.117-.084a1.69 1.69 0 0 1-1.765-1.849v-4.272h-.868v-.77h.868v-2.116h1.01v2.115h1.47v.77h-1.47v4.245c0 .63.294 1.009.939 1.009h.532v.868zm8.372.084a3.756 3.756 0 0 1-2.829-.994l.672-.673a2.85 2.85 0 0 0 2.143.799c1.149 0 1.835-.406 1.835-1.219 0-.616-.336-.938-1.149-1.009l-1.134-.097c-1.344-.113-2.059-.7-2.059-1.85 0-1.261 1.05-2.017 2.535-2.017a3.9 3.9 0 0 1 2.48.742l-.658.658a2.945 2.945 0 0 0-1.835-.545c-1.009 0-1.54.42-1.54 1.134 0 .616.377.924 1.231 1.008l1.08.099c1.204.112 2.03.56 2.03 1.863.001 1.33-1.12 2.1-2.801 2.1zm9.13-.084v-.77a2.525 2.525 0 0 1-1.948.855 2.447 2.447 0 0 1-1.779-.645 2.57 2.57 0 0 1-.7-1.933v-4.399h1.008v4.244c0 1.219.645 1.835 1.681 1.835a1.63 1.63 0 0 0 1.724-1.835v-4.244h1.008v6.892zm7.363-5.575a1.441 1.441 0 0 0-1.19-.504 1.682 1.682 0 0 0-1.653 1.849v4.23h-1.008v-6.892h1.008v.84a2.315 2.315 0 0 1 1.933-.924 2.124 2.124 0 0 1 1.653.645zm4.353 5.575h-.896l-2.522-6.892h1.093l1.877 5.534 1.89-5.534h1.094zm4.437-3.18c0 1.513.701 2.38 2.031 2.38a2.263 2.263 0 0 0 1.808-.783l.685.602a3.175 3.175 0 0 1-2.52 1.065c-1.835 0-3.012-1.093-3.012-3.53 0-2.242 1.078-3.53 2.83-3.53 1.792 0 2.83 1.275 2.83 3.348v.448zm3.433-1.905a1.77 1.77 0 0 0-3.222 0 2.621 2.621 0 0 0-.211 1.148h3.656a2.833 2.833 0 0 0-.223-1.148zm4.94 6.752a2.025 2.025 0 0 1-.49.812 1.896 1.896 0 0 1-1.345.477h-.435v-.897h.309c.7 0 .91-.224 1.134-.854l.49-1.345-2.479-6.752h1.093l1.89 5.533 1.877-5.533h1.093z" fill="#fff"/><path fill="none" d="M0 0h495.806v528.187H0z"/></g></svg>
